<?xml version="1.0" encoding="UTF-8" standalone="no"?>
<!-- Created with Inkscape (http://www.inkscape.org/) -->

<svg
   xmlns:dc="http://purl.org/dc/elements/1.1/"
   xmlns:cc="http://creativecommons.org/ns#"
   xmlns:rdf="http://www.w3.org/1999/02/22-rdf-syntax-ns#"
   xmlns:svg="http://www.w3.org/2000/svg"
   xmlns="http://www.w3.org/2000/svg"
   xmlns:sodipodi="http://sodipodi.sourceforge.net/DTD/sodipodi-0.dtd"
   xmlns:inkscape="http://www.inkscape.org/namespaces/inkscape"
   width="180.21638mm"
   height="47.692226mm"
   viewBox="0 0 180.21638 47.692226"
   version="1.1"
   id="svg8"
   inkscape:version="0.92.4 (5da689c313, 2019-01-14)"
   sodipodi:docname="one.svg">
  <defs
     id="defs2" />
  <sodipodi:namedview
     id="base"
     pagecolor="#ffffff"
     bordercolor="#666666"
     borderopacity="1.0"
     inkscape:pageopacity="0.0"
     inkscape:pageshadow="2"
     inkscape:zoom="0.98994949"
     inkscape:cx="413.59629"
     inkscape:cy="69.299382"
     inkscape:document-units="mm"
     inkscape:current-layer="text817"
     showgrid="false"
     fit-margin-top="0"
     fit-margin-left="0"
     fit-margin-right="0"
     fit-margin-bottom="0"
     inkscape:window-width="1920"
     inkscape:window-height="1043"
     inkscape:window-x="1600"
     inkscape:window-y="18"
     inkscape:window-maximized="0" />
  <metadata
     id="metadata5">
    <rdf:RDF>
      <cc:Work
         rdf:about="">
        <dc:format>image/svg+xml</dc:format>
        <dc:type
           rdf:resource="http://purl.org/dc/dcmitype/StillImage" />
        <dc:title></dc:title>
      </cc:Work>
    </rdf:RDF>
  </metadata>
  <g
     inkscape:label="Layer 1"
     inkscape:groupmode="layer"
     id="layer1"
     transform="translate(-10.008797,-59.091985)">
    <g
       aria-label="160932 961 4349542 5321 544
5232 5460636 2541 14178901
5311 2542 1321 . 24401 5460637
115037 3333 5131
"
       style="font-style:normal;font-variant:normal;font-weight:normal;font-stretch:normal;font-size:10.58333302px;line-height:1.25;font-family:'Noto Color Emoji';-inkscape-font-specification:'Noto Color Emoji';letter-spacing:0px;word-spacing:0px;fill:#000000;fill-opacity:1;stroke:none;stroke-width:0.26458332"
       id="text817">
      <path
         d="m 17.243497,66.068309 h 1.705322 v -5.885946 l -1.855183,0.37207 v -0.950846 l 1.844848,-0.37207 h 1.043864 v 6.836792 h 1.705322 v 0.878499 h -4.444173 z"
         style="text-align:center;text-anchor:middle;fill:#ff0000;fill-opacity:1;stroke-width:0.26458332"
         id="path835"
         inkscape:connector-curvature="0" />
      <path
         d="m 26.162849,62.673167 q -0.702799,0 -1.116211,0.480591 -0.408244,0.480591 -0.408244,1.317749 0,0.83199 0.408244,1.317749 0.413412,0.480591 1.116211,0.480591 0.702799,0 1.111043,-0.480591 0.413412,-0.485759 0.413412,-1.317749 0,-0.837158 -0.413412,-1.317749 -0.408244,-0.480591 -1.111043,-0.480591 z m 2.072225,-3.271118 v 0.950846 q -0.392741,-0.186035 -0.795817,-0.28422 -0.397909,-0.09819 -0.79065,-0.09819 -1.033528,0 -1.581298,0.697632 -0.542603,0.697631 -0.620118,2.108398 0.304891,-0.449585 0.764812,-0.687297 0.45992,-0.242879 1.012858,-0.242879 1.162719,0 1.834513,0.707967 0.676961,0.7028 0.676961,1.917196 0,1.188558 -0.702799,1.90686 -0.7028,0.718303 -1.870687,0.718303 -1.33842,0 -2.046387,-1.023194 -0.707967,-1.028361 -0.707967,-2.976562 0,-1.829346 0.868164,-2.914551 0.868164,-1.090373 2.330607,-1.090373 0.392741,0 0.79065,0.07751 0.403076,0.07751 0.837158,0.232544 z"
         style="text-align:center;text-anchor:middle;fill:#ff0000;fill-opacity:1;stroke-width:0.26458332"
         id="path837"
         inkscape:connector-curvature="0" />
      <path
         d="m 32.772264,59.918813 q -0.806152,0 -1.214396,0.795817 -0.403076,0.79065 -0.403076,2.382284 0,1.586466 0.403076,2.382283 0.408244,0.79065 1.214396,0.79065 0.81132,0 1.214396,-0.79065 0.408244,-0.795817 0.408244,-2.382283 0,-1.591634 -0.408244,-2.382284 -0.403076,-0.795817 -1.214396,-0.795817 z m 0,-0.826823 q 1.297079,0 1.979208,1.028361 0.687296,1.023194 0.687296,2.976563 0,1.948201 -0.687296,2.976562 -0.682129,1.023194 -1.979208,1.023194 -1.297078,0 -1.984375,-1.023194 -0.682128,-1.028361 -0.682128,-2.976562 0,-1.953369 0.682128,-2.976563 0.687297,-1.028361 1.984375,-1.028361 z"
         style="text-align:center;text-anchor:middle;stroke-width:0.26458332"
         id="path839"
         inkscape:connector-curvature="0" />
      <path
         d="m 37.309456,66.786611 v -0.950846 q 0.392741,0.186035 0.795817,0.28422 0.403076,0.09819 0.790649,0.09819 1.033529,0 1.576131,-0.692464 0.547771,-0.697632 0.625285,-2.113566 -0.299723,0.444417 -0.759643,0.682129 -0.459921,0.237711 -1.018026,0.237711 -1.157552,0 -1.834513,-0.697631 -0.671794,-0.7028 -0.671794,-1.917196 0,-1.188558 0.7028,-1.90686 0.702799,-0.718303 1.870686,-0.718303 1.33842,0 2.041219,1.028361 0.707967,1.023194 0.707967,2.976563 0,1.824178 -0.868164,2.91455 -0.862996,1.085206 -2.325439,1.085206 -0.392741,0 -0.795817,-0.07752 -0.403076,-0.07751 -0.837158,-0.232544 z m 2.077392,-3.271118 q 0.7028,0 1.111044,-0.480591 0.413411,-0.480591 0.413411,-1.317749 0,-0.83199 -0.413411,-1.312581 -0.408244,-0.485759 -1.111044,-0.485759 -0.702799,0 -1.116211,0.485759 -0.408243,0.480591 -0.408243,1.312581 0,0.837158 0.408243,1.317749 0.413412,0.480591 1.116211,0.480591 z"
         style="text-align:center;text-anchor:middle;stroke-width:0.26458332"
         id="path841"
         inkscape:connector-curvature="0" />
      <path
         d="m 47.179653,62.786855 q 0.749308,0.160197 1.167887,0.666626 0.423747,0.506429 0.423747,1.25057 0,1.142049 -0.785482,1.767334 -0.785481,0.625285 -2.232421,0.625285 -0.485759,0 -1.002523,-0.09819 -0.511597,-0.09302 -1.059367,-0.28422 v -1.00769 q 0.434082,0.253214 0.950846,0.382405 0.516765,0.129191 1.080038,0.129191 0.981852,0 1.493449,-0.387573 0.516764,-0.387573 0.516764,-1.126546 0,-0.682129 -0.480591,-1.064535 -0.475423,-0.387573 -1.328084,-0.387573 h -0.89917 V 62.39411 h 0.940511 q 0.769979,0 1.178223,-0.304891 0.408243,-0.310058 0.408243,-0.888834 0,-0.594279 -0.423746,-0.909505 -0.418579,-0.320394 -1.204061,-0.320394 -0.428915,0 -0.919841,0.09302 -0.490926,0.09302 -1.080037,0.289388 V 59.42272 q 0.594279,-0.165365 1.111043,-0.248047 0.521932,-0.08268 0.981852,-0.08268 1.188558,0 1.881022,0.542603 0.692465,0.537435 0.692465,1.457275 0,0.640788 -0.366903,1.085205 -0.366903,0.43925 -1.043864,0.609782 z"
         style="text-align:center;text-anchor:middle;stroke-width:0.26458332"
         id="path843"
         inkscape:connector-curvature="0" />
      <path
         d="m 51.654831,66.068309 h 3.643188 v 0.878499 h -4.898925 v -0.878499 q 0.594279,-0.61495 1.617472,-1.648479 1.028361,-1.038696 1.291911,-1.338419 0.501261,-0.563273 0.697631,-0.950846 0.201539,-0.392741 0.201539,-0.769979 0,-0.61495 -0.434082,-1.002523 -0.428915,-0.387573 -1.121379,-0.387573 -0.490926,0 -1.038696,0.170532 -0.542603,0.170532 -1.16272,0.516764 v -1.054199 q 0.630452,-0.253214 1.178223,-0.382406 0.54777,-0.129191 1.002522,-0.129191 1.198894,0 1.912028,0.599447 0.713135,0.599447 0.713135,1.601969 0,0.475424 -0.180867,0.904338 -0.1757,0.423747 -0.645956,1.002523 -0.129191,0.149861 -0.821655,0.868164 -0.692464,0.713134 -1.953369,1.999878 z"
         style="text-align:center;text-anchor:middle;stroke-width:0.26458332"
         id="path845"
         inkscape:connector-curvature="0" />
      <path
         d="m 60.894577,66.786611 v -0.950846 q 0.392741,0.186035 0.795817,0.28422 0.403076,0.09819 0.790649,0.09819 1.033529,0 1.576132,-0.692464 0.54777,-0.697632 0.625284,-2.113566 -0.299723,0.444417 -0.759643,0.682129 -0.45992,0.237711 -1.018026,0.237711 -1.157552,0 -1.834513,-0.697631 -0.671794,-0.7028 -0.671794,-1.917196 0,-1.188558 0.7028,-1.90686 0.702799,-0.718303 1.870686,-0.718303 1.33842,0 2.04122,1.028361 0.707967,1.023194 0.707967,2.976563 0,1.824178 -0.868164,2.91455 -0.862997,1.085206 -2.32544,1.085206 -0.392741,0 -0.795817,-0.07752 -0.403076,-0.07751 -0.837158,-0.232544 z m 2.077392,-3.271118 q 0.7028,0 1.111044,-0.480591 0.413411,-0.480591 0.413411,-1.317749 0,-0.83199 -0.413411,-1.312581 -0.408244,-0.485759 -1.111044,-0.485759 -0.702799,0 -1.11621,0.485759 -0.408244,0.480591 -0.408244,1.312581 0,0.837158 0.408244,1.317749 0.413411,0.480591 1.11621,0.480591 z"
         style="text-align:center;text-anchor:middle;stroke-width:0.26458332"
         id="path847"
         inkscape:connector-curvature="0" />
      <path
         d="m 69.96379,62.673167 q -0.7028,0 -1.116211,0.480591 -0.408244,0.480591 -0.408244,1.317749 0,0.83199 0.408244,1.317749 0.413411,0.480591 1.116211,0.480591 0.702799,0 1.111043,-0.480591 0.413411,-0.485759 0.413411,-1.317749 0,-0.837158 -0.413411,-1.317749 -0.408244,-0.480591 -1.111043,-0.480591 z m 2.072224,-3.271118 v 0.950846 q -0.39274,-0.186035 -0.795817,-0.28422 -0.397908,-0.09819 -0.790649,-0.09819 -1.033529,0 -1.581299,0.697632 -0.542602,0.697631 -0.620117,2.108398 0.304891,-0.449585 0.764811,-0.687297 0.45992,-0.242879 1.012858,-0.242879 1.16272,0 1.834514,0.707967 0.676961,0.7028 0.676961,1.917196 0,1.188558 -0.7028,1.90686 -0.702799,0.718303 -1.870686,0.718303 -1.33842,0 -2.046387,-1.023194 -0.707967,-1.028361 -0.707967,-2.976562 0,-1.829346 0.868164,-2.914551 0.868164,-1.090373 2.330607,-1.090373 0.392741,0 0.790649,0.07751 0.403076,0.07751 0.837158,0.232544 z"
         style="text-align:center;text-anchor:middle;stroke-width:0.26458332"
         id="path849"
         inkscape:connector-curvature="0" />
      <path
         d="m 74.521653,66.068309 h 1.705323 v -5.885946 l -1.855184,0.37207 v -0.950846 l 1.844848,-0.37207 h 1.043864 v 6.836792 h 1.705322 v 0.878499 h -4.444173 z"
         style="text-align:center;text-anchor:middle;stroke-width:0.26458332"
         id="path851"
         inkscape:connector-curvature="0" />
      <path
         d="m 87.316734,60.141022 -2.635498,4.118611 h 2.635498 z m -0.273885,-0.909505 h 1.312581 v 5.028116 h 1.100708 v 0.868164 H 88.35543 v 1.819011 h -1.038696 v -1.819011 h -3.482991 v -1.00769 z"
         style="text-align:center;text-anchor:middle;stroke-width:0.26458332"
         id="path853"
         inkscape:connector-curvature="0" />
      <path
         d="m 94.349899,62.786855 q 0.749308,0.160197 1.167887,0.666626 0.423747,0.506429 0.423747,1.25057 0,1.142049 -0.785482,1.767334 -0.785481,0.625285 -2.232421,0.625285 -0.485759,0 -1.002523,-0.09819 -0.511597,-0.09302 -1.059367,-0.28422 v -1.00769 q 0.434082,0.253214 0.950846,0.382405 0.516765,0.129191 1.080038,0.129191 0.981852,0 1.493449,-0.387573 0.516764,-0.387573 0.516764,-1.126546 0,-0.682129 -0.480591,-1.064535 -0.475423,-0.387573 -1.328084,-0.387573 h -0.89917 V 62.39411 h 0.940511 q 0.769979,0 1.178223,-0.304891 0.408243,-0.310058 0.408243,-0.888834 0,-0.594279 -0.423746,-0.909505 -0.418579,-0.320394 -1.204061,-0.320394 -0.428914,0 -0.919841,0.09302 -0.490926,0.09302 -1.080037,0.289388 V 59.42272 q 0.594279,-0.165365 1.111043,-0.248047 0.521932,-0.08268 0.981852,-0.08268 1.188558,0 1.881023,0.542603 0.692464,0.537435 0.692464,1.457275 0,0.640788 -0.366903,1.085205 -0.366903,0.43925 -1.043864,0.609782 z"
         style="text-align:center;text-anchor:middle;stroke-width:0.26458332"
         id="path855"
         inkscape:connector-curvature="0" />
      <path
         d="m 100.79395,60.141022 -2.635495,4.118611 h 2.635495 z m -0.27388,-0.909505 h 1.31258 v 5.028116 h 1.10071 v 0.868164 h -1.10071 v 1.819011 h -1.0387 v -1.819011 h -3.482989 v -1.00769 z"
         style="text-align:center;text-anchor:middle;stroke-width:0.26458332"
         id="path857"
         inkscape:connector-curvature="0" />
      <path
         d="m 104.69552,66.786611 v -0.950846 q 0.39274,0.186035 0.79582,0.28422 0.40307,0.09819 0.79064,0.09819 1.03353,0 1.57614,-0.692464 0.54777,-0.697632 0.62528,-2.113566 -0.29972,0.444417 -0.75964,0.682129 -0.45992,0.237711 -1.01803,0.237711 -1.15755,0 -1.83451,-0.697631 -0.6718,-0.7028 -0.6718,-1.917196 0,-1.188558 0.7028,-1.90686 0.7028,-0.718303 1.87069,-0.718303 1.33842,0 2.04122,1.028361 0.70797,1.023194 0.70797,2.976563 0,1.824178 -0.86817,2.91455 -0.86299,1.085206 -2.32544,1.085206 -0.39274,0 -0.79581,-0.07752 -0.40308,-0.07751 -0.83716,-0.232544 z m 2.07739,-3.271118 q 0.7028,0 1.11104,-0.480591 0.41342,-0.480591 0.41342,-1.317749 0,-0.83199 -0.41342,-1.312581 -0.40824,-0.485759 -1.11104,-0.485759 -0.7028,0 -1.11621,0.485759 -0.40824,0.480591 -0.40824,1.312581 0,0.837158 0.40824,1.317749 0.41341,0.480591 1.11621,0.480591 z"
         style="text-align:center;text-anchor:middle;stroke-width:0.26458332"
         id="path859"
         inkscape:connector-curvature="0" />
      <path
         d="m 111.41346,59.231517 h 4.09794 v 0.878499 h -3.14193 v 1.891357 q 0.22738,-0.07751 0.45475,-0.113688 0.22738,-0.04134 0.45476,-0.04134 1.29191,0 2.04638,0.707967 0.75448,0.707967 0.75448,1.917196 0,1.245402 -0.77515,1.937866 -0.77514,0.687297 -2.18591,0.687297 -0.48576,0 -0.99219,-0.08268 -0.50126,-0.08268 -1.03869,-0.248047 v -1.049031 q 0.46508,0.253214 0.96118,0.377238 0.49609,0.124023 1.04903,0.124023 0.894,0 1.41593,-0.470255 0.52193,-0.470256 0.52193,-1.276408 0,-0.806152 -0.52193,-1.276408 -0.52193,-0.470256 -1.41593,-0.470256 -0.41858,0 -0.83716,0.09302 -0.41341,0.09302 -0.84749,0.289388 z"
         style="text-align:center;text-anchor:middle;stroke-width:0.26458332"
         id="path861"
         inkscape:connector-curvature="0" />
      <path
         d="m 121.00977,60.141022 -2.6355,4.118611 h 2.6355 z m -0.27389,-0.909505 h 1.31258 v 5.028116 h 1.10071 v 0.868164 h -1.10071 v 1.819011 h -1.03869 v -1.819011 h -3.483 v -1.00769 z"
         style="text-align:center;text-anchor:middle;stroke-width:0.26458332"
         id="path863"
         inkscape:connector-curvature="0" />
      <path
         d="m 125.7795,66.068309 h 3.64319 v 0.878499 h -4.89892 v -0.878499 q 0.59427,-0.61495 1.61747,-1.648479 1.02836,-1.038696 1.29191,-1.338419 0.50126,-0.563273 0.69763,-0.950846 0.20154,-0.392741 0.20154,-0.769979 0,-0.61495 -0.43408,-1.002523 -0.42892,-0.387573 -1.12138,-0.387573 -0.49093,0 -1.0387,0.170532 -0.5426,0.170532 -1.16272,0.516764 v -1.054199 q 0.63045,-0.253214 1.17822,-0.382406 0.54777,-0.129191 1.00253,-0.129191 1.19889,0 1.91203,0.599447 0.71313,0.599447 0.71313,1.601969 0,0.475424 -0.18087,0.904338 -0.1757,0.423747 -0.64595,1.002523 -0.12919,0.149861 -0.82166,0.868164 -0.69246,0.713134 -1.95337,1.999878 z"
         style="text-align:center;text-anchor:middle;stroke-width:0.26458332"
         id="path865"
         inkscape:connector-curvature="0" />
      <path
         d="m 134.99858,59.231517 h 4.09794 v 0.878499 h -3.14193 v 1.891357 q 0.22738,-0.07751 0.45475,-0.113688 0.22738,-0.04134 0.45476,-0.04134 1.29191,0 2.04638,0.707967 0.75448,0.707967 0.75448,1.917196 0,1.245402 -0.77515,1.937866 -0.77514,0.687297 -2.18591,0.687297 -0.48576,0 -0.99219,-0.08268 -0.50126,-0.08268 -1.03869,-0.248047 v -1.049031 q 0.46508,0.253214 0.96118,0.377238 0.49609,0.124023 1.04903,0.124023 0.894,0 1.41593,-0.470255 0.52194,-0.470256 0.52194,-1.276408 0,-0.806152 -0.52194,-1.276408 -0.52193,-0.470256 -1.41593,-0.470256 -0.41858,0 -0.83716,0.09302 -0.41341,0.09302 -0.84749,0.289388 z"
         style="text-align:center;text-anchor:middle;stroke-width:0.26458332"
         id="path867"
         inkscape:connector-curvature="0" />
      <path
         d="m 144.88945,62.786855 q 0.74931,0.160197 1.16789,0.666626 0.42374,0.506429 0.42374,1.25057 0,1.142049 -0.78548,1.767334 -0.78548,0.625285 -2.23242,0.625285 -0.48576,0 -1.00252,-0.09819 -0.5116,-0.09302 -1.05937,-0.28422 v -1.00769 q 0.43408,0.253214 0.95085,0.382405 0.51676,0.129191 1.08003,0.129191 0.98186,0 1.49345,-0.387573 0.51677,-0.387573 0.51677,-1.126546 0,-0.682129 -0.48059,-1.064535 -0.47543,-0.387573 -1.32809,-0.387573 h -0.89917 V 62.39411 h 0.94051 q 0.76998,0 1.17823,-0.304891 0.40824,-0.310058 0.40824,-0.888834 0,-0.594279 -0.42375,-0.909505 -0.41858,-0.320394 -1.20406,-0.320394 -0.42891,0 -0.91984,0.09302 -0.49092,0.09302 -1.08004,0.289388 V 59.42272 q 0.59428,-0.165365 1.11105,-0.248047 0.52193,-0.08268 0.98185,-0.08268 1.18856,0 1.88102,0.542603 0.69247,0.537435 0.69247,1.457275 0,0.640788 -0.36691,1.085205 -0.3669,0.43925 -1.04386,0.609782 z"
         style="text-align:center;text-anchor:middle;stroke-width:0.26458332"
         id="path869"
         inkscape:connector-curvature="0" />
      <path
         d="m 149.36463,66.068309 h 3.64319 v 0.878499 h -4.89893 v -0.878499 q 0.59428,-0.61495 1.61748,-1.648479 1.02836,-1.038696 1.29191,-1.338419 0.50126,-0.563273 0.69763,-0.950846 0.20154,-0.392741 0.20154,-0.769979 0,-0.61495 -0.43408,-1.002523 -0.42892,-0.387573 -1.12138,-0.387573 -0.49093,0 -1.0387,0.170532 -0.5426,0.170532 -1.16272,0.516764 v -1.054199 q 0.63045,-0.253214 1.17822,-0.382406 0.54777,-0.129191 1.00253,-0.129191 1.19889,0 1.91202,0.599447 0.71314,0.599447 0.71314,1.601969 0,0.475424 -0.18087,0.904338 -0.1757,0.423747 -0.64595,1.002523 -0.1292,0.149861 -0.82166,0.868164 -0.69246,0.713134 -1.95337,1.999878 z"
         style="text-align:center;text-anchor:middle;fill:#ff0000;fill-opacity:1;stroke-width:0.26458332"
         id="path871"
         inkscape:connector-curvature="0" />
      <path
         d="m 155.38493,66.068309 h 1.70532 v -5.885946 l -1.85518,0.37207 v -0.950846 l 1.84485,-0.37207 h 1.04386 v 6.836792 h 1.70532 v 0.878499 h -4.44417 z"
         style="text-align:center;text-anchor:middle;fill:#ff0000;fill-opacity:1;stroke-width:0.26458332"
         id="path873"
         inkscape:connector-curvature="0" />
      <path
         d="m 165.32231,59.231517 h 4.09794 v 0.878499 h -3.14193 v 1.891357 q 0.22738,-0.07751 0.45476,-0.113688 0.22737,-0.04134 0.45475,-0.04134 1.29191,0 2.04638,0.707967 0.75448,0.707967 0.75448,1.917196 0,1.245402 -0.77515,1.937866 -0.77514,0.687297 -2.18591,0.687297 -0.48576,0 -0.99219,-0.08268 -0.50126,-0.08268 -1.03869,-0.248047 v -1.049031 q 0.46509,0.253214 0.96118,0.377238 0.49609,0.124023 1.04903,0.124023 0.894,0 1.41593,-0.470255 0.52194,-0.470256 0.52194,-1.276408 0,-0.806152 -0.52194,-1.276408 -0.52193,-0.470256 -1.41593,-0.470256 -0.41858,0 -0.83716,0.09302 -0.41341,0.09302 -0.84749,0.289388 z"
         style="text-align:center;text-anchor:middle;stroke-width:0.26458332"
         id="path875"
         inkscape:connector-curvature="0" />
      <path
         d="m 174.91862,60.141022 -2.6355,4.118611 h 2.6355 z m -0.27389,-0.909505 h 1.31258 v 5.028116 h 1.10071 v 0.868164 h -1.10071 v 1.819011 h -1.03869 v -1.819011 h -3.48299 v -1.00769 z"
         style="text-align:center;text-anchor:middle;stroke-width:0.26458332"
         id="path877"
         inkscape:connector-curvature="0" />
      <path
         d="m 181.65723,60.141022 -2.63549,4.118611 h 2.63549 z m -0.27388,-0.909505 h 1.31258 v 5.028116 h 1.10071 v 0.868164 h -1.10071 v 1.819011 h -1.0387 v -1.819011 h -3.48299 v -1.00769 z"
         style="text-align:center;text-anchor:middle;stroke-width:0.26458332"
         id="path879"
         inkscape:connector-curvature="0" />
      <path
         d="m 18.757617,72.460683 h 4.097941 v 0.878499 h -3.141927 v 1.891358 q 0.227376,-0.07752 0.454752,-0.113688 0.227376,-0.04134 0.454753,-0.04134 1.29191,0 2.046386,0.707968 0.754476,0.707967 0.754476,1.917195 0,1.245402 -0.775146,1.937866 -0.775147,0.687297 -2.185913,0.687297 -0.485759,0 -0.992188,-0.08268 -0.501261,-0.08268 -1.038696,-0.248046 V 78.94608 q 0.465088,0.253215 0.961182,0.377238 0.496093,0.124023 1.049031,0.124023 0.894002,0 1.415934,-0.470255 0.521932,-0.470256 0.521932,-1.276408 0,-0.806152 -0.521932,-1.276408 -0.521932,-0.470255 -1.415934,-0.470255 -0.418579,0 -0.837158,0.09302 -0.413411,0.09302 -0.847493,0.289388 z"
         style="text-align:center;text-anchor:middle;stroke-width:0.26458332"
         id="path881"
         inkscape:connector-curvature="0" />
      <path
         d="m 26.385058,79.297475 h 3.643188 v 0.878499 H 25.12932 v -0.878499 q 0.594279,-0.61495 1.617473,-1.648478 1.028361,-1.038697 1.29191,-1.33842 0.501262,-0.563273 0.697632,-0.950846 0.201538,-0.392741 0.201538,-0.769979 0,-0.61495 -0.434082,-1.002523 -0.428914,-0.387573 -1.121378,-0.387573 -0.490926,0 -1.038697,0.170532 -0.542602,0.170532 -1.162719,0.516765 v -1.0542 q 0.630452,-0.253214 1.178222,-0.382405 0.547771,-0.129191 1.002523,-0.129191 1.198893,0 1.912028,0.599446 0.713135,0.599447 0.713135,1.60197 0,0.475423 -0.180868,0.904337 -0.1757,0.423747 -0.645955,1.002523 -0.129191,0.149862 -0.821655,0.868164 -0.692464,0.713135 -1.953369,1.999878 z"
         style="text-align:center;text-anchor:middle;fill:#ff0000;fill-opacity:1;stroke-width:0.26458332"
         id="path883"
         inkscape:connector-curvature="0" />
      <path
         d="m 35.387092,76.016021 q 0.749308,0.160197 1.167887,0.666626 0.423747,0.506429 0.423747,1.25057 0,1.142049 -0.785482,1.767334 -0.785482,0.625285 -2.232422,0.625285 -0.485758,0 -1.002522,-0.09819 -0.511597,-0.09302 -1.059367,-0.284221 v -1.00769 q 0.434082,0.253214 0.950846,0.382405 0.516764,0.129191 1.080037,0.129191 0.981853,0 1.493449,-0.387573 0.516765,-0.387573 0.516765,-1.126546 0,-0.682129 -0.480591,-1.064534 -0.475423,-0.387574 -1.328085,-0.387574 h -0.899169 v -0.857828 h 0.940511 q 0.769978,0 1.178222,-0.304891 0.408244,-0.310059 0.408244,-0.888835 0,-0.594279 -0.423747,-0.909505 -0.418579,-0.320394 -1.204061,-0.320394 -0.428914,0 -0.91984,0.09302 -0.490926,0.09302 -1.080037,0.289388 v -0.930176 q 0.594279,-0.165365 1.111043,-0.248047 0.521932,-0.08268 0.981852,-0.08268 1.188558,0 1.881022,0.542602 0.692464,0.537435 0.692464,1.457276 0,0.640787 -0.366902,1.085205 -0.366903,0.439249 -1.043864,0.609782 z"
         style="text-align:center;text-anchor:middle;stroke-width:0.26458332"
         id="path885"
         inkscape:connector-curvature="0" />
      <path
         d="m 39.862272,79.297475 h 3.643188 v 0.878499 h -4.898926 v -0.878499 q 0.594279,-0.61495 1.617473,-1.648478 1.02836,-1.038697 1.29191,-1.33842 0.501262,-0.563273 0.697632,-0.950846 0.201538,-0.392741 0.201538,-0.769979 0,-0.61495 -0.434082,-1.002523 -0.428914,-0.387573 -1.121378,-0.387573 -0.490926,0 -1.038697,0.170532 -0.542602,0.170532 -1.162719,0.516765 v -1.0542 q 0.630452,-0.253214 1.178222,-0.382405 0.54777,-0.129191 1.002523,-0.129191 1.198893,0 1.912028,0.599446 0.713135,0.599447 0.713135,1.60197 0,0.475423 -0.180868,0.904337 -0.1757,0.423747 -0.645955,1.002523 -0.129191,0.149862 -0.821655,0.868164 -0.692465,0.713135 -1.953369,1.999878 z"
         style="text-align:center;text-anchor:middle;stroke-width:0.26458332"
         id="path887"
         inkscape:connector-curvature="0" />
      <path
         d="m 49.081345,72.460683 h 4.097941 v 0.878499 h -3.141927 v 1.891358 q 0.227376,-0.07752 0.454753,-0.113688 0.227376,-0.04134 0.454752,-0.04134 1.291911,0 2.046387,0.707968 0.754476,0.707967 0.754476,1.917195 0,1.245402 -0.775147,1.937866 -0.775146,0.687297 -2.185913,0.687297 -0.485758,0 -0.992187,-0.08268 -0.501261,-0.08268 -1.038696,-0.248046 V 78.94608 q 0.465088,0.253215 0.961181,0.377238 0.496094,0.124023 1.049032,0.124023 0.894002,0 1.415934,-0.470255 0.521932,-0.470256 0.521932,-1.276408 0,-0.806152 -0.521932,-1.276408 -0.521932,-0.470255 -1.415934,-0.470255 -0.418579,0 -0.837158,0.09302 -0.413412,0.09302 -0.847494,0.289388 z"
         style="text-align:center;text-anchor:middle;stroke-width:0.26458332"
         id="path889"
         inkscape:connector-curvature="0" />
      <path
         d="M 58.677659,73.370188 56.042161,77.4888 h 2.635498 z m -0.273885,-0.909505 h 1.312581 V 77.4888 h 1.100708 v 0.868164 h -1.100708 v 1.81901 h -1.038696 v -1.81901 h -3.482991 v -1.007691 z"
         style="text-align:center;text-anchor:middle;stroke-width:0.26458332"
         id="path891"
         inkscape:connector-curvature="0" />
      <path
         d="m 64.909836,75.902333 q -0.7028,0 -1.116211,0.480591 -0.408244,0.480591 -0.408244,1.317749 0,0.831991 0.408244,1.317749 0.413411,0.480591 1.116211,0.480591 0.702799,0 1.111043,-0.480591 0.413411,-0.485758 0.413411,-1.317749 0,-0.837158 -0.413411,-1.317749 -0.408244,-0.480591 -1.111043,-0.480591 z m 2.072225,-3.271118 v 0.950847 q -0.392741,-0.186036 -0.795818,-0.284221 -0.397908,-0.09819 -0.790649,-0.09819 -1.033529,0 -1.581299,0.697632 -0.542602,0.697632 -0.620117,2.108398 0.304891,-0.449585 0.764811,-0.687296 0.459921,-0.24288 1.012858,-0.24288 1.16272,0 1.834514,0.707968 0.676961,0.702799 0.676961,1.917195 0,1.188558 -0.7028,1.90686 -0.702799,0.718303 -1.870686,0.718303 -1.33842,0 -2.046387,-1.023194 -0.707967,-1.028361 -0.707967,-2.976562 0,-1.829346 0.868164,-2.914551 0.868164,-1.090372 2.330607,-1.090372 0.392741,0 0.790649,0.07751 0.403077,0.07752 0.837159,0.232544 z"
         style="text-align:center;text-anchor:middle;stroke-width:0.26458332"
         id="path893"
         inkscape:connector-curvature="0" />
      <path
         d="m 71.51925,73.14798 q -0.806152,0 -1.214396,0.795817 -0.403076,0.790649 -0.403076,2.382283 0,1.586466 0.403076,2.382283 0.408244,0.79065 1.214396,0.79065 0.81132,0 1.214396,-0.79065 0.408244,-0.795817 0.408244,-2.382283 0,-1.591634 -0.408244,-2.382283 Q 72.33057,73.14798 71.51925,73.14798 Z m 0,-0.826823 q 1.297078,0 1.979207,1.028361 0.687297,1.023193 0.687297,2.976562 0,1.948201 -0.687297,2.976562 -0.682129,1.023194 -1.979207,1.023194 -1.297078,0 -1.984375,-1.023194 -0.682129,-1.028361 -0.682129,-2.976562 0,-1.953369 0.682129,-2.976562 0.687297,-1.028361 1.984375,-1.028361 z"
         style="text-align:center;text-anchor:middle;stroke-width:0.26458332"
         id="path895"
         inkscape:connector-curvature="0" />
      <path
         d="m 78.38705,75.902333 q -0.702799,0 -1.11621,0.480591 -0.408244,0.480591 -0.408244,1.317749 0,0.831991 0.408244,1.317749 0.413411,0.480591 1.11621,0.480591 0.7028,0 1.111044,-0.480591 0.413411,-0.485758 0.413411,-1.317749 0,-0.837158 -0.413411,-1.317749 -0.408244,-0.480591 -1.111044,-0.480591 z m 2.072225,-3.271118 v 0.950847 q -0.392741,-0.186036 -0.795817,-0.284221 -0.397908,-0.09819 -0.790649,-0.09819 -1.033529,0 -1.581299,0.697632 -0.542602,0.697632 -0.620117,2.108398 0.304891,-0.449585 0.764811,-0.687296 0.45992,-0.24288 1.012858,-0.24288 1.16272,0 1.834513,0.707968 0.676962,0.702799 0.676962,1.917195 0,1.188558 -0.7028,1.90686 -0.702799,0.718303 -1.870687,0.718303 -1.338419,0 -2.046386,-1.023194 -0.707967,-1.028361 -0.707967,-2.976562 0,-1.829346 0.868164,-2.914551 0.868164,-1.090372 2.330607,-1.090372 0.392741,0 0.790649,0.07751 0.403076,0.07752 0.837158,0.232544 z"
         style="text-align:center;text-anchor:middle;stroke-width:0.26458332"
         id="path897"
         inkscape:connector-curvature="0" />
      <path
         d="m 85.926641,76.016021 q 0.749308,0.160197 1.167887,0.666626 0.423747,0.506429 0.423747,1.25057 0,1.142049 -0.785482,1.767334 -0.785482,0.625285 -2.232422,0.625285 -0.485758,0 -1.002523,-0.09819 -0.511596,-0.09302 -1.059366,-0.284221 v -1.00769 q 0.434082,0.253214 0.950846,0.382405 0.516764,0.129191 1.080037,0.129191 0.981852,0 1.493449,-0.387573 0.516764,-0.387573 0.516764,-1.126546 0,-0.682129 -0.48059,-1.064534 -0.475424,-0.387574 -1.328085,-0.387574 h -0.89917 v -0.857828 h 0.940512 q 0.769978,0 1.178222,-0.304891 0.408244,-0.310059 0.408244,-0.888835 0,-0.594279 -0.423747,-0.909505 -0.418579,-0.320394 -1.204061,-0.320394 -0.428914,0 -0.91984,0.09302 -0.490926,0.09302 -1.080038,0.289388 v -0.930176 q 0.594279,-0.165365 1.111044,-0.248047 0.521932,-0.08268 0.981852,-0.08268 1.188558,0 1.881022,0.542602 0.692464,0.537435 0.692464,1.457276 0,0.640787 -0.366902,1.085205 -0.366903,0.439249 -1.043864,0.609782 z"
         style="text-align:center;text-anchor:middle;fill:#ff0000;fill-opacity:1;stroke-width:0.26458332"
         id="path899"
         inkscape:connector-curvature="0" />
      <path
         d="m 91.864265,75.902333 q -0.702799,0 -1.116211,0.480591 -0.408243,0.480591 -0.408243,1.317749 0,0.831991 0.408243,1.317749 0.413412,0.480591 1.116211,0.480591 0.7028,0 1.111044,-0.480591 0.413411,-0.485758 0.413411,-1.317749 0,-0.837158 -0.413411,-1.317749 -0.408244,-0.480591 -1.111044,-0.480591 z m 2.072225,-3.271118 v 0.950847 q -0.392741,-0.186036 -0.795817,-0.284221 -0.397908,-0.09819 -0.790649,-0.09819 -1.033529,0 -1.581299,0.697632 -0.542603,0.697632 -0.620117,2.108398 0.304891,-0.449585 0.764811,-0.687296 0.45992,-0.24288 1.012858,-0.24288 1.16272,0 1.834513,0.707968 0.676962,0.702799 0.676962,1.917195 0,1.188558 -0.7028,1.90686 -0.702799,0.718303 -1.870687,0.718303 -1.338419,0 -2.046386,-1.023194 -0.707967,-1.028361 -0.707967,-2.976562 0,-1.829346 0.868164,-2.914551 0.868164,-1.090372 2.330607,-1.090372 0.39274,0 0.790649,0.07751 0.403076,0.07752 0.837158,0.232544 z"
         style="text-align:center;text-anchor:middle;stroke-width:0.26458332"
         id="path901"
         inkscape:connector-curvature="0" />
      <path
         d="m 100.50973,79.297475 h 3.64319 v 0.878499 h -4.898925 v -0.878499 q 0.594279,-0.61495 1.617475,-1.648478 1.02836,-1.038697 1.29191,-1.33842 0.50126,-0.563273 0.69763,-0.950846 0.20154,-0.392741 0.20154,-0.769979 0,-0.61495 -0.43408,-1.002523 -0.42892,-0.387573 -1.12138,-0.387573 -0.49093,0 -1.0387,0.170532 -0.542601,0.170532 -1.162718,0.516765 v -1.0542 q 0.630452,-0.253214 1.178218,-0.382405 0.54777,-0.129191 1.00253,-0.129191 1.19889,0 1.91202,0.599446 0.71314,0.599447 0.71314,1.60197 0,0.475423 -0.18087,0.904337 -0.1757,0.423747 -0.64595,1.002523 -0.12919,0.149862 -0.82166,0.868164 -0.69246,0.713135 -1.95337,1.999878 z"
         style="text-align:center;text-anchor:middle;stroke-width:0.26458332"
         id="path903"
         inkscape:connector-curvature="0" />
      <path
         d="m 106.3595,72.460683 h 4.09794 v 0.878499 h -3.14193 v 1.891358 q 0.22738,-0.07752 0.45476,-0.113688 0.22737,-0.04134 0.45475,-0.04134 1.29191,0 2.04639,0.707968 0.75447,0.707967 0.75447,1.917195 0,1.245402 -0.77515,1.937866 -0.77514,0.687297 -2.18591,0.687297 -0.48576,0 -0.99219,-0.08268 -0.50126,-0.08268 -1.03869,-0.248046 V 78.94608 q 0.46509,0.253215 0.96118,0.377238 0.49609,0.124023 1.04903,0.124023 0.894,0 1.41594,-0.470255 0.52193,-0.470256 0.52193,-1.276408 0,-0.806152 -0.52193,-1.276408 -0.52194,-0.470255 -1.41594,-0.470255 -0.41858,0 -0.83716,0.09302 -0.41341,0.09302 -0.84749,0.289388 z"
         style="text-align:center;text-anchor:middle;stroke-width:0.26458332"
         id="path905"
         inkscape:connector-curvature="0" />
      <path
         d="m 115.95582,73.370188 -2.6355,4.118612 h 2.6355 z m -0.27389,-0.909505 h 1.31258 V 77.4888 h 1.10071 v 0.868164 h -1.10071 v 1.81901 h -1.03869 v -1.81901 h -3.483 v -1.007691 z"
         style="text-align:center;text-anchor:middle;stroke-width:0.26458332"
         id="path907"
         inkscape:connector-curvature="0" />
      <path
         d="m 120.00724,79.297475 h 1.70532 v -5.885946 l -1.85518,0.372071 v -0.950847 l 1.84485,-0.37207 h 1.04386 v 6.836792 h 1.70533 v 0.878499 h -4.44418 z"
         style="text-align:center;text-anchor:middle;stroke-width:0.26458332"
         id="path909"
         inkscape:connector-curvature="0" />
      <path
         d="m 130.11515,79.297475 h 1.70533 v -5.885946 l -1.85519,0.372071 v -0.950847 l 1.84485,-0.37207 h 1.04386 v 6.836792 h 1.70533 v 0.878499 h -4.44418 z"
         style="text-align:center;text-anchor:middle;stroke-width:0.26458332"
         id="path911"
         inkscape:connector-curvature="0" />
      <path
         d="m 139.54094,73.370188 -2.6355,4.118612 h 2.6355 z m -0.27389,-0.909505 h 1.31258 V 77.4888 h 1.10071 v 0.868164 h -1.10071 v 1.81901 h -1.03869 v -1.81901 h -3.48299 v -1.007691 z"
         style="text-align:center;text-anchor:middle;stroke-width:0.26458332"
         id="path913"
         inkscape:connector-curvature="0" />
      <path
         d="m 143.59237,79.297475 h 1.70532 v -5.885946 l -1.85518,0.372071 v -0.950847 l 1.84485,-0.37207 h 1.04386 v 6.836792 h 1.70532 v 0.878499 h -4.44417 z"
         style="text-align:center;text-anchor:middle;stroke-width:0.26458332"
         id="path915"
         inkscape:connector-curvature="0" />
      <path
         d="m 149.88656,72.460683 h 4.96094 V 72.9051 l -2.80086,7.270874 h -1.09037 l 2.63549,-6.836792 h -3.7052 z"
         style="text-align:center;text-anchor:middle;stroke-width:0.26458332"
         id="path917"
         inkscape:connector-curvature="0" />
      <path
         d="m 159.12114,76.512115 q -0.74414,0 -1.17306,0.397909 -0.42374,0.397908 -0.42374,1.09554 0,0.697632 0.42374,1.09554 0.42892,0.397909 1.17306,0.397909 0.74414,0 1.17305,-0.397909 0.42892,-0.403076 0.42892,-1.09554 0,-0.697632 -0.42892,-1.09554 -0.42374,-0.397909 -1.17305,-0.397909 z m -1.04387,-0.444417 q -0.67179,-0.165365 -1.04903,-0.625285 -0.37207,-0.45992 -0.37207,-1.121378 0,-0.925009 0.65629,-1.462443 0.66146,-0.537435 1.80868,-0.537435 1.15238,0 1.80867,0.537435 0.65629,0.537434 0.65629,1.462443 0,0.661458 -0.37724,1.121378 -0.37207,0.45992 -1.03869,0.625285 0.75447,0.1757 1.17305,0.687296 0.42375,0.511597 0.42375,1.25057 0,1.121379 -0.6873,1.720825 -0.68213,0.599447 -1.95853,0.599447 -1.27641,0 -1.96371,-0.599447 -0.68213,-0.599446 -0.68213,-1.720825 0,-0.738973 0.42375,-1.25057 0.42375,-0.511596 1.17822,-0.687296 z m -0.3824,-1.648478 q 0,0.599446 0.37207,0.935343 0.37724,0.335897 1.0542,0.335897 0.67179,0 1.04903,-0.335897 0.3824,-0.335897 0.3824,-0.935343 0,-0.599447 -0.3824,-0.935344 -0.37724,-0.335896 -1.04903,-0.335896 -0.67696,0 -1.0542,0.335896 -0.37207,0.335897 -0.37207,0.935344 z"
         style="text-align:center;text-anchor:middle;fill:#ff0000;fill-opacity:1;stroke-width:0.26458332"
         id="path919"
         inkscape:connector-curvature="0" />
      <path
         d="m 163.65832,80.015777 v -0.950846 q 0.39274,0.186035 0.79582,0.28422 0.40308,0.09819 0.79065,0.09819 1.03353,0 1.57613,-0.692464 0.54777,-0.697632 0.62528,-2.113566 -0.29972,0.444418 -0.75964,0.682129 -0.45992,0.237712 -1.01802,0.237712 -1.15756,0 -1.83452,-0.697632 -0.67179,-0.7028 -0.67179,-1.917196 0,-1.188558 0.7028,-1.90686 0.7028,-0.718302 1.87069,-0.718302 1.33841,0 2.04121,1.028361 0.70797,1.023193 0.70797,2.976562 0,1.824178 -0.86816,2.914551 -0.863,1.085205 -2.32544,1.085205 -0.39274,0 -0.79582,-0.07751 -0.40308,-0.07752 -0.83716,-0.232544 z m 2.0774,-3.271118 q 0.70279,0 1.11104,-0.480591 0.41341,-0.48059 0.41341,-1.317749 0,-0.83199 -0.41341,-1.312581 -0.40825,-0.485758 -1.11104,-0.485758 -0.7028,0 -1.11622,0.485758 -0.40824,0.480591 -0.40824,1.312581 0,0.837159 0.40824,1.317749 0.41342,0.480591 1.11622,0.480591 z"
         style="text-align:center;text-anchor:middle;stroke-width:0.26458332"
         id="path921"
         inkscape:connector-curvature="0" />
      <path
         d="m 172.59836,73.14798 q -0.80616,0 -1.2144,0.795817 -0.40308,0.790649 -0.40308,2.382283 0,1.586466 0.40308,2.382283 0.40824,0.79065 1.2144,0.79065 0.81132,0 1.21439,-0.79065 0.40825,-0.795817 0.40825,-2.382283 0,-1.591634 -0.40825,-2.382283 -0.40307,-0.795817 -1.21439,-0.795817 z m 0,-0.826823 q 1.29707,0 1.9792,1.028361 0.6873,1.023193 0.6873,2.976562 0,1.948201 -0.6873,2.976562 -0.68213,1.023194 -1.9792,1.023194 -1.29708,0 -1.98438,-1.023194 -0.68213,-1.028361 -0.68213,-2.976562 0,-1.953369 0.68213,-2.976562 0.6873,-1.028361 1.98438,-1.028361 z"
         style="text-align:center;text-anchor:middle;stroke-width:0.26458332"
         id="path923"
         inkscape:connector-curvature="0" />
      <path
         d="m 177.2854,79.297475 h 1.70533 v -5.885946 l -1.85519,0.372071 v -0.950847 l 1.84485,-0.37207 h 1.04386 v 6.836792 h 1.70533 v 0.878499 h -4.44418 z"
         style="text-align:center;text-anchor:middle;stroke-width:0.26458332"
         id="path925"
         inkscape:connector-curvature="0" />
      <path
         d="m 10.334358,85.689849 h 4.097941 v 0.8785 h -3.141927 v 1.891357 q 0.227377,-0.07751 0.454753,-0.113688 0.227376,-0.04134 0.454753,-0.04134 1.29191,0 2.046386,0.707967 0.754476,0.707967 0.754476,1.917195 0,1.245402 -0.775146,1.937867 -0.775147,0.687296 -2.185913,0.687296 -0.485759,0 -0.992188,-0.08268 -0.501261,-0.08268 -1.038696,-0.248047 v -1.049032 q 0.465088,0.253215 0.961181,0.377238 0.496094,0.124024 1.049032,0.124024 0.894002,0 1.415934,-0.470256 0.521932,-0.470255 0.521932,-1.276408 0,-0.806152 -0.521932,-1.276407 -0.521932,-0.470256 -1.415934,-0.470256 -0.418579,0 -0.837158,0.09302 -0.413412,0.09302 -0.847494,0.289388 z"
         style="text-align:center;text-anchor:middle;fill:#ff0000;fill-opacity:1;stroke-width:0.26458332"
         id="path927"
         inkscape:connector-curvature="0" />
      <path
         d="m 20.225227,89.245188 q 0.749308,0.160197 1.167887,0.666626 0.423747,0.506429 0.423747,1.250569 0,1.142049 -0.785482,1.767334 -0.785481,0.625285 -2.232421,0.625285 -0.485759,0 -1.002523,-0.09819 -0.511597,-0.09302 -1.059367,-0.284221 v -1.00769 q 0.434082,0.253215 0.950846,0.382406 0.516765,0.129191 1.080038,0.129191 0.981852,0 1.493449,-0.387574 0.516764,-0.387573 0.516764,-1.126546 0,-0.682129 -0.480591,-1.064534 -0.475423,-0.387573 -1.328084,-0.387573 h -0.89917 v -0.857829 h 0.940511 q 0.769979,0 1.178223,-0.304891 0.408243,-0.310059 0.408243,-0.888835 0,-0.594279 -0.423746,-0.909505 -0.418579,-0.320394 -1.204061,-0.320394 -0.428915,0 -0.919841,0.09302 -0.490926,0.09302 -1.080037,0.289388 v -0.930176 q 0.594279,-0.165364 1.111043,-0.248047 0.521932,-0.08268 0.981852,-0.08268 1.188558,0 1.881022,0.542602 0.692465,0.537435 0.692465,1.457276 0,0.640788 -0.366903,1.085205 -0.366903,0.43925 -1.043864,0.609783 z"
         style="text-align:center;text-anchor:middle;stroke-width:0.26458332"
         id="path929"
         inkscape:connector-curvature="0" />
      <path
         d="m 23.982103,92.526641 h 1.705323 v -5.885945 l -1.855184,0.37207 V 86.06192 l 1.844848,-0.372071 h 1.043864 v 6.836792 h 1.705323 v 0.878499 h -4.444174 z"
         style="text-align:center;text-anchor:middle;stroke-width:0.26458332"
         id="path931"
         inkscape:connector-curvature="0" />
      <path
         d="m 30.720711,92.526641 h 1.705322 v -5.885945 l -1.855184,0.37207 V 86.06192 l 1.844849,-0.372071 h 1.043864 v 6.836792 h 1.705322 v 0.878499 h -4.444173 z"
         style="text-align:center;text-anchor:middle;stroke-width:0.26458332"
         id="path933"
         inkscape:connector-curvature="0" />
      <path
         d="m 41.546922,92.526641 h 3.643188 v 0.878499 h -4.898926 v -0.878499 q 0.594279,-0.614949 1.617473,-1.648478 1.028361,-1.038696 1.29191,-1.33842 0.501262,-0.563273 0.697632,-0.950846 0.201538,-0.392741 0.201538,-0.769979 0,-0.614949 -0.434082,-1.002523 -0.428914,-0.387573 -1.121378,-0.387573 -0.490926,0 -1.038697,0.170532 -0.542602,0.170533 -1.162719,0.516765 V 86.06192 q 0.630452,-0.253215 1.178222,-0.382406 0.54777,-0.129191 1.002523,-0.129191 1.198893,0 1.912028,0.599447 0.713135,0.599446 0.713135,1.601969 0,0.475423 -0.180868,0.904337 -0.1757,0.423747 -0.645955,1.002523 -0.129191,0.149862 -0.821655,0.868164 -0.692465,0.713135 -1.953369,1.999878 z"
         style="text-align:center;text-anchor:middle;stroke-width:0.26458332"
         id="path935"
         inkscape:connector-curvature="0" />
      <path
         d="m 47.396694,85.689849 h 4.097941 v 0.8785 h -3.141927 v 1.891357 q 0.227377,-0.07751 0.454753,-0.113688 0.227376,-0.04134 0.454752,-0.04134 1.291911,0 2.046387,0.707967 0.754476,0.707967 0.754476,1.917195 0,1.245402 -0.775146,1.937867 -0.775147,0.687296 -2.185913,0.687296 -0.485759,0 -0.992188,-0.08268 -0.501261,-0.08268 -1.038696,-0.248047 v -1.049032 q 0.465088,0.253215 0.961181,0.377238 0.496094,0.124024 1.049032,0.124024 0.894002,0 1.415934,-0.470256 0.521932,-0.470255 0.521932,-1.276408 0,-0.806152 -0.521932,-1.276407 -0.521932,-0.470256 -1.415934,-0.470256 -0.418579,0 -0.837158,0.09302 -0.413412,0.09302 -0.847494,0.289388 z"
         style="text-align:center;text-anchor:middle;stroke-width:0.26458332"
         id="path937"
         inkscape:connector-curvature="0" />
      <path
         d="m 56.993006,86.599354 -2.635498,4.118612 h 2.635498 z m -0.273885,-0.909505 h 1.312582 v 5.028117 h 1.100708 v 0.868164 h -1.100708 v 1.81901 h -1.038697 v -1.81901 h -3.482991 v -1.00769 z"
         style="text-align:center;text-anchor:middle;stroke-width:0.26458332"
         id="path939"
         inkscape:connector-curvature="0" />
      <path
         d="m 61.76274,92.526641 h 3.643188 v 0.878499 h -4.898925 v -0.878499 q 0.594279,-0.614949 1.617472,-1.648478 1.028361,-1.038696 1.291911,-1.33842 0.501261,-0.563273 0.697632,-0.950846 0.201538,-0.392741 0.201538,-0.769979 0,-0.614949 -0.434082,-1.002523 -0.428915,-0.387573 -1.121379,-0.387573 -0.490926,0 -1.038696,0.170532 -0.542603,0.170533 -1.16272,0.516765 V 86.06192 q 0.630453,-0.253215 1.178223,-0.382406 0.54777,-0.129191 1.002522,-0.129191 1.198894,0 1.912028,0.599447 0.713135,0.599446 0.713135,1.601969 0,0.475423 -0.180867,0.904337 -0.1757,0.423747 -0.645956,1.002523 -0.129191,0.149862 -0.821655,0.868164 -0.692464,0.713135 -1.953369,1.999878 z"
         style="text-align:center;text-anchor:middle;stroke-width:0.26458332"
         id="path941"
         inkscape:connector-curvature="0" />
      <path
         d="m 71.152348,92.526641 h 1.705322 v -5.885945 l -1.855184,0.37207 V 86.06192 l 1.844849,-0.372071 h 1.043864 v 6.836792 h 1.705322 v 0.878499 h -4.444173 z"
         style="text-align:center;text-anchor:middle;fill:#ff0000;fill-opacity:1;stroke-width:0.26458332"
         id="path943"
         inkscape:connector-curvature="0" />
      <path
         d="m 80.872683,89.245188 q 0.749309,0.160197 1.167888,0.666626 0.423746,0.506429 0.423746,1.250569 0,1.142049 -0.785481,1.767334 -0.785482,0.625285 -2.232422,0.625285 -0.485759,0 -1.002523,-0.09819 -0.511597,-0.09302 -1.059367,-0.284221 v -1.00769 q 0.434082,0.253215 0.950847,0.382406 0.516764,0.129191 1.080037,0.129191 0.981852,0 1.493449,-0.387574 0.516764,-0.387573 0.516764,-1.126546 0,-0.682129 -0.480591,-1.064534 -0.475423,-0.387573 -1.328084,-0.387573 h -0.89917 v -0.857829 h 0.940511 q 0.769979,0 1.178223,-0.304891 0.408244,-0.310059 0.408244,-0.888835 0,-0.594279 -0.423747,-0.909505 -0.418579,-0.320394 -1.204061,-0.320394 -0.428914,0 -0.91984,0.09302 -0.490927,0.09302 -1.080038,0.289388 v -0.930176 q 0.594279,-0.165364 1.111043,-0.248047 0.521932,-0.08268 0.981853,-0.08268 1.188557,0 1.881022,0.542602 0.692464,0.537435 0.692464,1.457276 0,0.640788 -0.366903,1.085205 -0.366902,0.43925 -1.043864,0.609783 z"
         style="text-align:center;text-anchor:middle;fill:#ff0000;fill-opacity:1;stroke-width:0.26458332"
         id="path945"
         inkscape:connector-curvature="0" />
      <path
         d="m 85.347865,92.526641 h 3.643188 v 0.878499 h -4.898925 v -0.878499 q 0.594279,-0.614949 1.617472,-1.648478 1.028361,-1.038696 1.291911,-1.33842 0.501261,-0.563273 0.697632,-0.950846 0.201538,-0.392741 0.201538,-0.769979 0,-0.614949 -0.434082,-1.002523 -0.428915,-0.387573 -1.121379,-0.387573 -0.490926,0 -1.038696,0.170532 -0.542603,0.170533 -1.16272,0.516765 V 86.06192 q 0.630453,-0.253215 1.178223,-0.382406 0.54777,-0.129191 1.002522,-0.129191 1.198894,0 1.912028,0.599447 0.713135,0.599446 0.713135,1.601969 0,0.475423 -0.180867,0.904337 -0.1757,0.423747 -0.645956,1.002523 -0.129191,0.149862 -0.821655,0.868164 -0.692464,0.713135 -1.953369,1.999878 z"
         style="text-align:center;text-anchor:middle;stroke-width:0.26458332"
         id="path947"
         inkscape:connector-curvature="0" />
      <path
         d="m 91.368172,92.526641 h 1.705322 v -5.885945 l -1.855184,0.37207 V 86.06192 l 1.844849,-0.372071 h 1.043864 v 6.836792 h 1.705322 v 0.878499 h -4.444173 z"
         style="text-align:center;text-anchor:middle;stroke-width:0.26458332"
         id="path949"
         inkscape:connector-curvature="0" />
      <path
         d="m 101.29521,92.092559 h 1.09037 v 1.312581 h -1.09037 z"
         style="text-align:center;text-anchor:middle;fill:#ff0000;fill-opacity:1;stroke-width:0.26458332"
         id="path951"
         inkscape:connector-curvature="0" />
      <path
         d="m 108.93299,92.526641 h 3.64318 v 0.878499 h -4.89892 v -0.878499 q 0.59428,-0.614949 1.61747,-1.648478 1.02836,-1.038696 1.29191,-1.33842 0.50126,-0.563273 0.69763,-0.950846 0.20154,-0.392741 0.20154,-0.769979 0,-0.614949 -0.43408,-1.002523 -0.42891,-0.387573 -1.12138,-0.387573 -0.49092,0 -1.0387,0.170532 -0.5426,0.170533 -1.16271,0.516765 V 86.06192 q 0.63045,-0.253215 1.17822,-0.382406 0.54777,-0.129191 1.00252,-0.129191 1.19889,0 1.91203,0.599447 0.71313,0.599446 0.71313,1.601969 0,0.475423 -0.18086,0.904337 -0.1757,0.423747 -0.64596,1.002523 -0.12919,0.149862 -0.82165,0.868164 -0.69247,0.713135 -1.95337,1.999878 z"
         style="text-align:center;text-anchor:middle;stroke-width:0.26458332"
         id="path953"
         inkscape:connector-curvature="0" />
      <path
         d="m 117.64047,86.599354 -2.6355,4.118612 h 2.6355 z m -0.27389,-0.909505 h 1.31258 v 5.028117 h 1.10071 v 0.868164 h -1.10071 v 1.81901 h -1.03869 v -1.81901 h -3.48299 v -1.00769 z"
         style="text-align:center;text-anchor:middle;stroke-width:0.26458332"
         id="path955"
         inkscape:connector-curvature="0" />
      <path
         d="m 124.37907,86.599354 -2.6355,4.118612 h 2.6355 z m -0.27389,-0.909505 h 1.31259 v 5.028117 h 1.1007 v 0.868164 h -1.1007 v 1.81901 h -1.0387 v -1.81901 h -3.48299 v -1.00769 z"
         style="text-align:center;text-anchor:middle;stroke-width:0.26458332"
         id="path957"
         inkscape:connector-curvature="0" />
      <path
         d="m 130.48206,86.377146 q -0.80615,0 -1.2144,0.795817 -0.40307,0.790649 -0.40307,2.382283 0,1.586467 0.40307,2.382284 0.40825,0.790649 1.2144,0.790649 0.81132,0 1.21439,-0.790649 0.40825,-0.795817 0.40825,-2.382284 0,-1.591634 -0.40825,-2.382283 -0.40307,-0.795817 -1.21439,-0.795817 z m 0,-0.826823 q 1.29708,0 1.97921,1.028361 0.68729,1.023193 0.68729,2.976562 0,1.948202 -0.68729,2.976563 -0.68213,1.023193 -1.97921,1.023193 -1.29708,0 -1.98438,-1.023193 -0.68213,-1.028361 -0.68213,-2.976563 0,-1.953369 0.68213,-2.976562 0.6873,-1.028361 1.98438,-1.028361 z"
         style="text-align:center;text-anchor:middle;stroke-width:0.26458332"
         id="path959"
         inkscape:connector-curvature="0" />
      <path
         d="m 135.16911,92.526641 h 1.70533 v -5.885945 l -1.85519,0.37207 V 86.06192 l 1.84485,-0.372071 h 1.04386 v 6.836792 h 1.70533 v 0.878499 h -4.44418 z"
         style="text-align:center;text-anchor:middle;stroke-width:0.26458332"
         id="path961"
         inkscape:connector-curvature="0" />
      <path
         d="m 145.10648,85.689849 h 4.09794 v 0.8785 h -3.14192 v 1.891357 q 0.22737,-0.07751 0.45475,-0.113688 0.22738,-0.04134 0.45475,-0.04134 1.29191,0 2.04639,0.707967 0.75448,0.707967 0.75448,1.917195 0,1.245402 -0.77515,1.937867 -0.77515,0.687296 -2.18591,0.687296 -0.48576,0 -0.99219,-0.08268 -0.50126,-0.08268 -1.0387,-0.248047 v -1.049032 q 0.46509,0.253215 0.96118,0.377238 0.4961,0.124024 1.04904,0.124024 0.894,0 1.41593,-0.470256 0.52193,-0.470255 0.52193,-1.276408 0,-0.806152 -0.52193,-1.276407 -0.52193,-0.470256 -1.41593,-0.470256 -0.41858,0 -0.83716,0.09302 -0.41341,0.09302 -0.8475,0.289388 z"
         style="text-align:center;text-anchor:middle;stroke-width:0.26458332"
         id="path963"
         inkscape:connector-curvature="0" />
      <path
         d="m 154.70281,86.599354 -2.6355,4.118612 h 2.6355 z m -0.27389,-0.909505 h 1.31258 v 5.028117 h 1.10071 v 0.868164 h -1.10071 v 1.81901 h -1.03869 v -1.81901 h -3.48299 v -1.00769 z"
         style="text-align:center;text-anchor:middle;stroke-width:0.26458332"
         id="path965"
         inkscape:connector-curvature="0" />
      <path
         d="m 160.93498,89.1315 q -0.7028,0 -1.11621,0.48059 -0.40824,0.480591 -0.40824,1.317749 0,0.831991 0.40824,1.317749 0.41341,0.480591 1.11621,0.480591 0.7028,0 1.11104,-0.480591 0.41341,-0.485758 0.41341,-1.317749 0,-0.837158 -0.41341,-1.317749 -0.40824,-0.48059 -1.11104,-0.48059 z m 2.07222,-3.271118 v 0.950846 q -0.39274,-0.186035 -0.79581,-0.284221 -0.39791,-0.09819 -0.79065,-0.09819 -1.03353,0 -1.5813,0.697632 -0.5426,0.697632 -0.62012,2.108398 0.30489,-0.449585 0.76481,-0.687296 0.45992,-0.242879 1.01286,-0.242879 1.16272,0 1.83451,0.707967 0.67697,0.702799 0.67697,1.917195 0,1.188558 -0.7028,1.906861 -0.7028,0.718302 -1.87069,0.718302 -1.33842,0 -2.04639,-1.023193 -0.70796,-1.028361 -0.70796,-2.976563 0,-1.829345 0.86816,-2.91455 0.86816,-1.090373 2.33061,-1.090373 0.39274,0 0.79065,0.07751 0.40307,0.07751 0.83715,0.232544 z"
         style="text-align:center;text-anchor:middle;stroke-width:0.26458332"
         id="path967"
         inkscape:connector-curvature="0" />
      <path
         d="m 167.54439,86.377146 q -0.80615,0 -1.2144,0.795817 -0.40307,0.790649 -0.40307,2.382283 0,1.586467 0.40307,2.382284 0.40825,0.790649 1.2144,0.790649 0.81132,0 1.2144,-0.790649 0.40824,-0.795817 0.40824,-2.382284 0,-1.591634 -0.40824,-2.382283 -0.40308,-0.795817 -1.2144,-0.795817 z m 0,-0.826823 q 1.29708,0 1.97921,1.028361 0.68729,1.023193 0.68729,2.976562 0,1.948202 -0.68729,2.976563 -0.68213,1.023193 -1.97921,1.023193 -1.29708,0 -1.98437,-1.023193 -0.68213,-1.028361 -0.68213,-2.976563 0,-1.953369 0.68213,-2.976562 0.68729,-1.028361 1.98437,-1.028361 z"
         style="text-align:center;text-anchor:middle;stroke-width:0.26458332"
         id="path969"
         inkscape:connector-curvature="0" />
      <path
         d="m 174.4122,89.1315 q -0.7028,0 -1.11621,0.48059 -0.40825,0.480591 -0.40825,1.317749 0,0.831991 0.40825,1.317749 0.41341,0.480591 1.11621,0.480591 0.7028,0 1.11104,-0.480591 0.41341,-0.485758 0.41341,-1.317749 0,-0.837158 -0.41341,-1.317749 Q 175.115,89.1315 174.4122,89.1315 Z m 2.07222,-3.271118 v 0.950846 q -0.39274,-0.186035 -0.79581,-0.284221 -0.39791,-0.09819 -0.79065,-0.09819 -1.03353,0 -1.5813,0.697632 -0.5426,0.697632 -0.62012,2.108398 0.30489,-0.449585 0.76481,-0.687296 0.45992,-0.242879 1.01286,-0.242879 1.16272,0 1.83451,0.707967 0.67696,0.702799 0.67696,1.917195 0,1.188558 -0.70279,1.906861 -0.7028,0.718302 -1.87069,0.718302 -1.33842,0 -2.04639,-1.023193 -0.70797,-1.028361 -0.70797,-2.976563 0,-1.829345 0.86817,-2.91455 0.86816,-1.090373 2.33061,-1.090373 0.39274,0 0.79065,0.07751 0.40307,0.07751 0.83715,0.232544 z"
         style="text-align:center;text-anchor:middle;stroke-width:0.26458332"
         id="path971"
         inkscape:connector-curvature="0" />
      <path
         d="m 181.95178,89.245188 q 0.74931,0.160197 1.16789,0.666626 0.42375,0.506429 0.42375,1.250569 0,1.142049 -0.78548,1.767334 -0.78548,0.625285 -2.23242,0.625285 -0.48576,0 -1.00253,-0.09819 -0.51159,-0.09302 -1.05936,-0.284221 v -1.00769 q 0.43408,0.253215 0.95084,0.382406 0.51677,0.129191 1.08004,0.129191 0.98185,0 1.49345,-0.387574 0.51676,-0.387573 0.51676,-1.126546 0,-0.682129 -0.48059,-1.064534 -0.47542,-0.387573 -1.32808,-0.387573 h -0.89917 v -0.857829 h 0.94051 q 0.76998,0 1.17822,-0.304891 0.40825,-0.310059 0.40825,-0.888835 0,-0.594279 -0.42375,-0.909505 -0.41858,-0.320394 -1.20406,-0.320394 -0.42892,0 -0.91984,0.09302 -0.49093,0.09302 -1.08004,0.289388 v -0.930176 q 0.59428,-0.165364 1.11104,-0.248047 0.52193,-0.08268 0.98186,-0.08268 1.18855,0 1.88102,0.542602 0.69246,0.537435 0.69246,1.457276 0,0.640788 -0.3669,1.085205 -0.3669,0.43925 -1.04387,0.609783 z"
         style="text-align:center;text-anchor:middle;fill:#ff0000;fill-opacity:1;stroke-width:0.26458332"
         id="path973"
         inkscape:connector-curvature="0" />
      <path
         d="m 185.26424,85.689849 h 4.96094 v 0.444418 l -2.80087,7.270873 h -1.09037 l 2.6355,-6.836791 h -3.7052 z"
         style="text-align:center;text-anchor:middle;stroke-width:0.26458332"
         id="path975"
         inkscape:connector-curvature="0" />
      <path
         d="m 50.93653,105.75581 h 1.705322 v -5.885948 l -1.855184,0.372068 v -0.950844 l 1.844849,-0.37207 h 1.043864 v 6.836794 h 1.705322 v 0.8785 H 50.93653 Z"
         style="text-align:center;text-anchor:middle;stroke-width:0.26458332"
         id="path977"
         inkscape:connector-curvature="0" />
      <path
         d="m 57.675136,105.75581 h 1.705323 v -5.885948 l -1.855184,0.372068 v -0.950844 l 1.844848,-0.37207 h 1.043864 v 6.836794 h 1.705322 v 0.8785 h -4.444173 z"
         style="text-align:center;text-anchor:middle;fill:#ff0000;fill-opacity:1;stroke-width:0.26458332"
         id="path979"
         inkscape:connector-curvature="0" />
      <path
         d="m 64.243211,98.919016 h 4.097941 v 0.878499 h -3.141927 v 1.891355 q 0.227376,-0.0775 0.454752,-0.11369 0.227377,-0.0413 0.454753,-0.0413 1.291911,0 2.046386,0.70797 0.754476,0.70797 0.754476,1.9172 0,1.2454 -0.775146,1.93786 -0.775147,0.6873 -2.185913,0.6873 -0.485759,0 -0.992188,-0.0827 -0.501261,-0.0827 -1.038696,-0.24805 v -1.04903 q 0.465088,0.25321 0.961182,0.37724 0.496094,0.12402 1.049031,0.12402 0.894003,0 1.415935,-0.47026 0.521931,-0.47025 0.521931,-1.2764 0,-0.80616 -0.521931,-1.27641 -0.521932,-0.47026 -1.415935,-0.47026 -0.418579,0 -0.837158,0.093 -0.413411,0.093 -0.847493,0.28939 z"
         style="text-align:center;text-anchor:middle;fill:#ff0000;fill-opacity:1;stroke-width:0.26458332"
         id="path981"
         inkscape:connector-curvature="0" />
      <path
         d="m 73.203905,99.606312 q -0.806153,0 -1.214397,0.795818 -0.403076,0.79065 -0.403076,2.38228 0,1.58647 0.403076,2.38229 0.408244,0.79065 1.214397,0.79065 0.81132,0 1.214396,-0.79065 0.408244,-0.79582 0.408244,-2.38229 0,-1.59163 -0.408244,-2.38228 -0.403076,-0.795818 -1.214396,-0.795818 z m 0,-0.826823 q 1.297078,0 1.979207,1.028361 0.687296,1.02319 0.687296,2.97656 0,1.9482 -0.687296,2.97656 -0.682129,1.0232 -1.979207,1.0232 -1.297079,0 -1.984375,-1.0232 -0.682129,-1.02836 -0.682129,-2.97656 0,-1.95337 0.682129,-2.97656 0.687296,-1.028361 1.984375,-1.028361 z"
         style="text-align:center;text-anchor:middle;stroke-width:0.26458332"
         id="path983"
         inkscape:connector-curvature="0" />
      <path
         d="m 80.872686,102.47435 q 0.749308,0.1602 1.167887,0.66663 0.423747,0.50643 0.423747,1.25057 0,1.14205 -0.785482,1.76733 -0.785482,0.62529 -2.232422,0.62529 -0.485758,0 -1.002522,-0.0982 -0.511597,-0.093 -1.059367,-0.28422 v -1.00769 q 0.434082,0.25322 0.950846,0.38241 0.516764,0.12919 1.080038,0.12919 0.981852,0 1.493448,-0.38757 0.516765,-0.38758 0.516765,-1.12655 0,-0.68213 -0.480591,-1.06453 -0.475423,-0.38758 -1.328084,-0.38758 h -0.89917 v -0.85783 h 0.940511 q 0.769979,0 1.178222,-0.30489 0.408244,-0.31006 0.408244,-0.88883 0,-0.59428 -0.423747,-0.909508 -0.418579,-0.320393 -1.20406,-0.320393 -0.428915,0 -0.919841,0.09302 -0.490926,0.09302 -1.080037,0.289381 v -0.930169 q 0.594279,-0.165364 1.111043,-0.248047 0.521932,-0.08268 0.981852,-0.08268 1.188558,0 1.881022,0.542603 0.692464,0.537435 0.692464,1.457273 0,0.64078 -0.366902,1.0852 -0.366903,0.43925 -1.043864,0.60978 z"
         style="text-align:center;text-anchor:middle;stroke-width:0.26458332"
         id="path985"
         inkscape:connector-curvature="0" />
      <path
         d="m 84.185144,98.919016 h 4.960937 v 0.444417 l -2.800862,7.270877 h -1.090373 l 2.635498,-6.836795 h -3.7052 z"
         style="text-align:center;text-anchor:middle;stroke-width:0.26458332"
         id="path987"
         inkscape:connector-curvature="0" />
      <path
         d="m 97.719202,102.47435 q 0.749308,0.1602 1.167887,0.66663 0.423747,0.50643 0.423747,1.25057 0,1.14205 -0.785482,1.76733 -0.785482,0.62529 -2.232422,0.62529 -0.485758,0 -1.002523,-0.0982 -0.511596,-0.093 -1.059367,-0.28422 v -1.00769 q 0.434082,0.25322 0.950847,0.38241 0.516764,0.12919 1.080037,0.12919 0.981852,0 1.493449,-0.38757 0.516764,-0.38758 0.516764,-1.12655 0,-0.68213 -0.48059,-1.06453 -0.475424,-0.38758 -1.328085,-0.38758 h -0.89917 v -0.85783 h 0.940511 q 0.769979,0 1.178223,-0.30489 0.408244,-0.31006 0.408244,-0.88883 0,-0.59428 -0.423747,-0.909508 -0.418579,-0.320393 -1.204061,-0.320393 -0.428914,0 -0.91984,0.09302 -0.490926,0.09302 -1.080038,0.289381 v -0.930169 q 0.594279,-0.165364 1.111044,-0.248047 0.521932,-0.08268 0.981852,-0.08268 1.188558,0 1.881022,0.542603 0.692464,0.537435 0.692464,1.457273 0,0.64078 -0.366903,1.0852 -0.366902,0.43925 -1.043863,0.60978 z"
         style="text-align:center;text-anchor:middle;stroke-width:0.26458332"
         id="path989"
         inkscape:connector-curvature="0" />
      <path
         d="m 104.45781,102.47435 q 0.74931,0.1602 1.16788,0.66663 0.42375,0.50643 0.42375,1.25057 0,1.14205 -0.78548,1.76733 -0.78548,0.62529 -2.23242,0.62529 -0.48576,0 -1.00253,-0.0982 -0.51159,-0.093 -1.05936,-0.28422 v -1.00769 q 0.43408,0.25322 0.95084,0.38241 0.51677,0.12919 1.08004,0.12919 0.98185,0 1.49345,-0.38757 0.51676,-0.38758 0.51676,-1.12655 0,-0.68213 -0.48059,-1.06453 -0.47542,-0.38758 -1.32808,-0.38758 h -0.89917 v -0.85783 h 0.94051 q 0.76998,0 1.17822,-0.30489 0.40825,-0.31006 0.40825,-0.88883 0,-0.59428 -0.42375,-0.909508 -0.41858,-0.320393 -1.20406,-0.320393 -0.42891,0 -0.91984,0.09302 -0.49093,0.09302 -1.08004,0.289381 v -0.930169 q 0.59428,-0.165364 1.11105,-0.248047 0.52193,-0.08268 0.98185,-0.08268 1.18856,0 1.88102,0.542603 0.69246,0.537435 0.69246,1.457273 0,0.64078 -0.3669,1.0852 -0.3669,0.43925 -1.04386,0.60978 z"
         style="text-align:center;text-anchor:middle;stroke-width:0.26458332"
         id="path991"
         inkscape:connector-curvature="0" />
      <path
         d="m 111.19642,102.47435 q 0.7493,0.1602 1.16788,0.66663 0.42375,0.50643 0.42375,1.25057 0,1.14205 -0.78548,1.76733 -0.78548,0.62529 -2.23242,0.62529 -0.48576,0 -1.00253,-0.0982 -0.51159,-0.093 -1.05936,-0.28422 v -1.00769 q 0.43408,0.25322 0.95084,0.38241 0.51677,0.12919 1.08004,0.12919 0.98185,0 1.49345,-0.38757 0.51676,-0.38758 0.51676,-1.12655 0,-0.68213 -0.48059,-1.06453 -0.47542,-0.38758 -1.32808,-0.38758 h -0.89917 v -0.85783 h 0.94051 q 0.76998,0 1.17822,-0.30489 0.40825,-0.31006 0.40825,-0.88883 0,-0.59428 -0.42375,-0.909508 -0.41858,-0.320393 -1.20406,-0.320393 -0.42892,0 -0.91984,0.09302 -0.49093,0.09302 -1.08004,0.289381 v -0.930169 q 0.59428,-0.165364 1.11104,-0.248047 0.52194,-0.08268 0.98186,-0.08268 1.18855,0 1.88102,0.542603 0.69246,0.537435 0.69246,1.457273 0,0.64078 -0.3669,1.0852 -0.3669,0.43925 -1.04386,0.60978 z"
         style="text-align:center;text-anchor:middle;stroke-width:0.26458332"
         id="path993"
         inkscape:connector-curvature="0" />
      <path
         d="m 117.93502,102.47435 q 0.74931,0.1602 1.16789,0.66663 0.42375,0.50643 0.42375,1.25057 0,1.14205 -0.78549,1.76733 -0.78548,0.62529 -2.23242,0.62529 -0.48576,0 -1.00252,-0.0982 -0.5116,-0.093 -1.05937,-0.28422 v -1.00769 q 0.43408,0.25322 0.95085,0.38241 0.51676,0.12919 1.08004,0.12919 0.98185,0 1.49345,-0.38757 0.51676,-0.38758 0.51676,-1.12655 0,-0.68213 -0.48059,-1.06453 -0.47542,-0.38758 -1.32809,-0.38758 h -0.89917 v -0.85783 h 0.94052 q 0.76997,0 1.17822,-0.30489 0.40824,-0.31006 0.40824,-0.88883 0,-0.59428 -0.42374,-0.909508 -0.41858,-0.320393 -1.20407,-0.320393 -0.42891,0 -0.91984,0.09302 -0.49092,0.09302 -1.08003,0.289381 v -0.930169 q 0.59428,-0.165364 1.11104,-0.248047 0.52193,-0.08268 0.98185,-0.08268 1.18856,0 1.88102,0.542603 0.69247,0.537435 0.69247,1.457273 0,0.64078 -0.3669,1.0852 -0.36691,0.43925 -1.04387,0.60978 z"
         style="text-align:center;text-anchor:middle;stroke-width:0.26458332"
         id="path995"
         inkscape:connector-curvature="0" />
      <path
         d="m 124.89067,98.919016 h 4.09794 v 0.878499 h -3.14193 v 1.891355 q 0.22738,-0.0775 0.45476,-0.11369 0.22737,-0.0413 0.45475,-0.0413 1.29191,0 2.04639,0.70797 0.75447,0.70797 0.75447,1.9172 0,1.2454 -0.77515,1.93786 -0.77514,0.6873 -2.18591,0.6873 -0.48576,0 -0.99219,-0.0827 -0.50126,-0.0827 -1.03869,-0.24805 v -1.04903 q 0.46509,0.25321 0.96118,0.37724 0.49609,0.12402 1.04903,0.12402 0.894,0 1.41594,-0.47026 0.52193,-0.47025 0.52193,-1.2764 0,-0.80616 -0.52193,-1.27641 -0.52194,-0.47026 -1.41594,-0.47026 -0.41858,0 -0.83716,0.093 -0.41341,0.093 -0.84749,0.28939 z"
         style="text-align:center;text-anchor:middle;stroke-width:0.26458332"
         id="path997"
         inkscape:connector-curvature="0" />
      <path
         d="m 131.79981,105.75581 h 1.70532 v -5.885948 l -1.85518,0.372068 v -0.950844 l 1.84485,-0.37207 h 1.04386 v 6.836794 h 1.70532 v 0.8785 h -4.44417 z"
         style="text-align:center;text-anchor:middle;fill:#ff0000;fill-opacity:1;stroke-width:0.26458332"
         id="path999"
         inkscape:connector-curvature="0" />
      <path
         d="m 141.52014,102.47435 q 0.74931,0.1602 1.16789,0.66663 0.42375,0.50643 0.42375,1.25057 0,1.14205 -0.78548,1.76733 -0.78549,0.62529 -2.23243,0.62529 -0.48575,0 -1.00252,-0.0982 -0.5116,-0.093 -1.05937,-0.28422 v -1.00769 q 0.43409,0.25322 0.95085,0.38241 0.51676,0.12919 1.08004,0.12919 0.98185,0 1.49345,-0.38757 0.51676,-0.38758 0.51676,-1.12655 0,-0.68213 -0.48059,-1.06453 -0.47542,-0.38758 -1.32808,-0.38758 h -0.89917 v -0.85783 h 0.94051 q 0.76998,0 1.17822,-0.30489 0.40824,-0.31006 0.40824,-0.88883 0,-0.59428 -0.42374,-0.909508 -0.41858,-0.320393 -1.20406,-0.320393 -0.42892,0 -0.91984,0.09302 -0.49093,0.09302 -1.08004,0.289381 v -0.930169 q 0.59428,-0.165364 1.11104,-0.248047 0.52193,-0.08268 0.98185,-0.08268 1.18856,0 1.88103,0.542603 0.69246,0.537435 0.69246,1.457273 0,0.64078 -0.3669,1.0852 -0.36691,0.43925 -1.04387,0.60978 z"
         style="text-align:center;text-anchor:middle;fill:#ff0000;fill-opacity:1;stroke-width:0.26458332"
         id="path1001"
         inkscape:connector-curvature="0" />
      <path
         d="m 145.27702,105.75581 h 1.70532 v -5.885948 l -1.85518,0.372068 v -0.950844 l 1.84485,-0.37207 h 1.04386 v 6.836794 h 1.70533 v 0.8785 h -4.44418 z"
         style="text-align:center;text-anchor:middle;stroke-width:0.26458332"
         id="path1003"
         inkscape:connector-curvature="0" />
    </g>
  </g>
</svg>
