<?xml version="1.0" encoding="UTF-8" standalone="no"?>
<!-- Created with Inkscape (http://www.inkscape.org/) -->

<svg
   xmlns:dc="http://purl.org/dc/elements/1.1/"
   xmlns:cc="http://creativecommons.org/ns#"
   xmlns:rdf="http://www.w3.org/1999/02/22-rdf-syntax-ns#"
   xmlns:svg="http://www.w3.org/2000/svg"
   xmlns="http://www.w3.org/2000/svg"
   xmlns:sodipodi="http://sodipodi.sourceforge.net/DTD/sodipodi-0.dtd"
   xmlns:inkscape="http://www.inkscape.org/namespaces/inkscape"
   width="27.864264mm"
   height="36.865444mm"
   viewBox="0 0 27.864264 36.865444"
   version="1.1"
   id="svg22698"
   inkscape:version="0.92.4 (5da689c313, 2019-01-14)"
   sodipodi:docname="five.svg">
  <defs
     id="defs22692" />
  <sodipodi:namedview
     id="base"
     pagecolor="#ffffff"
     bordercolor="#666666"
     borderopacity="1.0"
     inkscape:pageopacity="0.0"
     inkscape:pageshadow="2"
     inkscape:zoom="1.4"
     inkscape:cx="70.89899"
     inkscape:cy="158.29001"
     inkscape:document-units="mm"
     inkscape:current-layer="text23245"
     showgrid="false"
     fit-margin-top="0"
     fit-margin-left="0"
     fit-margin-right="0"
     fit-margin-bottom="0"
     inkscape:window-width="1920"
     inkscape:window-height="1043"
     inkscape:window-x="1600"
     inkscape:window-y="18"
     inkscape:window-maximized="0" />
  <metadata
     id="metadata22695">
    <rdf:RDF>
      <cc:Work
         rdf:about="">
        <dc:format>image/svg+xml</dc:format>
        <dc:type
           rdf:resource="http://purl.org/dc/dcmitype/StillImage" />
        <dc:title></dc:title>
      </cc:Work>
    </rdf:RDF>
  </metadata>
  <g
     inkscape:label="Layer 1"
     inkscape:groupmode="layer"
     id="layer1"
     transform="translate(-49.920072,-77.765575)">
    <g
       aria-label="龙马"
       style="font-style:normal;font-weight:normal;font-size:10.58333302px;line-height:1.25;font-family:sans-serif;letter-spacing:0px;word-spacing:0px;fill:#000000;fill-opacity:1;stroke:none;stroke-width:0.26458332"
       id="text23245">
      <path
         d="m 62.243537,79.501242 c -0.423333,-0.41275 -1.27,-1.058333 -1.926167,-1.502833 l -0.508,0.433916 c 0.66675,0.465667 1.49225,1.132417 1.905,1.566334 z m -1.756833,6.900333 c -0.529167,0 -0.613834,-0.08467 -0.613834,-0.497417 v -0.582083 c 1.185334,-0.963083 2.19075,-2.137833 2.899834,-3.429 L 62.06362,81.596742 c -0.53975,1.005417 -1.291166,1.93675 -2.19075,2.741083 v -3.312583 h 3.58775 v -0.740833 h -5.471583 c 0.07408,-0.772584 0.127,-1.598084 0.15875,-2.487084 l -0.814917,-0.03175 c -0.03175,0.899584 -0.07408,1.735667 -0.148166,2.518834 h -3.069167 v 0.740833 h 2.9845 c -0.338667,2.656416 -1.153583,4.466166 -3.175,5.588 0.169333,0.15875 0.486833,0.497416 0.582083,0.66675 2.159,-1.344084 3.026834,-3.323167 3.407834,-6.25475 h 1.17475 v 3.958166 c -0.709084,0.529167 -1.49225,0.98425 -2.296584,1.3335 0.1905,0.15875 0.41275,0.433917 0.53975,0.613834 0.613834,-0.28575 1.195917,-0.624417 1.756834,-1.016 0,0.9525 0.28575,1.217083 1.322916,1.217083 h 2.010834 c 0.889,0 1.132416,-0.370417 1.227666,-1.629833 -0.22225,-0.05292 -0.53975,-0.1905 -0.73025,-0.3175 -0.04233,1.005416 -0.127,1.217083 -0.550333,1.217083 z"
         style="stroke-width:0.26458332"
         id="path23324"
         inkscape:connector-curvature="0" />
      <path
         d="m 71.599203,84.485992 h -6.858 v 0.751416 h 6.858 z m 0.338667,-2.021417 c 0.169333,-1.312333 0.338667,-2.921 0.423333,-4.03225 l -0.5715,-0.0635 -0.127,0.04233 h -6.117166 v 0.762 h 5.979583 c -0.09525,0.931333 -0.232833,2.2225 -0.370417,3.291416 H 67.04837 c 0.08467,-0.762 0.179917,-1.693333 0.243417,-2.465916 l -0.772584,-0.05292 c -0.07408,1.026583 -0.211666,2.402417 -0.338666,3.249083 h 6.752166 c -0.211666,2.19075 -0.433916,3.122083 -0.740833,3.39725 -0.105833,0.09525 -0.254,0.116417 -0.465667,0.116417 -0.264583,0 -0.941916,-0.01058 -1.61925,-0.07408 0.127,0.211667 0.232834,0.529167 0.243417,0.762 0.677333,0.04233 1.322917,0.04233 1.661583,0.02117 0.381,-0.02117 0.613834,-0.09525 0.846667,-0.338667 0.41275,-0.402166 0.645583,-1.49225 0.889,-4.243916 0.02117,-0.116417 0.03175,-0.370417 0.03175,-0.370417 z"
         style="stroke-width:0.26458332"
         id="path23326"
         inkscape:connector-curvature="0" />
    </g>
    <g
       aria-label="인면조"
       style="font-style:normal;font-weight:normal;font-size:10.58333302px;line-height:1.25;font-family:sans-serif;letter-spacing:0px;word-spacing:0px;fill:#000000;fill-opacity:1;stroke:none;stroke-width:0.26458332"
       id="text23249">
      <path
         d="m 57.487155,105.36002 h -0.867833 v 6.93208 h 0.867833 z m -6.720416,2.9845 c 0,-0.92075 0.6985,-1.57692 1.61925,-1.57692 0.941917,0 1.640417,0.65617 1.640417,1.57692 0,0.94191 -0.6985,1.59808 -1.640417,1.59808 -0.92075,0 -1.61925,-0.65617 -1.61925,-1.59808 z m 4.106333,0 c 0,-1.36525 -1.068916,-2.32834 -2.487083,-2.32834 -1.407583,0 -2.465917,0.96309 -2.465917,2.32834 0,1.37583 1.058334,2.3495 2.465917,2.3495 1.418167,0 2.487083,-0.97367 2.487083,-2.3495 z m -2.624666,5.57741 v -2.33891 h -0.867834 v 3.048 h 6.392333 v -0.70909 z"
         style="stroke-width:0.26458332"
         id="path23329"
         inkscape:connector-curvature="0" />
      <path
         d="m 63.349495,109.92143 h -2.624666 v -3.048 h 2.624666 z m 3.026834,-2.19075 v 1.32292 h -2.180167 v -1.32292 z m -2.180167,2.032 h 2.180167 v 2.51884 h 0.878416 v -6.9215 h -0.878416 v 1.66158 h -2.180167 v -0.83608 h -4.328583 v 4.42383 h 4.328583 z m -2.180167,4.15925 v -2.25425 h -0.867833 v 2.96334 h 6.328833 v -0.70909 z"
         style="stroke-width:0.26458332"
         id="path23331"
         inkscape:connector-curvature="0" />
      <path
         d="m 69.952669,110.94802 c 1.42875,-0.30692 2.921,-1.24884 3.52425,-2.56117 0.60325,1.30175 2.106083,2.23308 3.555999,2.51883 l 0.34925,-0.6985 c -1.651,-0.26458 -3.460749,-1.56633 -3.460749,-3.07975 v -0.20108 h 3.143249 v -0.70908 h -7.186083 v 0.70908 h 3.14325 v 0.20108 c 0,1.51342 -1.799166,2.83634 -3.439583,3.1115 z m 3.958166,1.95791 v -2.29658 h -0.867833 v 2.29658 h -3.8735 v 0.71967 h 8.614833 v -0.71967 z"
         style="stroke-width:0.26458332"
         id="path23333"
         inkscape:connector-curvature="0" />
    </g>
  </g>
</svg>
