<?xml version="1.0" encoding="UTF-8" standalone="no"?>
<!-- Created with Inkscape (http://www.inkscape.org/) -->

<svg
   xmlns:dc="http://purl.org/dc/elements/1.1/"
   xmlns:cc="http://creativecommons.org/ns#"
   xmlns:rdf="http://www.w3.org/1999/02/22-rdf-syntax-ns#"
   xmlns:svg="http://www.w3.org/2000/svg"
   xmlns="http://www.w3.org/2000/svg"
   xmlns:sodipodi="http://sodipodi.sourceforge.net/DTD/sodipodi-0.dtd"
   xmlns:inkscape="http://www.inkscape.org/namespaces/inkscape"
   width="238.5074mm"
   height="49.929768mm"
   viewBox="0 0 238.5074 49.929767"
   version="1.1"
   id="svg8"
   sodipodi:docname="58c58bd4342a2e49bc10775c6f839b2cc0b034fd2a9c79ceb49067df57bdc4d1_0.svg"
   inkscape:version="0.92.4 (5da689c313, 2019-01-14)">
  <defs
     id="defs2" />
  <sodipodi:namedview
     id="base"
     pagecolor="#ffffff"
     bordercolor="#666666"
     borderopacity="1.0"
     inkscape:pageopacity="0.0"
     inkscape:pageshadow="2"
     inkscape:zoom="0.24748737"
     inkscape:cx="-450.0065"
     inkscape:cy="-647.44692"
     inkscape:document-units="mm"
     inkscape:current-layer="text7998"
     showgrid="false"
     fit-margin-top="0"
     fit-margin-left="0"
     fit-margin-right="0"
     fit-margin-bottom="0"
     inkscape:window-width="1920"
     inkscape:window-height="1043"
     inkscape:window-x="1600"
     inkscape:window-y="18"
     inkscape:window-maximized="0" />
  <metadata
     id="metadata5">
    <rdf:RDF>
      <cc:Work
         rdf:about="">
        <dc:format>image/svg+xml</dc:format>
        <dc:type
           rdf:resource="http://purl.org/dc/dcmitype/StillImage" />
        <dc:title />
      </cc:Work>
    </rdf:RDF>
  </metadata>
  <g
     inkscape:label="Layer 1"
     inkscape:groupmode="layer"
     id="layer1"
     transform="translate(-126.42127,39.103608)">
    <g
       aria-label="Fruits &amp; Vegetables "
       style="font-style:normal;font-variant:normal;font-weight:normal;font-stretch:normal;font-size:10.58333302px;line-height:1.25;font-family:'Noto Color Emoji';-inkscape-font-specification:'Noto Color Emoji';letter-spacing:0px;word-spacing:0px;fill:#000000;fill-opacity:1;stroke:none;stroke-width:0.26458332"
       id="text7998">
      <g
         aria-label="We had to do some strange things to obtain
our fruits and vegetables. Unfortunately, we
accidentally messed up our clues too… What
did we use to get the foods?
"
         style="font-style:normal;font-variant:normal;font-weight:normal;font-stretch:normal;font-size:10.58333302px;line-height:1.25;font-family:'Noto Color Emoji';-inkscape-font-specification:'Noto Color Emoji';letter-spacing:0px;word-spacing:0px;fill:#000000;fill-opacity:1;stroke:none;stroke-width:0.07000434"
         id="text8603">
        <path
           d="m 126.42127,-38.778047 h 1.0542 l 1.62264,6.521566 1.61747,-6.521566 h 1.17306 l 1.62264,6.521566 1.61747,-6.521566 h 1.05937 l -1.93787,7.715291 h -1.31258 l -1.62781,-6.697265 -1.64331,6.697265 h -1.31258 z"
           style="stroke-width:0.07000434"
           id="path822" />
        <path
           d="m 141.85702,-34.194347 v 0.465088 h -4.37183 q 0.062,0.981852 0.58911,1.498616 0.53227,0.511597 1.47795,0.511597 0.54777,0 1.05937,-0.134359 0.51676,-0.134359 1.02319,-0.403076 v 0.89917 q -0.5116,0.217041 -1.04903,0.330729 -0.53744,0.113688 -1.09037,0.113688 -1.38493,0 -2.19625,-0.806152 -0.80615,-0.806153 -0.80615,-2.180746 0,-1.421101 0.76481,-2.253092 0.76998,-0.837158 2.07222,-0.837158 1.16789,0 1.84485,0.754476 0.68213,0.749308 0.68213,2.041219 z m -0.95085,-0.279053 q -0.0103,-0.780314 -0.43925,-1.245402 -0.42374,-0.465088 -1.12654,-0.465088 -0.79582,0 -1.27641,0.449585 -0.47542,0.449585 -0.54777,1.266073 z"
           style="stroke-width:0.07000434"
           id="path824" />
        <path
           d="m 151.59803,-34.556082 v 3.493326 h -0.95085 v -3.46232 q 0,-0.821656 -0.32039,-1.229899 -0.3204,-0.408244 -0.96118,-0.408244 -0.76998,0 -1.2144,0.490926 -0.44442,0.490926 -0.44442,1.338419 v 3.271118 h -0.95601 v -8.040852 h 0.95601 v 3.152262 q 0.34107,-0.521932 0.80099,-0.780314 0.46508,-0.258382 1.0697,-0.258382 0.99735,0 1.50895,0.620117 0.5116,0.61495 0.5116,1.813843 z"
           style="stroke-width:0.07000434"
           id="path826" />
        <path
           d="m 156.13522,-33.972139 q -1.15239,0 -1.5968,0.26355 -0.44442,0.26355 -0.44442,0.89917 0,0.506429 0.33073,0.806152 0.33589,0.294556 0.9095,0.294556 0.79065,0 1.26608,-0.558105 0.48059,-0.563274 0.48059,-1.493449 v -0.211874 z m 1.89652,-0.392741 v 3.302124 h -0.95084 v -0.878499 q -0.32557,0.5271 -0.81132,0.780314 -0.48576,0.248047 -1.18856,0.248047 -0.88884,0 -1.41594,-0.496094 -0.52193,-0.501261 -0.52193,-1.338419 0,-0.976685 0.65113,-1.472779 0.65629,-0.496093 1.95336,-0.496093 h 1.33326 v -0.09302 q 0,-0.65629 -0.43409,-1.012858 -0.42891,-0.361735 -1.20922,-0.361735 -0.4961,0 -0.96635,0.118856 -0.47026,0.118856 -0.90434,0.356567 v -0.878499 q 0.52193,-0.201538 1.01286,-0.299723 0.49092,-0.103353 0.95601,-0.103353 1.25574,0 1.87586,0.651123 0.62011,0.651123 0.62011,1.974039 z"
           style="stroke-width:0.07000434"
           id="path828" />
        <path
           d="m 163.804,-35.972017 v -3.131591 h 0.95085 v 8.040852 H 163.804 v -0.868164 q -0.29972,0.516765 -0.75964,0.769979 -0.45476,0.248047 -1.09554,0.248047 -1.04903,0 -1.71049,-0.837158 -0.65629,-0.837158 -0.65629,-2.201416 0,-1.364258 0.65629,-2.201416 0.66146,-0.837158 1.71049,-0.837158 0.64078,0 1.09554,0.253214 0.45992,0.248047 0.75964,0.764811 z m -3.24011,2.020549 q 0,1.049031 0.42891,1.648478 0.43408,0.594279 1.18856,0.594279 0.75448,0 1.18856,-0.594279 0.43408,-0.599447 0.43408,-1.648478 0,-1.049032 -0.43408,-1.643311 -0.43408,-0.599446 -1.18856,-0.599446 -0.75448,0 -1.18856,0.599446 -0.42891,0.594279 -0.42891,1.643311 z"
           style="stroke-width:0.07000434"
           id="path830" />
        <path
           d="m 171.0232,-38.493826 v 1.64331 h 1.95853 v 0.738973 h -1.95853 v 3.141927 q 0,0.707967 0.1912,0.909505 0.19637,0.201538 0.79065,0.201538 h 0.97668 v 0.795817 h -0.97668 q -1.10071,0 -1.51929,-0.408243 -0.41858,-0.413412 -0.41858,-1.498617 v -3.141927 h -0.69763 v -0.738973 h 0.69763 v -1.64331 z"
           style="stroke-width:0.07000434"
           id="path832" />
        <path
           d="m 176.48023,-36.18389 q -0.76481,0 -1.20923,0.599447 -0.44442,0.594279 -0.44442,1.632975 0,1.038696 0.43925,1.638143 0.44442,0.594279 1.2144,0.594279 0.75964,0 1.20406,-0.599447 0.44442,-0.599446 0.44442,-1.632975 0,-1.028361 -0.44442,-1.627808 -0.44442,-0.604614 -1.20406,-0.604614 z m 0,-0.806152 q 1.24023,0 1.9482,0.806152 0.70797,0.806152 0.70797,2.232422 0,1.421102 -0.70797,2.232422 -0.70797,0.806152 -1.9482,0.806152 -1.2454,0 -1.95337,-0.806152 -0.7028,-0.81132 -0.7028,-2.232422 0,-1.42627 0.7028,-2.232422 0.70797,-0.806152 1.95337,-0.806152 z"
           style="stroke-width:0.07000434"
           id="path834" />
        <path
           d="m 187.88522,-35.972017 v -3.131591 h 0.95084 v 8.040852 h -0.95084 v -0.868164 q -0.29973,0.516765 -0.75965,0.769979 -0.45475,0.248047 -1.09554,0.248047 -1.04903,0 -1.71049,-0.837158 -0.65629,-0.837158 -0.65629,-2.201416 0,-1.364258 0.65629,-2.201416 0.66146,-0.837158 1.71049,-0.837158 0.64079,0 1.09554,0.253214 0.45992,0.248047 0.75965,0.764811 z m -3.24012,2.020549 q 0,1.049031 0.42892,1.648478 0.43408,0.594279 1.18856,0.594279 0.75447,0 1.18855,-0.594279 0.43409,-0.599447 0.43409,-1.648478 0,-1.049032 -0.43409,-1.643311 -0.43408,-0.599446 -1.18855,-0.599446 -0.75448,0 -1.18856,0.599446 -0.42892,0.594279 -0.42892,1.643311 z"
           style="stroke-width:0.07000434"
           id="path836" />
        <path
           d="m 193.03736,-36.18389 q -0.76481,0 -1.20923,0.599447 -0.44442,0.594279 -0.44442,1.632975 0,1.038696 0.43925,1.638143 0.44442,0.594279 1.2144,0.594279 0.75964,0 1.20406,-0.599447 0.44442,-0.599446 0.44442,-1.632975 0,-1.028361 -0.44442,-1.627808 -0.44442,-0.604614 -1.20406,-0.604614 z m 0,-0.806152 q 1.24023,0 1.9482,0.806152 0.70797,0.806152 0.70797,2.232422 0,1.421102 -0.70797,2.232422 -0.70797,0.806152 -1.9482,0.806152 -1.2454,0 -1.95337,-0.806152 -0.7028,-0.81132 -0.7028,-2.232422 0,-1.42627 0.7028,-2.232422 0.70797,-0.806152 1.95337,-0.806152 z"
           style="stroke-width:0.07000434"
           id="path838" />
        <path
           d="m 204.32349,-36.679984 v 0.89917 q -0.40308,-0.206705 -0.83716,-0.310058 -0.43408,-0.103353 -0.89917,-0.103353 -0.70797,0 -1.06453,0.217041 -0.3514,0.217041 -0.3514,0.651123 0,0.330729 0.25321,0.521932 0.25322,0.186035 1.01803,0.356567 l 0.32556,0.07235 q 1.01286,0.217041 1.4366,0.61495 0.42892,0.392741 0.42892,1.100708 0,0.806152 -0.64079,1.276408 -0.63562,0.470255 -1.75183,0.470255 -0.46509,0 -0.97152,-0.09302 -0.50126,-0.08785 -1.05937,-0.268717 v -0.981852 q 0.5271,0.273885 1.0387,0.413411 0.5116,0.134359 1.01286,0.134359 0.67179,0 1.03353,-0.227376 0.36173,-0.232544 0.36173,-0.651123 0,-0.387574 -0.26355,-0.594279 -0.25838,-0.206706 -1.14205,-0.397909 l -0.33073,-0.07751 q -0.88366,-0.186036 -1.2764,-0.568441 -0.39274,-0.387573 -0.39274,-1.059367 0,-0.816488 0.57877,-1.260905 0.57878,-0.444417 1.64331,-0.444417 0.5271,0 0.99219,0.07751 0.46509,0.07752 0.85783,0.232544 z"
           style="stroke-width:0.07000434"
           id="path840" />
        <path
           d="m 208.39559,-36.18389 q -0.76481,0 -1.20923,0.599447 -0.44441,0.594279 -0.44441,1.632975 0,1.038696 0.43925,1.638143 0.44441,0.594279 1.21439,0.594279 0.75965,0 1.20406,-0.599447 0.44442,-0.599446 0.44442,-1.632975 0,-1.028361 -0.44442,-1.627808 -0.44441,-0.604614 -1.20406,-0.604614 z m 0,-0.806152 q 1.24024,0 1.9482,0.806152 0.70797,0.806152 0.70797,2.232422 0,1.421102 -0.70797,2.232422 -0.70796,0.806152 -1.9482,0.806152 -1.2454,0 -1.95337,-0.806152 -0.7028,-0.81132 -0.7028,-2.232422 0,-1.42627 0.7028,-2.232422 0.70797,-0.806152 1.95337,-0.806152 z"
           style="stroke-width:0.07000434"
           id="path842" />
        <path
           d="m 217.12891,-35.739473 q 0.35656,-0.640787 0.85266,-0.945678 0.49609,-0.304891 1.16788,-0.304891 0.90434,0 1.39527,0.63562 0.49092,0.630452 0.49092,1.79834 v 3.493326 h -0.95601 v -3.46232 q 0,-0.831991 -0.29456,-1.235067 -0.29455,-0.403076 -0.89917,-0.403076 -0.73897,0 -1.16788,0.490926 -0.42892,0.490926 -0.42892,1.338419 v 3.271118 h -0.95601 v -3.46232 q 0,-0.837159 -0.29456,-1.235067 -0.29455,-0.403076 -0.9095,-0.403076 -0.72864,0 -1.15755,0.496093 -0.42892,0.490927 -0.42892,1.333252 v 3.271118 h -0.95601 v -5.78776 h 0.95601 v 0.89917 q 0.32556,-0.532267 0.78032,-0.785482 0.45475,-0.253214 1.08003,-0.253214 0.63046,0 1.06971,0.320394 0.44441,0.320394 0.65629,0.930175 z"
           style="stroke-width:0.07000434"
           id="path844" />
        <path
           d="m 227.88794,-34.194347 v 0.465088 h -4.37182 q 0.062,0.981852 0.58911,1.498616 0.53227,0.511597 1.47795,0.511597 0.54777,0 1.05936,-0.134359 0.51677,-0.134359 1.0232,-0.403076 v 0.89917 q -0.5116,0.217041 -1.04904,0.330729 -0.53743,0.113688 -1.09037,0.113688 -1.38493,0 -2.19625,-0.806152 -0.80615,-0.806153 -0.80615,-2.180746 0,-1.421101 0.76481,-2.253092 0.76998,-0.837158 2.07223,-0.837158 1.16788,0 1.84485,0.754476 0.68212,0.749308 0.68212,2.041219 z M 226.9371,-34.4734 q -0.0103,-0.780314 -0.43925,-1.245402 -0.42375,-0.465088 -1.12655,-0.465088 -0.79581,0 -1.27641,0.449585 -0.47542,0.449585 -0.54777,1.266073 z"
           style="stroke-width:0.07000434"
           id="path846" />
        <path
           d="m 236.50757,-36.679984 v 0.89917 q -0.40308,-0.206705 -0.83716,-0.310058 -0.43408,-0.103353 -0.89917,-0.103353 -0.70796,0 -1.06453,0.217041 -0.3514,0.217041 -0.3514,0.651123 0,0.330729 0.25321,0.521932 0.25322,0.186035 1.01803,0.356567 l 0.32556,0.07235 q 1.01286,0.217041 1.4366,0.61495 0.42892,0.392741 0.42892,1.100708 0,0.806152 -0.64079,1.276408 -0.63562,0.470255 -1.75183,0.470255 -0.46509,0 -0.97152,-0.09302 -0.50126,-0.08785 -1.05936,-0.268717 v -0.981852 q 0.5271,0.273885 1.03869,0.413411 0.5116,0.134359 1.01286,0.134359 0.67179,0 1.03353,-0.227376 0.36173,-0.232544 0.36173,-0.651123 0,-0.387574 -0.26354,-0.594279 -0.25839,-0.206706 -1.14205,-0.397909 l -0.33073,-0.07751 q -0.88367,-0.186036 -1.27641,-0.568441 -0.39274,-0.387573 -0.39274,-1.059367 0,-0.816488 0.57877,-1.260905 0.57878,-0.444417 1.64331,-0.444417 0.5271,0 0.99219,0.07751 0.46509,0.07752 0.85783,0.232544 z"
           style="stroke-width:0.07000434"
           id="path848" />
        <path
           d="m 239.27743,-38.493826 v 1.64331 h 1.95853 v 0.738973 h -1.95853 v 3.141927 q 0,0.707967 0.1912,0.909505 0.19637,0.201538 0.79065,0.201538 h 0.97668 v 0.795817 h -0.97668 q -1.10071,0 -1.51929,-0.408243 -0.41858,-0.413412 -0.41858,-1.498617 v -3.141927 h -0.69763 v -0.738973 h 0.69763 v -1.64331 z"
           style="stroke-width:0.07000434"
           id="path850" />
        <path
           d="m 245.8455,-35.961681 q -0.16019,-0.09302 -0.3514,-0.134359 -0.18603,-0.04651 -0.41341,-0.04651 -0.80615,0 -1.24023,0.5271 -0.42892,0.521932 -0.42892,1.503784 v 3.048909 h -0.95601 v -5.78776 h 0.95601 v 0.89917 q 0.29973,-0.5271 0.78032,-0.780314 0.48059,-0.258382 1.16788,-0.258382 0.0982,0 0.21704,0.0155 0.11886,0.01033 0.26355,0.03617 z"
           style="stroke-width:0.07000434"
           id="path852" />
        <path
           d="m 249.48352,-33.972139 q -1.15238,0 -1.5968,0.26355 -0.44442,0.26355 -0.44442,0.89917 0,0.506429 0.33073,0.806152 0.3359,0.294556 0.90951,0.294556 0.79065,0 1.26607,-0.558105 0.48059,-0.563274 0.48059,-1.493449 v -0.211874 z m 1.89653,-0.392741 v 3.302124 h -0.95085 v -0.878499 q -0.32556,0.5271 -0.81132,0.780314 -0.48576,0.248047 -1.18856,0.248047 -0.88883,0 -1.41593,-0.496094 -0.52193,-0.501261 -0.52193,-1.338419 0,-0.976685 0.65112,-1.472779 0.65629,-0.496093 1.95337,-0.496093 h 1.33325 v -0.09302 q 0,-0.65629 -0.43408,-1.012858 -0.42892,-0.361735 -1.20923,-0.361735 -0.4961,0 -0.96635,0.118856 -0.47026,0.118856 -0.90434,0.356567 v -0.878499 q 0.52193,-0.201538 1.01286,-0.299723 0.49093,-0.103353 0.95601,-0.103353 1.25574,0 1.87586,0.651123 0.62012,0.651123 0.62012,1.974039 z"
           style="stroke-width:0.07000434"
           id="path854" />
        <path
           d="m 258.15483,-34.556082 v 3.493326 h -0.95085 v -3.46232 q 0,-0.821656 -0.32039,-1.229899 -0.3204,-0.408244 -0.96118,-0.408244 -0.76998,0 -1.2144,0.490926 -0.44442,0.490926 -0.44442,1.338419 v 3.271118 h -0.95601 v -5.78776 h 0.95601 v 0.89917 q 0.34107,-0.521932 0.80099,-0.780314 0.46509,-0.258382 1.0697,-0.258382 0.99735,0 1.50895,0.620117 0.5116,0.61495 0.5116,1.813843 z"
           style="stroke-width:0.07000434"
           id="path856" />
        <path
           d="m 263.87024,-34.023815 q 0,-1.033529 -0.42892,-1.601969 -0.42374,-0.568441 -1.19372,-0.568441 -0.76481,0 -1.19373,0.568441 -0.42374,0.56844 -0.42374,1.601969 0,1.028361 0.42374,1.596802 0.42892,0.56844 1.19373,0.56844 0.76998,0 1.19372,-0.56844 0.42892,-0.568441 0.42892,-1.596802 z m 0.95085,2.242757 q 0,1.477946 -0.6563,2.196248 -0.65629,0.72347 -2.01021,0.72347 -0.50126,0 -0.94568,-0.07751 -0.44441,-0.07235 -0.86299,-0.227377 v -0.925008 q 0.41858,0.227377 0.82682,0.335897 0.40824,0.108521 0.83199,0.108521 0.93534,0 1.40043,-0.490926 0.46509,-0.485759 0.46509,-1.472779 v -0.470255 q -0.29456,0.511596 -0.75448,0.764811 -0.45992,0.253214 -1.1007,0.253214 -1.06454,0 -1.71566,-0.81132 -0.65113,-0.81132 -0.65113,-2.149739 0,-1.343587 0.65113,-2.154907 0.65112,-0.81132 1.71566,-0.81132 0.64078,0 1.1007,0.253214 0.45992,0.253215 0.75448,0.764811 v -0.878499 h 0.95085 z"
           style="stroke-width:0.07000434"
           id="path858" />
        <path
           d="m 271.73023,-34.194347 v 0.465088 h -4.37183 q 0.062,0.981852 0.58911,1.498616 0.53227,0.511597 1.47795,0.511597 0.54777,0 1.05937,-0.134359 0.51676,-0.134359 1.02319,-0.403076 v 0.89917 q -0.5116,0.217041 -1.04903,0.330729 -0.53744,0.113688 -1.09037,0.113688 -1.38493,0 -2.19625,-0.806152 -0.80615,-0.806153 -0.80615,-2.180746 0,-1.421101 0.76481,-2.253092 0.76998,-0.837158 2.07222,-0.837158 1.16789,0 1.84485,0.754476 0.68213,0.749308 0.68213,2.041219 z m -0.95085,-0.279053 q -0.0103,-0.780314 -0.43925,-1.245402 -0.42374,-0.465088 -1.12654,-0.465088 -0.79582,0 -1.27641,0.449585 -0.47542,0.449585 -0.54777,1.266073 z"
           style="stroke-width:0.07000434"
           id="path860" />
        <path
           d="m 277.60066,-38.493826 v 1.64331 h 1.95854 v 0.738973 h -1.95854 v 3.141927 q 0,0.707967 0.1912,0.909505 0.19638,0.201538 0.79065,0.201538 h 0.97669 v 0.795817 h -0.97669 q -1.1007,0 -1.51928,-0.408243 -0.41858,-0.413412 -0.41858,-1.498617 v -3.141927 h -0.69763 v -0.738973 h 0.69763 v -1.64331 z"
           style="stroke-width:0.07000434"
           id="path862" />
        <path
           d="m 285.62601,-34.556082 v 3.493326 h -0.95084 v -3.46232 q 0,-0.821656 -0.3204,-1.229899 -0.32039,-0.408244 -0.96118,-0.408244 -0.76998,0 -1.2144,0.490926 -0.44441,0.490926 -0.44441,1.338419 v 3.271118 h -0.95602 v -8.040852 h 0.95602 v 3.152262 q 0.34106,-0.521932 0.80098,-0.780314 0.46509,-0.258382 1.0697,-0.258382 0.99736,0 1.50896,0.620117 0.51159,0.61495 0.51159,1.813843 z"
           style="stroke-width:0.07000434"
           id="path864" />
        <path
           d="m 287.53288,-36.850516 h 0.95084 v 5.78776 h -0.95084 z m 0,-2.253092 h 0.95084 v 1.204061 h -0.95084 z"
           style="stroke-width:0.07000434"
           id="path866" />
        <path
           d="m 295.27918,-34.556082 v 3.493326 h -0.95085 v -3.46232 q 0,-0.821656 -0.32039,-1.229899 -0.32039,-0.408244 -0.96118,-0.408244 -0.76998,0 -1.2144,0.490926 -0.44442,0.490926 -0.44442,1.338419 v 3.271118 h -0.95601 v -5.78776 h 0.95601 v 0.89917 q 0.34107,-0.521932 0.80099,-0.780314 0.46509,-0.258382 1.0697,-0.258382 0.99736,0 1.50895,0.620117 0.5116,0.61495 0.5116,1.813843 z"
           style="stroke-width:0.07000434"
           id="path868" />
        <path
           d="m 300.99458,-34.023815 q 0,-1.033529 -0.42891,-1.601969 -0.42375,-0.568441 -1.19373,-0.568441 -0.76481,0 -1.19372,0.568441 -0.42375,0.56844 -0.42375,1.601969 0,1.028361 0.42375,1.596802 0.42891,0.56844 1.19372,0.56844 0.76998,0 1.19373,-0.56844 0.42891,-0.568441 0.42891,-1.596802 z m 0.95085,2.242757 q 0,1.477946 -0.65629,2.196248 -0.65629,0.72347 -2.01021,0.72347 -0.50127,0 -0.94568,-0.07751 -0.44442,-0.07235 -0.863,-0.227377 v -0.925008 q 0.41858,0.227377 0.82682,0.335897 0.40825,0.108521 0.83199,0.108521 0.93535,0 1.40044,-0.490926 0.46508,-0.485759 0.46508,-1.472779 v -0.470255 q -0.29455,0.511596 -0.75447,0.764811 -0.45992,0.253214 -1.10071,0.253214 -1.06454,0 -1.71566,-0.81132 -0.65112,-0.81132 -0.65112,-2.149739 0,-1.343587 0.65112,-2.154907 0.65112,-0.81132 1.71566,-0.81132 0.64079,0 1.10071,0.253214 0.45992,0.253215 0.75447,0.764811 v -0.878499 h 0.95085 z"
           style="stroke-width:0.07000434"
           id="path870" />
        <path
           d="m 307.59367,-36.679984 v 0.89917 q -0.40308,-0.206705 -0.83716,-0.310058 -0.43408,-0.103353 -0.89917,-0.103353 -0.70797,0 -1.06453,0.217041 -0.3514,0.217041 -0.3514,0.651123 0,0.330729 0.25321,0.521932 0.25322,0.186035 1.01803,0.356567 l 0.32556,0.07235 q 1.01286,0.217041 1.4366,0.61495 0.42892,0.392741 0.42892,1.100708 0,0.806152 -0.64079,1.276408 -0.63562,0.470255 -1.75183,0.470255 -0.46509,0 -0.97152,-0.09302 -0.50126,-0.08785 -1.05937,-0.268717 v -0.981852 q 0.5271,0.273885 1.0387,0.413411 0.5116,0.134359 1.01286,0.134359 0.67179,0 1.03353,-0.227376 0.36173,-0.232544 0.36173,-0.651123 0,-0.387574 -0.26355,-0.594279 -0.25838,-0.206706 -1.14205,-0.397909 l -0.33073,-0.07751 q -0.88366,-0.186036 -1.2764,-0.568441 -0.39274,-0.387573 -0.39274,-1.059367 0,-0.816488 0.57877,-1.260905 0.57878,-0.444417 1.64331,-0.444417 0.5271,0 0.99219,0.07751 0.46509,0.07752 0.85783,0.232544 z"
           style="stroke-width:0.07000434"
           id="path872" />
        <path
           d="m 313.73283,-38.493826 v 1.64331 h 1.95854 v 0.738973 h -1.95854 v 3.141927 q 0,0.707967 0.19121,0.909505 0.19637,0.201538 0.79065,0.201538 h 0.97668 v 0.795817 h -0.97668 q -1.10071,0 -1.51929,-0.408243 -0.41858,-0.413412 -0.41858,-1.498617 v -3.141927 h -0.69763 v -0.738973 h 0.69763 v -1.64331 z"
           style="stroke-width:0.07000434"
           id="path874" />
        <path
           d="m 319.18987,-36.18389 q -0.76482,0 -1.20923,0.599447 -0.44442,0.594279 -0.44442,1.632975 0,1.038696 0.43925,1.638143 0.44442,0.594279 1.2144,0.594279 0.75964,0 1.20406,-0.599447 0.44441,-0.599446 0.44441,-1.632975 0,-1.028361 -0.44441,-1.627808 -0.44442,-0.604614 -1.20406,-0.604614 z m 0,-0.806152 q 1.24023,0 1.9482,0.806152 0.70796,0.806152 0.70796,2.232422 0,1.421102 -0.70796,2.232422 -0.70797,0.806152 -1.9482,0.806152 -1.24541,0 -1.95337,-0.806152 -0.7028,-0.81132 -0.7028,-2.232422 0,-1.42627 0.7028,-2.232422 0.70796,-0.806152 1.95337,-0.806152 z"
           style="stroke-width:0.07000434"
           id="path876" />
        <path
           d="m 329.02905,-36.18389 q -0.76481,0 -1.20923,0.599447 -0.44441,0.594279 -0.44441,1.632975 0,1.038696 0.43925,1.638143 0.44441,0.594279 1.21439,0.594279 0.75965,0 1.20406,-0.599447 0.44442,-0.599446 0.44442,-1.632975 0,-1.028361 -0.44442,-1.627808 -0.44441,-0.604614 -1.20406,-0.604614 z m 0,-0.806152 q 1.24024,0 1.9482,0.806152 0.70797,0.806152 0.70797,2.232422 0,1.421102 -0.70797,2.232422 -0.70796,0.806152 -1.9482,0.806152 -1.2454,0 -1.95337,-0.806152 -0.7028,-0.81132 -0.7028,-2.232422 0,-1.42627 0.7028,-2.232422 0.70797,-0.806152 1.95337,-0.806152 z"
           style="stroke-width:0.07000434"
           id="path878" />
        <path
           d="m 337.41097,-33.951468 q 0,-1.049032 -0.43408,-1.643311 -0.42891,-0.599446 -1.18339,-0.599446 -0.75447,0 -1.18856,0.599446 -0.42891,0.594279 -0.42891,1.643311 0,1.049031 0.42891,1.648478 0.43409,0.594279 1.18856,0.594279 0.75448,0 1.18339,-0.594279 0.43408,-0.599447 0.43408,-1.648478 z m -3.23494,-2.020549 q 0.29972,-0.516764 0.75448,-0.764811 0.45992,-0.253214 1.09554,-0.253214 1.0542,0 1.71049,0.837158 0.66145,0.837158 0.66145,2.201416 0,1.364258 -0.66145,2.201416 -0.65629,0.837158 -1.71049,0.837158 -0.63562,0 -1.09554,-0.248047 -0.45476,-0.253214 -0.75448,-0.769979 v 0.868164 h -0.95601 v -8.040852 h 0.95601 z"
           style="stroke-width:0.07000434"
           id="path880" />
        <path
           d="m 340.91463,-38.493826 v 1.64331 h 1.95853 v 0.738973 h -1.95853 v 3.141927 q 0,0.707967 0.1912,0.909505 0.19637,0.201538 0.79065,0.201538 h 0.97668 v 0.795817 h -0.97668 q -1.10071,0 -1.51929,-0.408243 -0.41858,-0.413412 -0.41858,-1.498617 v -3.141927 h -0.69763 v -0.738973 h 0.69763 v -1.64331 z"
           style="stroke-width:0.07000434"
           id="path882" />
        <path
           d="m 346.75923,-33.972139 q -1.15238,0 -1.5968,0.26355 -0.44442,0.26355 -0.44442,0.89917 0,0.506429 0.33073,0.806152 0.3359,0.294556 0.90951,0.294556 0.79065,0 1.26607,-0.558105 0.48059,-0.563274 0.48059,-1.493449 v -0.211874 z m 1.89653,-0.392741 v 3.302124 h -0.95085 v -0.878499 q -0.32556,0.5271 -0.81132,0.780314 -0.48576,0.248047 -1.18856,0.248047 -0.88883,0 -1.41593,-0.496094 -0.52193,-0.501261 -0.52193,-1.338419 0,-0.976685 0.65112,-1.472779 0.65629,-0.496093 1.95337,-0.496093 h 1.33325 v -0.09302 q 0,-0.65629 -0.43408,-1.012858 -0.42892,-0.361735 -1.20923,-0.361735 -0.49609,0 -0.96635,0.118856 -0.47026,0.118856 -0.90434,0.356567 v -0.878499 q 0.52193,-0.201538 1.01286,-0.299723 0.49093,-0.103353 0.95601,-0.103353 1.25574,0 1.87586,0.651123 0.62012,0.651123 0.62012,1.974039 z"
           style="stroke-width:0.07000434"
           id="path884" />
        <path
           d="m 350.61947,-36.850516 h 0.95085 v 5.78776 h -0.95085 z m 0,-2.253092 h 0.95085 v 1.204061 h -0.95085 z"
           style="stroke-width:0.07000434"
           id="path886" />
        <path
           d="m 358.36576,-34.556082 v 3.493326 h -0.95085 v -3.46232 q 0,-0.821656 -0.32039,-1.229899 -0.3204,-0.408244 -0.96118,-0.408244 -0.76998,0 -1.2144,0.490926 -0.44442,0.490926 -0.44442,1.338419 v 3.271118 h -0.95601 v -5.78776 h 0.95601 v 0.89917 q 0.34107,-0.521932 0.80099,-0.780314 0.46509,-0.258382 1.0697,-0.258382 0.99735,0 1.50895,0.620117 0.5116,0.61495 0.5116,1.813843 z"
           style="stroke-width:0.07000434"
           id="path888" />
        <path
           d="m 129.30998,-22.954724 q -0.76481,0 -1.20923,0.599447 -0.44441,0.594279 -0.44441,1.632975 0,1.038696 0.43925,1.638143 0.44441,0.594279 1.21439,0.594279 0.75965,0 1.20406,-0.599447 0.44442,-0.599446 0.44442,-1.632975 0,-1.028361 -0.44442,-1.627807 -0.44441,-0.604615 -1.20406,-0.604615 z m 0,-0.806152 q 1.24024,0 1.9482,0.806152 0.70797,0.806153 0.70797,2.232422 0,1.421102 -0.70797,2.232422 -0.70796,0.806152 -1.9482,0.806152 -1.2454,0 -1.95337,-0.806152 -0.7028,-0.81132 -0.7028,-2.232422 0,-1.426269 0.7028,-2.232422 0.70797,-0.806152 1.95337,-0.806152 z"
           style="stroke-width:0.07000434"
           id="path890" />
        <path
           d="m 133.43893,-20.117688 v -3.503662 h 0.95085 v 3.467489 q 0,0.821655 0.32039,1.235067 0.32039,0.408243 0.96118,0.408243 0.76998,0 1.2144,-0.490926 0.44958,-0.490926 0.44958,-1.338419 v -3.281454 h 0.95085 v 5.787761 h -0.95085 v -0.888835 q -0.34623,0.5271 -0.80615,0.785482 -0.45475,0.253214 -1.05937,0.253214 -0.99735,0 -1.51412,-0.620117 -0.51676,-0.620117 -0.51676,-1.813843 z m 2.39262,-3.643188 z"
           style="stroke-width:0.07000434"
           id="path892" />
        <path
           d="m 143.60885,-22.732515 q -0.1602,-0.09302 -0.3514,-0.134359 -0.18603,-0.04651 -0.41341,-0.04651 -0.80615,0 -1.24023,0.527099 -0.42892,0.521932 -0.42892,1.503784 v 3.04891 h -0.95601 v -5.787761 h 0.95601 v 0.89917 q 0.29972,-0.527099 0.78031,-0.780314 0.4806,-0.258382 1.16789,-0.258382 0.0982,0 0.21704,0.0155 0.11886,0.01034 0.26355,0.03617 z"
           style="stroke-width:0.07000434"
           id="path894" />
        <path
           d="m 150.9159,-25.874442 v 0.790649 h -0.90951 q -0.51159,0 -0.71313,0.206706 -0.19637,0.206706 -0.19637,0.744141 v 0.511596 h 1.56579 v 0.738973 h -1.56579 v 5.048788 h -0.95602 v -5.048788 h -0.9095 v -0.738973 h 0.9095 v -0.403076 q 0,-0.966349 0.44959,-1.405599 0.44958,-0.444417 1.42627,-0.444417 z"
           style="stroke-width:0.07000434"
           id="path896" />
        <path
           d="m 155.06035,-22.732515 q -0.1602,-0.09302 -0.3514,-0.134359 -0.18604,-0.04651 -0.41341,-0.04651 -0.80616,0 -1.24024,0.527099 -0.42891,0.521932 -0.42891,1.503784 v 3.04891 h -0.95602 v -5.787761 h 0.95602 v 0.89917 q 0.29972,-0.527099 0.78031,-0.780314 0.48059,-0.258382 1.16789,-0.258382 0.0982,0 0.21704,0.0155 0.11886,0.01034 0.26355,0.03617 z"
           style="stroke-width:0.07000434"
           id="path898" />
        <path
           d="m 155.96985,-20.117688 v -3.503662 h 0.95085 v 3.467489 q 0,0.821655 0.32039,1.235067 0.3204,0.408243 0.96118,0.408243 0.76998,0 1.2144,-0.490926 0.44959,-0.490926 0.44959,-1.338419 v -3.281454 h 0.95084 v 5.787761 h -0.95084 v -0.888835 q -0.34624,0.5271 -0.80616,0.785482 -0.45475,0.253214 -1.05936,0.253214 -0.99736,0 -1.51412,-0.620117 -0.51677,-0.620117 -0.51677,-1.813843 z m 2.39262,-3.643188 z"
           style="stroke-width:0.07000434"
           id="path900" />
        <path
           d="m 162.78598,-23.62135 h 0.95084 v 5.787761 h -0.95084 z m 0,-2.253092 h 0.95084 v 1.204061 h -0.95084 z"
           style="stroke-width:0.07000434"
           id="path902" />
        <path
           d="m 166.6617,-25.26466 v 1.64331 h 1.95854 v 0.738973 h -1.95854 v 3.141927 q 0,0.707967 0.19121,0.909506 0.19637,0.201538 0.79065,0.201538 h 0.97668 v 0.795817 h -0.97668 q -1.10071,0 -1.51929,-0.408244 -0.41858,-0.413412 -0.41858,-1.498617 v -3.141927 h -0.69763 v -0.738973 h 0.69763 v -1.64331 z"
           style="stroke-width:0.07000434"
           id="path904" />
        <path
           d="m 173.56568,-23.450817 v 0.89917 q -0.40308,-0.206706 -0.83716,-0.310059 -0.43408,-0.103353 -0.89917,-0.103353 -0.70797,0 -1.06454,0.217041 -0.3514,0.217041 -0.3514,0.651123 0,0.330729 0.25322,0.521932 0.25321,0.186035 1.01802,0.356567 l 0.32557,0.07235 q 1.01285,0.217041 1.4366,0.61495 0.42891,0.392741 0.42891,1.100708 0,0.806152 -0.64078,1.276408 -0.63562,0.470255 -1.75183,0.470255 -0.46509,0 -0.97152,-0.09302 -0.50126,-0.08785 -1.05937,-0.268718 v -0.981852 q 0.5271,0.273885 1.0387,0.413412 0.5116,0.134358 1.01286,0.134358 0.67179,0 1.03353,-0.227376 0.36173,-0.232544 0.36173,-0.651123 0,-0.387573 -0.26355,-0.594279 -0.25838,-0.206706 -1.14205,-0.397908 l -0.33073,-0.07751 q -0.88366,-0.186035 -1.27641,-0.568441 -0.39274,-0.387573 -0.39274,-1.059367 0,-0.816487 0.57878,-1.260905 0.57878,-0.444417 1.64331,-0.444417 0.5271,0 0.99219,0.07751 0.46509,0.07751 0.85783,0.232544 z"
           style="stroke-width:0.07000434"
           id="path906" />
        <path
           d="m 181.39466,-20.742972 q -1.15239,0 -1.5968,0.263549 -0.44442,0.26355 -0.44442,0.89917 0,0.506429 0.33073,0.806153 0.33589,0.294555 0.9095,0.294555 0.79065,0 1.26607,-0.558105 0.4806,-0.563273 0.4806,-1.493449 v -0.211873 z m 1.89652,-0.392741 v 3.302124 h -0.95084 v -0.8785 q -0.32557,0.5271 -0.81132,0.780314 -0.48576,0.248047 -1.18856,0.248047 -0.88884,0 -1.41594,-0.496093 -0.52193,-0.501262 -0.52193,-1.33842 0,-0.976684 0.65112,-1.472778 0.6563,-0.496094 1.95337,-0.496094 h 1.33326 v -0.09302 q 0,-0.65629 -0.43409,-1.012858 -0.42891,-0.361735 -1.20922,-0.361735 -0.4961,0 -0.96635,0.118856 -0.47026,0.118856 -0.90434,0.356568 v -0.8785 q 0.52193,-0.201538 1.01286,-0.299723 0.49092,-0.103353 0.95601,-0.103353 1.25574,0 1.87585,0.651123 0.62012,0.651123 0.62012,1.97404 z"
           style="stroke-width:0.07000434"
           id="path908" />
        <path
           d="m 190.06596,-21.326916 v 3.493327 h -0.95085 v -3.462321 q 0,-0.821655 -0.32039,-1.229899 -0.32039,-0.408244 -0.96118,-0.408244 -0.76998,0 -1.2144,0.490926 -0.44441,0.490926 -0.44441,1.33842 v 3.271118 h -0.95602 v -5.787761 h 0.95602 v 0.89917 q 0.34106,-0.521932 0.80098,-0.780314 0.46509,-0.258382 1.0697,-0.258382 0.99736,0 1.50895,0.620117 0.5116,0.61495 0.5116,1.813843 z"
           style="stroke-width:0.07000434"
           id="path910" />
        <path
           d="m 195.78137,-22.74285 v -3.131592 h 0.95085 v 8.040853 h -0.95085 v -0.868164 q -0.29972,0.516764 -0.75964,0.769978 -0.45475,0.248047 -1.09554,0.248047 -1.04903,0 -1.71049,-0.837158 -0.65629,-0.837158 -0.65629,-2.201416 0,-1.364258 0.65629,-2.201416 0.66146,-0.837158 1.71049,-0.837158 0.64079,0 1.09554,0.253215 0.45992,0.248046 0.75964,0.764811 z m -3.24011,2.020548 q 0,1.049032 0.42891,1.648478 0.43409,0.594279 1.18856,0.594279 0.75448,0 1.18856,-0.594279 0.43408,-0.599446 0.43408,-1.648478 0,-1.049031 -0.43408,-1.64331 -0.43408,-0.599447 -1.18856,-0.599447 -0.75447,0 -1.18856,0.599447 -0.42891,0.594279 -0.42891,1.64331 z"
           style="stroke-width:0.07000434"
           id="path912" />
        <path
           d="m 201.37793,-23.62135 h 1.00769 l 1.80868,4.857585 1.80867,-4.857585 h 1.00769 l -2.17041,5.787761 h -1.29191 z"
           style="stroke-width:0.07000434"
           id="path914" />
        <path
           d="m 213.27385,-20.965181 v 0.465088 h -4.37183 q 0.062,0.981852 0.58911,1.498616 0.53227,0.511597 1.47795,0.511597 0.54777,0 1.05936,-0.134359 0.51677,-0.134358 1.0232,-0.403076 v 0.89917 q -0.5116,0.217041 -1.04903,0.330729 -0.53744,0.113688 -1.09038,0.113688 -1.38492,0 -2.19624,-0.806152 -0.80616,-0.806152 -0.80616,-2.180745 0,-1.421102 0.76481,-2.253093 0.76998,-0.837158 2.07223,-0.837158 1.16789,0 1.84485,0.754476 0.68213,0.749308 0.68213,2.041219 z m -0.95085,-0.279053 q -0.0103,-0.780314 -0.43925,-1.245402 -0.42375,-0.465088 -1.12655,-0.465088 -0.79581,0 -1.2764,0.449585 -0.47543,0.449585 -0.54777,1.266073 z"
           style="stroke-width:0.07000434"
           id="path916" />
        <path
           d="m 218.64303,-20.794649 q 0,-1.033528 -0.42892,-1.601969 -0.42374,-0.568441 -1.19372,-0.568441 -0.76481,0 -1.19373,0.568441 -0.42374,0.568441 -0.42374,1.601969 0,1.028361 0.42374,1.596802 0.42892,0.568441 1.19373,0.568441 0.76998,0 1.19372,-0.568441 0.42892,-0.568441 0.42892,-1.596802 z m 0.95084,2.242757 q 0,1.477946 -0.65629,2.196249 -0.65629,0.72347 -2.01021,0.72347 -0.50126,0 -0.94568,-0.07752 -0.44442,-0.07235 -0.86299,-0.227376 v -0.925008 q 0.41857,0.227376 0.82682,0.335896 0.40824,0.108521 0.83199,0.108521 0.93534,0 1.40043,-0.490926 0.46509,-0.485759 0.46509,-1.472778 v -0.470256 q -0.29456,0.511597 -0.75448,0.764811 -0.45992,0.253215 -1.10071,0.253215 -1.06453,0 -1.71565,-0.81132 -0.65113,-0.81132 -0.65113,-2.14974 0,-1.343587 0.65113,-2.154907 0.65112,-0.81132 1.71565,-0.81132 0.64079,0 1.10071,0.253215 0.45992,0.253214 0.75448,0.764811 v -0.8785 h 0.95084 z"
           style="stroke-width:0.07000434"
           id="path918" />
        <path
           d="m 226.50301,-20.965181 v 0.465088 h -4.37183 q 0.062,0.981852 0.58912,1.498616 0.53226,0.511597 1.47794,0.511597 0.54777,0 1.05937,-0.134359 0.51676,-0.134358 1.02319,-0.403076 v 0.89917 q -0.51159,0.217041 -1.04903,0.330729 -0.53743,0.113688 -1.09037,0.113688 -1.38493,0 -2.19625,-0.806152 -0.80615,-0.806152 -0.80615,-2.180745 0,-1.421102 0.76481,-2.253093 0.76998,-0.837158 2.07222,-0.837158 1.16789,0 1.84485,0.754476 0.68213,0.749308 0.68213,2.041219 z m -0.95085,-0.279053 q -0.0103,-0.780314 -0.43925,-1.245402 -0.42374,-0.465088 -1.12654,-0.465088 -0.79582,0 -1.27641,0.449585 -0.47542,0.449585 -0.54777,1.266073 z"
           style="stroke-width:0.07000434"
           id="path920" />
        <path
           d="m 229.00415,-25.26466 v 1.64331 h 1.95854 v 0.738973 h -1.95854 v 3.141927 q 0,0.707967 0.1912,0.909506 0.19637,0.201538 0.79065,0.201538 h 0.97669 v 0.795817 H 229.986 q -1.10071,0 -1.51928,-0.408244 -0.41858,-0.413412 -0.41858,-1.498617 v -3.141927 h -0.69764 v -0.738973 h 0.69764 v -1.64331 z"
           style="stroke-width:0.07000434"
           id="path922" />
        <path
           d="m 234.84875,-20.742972 q -1.15238,0 -1.5968,0.263549 -0.44441,0.26355 -0.44441,0.89917 0,0.506429 0.33072,0.806153 0.3359,0.294555 0.90951,0.294555 0.79065,0 1.26607,-0.558105 0.48059,-0.563273 0.48059,-1.493449 v -0.211873 z m 1.89653,-0.392741 v 3.302124 h -0.95085 v -0.8785 q -0.32556,0.5271 -0.81132,0.780314 -0.48575,0.248047 -1.18855,0.248047 -0.88884,0 -1.41594,-0.496093 -0.52193,-0.501262 -0.52193,-1.33842 0,-0.976684 0.65112,-1.472778 0.65629,-0.496094 1.95337,-0.496094 h 1.33325 v -0.09302 q 0,-0.65629 -0.43408,-1.012858 -0.42891,-0.361735 -1.20923,-0.361735 -0.49609,0 -0.96635,0.118856 -0.47025,0.118856 -0.90433,0.356568 v -0.8785 q 0.52193,-0.201538 1.01285,-0.299723 0.49093,-0.103353 0.95602,-0.103353 1.25574,0 1.87585,0.651123 0.62012,0.651123 0.62012,1.97404 z"
           style="stroke-width:0.07000434"
           id="path924" />
        <path
           d="m 242.86377,-20.722302 q 0,-1.049031 -0.43408,-1.64331 -0.42891,-0.599447 -1.18339,-0.599447 -0.75448,0 -1.18856,0.599447 -0.42891,0.594279 -0.42891,1.64331 0,1.049032 0.42891,1.648478 0.43408,0.594279 1.18856,0.594279 0.75448,0 1.18339,-0.594279 0.43408,-0.599446 0.43408,-1.648478 z m -3.23494,-2.020548 q 0.29972,-0.516765 0.75447,-0.764811 0.45992,-0.253215 1.09554,-0.253215 1.0542,0 1.71049,0.837158 0.66146,0.837158 0.66146,2.201416 0,1.364258 -0.66146,2.201416 -0.65629,0.837158 -1.71049,0.837158 -0.63562,0 -1.09554,-0.248047 -0.45475,-0.253214 -0.75447,-0.769978 v 0.868164 h -0.95602 v -8.040853 h 0.95602 z"
           style="stroke-width:0.07000434"
           id="path926" />
        <path
           d="m 245.42692,-25.874442 h 0.95085 v 8.040853 h -0.95085 z"
           style="stroke-width:0.07000434"
           id="path928" />
        <path
           d="m 253.31275,-20.965181 v 0.465088 h -4.37183 q 0.062,0.981852 0.58911,1.498616 0.53227,0.511597 1.47795,0.511597 0.54777,0 1.05937,-0.134359 0.51676,-0.134358 1.02319,-0.403076 v 0.89917 q -0.5116,0.217041 -1.04903,0.330729 -0.53744,0.113688 -1.09037,0.113688 -1.38493,0 -2.19625,-0.806152 -0.80615,-0.806152 -0.80615,-2.180745 0,-1.421102 0.76481,-2.253093 0.76998,-0.837158 2.07222,-0.837158 1.16789,0 1.84485,0.754476 0.68213,0.749308 0.68213,2.041219 z m -0.95085,-0.279053 q -0.0103,-0.780314 -0.43925,-1.245402 -0.42374,-0.465088 -1.12654,-0.465088 -0.79582,0 -1.27641,0.449585 -0.47542,0.449585 -0.54777,1.266073 z"
           style="stroke-width:0.07000434"
           id="path930" />
        <path
           d="m 258.56307,-23.450817 v 0.89917 q -0.40307,-0.206706 -0.83715,-0.310059 -0.43409,-0.103353 -0.89917,-0.103353 -0.70797,0 -1.06454,0.217041 -0.3514,0.217041 -0.3514,0.651123 0,0.330729 0.25322,0.521932 0.25321,0.186035 1.01802,0.356567 l 0.32556,0.07235 q 1.01286,0.217041 1.43661,0.61495 0.42891,0.392741 0.42891,1.100708 0,0.806152 -0.64078,1.276408 -0.63562,0.470255 -1.75184,0.470255 -0.46508,0 -0.97151,-0.09302 -0.50126,-0.08785 -1.05937,-0.268718 v -0.981852 q 0.5271,0.273885 1.0387,0.413412 0.51159,0.134358 1.01286,0.134358 0.67179,0 1.03352,-0.227376 0.36174,-0.232544 0.36174,-0.651123 0,-0.387573 -0.26355,-0.594279 -0.25838,-0.206706 -1.14205,-0.397908 l -0.33073,-0.07751 q -0.88367,-0.186035 -1.27641,-0.568441 -0.39274,-0.387573 -0.39274,-1.059367 0,-0.816487 0.57878,-1.260905 0.57877,-0.444417 1.64331,-0.444417 0.5271,0 0.99219,0.07751 0.46508,0.07751 0.85782,0.232544 z"
           style="stroke-width:0.07000434"
           id="path932" />
        <path
           d="m 260.52678,-19.146171 h 1.09037 v 1.312582 h -1.09037 z"
           style="stroke-width:0.07000434"
           id="path934" />
        <path
           d="m 267.05351,-25.54888 h 1.04903 v 4.687052 q 0,1.240234 0.44958,1.788004 0.44959,0.542603 1.45728,0.542603 1.00252,0 1.45211,-0.542603 0.44958,-0.54777 0.44958,-1.788004 v -4.687052 h 1.04903 v 4.816243 q 0,1.508952 -0.7493,2.278931 -0.74415,0.769978 -2.20142,0.769978 -1.46244,0 -2.21175,-0.769978 -0.74414,-0.769979 -0.74414,-2.278931 z"
           style="stroke-width:0.07000434"
           id="path936" />
        <path
           d="m 279.69356,-21.326916 v 3.493327 h -0.95084 v -3.462321 q 0,-0.821655 -0.3204,-1.229899 -0.32039,-0.408244 -0.96118,-0.408244 -0.76998,0 -1.2144,0.490926 -0.44441,0.490926 -0.44441,1.33842 v 3.271118 h -0.95602 v -5.787761 h 0.95602 v 0.89917 q 0.34106,-0.521932 0.80098,-0.780314 0.46509,-0.258382 1.0697,-0.258382 0.99736,0 1.50896,0.620117 0.51159,0.61495 0.51159,1.813843 z"
           style="stroke-width:0.07000434"
           id="path938" />
        <path
           d="m 284.53048,-25.874442 v 0.790649 h -0.9095 q -0.5116,0 -0.71314,0.206706 -0.19637,0.206706 -0.19637,0.744141 v 0.511596 h 1.5658 v 0.738973 h -1.5658 v 5.048788 h -0.95601 v -5.048788 h -0.90951 v -0.738973 h 0.90951 v -0.403076 q 0,-0.966349 0.44958,-1.405599 0.44959,-0.444417 1.42627,-0.444417 z"
           style="stroke-width:0.07000434"
           id="path940" />
        <path
           d="m 287.56389,-22.954724 q -0.76481,0 -1.20923,0.599447 -0.44442,0.594279 -0.44442,1.632975 0,1.038696 0.43925,1.638143 0.44442,0.594279 1.2144,0.594279 0.75964,0 1.20406,-0.599447 0.44442,-0.599446 0.44442,-1.632975 0,-1.028361 -0.44442,-1.627807 -0.44442,-0.604615 -1.20406,-0.604615 z m 0,-0.806152 q 1.24023,0 1.9482,0.806152 0.70797,0.806153 0.70797,2.232422 0,1.421102 -0.70797,2.232422 -0.70797,0.806152 -1.9482,0.806152 -1.2454,0 -1.95337,-0.806152 -0.7028,-0.81132 -0.7028,-2.232422 0,-1.426269 0.7028,-2.232422 0.70797,-0.806152 1.95337,-0.806152 z"
           style="stroke-width:0.07000434"
           id="path942" />
        <path
           d="m 295.14481,-22.732515 q -0.1602,-0.09302 -0.3514,-0.134359 -0.18603,-0.04651 -0.41341,-0.04651 -0.80615,0 -1.24023,0.527099 -0.42892,0.521932 -0.42892,1.503784 v 3.04891 h -0.95601 v -5.787761 h 0.95601 v 0.89917 q 0.29972,-0.527099 0.78032,-0.780314 0.48059,-0.258382 1.16788,-0.258382 0.0982,0 0.21704,0.0155 0.11886,0.01034 0.26355,0.03617 z"
           style="stroke-width:0.07000434"
           id="path944" />
        <path
           d="m 297.09302,-25.26466 v 1.64331 h 1.95853 v 0.738973 h -1.95853 v 3.141927 q 0,0.707967 0.1912,0.909506 0.19637,0.201538 0.79065,0.201538 h 0.97668 v 0.795817 h -0.97668 q -1.10071,0 -1.51929,-0.408244 -0.41858,-0.413412 -0.41858,-1.498617 v -3.141927 h -0.69763 v -0.738973 h 0.69763 v -1.64331 z"
           style="stroke-width:0.07000434"
           id="path946" />
        <path
           d="m 300.20911,-20.117688 v -3.503662 h 0.95084 v 3.467489 q 0,0.821655 0.3204,1.235067 0.32039,0.408243 0.96118,0.408243 0.76998,0 1.21439,-0.490926 0.44959,-0.490926 0.44959,-1.338419 v -3.281454 h 0.95085 v 5.787761 h -0.95085 v -0.888835 q -0.34623,0.5271 -0.80615,0.785482 -0.45476,0.253214 -1.05937,0.253214 -0.99735,0 -1.51412,-0.620117 -0.51676,-0.620117 -0.51676,-1.813843 z m 2.39262,-3.643188 z"
           style="stroke-width:0.07000434"
           id="path948" />
        <path
           d="m 311.83631,-21.326916 v 3.493327 h -0.95085 v -3.462321 q 0,-0.821655 -0.32039,-1.229899 -0.3204,-0.408244 -0.96118,-0.408244 -0.76998,0 -1.2144,0.490926 -0.44442,0.490926 -0.44442,1.33842 v 3.271118 h -0.95601 v -5.787761 h 0.95601 v 0.89917 q 0.34107,-0.521932 0.80099,-0.780314 0.46509,-0.258382 1.0697,-0.258382 0.99736,0 1.50895,0.620117 0.5116,0.61495 0.5116,1.813843 z"
           style="stroke-width:0.07000434"
           id="path950" />
        <path
           d="m 316.37349,-20.742972 q -1.15239,0 -1.5968,0.263549 -0.44442,0.26355 -0.44442,0.89917 0,0.506429 0.33073,0.806153 0.3359,0.294555 0.9095,0.294555 0.79065,0 1.26608,-0.558105 0.48059,-0.563273 0.48059,-1.493449 v -0.211873 z m 1.89652,-0.392741 v 3.302124 h -0.95084 v -0.8785 q -0.32556,0.5271 -0.81132,0.780314 -0.48576,0.248047 -1.18856,0.248047 -0.88883,0 -1.41593,-0.496093 -0.52194,-0.501262 -0.52194,-1.33842 0,-0.976684 0.65113,-1.472778 0.65629,-0.496094 1.95337,-0.496094 h 1.33325 v -0.09302 q 0,-0.65629 -0.43408,-1.012858 -0.42892,-0.361735 -1.20923,-0.361735 -0.4961,0 -0.96635,0.118856 -0.47026,0.118856 -0.90434,0.356568 v -0.8785 q 0.52193,-0.201538 1.01286,-0.299723 0.49092,-0.103353 0.95601,-0.103353 1.25574,0 1.87586,0.651123 0.62011,0.651123 0.62011,1.97404 z"
           style="stroke-width:0.07000434"
           id="path952" />
        <path
           d="m 321.17424,-25.26466 v 1.64331 h 1.95854 v 0.738973 h -1.95854 v 3.141927 q 0,0.707967 0.1912,0.909506 0.19637,0.201538 0.79065,0.201538 h 0.97669 v 0.795817 h -0.97669 q -1.10071,0 -1.51928,-0.408244 -0.41858,-0.413412 -0.41858,-1.498617 v -3.141927 h -0.69764 v -0.738973 h 0.69764 v -1.64331 z"
           style="stroke-width:0.07000434"
           id="path954" />
        <path
           d="m 329.33912,-20.965181 v 0.465088 h -4.37183 q 0.062,0.981852 0.58911,1.498616 0.53227,0.511597 1.47795,0.511597 0.54777,0 1.05936,-0.134359 0.51677,-0.134358 1.0232,-0.403076 v 0.89917 q -0.5116,0.217041 -1.04903,0.330729 -0.53744,0.113688 -1.09038,0.113688 -1.38492,0 -2.19624,-0.806152 -0.80616,-0.806152 -0.80616,-2.180745 0,-1.421102 0.76481,-2.253093 0.76998,-0.837158 2.07223,-0.837158 1.16789,0 1.84485,0.754476 0.68213,0.749308 0.68213,2.041219 z m -0.95085,-0.279053 q -0.0103,-0.780314 -0.43925,-1.245402 -0.42375,-0.465088 -1.12655,-0.465088 -0.79581,0 -1.2764,0.449585 -0.47543,0.449585 -0.54777,1.266073 z"
           style="stroke-width:0.07000434"
           id="path956" />
        <path
           d="m 330.89974,-25.874442 h 0.95085 v 8.040853 h -0.95085 z"
           style="stroke-width:0.07000434"
           id="path958" />
        <path
           d="m 336.24308,-17.296154 q -0.40308,1.033528 -0.78548,1.348754 -0.38241,0.315227 -1.0232,0.315227 h -0.75964 v -0.795817 h 0.5581 q 0.39275,0 0.60979,-0.186036 0.21704,-0.186035 0.48059,-0.878499 l 0.17053,-0.434082 -2.34094,-5.694743 h 1.00769 l 1.80867,4.526856 1.80868,-4.526856 h 1.00769 z"
           style="stroke-width:0.07000434"
           id="path960" />
        <path
           d="m 340.34102,-19.146171 h 1.09037 v 0.888835 l -0.84749,1.653646 h -0.66663 l 0.42375,-1.653646 z"
           style="stroke-width:0.07000434"
           id="path962" />
        <path
           d="m 346.28382,-23.62135 h 0.95084 l 1.18856,4.51652 1.18339,-4.51652 h 1.12138 l 1.18856,4.51652 1.18339,-4.51652 h 0.95085 l -1.51412,5.787761 h -1.12138 l -1.2454,-4.743897 -1.25057,4.743897 h -1.12138 z"
           style="stroke-width:0.07000434"
           id="path964" />
        <path
           d="m 360.44832,-20.965181 v 0.465088 h -4.37182 q 0.062,0.981852 0.58911,1.498616 0.53227,0.511597 1.47794,0.511597 0.54777,0 1.05937,-0.134359 0.51677,-0.134358 1.02319,-0.403076 v 0.89917 q -0.51159,0.217041 -1.04903,0.330729 -0.53743,0.113688 -1.09037,0.113688 -1.38493,0 -2.19625,-0.806152 -0.80615,-0.806152 -0.80615,-2.180745 0,-1.421102 0.76481,-2.253093 0.76998,-0.837158 2.07223,-0.837158 1.16788,0 1.84484,0.754476 0.68213,0.749308 0.68213,2.041219 z m -0.95084,-0.279053 q -0.0103,-0.780314 -0.43925,-1.245402 -0.42375,-0.465088 -1.12655,-0.465088 -0.79582,0 -1.27641,0.449585 -0.47542,0.449585 -0.54777,1.266073 z"
           style="stroke-width:0.07000434"
           id="path966" />
        <path
           d="m 129.69756,-7.5138061 q -1.15239,0 -1.59681,0.2635498 -0.44441,0.2635498 -0.44441,0.8991699 0,0.506429 0.33073,0.8061523 0.33589,0.2945557 0.9095,0.2945557 0.79065,0 1.26607,-0.5581055 0.48059,-0.5632731 0.48059,-1.4934488 v -0.2118734 z m 1.89652,-0.3927409 v 3.302124 h -0.95085 v -0.8784994 q -0.32556,0.5270996 -0.81132,0.7803141 -0.48575,0.2480469 -1.18855,0.2480469 -0.88884,0 -1.41594,-0.4960937 -0.52193,-0.5012614 -0.52193,-1.3384196 0,-0.9766845 0.65112,-1.4727783 0.65629,-0.4960937 1.95337,-0.4960937 h 1.33325 v -0.093018 q 0,-0.6562906 -0.43408,-1.012858 -0.42891,-0.361735 -1.20923,-0.361735 -0.49609,0 -0.96635,0.1188558 -0.47025,0.1188557 -0.90433,0.3565673 v -0.8784988 q 0.52193,-0.201539 1.01285,-0.299724 0.49093,-0.103353 0.95602,-0.103353 1.25574,0 1.87585,0.6511234 0.62012,0.651123 0.62012,1.9740396 z"
           style="stroke-width:0.07000434"
           id="path968" />
        <path
           d="m 137.72291,-10.169975 v 0.888835 q -0.40308,-0.2222087 -0.81132,-0.3307292 -0.40308,-0.1136881 -0.81649,-0.1136881 -0.92501,0 -1.43661,0.5891113 -0.51159,0.5839436 -0.51159,1.6433105 0,1.0593668 0.51159,1.6484781 0.5116,0.5839437 1.43661,0.5839437 0.41341,0 0.81649,-0.1085205 0.40824,-0.1136882 0.81132,-0.3358968 v 0.8784993 q -0.39791,0.1860352 -0.82683,0.2790527 -0.42374,0.093018 -0.90434,0.093018 -1.30741,0 -2.07739,-0.8216552 -0.76998,-0.8216553 -0.76998,-2.2169189 0,-1.4159342 0.77515,-2.2272542 0.78031,-0.8113203 2.13424,-0.8113203 0.43925,0 0.85783,0.09302 0.41857,0.08785 0.81132,0.268717 z"
           style="stroke-width:0.07000434"
           id="path970" />
        <path
           d="m 143.55201,-10.169975 v 0.888835 q -0.40308,-0.2222087 -0.81132,-0.3307292 -0.40308,-0.1136881 -0.81649,-0.1136881 -0.92501,0 -1.43661,0.5891113 -0.51159,0.5839436 -0.51159,1.6433105 0,1.0593668 0.51159,1.6484781 0.5116,0.5839437 1.43661,0.5839437 0.41341,0 0.81649,-0.1085205 0.40824,-0.1136882 0.81132,-0.3358968 v 0.8784993 q -0.39791,0.1860352 -0.82683,0.2790527 -0.42374,0.093018 -0.90433,0.093018 -1.30742,0 -2.0774,-0.8216552 -0.76998,-0.8216553 -0.76998,-2.2169189 0,-1.4159342 0.77515,-2.2272542 0.78032,-0.8113203 2.13424,-0.8113203 0.43925,0 0.85783,0.09302 0.41858,0.08785 0.81132,0.268717 z"
           style="stroke-width:0.07000434"
           id="path972" />
        <path
           d="m 145.21599,-10.392183 h 0.95084 v 5.78776 h -0.95084 z m 0,-2.253093 h 0.95084 v 1.204061 h -0.95084 z"
           style="stroke-width:0.07000434"
           id="path974" />
        <path
           d="m 151.95976,-9.513684 v -3.131592 h 0.95085 v 8.040853 h -0.95085 v -0.8681641 q -0.29972,0.5167643 -0.75964,0.7699788 -0.45475,0.2480469 -1.09554,0.2480469 -1.04903,0 -1.71049,-0.8371582 -0.65629,-0.8371582 -0.65629,-2.2014159 0,-1.3642578 0.65629,-2.201416 0.66146,-0.8371585 1.71049,-0.8371585 0.64079,0 1.09554,0.253215 0.45992,0.248047 0.75964,0.764811 z m -3.24011,2.0205485 q 0,1.0490315 0.42891,1.6484781 0.43409,0.594279 1.18856,0.594279 0.75448,0 1.18856,-0.594279 0.43408,-0.5994466 0.43408,-1.6484781 0,-1.0490316 -0.43408,-1.6433105 -0.43408,-0.5994466 -1.18856,-0.5994466 -0.75447,0 -1.18856,0.5994466 -0.42891,0.5942789 -0.42891,1.6433105 z"
           style="stroke-width:0.07000434"
           id="path976" />
        <path
           d="m 159.81975,-7.7360147 v 0.4650878 h -4.37183 q 0.062,0.9818522 0.58911,1.4986165 0.53227,0.5115967 1.47795,0.5115967 0.54777,0 1.05937,-0.1343587 0.51676,-0.1343588 1.02319,-0.4030762 v 0.8991699 q -0.5116,0.217041 -1.04903,0.3307292 -0.53744,0.1136881 -1.09038,0.1136881 -1.38492,0 -2.19624,-0.8061523 -0.80616,-0.8061523 -0.80616,-2.1807454 0,-1.4211018 0.76481,-2.2530924 0.76998,-0.8371585 2.07223,-0.8371585 1.16789,0 1.84485,0.7544762 0.68213,0.7493083 0.68213,2.0412191 z m -0.95085,-0.2790528 q -0.0103,-0.7803141 -0.43925,-1.245402 -0.42375,-0.4650878 -1.12655,-0.4650878 -0.79581,0 -1.2764,0.4495849 -0.47543,0.449585 -0.54777,1.2660726 z"
           style="stroke-width:0.07000434"
           id="path978" />
        <path
           d="m 166.19145,-8.0977498 v 3.4933268 h -0.95085 v -3.4623209 q 0,-0.8216553 -0.32039,-1.2298991 -0.32039,-0.4082438 -0.96118,-0.4082438 -0.76998,0 -1.2144,0.4909261 -0.44442,0.4909261 -0.44442,1.3384196 v 3.2711181 h -0.95601 v -5.78776 h 0.95601 v 0.8991696 q 0.34107,-0.5219316 0.80099,-0.7803136 0.46509,-0.258383 1.0697,-0.258383 0.99736,0 1.50895,0.6201175 0.5116,0.6149495 0.5116,1.8138427 z"
           style="stroke-width:0.07000434"
           id="path980" />
        <path
           d="m 169.03882,-12.035494 v 1.643311 h 1.95854 v 0.7389727 h -1.95854 v 3.141927 q 0,0.7079671 0.1912,0.9095051 0.19638,0.2015381 0.79065,0.2015381 h 0.97669 v 0.7958171 h -0.97669 q -1.1007,0 -1.51928,-0.4082438 -0.41858,-0.4134115 -0.41858,-1.4986165 v -3.141927 h -0.69763 v -0.7389727 h 0.69763 v -1.643311 z"
           style="stroke-width:0.07000434"
           id="path982" />
        <path
           d="m 174.88343,-7.5138061 q -1.15239,0 -1.59681,0.2635498 -0.44441,0.2635498 -0.44441,0.8991699 0,0.506429 0.33073,0.8061523 0.33589,0.2945557 0.9095,0.2945557 0.79065,0 1.26607,-0.5581055 0.4806,-0.5632731 0.4806,-1.4934488 v -0.2118734 z m 1.89652,-0.3927409 v 3.302124 h -0.95084 v -0.8784994 q -0.32557,0.5270996 -0.81132,0.7803141 -0.48576,0.2480469 -1.18856,0.2480469 -0.88884,0 -1.41594,-0.4960937 -0.52193,-0.5012614 -0.52193,-1.3384196 0,-0.9766845 0.65112,-1.4727783 0.65629,-0.4960937 1.95337,-0.4960937 h 1.33326 v -0.093018 q 0,-0.6562906 -0.43409,-1.012858 -0.42891,-0.361735 -1.20923,-0.361735 -0.49609,0 -0.96634,0.1188558 -0.47026,0.1188557 -0.90434,0.3565673 v -0.8784988 q 0.52193,-0.201539 1.01286,-0.299724 0.49092,-0.103353 0.95601,-0.103353 1.25574,0 1.87585,0.6511234 0.62012,0.651123 0.62012,1.9740396 z"
           style="stroke-width:0.07000434"
           id="path984" />
        <path
           d="m 178.74365,-12.645276 h 0.95085 v 8.040853 h -0.95085 z"
           style="stroke-width:0.07000434"
           id="path986" />
        <path
           d="m 181.67888,-12.645276 h 0.95084 v 8.040853 h -0.95084 z"
           style="stroke-width:0.07000434"
           id="path988" />
        <path
           d="m 187.02222,-4.0669882 q -0.40307,1.0335286 -0.78548,1.3487549 -0.38241,0.3152262 -1.02319,0.3152262 h -0.75965 v -0.795817 h 0.55811 q 0.39274,0 0.60978,-0.1860352 0.21704,-0.1860351 0.48059,-0.8784993 l 0.17053,-0.434082 -2.34094,-5.6947424 h 1.00769 l 1.80868,4.526855 1.80867,-4.526855 h 1.00769 z"
           style="stroke-width:0.07000434"
           id="path990" />
        <path
           d="m 198.75277,-9.28114 q 0.35657,-0.6407878 0.85266,-0.945679 0.49609,-0.304891 1.16789,-0.304891 0.90434,0 1.39526,0.6356204 0.49093,0.6304525 0.49093,1.7983398 v 3.4933268 h -0.95602 v -3.4623209 q 0,-0.8319905 -0.29455,-1.2350667 -0.29456,-0.4030762 -0.89917,-0.4030762 -0.73898,0 -1.16789,0.4909261 -0.42891,0.4909261 -0.42891,1.3384196 v 3.2711181 h -0.95602 v -3.4623209 q 0,-0.8371582 -0.29455,-1.2350667 -0.29456,-0.4030762 -0.90951,-0.4030762 -0.72864,0 -1.15755,0.4960938 -0.42891,0.4909261 -0.42891,1.3332519 v 3.2711181 h -0.95602 v -5.78776 h 0.95602 v 0.8991696 q 0.32556,-0.5322676 0.78031,-0.7854816 0.45475,-0.253215 1.08004,-0.253215 0.63045,0 1.0697,0.320394 0.44442,0.3203941 0.65629,0.930176 z"
           style="stroke-width:0.07000434"
           id="path992" />
        <path
           d="m 209.5118,-7.7360147 v 0.4650878 h -4.37183 q 0.062,0.9818522 0.58912,1.4986165 0.53226,0.5115967 1.47794,0.5115967 0.54777,0 1.05937,-0.1343587 0.51676,-0.1343588 1.02319,-0.4030762 v 0.8991699 q -0.5116,0.217041 -1.04903,0.3307292 -0.53744,0.1136881 -1.09037,0.1136881 -1.38493,0 -2.19625,-0.8061523 -0.80615,-0.8061523 -0.80615,-2.1807454 0,-1.4211018 0.76481,-2.2530924 0.76998,-0.8371585 2.07222,-0.8371585 1.16789,0 1.84485,0.7544762 0.68213,0.7493083 0.68213,2.0412191 z m -0.95085,-0.2790528 q -0.0103,-0.7803141 -0.43925,-1.245402 -0.42374,-0.4650878 -1.12654,-0.4650878 -0.79582,0 -1.27641,0.4495849 -0.47542,0.449585 -0.54777,1.2660726 z"
           style="stroke-width:0.07000434"
           id="path994" />
        <path
           d="m 214.76213,-10.221651 v 0.8991698 q -0.40308,-0.2067057 -0.83716,-0.3100586 -0.43408,-0.1033528 -0.89917,-0.1033528 -0.70797,0 -1.06454,0.217041 -0.3514,0.217041 -0.3514,0.651123 0,0.3307292 0.25322,0.521932 0.25321,0.1860351 1.01802,0.3565673 l 0.32556,0.072347 q 1.01286,0.2170411 1.43661,0.6149496 0.42891,0.3927408 0.42891,1.1007079 0,0.8061524 -0.64078,1.2764079 -0.63562,0.4702555 -1.75183,0.4702555 -0.46509,0 -0.97152,-0.093018 -0.50126,-0.08785 -1.05937,-0.2687174 v -0.9818522 q 0.5271,0.2738851 1.0387,0.4134114 0.51159,0.1343588 1.01286,0.1343588 0.67179,0 1.03352,-0.2273763 0.36174,-0.232544 0.36174,-0.6511231 0,-0.3875732 -0.26355,-0.5942789 -0.25838,-0.2067057 -1.14205,-0.3979085 l -0.33073,-0.077515 q -0.88367,-0.1860351 -1.27641,-0.5684407 -0.39274,-0.3875732 -0.39274,-1.0593668 0,-0.8164876 0.57878,-1.2609046 0.57877,-0.444418 1.64331,-0.444418 0.5271,0 0.99219,0.07752 0.46508,0.07752 0.85783,0.232544 z"
           style="stroke-width:0.07000434"
           id="path996" />
        <path
           d="m 220.28117,-10.221651 v 0.8991698 q -0.40308,-0.2067057 -0.83716,-0.3100586 -0.43408,-0.1033528 -0.89917,-0.1033528 -0.70797,0 -1.06453,0.217041 -0.3514,0.217041 -0.3514,0.651123 0,0.3307292 0.25321,0.521932 0.25322,0.1860351 1.01803,0.3565673 l 0.32556,0.072347 q 1.01286,0.2170411 1.4366,0.6149496 0.42892,0.3927408 0.42892,1.1007079 0,0.8061524 -0.64079,1.2764079 -0.63562,0.4702555 -1.75183,0.4702555 -0.46509,0 -0.97152,-0.093018 -0.50126,-0.08785 -1.05937,-0.2687174 v -0.9818522 q 0.5271,0.2738851 1.0387,0.4134114 0.5116,0.1343588 1.01286,0.1343588 0.67179,0 1.03353,-0.2273763 0.36173,-0.232544 0.36173,-0.6511231 0,-0.3875732 -0.26355,-0.5942789 -0.25838,-0.2067057 -1.14205,-0.3979085 l -0.33073,-0.077515 q -0.88366,-0.1860351 -1.2764,-0.5684407 -0.39274,-0.3875732 -0.39274,-1.0593668 0,-0.8164876 0.57877,-1.2609046 0.57878,-0.444418 1.64331,-0.444418 0.5271,0 0.99219,0.07752 0.46509,0.07752 0.85783,0.232544 z"
           style="stroke-width:0.07000434"
           id="path998" />
        <path
           d="m 227.06112,-7.7360147 v 0.4650878 h -4.37183 q 0.062,0.9818522 0.58911,1.4986165 0.53227,0.5115967 1.47795,0.5115967 0.54777,0 1.05936,-0.1343587 0.51677,-0.1343588 1.0232,-0.4030762 v 0.8991699 q -0.5116,0.217041 -1.04903,0.3307292 -0.53744,0.1136881 -1.09038,0.1136881 -1.38492,0 -2.19624,-0.8061523 -0.80616,-0.8061523 -0.80616,-2.1807454 0,-1.4211018 0.76481,-2.2530924 0.76998,-0.8371585 2.07223,-0.8371585 1.16789,0 1.84485,0.7544762 0.68213,0.7493083 0.68213,2.0412191 z m -0.95085,-0.2790528 q -0.0103,-0.7803141 -0.43925,-1.245402 -0.42375,-0.4650878 -1.12655,-0.4650878 -0.79581,0 -1.2764,0.4495849 -0.47543,0.449585 -0.54777,1.2660726 z"
           style="stroke-width:0.07000434"
           id="path1000" />
        <path
           d="m 232.4303,-9.513684 v -3.131592 h 0.95084 v 8.040853 h -0.95084 v -0.8681641 q -0.29973,0.5167643 -0.75965,0.7699788 -0.45475,0.2480469 -1.09554,0.2480469 -1.04903,0 -1.71049,-0.8371582 -0.65629,-0.8371582 -0.65629,-2.2014159 0,-1.3642578 0.65629,-2.201416 0.66146,-0.8371585 1.71049,-0.8371585 0.64079,0 1.09554,0.253215 0.45992,0.248047 0.75965,0.764811 z m -3.24011,2.0205485 q 0,1.0490315 0.42891,1.6484781 0.43408,0.594279 1.18856,0.594279 0.75447,0 1.18856,-0.594279 0.43408,-0.5994466 0.43408,-1.6484781 0,-1.0490316 -0.43408,-1.6433105 -0.43409,-0.5994466 -1.18856,-0.5994466 -0.75448,0 -1.18856,0.5994466 -0.42891,0.5942789 -0.42891,1.6433105 z"
           style="stroke-width:0.07000434"
           id="path1002" />
        <path
           d="m 238.6108,-6.8885213 v -3.5036617 h 0.95085 v 3.4674882 q 0,0.8216553 0.32039,1.2350667 0.3204,0.4082438 0.96118,0.4082438 0.76998,0 1.2144,-0.4909261 0.44958,-0.4909261 0.44958,-1.3384195 v -3.2814531 h 0.95085 v 5.78776 h -0.95085 v -0.8888347 q -0.34623,0.5270996 -0.80615,0.7854818 -0.45475,0.2532145 -1.05936,0.2532145 -0.99736,0 -1.51412,-0.6201172 -0.51677,-0.6201171 -0.51677,-1.8138427 z m 2.39262,-3.6431887 z"
           style="stroke-width:0.07000434"
           id="path1004" />
        <path
           d="m 246.34676,-5.4725871 v 3.06958 h -0.95601 v -7.9891759 h 0.95601 v 0.878499 q 0.29972,-0.516764 0.75448,-0.764811 0.45992,-0.253215 1.09554,-0.253215 1.0542,0 1.71049,0.8371585 0.66146,0.8371582 0.66146,2.201416 0,1.3642577 -0.66146,2.2014159 -0.65629,0.8371582 -1.71049,0.8371582 -0.63562,0 -1.09554,-0.2480469 -0.45476,-0.2532145 -0.75448,-0.7699788 z m 3.23495,-2.0205484 q 0,-1.0490316 -0.43409,-1.6433105 -0.42891,-0.5994466 -1.18339,-0.5994466 -0.75447,0 -1.18855,0.5994466 -0.42892,0.5942789 -0.42892,1.6433105 0,1.0490315 0.42892,1.6484781 0.43408,0.594279 1.18855,0.594279 0.75448,0 1.18339,-0.594279 0.43409,-0.5994466 0.43409,-1.6484781 z"
           style="stroke-width:0.07000434"
           id="path1006" />
        <path
           d="m 257.75691,-9.7255573 q -0.76481,0 -1.20923,0.5994466 -0.44441,0.5942789 -0.44441,1.6329752 0,1.0386962 0.43925,1.6381428 0.44441,0.594279 1.21439,0.594279 0.75965,0 1.20406,-0.5994466 0.44442,-0.5994466 0.44442,-1.6329752 0,-1.028361 -0.44442,-1.6278076 -0.44441,-0.6046142 -1.20406,-0.6046142 z m 0,-0.8061527 q 1.24024,0 1.9482,0.8061527 0.70797,0.8061523 0.70797,2.2324218 0,1.4211018 -0.70797,2.2324218 -0.70796,0.8061523 -1.9482,0.8061523 -1.2454,0 -1.95337,-0.8061523 -0.7028,-0.81132 -0.7028,-2.2324218 0,-1.4262695 0.7028,-2.2324218 0.70797,-0.8061527 1.95337,-0.8061527 z"
           style="stroke-width:0.07000434"
           id="path1008" />
        <path
           d="m 261.88586,-6.8885213 v -3.5036617 h 0.95085 v 3.4674882 q 0,0.8216553 0.32039,1.2350667 0.3204,0.4082438 0.96119,0.4082438 0.76997,0 1.21439,-0.4909261 0.44959,-0.4909261 0.44959,-1.3384195 v -3.2814531 h 0.95084 v 5.78776 h -0.95084 v -0.8888347 q -0.34623,0.5270996 -0.80616,0.7854818 -0.45475,0.2532145 -1.05936,0.2532145 -0.99736,0 -1.51412,-0.6201172 -0.51677,-0.6201171 -0.51677,-1.8138427 z m 2.39262,-3.6431887 z"
           style="stroke-width:0.07000434"
           id="path1010" />
        <path
           d="m 272.05579,-9.5033487 q -0.1602,-0.093018 -0.3514,-0.1343587 -0.18603,-0.046509 -0.41341,-0.046509 -0.80615,0 -1.24023,0.5270996 -0.42892,0.521932 -0.42892,1.5037841 v 3.0489095 h -0.95601 v -5.78776 h 0.95601 v 0.8991696 q 0.29972,-0.5270996 0.78032,-0.7803136 0.48059,-0.258383 1.16788,-0.258383 0.0982,0 0.21704,0.0155 0.11886,0.01034 0.26355,0.03617 z"
           style="stroke-width:0.07000434"
           id="path1012" />
        <path
           d="m 280.5979,-10.169975 v 0.888835 q -0.40308,-0.2222087 -0.81132,-0.3307292 -0.40308,-0.1136881 -0.81649,-0.1136881 -0.92501,0 -1.4366,0.5891113 -0.5116,0.5839436 -0.5116,1.6433105 0,1.0593668 0.5116,1.6484781 0.51159,0.5839437 1.4366,0.5839437 0.41341,0 0.81649,-0.1085205 0.40824,-0.1136882 0.81132,-0.3358968 v 0.8784993 q -0.39791,0.1860352 -0.82682,0.2790527 -0.42375,0.093018 -0.90434,0.093018 -1.30741,0 -2.07739,-0.8216552 -0.76998,-0.8216553 -0.76998,-2.2169189 0,-1.4159342 0.77514,-2.2272542 0.78032,-0.8113203 2.13424,-0.8113203 0.43925,0 0.85783,0.09302 0.41858,0.08785 0.81132,0.268717 z"
           style="stroke-width:0.07000434"
           id="path1014" />
        <path
           d="m 282.26188,-12.645276 h 0.95085 v 8.040853 h -0.95085 z"
           style="stroke-width:0.07000434"
           id="path1016" />
        <path
           d="m 285.09892,-6.8885213 v -3.5036617 h 0.95085 v 3.4674882 q 0,0.8216553 0.32039,1.2350667 0.3204,0.4082438 0.96118,0.4082438 0.76998,0 1.2144,-0.4909261 0.44959,-0.4909261 0.44959,-1.3384195 v -3.2814531 h 0.95084 v 5.78776 h -0.95084 v -0.8888347 q -0.34624,0.5270996 -0.80616,0.7854818 -0.45475,0.2532145 -1.05936,0.2532145 -0.99736,0 -1.51412,-0.6201172 -0.51677,-0.6201171 -0.51677,-1.8138427 z m 2.39262,-3.6431887 z"
           style="stroke-width:0.07000434"
           id="path1018" />
        <path
           d="m 296.86564,-7.7360147 v 0.4650878 h -4.37183 q 0.062,0.9818522 0.58911,1.4986165 0.53227,0.5115967 1.47795,0.5115967 0.54777,0 1.05936,-0.1343587 0.51677,-0.1343588 1.0232,-0.4030762 v 0.8991699 q -0.5116,0.217041 -1.04903,0.3307292 -0.53744,0.1136881 -1.09038,0.1136881 -1.38493,0 -2.19625,-0.8061523 -0.80615,-0.8061523 -0.80615,-2.1807454 0,-1.4211018 0.76481,-2.2530924 0.76998,-0.8371585 2.07223,-0.8371585 1.16789,0 1.84485,0.7544762 0.68213,0.7493083 0.68213,2.0412191 z m -0.95085,-0.2790528 q -0.0103,-0.7803141 -0.43925,-1.245402 -0.42375,-0.4650878 -1.12655,-0.4650878 -0.79581,0 -1.2764,0.4495849 -0.47543,0.449585 -0.54777,1.2660726 z"
           style="stroke-width:0.07000434"
           id="path1020" />
        <path
           d="m 302.11596,-10.221651 v 0.8991698 q -0.40307,-0.2067057 -0.83716,-0.3100586 -0.43408,-0.1033528 -0.89917,-0.1033528 -0.70796,0 -1.06453,0.217041 -0.3514,0.217041 -0.3514,0.651123 0,0.3307292 0.25321,0.521932 0.25322,0.1860351 1.01803,0.3565673 l 0.32556,0.072347 q 1.01286,0.2170411 1.43661,0.6149496 0.42891,0.3927408 0.42891,1.1007079 0,0.8061524 -0.64079,1.2764079 -0.63562,0.4702555 -1.75183,0.4702555 -0.46509,0 -0.97152,-0.093018 -0.50126,-0.08785 -1.05936,-0.2687174 v -0.9818522 q 0.5271,0.2738851 1.03869,0.4134114 0.5116,0.1343588 1.01286,0.1343588 0.6718,0 1.03353,-0.2273763 0.36174,-0.232544 0.36174,-0.6511231 0,-0.3875732 -0.26355,-0.5942789 -0.25839,-0.2067057 -1.14205,-0.3979085 l -0.33073,-0.077515 q -0.88367,-0.1860351 -1.27641,-0.5684407 -0.39274,-0.3875732 -0.39274,-1.0593668 0,-0.8164876 0.57877,-1.2609046 0.57878,-0.444418 1.64332,-0.444418 0.52709,0 0.99218,0.07752 0.46509,0.07752 0.85783,0.232544 z"
           style="stroke-width:0.07000434"
           id="path1022" />
        <path
           d="m 308.25513,-12.035494 v 1.643311 h 1.95853 v 0.7389727 h -1.95853 v 3.141927 q 0,0.7079671 0.1912,0.9095051 0.19637,0.2015381 0.79065,0.2015381 h 0.97668 v 0.7958171 h -0.97668 q -1.10071,0 -1.51929,-0.4082438 -0.41858,-0.4134115 -0.41858,-1.4986165 v -3.141927 h -0.69763 v -0.7389727 h 0.69763 v -1.643311 z"
           style="stroke-width:0.07000434"
           id="path1024" />
        <path
           d="m 313.71216,-9.7255573 q -0.76481,0 -1.20923,0.5994466 -0.44442,0.5942789 -0.44442,1.6329752 0,1.0386962 0.43925,1.6381428 0.44442,0.594279 1.2144,0.594279 0.75964,0 1.20406,-0.5994466 0.44442,-0.5994466 0.44442,-1.6329752 0,-1.028361 -0.44442,-1.6278076 -0.44442,-0.6046142 -1.20406,-0.6046142 z m 0,-0.8061527 q 1.24023,0 1.9482,0.8061527 0.70797,0.8061523 0.70797,2.2324218 0,1.4211018 -0.70797,2.2324218 -0.70797,0.8061523 -1.9482,0.8061523 -1.2454,0 -1.95337,-0.8061523 -0.7028,-0.81132 -0.7028,-2.2324218 0,-1.4262695 0.7028,-2.2324218 0.70797,-0.8061527 1.95337,-0.8061527 z"
           style="stroke-width:0.07000434"
           id="path1026" />
        <path
           d="m 320.18205,-9.7255573 q -0.76481,0 -1.20923,0.5994466 -0.44441,0.5942789 -0.44441,1.6329752 0,1.0386962 0.43925,1.6381428 0.44441,0.594279 1.21439,0.594279 0.75965,0 1.20406,-0.5994466 0.44442,-0.5994466 0.44442,-1.6329752 0,-1.028361 -0.44442,-1.6278076 -0.44441,-0.6046142 -1.20406,-0.6046142 z m 0,-0.8061527 q 1.24024,0 1.9482,0.8061527 0.70797,0.8061523 0.70797,2.2324218 0,1.4211018 -0.70797,2.2324218 -0.70796,0.8061523 -1.9482,0.8061523 -1.2454,0 -1.95337,-0.8061523 -0.7028,-0.81132 -0.7028,-2.2324218 0,-1.4262695 0.7028,-2.2324218 0.70797,-0.8061527 1.95337,-0.8061527 z"
           style="stroke-width:0.07000434"
           id="path1028" />
        <path
           d="m 328.15572,-5.9170044 h 1.09554 v 1.3125814 h -1.09554 z m 3.51916,0 h 1.10071 v 1.3125814 h -1.10071 z m -7.0435,0 h 1.10071 v 1.3125814 h -1.10071 z"
           style="stroke-width:0.07000434"
           id="path1030" />
        <path
           d="m 337.71586,-12.319714 h 1.0542 l 1.62264,6.5215654 1.61747,-6.5215654 h 1.17305 l 1.62264,6.5215654 1.61747,-6.5215654 h 1.05937 l -1.93786,7.715291 h -1.31259 l -1.6278,-6.697265 -1.64331,6.697265 h -1.31259 z"
           style="stroke-width:0.07000434"
           id="path1032" />
        <path
           d="m 353.63221,-8.0977498 v 3.4933268 h -0.95085 v -3.4623209 q 0,-0.8216553 -0.32039,-1.2298991 -0.3204,-0.4082438 -0.96118,-0.4082438 -0.76998,0 -1.2144,0.4909261 -0.44442,0.4909261 -0.44442,1.3384196 v 3.2711181 h -0.95601 v -8.040853 h 0.95601 v 3.1522626 q 0.34107,-0.5219316 0.80099,-0.7803136 0.46508,-0.258383 1.0697,-0.258383 0.99735,0 1.50895,0.6201175 0.5116,0.6149495 0.5116,1.8138427 z"
           style="stroke-width:0.07000434"
           id="path1034" />
        <path
           d="m 358.16939,-7.5138061 q -1.15239,0 -1.5968,0.2635498 -0.44442,0.2635498 -0.44442,0.8991699 0,0.506429 0.33073,0.8061523 0.33589,0.2945557 0.9095,0.2945557 0.79065,0 1.26608,-0.5581055 0.48059,-0.5632731 0.48059,-1.4934488 v -0.2118734 z m 1.89652,-0.3927409 v 3.302124 h -0.95084 v -0.8784994 q -0.32557,0.5270996 -0.81132,0.7803141 -0.48576,0.2480469 -1.18856,0.2480469 -0.88884,0 -1.41594,-0.4960937 -0.52193,-0.5012614 -0.52193,-1.3384196 0,-0.9766845 0.65113,-1.4727783 0.65629,-0.4960937 1.95336,-0.4960937 h 1.33326 v -0.093018 q 0,-0.6562906 -0.43409,-1.012858 -0.42891,-0.361735 -1.20922,-0.361735 -0.4961,0 -0.96635,0.1188558 -0.47026,0.1188557 -0.90434,0.3565673 v -0.8784988 q 0.52193,-0.201539 1.01286,-0.299724 0.49092,-0.103353 0.95601,-0.103353 1.25574,0 1.87586,0.6511234 0.62011,0.651123 0.62011,1.9740396 z"
           style="stroke-width:0.07000434"
           id="path1036" />
        <path
           d="m 362.97014,-12.035494 v 1.643311 h 1.95854 v 0.7389727 h -1.95854 v 3.141927 q 0,0.7079671 0.1912,0.9095051 0.19637,0.2015381 0.79065,0.2015381 h 0.97669 v 0.7958171 h -0.97669 q -1.10071,0 -1.51929,-0.4082438 -0.41858,-0.4134115 -0.41858,-1.4986165 v -3.141927 h -0.69763 v -0.7389727 h 0.69763 v -1.643311 z"
           style="stroke-width:0.07000434"
           id="path1038" />
        <path
           d="M 130.87578,3.7154823 V 0.5838906 h 0.95084 v 8.0408526 h -0.95084 v -0.868164 q -0.29973,0.5167643 -0.75965,0.7699788 -0.45475,0.2480469 -1.09554,0.2480469 -1.04903,0 -1.71049,-0.8371582 -0.65629,-0.8371582 -0.65629,-2.201416 0,-1.3642577 0.65629,-2.2014159 0.66146,-0.8371582 1.71049,-0.8371582 0.64079,0 1.09554,0.2532145 0.45992,0.2480469 0.75965,0.7648112 z m -3.24011,2.0205484 q 0,1.0490316 0.42891,1.6484782 0.43408,0.5942789 1.18856,0.5942789 0.75447,0 1.18856,-0.5942789 0.43408,-0.5994466 0.43408,-1.6484782 0,-1.0490315 -0.43408,-1.6433105 -0.43409,-0.5994465 -1.18856,-0.5994465 -0.75448,0 -1.18856,0.5994465 -0.42891,0.594279 -0.42891,1.6433105 z"
           style="stroke-width:0.07000434"
           id="path1040" />
        <path
           d="m 133.78516,2.836983 h 0.95085 v 5.7877602 h -0.95085 z m 0,-2.2530924 h 0.95085 v 1.2040608 h -0.95085 z"
           style="stroke-width:0.07000434"
           id="path1042" />
        <path
           d="M 140.52894,3.7154823 V 0.5838906 h 0.95084 v 8.0408526 h -0.95084 v -0.868164 q -0.29973,0.5167643 -0.75965,0.7699788 -0.45475,0.2480469 -1.09554,0.2480469 -1.04903,0 -1.71049,-0.8371582 -0.65629,-0.8371582 -0.65629,-2.201416 0,-1.3642577 0.65629,-2.2014159 0.66146,-0.8371582 1.71049,-0.8371582 0.64079,0 1.09554,0.2532145 0.45992,0.2480469 0.75965,0.7648112 z m -3.24012,2.0205484 q 0,1.0490316 0.42892,1.6484782 0.43408,0.5942789 1.18856,0.5942789 0.75447,0 1.18855,-0.5942789 0.43409,-0.5994466 0.43409,-1.6484782 0,-1.0490315 -0.43409,-1.6433105 -0.43408,-0.5994465 -1.18855,-0.5994465 -0.75448,0 -1.18856,0.5994465 -0.42892,0.594279 -0.42892,1.6433105 z"
           style="stroke-width:0.07000434"
           id="path1044" />
        <path
           d="m 146.25468,2.836983 h 0.95085 l 1.18856,4.51652 1.18339,-4.51652 h 1.12138 l 1.18855,4.51652 1.1834,-4.51652 h 0.95084 l -1.51412,5.7877602 h -1.12138 l -1.2454,-4.7438963 -1.25057,4.7438963 h -1.12138 z"
           style="stroke-width:0.07000434"
           id="path1046" />
        <path
           d="m 160.41919,5.4931515 v 0.4650879 h -4.37182 q 0.062,0.9818522 0.58911,1.4986165 0.53227,0.5115967 1.47795,0.5115967 0.54777,0 1.05936,-0.1343588 0.51677,-0.1343587 1.0232,-0.4030761 v 0.8991699 q -0.5116,0.217041 -1.04904,0.3307291 -0.53743,0.1136882 -1.09037,0.1136882 -1.38493,0 -2.19625,-0.8061523 -0.80615,-0.8061524 -0.80615,-2.1807454 0,-1.4211019 0.76481,-2.2530924 0.76998,-0.8371582 2.07223,-0.8371582 1.16788,0 1.84485,0.7544759 0.68212,0.7493083 0.68212,2.041219 z m -0.95084,-0.2790527 q -0.0103,-0.7803141 -0.43925,-1.245402 -0.42375,-0.4650879 -1.12655,-0.4650879 -0.79581,0 -1.27641,0.449585 -0.47542,0.4495849 -0.54777,1.2660725 z"
           style="stroke-width:0.07000434"
           id="path1048" />
        <path
           d="M 165.25094,6.340645 V 2.836983 h 0.95084 v 3.4674885 q 0,0.8216552 0.3204,1.2350667 0.32039,0.4082438 0.96118,0.4082438 0.76998,0 1.2144,-0.4909261 0.44958,-0.4909261 0.44958,-1.3384196 V 2.836983 h 0.95085 v 5.7877602 h -0.95085 V 7.7359086 q -0.34623,0.5270996 -0.80615,0.7854818 -0.45475,0.2532145 -1.05937,0.2532145 -0.99735,0 -1.51412,-0.6201172 -0.51676,-0.6201172 -0.51676,-1.8138427 z m 2.39262,-3.6431884 z"
           style="stroke-width:0.07000434"
           id="path1050" />
        <path
           d="m 175.75676,3.0075152 v 0.8991699 q -0.40308,-0.2067057 -0.83716,-0.3100586 -0.43408,-0.1033528 -0.89917,-0.1033528 -0.70797,0 -1.06453,0.217041 -0.3514,0.217041 -0.3514,0.651123 0,0.3307291 0.25321,0.5219319 0.25321,0.1860352 1.01803,0.3565674 l 0.32556,0.072347 q 1.01286,0.217041 1.4366,0.6149495 0.42892,0.3927409 0.42892,1.100708 0,0.8061523 -0.64079,1.2764079 -0.63562,0.4702555 -1.75183,0.4702555 -0.46509,0 -0.97152,-0.093018 -0.50126,-0.08785 -1.05937,-0.2687174 V 7.4310177 q 0.5271,0.2738851 1.0387,0.4134114 0.5116,0.1343587 1.01286,0.1343587 0.67179,0 1.03353,-0.2273763 0.36173,-0.2325439 0.36173,-0.651123 0,-0.3875732 -0.26355,-0.5942789 -0.25838,-0.2067058 -1.14205,-0.3979086 l -0.33073,-0.077515 q -0.88366,-0.1860352 -1.2764,-0.5684407 -0.39274,-0.3875733 -0.39274,-1.0593669 0,-0.8164876 0.57877,-1.2609049 0.57878,-0.4444173 1.64331,-0.4444173 0.5271,0 0.99219,0.077515 0.46509,0.077515 0.85783,0.2325439 z"
           style="stroke-width:0.07000434"
           id="path1052" />
        <path
           d="m 182.53671,5.4931515 v 0.4650879 h -4.37183 q 0.062,0.9818522 0.58911,1.4986165 0.53227,0.5115967 1.47795,0.5115967 0.54777,0 1.05936,-0.1343588 0.51677,-0.1343587 1.0232,-0.4030761 v 0.8991699 q -0.5116,0.217041 -1.04903,0.3307291 -0.53744,0.1136882 -1.09038,0.1136882 -1.38493,0 -2.19625,-0.8061523 -0.80615,-0.8061524 -0.80615,-2.1807454 0,-1.4211019 0.76481,-2.2530924 0.76998,-0.8371582 2.07223,-0.8371582 1.16789,0 1.84485,0.7544759 0.68213,0.7493083 0.68213,2.041219 z m -0.95085,-0.2790527 q -0.0103,-0.7803141 -0.43925,-1.245402 -0.42375,-0.4650879 -1.12655,-0.4650879 -0.79581,0 -1.2764,0.449585 -0.47543,0.4495849 -0.54777,1.2660725 z"
           style="stroke-width:0.07000434"
           id="path1054" />
        <path
           d="M 188.40715,1.1936725 V 2.836983 h 1.95854 v 0.7389729 h -1.95854 v 3.141927 q 0,0.7079671 0.1912,0.9095052 0.19637,0.2015381 0.79065,0.2015381 h 0.97669 v 0.795817 H 189.389 q -1.10071,0 -1.51928,-0.4082438 -0.41858,-0.4134114 -0.41858,-1.4986165 V 3.5759559 H 186.7535 V 2.836983 h 0.69764 V 1.1936725 Z"
           style="stroke-width:0.07000434"
           id="path1056" />
        <path
           d="m 193.86418,3.5036089 q -0.76481,0 -1.20923,0.5994466 -0.44441,0.594279 -0.44441,1.6329752 0,1.0386963 0.43925,1.6381429 0.44441,0.594279 1.21439,0.594279 0.75964,0 1.20406,-0.5994466 0.44442,-0.5994466 0.44442,-1.6329753 0,-1.0283609 -0.44442,-1.6278075 -0.44442,-0.6046143 -1.20406,-0.6046143 z m 0,-0.8061523 q 1.24024,0 1.9482,0.8061523 0.70797,0.8061524 0.70797,2.2324218 0,1.4211019 -0.70797,2.2324219 -0.70796,0.8061523 -1.9482,0.8061523 -1.2454,0 -1.95337,-0.8061523 -0.7028,-0.81132 -0.7028,-2.2324219 0,-1.4262694 0.7028,-2.2324218 0.70797,-0.8061523 1.95337,-0.8061523 z"
           style="stroke-width:0.07000434"
           id="path1058" />
        <path
           d="m 205.26916,5.6636837 q 0,-1.0335286 -0.42891,-1.6019693 -0.42375,-0.5684407 -1.19373,-0.5684407 -0.76481,0 -1.19372,0.5684407 -0.42375,0.5684407 -0.42375,1.6019693 0,1.028361 0.42375,1.5968018 0.42891,0.5684407 1.19372,0.5684407 0.76998,0 1.19373,-0.5684407 0.42891,-0.5684408 0.42891,-1.5968018 z m 0.95085,2.2427571 q 0,1.477946 -0.65629,2.1962482 -0.65629,0.72347 -2.01021,0.72347 -0.50126,0 -0.94568,-0.07751 -0.44442,-0.07235 -0.863,-0.227377 V 9.5962601 q 0.41858,0.2273763 0.82683,0.3358968 0.40824,0.1085201 0.83199,0.1085201 0.93534,0 1.40043,-0.4909257 0.46508,-0.4857584 0.46508,-1.4727782 V 7.6067175 q -0.29455,0.5115967 -0.75447,0.7648112 -0.45992,0.2532145 -1.10071,0.2532145 -1.06453,0 -1.71566,-0.8113199 -0.65112,-0.81132 -0.65112,-2.1497396 0,-1.3435872 0.65112,-2.1549071 0.65113,-0.81132 1.71566,-0.81132 0.64079,0 1.10071,0.2532145 0.45992,0.2532145 0.75447,0.7648112 V 2.836983 h 0.95085 z"
           style="stroke-width:0.07000434"
           id="path1060" />
        <path
           d="m 213.12916,5.4931515 v 0.4650879 h -4.37183 q 0.062,0.9818522 0.58911,1.4986165 0.53227,0.5115967 1.47795,0.5115967 0.54777,0 1.05936,-0.1343588 0.51677,-0.1343587 1.0232,-0.4030761 v 0.8991699 q -0.5116,0.217041 -1.04903,0.3307291 -0.53744,0.1136882 -1.09038,0.1136882 -1.38493,0 -2.19625,-0.8061523 -0.80615,-0.8061524 -0.80615,-2.1807454 0,-1.4211019 0.76481,-2.2530924 0.76998,-0.8371582 2.07223,-0.8371582 1.16789,0 1.84485,0.7544759 0.68213,0.7493083 0.68213,2.041219 z m -0.95085,-0.2790527 q -0.0103,-0.7803141 -0.43925,-1.245402 -0.42375,-0.4650879 -1.12655,-0.4650879 -0.79581,0 -1.2764,0.449585 -0.47543,0.4495849 -0.54777,1.2660725 z"
           style="stroke-width:0.07000434"
           id="path1062" />
        <path
           d="M 215.63029,1.1936725 V 2.836983 h 1.95854 v 0.7389729 h -1.95854 v 3.141927 q 0,0.7079671 0.19121,0.9095052 0.19637,0.2015381 0.79065,0.2015381 h 0.97668 v 0.795817 h -0.97668 q -1.10071,0 -1.51929,-0.4082438 -0.41858,-0.4134114 -0.41858,-1.4986165 v -3.141927 h -0.69763 V 2.836983 h 0.69763 V 1.1936725 Z"
           style="stroke-width:0.07000434"
           id="path1064" />
        <path
           d="M 223.15438,1.1936725 V 2.836983 h 1.95854 v 0.7389729 h -1.95854 v 3.141927 q 0,0.7079671 0.1912,0.9095052 0.19637,0.2015381 0.79065,0.2015381 h 0.97669 v 0.795817 h -0.97669 q -1.10071,0 -1.51928,-0.4082438 -0.41858,-0.4134114 -0.41858,-1.4986165 v -3.141927 h -0.69764 V 2.836983 h 0.69764 V 1.1936725 Z"
           style="stroke-width:0.07000434"
           id="path1066" />
        <path
           d="m 231.17973,5.1314165 v 3.4933267 h -0.95085 V 5.1624224 q 0,-0.8216553 -0.32039,-1.2298991 -0.32039,-0.4082438 -0.96118,-0.4082438 -0.76998,0 -1.2144,0.4909261 -0.44441,0.4909261 -0.44441,1.3384196 v 3.271118 h -0.95602 V 0.5838906 h 0.95602 v 3.1522623 q 0.34106,-0.521932 0.80098,-0.7803141 0.46509,-0.2583822 1.0697,-0.2583822 0.99736,0 1.50895,0.6201172 0.5116,0.6149495 0.5116,1.8138427 z"
           style="stroke-width:0.07000434"
           id="path1068" />
        <path
           d="m 238.03719,5.4931515 v 0.4650879 h -4.37183 q 0.062,0.9818522 0.58912,1.4986165 0.53226,0.5115967 1.47794,0.5115967 0.54777,0 1.05937,-0.1343588 0.51676,-0.1343587 1.02319,-0.4030761 v 0.8991699 q -0.51159,0.217041 -1.04903,0.3307291 -0.53743,0.1136882 -1.09037,0.1136882 -1.38493,0 -2.19625,-0.8061523 -0.80615,-0.8061524 -0.80615,-2.1807454 0,-1.4211019 0.76481,-2.2530924 0.76998,-0.8371582 2.07222,-0.8371582 1.16789,0 1.84485,0.7544759 0.68213,0.7493083 0.68213,2.041219 z m -0.95085,-0.2790527 q -0.0103,-0.7803141 -0.43925,-1.245402 -0.42374,-0.4650879 -1.12654,-0.4650879 -0.79582,0 -1.27641,0.449585 -0.47542,0.4495849 -0.54777,1.2660725 z"
           style="stroke-width:0.07000434"
           id="path1070" />
        <path
           d="M 245.89718,0.5838906 V 1.37454 h -0.9095 q -0.5116,0 -0.71314,0.2067057 -0.19637,0.2067057 -0.19637,0.7441406 V 2.836983 h 1.5658 v 0.7389729 h -1.5658 v 5.0487873 h -0.95601 V 3.5759559 h -0.90951 V 2.836983 h 0.90951 V 2.4339068 q 0,-0.9663492 0.44958,-1.4055989 0.44959,-0.4444173 1.42627,-0.4444173 z"
           style="stroke-width:0.07000434"
           id="path1072" />
        <path
           d="m 248.93059,3.5036089 q -0.76481,0 -1.20923,0.5994466 -0.44442,0.594279 -0.44442,1.6329752 0,1.0386963 0.43925,1.6381429 0.44442,0.594279 1.2144,0.594279 0.75964,0 1.20406,-0.5994466 0.44442,-0.5994466 0.44442,-1.6329753 0,-1.0283609 -0.44442,-1.6278075 -0.44442,-0.6046143 -1.20406,-0.6046143 z m 0,-0.8061523 q 1.24023,0 1.9482,0.8061523 0.70797,0.8061524 0.70797,2.2324218 0,1.4211019 -0.70797,2.2324219 -0.70797,0.8061523 -1.9482,0.8061523 -1.2454,0 -1.95337,-0.8061523 -0.7028,-0.81132 -0.7028,-2.2324219 0,-1.4262694 0.7028,-2.2324218 0.70797,-0.8061523 1.95337,-0.8061523 z"
           style="stroke-width:0.07000434"
           id="path1074" />
        <path
           d="m 255.40047,3.5036089 q -0.76481,0 -1.20922,0.5994466 -0.44442,0.594279 -0.44442,1.6329752 0,1.0386963 0.43925,1.6381429 0.44442,0.594279 1.21439,0.594279 0.75965,0 1.20407,-0.5994466 0.44441,-0.5994466 0.44441,-1.6329753 0,-1.0283609 -0.44441,-1.6278075 -0.44442,-0.6046143 -1.20407,-0.6046143 z m 0,-0.8061523 q 1.24024,0 1.94821,0.8061523 0.70796,0.8061524 0.70796,2.2324218 0,1.4211019 -0.70796,2.2324219 -0.70797,0.8061523 -1.94821,0.8061523 -1.2454,0 -1.95336,-0.8061523 -0.7028,-0.81132 -0.7028,-2.2324219 0,-1.4262694 0.7028,-2.2324218 0.70796,-0.8061523 1.95336,-0.8061523 z"
           style="stroke-width:0.07000434"
           id="path1076" />
        <path
           d="M 263.43616,3.7154823 V 0.5838906 h 0.95084 v 8.0408526 h -0.95084 v -0.868164 q -0.29973,0.5167643 -0.75965,0.7699788 -0.45475,0.2480469 -1.09554,0.2480469 -1.04903,0 -1.71049,-0.8371582 -0.65629,-0.8371582 -0.65629,-2.201416 0,-1.3642577 0.65629,-2.2014159 0.66146,-0.8371582 1.71049,-0.8371582 0.64079,0 1.09554,0.2532145 0.45992,0.2480469 0.75965,0.7648112 z m -3.24012,2.0205484 q 0,1.0490316 0.42892,1.6484782 0.43408,0.5942789 1.18856,0.5942789 0.75447,0 1.18856,-0.5942789 0.43408,-0.5994466 0.43408,-1.6484782 0,-1.0490315 -0.43408,-1.6433105 -0.43409,-0.5994465 -1.18856,-0.5994465 -0.75448,0 -1.18856,0.5994465 -0.42892,0.594279 -0.42892,1.6433105 z"
           style="stroke-width:0.07000434"
           id="path1078" />
        <path
           d="m 270.03524,3.0075152 v 0.8991699 q -0.40307,-0.2067057 -0.83716,-0.3100586 -0.43408,-0.1033528 -0.89917,-0.1033528 -0.70796,0 -1.06453,0.217041 -0.3514,0.217041 -0.3514,0.651123 0,0.3307291 0.25321,0.5219319 0.25322,0.1860352 1.01803,0.3565674 l 0.32556,0.072347 q 1.01286,0.217041 1.43661,0.6149495 0.42891,0.3927409 0.42891,1.100708 0,0.8061523 -0.64079,1.2764079 -0.63562,0.4702555 -1.75183,0.4702555 -0.46509,0 -0.97151,-0.093018 -0.50127,-0.08785 -1.05937,-0.2687174 V 7.4310177 q 0.5271,0.2738851 1.03869,0.4134114 0.5116,0.1343587 1.01286,0.1343587 0.6718,0 1.03353,-0.2273763 0.36174,-0.2325439 0.36174,-0.651123 0,-0.3875732 -0.26355,-0.5942789 -0.25839,-0.2067058 -1.14205,-0.3979086 l -0.33073,-0.077515 q -0.88367,-0.1860352 -1.27641,-0.5684407 -0.39274,-0.3875733 -0.39274,-1.0593669 0,-0.8164876 0.57878,-1.2609049 0.57877,-0.4444173 1.64331,-0.4444173 0.5271,0 0.99218,0.077515 0.46509,0.077515 0.85783,0.2325439 z"
           style="stroke-width:0.07000434"
           id="path1080" />
        <path
           d="m 272.88778,7.3121619 h 1.04903 v 1.3125813 h -1.04903 z m 1.01803,-0.7596435 h -0.98702 V 5.7567013 q 0,-0.5219319 0.14469,-0.8578287 0.1447,-0.3358968 0.60978,-0.7803141 l 0.46509,-0.4599203 q 0.29456,-0.2738851 0.42375,-0.5167643 0.13436,-0.2428792 0.13436,-0.4960937 0,-0.4599202 -0.34107,-0.7441406 -0.33589,-0.2842204 -0.894,-0.2842204 -0.40824,0 -0.87333,0.1808675 -0.45992,0.1808675 -0.96118,0.5270996 V 1.3538694 q 0.48576,-0.2945556 0.98185,-0.43924964 0.50126,-0.14469401 1.03353,-0.14469401 0.95084,0 1.52445,0.50126135 0.57878,0.5012614 0.57878,1.3229167 0,0.3927408 -0.18604,0.7493082 -0.18603,0.3513997 -0.65112,0.795817 l -0.45475,0.4444173 q -0.24288,0.2428793 -0.34623,0.3824056 -0.0982,0.1343587 -0.13953,0.2635498 -0.031,0.1085205 -0.0465,0.2635498 -0.0155,0.1550293 -0.0155,0.4237468 z"
           style="stroke-width:0.07000434"
           id="path1082" />
      </g>
    </g>
  </g>
</svg>
