<?xml version="1.0" encoding="UTF-8" standalone="no"?>
<!-- Created with Inkscape (http://www.inkscape.org/) -->

<svg
   xmlns:dc="http://purl.org/dc/elements/1.1/"
   xmlns:cc="http://creativecommons.org/ns#"
   xmlns:rdf="http://www.w3.org/1999/02/22-rdf-syntax-ns#"
   xmlns:svg="http://www.w3.org/2000/svg"
   xmlns="http://www.w3.org/2000/svg"
   xmlns:sodipodi="http://sodipodi.sourceforge.net/DTD/sodipodi-0.dtd"
   xmlns:inkscape="http://www.inkscape.org/namespaces/inkscape"
   width="224.27571mm"
   height="8.1907349mm"
   viewBox="0 0 224.27571 8.1907349"
   version="1.1"
   id="svg8"
   inkscape:version="0.92.4 (5da689c313, 2019-01-14)"
   sodipodi:docname="one.svg">
  <defs
     id="defs2" />
  <sodipodi:namedview
     id="base"
     pagecolor="#ffffff"
     bordercolor="#666666"
     borderopacity="1.0"
     inkscape:pageopacity="0.0"
     inkscape:pageshadow="2"
     inkscape:zoom="0.35"
     inkscape:cx="-234.48102"
     inkscape:cy="-158.00492"
     inkscape:document-units="mm"
     inkscape:current-layer="layer1"
     showgrid="false"
     fit-margin-top="0"
     fit-margin-left="0"
     fit-margin-right="0"
     fit-margin-bottom="0"
     inkscape:window-width="1920"
     inkscape:window-height="1043"
     inkscape:window-x="1600"
     inkscape:window-y="18"
     inkscape:window-maximized="0" />
  <metadata
     id="metadata5">
    <rdf:RDF>
      <cc:Work
         rdf:about="">
        <dc:format>image/svg+xml</dc:format>
        <dc:type
           rdf:resource="http://purl.org/dc/dcmitype/StillImage" />
        <dc:title></dc:title>
      </cc:Work>
    </rdf:RDF>
  </metadata>
  <g
     inkscape:label="Layer 1"
     inkscape:groupmode="layer"
     id="layer1"
     transform="translate(-4.5873901,-98.459155)">
    <g
       aria-label="An Incorrect Solution To Comic #1663"
       style="font-style:normal;font-weight:normal;font-size:10.58333302px;line-height:1.25;font-family:sans-serif;letter-spacing:0px;word-spacing:0px;fill:#000000;fill-opacity:1;stroke:none;stroke-width:0.26458332"
       id="text817">
      <path
         d="M 10.189115,105.09441 H 7.0781941 l -0.4909261,1.4056 H 4.5873901 l 2.8577066,-7.715293 h 2.3719482 l 2.8577071,7.715293 h -1.999878 z m -2.6148272,-1.43144 h 2.113566 l -1.0541992,-3.06958 z"
         style="font-weight:bold;stroke-width:0.26458332"
         id="path823"
         inkscape:connector-curvature="0" />
      <path
         d="m 19.428861,102.97568 v 3.52433 H 17.56851 v -0.57361 -2.1239 q 0,-0.74931 -0.03617,-1.03353 -0.03101,-0.28422 -0.113688,-0.41858 -0.10852,-0.18087 -0.294556,-0.27905 -0.186035,-0.10336 -0.423746,-0.10336 -0.578776,0 -0.909505,0.44959 -0.33073,0.44442 -0.33073,1.23507 v 2.84737 h -1.850016 v -5.78776 h 1.850016 v 0.84749 q 0.418579,-0.50643 0.888835,-0.74414 0.470256,-0.24288 1.038696,-0.24288 1.002523,0 1.519287,0.61495 0.521932,0.61495 0.521932,1.78801 z"
         style="font-weight:bold;stroke-width:0.26458332"
         id="path825"
         inkscape:connector-curvature="0" />
      <path
         d="m 24.916899,98.784717 h 1.989542 v 7.715293 h -1.989542 z"
         style="font-weight:bold;stroke-width:0.26458332"
         id="path827"
         inkscape:connector-curvature="0" />
      <path
         d="m 34.601061,102.97568 v 3.52433 h -1.860352 v -0.57361 -2.1239 q 0,-0.74931 -0.03617,-1.03353 -0.03101,-0.28422 -0.113688,-0.41858 -0.10852,-0.18087 -0.294555,-0.27905 -0.186035,-0.10336 -0.423747,-0.10336 -0.578776,0 -0.909505,0.44959 -0.330729,0.44442 -0.330729,1.23507 v 2.84737 h -1.850017 v -5.78776 h 1.850017 v 0.84749 q 0.418579,-0.50643 0.888834,-0.74414 0.470256,-0.24288 1.038696,-0.24288 1.002523,0 1.519288,0.61495 0.521932,0.61495 0.521932,1.78801 z"
         style="font-weight:bold;stroke-width:0.26458332"
         id="path829"
         inkscape:connector-curvature="0" />
      <path
         d="m 41.003771,100.89311 v 1.50896 q -0.377238,-0.25839 -0.759643,-0.38241 -0.377238,-0.12402 -0.785482,-0.12402 -0.775147,0 -1.209229,0.45475 -0.428914,0.44959 -0.428914,1.26091 0,0.81132 0.428914,1.26607 0.434082,0.44958 1.209229,0.44958 0.434082,0 0.821655,-0.12919 0.392741,-0.12919 0.72347,-0.3824 v 1.51412 q -0.434082,0.16019 -0.883667,0.23771 -0.444417,0.0827 -0.894002,0.0827 -1.565796,0 -2.449463,-0.80099 -0.883667,-0.80615 -0.883667,-2.23758 0,-1.43144 0.883667,-2.23243 0.883667,-0.80615 2.449463,-0.80615 0.454753,0 0.894002,0.0827 0.444417,0.0775 0.883667,0.23771 z"
         style="font-weight:bold;stroke-width:0.26458332"
         id="path831"
         inkscape:connector-curvature="0" />
      <path
         d="m 45.365261,101.89564 q -0.614949,0 -0.940511,0.44441 -0.320393,0.43925 -0.320393,1.27125 0,0.83199 0.320393,1.2764 0.325562,0.43925 0.940511,0.43925 0.604615,0 0.925009,-0.43925 0.320393,-0.44441 0.320393,-1.2764 0,-0.832 -0.320393,-1.27125 -0.320394,-0.44441 -0.925009,-0.44441 z m 0,-1.32292 q 1.493449,0 2.330607,0.80615 0.842326,0.80616 0.842326,2.23243 0,1.42626 -0.842326,2.23242 -0.837158,0.80615 -2.330607,0.80615 -1.498616,0 -2.34611,-0.80615 -0.842325,-0.80616 -0.842325,-2.23242 0,-1.42627 0.842325,-2.23243 0.847494,-0.80615 2.34611,-0.80615 z"
         style="font-weight:bold;stroke-width:0.26458332"
         id="path833"
         inkscape:connector-curvature="0" />
      <path
         d="m 54.18643,102.28838 q -0.24288,-0.11369 -0.485759,-0.16537 -0.237711,-0.0568 -0.480591,-0.0568 -0.713134,0 -1.100708,0.45992 -0.382405,0.45475 -0.382405,1.30741 v 2.66651 h -1.850016 v -5.78776 h 1.850016 v 0.95084 q 0.356567,-0.56844 0.816487,-0.82682 0.465088,-0.26355 1.111044,-0.26355 0.09302,0 0.201538,0.0103 0.10852,0.005 0.315226,0.031 z"
         style="font-weight:bold;stroke-width:0.26458332"
         id="path835"
         inkscape:connector-curvature="0" />
      <path
         d="m 59.416082,102.28838 q -0.242879,-0.11369 -0.485758,-0.16537 -0.237712,-0.0568 -0.480591,-0.0568 -0.713135,0 -1.100708,0.45992 -0.382406,0.45475 -0.382406,1.30741 v 2.66651 h -1.850016 v -5.78776 h 1.850016 v 0.95084 q 0.356568,-0.56844 0.816488,-0.82682 0.465088,-0.26355 1.111043,-0.26355 0.09302,0 0.201538,0.0103 0.108521,0.005 0.315226,0.031 z"
         style="font-weight:bold;stroke-width:0.26458332"
         id="path837"
         inkscape:connector-curvature="0" />
      <path
         d="m 66.123684,103.59062 v 0.5271 h -4.325317 q 0.06718,0.65113 0.470255,0.97669 0.403077,0.32556 1.126547,0.32556 0.583943,0 1.193725,-0.17053 0.61495,-0.1757 1.260905,-0.5271 v 1.42627 q -0.656291,0.24804 -1.312581,0.37207 -0.656291,0.12919 -1.312582,0.12919 -1.570963,0 -2.444295,-0.79582 -0.868164,-0.80098 -0.868164,-2.24275 0,-1.41594 0.852661,-2.22726 0.857829,-0.81132 2.356446,-0.81132 1.364257,0 2.180745,0.82166 0.821655,0.82165 0.821655,2.19624 z m -1.901692,-0.61494 q 0,-0.5271 -0.310059,-0.8475 -0.304891,-0.32556 -0.800985,-0.32556 -0.537435,0 -0.873331,0.30489 -0.335897,0.29972 -0.418579,0.86817 z"
         style="font-weight:bold;stroke-width:0.26458332"
         id="path839"
         inkscape:connector-curvature="0" />
      <path
         d="m 72.195664,100.89311 v 1.50896 q -0.377238,-0.25839 -0.759644,-0.38241 -0.377238,-0.12402 -0.785482,-0.12402 -0.775146,0 -1.209228,0.45475 -0.428914,0.44959 -0.428914,1.26091 0,0.81132 0.428914,1.26607 0.434082,0.44958 1.209228,0.44958 0.434083,0 0.821656,-0.12919 0.392741,-0.12919 0.72347,-0.3824 v 1.51412 q -0.434082,0.16019 -0.883667,0.23771 -0.444418,0.0827 -0.894002,0.0827 -1.565796,0 -2.449463,-0.80099 -0.883667,-0.80615 -0.883667,-2.23758 0,-1.43144 0.883667,-2.23243 0.883667,-0.80615 2.449463,-0.80615 0.454752,0 0.894002,0.0827 0.444417,0.0775 0.883667,0.23771 z"
         style="font-weight:bold;stroke-width:0.26458332"
         id="path841"
         inkscape:connector-curvature="0" />
      <path
         d="m 75.823347,99.068937 v 1.643313 h 1.90686 v 1.32291 h -1.90686 v 2.45463 q 0,0.40308 0.160197,0.54777 0.160197,0.13953 0.63562,0.13953 h 0.950846 v 1.32292 h -1.586466 q -1.095541,0 -1.555461,-0.45475 -0.454752,-0.45993 -0.454752,-1.55547 v -2.45463 H 73.05349 v -1.32291 h 0.919841 v -1.643313 z"
         style="font-weight:bold;stroke-width:0.26458332"
         id="path843"
         inkscape:connector-curvature="0" />
      <path
         d="m 87.998314,99.027596 v 1.632974 q -0.63562,-0.28422 -1.240234,-0.42891 -0.604614,-0.1447 -1.142049,-0.1447 -0.713135,0 -1.054199,0.19637 -0.341065,0.19637 -0.341065,0.60978 0,0.31006 0.227376,0.48576 0.232544,0.17054 0.837159,0.29456 l 0.847493,0.17053 q 1.286743,0.25838 1.829346,0.78548 0.542602,0.5271 0.542602,1.49862 0,1.27641 -0.759643,1.90169 -0.754476,0.62012 -2.309937,0.62012 -0.733805,0 -1.472778,-0.13953 -0.738973,-0.13952 -1.477946,-0.41341 v -1.67948 q 0.738973,0.39274 1.42627,0.59428 0.692464,0.19637 1.333251,0.19637 0.651123,0 0.997356,-0.21704 0.346232,-0.21705 0.346232,-0.62012 0,-0.36174 -0.237712,-0.55811 -0.232544,-0.19637 -0.935343,-0.3514 l -0.769979,-0.17053 q -1.157552,-0.24805 -1.694987,-0.79065 -0.532267,-0.5426 -0.532267,-1.46244 0,-1.152386 0.74414,-1.772503 0.744141,-0.620117 2.139405,-0.620117 0.63562,0 1.307413,0.09819 0.671794,0.09302 1.390096,0.284221 z"
         style="font-weight:bold;stroke-width:0.26458332"
         id="path845"
         inkscape:connector-curvature="0" />
      <path
         d="m 92.928246,101.89564 q -0.61495,0 -0.940511,0.44441 -0.320394,0.43925 -0.320394,1.27125 0,0.83199 0.320394,1.2764 0.325561,0.43925 0.940511,0.43925 0.604614,0 0.925008,-0.43925 0.320394,-0.44441 0.320394,-1.2764 0,-0.832 -0.320394,-1.27125 -0.320394,-0.44441 -0.925008,-0.44441 z m 0,-1.32292 q 1.493449,0 2.330607,0.80615 0.842326,0.80616 0.842326,2.23243 0,1.42626 -0.842326,2.23242 -0.837158,0.80615 -2.330607,0.80615 -1.498617,0 -2.34611,-0.80615 -0.842326,-0.80616 -0.842326,-2.23242 0,-1.42627 0.842326,-2.23243 0.847493,-0.80615 2.34611,-0.80615 z"
         style="font-weight:bold;stroke-width:0.26458332"
         id="path847"
         inkscape:connector-curvature="0" />
      <path
         d="m 97.449939,98.459155 h 1.850016 v 8.040855 h -1.850016 z"
         style="font-weight:bold;stroke-width:0.26458332"
         id="path849"
         inkscape:connector-curvature="0" />
      <path
         d="m 101.02594,104.24692 v -3.53467 h 1.86035 v 0.57877 q 0,0.47026 -0.005,1.18339 -0.005,0.70797 -0.005,0.94568 0,0.69763 0.0362,1.00769 0.0362,0.30489 0.12403,0.44442 0.11368,0.18087 0.29455,0.27905 0.18604,0.0982 0.42375,0.0982 0.57877,0 0.9095,-0.44442 0.33073,-0.44442 0.33073,-1.23507 v -2.8577 h 1.85002 v 5.78776 h -1.85002 v -0.83716 q -0.41858,0.50643 -0.88883,0.74931 -0.46509,0.23771 -1.02836,0.23771 -1.00253,0 -1.52963,-0.61495 -0.52193,-0.61495 -0.52193,-1.788 z"
         style="font-weight:bold;stroke-width:0.26458332"
         id="path851"
         inkscape:connector-curvature="0" />
      <path
         d="m 110.65326,99.068937 v 1.643313 h 1.90687 v 1.32291 h -1.90687 v 2.45463 q 0,0.40308 0.1602,0.54777 0.1602,0.13953 0.63562,0.13953 h 0.95085 v 1.32292 h -1.58647 q -1.09554,0 -1.55546,-0.45475 -0.45475,-0.45993 -0.45475,-1.55547 v -2.45463 h -0.91984 v -1.32291 h 0.91984 v -1.643313 z"
         style="font-weight:bold;stroke-width:0.26458332"
         id="path853"
         inkscape:connector-curvature="0" />
      <path
         d="m 113.69701,100.71225 h 1.85002 v 5.78776 h -1.85002 z m 0,-2.253095 h 1.85002 v 1.508952 h -1.85002 z"
         style="font-weight:bold;stroke-width:0.26458332"
         id="path855"
         inkscape:connector-curvature="0" />
      <path
         d="m 120.08938,101.89564 q -0.61495,0 -0.94051,0.44441 -0.3204,0.43925 -0.3204,1.27125 0,0.83199 0.3204,1.2764 0.32556,0.43925 0.94051,0.43925 0.60461,0 0.92501,-0.43925 0.32039,-0.44441 0.32039,-1.2764 0,-0.832 -0.32039,-1.27125 -0.3204,-0.44441 -0.92501,-0.44441 z m 0,-1.32292 q 1.49345,0 2.33061,0.80615 0.84232,0.80616 0.84232,2.23243 0,1.42626 -0.84232,2.23242 -0.83716,0.80615 -2.33061,0.80615 -1.49862,0 -2.34611,-0.80615 -0.84233,-0.80616 -0.84233,-2.23242 0,-1.42627 0.84233,-2.23243 0.84749,-0.80615 2.34611,-0.80615 z"
         style="font-weight:bold;stroke-width:0.26458332"
         id="path857"
         inkscape:connector-curvature="0" />
      <path
         d="m 130.42984,102.97568 v 3.52433 h -1.86035 v -0.57361 -2.1239 q 0,-0.74931 -0.0362,-1.03353 -0.031,-0.28422 -0.11369,-0.41858 -0.10852,-0.18087 -0.29455,-0.27905 -0.18604,-0.10336 -0.42375,-0.10336 -0.57877,0 -0.9095,0.44959 -0.33073,0.44442 -0.33073,1.23507 v 2.84737 h -1.85002 v -5.78776 h 1.85002 v 0.84749 q 0.41858,-0.50643 0.88883,-0.74414 0.47026,-0.24288 1.0387,-0.24288 1.00252,0 1.51929,0.61495 0.52193,0.61495 0.52193,1.78801 z"
         style="font-weight:bold;stroke-width:0.26458332"
         id="path859"
         inkscape:connector-curvature="0" />
      <path
         d="m 134.99803,98.784717 h 7.11068 v 1.503783 h -2.55798 v 6.21151 h -1.98954 v -6.21151 h -2.56316 z"
         style="font-weight:bold;stroke-width:0.26458332"
         id="path861"
         inkscape:connector-curvature="0" />
      <path
         d="m 144.39797,101.89564 q -0.61495,0 -0.94051,0.44441 -0.32039,0.43925 -0.32039,1.27125 0,0.83199 0.32039,1.2764 0.32556,0.43925 0.94051,0.43925 0.60462,0 0.92501,-0.43925 0.32039,-0.44441 0.32039,-1.2764 0,-0.832 -0.32039,-1.27125 -0.32039,-0.44441 -0.92501,-0.44441 z m 0,-1.32292 q 1.49345,0 2.33061,0.80615 0.84233,0.80616 0.84233,2.23243 0,1.42626 -0.84233,2.23242 -0.83716,0.80615 -2.33061,0.80615 -1.49861,0 -2.34611,-0.80615 -0.84232,-0.80616 -0.84232,-2.23242 0,-1.42627 0.84232,-2.23243 0.8475,-0.80615 2.34611,-0.80615 z"
         style="font-weight:bold;stroke-width:0.26458332"
         id="path863"
         inkscape:connector-curvature="0" />
      <path
         d="m 158.80019,106.07626 q -0.54777,0.28422 -1.14205,0.42892 -0.59428,0.14469 -1.24023,0.14469 -1.92754,0 -3.05408,-1.07487 -1.12655,-1.08004 -1.12655,-2.92489 0,-1.85001 1.12655,-2.924882 1.12654,-1.080038 3.05408,-1.080038 0.64595,0 1.24023,0.144694 0.59428,0.144694 1.14205,0.428915 v 1.596801 q -0.55294,-0.37724 -1.09037,-0.55294 -0.53744,-0.1757 -1.13172,-0.1757 -1.06453,0 -1.67431,0.68213 -0.60979,0.68213 -0.60979,1.88102 0,1.19373 0.60979,1.87586 0.60978,0.68213 1.67431,0.68213 0.59428,0 1.13172,-0.1757 0.53743,-0.1757 1.09037,-0.55294 z"
         style="font-weight:bold;stroke-width:0.26458332"
         id="path865"
         inkscape:connector-curvature="0" />
      <path
         d="m 163.12551,101.89564 q -0.61495,0 -0.94051,0.44441 -0.32039,0.43925 -0.32039,1.27125 0,0.83199 0.32039,1.2764 0.32556,0.43925 0.94051,0.43925 0.60462,0 0.92501,-0.43925 0.32039,-0.44441 0.32039,-1.2764 0,-0.832 -0.32039,-1.27125 -0.32039,-0.44441 -0.92501,-0.44441 z m 0,-1.32292 q 1.49345,0 2.33061,0.80615 0.84232,0.80616 0.84232,2.23243 0,1.42626 -0.84232,2.23242 -0.83716,0.80615 -2.33061,0.80615 -1.49861,0 -2.34611,-0.80615 -0.84232,-0.80616 -0.84232,-2.23242 0,-1.42627 0.84232,-2.23243 0.8475,-0.80615 2.34611,-0.80615 z"
         style="font-weight:bold;stroke-width:0.26458332"
         id="path867"
         inkscape:connector-curvature="0" />
      <path
         d="m 173.01122,101.67343 q 0.3514,-0.53744 0.83199,-0.81649 0.48576,-0.28422 1.06453,-0.28422 0.99736,0 1.51929,0.61495 0.52193,0.61495 0.52193,1.78801 v 3.52433 h -1.86035 v -3.01791 q 0.005,-0.0672 0.005,-0.13952 0.005,-0.0724 0.005,-0.20671 0,-0.61495 -0.18087,-0.88883 -0.18087,-0.27906 -0.58395,-0.27906 -0.52709,0 -0.81648,0.43409 -0.28422,0.43408 -0.29456,1.25573 v 2.84221 h -1.86035 v -3.01791 q 0,-0.96118 -0.16536,-1.23506 -0.16537,-0.27906 -0.58912,-0.27906 -0.53226,0 -0.82165,0.43925 -0.28939,0.43409 -0.28939,1.24541 v 2.84737 h -1.86035 v -5.78776 h 1.86035 v 0.84749 q 0.34107,-0.49093 0.78031,-0.73897 0.44442,-0.24805 0.97669,-0.24805 0.59945,0 1.05937,0.28939 0.45992,0.28939 0.69763,0.81132 z"
         style="font-weight:bold;stroke-width:0.26458332"
         id="path869"
         inkscape:connector-curvature="0" />
      <path
         d="m 178.68529,100.71225 h 1.85002 v 5.78776 h -1.85002 z m 0,-2.253095 h 1.85002 v 1.508952 h -1.85002 z"
         style="font-weight:bold;stroke-width:0.26458332"
         id="path871"
         inkscape:connector-curvature="0" />
      <path
         d="m 187.00002,100.89311 v 1.50896 q -0.37723,-0.25839 -0.75964,-0.38241 -0.37724,-0.12402 -0.78548,-0.12402 -0.77515,0 -1.20923,0.45475 -0.42891,0.44959 -0.42891,1.26091 0,0.81132 0.42891,1.26607 0.43408,0.44958 1.20923,0.44958 0.43408,0 0.82165,-0.12919 0.39274,-0.12919 0.72347,-0.3824 v 1.51412 q -0.43408,0.16019 -0.88366,0.23771 -0.44442,0.0827 -0.89401,0.0827 -1.56579,0 -2.44946,-0.80099 -0.88367,-0.80615 -0.88367,-2.23758 0,-1.43144 0.88367,-2.23243 0.88367,-0.80615 2.44946,-0.80615 0.45476,0 0.89401,0.0827 0.44441,0.0775 0.88366,0.23771 z"
         style="font-weight:bold;stroke-width:0.26458332"
         id="path873"
         inkscape:connector-curvature="0" />
      <path
         d="m 196.10541,98.903572 -0.4961,1.989538 h 1.36426 l 0.50126,-1.989538 h 1.14205 l -0.50126,1.989538 h 1.43144 v 1.10071 h -1.70533 l -0.35656,1.41594 h 1.46761 v 1.11104 h -1.73633 l -0.49609,1.97921 h -1.14205 l 0.49609,-1.97921 h -1.36426 l -0.49609,1.97921 h -1.15239 l 0.4961,-1.97921 h -1.44177 v -1.11104 h 1.69498 l 0.36174,-1.41594 h -1.46245 v -1.10071 h 1.74667 l 0.49609,-1.989538 z m 0.58394,3.090248 h -1.36426 l -0.36173,1.41594 h 1.36425 z"
         style="font-weight:bold;stroke-width:0.26458332"
         id="path875"
         inkscape:connector-curvature="0" />
      <path
         d="m 201.50559,105.12541 h 1.757 v -4.98677 l -1.80351,0.37207 v -1.353923 l 1.79318,-0.37207 h 1.89135 v 6.340693 h 1.757 v 1.3746 h -5.39502 z"
         style="font-weight:bold;stroke-width:0.26458332"
         id="path877"
         inkscape:connector-curvature="0" />
      <path
         d="m 211.45332,102.69145 q -0.52194,0 -0.78549,0.34107 -0.25838,0.3359 -0.25838,1.01286 0,0.67696 0.25838,1.01802 0.26355,0.3359 0.78549,0.3359 0.5271,0 0.78548,-0.3359 0.26355,-0.34106 0.26355,-1.01802 0,-0.67696 -0.26355,-1.01286 -0.25838,-0.34107 -0.78548,-0.34107 z m 2.45979,-3.705195 v 1.426265 q -0.49092,-0.23254 -0.925,-0.34106 -0.43409,-0.113689 -0.8475,-0.113689 -0.88883,0 -1.38493,0.496099 -0.49609,0.49092 -0.57877,1.46244 0.34106,-0.25322 0.73897,-0.37724 0.39791,-0.12919 0.86817,-0.12919 1.18339,0 1.90686,0.69246 0.72863,0.69247 0.72863,1.81385 0,1.24023 -0.81132,1.98954 -0.81132,0.74414 -2.17557,0.74414 -1.50379,0 -2.33061,-1.01286 -0.82166,-1.01802 -0.82166,-2.88354 0,-1.91203 0.96118,-3.002404 0.96635,-1.095541 2.64584,-1.095541 0.53227,0 1.03353,0.08268 0.50126,0.08268 0.99218,0.248047 z"
         style="font-weight:bold;stroke-width:0.26458332"
         id="path879"
         inkscape:connector-curvature="0" />
      <path
         d="m 218.81203,102.69145 q -0.52193,0 -0.78548,0.34107 -0.25838,0.3359 -0.25838,1.01286 0,0.67696 0.25838,1.01802 0.26355,0.3359 0.78548,0.3359 0.5271,0 0.78549,-0.3359 0.26355,-0.34106 0.26355,-1.01802 0,-0.67696 -0.26355,-1.01286 -0.25839,-0.34107 -0.78549,-0.34107 z m 2.4598,-3.705195 v 1.426265 q -0.49092,-0.23254 -0.92501,-0.34106 -0.43408,-0.113689 -0.84749,-0.113689 -0.88883,0 -1.38493,0.496099 -0.49609,0.49092 -0.57877,1.46244 0.34106,-0.25322 0.73897,-0.37724 0.39791,-0.12919 0.86816,-0.12919 1.18339,0 1.90686,0.69246 0.72864,0.69247 0.72864,1.81385 0,1.24023 -0.81132,1.98954 -0.81132,0.74414 -2.17558,0.74414 -1.50378,0 -2.3306,-1.01286 -0.82166,-1.01802 -0.82166,-2.88354 0,-1.91203 0.96118,-3.002404 0.96635,-1.095541 2.64584,-1.095541 0.53226,0 1.03353,0.08268 0.50126,0.08268 0.99218,0.248047 z"
         style="font-weight:bold;stroke-width:0.26458332"
         id="path881"
         inkscape:connector-curvature="0" />
      <path
         d="m 227.27146,102.34005 q 0.78032,0.20154 1.18339,0.7028 0.40825,0.4961 0.40825,1.26608 0,1.14721 -0.8785,1.74666 -0.8785,0.59428 -2.56315,0.59428 -0.59428,0 -1.19373,-0.0982 -0.59428,-0.093 -1.17822,-0.28422 v -1.53479 q 0.5581,0.27906 1.10587,0.42375 0.55294,0.13953 1.08521,0.13953 0.79065,0 1.20923,-0.27389 0.42374,-0.27388 0.42374,-0.78548 0,-0.5271 -0.43408,-0.79582 -0.42891,-0.27388 -1.27124,-0.27388 h -0.79582 v -1.28158 h 0.83716 q 0.74931,0 1.11621,-0.23254 0.36691,-0.23771 0.36691,-0.7183 0,-0.44442 -0.35657,-0.6873 -0.35657,-0.24288 -1.00769,-0.24288 -0.48059,0 -0.97152,0.10852 -0.49092,0.10852 -0.97668,0.32039 v -1.457271 q 0.58911,-0.165364 1.16788,-0.248047 0.57878,-0.08268 1.13689,-0.08268 1.50378,0 2.24792,0.496094 0.74931,0.490926 0.74931,1.483114 0,0.67696 -0.35657,1.11104 -0.35657,0.42892 -1.0542,0.60461 z"
         style="font-weight:bold;stroke-width:0.26458332"
         id="path883"
         inkscape:connector-curvature="0" />
    </g>
  </g>
</svg>
