<?xml version="1.0" encoding="UTF-8" standalone="no"?>
<!-- Created with Inkscape (http://www.inkscape.org/) -->

<svg
   xmlns:dc="http://purl.org/dc/elements/1.1/"
   xmlns:cc="http://creativecommons.org/ns#"
   xmlns:rdf="http://www.w3.org/1999/02/22-rdf-syntax-ns#"
   xmlns:svg="http://www.w3.org/2000/svg"
   xmlns="http://www.w3.org/2000/svg"
   xmlns:sodipodi="http://sodipodi.sourceforge.net/DTD/sodipodi-0.dtd"
   xmlns:inkscape="http://www.inkscape.org/namespaces/inkscape"
   width="27.864264mm"
   height="9.2709999mm"
   viewBox="0 0 27.864264 9.2709999"
   version="1.1"
   id="svg22698"
   inkscape:version="0.92.4 (5da689c313, 2019-01-14)"
   sodipodi:docname="two.svg">
  <defs
     id="defs22692" />
  <sodipodi:namedview
     id="base"
     pagecolor="#ffffff"
     bordercolor="#666666"
     borderopacity="1.0"
     inkscape:pageopacity="0.0"
     inkscape:pageshadow="2"
     inkscape:zoom="1.4"
     inkscape:cx="-98.5236"
     inkscape:cy="55.48858"
     inkscape:document-units="mm"
     inkscape:current-layer="layer1"
     showgrid="false"
     fit-margin-top="0"
     fit-margin-left="0"
     fit-margin-right="0"
     fit-margin-bottom="0"
     inkscape:window-width="1600"
     inkscape:window-height="863"
     inkscape:window-x="0"
     inkscape:window-y="18"
     inkscape:window-maximized="0" />
  <metadata
     id="metadata22695">
    <rdf:RDF>
      <cc:Work
         rdf:about="">
        <dc:format>image/svg+xml</dc:format>
        <dc:type
           rdf:resource="http://purl.org/dc/dcmitype/StillImage" />
        <dc:title></dc:title>
      </cc:Work>
    </rdf:RDF>
  </metadata>
  <g
     inkscape:label="Layer 1"
     inkscape:groupmode="layer"
     id="layer1"
     transform="translate(-49.920072,-105.36002)">
    <g
       aria-label="인면조"
       style="font-style:normal;font-weight:normal;font-size:10.58333302px;line-height:1.25;font-family:sans-serif;letter-spacing:0px;word-spacing:0px;fill:#a62b74;fill-opacity:1;stroke:none;stroke-width:0.26458332"
       id="text23249">
      <path
         d="m 57.487155,105.36002 h -0.867833 v 6.93208 h 0.867833 z m -6.720416,2.9845 c 0,-0.92075 0.6985,-1.57692 1.61925,-1.57692 0.941917,0 1.640417,0.65617 1.640417,1.57692 0,0.94191 -0.6985,1.59808 -1.640417,1.59808 -0.92075,0 -1.61925,-0.65617 -1.61925,-1.59808 z m 4.106333,0 c 0,-1.36525 -1.068916,-2.32834 -2.487083,-2.32834 -1.407583,0 -2.465917,0.96309 -2.465917,2.32834 0,1.37583 1.058334,2.3495 2.465917,2.3495 1.418167,0 2.487083,-0.97367 2.487083,-2.3495 z m -2.624666,5.57741 v -2.33891 h -0.867834 v 3.048 h 6.392333 v -0.70909 z"
         style="fill:#a62b74;fill-opacity:1;stroke-width:0.26458332"
         id="path23329"
         inkscape:connector-curvature="0" />
      <path
         d="m 63.349495,109.92143 h -2.624666 v -3.048 h 2.624666 z m 3.026834,-2.19075 v 1.32292 h -2.180167 v -1.32292 z m -2.180167,2.032 h 2.180167 v 2.51884 h 0.878416 v -6.9215 h -0.878416 v 1.66158 h -2.180167 v -0.83608 h -4.328583 v 4.42383 h 4.328583 z m -2.180167,4.15925 v -2.25425 h -0.867833 v 2.96334 h 6.328833 v -0.70909 z"
         style="fill:#a62b74;fill-opacity:1;stroke-width:0.26458332"
         id="path23331"
         inkscape:connector-curvature="0" />
      <path
         d="m 69.952669,110.94802 c 1.42875,-0.30692 2.921,-1.24884 3.52425,-2.56117 0.60325,1.30175 2.106083,2.23308 3.555999,2.51883 l 0.34925,-0.6985 c -1.651,-0.26458 -3.460749,-1.56633 -3.460749,-3.07975 v -0.20108 h 3.143249 v -0.70908 h -7.186083 v 0.70908 h 3.14325 v 0.20108 c 0,1.51342 -1.799166,2.83634 -3.439583,3.1115 z m 3.958166,1.95791 v -2.29658 h -0.867833 v 2.29658 h -3.8735 v 0.71967 h 8.614833 v -0.71967 z"
         style="fill:#a62b74;fill-opacity:1;stroke-width:0.26458332"
         id="path23333"
         inkscape:connector-curvature="0" />
    </g>
  </g>
</svg>
