<?xml version="1.0" encoding="UTF-8" standalone="no"?>
<!-- Created with Inkscape (http://www.inkscape.org/) -->

<svg
   xmlns:dc="http://purl.org/dc/elements/1.1/"
   xmlns:cc="http://creativecommons.org/ns#"
   xmlns:rdf="http://www.w3.org/1999/02/22-rdf-syntax-ns#"
   xmlns:svg="http://www.w3.org/2000/svg"
   xmlns="http://www.w3.org/2000/svg"
   xmlns:sodipodi="http://sodipodi.sourceforge.net/DTD/sodipodi-0.dtd"
   xmlns:inkscape="http://www.inkscape.org/namespaces/inkscape"
   width="59.774128mm"
   height="130.25668mm"
   viewBox="0 0 59.774128 130.25669"
   version="1.1"
   id="svg8"
   sodipodi:docname="two.svg"
   inkscape:version="0.92.4 (5da689c313, 2019-01-14)">
  <defs
     id="defs2" />
  <sodipodi:namedview
     id="base"
     pagecolor="#ffffff"
     bordercolor="#666666"
     borderopacity="1.0"
     inkscape:pageopacity="0.0"
     inkscape:pageshadow="2"
     inkscape:zoom="0.98994949"
     inkscape:cx="333.89609"
     inkscape:cy="352.30318"
     inkscape:document-units="mm"
     inkscape:current-layer="text387"
     showgrid="false"
     inkscape:window-width="1920"
     inkscape:window-height="1043"
     inkscape:window-x="1600"
     inkscape:window-y="18"
     inkscape:window-maximized="0"
     fit-margin-top="0"
     fit-margin-left="0"
     fit-margin-right="0"
     fit-margin-bottom="0" />
  <metadata
     id="metadata5">
    <rdf:RDF>
      <cc:Work
         rdf:about="">
        <dc:format>image/svg+xml</dc:format>
        <dc:type
           rdf:resource="http://purl.org/dc/dcmitype/StillImage" />
        <dc:title></dc:title>
      </cc:Work>
    </rdf:RDF>
  </metadata>
  <g
     inkscape:label="Layer 1"
     inkscape:groupmode="layer"
     id="layer1"
     transform="translate(-132.78777,-162.14372)">
    <g
       aria-label="Berylone Cobaletto Bromillo Neodymino Tellurino Actino Europetto Xenone"
       style="font-style:normal;font-variant:normal;font-weight:normal;font-stretch:normal;font-size:10.58333302px;line-height:1.25;font-family:'Noto Color Emoji';-inkscape-font-specification:'Noto Color Emoji';letter-spacing:0px;word-spacing:0px;fill:#000000;fill-opacity:1;stroke:none;stroke-width:0.26458332"
       id="text817">
      <g
         aria-label="Berylone
Cobaletto
Plutonino
Neodymino
Bromillo
Tellurino
Actone
Europetto
Xenone
"
         style="font-style:normal;font-variant:normal;font-weight:normal;font-stretch:normal;font-size:10.58333302px;line-height:1.25;font-family:'Noto Color Emoji';-inkscape-font-specification:'Noto Color Emoji';letter-spacing:0px;word-spacing:0px;fill:#000000;fill-opacity:1;stroke:none;stroke-width:0.07000434"
         id="text387">
        <path
           d="m 134.90133,182.73268 v 2.8267 h 1.67432 q 0.84232,0 1.2454,-0.34624 0.40824,-0.35139 0.40824,-1.0697 0,-0.72347 -0.40824,-1.06453 -0.40308,-0.34623 -1.2454,-0.34623 z m 0,-3.17294 v 2.32544 h 1.54513 q 0.76481,0 1.13688,-0.28422 0.37724,-0.28939 0.37724,-0.8785 0,-0.58394 -0.37724,-0.87333 -0.37207,-0.28939 -1.13688,-0.28939 z m -1.04386,-0.85783 h 2.6665 q 1.19373,0 1.83968,0.4961 0.64596,0.49609 0.64596,1.41076 0,0.70797 -0.33073,1.12655 -0.33073,0.41858 -0.97152,0.52193 0.76998,0.16537 1.19373,0.69247 0.42891,0.52193 0.42891,1.30741 0,1.03353 -0.7028,1.5968 -0.7028,0.56328 -1.99988,0.56328 h -2.76985 z"
           style="stroke-width:0.07000434"
           id="path413" />
        <path
           d="m 146.0221,183.28561 v 0.46509 h -4.37183 q 0.062,0.98185 0.58911,1.49862 0.53227,0.5116 1.47795,0.5116 0.54777,0 1.05937,-0.13436 0.51676,-0.13436 1.02319,-0.40308 v 0.89917 q -0.5116,0.21704 -1.04903,0.33073 -0.53744,0.11369 -1.09037,0.11369 -1.38493,0 -2.19625,-0.80615 -0.80615,-0.80616 -0.80615,-2.18075 0,-1.4211 0.76481,-2.25309 0.76998,-0.83716 2.07222,-0.83716 1.16789,0 1.84485,0.75448 0.68213,0.7493 0.68213,2.04121 z m -0.95085,-0.27905 q -0.0103,-0.78031 -0.43925,-1.2454 -0.42374,-0.46509 -1.12654,-0.46509 -0.79582,0 -1.27641,0.44959 -0.47542,0.44958 -0.54777,1.26607 z"
           style="stroke-width:0.07000434"
           id="path415" />
        <path
           d="m 150.93653,181.51828 q -0.1602,-0.093 -0.3514,-0.13436 -0.18604,-0.0465 -0.41341,-0.0465 -0.80616,0 -1.24024,0.5271 -0.42891,0.52193 -0.42891,1.50379 v 3.04891 h -0.95602 v -5.78776 h 0.95602 v 0.89917 q 0.29972,-0.5271 0.78031,-0.78032 0.48059,-0.25838 1.16789,-0.25838 0.0982,0 0.21704,0.0155 0.11886,0.0103 0.26355,0.0362 z"
           style="stroke-width:0.07000434"
           id="path417" />
        <path
           d="m 154.35234,186.95464 q -0.40308,1.03353 -0.78548,1.34876 -0.38241,0.31522 -1.0232,0.31522 h -0.75964 v -0.79582 h 0.55811 q 0.39274,0 0.60978,-0.18603 0.21704,-0.18604 0.48059,-0.8785 l 0.17053,-0.43408 -2.34094,-5.69474 h 1.00769 l 1.80867,4.52685 1.80868,-4.52685 h 1.00769 z"
           style="stroke-width:0.07000434"
           id="path419" />
        <path
           d="m 158.2074,178.37635 h 0.95085 v 8.04086 h -0.95085 z"
           style="stroke-width:0.07000434"
           id="path421" />
        <path
           d="m 163.38538,181.29607 q -0.76481,0 -1.20923,0.59945 -0.44442,0.59428 -0.44442,1.63297 0,1.0387 0.43925,1.63815 0.44442,0.59428 1.2144,0.59428 0.75964,0 1.20406,-0.59945 0.44442,-0.59945 0.44442,-1.63298 0,-1.02836 -0.44442,-1.6278 -0.44442,-0.60462 -1.20406,-0.60462 z m 0,-0.80615 q 1.24023,0 1.9482,0.80615 0.70797,0.80615 0.70797,2.23242 0,1.42111 -0.70797,2.23243 -0.70797,0.80615 -1.9482,0.80615 -1.2454,0 -1.95337,-0.80615 -0.7028,-0.81132 -0.7028,-2.23243 0,-1.42627 0.7028,-2.23242 0.70797,-0.80615 1.95337,-0.80615 z"
           style="stroke-width:0.07000434"
           id="path423" />
        <path
           d="m 172.42359,182.92388 v 3.49333 h -0.95085 v -3.46233 q 0,-0.82165 -0.32039,-1.22989 -0.3204,-0.40825 -0.96118,-0.40825 -0.76998,0 -1.2144,0.49093 -0.44442,0.49092 -0.44442,1.33842 v 3.27112 h -0.95601 v -5.78776 h 0.95601 v 0.89917 q 0.34107,-0.52194 0.80099,-0.78032 0.46509,-0.25838 1.0697,-0.25838 0.99736,0 1.50895,0.62012 0.5116,0.61495 0.5116,1.81384 z"
           style="stroke-width:0.07000434"
           id="path425" />
        <path
           d="m 179.28105,183.28561 v 0.46509 h -4.37183 q 0.062,0.98185 0.58911,1.49862 0.53227,0.5116 1.47795,0.5116 0.54777,0 1.05937,-0.13436 0.51676,-0.13436 1.02319,-0.40308 v 0.89917 q -0.5116,0.21704 -1.04903,0.33073 -0.53744,0.11369 -1.09037,0.11369 -1.38493,0 -2.19625,-0.80615 -0.80615,-0.80616 -0.80615,-2.18075 0,-1.4211 0.76481,-2.25309 0.76998,-0.83716 2.07222,-0.83716 1.16789,0 1.84485,0.75448 0.68213,0.7493 0.68213,2.04121 z m -0.95085,-0.27905 q -0.0103,-0.78031 -0.43925,-1.2454 -0.42374,-0.46509 -1.12654,-0.46509 -0.79582,0 -1.27641,0.44959 -0.47542,0.44958 -0.54777,1.26607 z"
           style="stroke-width:0.07000434"
           id="path427" />
        <path
           d="m 139.63489,192.52536 v 1.10071 q -0.5271,-0.49093 -1.12654,-0.73381 -0.59428,-0.24288 -1.26608,-0.24288 -1.32291,0 -2.02571,0.81132 -0.7028,0.80616 -0.7028,2.33578 0,1.52445 0.7028,2.33577 0.7028,0.80615 2.02571,0.80615 0.6718,0 1.26608,-0.24287 0.59944,-0.24288 1.12654,-0.73381 v 1.09037 q -0.54777,0.37207 -1.16272,0.55811 -0.60978,0.18603 -1.29191,0.18603 -1.75183,0 -2.75952,-1.0697 -1.00769,-1.07487 -1.00769,-2.93005 0,-1.86035 1.00769,-2.93006 1.00769,-1.07487 2.75952,-1.07487 0.69247,0 1.30225,0.18604 0.61495,0.18087 1.15238,0.54777 z"
           style="stroke-width:0.07000434"
           id="path429" />
        <path
           d="m 143.45895,194.52524 q -0.76481,0 -1.20923,0.59944 -0.44442,0.59428 -0.44442,1.63298 0,1.0387 0.43925,1.63814 0.44442,0.59428 1.2144,0.59428 0.75964,0 1.20406,-0.59945 0.44442,-0.59944 0.44442,-1.63297 0,-1.02836 -0.44442,-1.62781 -0.44442,-0.60461 -1.20406,-0.60461 z m 0,-0.80615 q 1.24023,0 1.9482,0.80615 0.70797,0.80615 0.70797,2.23242 0,1.4211 -0.70797,2.23242 -0.70797,0.80615 -1.9482,0.80615 -1.2454,0 -1.95337,-0.80615 -0.7028,-0.81132 -0.7028,-2.23242 0,-1.42627 0.7028,-2.23242 0.70797,-0.80615 1.95337,-0.80615 z"
           style="stroke-width:0.07000434"
           id="path431" />
        <path
           d="m 151.84087,196.75766 q 0,-1.04903 -0.43409,-1.64331 -0.42891,-0.59945 -1.18339,-0.59945 -0.75447,0 -1.18855,0.59945 -0.42892,0.59428 -0.42892,1.64331 0,1.04903 0.42892,1.64848 0.43408,0.59428 1.18855,0.59428 0.75448,0 1.18339,-0.59428 0.43409,-0.59945 0.43409,-1.64848 z m -3.23495,-2.02055 q 0.29972,-0.51676 0.75448,-0.76481 0.45992,-0.25321 1.09554,-0.25321 1.0542,0 1.71049,0.83715 0.66146,0.83716 0.66146,2.20142 0,1.36426 -0.66146,2.20142 -0.65629,0.83715 -1.71049,0.83715 -0.63562,0 -1.09554,-0.24804 -0.45476,-0.25322 -0.75448,-0.76998 v 0.86816 h -0.95601 v -8.04085 h 0.95601 z"
           style="stroke-width:0.07000434"
           id="path433" />
        <path
           d="m 157.03435,196.73699 q -1.15239,0 -1.5968,0.26355 -0.44442,0.26355 -0.44442,0.89917 0,0.50643 0.33073,0.80615 0.33589,0.29456 0.9095,0.29456 0.79065,0 1.26608,-0.55811 0.48059,-0.56327 0.48059,-1.49345 v -0.21187 z m 1.89652,-0.39274 v 3.30212 h -0.95084 v -0.8785 q -0.32557,0.5271 -0.81132,0.78032 -0.48576,0.24804 -1.18856,0.24804 -0.88884,0 -1.41594,-0.49609 -0.52193,-0.50126 -0.52193,-1.33842 0,-0.97668 0.65113,-1.47278 0.65629,-0.49609 1.95336,-0.49609 h 1.33326 v -0.093 q 0,-0.65629 -0.43409,-1.01286 -0.42891,-0.36173 -1.20922,-0.36173 -0.4961,0 -0.96635,0.11885 -0.47026,0.11886 -0.90434,0.35657 v -0.8785 q 0.52193,-0.20154 1.01286,-0.29972 0.49092,-0.10335 0.95601,-0.10335 1.25574,0 1.87586,0.65112 0.62011,0.65112 0.62011,1.97404 z"
           style="stroke-width:0.07000434"
           id="path435" />
        <path
           d="m 160.89458,191.60552 h 0.95084 v 8.04085 h -0.95084 z"
           style="stroke-width:0.07000434"
           id="path437" />
        <path
           d="m 168.7804,196.51478 v 0.46509 h -4.37183 q 0.062,0.98185 0.58912,1.49861 0.53226,0.5116 1.47794,0.5116 0.54777,0 1.05937,-0.13436 0.51676,-0.13436 1.02319,-0.40307 v 0.89917 q -0.51159,0.21704 -1.04903,0.33073 -0.53743,0.11368 -1.09037,0.11368 -1.38493,0 -2.19625,-0.80615 -0.80615,-0.80615 -0.80615,-2.18074 0,-1.42111 0.76481,-2.2531 0.76998,-0.83715 2.07222,-0.83715 1.16789,0 1.84485,0.75447 0.68213,0.74931 0.68213,2.04122 z m -0.95085,-0.27905 q -0.0103,-0.78032 -0.43925,-1.2454 -0.42374,-0.46509 -1.12654,-0.46509 -0.79582,0 -1.27641,0.44958 -0.47542,0.44959 -0.54777,1.26608 z"
           style="stroke-width:0.07000434"
           id="path439" />
        <path
           d="m 171.28154,192.2153 v 1.64331 h 1.95854 v 0.73897 h -1.95854 v 3.14193 q 0,0.70797 0.1912,0.90951 0.19637,0.20154 0.79065,0.20154 h 0.97669 v 0.79581 h -0.97669 q -1.10071,0 -1.51929,-0.40824 -0.41857,-0.41341 -0.41857,-1.49862 v -3.14193 h -0.69764 v -0.73897 h 0.69764 v -1.64331 z"
           style="stroke-width:0.07000434"
           id="path441" />
        <path
           d="m 175.43633,192.2153 v 1.64331 h 1.95853 v 0.73897 h -1.95853 v 3.14193 q 0,0.70797 0.1912,0.90951 0.19637,0.20154 0.79065,0.20154 h 0.97668 v 0.79581 h -0.97668 q -1.10071,0 -1.51929,-0.40824 -0.41858,-0.41341 -0.41858,-1.49862 v -3.14193 h -0.69763 v -0.73897 h 0.69763 v -1.64331 z"
           style="stroke-width:0.07000434"
           id="path443" />
        <path
           d="m 180.89336,194.52524 q -0.76481,0 -1.20923,0.59944 -0.44442,0.59428 -0.44442,1.63298 0,1.0387 0.43925,1.63814 0.44442,0.59428 1.2144,0.59428 0.75964,0 1.20406,-0.59945 0.44441,-0.59944 0.44441,-1.63297 0,-1.02836 -0.44441,-1.62781 -0.44442,-0.60461 -1.20406,-0.60461 z m 0,-0.80615 q 1.24023,0 1.9482,0.80615 0.70796,0.80615 0.70796,2.23242 0,1.4211 -0.70796,2.23242 -0.70797,0.80615 -1.9482,0.80615 -1.24541,0 -1.95337,-0.80615 -0.7028,-0.81132 -0.7028,-2.23242 0,-1.42627 0.7028,-2.23242 0.70796,-0.80615 1.95337,-0.80615 z"
           style="stroke-width:0.07000434"
           id="path445" />
        <path
           d="m 134.90133,206.01808 v 2.89904 h 1.31258 q 0.72864,0 1.12655,-0.37723 0.39791,-0.37724 0.39791,-1.07487 0,-0.69247 -0.39791,-1.06971 -0.39791,-0.37723 -1.12655,-0.37723 z m -1.04386,-0.85783 h 2.35644 q 1.29708,0 1.95854,0.58911 0.66663,0.58394 0.66663,1.71566 0,1.14205 -0.66663,1.72599 -0.66146,0.58394 -1.95854,0.58394 h -1.31258 v 3.10059 h -1.04386 z"
           style="stroke-width:0.07000434"
           id="path447" />
        <path
           d="m 140.20333,204.83469 h 0.95085 v 8.04085 h -0.95085 z"
           style="stroke-width:0.07000434"
           id="path449" />
        <path
           d="m 143.04037,210.59144 v -3.50366 h 0.95085 v 3.46749 q 0,0.82165 0.32039,1.23506 0.32039,0.40825 0.96118,0.40825 0.76998,0 1.2144,-0.49093 0.44958,-0.49093 0.44958,-1.33842 v -3.28145 h 0.95085 v 5.78776 h -0.95085 v -0.88884 q -0.34623,0.5271 -0.80615,0.78549 -0.45475,0.25321 -1.05937,0.25321 -0.99735,0 -1.51412,-0.62012 -0.51676,-0.62011 -0.51676,-1.81384 z m 2.39262,-3.64319 z"
           style="stroke-width:0.07000434"
           id="path451" />
        <path
           d="m 150.797,205.44447 v 1.64331 h 1.95854 v 0.73897 H 150.797 v 3.14193 q 0,0.70797 0.1912,0.9095 0.19637,0.20154 0.79065,0.20154 h 0.97669 v 0.79582 h -0.97669 q -1.1007,0 -1.51928,-0.40825 -0.41858,-0.41341 -0.41858,-1.49861 v -3.14193 h -0.69763 v -0.73897 h 0.69763 v -1.64331 z"
           style="stroke-width:0.07000434"
           id="path453" />
        <path
           d="m 156.25403,207.7544 q -0.76481,0 -1.20923,0.59945 -0.44441,0.59428 -0.44441,1.63298 0,1.03869 0.43925,1.63814 0.44441,0.59428 1.21439,0.59428 0.75965,0 1.20406,-0.59945 0.44442,-0.59945 0.44442,-1.63297 0,-1.02837 -0.44442,-1.62781 -0.44441,-0.60462 -1.20406,-0.60462 z m 0,-0.80615 q 1.24024,0 1.9482,0.80615 0.70797,0.80616 0.70797,2.23243 0,1.4211 -0.70797,2.23242 -0.70796,0.80615 -1.9482,0.80615 -1.2454,0 -1.95337,-0.80615 -0.7028,-0.81132 -0.7028,-2.23242 0,-1.42627 0.7028,-2.23243 0.70797,-0.80615 1.95337,-0.80615 z"
           style="stroke-width:0.07000434"
           id="path455" />
        <path
           d="m 165.29224,209.38221 v 3.49333 h -0.95085 v -3.46232 q 0,-0.82166 -0.32039,-1.2299 -0.32039,-0.40825 -0.96118,-0.40825 -0.76998,0 -1.2144,0.49093 -0.44441,0.49093 -0.44441,1.33842 v 3.27112 h -0.95602 v -5.78776 h 0.95602 v 0.89917 q 0.34106,-0.52193 0.80098,-0.78032 0.46509,-0.25838 1.0697,-0.25838 0.99736,0 1.50895,0.62012 0.5116,0.61495 0.5116,1.81384 z"
           style="stroke-width:0.07000434"
           id="path457" />
        <path
           d="m 167.1991,207.08778 h 0.95085 v 5.78776 h -0.95085 z m 0,-2.25309 h 0.95085 v 1.20406 h -0.95085 z"
           style="stroke-width:0.07000434"
           id="path459" />
        <path
           d="m 174.9454,209.38221 v 3.49333 h -0.95085 v -3.46232 q 0,-0.82166 -0.32039,-1.2299 -0.3204,-0.40825 -0.96118,-0.40825 -0.76998,0 -1.2144,0.49093 -0.44442,0.49093 -0.44442,1.33842 v 3.27112 h -0.95601 v -5.78776 h 0.95601 v 0.89917 q 0.34107,-0.52193 0.80099,-0.78032 0.46508,-0.25838 1.0697,-0.25838 0.99735,0 1.50895,0.62012 0.5116,0.61495 0.5116,1.81384 z"
           style="stroke-width:0.07000434"
           id="path461" />
        <path
           d="m 179.09502,207.7544 q -0.76481,0 -1.20923,0.59945 -0.44442,0.59428 -0.44442,1.63298 0,1.03869 0.43925,1.63814 0.44442,0.59428 1.2144,0.59428 0.75964,0 1.20406,-0.59945 0.44441,-0.59945 0.44441,-1.63297 0,-1.02837 -0.44441,-1.62781 -0.44442,-0.60462 -1.20406,-0.60462 z m 0,-0.80615 q 1.24023,0 1.9482,0.80615 0.70796,0.80616 0.70796,2.23243 0,1.4211 -0.70796,2.23242 -0.70797,0.80615 -1.9482,0.80615 -1.24541,0 -1.95337,-0.80615 -0.7028,-0.81132 -0.7028,-2.23242 0,-1.42627 0.7028,-2.23243 0.70796,-0.80615 1.95337,-0.80615 z"
           style="stroke-width:0.07000434"
           id="path463" />
        <path
           d="m 133.85747,218.38941 h 1.4056 l 3.42098,6.45439 v -6.45439 h 1.01285 v 7.71529 h -1.40559 l -3.42098,-6.45438 v 6.45438 h -1.01286 z"
           style="stroke-width:0.07000434"
           id="path465" />
        <path
           d="m 146.68356,222.97311 v 0.46509 h -4.37183 q 0.062,0.98185 0.58911,1.49862 0.53227,0.51159 1.47795,0.51159 0.54777,0 1.05937,-0.13435 0.51676,-0.13436 1.02319,-0.40308 v 0.89917 q -0.5116,0.21704 -1.04903,0.33073 -0.53744,0.11369 -1.09038,0.11369 -1.38492,0 -2.19624,-0.80616 -0.80616,-0.80615 -0.80616,-2.18074 0,-1.4211 0.76482,-2.25309 0.76997,-0.83716 2.07222,-0.83716 1.16789,0 1.84485,0.75447 0.68213,0.74931 0.68213,2.04122 z m -0.95085,-0.27905 q -0.0103,-0.78031 -0.43925,-1.2454 -0.42375,-0.46509 -1.12654,-0.46509 -0.79582,0 -1.27641,0.44959 -0.47543,0.44958 -0.54777,1.26607 z"
           style="stroke-width:0.07000434"
           id="path467" />
        <path
           d="m 150.48694,220.98357 q -0.76481,0 -1.20923,0.59945 -0.44441,0.59428 -0.44441,1.63297 0,1.0387 0.43925,1.63814 0.44441,0.59428 1.21439,0.59428 0.75965,0 1.20406,-0.59944 0.44442,-0.59945 0.44442,-1.63298 0,-1.02836 -0.44442,-1.62781 -0.44441,-0.60461 -1.20406,-0.60461 z m 0,-0.80615 q 1.24024,0 1.9482,0.80615 0.70797,0.80615 0.70797,2.23242 0,1.4211 -0.70797,2.23242 -0.70796,0.80616 -1.9482,0.80616 -1.2454,0 -1.95337,-0.80616 -0.7028,-0.81132 -0.7028,-2.23242 0,-1.42627 0.7028,-2.23242 0.70797,-0.80615 1.95337,-0.80615 z"
           style="stroke-width:0.07000434"
           id="path469" />
        <path
           d="m 158.52263,221.19544 v -3.13159 h 0.95084 v 8.04085 h -0.95084 v -0.86816 q -0.29972,0.51676 -0.75964,0.76998 -0.45476,0.24805 -1.09555,0.24805 -1.04903,0 -1.71049,-0.83716 -0.65629,-0.83716 -0.65629,-2.20142 0,-1.36426 0.65629,-2.20141 0.66146,-0.83716 1.71049,-0.83716 0.64079,0 1.09555,0.25321 0.45992,0.24805 0.75964,0.76481 z m -3.24011,2.02055 q 0,1.04903 0.42891,1.64848 0.43408,0.59428 1.18856,0.59428 0.75447,0 1.18856,-0.59428 0.43408,-0.59945 0.43408,-1.64848 0,-1.04903 -0.43408,-1.64331 -0.43409,-0.59944 -1.18856,-0.59944 -0.75448,0 -1.18856,0.59944 -0.42891,0.59428 -0.42891,1.64331 z"
           style="stroke-width:0.07000434"
           id="path471" />
        <path
           d="m 163.84013,226.64214 q -0.40307,1.03353 -0.78548,1.34875 -0.3824,0.31523 -1.02319,0.31523 h -0.75965 v -0.79582 h 0.55811 q 0.39274,0 0.60978,-0.18603 0.21704,-0.18604 0.48059,-0.8785 l 0.17053,-0.43408 -2.34094,-5.69475 h 1.00769 l 1.80868,4.52686 1.80867,-4.52686 h 1.00769 z"
           style="stroke-width:0.07000434"
           id="path473" />
        <path
           d="m 172.20138,221.42799 q 0.35657,-0.64079 0.85266,-0.94568 0.49609,-0.30489 1.16789,-0.30489 0.90433,0 1.39526,0.63562 0.49093,0.63045 0.49093,1.79834 v 3.49332 h -0.95602 v -3.46232 q 0,-0.83199 -0.29455,-1.23506 -0.29456,-0.40308 -0.89917,-0.40308 -0.73898,0 -1.16789,0.49093 -0.42892,0.49092 -0.42892,1.33842 v 3.27111 h -0.95601 v -3.46232 q 0,-0.83715 -0.29455,-1.23506 -0.29456,-0.40308 -0.90951,-0.40308 -0.72864,0 -1.15755,0.49609 -0.42892,0.49093 -0.42892,1.33326 v 3.27111 h -0.95601 v -5.78776 h 0.95601 v 0.89917 q 0.32556,-0.53226 0.78032,-0.78548 0.45475,-0.25321 1.08003,-0.25321 0.63046,0 1.06971,0.32039 0.44441,0.3204 0.65629,0.93018 z"
           style="stroke-width:0.07000434"
           id="path475" />
        <path
           d="m 178.00981,220.31694 h 0.95085 v 5.78776 h -0.95085 z m 0,-2.25309 h 0.95085 v 1.20406 h -0.95085 z"
           style="stroke-width:0.07000434"
           id="path477" />
        <path
           d="m 185.75611,222.61138 v 3.49332 h -0.95085 v -3.46232 q 0,-0.82165 -0.32039,-1.2299 -0.3204,-0.40824 -0.96118,-0.40824 -0.76998,0 -1.2144,0.49093 -0.44442,0.49092 -0.44442,1.33842 v 3.27111 h -0.95601 v -5.78776 h 0.95601 v 0.89917 q 0.34107,-0.52193 0.80099,-0.78031 0.46509,-0.25838 1.0697,-0.25838 0.99736,0 1.50895,0.62012 0.5116,0.61494 0.5116,1.81384 z"
           style="stroke-width:0.07000434"
           id="path479" />
        <path
           d="m 189.90572,220.98357 q -0.76481,0 -1.20923,0.59945 -0.44441,0.59428 -0.44441,1.63297 0,1.0387 0.43925,1.63814 0.44441,0.59428 1.21439,0.59428 0.75965,0 1.20406,-0.59944 0.44442,-0.59945 0.44442,-1.63298 0,-1.02836 -0.44442,-1.62781 -0.44441,-0.60461 -1.20406,-0.60461 z m 0,-0.80615 q 1.24024,0 1.9482,0.80615 0.70797,0.80615 0.70797,2.23242 0,1.4211 -0.70797,2.23242 -0.70796,0.80616 -1.9482,0.80616 -1.2454,0 -1.95337,-0.80616 -0.7028,-0.81132 -0.7028,-2.23242 0,-1.42627 0.7028,-2.23242 0.70797,-0.80615 1.95337,-0.80615 z"
           style="stroke-width:0.07000434"
           id="path481" />
        <path
           d="m 134.90133,235.64934 v 2.8267 h 1.67432 q 0.84232,0 1.2454,-0.34623 0.40824,-0.3514 0.40824,-1.0697 0,-0.72347 -0.40824,-1.06454 -0.40308,-0.34623 -1.2454,-0.34623 z m 0,-3.17293 v 2.32544 h 1.54513 q 0.76481,0 1.13688,-0.28422 0.37724,-0.28939 0.37724,-0.8785 0,-0.58395 -0.37724,-0.87333 -0.37207,-0.28939 -1.13688,-0.28939 z m -1.04386,-0.85783 h 2.6665 q 1.19373,0 1.83968,0.49609 0.64596,0.4961 0.64596,1.41077 0,0.70797 -0.33073,1.12655 -0.33073,0.41858 -0.97152,0.52193 0.76998,0.16536 1.19373,0.69246 0.42891,0.52193 0.42891,1.30742 0,1.03352 -0.7028,1.5968 -0.7028,0.56327 -1.99988,0.56327 h -2.76985 z"
           style="stroke-width:0.07000434"
           id="path483" />
        <path
           d="m 144.4253,234.43495 q -0.1602,-0.093 -0.3514,-0.13436 -0.18604,-0.0465 -0.41341,-0.0465 -0.80616,0 -1.24024,0.5271 -0.42891,0.52193 -0.42891,1.50378 v 3.04891 h -0.95602 v -5.78776 h 0.95602 v 0.89917 q 0.29972,-0.5271 0.78031,-0.78031 0.48059,-0.25839 1.16789,-0.25839 0.0982,0 0.21704,0.0155 0.11886,0.0103 0.26355,0.0362 z"
           style="stroke-width:0.07000434"
           id="path485" />
        <path
           d="m 147.44837,234.21274 q -0.76481,0 -1.20923,0.59944 -0.44442,0.59428 -0.44442,1.63298 0,1.03869 0.43925,1.63814 0.44442,0.59428 1.2144,0.59428 0.75964,0 1.20406,-0.59945 0.44442,-0.59944 0.44442,-1.63297 0,-1.02836 -0.44442,-1.62781 -0.44442,-0.60461 -1.20406,-0.60461 z m 0,-0.80616 q 1.24023,0 1.9482,0.80616 0.70797,0.80615 0.70797,2.23242 0,1.4211 -0.70797,2.23242 -0.70797,0.80615 -1.9482,0.80615 -1.2454,0 -1.95337,-0.80615 -0.7028,-0.81132 -0.7028,-2.23242 0,-1.42627 0.7028,-2.23242 0.70797,-0.80616 1.95337,-0.80616 z"
           style="stroke-width:0.07000434"
           id="path487" />
        <path
           d="m 156.18169,234.65715 q 0.35656,-0.64078 0.85266,-0.94567 0.49609,-0.3049 1.16788,-0.3049 0.90434,0 1.39527,0.63562 0.49092,0.63046 0.49092,1.79834 v 3.49333 h -0.95601 v -3.46232 q 0,-0.83199 -0.29456,-1.23507 -0.29455,-0.40307 -0.89917,-0.40307 -0.73897,0 -1.16788,0.49092 -0.42892,0.49093 -0.42892,1.33842 v 3.27112 h -0.95601 v -3.46232 q 0,-0.83716 -0.29456,-1.23507 -0.29455,-0.40307 -0.9095,-0.40307 -0.72864,0 -1.15755,0.49609 -0.42892,0.49093 -0.42892,1.33325 v 3.27112 h -0.95601 v -5.78776 h 0.95601 v 0.89917 q 0.32556,-0.53227 0.78032,-0.78548 0.45475,-0.25322 1.08003,-0.25322 0.63046,0 1.06971,0.3204 0.44441,0.32039 0.65629,0.93017 z"
           style="stroke-width:0.07000434"
           id="path489" />
        <path
           d="m 161.99012,233.54611 h 0.95084 v 5.78776 h -0.95084 z m 0,-2.25309 h 0.95084 v 1.20406 h -0.95084 z"
           style="stroke-width:0.07000434"
           id="path491" />
        <path
           d="m 164.92534,231.29302 h 0.95084 v 8.04085 h -0.95084 z"
           style="stroke-width:0.07000434"
           id="path493" />
        <path
           d="m 167.86056,231.29302 h 0.95085 v 8.04085 h -0.95085 z"
           style="stroke-width:0.07000434"
           id="path495" />
        <path
           d="m 173.03854,234.21274 q -0.76482,0 -1.20923,0.59944 -0.44442,0.59428 -0.44442,1.63298 0,1.03869 0.43925,1.63814 0.44442,0.59428 1.2144,0.59428 0.75964,0 1.20406,-0.59945 0.44441,-0.59944 0.44441,-1.63297 0,-1.02836 -0.44441,-1.62781 -0.44442,-0.60461 -1.20406,-0.60461 z m 0,-0.80616 q 1.24023,0 1.9482,0.80616 0.70796,0.80615 0.70796,2.23242 0,1.4211 -0.70796,2.23242 -0.70797,0.80615 -1.9482,0.80615 -1.24541,0 -1.95337,-0.80615 -0.7028,-0.81132 -0.7028,-2.23242 0,-1.42627 0.7028,-2.23242 0.70796,-0.80616 1.95337,-0.80616 z"
           style="stroke-width:0.07000434"
           id="path497" />
        <path
           d="m 132.78777,244.84775 h 6.52673 v 0.8785 h -2.73885 v 6.83679 h -1.04903 v -6.83679 h -2.73885 z"
           style="stroke-width:0.07000434"
           id="path499" />
        <path
           d="m 143.43828,249.43145 v 0.46508 h -4.37183 q 0.062,0.98186 0.58911,1.49862 0.53227,0.5116 1.47795,0.5116 0.54777,0 1.05937,-0.13436 0.51676,-0.13436 1.02319,-0.40308 v 0.89917 q -0.5116,0.21704 -1.04903,0.33073 -0.53744,0.11369 -1.09038,0.11369 -1.38492,0 -2.19624,-0.80615 -0.80616,-0.80616 -0.80616,-2.18075 0,-1.4211 0.76482,-2.25309 0.76997,-0.83716 2.07222,-0.83716 1.16789,0 1.84485,0.75448 0.68213,0.7493 0.68213,2.04122 z m -0.95085,-0.27906 q -0.0103,-0.78031 -0.43925,-1.2454 -0.42374,-0.46509 -1.12654,-0.46509 -0.79582,0 -1.27641,0.44959 -0.47543,0.44958 -0.54777,1.26607 z"
           style="stroke-width:0.07000434"
           id="path501" />
        <path
           d="m 144.99891,244.52218 h 0.95084 v 8.04086 h -0.95084 z"
           style="stroke-width:0.07000434"
           id="path503" />
        <path
           d="m 147.93413,244.52218 h 0.95084 v 8.04086 h -0.95084 z"
           style="stroke-width:0.07000434"
           id="path505" />
        <path
           d="m 150.77116,250.27894 v -3.50366 h 0.95085 v 3.46749 q 0,0.82165 0.32039,1.23506 0.3204,0.40825 0.96119,0.40825 0.76997,0 1.21439,-0.49093 0.44959,-0.49093 0.44959,-1.33842 v -3.28145 h 0.95084 v 5.78776 h -0.95084 v -0.88884 q -0.34624,0.5271 -0.80616,0.78548 -0.45475,0.25322 -1.05936,0.25322 -0.99736,0 -1.51412,-0.62012 -0.51677,-0.62012 -0.51677,-1.81384 z m 2.39262,-3.64319 z"
           style="stroke-width:0.07000434"
           id="path507" />
        <path
           d="m 160.94109,247.66411 q -0.1602,-0.093 -0.3514,-0.13436 -0.18604,-0.0465 -0.41342,-0.0465 -0.80615,0 -1.24023,0.5271 -0.42891,0.52194 -0.42891,1.50379 v 3.04891 h -0.95602 v -5.78776 h 0.95602 v 0.89917 q 0.29972,-0.5271 0.78031,-0.78032 0.48059,-0.25838 1.16789,-0.25838 0.0982,0 0.21704,0.0155 0.11885,0.0103 0.26355,0.0362 z"
           style="stroke-width:0.07000434"
           id="path509" />
        <path
           d="m 161.94877,246.77528 h 0.95085 v 5.78776 h -0.95085 z m 0,-2.2531 h 0.95085 v 1.20407 h -0.95085 z"
           style="stroke-width:0.07000434"
           id="path511" />
        <path
           d="m 169.69507,249.06971 v 3.49333 h -0.95084 v -3.46232 q 0,-0.82166 -0.3204,-1.2299 -0.32039,-0.40825 -0.96118,-0.40825 -0.76998,0 -1.21439,0.49093 -0.44442,0.49093 -0.44442,1.33842 v 3.27112 h -0.95602 v -5.78776 h 0.95602 v 0.89917 q 0.34106,-0.52194 0.80098,-0.78032 0.46509,-0.25838 1.0697,-0.25838 0.99736,0 1.50896,0.62012 0.51159,0.61495 0.51159,1.81384 z"
           style="stroke-width:0.07000434"
           id="path513" />
        <path
           d="m 173.84469,247.4419 q -0.76481,0 -1.20923,0.59945 -0.44442,0.59428 -0.44442,1.63297 0,1.0387 0.43925,1.63815 0.44442,0.59428 1.2144,0.59428 0.75964,0 1.20406,-0.59945 0.44442,-0.59945 0.44442,-1.63298 0,-1.02836 -0.44442,-1.6278 -0.44442,-0.60462 -1.20406,-0.60462 z m 0,-0.80615 q 1.24023,0 1.9482,0.80615 0.70797,0.80616 0.70797,2.23242 0,1.42111 -0.70797,2.23243 -0.70797,0.80615 -1.9482,0.80615 -1.2454,0 -1.95337,-0.80615 -0.7028,-0.81132 -0.7028,-2.23243 0,-1.42626 0.7028,-2.23242 0.70797,-0.80615 1.95337,-0.80615 z"
           style="stroke-width:0.07000434"
           id="path515" />
        <path
           d="m 136.43612,259.10527 -1.41593,3.83956 h 2.83703 z m -0.58911,-1.02836 h 1.18339 l 2.94039,7.71529 h -1.08521 l -0.7028,-1.9792 h -3.47782 l -0.7028,1.9792 h -1.10071 z"
           style="stroke-width:0.07000434"
           id="path517" />
        <path
           d="m 145.02991,260.22665 v 0.88884 q -0.40307,-0.22221 -0.81132,-0.33073 -0.40307,-0.11369 -0.81649,-0.11369 -0.925,0 -1.4366,0.58911 -0.5116,0.58394 -0.5116,1.64331 0,1.05937 0.5116,1.64848 0.5116,0.58394 1.4366,0.58394 0.41342,0 0.81649,-0.10852 0.40825,-0.11369 0.81132,-0.33589 v 0.87849 q -0.39791,0.18604 -0.82682,0.27906 -0.42375,0.093 -0.90434,0.093 -1.30741,0 -2.07739,-0.82166 -0.76998,-0.82166 -0.76998,-2.21692 0,-1.41593 0.77515,-2.22725 0.78031,-0.81132 2.13423,-0.81132 0.43925,0 0.85783,0.093 0.41858,0.0879 0.81132,0.26872 z"
           style="stroke-width:0.07000434"
           id="path519" />
        <path
           d="m 147.6344,258.36113 v 1.64331 h 1.95854 v 0.73898 h -1.95854 v 3.14192 q 0,0.70797 0.19121,0.90951 0.19637,0.20154 0.79065,0.20154 h 0.97668 v 0.79581 h -0.97668 q -1.10071,0 -1.51929,-0.40824 -0.41858,-0.41341 -0.41858,-1.49862 v -3.14192 h -0.69763 v -0.73898 h 0.69763 v -1.64331 z"
           style="stroke-width:0.07000434"
           id="path521" />
        <path
           d="m 153.09143,260.67107 q -0.76481,0 -1.20922,0.59945 -0.44442,0.59427 -0.44442,1.63297 0,1.0387 0.43925,1.63814 0.44442,0.59428 1.21439,0.59428 0.75965,0 1.20407,-0.59944 0.44441,-0.59945 0.44441,-1.63298 0,-1.02836 -0.44441,-1.62781 -0.44442,-0.60461 -1.20407,-0.60461 z m 0,-0.80615 q 1.24024,0 1.94821,0.80615 0.70796,0.80615 0.70796,2.23242 0,1.4211 -0.70796,2.23242 -0.70797,0.80616 -1.94821,0.80616 -1.2454,0 -1.95336,-0.80616 -0.7028,-0.81132 -0.7028,-2.23242 0,-1.42627 0.7028,-2.23242 0.70796,-0.80615 1.95336,-0.80615 z"
           style="stroke-width:0.07000434"
           id="path523" />
        <path
           d="m 162.12964,262.29888 v 3.49332 h -0.95084 v -3.46232 q 0,-0.82165 -0.3204,-1.2299 -0.32039,-0.40824 -0.96118,-0.40824 -0.76998,0 -1.21439,0.49093 -0.44442,0.49092 -0.44442,1.33842 v 3.27111 h -0.95602 v -5.78776 h 0.95602 v 0.89917 q 0.34106,-0.52193 0.80098,-0.78031 0.46509,-0.25838 1.06971,-0.25838 0.99735,0 1.50895,0.62011 0.51159,0.61495 0.51159,1.81385 z"
           style="stroke-width:0.07000434"
           id="path525" />
        <path
           d="m 168.98711,262.66061 v 0.46509 h -4.37183 q 0.062,0.98185 0.58911,1.49862 0.53227,0.51159 1.47795,0.51159 0.54777,0 1.05936,-0.13436 0.51677,-0.13435 1.0232,-0.40307 v 0.89917 q -0.5116,0.21704 -1.04903,0.33073 -0.53744,0.11369 -1.09038,0.11369 -1.38493,0 -2.19625,-0.80616 -0.80615,-0.80615 -0.80615,-2.18074 0,-1.4211 0.76481,-2.2531 0.76998,-0.83715 2.07223,-0.83715 1.16789,0 1.84485,0.75447 0.68213,0.74931 0.68213,2.04122 z m -0.95085,-0.27905 q -0.0103,-0.78032 -0.43925,-1.2454 -0.42375,-0.46509 -1.12655,-0.46509 -0.79581,0 -1.2764,0.44958 -0.47543,0.44959 -0.54777,1.26608 z"
           style="stroke-width:0.07000434"
           id="path527" />
        <path
           d="m 133.85747,271.30608 h 4.87825 v 0.8785 h -3.83439 v 2.2841 h 3.6742 v 0.8785 h -3.6742 v 2.79569 h 3.92741 v 0.8785 h -4.97127 z"
           style="stroke-width:0.07000434"
           id="path529" />
        <path
           d="m 140.41521,276.73727 v -3.50366 h 0.95084 v 3.46749 q 0,0.82165 0.3204,1.23506 0.32039,0.40825 0.96118,0.40825 0.76998,0 1.21439,-0.49093 0.44959,-0.49092 0.44959,-1.33842 v -3.28145 h 0.95085 v 5.78776 h -0.95085 v -0.88883 q -0.34623,0.52709 -0.80615,0.78548 -0.45476,0.25321 -1.05937,0.25321 -0.99735,0 -1.51412,-0.62012 -0.51676,-0.62011 -0.51676,-1.81384 z m 2.39262,-3.64319 z"
           style="stroke-width:0.07000434"
           id="path531" />
        <path
           d="m 150.58513,274.12244 q -0.1602,-0.093 -0.3514,-0.13435 -0.18604,-0.0465 -0.41341,-0.0465 -0.80616,0 -1.24024,0.5271 -0.42891,0.52193 -0.42891,1.50378 v 3.04891 h -0.95602 v -5.78776 h 0.95602 v 0.89917 q 0.29972,-0.5271 0.78031,-0.78031 0.48059,-0.25839 1.16789,-0.25839 0.0982,0 0.21704,0.0155 0.11886,0.0103 0.26355,0.0362 z"
           style="stroke-width:0.07000434"
           id="path533" />
        <path
           d="m 153.6082,273.90024 q -0.76481,0 -1.20923,0.59944 -0.44442,0.59428 -0.44442,1.63298 0,1.03869 0.43925,1.63814 0.44442,0.59428 1.2144,0.59428 0.75964,0 1.20406,-0.59945 0.44442,-0.59944 0.44442,-1.63297 0,-1.02836 -0.44442,-1.62781 -0.44442,-0.60461 -1.20406,-0.60461 z m 0,-0.80616 q 1.24023,0 1.9482,0.80616 0.70797,0.80615 0.70797,2.23242 0,1.4211 -0.70797,2.23242 -0.70797,0.80615 -1.9482,0.80615 -1.2454,0 -1.95337,-0.80615 -0.7028,-0.81132 -0.7028,-2.23242 0,-1.42627 0.7028,-2.23242 0.70797,-0.80616 1.95337,-0.80616 z"
           style="stroke-width:0.07000434"
           id="path535" />
        <path
           d="m 158.75517,278.15321 v 3.06958 h -0.95601 v -7.98918 h 0.95601 v 0.8785 q 0.29973,-0.51677 0.75448,-0.76481 0.45992,-0.25322 1.09554,-0.25322 1.0542,0 1.71049,0.83716 0.66146,0.83716 0.66146,2.20142 0,1.36425 -0.66146,2.20141 -0.65629,0.83716 -1.71049,0.83716 -0.63562,0 -1.09554,-0.24805 -0.45475,-0.25321 -0.75448,-0.76997 z m 3.23495,-2.02055 q 0,-1.04903 -0.43409,-1.64331 -0.42891,-0.59945 -1.18339,-0.59945 -0.75447,0 -1.18855,0.59945 -0.42892,0.59428 -0.42892,1.64331 0,1.04903 0.42892,1.64848 0.43408,0.59427 1.18855,0.59427 0.75448,0 1.18339,-0.59427 0.43409,-0.59945 0.43409,-1.64848 z"
           style="stroke-width:0.07000434"
           id="path537" />
        <path
           d="m 169.50387,275.88978 v 0.46509 h -4.37183 q 0.062,0.98185 0.58911,1.49861 0.53227,0.5116 1.47795,0.5116 0.54777,0 1.05937,-0.13436 0.51676,-0.13436 1.02319,-0.40308 v 0.89917 q -0.5116,0.21705 -1.04903,0.33073 -0.53744,0.11369 -1.09037,0.11369 -1.38493,0 -2.19625,-0.80615 -0.80615,-0.80615 -0.80615,-2.18075 0,-1.4211 0.76481,-2.25309 0.76998,-0.83716 2.07222,-0.83716 1.16789,0 1.84485,0.75448 0.68213,0.74931 0.68213,2.04122 z m -0.95085,-0.27905 q -0.0103,-0.78032 -0.43925,-1.24541 -0.42374,-0.46508 -1.12654,-0.46508 -0.79582,0 -1.27641,0.44958 -0.47542,0.44959 -0.54777,1.26607 z"
           style="stroke-width:0.07000434"
           id="path539" />
        <path
           d="m 172.00501,271.5903 v 1.64331 h 1.95854 v 0.73897 h -1.95854 v 3.14193 q 0,0.70797 0.1912,0.9095 0.19637,0.20154 0.79065,0.20154 h 0.97669 v 0.79582 h -0.97669 q -1.10071,0 -1.51929,-0.40824 -0.41858,-0.41342 -0.41858,-1.49862 v -3.14193 h -0.69763 v -0.73897 h 0.69763 v -1.64331 z"
           style="stroke-width:0.07000434"
           id="path541" />
        <path
           d="m 176.15979,271.5903 v 1.64331 h 1.95854 v 0.73897 h -1.95854 v 3.14193 q 0,0.70797 0.19121,0.9095 0.19637,0.20154 0.79065,0.20154 h 0.97668 v 0.79582 h -0.97668 q -1.10071,0 -1.51929,-0.40824 -0.41858,-0.41342 -0.41858,-1.49862 v -3.14193 h -0.69763 v -0.73897 h 0.69763 v -1.64331 z"
           style="stroke-width:0.07000434"
           id="path543" />
        <path
           d="m 181.61683,273.90024 q -0.76482,0 -1.20923,0.59944 -0.44442,0.59428 -0.44442,1.63298 0,1.03869 0.43925,1.63814 0.44442,0.59428 1.2144,0.59428 0.75964,0 1.20406,-0.59945 0.44441,-0.59944 0.44441,-1.63297 0,-1.02836 -0.44441,-1.62781 -0.44442,-0.60461 -1.20406,-0.60461 z m 0,-0.80616 q 1.24023,0 1.9482,0.80616 0.70796,0.80615 0.70796,2.23242 0,1.4211 -0.70796,2.23242 -0.70797,0.80615 -1.9482,0.80615 -1.24541,0 -1.95337,-0.80615 -0.7028,-0.81132 -0.7028,-2.23242 0,-1.42627 0.7028,-2.23242 0.70796,-0.80616 1.95337,-0.80616 z"
           style="stroke-width:0.07000434"
           id="path545" />
        <path
           d="m 133.4854,284.53524 h 1.12138 l 1.91719,2.86805 1.92753,-2.86805 h 1.12138 l -2.48047,3.7052 2.64584,4.0101 h -1.12138 l -2.17041,-3.28146 -2.18592,3.28146 H 133.134 l 2.75435,-4.11862 z"
           style="stroke-width:0.07000434"
           id="path547" />
        <path
           d="m 145.54668,289.11894 v 0.46509 h -4.37183 q 0.062,0.98185 0.58911,1.49862 0.53227,0.5116 1.47795,0.5116 0.54777,0 1.05936,-0.13436 0.51677,-0.13436 1.0232,-0.40308 v 0.89917 q -0.5116,0.21704 -1.04903,0.33073 -0.53744,0.11369 -1.09038,0.11369 -1.38492,0 -2.19624,-0.80615 -0.80616,-0.80616 -0.80616,-2.18075 0,-1.4211 0.76481,-2.25309 0.76998,-0.83716 2.07223,-0.83716 1.16789,0 1.84485,0.75448 0.68213,0.7493 0.68213,2.04121 z m -0.95085,-0.27905 q -0.0103,-0.78031 -0.43925,-1.2454 -0.42375,-0.46509 -1.12655,-0.46509 -0.79581,0 -1.2764,0.44959 -0.47543,0.44958 -0.54777,1.26607 z"
           style="stroke-width:0.07000434"
           id="path549" />
        <path
           d="m 151.91838,288.75721 v 3.49333 h -0.95085 v -3.46232 q 0,-0.82166 -0.32039,-1.2299 -0.32039,-0.40825 -0.96118,-0.40825 -0.76998,0 -1.2144,0.49093 -0.44442,0.49092 -0.44442,1.33842 v 3.27112 h -0.95601 v -5.78776 h 0.95601 v 0.89917 q 0.34107,-0.52194 0.80099,-0.78032 0.46509,-0.25838 1.0697,-0.25838 0.99736,0 1.50895,0.62012 0.5116,0.61495 0.5116,1.81384 z"
           style="stroke-width:0.07000434"
           id="path551" />
        <path
           d="m 156.068,287.1294 q -0.76481,0 -1.20923,0.59945 -0.44442,0.59428 -0.44442,1.63297 0,1.0387 0.43925,1.63815 0.44442,0.59428 1.2144,0.59428 0.75964,0 1.20406,-0.59945 0.44442,-0.59945 0.44442,-1.63298 0,-1.02836 -0.44442,-1.6278 -0.44442,-0.60462 -1.20406,-0.60462 z m 0,-0.80615 q 1.24023,0 1.9482,0.80615 0.70797,0.80615 0.70797,2.23242 0,1.42111 -0.70797,2.23243 -0.70797,0.80615 -1.9482,0.80615 -1.24541,0 -1.95337,-0.80615 -0.7028,-0.81132 -0.7028,-2.23243 0,-1.42627 0.7028,-2.23242 0.70796,-0.80615 1.95337,-0.80615 z"
           style="stroke-width:0.07000434"
           id="path553" />
        <path
           d="m 165.10621,288.75721 v 3.49333 h -0.95085 v -3.46232 q 0,-0.82166 -0.32039,-1.2299 -0.3204,-0.40825 -0.96119,-0.40825 -0.76997,0 -1.21439,0.49093 -0.44442,0.49092 -0.44442,1.33842 v 3.27112 h -0.95601 v -5.78776 h 0.95601 v 0.89917 q 0.34107,-0.52194 0.80099,-0.78032 0.46508,-0.25838 1.0697,-0.25838 0.99735,0 1.50895,0.62012 0.5116,0.61495 0.5116,1.81384 z"
           style="stroke-width:0.07000434"
           id="path555" />
        <path
           d="m 171.96367,289.11894 v 0.46509 h -4.37183 q 0.062,0.98185 0.58911,1.49862 0.53227,0.5116 1.47795,0.5116 0.54777,0 1.05936,-0.13436 0.51677,-0.13436 1.0232,-0.40308 v 0.89917 q -0.5116,0.21704 -1.04903,0.33073 -0.53744,0.11369 -1.09038,0.11369 -1.38493,0 -2.19625,-0.80615 -0.80615,-0.80616 -0.80615,-2.18075 0,-1.4211 0.76481,-2.25309 0.76998,-0.83716 2.07223,-0.83716 1.16789,0 1.84485,0.75448 0.68213,0.7493 0.68213,2.04121 z m -0.95085,-0.27905 q -0.0103,-0.78031 -0.43925,-1.2454 -0.42375,-0.46509 -1.12655,-0.46509 -0.79581,0 -1.2764,0.44959 -0.47543,0.44958 -0.54777,1.26607 z"
           style="stroke-width:0.07000434"
           id="path557" />
      </g>
      <g
         aria-label="Guest List"
         style="font-style:normal;font-variant:normal;font-weight:normal;font-stretch:normal;font-size:10.58333302px;line-height:1.25;font-family:'Noto Color Emoji';-inkscape-font-specification:'Noto Color Emoji';letter-spacing:0px;word-spacing:0px;fill:#000000;fill-opacity:1;stroke:none;stroke-width:0.07000434"
         id="text411">
        <path
           d="m 140.16716,169.61096 q -0.74414,0.36174 -1.54513,0.5426 -0.80098,0.18087 -1.65364,0.18087 -1.92753,0 -3.05408,-1.07487 -1.12654,-1.08004 -1.12654,-2.92488 0,-1.86552 1.14721,-2.93523 1.14722,-1.0697 3.14193,-1.0697 0.76998,0 1.47278,0.1447 0.70796,0.14469 1.33325,0.42891 v 1.5968 q -0.64596,-0.3669 -1.28674,-0.54777 -0.63562,-0.18086 -1.27641,-0.18086 -1.18856,0 -1.83451,0.66662 -0.64079,0.66146 -0.64079,1.89653 0,1.22473 0.62011,1.89135 0.62012,0.66663 1.76217,0.66663 0.31006,0 0.57361,-0.0362 0.26872,-0.0413 0.48059,-0.12403 v -1.49861 h -1.2144 v -1.33326 h 3.10059 z"
           style="font-weight:bold;stroke-width:0.07000434"
           id="path560" />
        <path
           d="m 141.76913,167.93148 v -3.53467 h 1.86035 v 0.57878 q 0,0.47025 -0.005,1.18339 -0.005,0.70796 -0.005,0.94568 0,0.69763 0.0362,1.00769 0.0362,0.30489 0.12402,0.44441 0.11369,0.18087 0.29456,0.27906 0.18603,0.0982 0.42374,0.0982 0.57878,0 0.90951,-0.44442 0.33073,-0.44441 0.33073,-1.23506 v -2.85771 h 1.85002 v 5.78776 h -1.85002 v -0.83716 q -0.41858,0.50643 -0.88884,0.74931 -0.46508,0.23771 -1.02836,0.23771 -1.00252,0 -1.52962,-0.61495 -0.52193,-0.61495 -0.52193,-1.788 z"
           style="font-weight:bold;stroke-width:0.07000434"
           id="path562" />
        <path
           d="m 155.15332,167.27519 v 0.5271 h -4.32531 q 0.0672,0.65112 0.47025,0.97668 0.40308,0.32556 1.12655,0.32556 0.58394,0 1.19372,-0.17053 0.61495,-0.1757 1.26091,-0.5271 v 1.42627 q -0.65629,0.24805 -1.31258,0.37207 -0.65629,0.12919 -1.31258,0.12919 -1.57097,0 -2.4443,-0.79582 -0.86816,-0.80098 -0.86816,-2.24275 0,-1.41594 0.85266,-2.22726 0.85783,-0.81132 2.35644,-0.81132 1.36426,0 2.18075,0.82166 0.82165,0.82165 0.82165,2.19625 z m -1.90169,-0.61495 q 0,-0.5271 -0.31006,-0.8475 -0.30489,-0.32556 -0.80098,-0.32556 -0.53744,0 -0.87333,0.30489 -0.3359,0.29973 -0.41858,0.86817 z"
           style="font-weight:bold;stroke-width:0.07000434"
           id="path564" />
        <path
           d="m 161.07028,164.57768 v 1.4056 q -0.59428,-0.24805 -1.14722,-0.37207 -0.55294,-0.12403 -1.04386,-0.12403 -0.5271,0 -0.78549,0.13436 -0.25321,0.12919 -0.25321,0.40308 0,0.22221 0.1912,0.34106 0.19637,0.11886 0.69763,0.1757 l 0.32557,0.0465 q 1.4211,0.18087 1.91202,0.59428 0.49093,0.41341 0.49093,1.29708 0,0.92501 -0.68213,1.39009 -0.68213,0.46509 -2.03605,0.46509 -0.57361,0 -1.18856,-0.093 -0.60978,-0.0879 -1.25574,-0.26871 v -1.4056 q 0.55294,0.26872 1.13172,0.40307 0.58394,0.13436 1.18339,0.13436 0.5426,0 0.81649,-0.14986 0.27388,-0.14986 0.27388,-0.44442 0,-0.24804 -0.1912,-0.3669 -0.18604,-0.12402 -0.74931,-0.1912 l -0.32556,-0.0413 q -1.23507,-0.15503 -1.73116,-0.57361 -0.4961,-0.41858 -0.4961,-1.27124 0,-0.91984 0.63046,-1.36426 0.63045,-0.44442 1.93269,-0.44442 0.5116,0 1.07487,0.0775 0.56328,0.0775 1.22474,0.24288 z"
           style="font-weight:bold;stroke-width:0.07000434"
           id="path566" />
        <path
           d="m 164.87366,162.7535 v 1.64331 h 1.90686 v 1.32292 h -1.90686 v 2.45463 q 0,0.40307 0.1602,0.54777 0.1602,0.13952 0.63562,0.13952 h 0.95085 v 1.32292 h -1.58647 q -1.09554,0 -1.55546,-0.45475 -0.45475,-0.45992 -0.45475,-1.55546 v -2.45463 h -0.91984 v -1.32292 h 0.91984 v -1.64331 z"
           style="font-weight:bold;stroke-width:0.07000434"
           id="path568" />
        <path
           d="m 171.67945,162.46928 h 1.98954 v 6.21151 h 3.49333 v 1.50378 h -5.48287 z"
           style="font-weight:bold;stroke-width:0.07000434"
           id="path570" />
        <path
           d="m 178.33537,164.39681 h 1.85002 v 5.78776 h -1.85002 z m 0,-2.25309 h 1.85002 v 1.50895 h -1.85002 z"
           style="font-weight:bold;stroke-width:0.07000434"
           id="path572" />
        <path
           d="m 186.49508,164.57768 v 1.4056 q -0.59428,-0.24805 -1.14722,-0.37207 -0.55294,-0.12403 -1.04386,-0.12403 -0.5271,0 -0.78548,0.13436 -0.25322,0.12919 -0.25322,0.40308 0,0.22221 0.1912,0.34106 0.19638,0.11886 0.69764,0.1757 l 0.32556,0.0465 q 1.4211,0.18087 1.91203,0.59428 0.49092,0.41341 0.49092,1.29708 0,0.92501 -0.68213,1.39009 -0.68213,0.46509 -2.03605,0.46509 -0.57361,0 -1.18856,-0.093 -0.60978,-0.0879 -1.25573,-0.26871 v -1.4056 q 0.55293,0.26872 1.13171,0.40307 0.58394,0.13436 1.18339,0.13436 0.5426,0 0.81649,-0.14986 0.27388,-0.14986 0.27388,-0.44442 0,-0.24804 -0.1912,-0.3669 -0.18603,-0.12402 -0.74931,-0.1912 l -0.32556,-0.0413 q -1.23507,-0.15503 -1.73116,-0.57361 -0.49609,-0.41858 -0.49609,-1.27124 0,-0.91984 0.63045,-1.36426 0.63045,-0.44442 1.9327,-0.44442 0.51159,0 1.07487,0.0775 0.56327,0.0775 1.22473,0.24288 z"
           style="font-weight:bold;stroke-width:0.07000434"
           id="path574" />
        <path
           d="m 190.29846,162.7535 v 1.64331 h 1.90686 v 1.32292 h -1.90686 v 2.45463 q 0,0.40307 0.1602,0.54777 0.1602,0.13952 0.63562,0.13952 h 0.95085 v 1.32292 h -1.58647 q -1.09554,0 -1.55546,-0.45475 -0.45475,-0.45992 -0.45475,-1.55546 v -2.45463 h -0.91984 v -1.32292 h 0.91984 v -1.64331 z"
           style="font-weight:bold;stroke-width:0.07000434"
           id="path576" />
      </g>
    </g>
  </g>
</svg>
