<?xml version="1.0" encoding="UTF-8" standalone="no"?>
<!-- Created with Inkscape (http://www.inkscape.org/) -->

<svg
   xmlns:dc="http://purl.org/dc/elements/1.1/"
   xmlns:cc="http://creativecommons.org/ns#"
   xmlns:rdf="http://www.w3.org/1999/02/22-rdf-syntax-ns#"
   xmlns:svg="http://www.w3.org/2000/svg"
   xmlns="http://www.w3.org/2000/svg"
   xmlns:sodipodi="http://sodipodi.sourceforge.net/DTD/sodipodi-0.dtd"
   xmlns:inkscape="http://www.inkscape.org/namespaces/inkscape"
   width="59.774128mm"
   height="100.79487mm"
   viewBox="0 0 59.774128 100.79487"
   version="1.1"
   id="svg8"
   sodipodi:docname="two.svg"
   inkscape:version="0.92.4 (5da689c313, 2019-01-14)">
  <defs
     id="defs2" />
  <sodipodi:namedview
     id="base"
     pagecolor="#ffffff"
     bordercolor="#666666"
     borderopacity="1.0"
     inkscape:pageopacity="0.0"
     inkscape:pageshadow="2"
     inkscape:zoom="0.35"
     inkscape:cx="1243.0148"
     inkscape:cy="81.492656"
     inkscape:document-units="mm"
     inkscape:current-layer="text817"
     showgrid="false"
     inkscape:window-width="1920"
     inkscape:window-height="1043"
     inkscape:window-x="1600"
     inkscape:window-y="18"
     inkscape:window-maximized="0"
     fit-margin-top="0"
     fit-margin-left="0"
     fit-margin-right="0"
     fit-margin-bottom="0" />
  <metadata
     id="metadata5">
    <rdf:RDF>
      <cc:Work
         rdf:about="">
        <dc:format>image/svg+xml</dc:format>
        <dc:type
           rdf:resource="http://purl.org/dc/dcmitype/StillImage" />
        <dc:title></dc:title>
      </cc:Work>
    </rdf:RDF>
  </metadata>
  <g
     inkscape:label="Layer 1"
     inkscape:groupmode="layer"
     id="layer1"
     transform="translate(-88.415421,-168.76271)">
    <g
       aria-label="Berylone
Cobaletto
Bromillo
Neodymino
Tellurino
Actino
Europetto
Xenone"
       style="font-style:normal;font-variant:normal;font-weight:normal;font-stretch:normal;font-size:10.58333302px;line-height:1.25;font-family:'Noto Color Emoji';-inkscape-font-specification:'Noto Color Emoji';letter-spacing:0px;word-spacing:0px;fill:#000000;fill-opacity:1;stroke:none;stroke-width:0.26458332"
       id="text817">
      <path
         d="m 90.528987,173.11903 v 2.8267 h 1.674316 q 0.842326,0 1.245402,-0.34623 0.408244,-0.3514 0.408244,-1.0697 0,-0.72347 -0.408244,-1.06454 -0.403076,-0.34623 -1.245402,-0.34623 z m 0,-3.17293 v 2.32544 h 1.545125 q 0.764811,0 1.136881,-0.28422 0.377238,-0.28939 0.377238,-0.8785 0,-0.58395 -0.377238,-0.87334 -0.37207,-0.28938 -1.136881,-0.28938 z m -1.043864,-0.85783 h 2.666503 q 1.193726,0 1.839681,0.49609 0.645956,0.49609 0.645956,1.41077 0,0.70796 -0.330729,1.12654 -0.33073,0.41858 -0.971517,0.52194 0.769979,0.16536 1.193725,0.69246 0.428915,0.52193 0.428915,1.30741 0,1.03353 -0.7028,1.59681 -0.702799,0.56327 -1.999878,0.56327 h -2.769856 z"
         style="stroke-width:0.26458332"
         id="path837"
         inkscape:connector-curvature="0" />
      <path
         d="m 101.64975,173.67197 v 0.46508 h -4.371821 q 0.06201,0.98186 0.589111,1.49862 0.532267,0.5116 1.477946,0.5116 0.54777,0 1.059364,-0.13436 0.51677,-0.13436 1.0232,-0.40308 v 0.89917 q -0.5116,0.21704 -1.04904,0.33073 -0.53743,0.11369 -1.090368,0.11369 -1.384929,0 -2.196249,-0.80615 -0.806152,-0.80615 -0.806152,-2.18075 0,-1.4211 0.764811,-2.25309 0.769979,-0.83716 2.072225,-0.83716 1.167883,0 1.844853,0.75448 0.68212,0.74931 0.68212,2.04122 z m -0.95084,-0.27906 q -0.0103,-0.78031 -0.43925,-1.2454 -0.423748,-0.46509 -1.126548,-0.46509 -0.795817,0 -1.276407,0.44959 -0.475424,0.44958 -0.547771,1.26607 z"
         style="stroke-width:0.26458332"
         id="path839"
         inkscape:connector-curvature="0" />
      <path
         d="m 106.56418,171.90463 q -0.16019,-0.093 -0.3514,-0.13436 -0.18603,-0.0465 -0.41341,-0.0465 -0.80615,0 -1.24023,0.52709 -0.42892,0.52194 -0.42892,1.50379 v 3.04891 h -0.95601 v -5.78776 h 0.95601 v 0.89917 q 0.29973,-0.5271 0.78032,-0.78032 0.48059,-0.25838 1.16788,-0.25838 0.0982,0 0.21705,0.0155 0.11885,0.0103 0.26355,0.0362 z"
         style="stroke-width:0.26458332"
         id="path841"
         inkscape:connector-curvature="0" />
      <path
         d="m 109.97999,177.34099 q -0.40307,1.03353 -0.78548,1.34876 -0.3824,0.31522 -1.02319,0.31522 h -0.75964 v -0.79581 h 0.5581 q 0.39274,0 0.60978,-0.18604 0.21704,-0.18603 0.48059,-0.8785 l 0.17054,-0.43408 -2.34095,-5.69474 h 1.00769 l 1.80868,4.52685 1.80867,-4.52685 h 1.0077 z"
         style="stroke-width:0.26458332"
         id="path843"
         inkscape:connector-curvature="0" />
      <path
         d="m 113.83506,168.76271 h 0.95084 v 8.04085 h -0.95084 z"
         style="stroke-width:0.26458332"
         id="path845"
         inkscape:connector-curvature="0" />
      <path
         d="m 119.01303,171.68242 q -0.76481,0 -1.20922,0.59945 -0.44442,0.59428 -0.44442,1.63298 0,1.03869 0.43925,1.63814 0.44442,0.59428 1.21439,0.59428 0.75965,0 1.20407,-0.59945 0.44441,-0.59945 0.44441,-1.63297 0,-1.02837 -0.44441,-1.62781 -0.44442,-0.60462 -1.20407,-0.60462 z m 0,-0.80615 q 1.24024,0 1.94821,0.80615 0.70796,0.80616 0.70796,2.23243 0,1.4211 -0.70796,2.23242 -0.70797,0.80615 -1.94821,0.80615 -1.2454,0 -1.95336,-0.80615 -0.7028,-0.81132 -0.7028,-2.23242 0,-1.42627 0.7028,-2.23243 0.70796,-0.80615 1.95336,-0.80615 z"
         style="stroke-width:0.26458332"
         id="path847"
         inkscape:connector-curvature="0" />
      <path
         d="m 128.05124,173.31023 v 3.49333 h -0.95084 v -3.46232 q 0,-0.82166 -0.3204,-1.2299 -0.32039,-0.40825 -0.96118,-0.40825 -0.76998,0 -1.21439,0.49093 -0.44442,0.49093 -0.44442,1.33842 v 3.27112 h -0.95602 v -5.78776 h 0.95602 v 0.89917 q 0.34106,-0.52193 0.80098,-0.78032 0.46509,-0.25838 1.06971,-0.25838 0.99735,0 1.50895,0.62012 0.51159,0.61495 0.51159,1.81384 z"
         style="stroke-width:0.26458332"
         id="path849"
         inkscape:connector-curvature="0" />
      <path
         d="m 134.9087,173.67197 v 0.46508 h -4.37182 q 0.062,0.98186 0.58911,1.49862 0.53227,0.5116 1.47795,0.5116 0.54777,0 1.05936,-0.13436 0.51677,-0.13436 1.0232,-0.40308 v 0.89917 q -0.5116,0.21704 -1.04904,0.33073 -0.53743,0.11369 -1.09037,0.11369 -1.38493,0 -2.19625,-0.80615 -0.80615,-0.80615 -0.80615,-2.18075 0,-1.4211 0.76481,-2.25309 0.76998,-0.83716 2.07223,-0.83716 1.16788,0 1.84485,0.75448 0.68212,0.74931 0.68212,2.04122 z m -0.95084,-0.27906 q -0.0103,-0.78031 -0.43925,-1.2454 -0.42375,-0.46509 -1.12655,-0.46509 -0.79582,0 -1.27641,0.44959 -0.47542,0.44958 -0.54777,1.26607 z"
         style="stroke-width:0.26458332"
         id="path851"
         inkscape:connector-curvature="0" />
      <path
         d="m 95.262548,182.91171 v 1.10071 q -0.5271,-0.49093 -1.126547,-0.7338 -0.594279,-0.24288 -1.266072,-0.24288 -1.322917,0 -2.025716,0.81132 -0.7028,0.80615 -0.7028,2.33577 0,1.52446 0.7028,2.33578 0.702799,0.80615 2.025716,0.80615 0.671793,0 1.266072,-0.24288 0.599447,-0.24288 1.126547,-0.73381 v 1.09038 q -0.547771,0.37207 -1.16272,0.5581 -0.609782,0.18604 -1.291911,0.18604 -1.751831,0 -2.759521,-1.06971 -1.007691,-1.07487 -1.007691,-2.93005 0,-1.86035 1.007691,-2.93005 1.00769,-1.07487 2.759521,-1.07487 0.692464,0 1.302246,0.18603 0.61495,0.18087 1.152385,0.54777 z"
         style="stroke-width:0.26458332"
         id="path853"
         inkscape:connector-curvature="0" />
      <path
         d="m 99.086604,184.91159 q -0.764812,0 -1.209229,0.59945 -0.444417,0.59428 -0.444417,1.63297 0,1.0387 0.439249,1.63814 0.444418,0.59428 1.214397,0.59428 0.759643,0 1.204056,-0.59944 0.44442,-0.59945 0.44442,-1.63298 0,-1.02836 -0.44442,-1.62781 -0.444413,-0.60461 -1.204056,-0.60461 z m 0,-0.80615 q 1.240236,0 1.948196,0.80615 0.70797,0.80615 0.70797,2.23242 0,1.4211 -0.70797,2.23242 -0.70796,0.80616 -1.948196,0.80616 -1.245402,0 -1.95337,-0.80616 -0.702799,-0.81132 -0.702799,-2.23242 0,-1.42627 0.702799,-2.23242 0.707968,-0.80615 1.95337,-0.80615 z"
         style="stroke-width:0.26458332"
         id="path855"
         inkscape:connector-curvature="0" />
      <path
         d="m 107.46852,187.14401 q 0,-1.04903 -0.43408,-1.64331 -0.42892,-0.59944 -1.18339,-0.59944 -0.75448,0 -1.18856,0.59944 -0.42891,0.59428 -0.42891,1.64331 0,1.04903 0.42891,1.64848 0.43408,0.59428 1.18856,0.59428 0.75447,0 1.18339,-0.59428 0.43408,-0.59945 0.43408,-1.64848 z m -3.23494,-2.02055 q 0.29972,-0.51676 0.75447,-0.76481 0.45992,-0.25321 1.09554,-0.25321 1.0542,0 1.71049,0.83716 0.66146,0.83715 0.66146,2.20141 0,1.36426 -0.66146,2.20142 -0.65629,0.83716 -1.71049,0.83716 -0.63562,0 -1.09554,-0.24805 -0.45475,-0.25322 -0.75447,-0.76998 v 0.86816 h -0.95602 v -8.04085 h 0.95602 z"
         style="stroke-width:0.26458332"
         id="path857"
         inkscape:connector-curvature="0" />
      <path
         d="m 112.662,187.12334 q -1.15238,0 -1.5968,0.26355 -0.44442,0.26355 -0.44442,0.89917 0,0.50643 0.33073,0.80615 0.3359,0.29456 0.90951,0.29456 0.79065,0 1.26607,-0.55811 0.48059,-0.56327 0.48059,-1.49345 v -0.21187 z m 1.89653,-0.39274 v 3.30212 h -0.95085 v -0.87849 q -0.32556,0.52709 -0.81132,0.78031 -0.48576,0.24805 -1.18856,0.24805 -0.88883,0 -1.41593,-0.4961 -0.52193,-0.50126 -0.52193,-1.33842 0,-0.97668 0.65112,-1.47278 0.65629,-0.49609 1.95337,-0.49609 h 1.33325 v -0.093 q 0,-0.65629 -0.43408,-1.01285 -0.42892,-0.36174 -1.20923,-0.36174 -0.49609,0 -0.96635,0.11886 -0.47025,0.11885 -0.90434,0.35656 v -0.8785 q 0.52194,-0.20153 1.01286,-0.29972 0.49093,-0.10335 0.95602,-0.10335 1.25573,0 1.87585,0.65112 0.62012,0.65112 0.62012,1.97404 z"
         style="stroke-width:0.26458332"
         id="path859"
         inkscape:connector-curvature="0" />
      <path
         d="m 116.52223,181.99187 h 0.95085 v 8.04085 h -0.95085 z"
         style="stroke-width:0.26458332"
         id="path861"
         inkscape:connector-curvature="0" />
      <path
         d="m 124.40806,186.90113 v 0.46509 h -4.37183 q 0.062,0.98185 0.58911,1.49862 0.53227,0.51159 1.47795,0.51159 0.54777,0 1.05936,-0.13435 0.51677,-0.13436 1.0232,-0.40308 v 0.89917 q -0.5116,0.21704 -1.04903,0.33073 -0.53744,0.11369 -1.09038,0.11369 -1.38493,0 -2.19625,-0.80616 -0.80615,-0.80615 -0.80615,-2.18074 0,-1.4211 0.76481,-2.25309 0.76998,-0.83716 2.07223,-0.83716 1.16789,0 1.84485,0.75447 0.68213,0.74931 0.68213,2.04122 z m -0.95085,-0.27905 q -0.0103,-0.78031 -0.43925,-1.2454 -0.42375,-0.46509 -1.12655,-0.46509 -0.79581,0 -1.2764,0.44959 -0.47543,0.44958 -0.54777,1.26607 z"
         style="stroke-width:0.26458332"
         id="path863"
         inkscape:connector-curvature="0" />
      <path
         d="m 126.90919,182.60165 v 1.64331 h 1.95854 v 0.73898 h -1.95854 v 3.14192 q 0,0.70797 0.19121,0.90951 0.19637,0.20154 0.79065,0.20154 h 0.97668 v 0.79581 h -0.97668 q -1.10071,0 -1.51929,-0.40824 -0.41858,-0.41341 -0.41858,-1.49862 v -3.14192 h -0.69763 v -0.73898 h 0.69763 v -1.64331 z"
         style="stroke-width:0.26458332"
         id="path865"
         inkscape:connector-curvature="0" />
      <path
         d="m 131.06398,182.60165 v 1.64331 h 1.95854 v 0.73898 h -1.95854 v 3.14192 q 0,0.70797 0.1912,0.90951 0.19637,0.20154 0.79065,0.20154 h 0.97669 v 0.79581 h -0.97669 q -1.10071,0 -1.51928,-0.40824 -0.41858,-0.41341 -0.41858,-1.49862 v -3.14192 h -0.69764 v -0.73898 h 0.69764 v -1.64331 z"
         style="stroke-width:0.26458332"
         id="path867"
         inkscape:connector-curvature="0" />
      <path
         d="m 136.52101,184.91159 q -0.76481,0 -1.20923,0.59945 -0.44441,0.59428 -0.44441,1.63297 0,1.0387 0.43925,1.63814 0.44441,0.59428 1.21439,0.59428 0.75964,0 1.20406,-0.59944 0.44442,-0.59945 0.44442,-1.63298 0,-1.02836 -0.44442,-1.62781 -0.44442,-0.60461 -1.20406,-0.60461 z m 0,-0.80615 q 1.24024,0 1.9482,0.80615 0.70797,0.80615 0.70797,2.23242 0,1.4211 -0.70797,2.23242 -0.70796,0.80616 -1.9482,0.80616 -1.2454,0 -1.95337,-0.80616 -0.7028,-0.81132 -0.7028,-2.23242 0,-1.42627 0.7028,-2.23242 0.70797,-0.80615 1.95337,-0.80615 z"
         style="stroke-width:0.26458332"
         id="path869"
         inkscape:connector-curvature="0" />
      <path
         d="m 90.528987,199.57736 v 2.8267 h 1.674316 q 0.842326,0 1.245402,-0.34623 0.408244,-0.3514 0.408244,-1.0697 0,-0.72347 -0.408244,-1.06454 -0.403076,-0.34623 -1.245402,-0.34623 z m 0,-3.17293 v 2.32544 h 1.545125 q 0.764811,0 1.136881,-0.28422 0.377238,-0.28939 0.377238,-0.8785 0,-0.58395 -0.377238,-0.87333 -0.37207,-0.28939 -1.136881,-0.28939 z m -1.043864,-0.85783 h 2.666503 q 1.193726,0 1.839681,0.49609 0.645956,0.4961 0.645956,1.41077 0,0.70797 -0.330729,1.12655 -0.33073,0.41858 -0.971517,0.52193 0.769979,0.16536 1.193725,0.69246 0.428915,0.52193 0.428915,1.30742 0,1.03352 -0.7028,1.5968 -0.702799,0.56327 -1.999878,0.56327 h -2.769856 z"
         style="stroke-width:0.26458332"
         id="path871"
         inkscape:connector-curvature="0" />
      <path
         d="m 100.05295,198.36297 q -0.160194,-0.093 -0.351397,-0.13436 -0.186035,-0.0465 -0.413411,-0.0465 -0.806153,0 -1.240235,0.5271 -0.428914,0.52193 -0.428914,1.50378 v 3.04891 h -0.956014 v -5.78776 h 0.956014 v 0.89917 q 0.299723,-0.5271 0.780314,-0.78031 0.480591,-0.25839 1.167888,-0.25839 0.09819,0 0.217041,0.0155 0.118855,0.0103 0.263554,0.0362 z"
         style="stroke-width:0.26458332"
         id="path873"
         inkscape:connector-curvature="0" />
      <path
         d="m 103.07602,198.14076 q -0.76481,0 -1.20922,0.59944 -0.44442,0.59428 -0.44442,1.63298 0,1.03869 0.43925,1.63814 0.44442,0.59428 1.21439,0.59428 0.75965,0 1.20406,-0.59945 0.44442,-0.59944 0.44442,-1.63297 0,-1.02836 -0.44442,-1.62781 -0.44441,-0.60461 -1.20406,-0.60461 z m 0,-0.80616 q 1.24024,0 1.94821,0.80616 0.70796,0.80615 0.70796,2.23242 0,1.4211 -0.70796,2.23242 -0.70797,0.80615 -1.94821,0.80615 -1.2454,0 -1.95337,-0.80615 -0.70279,-0.81132 -0.70279,-2.23242 0,-1.42627 0.70279,-2.23242 0.70797,-0.80616 1.95337,-0.80616 z"
         style="stroke-width:0.26458332"
         id="path875"
         inkscape:connector-curvature="0" />
      <path
         d="m 111.80934,198.58517 q 0.35657,-0.64078 0.85266,-0.94567 0.4961,-0.3049 1.16789,-0.3049 0.90434,0 1.39526,0.63562 0.49093,0.63046 0.49093,1.79834 v 3.49333 h -0.95601 v -3.46232 q 0,-0.83199 -0.29456,-1.23507 -0.29456,-0.40307 -0.89917,-0.40307 -0.73897,0 -1.16789,0.49092 -0.42891,0.49093 -0.42891,1.33842 v 3.27112 h -0.95602 v -3.46232 q 0,-0.83716 -0.29455,-1.23507 -0.29456,-0.40307 -0.90951,-0.40307 -0.72863,0 -1.15755,0.49609 -0.42891,0.49093 -0.42891,1.33325 v 3.27112 h -0.95602 v -5.78776 h 0.95602 v 0.89917 q 0.32556,-0.53227 0.78031,-0.78548 0.45475,-0.25322 1.08004,-0.25322 0.63045,0 1.0697,0.3204 0.44442,0.32039 0.65629,0.93017 z"
         style="stroke-width:0.26458332"
         id="path877"
         inkscape:connector-curvature="0" />
      <path
         d="m 117.61777,197.47413 h 0.95085 v 5.78776 h -0.95085 z m 0,-2.25309 h 0.95085 v 1.20406 h -0.95085 z"
         style="stroke-width:0.26458332"
         id="path879"
         inkscape:connector-curvature="0" />
      <path
         d="m 120.55299,195.22104 h 0.95085 v 8.04085 h -0.95085 z"
         style="stroke-width:0.26458332"
         id="path881"
         inkscape:connector-curvature="0" />
      <path
         d="m 123.48822,195.22104 h 0.95084 v 8.04085 h -0.95084 z"
         style="stroke-width:0.26458332"
         id="path883"
         inkscape:connector-curvature="0" />
      <path
         d="m 128.66619,198.14076 q -0.76481,0 -1.20923,0.59944 -0.44441,0.59428 -0.44441,1.63298 0,1.03869 0.43924,1.63814 0.44442,0.59428 1.2144,0.59428 0.75964,0 1.20406,-0.59945 0.44442,-0.59944 0.44442,-1.63297 0,-1.02836 -0.44442,-1.62781 -0.44442,-0.60461 -1.20406,-0.60461 z m 0,-0.80616 q 1.24024,0 1.9482,0.80616 0.70797,0.80615 0.70797,2.23242 0,1.4211 -0.70797,2.23242 -0.70796,0.80615 -1.9482,0.80615 -1.2454,0 -1.95337,-0.80615 -0.7028,-0.81132 -0.7028,-2.23242 0,-1.42627 0.7028,-2.23242 0.70797,-0.80616 1.95337,-0.80616 z"
         style="stroke-width:0.26458332"
         id="path885"
         inkscape:connector-curvature="0" />
      <path
         d="m 89.485123,208.77577 h 1.405599 l 3.420979,6.45438 v -6.45438 h 1.012858 v 7.71529 H 93.91896 l -3.420979,-6.45439 v 6.45439 h -1.012858 z"
         style="stroke-width:0.26458332"
         id="path887"
         inkscape:connector-curvature="0" />
      <path
         d="m 102.31121,213.35947 v 0.46508 h -4.371823 q 0.06201,0.98186 0.589111,1.49862 0.532267,0.5116 1.477942,0.5116 0.54777,0 1.05937,-0.13436 0.51677,-0.13436 1.02319,-0.40308 v 0.89917 q -0.51159,0.21704 -1.04903,0.33073 -0.53743,0.11369 -1.09037,0.11369 -1.384929,0 -2.196249,-0.80615 -0.806152,-0.80616 -0.806152,-2.18075 0,-1.4211 0.764811,-2.25309 0.769979,-0.83716 2.072225,-0.83716 1.167885,0 1.844845,0.75448 0.68213,0.7493 0.68213,2.04122 z m -0.95084,-0.27906 q -0.0103,-0.78031 -0.43925,-1.2454 -0.42375,-0.46509 -1.126549,-0.46509 -0.795818,0 -1.276408,0.44959 -0.475424,0.44958 -0.547771,1.26607 z"
         style="stroke-width:0.26458332"
         id="path889"
         inkscape:connector-curvature="0" />
      <path
         d="m 106.1146,211.36992 q -0.76481,0 -1.20923,0.59945 -0.44442,0.59428 -0.44442,1.63297 0,1.0387 0.43925,1.63815 0.44442,0.59428 1.2144,0.59428 0.75964,0 1.20406,-0.59945 0.44442,-0.59945 0.44442,-1.63298 0,-1.02836 -0.44442,-1.6278 -0.44442,-0.60462 -1.20406,-0.60462 z m 0,-0.80615 q 1.24023,0 1.9482,0.80615 0.70797,0.80616 0.70797,2.23242 0,1.42111 -0.70797,2.23243 -0.70797,0.80615 -1.9482,0.80615 -1.2454,0 -1.95337,-0.80615 -0.7028,-0.81132 -0.7028,-2.23243 0,-1.42626 0.7028,-2.23242 0.70797,-0.80615 1.95337,-0.80615 z"
         style="stroke-width:0.26458332"
         id="path891"
         inkscape:connector-curvature="0" />
      <path
         d="m 114.15028,211.5818 v -3.1316 h 0.95085 v 8.04086 h -0.95085 v -0.86817 q -0.29972,0.51677 -0.75964,0.76998 -0.45475,0.24805 -1.09554,0.24805 -1.04903,0 -1.71049,-0.83716 -0.65629,-0.83716 -0.65629,-2.20142 0,-1.36425 0.65629,-2.20141 0.66146,-0.83716 1.71049,-0.83716 0.64079,0 1.09554,0.25322 0.45992,0.24804 0.75964,0.76481 z m -3.24011,2.02054 q 0,1.04904 0.42892,1.64848 0.43408,0.59428 1.18855,0.59428 0.75448,0 1.18856,-0.59428 0.43408,-0.59944 0.43408,-1.64848 0,-1.04903 -0.43408,-1.64331 -0.43408,-0.59944 -1.18856,-0.59944 -0.75447,0 -1.18855,0.59944 -0.42892,0.59428 -0.42892,1.64331 z"
         style="stroke-width:0.26458332"
         id="path893"
         inkscape:connector-curvature="0" />
      <path
         d="m 119.46779,217.02849 q -0.40308,1.03353 -0.78548,1.34876 -0.38241,0.31522 -1.0232,0.31522 h -0.75964 v -0.79581 h 0.5581 q 0.39275,0 0.60979,-0.18604 0.21704,-0.18603 0.48059,-0.8785 l 0.17053,-0.43408 -2.34094,-5.69474 h 1.00769 l 1.80867,4.52685 1.80868,-4.52685 h 1.00769 z"
         style="stroke-width:0.26458332"
         id="path895"
         inkscape:connector-curvature="0" />
      <path
         d="m 127.82903,211.81434 q 0.35657,-0.64079 0.85266,-0.94568 0.4961,-0.30489 1.16789,-0.30489 0.90434,0 1.39526,0.63562 0.49093,0.63045 0.49093,1.79834 v 3.49333 h -0.95601 v -3.46232 q 0,-0.83199 -0.29456,-1.23507 -0.29455,-0.40308 -0.89917,-0.40308 -0.73897,0 -1.16789,0.49093 -0.42891,0.49093 -0.42891,1.33842 v 3.27112 h -0.95601 v -3.46232 q 0,-0.83716 -0.29456,-1.23507 -0.29456,-0.40308 -0.90951,-0.40308 -0.72863,0 -1.15755,0.4961 -0.42891,0.49092 -0.42891,1.33325 v 3.27112 h -0.95602 v -5.78776 h 0.95602 v 0.89917 q 0.32556,-0.53227 0.78031,-0.78548 0.45476,-0.25322 1.08004,-0.25322 0.63045,0 1.0697,0.32039 0.44442,0.3204 0.65629,0.93018 z"
         style="stroke-width:0.26458332"
         id="path897"
         inkscape:connector-curvature="0" />
      <path
         d="m 133.63747,210.7033 h 0.95084 v 5.78776 h -0.95084 z m 0,-2.2531 h 0.95084 v 1.20407 h -0.95084 z"
         style="stroke-width:0.26458332"
         id="path899"
         inkscape:connector-curvature="0" />
      <path
         d="m 141.38376,212.99773 v 3.49333 h -0.95084 v -3.46232 q 0,-0.82166 -0.3204,-1.2299 -0.32039,-0.40825 -0.96118,-0.40825 -0.76998,0 -1.21439,0.49093 -0.44442,0.49093 -0.44442,1.33842 v 3.27112 h -0.95602 v -5.78776 h 0.95602 v 0.89917 q 0.34106,-0.52194 0.80098,-0.78032 0.46509,-0.25838 1.06971,-0.25838 0.99735,0 1.50895,0.62012 0.51159,0.61495 0.51159,1.81384 z"
         style="stroke-width:0.26458332"
         id="path901"
         inkscape:connector-curvature="0" />
      <path
         d="m 145.53338,211.36992 q -0.76481,0 -1.20923,0.59945 -0.44442,0.59428 -0.44442,1.63297 0,1.0387 0.43925,1.63815 0.44442,0.59428 1.2144,0.59428 0.75964,0 1.20406,-0.59945 0.44442,-0.59945 0.44442,-1.63298 0,-1.02836 -0.44442,-1.6278 -0.44442,-0.60462 -1.20406,-0.60462 z m 0,-0.80615 q 1.24023,0 1.9482,0.80615 0.70797,0.80616 0.70797,2.23242 0,1.42111 -0.70797,2.23243 -0.70797,0.80615 -1.9482,0.80615 -1.2454,0 -1.95337,-0.80615 -0.7028,-0.81132 -0.7028,-2.23243 0,-1.42626 0.7028,-2.23242 0.70797,-0.80615 1.95337,-0.80615 z"
         style="stroke-width:0.26458332"
         id="path903"
         inkscape:connector-curvature="0" />
      <path
         d="m 88.415421,222.00493 h 6.526733 v 0.8785 h -2.738851 v 6.83679 h -1.049032 v -6.83679 h -2.73885 z"
         style="stroke-width:0.26458332"
         id="path905"
         inkscape:connector-curvature="0" />
      <path
         d="m 99.065933,226.58863 v 0.46509 h -4.371826 q 0.06201,0.98185 0.589111,1.49862 0.532267,0.51159 1.477946,0.51159 0.54777,0 1.059367,-0.13436 0.516764,-0.13435 1.023193,-0.40307 v 0.89917 q -0.511596,0.21704 -1.049031,0.33073 -0.537435,0.11369 -1.090373,0.11369 -1.384928,0 -2.196248,-0.80616 -0.806153,-0.80615 -0.806153,-2.18074 0,-1.4211 0.764812,-2.2531 0.769978,-0.83715 2.072224,-0.83715 1.167888,0 1.844849,0.75447 0.682129,0.74931 0.682129,2.04122 z m -0.950846,-0.27905 q -0.01034,-0.78032 -0.43925,-1.2454 -0.423747,-0.46509 -1.126546,-0.46509 -0.795817,0 -1.276408,0.44958 -0.475423,0.44959 -0.54777,1.26608 z"
         style="stroke-width:0.26458332"
         id="path907"
         inkscape:connector-curvature="0" />
      <path
         d="m 100.62656,221.67937 h 0.95085 v 8.04085 h -0.95085 z"
         style="stroke-width:0.26458332"
         id="path909"
         inkscape:connector-curvature="0" />
      <path
         d="m 103.56178,221.67937 h 0.95085 v 8.04085 h -0.95085 z"
         style="stroke-width:0.26458332"
         id="path911"
         inkscape:connector-curvature="0" />
      <path
         d="m 106.39882,227.43613 v -3.50367 h 0.95085 v 3.46749 q 0,0.82166 0.32039,1.23507 0.32039,0.40824 0.96118,0.40824 0.76998,0 1.2144,-0.49092 0.44958,-0.49093 0.44958,-1.33842 v -3.28146 h 0.95085 v 5.78776 h -0.95085 v -0.88883 q -0.34623,0.5271 -0.80615,0.78548 -0.45475,0.25322 -1.05937,0.25322 -0.99735,0 -1.51412,-0.62012 -0.51676,-0.62012 -0.51676,-1.81384 z m 2.39262,-3.64319 z"
         style="stroke-width:0.26458332"
         id="path913"
         inkscape:connector-curvature="0" />
      <path
         d="m 116.56874,224.8213 q -0.1602,-0.093 -0.3514,-0.13436 -0.18603,-0.0465 -0.41341,-0.0465 -0.80615,0 -1.24024,0.5271 -0.42891,0.52193 -0.42891,1.50378 v 3.04891 h -0.95601 v -5.78776 h 0.95601 v 0.89917 q 0.29972,-0.5271 0.78031,-0.78031 0.4806,-0.25838 1.16789,-0.25838 0.0982,0 0.21704,0.0155 0.11886,0.0103 0.26355,0.0362 z"
         style="stroke-width:0.26458332"
         id="path915"
         inkscape:connector-curvature="0" />
      <path
         d="m 117.57643,223.93246 h 0.95085 v 5.78776 h -0.95085 z m 0,-2.25309 h 0.95085 v 1.20406 h -0.95085 z"
         style="stroke-width:0.26458332"
         id="path917"
         inkscape:connector-curvature="0" />
      <path
         d="m 125.32273,226.2269 v 3.49332 h -0.95085 v -3.46232 q 0,-0.82165 -0.32039,-1.2299 -0.3204,-0.40824 -0.96118,-0.40824 -0.76998,0 -1.2144,0.49093 -0.44442,0.49092 -0.44442,1.33842 v 3.27111 h -0.95601 v -5.78776 h 0.95601 v 0.89917 q 0.34107,-0.52193 0.80099,-0.78031 0.46509,-0.25838 1.0697,-0.25838 0.99735,0 1.50895,0.62011 0.5116,0.61495 0.5116,1.81385 z"
         style="stroke-width:0.26458332"
         id="path919"
         inkscape:connector-curvature="0" />
      <path
         d="m 129.47234,224.59909 q -0.76481,0 -1.20923,0.59945 -0.44441,0.59427 -0.44441,1.63297 0,1.0387 0.43925,1.63814 0.44441,0.59428 1.21439,0.59428 0.75965,0 1.20406,-0.59944 0.44442,-0.59945 0.44442,-1.63298 0,-1.02836 -0.44442,-1.62781 -0.44441,-0.60461 -1.20406,-0.60461 z m 0,-0.80615 q 1.24024,0 1.9482,0.80615 0.70797,0.80615 0.70797,2.23242 0,1.4211 -0.70797,2.23242 -0.70796,0.80616 -1.9482,0.80616 -1.2454,0 -1.95337,-0.80616 -0.7028,-0.81132 -0.7028,-2.23242 0,-1.42627 0.7028,-2.23242 0.70797,-0.80615 1.95337,-0.80615 z"
         style="stroke-width:0.26458332"
         id="path921"
         inkscape:connector-curvature="0" />
      <path
         d="m 92.063777,236.26246 -1.415935,3.83956 h 2.837036 z m -0.589112,-1.02836 h 1.18339 l 2.940389,7.71529 h -1.085205 l -0.702799,-1.97921 h -3.477824 l -0.702799,1.97921 h -1.100708 z"
         style="stroke-width:0.26458332"
         id="path923"
         inkscape:connector-curvature="0" />
      <path
         d="m 100.65757,237.38384 v 0.88883 q -0.40308,-0.22221 -0.811323,-0.33073 -0.403076,-0.11368 -0.816488,-0.11368 -0.925008,0 -1.436604,0.58911 -0.511597,0.58394 -0.511597,1.64331 0,1.05936 0.511597,1.64848 0.511596,0.58394 1.436604,0.58394 0.413412,0 0.816488,-0.10852 0.408243,-0.11369 0.811323,-0.3359 v 0.8785 q -0.39791,0.18604 -0.826826,0.27905 -0.423747,0.093 -0.904338,0.093 -1.307413,0 -2.077392,-0.82165 -0.769979,-0.82166 -0.769979,-2.21692 0,-1.41594 0.775147,-2.22726 0.780314,-0.81132 2.134236,-0.81132 0.43925,0 0.857829,0.093 0.418583,0.0879 0.811323,0.26872 z"
         style="stroke-width:0.26458332"
         id="path925"
         inkscape:connector-curvature="0" />
      <path
         d="m 103.26206,235.51832 v 1.64331 h 1.95854 v 0.73897 h -1.95854 v 3.14193 q 0,0.70797 0.1912,0.9095 0.19637,0.20154 0.79065,0.20154 h 0.97669 v 0.79582 h -0.97669 q -1.10071,0 -1.51929,-0.40824 -0.41857,-0.41342 -0.41857,-1.49862 v -3.14193 h -0.69764 v -0.73897 h 0.69764 v -1.64331 z"
         style="stroke-width:0.26458332"
         id="path927"
         inkscape:connector-curvature="0" />
      <path
         d="m 106.47633,237.16163 h 0.95085 v 5.78776 h -0.95085 z m 0,-2.25309 h 0.95085 v 1.20406 h -0.95085 z"
         style="stroke-width:0.26458332"
         id="path929"
         inkscape:connector-curvature="0" />
      <path
         d="m 114.22263,239.45606 v 3.49333 h -0.95085 v -3.46232 q 0,-0.82166 -0.32039,-1.2299 -0.32039,-0.40824 -0.96118,-0.40824 -0.76998,0 -1.2144,0.49092 -0.44441,0.49093 -0.44441,1.33842 v 3.27112 h -0.95602 v -5.78776 h 0.95602 v 0.89917 q 0.34106,-0.52193 0.80098,-0.78031 0.46509,-0.25839 1.0697,-0.25839 0.99736,0 1.50895,0.62012 0.5116,0.61495 0.5116,1.81384 z"
         style="stroke-width:0.26458332"
         id="path931"
         inkscape:connector-curvature="0" />
      <path
         d="m 118.37225,237.82826 q -0.76481,0 -1.20923,0.59944 -0.44442,0.59428 -0.44442,1.63298 0,1.03869 0.43925,1.63814 0.44442,0.59428 1.2144,0.59428 0.75964,0 1.20406,-0.59945 0.44442,-0.59944 0.44442,-1.63297 0,-1.02836 -0.44442,-1.62781 -0.44442,-0.60461 -1.20406,-0.60461 z m 0,-0.80616 q 1.24023,0 1.9482,0.80616 0.70797,0.80615 0.70797,2.23242 0,1.4211 -0.70797,2.23242 -0.70797,0.80615 -1.9482,0.80615 -1.2454,0 -1.95337,-0.80615 -0.7028,-0.81132 -0.7028,-2.23242 0,-1.42627 0.7028,-2.23242 0.70797,-0.80616 1.95337,-0.80616 z"
         style="stroke-width:0.26458332"
         id="path933"
         inkscape:connector-curvature="0" />
      <path
         d="m 89.485123,248.46326 h 4.878255 v 0.8785 h -3.834391 v 2.2841 h 3.674194 v 0.8785 h -3.674194 v 2.7957 h 3.927408 v 0.8785 h -4.971272 z"
         style="stroke-width:0.26458332"
         id="path935"
         inkscape:connector-curvature="0" />
      <path
         d="m 96.042862,253.89446 v -3.50366 h 0.950846 v 3.46748 q 0,0.82166 0.320394,1.23507 0.320394,0.40824 0.961182,0.40824 0.769979,0 1.214396,-0.49092 0.449585,-0.49093 0.449585,-1.33842 v -3.28145 h 0.950845 v 5.78776 h -0.950845 v -0.88884 q -0.346232,0.5271 -0.806153,0.78548 -0.454752,0.25322 -1.059366,0.25322 -0.997355,0 -1.51412,-0.62012 -0.516764,-0.62012 -0.516764,-1.81384 z m 2.392619,-3.64319 z"
         style="stroke-width:0.26458332"
         id="path937"
         inkscape:connector-curvature="0" />
      <path
         d="m 106.21278,251.27963 q -0.16019,-0.093 -0.3514,-0.13436 -0.18603,-0.0465 -0.41341,-0.0465 -0.80615,0 -1.24023,0.5271 -0.42892,0.52193 -0.42892,1.50379 v 3.04891 h -0.95601 v -5.78776 h 0.95601 v 0.89917 q 0.29973,-0.5271 0.78032,-0.78032 0.48059,-0.25838 1.16788,-0.25838 0.0982,0 0.21705,0.0155 0.11885,0.0103 0.26355,0.0362 z"
         style="stroke-width:0.26458332"
         id="path939"
         inkscape:connector-curvature="0" />
      <path
         d="m 109.23586,251.05742 q -0.76482,0 -1.20923,0.59945 -0.44442,0.59428 -0.44442,1.63297 0,1.0387 0.43925,1.63815 0.44442,0.59428 1.2144,0.59428 0.75964,0 1.20406,-0.59945 0.44441,-0.59945 0.44441,-1.63298 0,-1.02836 -0.44441,-1.6278 -0.44442,-0.60462 -1.20406,-0.60462 z m 0,-0.80615 q 1.24023,0 1.9482,0.80615 0.70796,0.80615 0.70796,2.23242 0,1.42111 -0.70796,2.23243 -0.70797,0.80615 -1.9482,0.80615 -1.24541,0 -1.95337,-0.80615 -0.7028,-0.81132 -0.7028,-2.23243 0,-1.42627 0.7028,-2.23242 0.70796,-0.80615 1.95337,-0.80615 z"
         style="stroke-width:0.26458332"
         id="path941"
         inkscape:connector-curvature="0" />
      <path
         d="m 114.38283,255.31039 v 3.06958 h -0.95602 v -7.98917 h 0.95602 v 0.8785 q 0.29972,-0.51677 0.75447,-0.76482 0.45992,-0.25321 1.09554,-0.25321 1.0542,0 1.71049,0.83716 0.66146,0.83716 0.66146,2.20141 0,1.36426 -0.66146,2.20142 -0.65629,0.83716 -1.71049,0.83716 -0.63562,0 -1.09554,-0.24805 -0.45475,-0.25321 -0.75447,-0.76998 z m 3.23494,-2.02055 q 0,-1.04903 -0.43408,-1.64331 -0.42891,-0.59944 -1.18339,-0.59944 -0.75448,0 -1.18856,0.59944 -0.42891,0.59428 -0.42891,1.64331 0,1.04904 0.42891,1.64848 0.43408,0.59428 1.18856,0.59428 0.75448,0 1.18339,-0.59428 0.43408,-0.59944 0.43408,-1.64848 z"
         style="stroke-width:0.26458332"
         id="path943"
         inkscape:connector-curvature="0" />
      <path
         d="m 125.13152,253.04696 v 0.46509 h -4.37182 q 0.062,0.98185 0.58911,1.49862 0.53227,0.5116 1.47795,0.5116 0.54777,0 1.05936,-0.13436 0.51677,-0.13436 1.0232,-0.40308 v 0.89917 q -0.5116,0.21704 -1.04904,0.33073 -0.53743,0.11369 -1.09037,0.11369 -1.38493,0 -2.19625,-0.80615 -0.80615,-0.80616 -0.80615,-2.18075 0,-1.4211 0.76481,-2.25309 0.76998,-0.83716 2.07223,-0.83716 1.16788,0 1.84485,0.75448 0.68212,0.7493 0.68212,2.04121 z m -0.95084,-0.27905 q -0.0103,-0.78031 -0.43925,-1.2454 -0.42375,-0.46509 -1.12655,-0.46509 -0.79581,0 -1.27641,0.44959 -0.47542,0.44958 -0.54777,1.26607 z"
         style="stroke-width:0.26458332"
         id="path945"
         inkscape:connector-curvature="0" />
      <path
         d="m 127.63266,248.74749 v 1.64331 h 1.95854 v 0.73897 h -1.95854 v 3.14193 q 0,0.70796 0.19121,0.9095 0.19637,0.20154 0.79065,0.20154 h 0.97668 v 0.79582 h -0.97668 q -1.10071,0 -1.51929,-0.40825 -0.41858,-0.41341 -0.41858,-1.49861 v -3.14193 h -0.69763 v -0.73897 h 0.69763 v -1.64331 z"
         style="stroke-width:0.26458332"
         id="path947"
         inkscape:connector-curvature="0" />
      <path
         d="m 131.78745,248.74749 v 1.64331 h 1.95854 v 0.73897 h -1.95854 v 3.14193 q 0,0.70796 0.1912,0.9095 0.19637,0.20154 0.79065,0.20154 h 0.97669 v 0.79582 h -0.97669 q -1.10071,0 -1.51929,-0.40825 -0.41858,-0.41341 -0.41858,-1.49861 v -3.14193 h -0.69763 v -0.73897 h 0.69763 v -1.64331 z"
         style="stroke-width:0.26458332"
         id="path949"
         inkscape:connector-curvature="0" />
      <path
         d="m 137.24448,251.05742 q -0.76481,0 -1.20923,0.59945 -0.44442,0.59428 -0.44442,1.63297 0,1.0387 0.43925,1.63815 0.44442,0.59428 1.2144,0.59428 0.75964,0 1.20406,-0.59945 0.44442,-0.59945 0.44442,-1.63298 0,-1.02836 -0.44442,-1.6278 -0.44442,-0.60462 -1.20406,-0.60462 z m 0,-0.80615 q 1.24023,0 1.9482,0.80615 0.70797,0.80615 0.70797,2.23242 0,1.42111 -0.70797,2.23243 -0.70797,0.80615 -1.9482,0.80615 -1.2454,0 -1.95337,-0.80615 -0.7028,-0.81132 -0.7028,-2.23243 0,-1.42627 0.7028,-2.23242 0.70797,-0.80615 1.95337,-0.80615 z"
         style="stroke-width:0.26458332"
         id="path951"
         inkscape:connector-curvature="0" />
      <path
         d="m 89.113052,261.69243 h 1.121379 l 1.917195,2.86804 1.927531,-2.86804 h 1.121379 l -2.480469,3.7052 2.645833,4.01009 h -1.121378 l -2.17041,-3.28145 -2.185913,3.28145 h -1.126546 l 2.754353,-4.11861 z"
         style="stroke-width:0.26458332"
         id="path953"
         inkscape:connector-curvature="0" />
      <path
         d="m 101.17433,266.27613 v 0.46509 h -4.371825 q 0.06201,0.98185 0.589112,1.49861 0.532267,0.5116 1.477946,0.5116 0.54777,0 1.059366,-0.13436 0.516761,-0.13436 1.023191,-0.40307 v 0.89917 q -0.51159,0.21704 -1.049029,0.33073 -0.537435,0.11368 -1.090373,0.11368 -1.384928,0 -2.196248,-0.80615 -0.806152,-0.80615 -0.806152,-2.18074 0,-1.42111 0.764811,-2.2531 0.769979,-0.83715 2.072225,-0.83715 1.167887,0 1.844846,0.75447 0.68213,0.74931 0.68213,2.04122 z m -0.95084,-0.27905 q -0.0103,-0.78032 -0.439255,-1.2454 -0.423746,-0.46509 -1.126546,-0.46509 -0.795817,0 -1.276408,0.44958 -0.475423,0.44959 -0.54777,1.26608 z"
         style="stroke-width:0.26458332"
         id="path955"
         inkscape:connector-curvature="0" />
      <path
         d="m 107.54603,265.9144 v 3.49332 h -0.95084 v -3.46232 q 0,-0.82165 -0.3204,-1.2299 -0.32039,-0.40824 -0.96118,-0.40824 -0.76998,0 -1.21439,0.49092 -0.44442,0.49093 -0.44442,1.33842 v 3.27112 h -0.95601 v -5.78776 h 0.95601 v 0.89917 q 0.34106,-0.52193 0.80098,-0.78031 0.46509,-0.25838 1.06971,-0.25838 0.99735,0 1.50895,0.62011 0.51159,0.61495 0.51159,1.81385 z"
         style="stroke-width:0.26458332"
         id="path957"
         inkscape:connector-curvature="0" />
      <path
         d="m 111.69565,264.28659 q -0.76481,0 -1.20923,0.59944 -0.44441,0.59428 -0.44441,1.63298 0,1.0387 0.43925,1.63814 0.44441,0.59428 1.21439,0.59428 0.75965,0 1.20406,-0.59945 0.44442,-0.59944 0.44442,-1.63297 0,-1.02836 -0.44442,-1.62781 -0.44441,-0.60461 -1.20406,-0.60461 z m 0,-0.80615 q 1.24024,0 1.9482,0.80615 0.70797,0.80615 0.70797,2.23242 0,1.4211 -0.70797,2.23242 -0.70796,0.80615 -1.9482,0.80615 -1.2454,0 -1.95337,-0.80615 -0.7028,-0.81132 -0.7028,-2.23242 0,-1.42627 0.7028,-2.23242 0.70797,-0.80615 1.95337,-0.80615 z"
         style="stroke-width:0.26458332"
         id="path959"
         inkscape:connector-curvature="0" />
      <path
         d="m 120.73386,265.9144 v 3.49332 h -0.95085 v -3.46232 q 0,-0.82165 -0.32039,-1.2299 -0.32039,-0.40824 -0.96118,-0.40824 -0.76998,0 -1.2144,0.49092 -0.44441,0.49093 -0.44441,1.33842 v 3.27112 h -0.95602 v -5.78776 h 0.95602 v 0.89917 q 0.34106,-0.52193 0.80098,-0.78031 0.46509,-0.25838 1.0697,-0.25838 0.99736,0 1.50895,0.62011 0.5116,0.61495 0.5116,1.81385 z"
         style="stroke-width:0.26458332"
         id="path961"
         inkscape:connector-curvature="0" />
      <path
         d="m 127.59132,266.27613 v 0.46509 h -4.37182 q 0.062,0.98185 0.58911,1.49861 0.53226,0.5116 1.47794,0.5116 0.54777,0 1.05937,-0.13436 0.51676,-0.13436 1.02319,-0.40307 v 0.89917 q -0.51159,0.21704 -1.04903,0.33073 -0.53743,0.11368 -1.09037,0.11368 -1.38493,0 -2.19625,-0.80615 -0.80615,-0.80615 -0.80615,-2.18074 0,-1.42111 0.76481,-2.2531 0.76998,-0.83715 2.07222,-0.83715 1.16789,0 1.84485,0.75447 0.68213,0.74931 0.68213,2.04122 z m -0.95085,-0.27905 q -0.0103,-0.78032 -0.43924,-1.2454 -0.42375,-0.46509 -1.12655,-0.46509 -0.79582,0 -1.27641,0.44958 -0.47542,0.44959 -0.54777,1.26608 z"
         style="stroke-width:0.26458332"
         id="path963"
         inkscape:connector-curvature="0" />
    </g>
  </g>
</svg>
