<?xml version="1.0" encoding="UTF-8" standalone="no"?>
<!-- Created with Inkscape (http://www.inkscape.org/) -->

<svg
   xmlns:dc="http://purl.org/dc/elements/1.1/"
   xmlns:cc="http://creativecommons.org/ns#"
   xmlns:rdf="http://www.w3.org/1999/02/22-rdf-syntax-ns#"
   xmlns:svg="http://www.w3.org/2000/svg"
   xmlns="http://www.w3.org/2000/svg"
   xmlns:sodipodi="http://sodipodi.sourceforge.net/DTD/sodipodi-0.dtd"
   xmlns:inkscape="http://www.inkscape.org/namespaces/inkscape"
   width="19.4778mm"
   height="11.29241mm"
   viewBox="0 0 19.4778 11.29241"
   version="1.1"
   id="svg22139"
   inkscape:version="0.92.4 (5da689c313, 2019-01-14)"
   sodipodi:docname="three.svg">
  <defs
     id="defs22133" />
  <sodipodi:namedview
     id="base"
     pagecolor="#ffffff"
     bordercolor="#666666"
     borderopacity="1.0"
     inkscape:pageopacity="0.0"
     inkscape:pageshadow="2"
     inkscape:zoom="1.979899"
     inkscape:cx="3.291778"
     inkscape:cy="-10.364585"
     inkscape:document-units="mm"
     inkscape:current-layer="layer1"
     showgrid="false"
     inkscape:window-width="1600"
     inkscape:window-height="863"
     inkscape:window-x="0"
     inkscape:window-y="18"
     inkscape:window-maximized="0"
     fit-margin-top="0"
     fit-margin-left="0"
     fit-margin-right="0"
     fit-margin-bottom="0" />
  <metadata
     id="metadata22136">
    <rdf:RDF>
      <cc:Work
         rdf:about="">
        <dc:format>image/svg+xml</dc:format>
        <dc:type
           rdf:resource="http://purl.org/dc/dcmitype/StillImage" />
        <dc:title></dc:title>
      </cc:Work>
    </rdf:RDF>
  </metadata>
  <g
     inkscape:label="Layer 1"
     inkscape:groupmode="layer"
     id="layer1"
     transform="translate(-51.072142,-101.88717)">
    <g
       aria-label="ନନ୍ଦି"
       style="font-style:normal;font-weight:normal;font-size:10.58333302px;line-height:1.25;font-family:sans-serif;letter-spacing:0px;word-spacing:0px;fill:#a62b74;fill-opacity:1;stroke:none;stroke-width:0.26458332"
       id="text22690">
      <path
         d="m 54.278895,103.60166 q 1.439333,0 2.338916,0.8255 0.899583,0.81492 0.899583,1.89442 0,0.83608 -0.275166,1.4605 -0.04233,0.0741 -0.116417,0.0741 -0.179917,0 -0.127,-0.24341 0.07408,-0.42334 0.07408,-0.68792 0,-1.30175 -0.793749,-2.07433 -0.783167,-0.78317 -2.00025,-0.78317 -0.98425,0 -1.7145,0.60325 -0.719667,0.59267 -0.719667,1.40758 0,0.94192 0.719667,1.37584 0.370416,-0.39159 0.910166,-0.635 0.550334,-0.24342 1.132417,-0.24342 0.687917,0 1.0795,0.30692 0.391583,0.30691 0.391583,0.93133 v 1.64042 q 0,0.30691 0.28575,0.30691 0.201083,0 0.359833,-0.30691 0,0.35983 -0.1905,0.59266 -0.179916,0.23284 -0.529166,0.23284 -0.264583,0 -0.4445,-0.13759 -0.169333,-0.13758 -0.169333,-0.35983 v -1.92617 q 0,-0.3175 -0.211667,-0.51858 -0.201083,-0.21167 -0.550333,-0.21167 -0.814917,0 -1.42875,0.5715 -0.613834,0.5715 -0.613834,1.36525 0.137584,-0.0529 0.264584,-0.0529 0.232833,0 0.370416,0.16933 0.137584,0.16933 0.137584,0.4445 0,0.29633 -0.22225,0.47625 -0.22225,0.17992 -0.560917,0.17992 -0.381,0 -0.592667,-0.3175 -0.201083,-0.3175 -0.201083,-0.8255 0,-0.55034 0.4445,-1.24884 -0.508,-0.20108 -0.836083,-0.67733 -0.3175,-0.48683 -0.3175,-1.13242 0,-1.13241 0.931333,-1.79916 0.941917,-0.67734 2.275417,-0.67734 z"
         style="fill:#a62b74;fill-opacity:1;stroke-width:0.26458332"
         id="path23315"
         inkscape:connector-curvature="0" />
      <path
         d="m 63.575856,110.99941 1.132417,1.76742 q 0.07408,0.13758 0.07408,0.23283 0,0.17992 -0.169333,0.17992 -0.148167,0 -0.423333,-0.27517 l -1.36525,-1.87325 q -0.179917,-0.23283 -0.179917,-0.39158 0,-0.29633 0.296333,-0.29633 0.07408,0 0.137584,0.0318 0.201083,0.13758 0.497416,0.62441 z m -2.38125,-4.42383 q 0.687917,0 1.0795,0.30692 0.391584,0.30691 0.391584,0.93133 v 1.64042 q 0,0.30691 0.28575,0.30691 0.15875,0 0.359833,-0.30691 0,0.35983 -0.1905,0.59266 -0.179917,0.23284 -0.529167,0.23284 -0.264583,0 -0.4445,-0.13759 -0.169333,-0.13758 -0.169333,-0.35983 v -1.92617 q 0,-0.3175 -0.211667,-0.51858 -0.201083,-0.21167 -0.550333,-0.21167 -0.814916,0 -1.42875,0.5715 -0.613833,0.5715 -0.613833,1.36525 0.15875,-0.0529 0.264583,-0.0529 0.232834,0 0.370417,0.16933 0.137583,0.16933 0.137583,0.4445 0,0.29633 -0.22225,0.47625 -0.22225,0.17992 -0.560916,0.17992 -0.381,0 -0.592667,-0.3175 -0.201083,-0.3175 -0.201083,-0.8255 0,-1.04775 0.867833,-1.79917 0.878417,-0.762 1.957916,-0.762 z"
         style="fill:#a62b74;fill-opacity:1;stroke-width:0.26458332"
         id="path23317"
         inkscape:connector-curvature="0" />
      <path
         d="m 67.396109,103.60166 q 1.375833,0 2.264833,0.79375 0.889,0.79375 0.889,2.07434 0,0.64558 -0.275167,1.29116 -0.04233,0.0741 -0.105833,0.0741 -0.148167,0 -0.148167,-0.16934 0,-0.0423 0.01058,-0.0741 0.0635,-0.34925 0.0635,-0.66675 0,-1.30175 -0.8255,-2.06375 -0.814917,-0.762 -2.137834,-0.762 -1.005416,0 -1.672166,0.62442 -0.656167,0.61383 -0.656167,1.48166 0,0.84667 0.677333,1.24884 0.1905,-0.24342 0.656167,-0.508 0.465667,-0.27517 0.846667,-0.27517 0.243416,0 0.243416,0.11642 0,0.0952 -0.105833,0.15875 -0.09525,0.0635 -0.465667,0.22225 -0.47625,0.20108 -0.656166,0.508 -0.179917,0.30691 -0.179917,0.80433 0,0.39158 0.306917,0.61383 0.306916,0.22225 0.8255,0.22225 0.931333,0 1.27,-1.06891 v -1.10067 q 0,-0.17992 0.09525,-0.27517 0.09525,-0.10583 0.243416,-0.10583 0.232834,0 0.402167,-0.26458 v 2.77283 q 0,0.16933 0.105833,0.254 0.116417,0.0847 0.264584,0.0847 0.243416,0 0.391583,-0.37042 0,0.47625 -0.232833,0.762 -0.232834,0.27517 -0.635,0.27517 -0.635,0 -0.635,-0.77259 v -0.1905 q -0.550334,0.5715 -1.375834,0.5715 -0.6985,0 -1.17475,-0.4445 -0.476249,-0.4445 -0.476249,-1.0795 0,-0.24341 0.05292,-0.43391 -0.47625,-0.20109 -0.804333,-0.71967 -0.328083,-0.51858 -0.328083,-1.13242 0,-1.21708 0.899583,-1.8415 0.910166,-0.635 2.38125,-0.635 z"
         style="fill:#a62b74;fill-opacity:1;stroke-width:0.26458332"
         id="path23319"
         inkscape:connector-curvature="0" />
      <path
         d="m 67.417272,101.88717 q 0.66675,0 1.36525,0.24342 0.687917,0.23283 1.164167,0.64558 0.254,0.22225 0.254,0.34925 0,0.0741 -0.0635,0.13758 -0.07408,0.0635 -0.137583,0.0635 -0.15875,0 -0.497417,-0.16933 -0.931333,-0.58208 -2.084917,-0.58208 -1.037166,0 -1.979083,0.59266 -0.243417,0.15875 -0.402167,0.15875 -0.07408,0 -0.126999,-0.0635 -0.05292,-0.0635 -0.05292,-0.13758 0,-0.17992 0.254,-0.37042 1.058333,-0.86783 2.307166,-0.86783 z"
         style="fill:#a62b74;fill-opacity:1;stroke-width:0.26458332"
         id="path23321"
         inkscape:connector-curvature="0" />
    </g>
  </g>
</svg>
