<?xml version="1.0" encoding="UTF-8" standalone="no"?>
<!-- Created with Inkscape (http://www.inkscape.org/) -->

<svg
   xmlns:dc="http://purl.org/dc/elements/1.1/"
   xmlns:cc="http://creativecommons.org/ns#"
   xmlns:rdf="http://www.w3.org/1999/02/22-rdf-syntax-ns#"
   xmlns:svg="http://www.w3.org/2000/svg"
   xmlns="http://www.w3.org/2000/svg"
   xmlns:sodipodi="http://sodipodi.sourceforge.net/DTD/sodipodi-0.dtd"
   xmlns:inkscape="http://www.inkscape.org/namespaces/inkscape"
   width="285.3624mm"
   height="23.471437mm"
   viewBox="0 0 285.36239 23.471438"
   version="1.1"
   id="svg8"
   inkscape:version="0.92.4 (5da689c313, 2019-01-14)"
   sodipodi:docname="three.svg">
  <defs
     id="defs2" />
  <sodipodi:namedview
     id="base"
     pagecolor="#ffffff"
     bordercolor="#666666"
     borderopacity="1.0"
     inkscape:pageopacity="0.0"
     inkscape:pageshadow="2"
     inkscape:zoom="0.49497475"
     inkscape:cx="406.20665"
     inkscape:cy="-73.928033"
     inkscape:document-units="mm"
     inkscape:current-layer="text967"
     showgrid="false"
     fit-margin-top="0"
     fit-margin-left="0"
     fit-margin-right="0"
     fit-margin-bottom="0"
     inkscape:window-width="1920"
     inkscape:window-height="1043"
     inkscape:window-x="1600"
     inkscape:window-y="18"
     inkscape:window-maximized="0" />
  <metadata
     id="metadata5">
    <rdf:RDF>
      <cc:Work
         rdf:about="">
        <dc:format>image/svg+xml</dc:format>
        <dc:type
           rdf:resource="http://purl.org/dc/dcmitype/StillImage" />
        <dc:title></dc:title>
      </cc:Work>
    </rdf:RDF>
  </metadata>
  <g
     inkscape:label="Layer 1"
     inkscape:groupmode="layer"
     id="layer1"
     transform="translate(-5.7510233,-86.035243)">
    <g
       aria-label="An Incorrect Solution To Comic #1663"
       style="font-style:normal;font-weight:normal;font-size:10.58333302px;line-height:1.25;font-family:sans-serif;letter-spacing:0px;word-spacing:0px;fill:#000000;fill-opacity:1;stroke:none;stroke-width:0.26458332"
       id="text817">
      <g
         aria-label="Each sigil replaces every occurence of a certain letter. Different sigils replace different letters. The sigils used are arbitrary. But this isn’t enough information to reconstruct the message…"
         style="font-style:normal;font-weight:normal;font-size:10.58333302px;line-height:1.25;font-family:sans-serif;letter-spacing:0px;word-spacing:0px;fill:#000000;fill-opacity:1;stroke:none;stroke-width:0.07000434"
         id="text967">
        <g
           aria-label="Each sigil replaces every occurence of a certain letter.
Different sigils replace different letters.
"
           style="font-style:normal;font-variant:normal;font-weight:normal;font-stretch:normal;font-size:10.58333302px;line-height:1.25;font-family:'Noto Color Emoji';-inkscape-font-specification:'Noto Color Emoji';letter-spacing:0px;word-spacing:0px;fill:#000000;fill-opacity:1;stroke:none;stroke-width:0.01852198"
           id="text181">
          <path
             d="m 5.7510233,86.360804 h 4.8782547 v 0.8785 H 6.7948872 v 2.284098 h 3.6741938 v 0.878499 H 6.7948872 v 2.795695 h 3.9274088 v 0.8785 H 5.7510233 Z"
             style="stroke-width:0.01852198"
             id="path200"
             inkscape:connector-curvature="0" />
          <path
             d="m 15.037278,91.166713 q -1.152384,0 -1.596802,0.263549 -0.444417,0.26355 -0.444417,0.89917 0,0.506429 0.330729,0.806153 0.335897,0.294555 0.909505,0.294555 0.79065,0 1.266073,-0.558105 0.480591,-0.563273 0.480591,-1.493449 v -0.211873 z m 1.896525,-0.392741 v 3.302124 h -0.950846 v -0.8785 q -0.325562,0.5271 -0.81132,0.780314 -0.485759,0.248047 -1.188558,0.248047 -0.888835,0 -1.415934,-0.496094 -0.521932,-0.501261 -0.521932,-1.338419 0,-0.976685 0.651123,-1.472778 0.65629,-0.496094 1.953369,-0.496094 h 1.333252 v -0.09302 q 0,-0.65629 -0.434082,-1.012858 -0.428915,-0.361735 -1.209229,-0.361735 -0.496093,0 -0.966349,0.118856 -0.470256,0.118856 -0.904338,0.356567 v -0.878499 q 0.521932,-0.201538 1.012859,-0.299723 0.490926,-0.103353 0.956013,-0.103353 1.255738,0 1.875855,0.651123 0.620117,0.651123 0.620117,1.97404 z"
             style="stroke-width:0.01852198"
             id="path202"
             inkscape:connector-curvature="0" />
          <path
             d="m 23.062628,88.510544 v 0.888835 q -0.403077,-0.222209 -0.81132,-0.33073 -0.403076,-0.113688 -0.816488,-0.113688 -0.925008,0 -1.436605,0.589112 -0.511596,0.583943 -0.511596,1.64331 0,1.059367 0.511596,1.648478 0.511597,0.583944 1.436605,0.583944 0.413412,0 0.816488,-0.108521 0.408243,-0.113688 0.81132,-0.335896 v 0.878499 q -0.397909,0.186035 -0.826823,0.279053 -0.423747,0.09302 -0.904338,0.09302 -1.307413,0 -2.077392,-0.821655 -0.769979,-0.821655 -0.769979,-2.216919 0,-1.415934 0.775146,-2.227254 0.780314,-0.81132 2.134237,-0.81132 0.43925,0 0.857829,0.09302 0.418579,0.08785 0.81132,0.268717 z"
             style="stroke-width:0.01852198"
             id="path204"
             inkscape:connector-curvature="0" />
          <path
             d="m 29.537684,90.582769 v 3.493327 h -0.950847 v -3.462321 q 0,-0.821656 -0.320394,-1.229899 -0.320393,-0.408244 -0.961181,-0.408244 -0.769979,0 -1.214396,0.490926 -0.444418,0.490926 -0.444418,1.33842 v 3.271118 h -0.956014 v -8.040853 h 0.956014 v 3.152262 q 0.341065,-0.521932 0.800985,-0.780314 0.465088,-0.258382 1.069702,-0.258382 0.997355,0 1.508952,0.620117 0.511597,0.61495 0.511597,1.813843 z"
             style="stroke-width:0.01852198"
             id="path206"
             inkscape:connector-curvature="0" />
          <path
             d="m 38.503545,88.458868 v 0.899169 q -0.403076,-0.206705 -0.837158,-0.310058 -0.434082,-0.103353 -0.89917,-0.103353 -0.707967,0 -1.064534,0.217041 -0.3514,0.217041 -0.3514,0.651123 0,0.330729 0.253215,0.521932 0.253214,0.186035 1.018025,0.356567 l 0.325562,0.07235 q 1.012858,0.217041 1.436605,0.61495 0.428914,0.392741 0.428914,1.100708 0,0.806152 -0.640788,1.276408 -0.63562,0.470255 -1.751831,0.470255 -0.465088,0 -0.971517,-0.09302 -0.501261,-0.08785 -1.059367,-0.268718 V 92.88237 q 0.5271,0.273885 1.038697,0.413411 0.511596,0.134359 1.012858,0.134359 0.671793,0 1.033528,-0.227376 0.361735,-0.232544 0.361735,-0.651123 0,-0.387573 -0.263549,-0.594279 -0.258383,-0.206706 -1.14205,-0.397909 l -0.330729,-0.07751 q -0.883667,-0.186035 -1.276408,-0.568441 -0.39274,-0.387573 -0.39274,-1.059367 0,-0.816487 0.578776,-1.260905 0.578776,-0.444417 1.64331,-0.444417 0.5271,0 0.992188,0.07752 0.465087,0.07751 0.857828,0.232544 z"
             style="stroke-width:0.01852198"
             id="path208"
             inkscape:connector-curvature="0" />
          <path
             d="m 40.332889,88.288335 h 0.950847 v 5.787761 h -0.950847 z m 0,-2.253092 h 0.950847 v 1.204061 h -0.950847 z"
             style="stroke-width:0.01852198"
             id="path210"
             inkscape:connector-curvature="0" />
          <path
             d="m 47.076665,91.115036 q 0,-1.033529 -0.428915,-1.601969 -0.423746,-0.568441 -1.193725,-0.568441 -0.764811,0 -1.193726,0.568441 -0.423746,0.56844 -0.423746,1.601969 0,1.028361 0.423746,1.596802 0.428915,0.568441 1.193726,0.568441 0.769979,0 1.193725,-0.568441 0.428915,-0.568441 0.428915,-1.596802 z m 0.950846,2.242757 q 0,1.477946 -0.656291,2.196249 -0.65629,0.72347 -2.010213,0.72347 -0.501261,0 -0.945678,-0.07752 -0.444418,-0.07235 -0.862997,-0.227376 v -0.925009 q 0.418579,0.227377 0.826823,0.335897 0.408244,0.108521 0.831991,0.108521 0.935343,0 1.400431,-0.490926 0.465088,-0.485759 0.465088,-1.472779 v -0.47025 q -0.294556,0.511597 -0.754476,0.764811 -0.45992,0.253215 -1.100708,0.253215 -1.064535,0 -1.715658,-0.81132 -0.651123,-0.81132 -0.651123,-2.14974 0,-1.343587 0.651123,-2.154907 0.651123,-0.81132 1.715658,-0.81132 0.640788,0 1.100708,0.253214 0.45992,0.253215 0.754476,0.764812 v -0.8785 h 0.950846 z"
             style="stroke-width:0.01852198"
             id="path212"
             inkscape:connector-curvature="0" />
          <path
             d="m 49.986049,88.288335 h 0.950847 v 5.787761 h -0.950847 z m 0,-2.253092 h 0.950847 v 1.204061 h -0.950847 z"
             style="stroke-width:0.01852198"
             id="path214"
             inkscape:connector-curvature="0" />
          <path
             d="m 52.921268,86.035243 h 0.950846 v 8.040853 h -0.950846 z"
             style="stroke-width:0.01852198"
             id="path216"
             inkscape:connector-curvature="0" />
          <path
             d="m 62.579596,89.17717 q -0.160197,-0.09302 -0.3514,-0.134359 -0.186035,-0.04651 -0.413411,-0.04651 -0.806153,0 -1.240235,0.5271 -0.428914,0.521932 -0.428914,1.503784 v 3.04891 h -0.956014 v -5.787761 h 0.956014 v 0.89917 q 0.299723,-0.527099 0.780314,-0.780314 0.480591,-0.258382 1.167887,-0.258382 0.09819,0 0.217041,0.0155 0.118856,0.01033 0.26355,0.03617 z"
             style="stroke-width:0.01852198"
             id="path218"
             inkscape:connector-curvature="0" />
          <path
             d="m 68.310511,90.944504 v 0.465088 h -4.371826 q 0.06201,0.981852 0.589111,1.498616 0.532267,0.511597 1.477946,0.511597 0.54777,0 1.059367,-0.134359 0.516764,-0.134359 1.023193,-0.403076 v 0.89917 q -0.511597,0.217041 -1.049031,0.330729 -0.537435,0.113688 -1.090373,0.113688 -1.384928,0 -2.196248,-0.806152 -0.806153,-0.806152 -0.806153,-2.180745 0,-1.421102 0.764811,-2.253093 0.769979,-0.837158 2.072225,-0.837158 1.167888,0 1.844849,0.754476 0.682129,0.749308 0.682129,2.041219 z m -0.950847,-0.279053 q -0.01033,-0.780314 -0.439249,-1.245402 -0.423747,-0.465088 -1.126546,-0.465088 -0.795817,0 -1.276408,0.449585 -0.475423,0.449585 -0.54777,1.266073 z"
             style="stroke-width:0.01852198"
             id="path220"
             inkscape:connector-curvature="0" />
          <path
             d="m 70.790976,93.207932 v 3.06958 h -0.956014 v -7.989177 h 0.956014 v 0.8785 q 0.299723,-0.516765 0.754476,-0.764812 0.45992,-0.253214 1.09554,-0.253214 1.054199,0 1.71049,0.837158 0.661458,0.837158 0.661458,2.201416 0,1.364258 -0.661458,2.201416 -0.656291,0.837158 -1.71049,0.837158 -0.63562,0 -1.09554,-0.248047 -0.454753,-0.253214 -0.754476,-0.769978 z m 3.234944,-2.020549 q 0,-1.049031 -0.434082,-1.64331 -0.428914,-0.599447 -1.18339,-0.599447 -0.754476,0 -1.188558,0.599447 -0.428914,0.594279 -0.428914,1.64331 0,1.049032 0.428914,1.648478 0.434082,0.594279 1.188558,0.594279 0.754476,0 1.18339,-0.594279 0.434082,-0.599446 0.434082,-1.648478 z"
             style="stroke-width:0.01852198"
             id="path222"
             inkscape:connector-curvature="0" />
          <path
             d="m 76.589077,86.035243 h 0.950846 v 8.040853 h -0.950846 z"
             style="stroke-width:0.01852198"
             id="path224"
             inkscape:connector-curvature="0" />
          <path
             d="m 82.154626,91.166713 q -1.152385,0 -1.596802,0.263549 -0.444417,0.26355 -0.444417,0.89917 0,0.506429 0.330729,0.806153 0.335897,0.294555 0.909505,0.294555 0.790649,0 1.266073,-0.558105 0.48059,-0.563273 0.48059,-1.493449 v -0.211873 z m 1.896525,-0.392741 v 3.302124 h -0.950847 v -0.8785 q -0.325561,0.5271 -0.811319,0.780314 -0.485759,0.248047 -1.188558,0.248047 -0.888835,0 -1.415935,-0.496094 -0.521932,-0.501261 -0.521932,-1.338419 0,-0.976685 0.651123,-1.472778 0.656291,-0.496094 1.95337,-0.496094 h 1.333251 v -0.09302 q 0,-0.65629 -0.434082,-1.012858 -0.428914,-0.361735 -1.209228,-0.361735 -0.496094,0 -0.966349,0.118856 -0.470256,0.118856 -0.904338,0.356567 v -0.878499 q 0.521932,-0.201538 1.012858,-0.299723 0.490926,-0.103353 0.956014,-0.103353 1.255737,0 1.875855,0.651123 0.620117,0.651123 0.620117,1.97404 z"
             style="stroke-width:0.01852198"
             id="path226"
             inkscape:connector-curvature="0" />
          <path
             d="m 90.179978,88.510544 v 0.888835 q -0.403076,-0.222209 -0.81132,-0.33073 -0.403076,-0.113688 -0.816487,-0.113688 -0.925008,0 -1.436605,0.589112 -0.511597,0.583943 -0.511597,1.64331 0,1.059367 0.511597,1.648478 0.511597,0.583944 1.436605,0.583944 0.413411,0 0.816487,-0.108521 0.408244,-0.113688 0.81132,-0.335896 v 0.878499 q -0.397908,0.186035 -0.826823,0.279053 -0.423746,0.09302 -0.904337,0.09302 -1.307414,0 -2.077393,-0.821655 -0.769979,-0.821655 -0.769979,-2.216919 0,-1.415934 0.775147,-2.227254 0.780314,-0.81132 2.134237,-0.81132 0.439249,0 0.857828,0.09302 0.418579,0.08785 0.81132,0.268717 z"
             style="stroke-width:0.01852198"
             id="path228"
             inkscape:connector-curvature="0" />
          <path
             d="m 96.794562,90.944504 v 0.465088 h -4.371827 q 0.06201,0.981852 0.589112,1.498616 0.532267,0.511597 1.477946,0.511597 0.54777,0 1.059367,-0.134359 0.516764,-0.134359 1.023193,-0.403076 v 0.89917 q -0.511597,0.217041 -1.049032,0.330729 -0.537435,0.113688 -1.090372,0.113688 -1.384929,0 -2.196249,-0.806152 -0.806152,-0.806152 -0.806152,-2.180745 0,-1.421102 0.764811,-2.253093 0.769979,-0.837158 2.072225,-0.837158 1.167887,0 1.844849,0.754476 0.682129,0.749308 0.682129,2.041219 z m -0.950847,-0.279053 q -0.01033,-0.780314 -0.439249,-1.245402 -0.423747,-0.465088 -1.126547,-0.465088 -0.795817,0 -1.276407,0.449585 -0.475424,0.449585 -0.547771,1.266073 z"
             style="stroke-width:0.01852198"
             id="path230"
             inkscape:connector-curvature="0" />
          <path
             d="m 102.04489,88.458868 v 0.899169 q -0.40308,-0.206705 -0.83716,-0.310058 -0.43408,-0.103353 -0.89917,-0.103353 -0.707968,0 -1.064535,0.217041 -0.3514,0.217041 -0.3514,0.651123 0,0.330729 0.253214,0.521932 0.253215,0.186035 1.018031,0.356567 l 0.32556,0.07235 q 1.01285,0.217041 1.4366,0.61495 0.42892,0.392741 0.42892,1.100708 0,0.806152 -0.64079,1.276408 -0.63562,0.470255 -1.751833,0.470255 -0.465088,0 -0.971517,-0.09302 -0.501261,-0.08785 -1.059367,-0.268718 V 92.88237 q 0.5271,0.273885 1.038696,0.413411 0.511597,0.134359 1.012858,0.134359 0.671793,0 1.033533,-0.227376 0.36173,-0.232544 0.36173,-0.651123 0,-0.387573 -0.26355,-0.594279 -0.25838,-0.206706 -1.142048,-0.397909 l -0.330729,-0.07751 q -0.883667,-0.186035 -1.276408,-0.568441 -0.392741,-0.387573 -0.392741,-1.059367 0,-0.816487 0.578776,-1.260905 0.578776,-0.444417 1.64331,-0.444417 0.5271,0 0.99219,0.07752 0.46509,0.07751 0.85783,0.232544 z"
             style="stroke-width:0.01852198"
             id="path232"
             inkscape:connector-curvature="0" />
          <path
             d="m 111.33631,90.665451 q 0.0155,-0.08268 0.0207,-0.170532 0.0103,-0.08785 0.0103,-0.1757 0,-0.630452 -0.37207,-0.997355 -0.3669,-0.366903 -1.00252,-0.366903 -0.70797,0 -1.25057,0.449585 -0.5426,0.444418 -0.82166,1.266073 z m 0.82682,0.744141 h -4.4235 q -0.031,0.19637 -0.0413,0.310058 -0.0103,0.113688 -0.0103,0.196371 0,0.718302 0.43925,1.111043 0.44442,0.392741 1.25057,0.392741 0.62012,0 1.17306,-0.139526 0.55293,-0.139527 1.02836,-0.408244 l -0.18087,0.940511 q -0.5116,0.206706 -1.05937,0.310058 -0.5426,0.103353 -1.10587,0.103353 -1.20406,0 -1.85519,-0.573608 -0.64595,-0.578776 -0.64595,-1.638143 0,-0.904338 0.32039,-1.679484 0.32556,-0.780314 0.95085,-1.390096 0.40307,-0.382406 0.95601,-0.589111 0.55811,-0.206706 1.18339,-0.206706 0.98185,0 1.56063,0.589111 0.58394,0.589112 0.58394,1.581299 0,0.237712 -0.031,0.511597 -0.031,0.268717 -0.093,0.578776 z"
             style="font-style:italic"
             id="path234"
             inkscape:connector-curvature="0" />
          <path
             d="m 113.51705,88.288335 h 1.00769 l 0.8475,4.919597 2.76985,-4.919597 h 1.00769 l -3.29179,5.787761 h -1.28157 z"
             style="font-style:italic"
             id="path236"
             inkscape:connector-curvature="0" />
          <path
             d="m 124.11072,90.665451 q 0.0155,-0.08268 0.0207,-0.170532 0.0103,-0.08785 0.0103,-0.1757 0,-0.630452 -0.37207,-0.997355 -0.36691,-0.366903 -1.00253,-0.366903 -0.70796,0 -1.25057,0.449585 -0.5426,0.444418 -0.82165,1.266073 z m 0.82682,0.744141 h -4.4235 q -0.031,0.19637 -0.0413,0.310058 -0.0103,0.113688 -0.0103,0.196371 0,0.718302 0.43924,1.111043 0.44442,0.392741 1.25057,0.392741 0.62012,0 1.17306,-0.139526 0.55294,-0.139527 1.02836,-0.408244 l -0.18087,0.940511 q -0.51159,0.206706 -1.05936,0.310058 -0.54261,0.103353 -1.10588,0.103353 -1.20406,0 -1.85518,-0.573608 -0.64596,-0.578776 -0.64596,-1.638143 0,-0.904338 0.3204,-1.679484 0.32556,-0.780314 0.95084,-1.390096 0.40308,-0.382406 0.95602,-0.589111 0.5581,-0.206706 1.18339,-0.206706 0.98185,0 1.56062,0.589111 0.58395,0.589112 0.58395,1.581299 0,0.237712 -0.031,0.511597 -0.031,0.268717 -0.093,0.578776 z"
             style="font-style:italic"
             id="path238"
             inkscape:connector-curvature="0" />
          <path
             d="m 130.24988,89.166835 q -0.14469,-0.07752 -0.33073,-0.118856 -0.18603,-0.04134 -0.39791,-0.04134 -0.75964,0 -1.32808,0.578776 -0.56844,0.573608 -0.75448,1.539957 l -0.58394,2.950725 h -0.95085 l 1.13172,-5.787761 h 0.95084 l -0.18086,0.89917 q 0.37723,-0.501261 0.89917,-0.769979 0.5271,-0.268717 1.12137,-0.268717 0.15503,0 0.3049,0.02067 0.14986,0.0155 0.29972,0.05684 z"
             style="font-style:italic"
             id="path240"
             inkscape:connector-curvature="0" />
          <path
             d="m 132.51847,94.61353 q -0.66145,1.111044 -1.08003,1.384929 -0.41341,0.279053 -1.05937,0.279053 h -0.74931 l 0.1602,-0.795818 h 0.54777 q 0.39791,0 0.67696,-0.217041 0.27905,-0.217041 0.62528,-0.847493 l 0.29456,-0.552938 -1.28157,-5.575887 h 1.00769 l 0.96118,4.433838 2.65617,-4.433838 h 0.99735 z"
             style="font-style:italic"
             id="path242"
             inkscape:connector-curvature="0" />
          <path
             d="m 142.76592,88.954961 q -0.76482,0 -1.20923,0.599447 -0.44442,0.594279 -0.44442,1.632975 0,1.038696 0.43925,1.638143 0.44442,0.594279 1.2144,0.594279 0.75964,0 1.20406,-0.599447 0.44441,-0.599446 0.44441,-1.632975 0,-1.028361 -0.44441,-1.627807 -0.44442,-0.604615 -1.20406,-0.604615 z m 0,-0.806152 q 1.24023,0 1.9482,0.806152 0.70796,0.806153 0.70796,2.232422 0,1.421102 -0.70796,2.232422 -0.70797,0.806152 -1.9482,0.806152 -1.24541,0 -1.95337,-0.806152 -0.7028,-0.81132 -0.7028,-2.232422 0,-1.426269 0.7028,-2.232422 0.70796,-0.806152 1.95337,-0.806152 z"
             style="stroke-width:0.01852198"
             id="path244"
             inkscape:connector-curvature="0" />
          <path
             d="m 151.15816,88.510544 v 0.888835 q -0.40308,-0.222209 -0.81132,-0.33073 -0.40308,-0.113688 -0.81649,-0.113688 -0.92501,0 -1.4366,0.589112 -0.5116,0.583943 -0.5116,1.64331 0,1.059367 0.5116,1.648478 0.51159,0.583944 1.4366,0.583944 0.41341,0 0.81649,-0.108521 0.40824,-0.113688 0.81132,-0.335896 v 0.878499 q -0.39791,0.186035 -0.82682,0.279053 -0.42375,0.09302 -0.90434,0.09302 -1.30742,0 -2.07739,-0.821655 -0.76998,-0.821655 -0.76998,-2.216919 0,-1.415934 0.77514,-2.227254 0.78032,-0.81132 2.13424,-0.81132 0.43925,0 0.85783,0.09302 0.41858,0.08785 0.81132,0.268717 z"
             style="stroke-width:0.01852198"
             id="path246"
             inkscape:connector-curvature="0" />
          <path
             d="m 156.98726,88.510544 v 0.888835 q -0.40308,-0.222209 -0.81132,-0.33073 -0.40308,-0.113688 -0.81649,-0.113688 -0.92501,0 -1.4366,0.589112 -0.5116,0.583943 -0.5116,1.64331 0,1.059367 0.5116,1.648478 0.51159,0.583944 1.4366,0.583944 0.41341,0 0.81649,-0.108521 0.40824,-0.113688 0.81132,-0.335896 v 0.878499 q -0.39791,0.186035 -0.82682,0.279053 -0.42375,0.09302 -0.90434,0.09302 -1.30741,0 -2.07739,-0.821655 -0.76998,-0.821655 -0.76998,-2.216919 0,-1.415934 0.77514,-2.227254 0.78032,-0.81132 2.13424,-0.81132 0.43925,0 0.85783,0.09302 0.41858,0.08785 0.81132,0.268717 z"
             style="stroke-width:0.01852198"
             id="path248"
             inkscape:connector-curvature="0" />
          <path
             d="m 158.55306,91.791997 v -3.503662 h 0.95084 v 3.467489 q 0,0.821655 0.3204,1.235067 0.32039,0.408243 0.96118,0.408243 0.76998,0 1.21439,-0.490926 0.44959,-0.490926 0.44959,-1.338419 v -3.281454 h 0.95084 v 5.787761 h -0.95084 v -0.888835 q -0.34623,0.5271 -0.80615,0.785482 -0.45476,0.253214 -1.05937,0.253214 -0.99736,0 -1.51412,-0.620117 -0.51676,-0.620117 -0.51676,-1.813843 z m 2.39261,-3.643188 z"
             style="stroke-width:0.01852198"
             id="path250"
             inkscape:connector-curvature="0" />
          <path
             d="m 168.72298,89.17717 q -0.16019,-0.09302 -0.3514,-0.134359 -0.18603,-0.04651 -0.41341,-0.04651 -0.80615,0 -1.24023,0.5271 -0.42892,0.521932 -0.42892,1.503784 v 3.04891 h -0.95601 v -5.787761 h 0.95601 v 0.89917 q 0.29973,-0.527099 0.78032,-0.780314 0.48059,-0.258382 1.16788,-0.258382 0.0982,0 0.21705,0.0155 0.11885,0.01033 0.26354,0.03617 z"
             style="stroke-width:0.01852198"
             id="path252"
             inkscape:connector-curvature="0" />
          <path
             d="m 174.45389,90.944504 v 0.465088 h -4.37182 q 0.062,0.981852 0.58911,1.498616 0.53227,0.511597 1.47794,0.511597 0.54778,0 1.05937,-0.134359 0.51677,-0.134359 1.0232,-0.403076 v 0.89917 q -0.5116,0.217041 -1.04904,0.330729 -0.53743,0.113688 -1.09037,0.113688 -1.38493,0 -2.19625,-0.806152 -0.80615,-0.806152 -0.80615,-2.180745 0,-1.421102 0.76481,-2.253093 0.76998,-0.837158 2.07223,-0.837158 1.16788,0 1.84484,0.754476 0.68213,0.749308 0.68213,2.041219 z m -0.95084,-0.279053 q -0.0103,-0.780314 -0.43925,-1.245402 -0.42375,-0.465088 -1.12655,-0.465088 -0.79582,0 -1.27641,0.449585 -0.47542,0.449585 -0.54777,1.266073 z"
             style="stroke-width:0.01852198"
             id="path254"
             inkscape:connector-curvature="0" />
          <path
             d="m 180.8256,90.582769 v 3.493327 h -0.95085 v -3.462321 q 0,-0.821656 -0.32039,-1.229899 -0.3204,-0.408244 -0.96118,-0.408244 -0.76998,0 -1.2144,0.490926 -0.44442,0.490926 -0.44442,1.33842 v 3.271118 h -0.95601 v -5.787761 h 0.95601 v 0.89917 q 0.34107,-0.521932 0.80099,-0.780314 0.46509,-0.258382 1.0697,-0.258382 0.99735,0 1.50895,0.620117 0.5116,0.61495 0.5116,1.813843 z"
             style="stroke-width:0.01852198"
             id="path256"
             inkscape:connector-curvature="0" />
          <path
             d="m 186.89758,88.510544 v 0.888835 q -0.40307,-0.222209 -0.81132,-0.33073 -0.40307,-0.113688 -0.81648,-0.113688 -0.92501,0 -1.43661,0.589112 -0.5116,0.583943 -0.5116,1.64331 0,1.059367 0.5116,1.648478 0.5116,0.583944 1.43661,0.583944 0.41341,0 0.81648,-0.108521 0.40825,-0.113688 0.81132,-0.335896 v 0.878499 q -0.3979,0.186035 -0.82682,0.279053 -0.42375,0.09302 -0.90434,0.09302 -1.30741,0 -2.07739,-0.821655 -0.76998,-0.821655 -0.76998,-2.216919 0,-1.415934 0.77515,-2.227254 0.78031,-0.81132 2.13424,-0.81132 0.43924,0 0.85782,0.09302 0.41858,0.08785 0.81132,0.268717 z"
             style="stroke-width:0.01852198"
             id="path258"
             inkscape:connector-curvature="0" />
          <path
             d="m 193.51217,90.944504 v 0.465088 h -4.37183 q 0.062,0.981852 0.58911,1.498616 0.53227,0.511597 1.47795,0.511597 0.54777,0 1.05937,-0.134359 0.51676,-0.134359 1.02319,-0.403076 v 0.89917 q -0.5116,0.217041 -1.04903,0.330729 -0.53744,0.113688 -1.09038,0.113688 -1.38492,0 -2.19624,-0.806152 -0.80616,-0.806152 -0.80616,-2.180745 0,-1.421102 0.76481,-2.253093 0.76998,-0.837158 2.07223,-0.837158 1.16789,0 1.84485,0.754476 0.68213,0.749308 0.68213,2.041219 z m -0.95085,-0.279053 q -0.0103,-0.780314 -0.43925,-1.245402 -0.42375,-0.465088 -1.12655,-0.465088 -0.79581,0 -1.2764,0.449585 -0.47543,0.449585 -0.54777,1.266073 z"
             style="stroke-width:0.01852198"
             id="path260"
             inkscape:connector-curvature="0" />
          <path
             d="m 200.68486,88.954961 q -0.76481,0 -1.20923,0.599447 -0.44441,0.594279 -0.44441,1.632975 0,1.038696 0.43924,1.638143 0.44442,0.594279 1.2144,0.594279 0.75964,0 1.20406,-0.599447 0.44442,-0.599446 0.44442,-1.632975 0,-1.028361 -0.44442,-1.627807 -0.44442,-0.604615 -1.20406,-0.604615 z m 0,-0.806152 q 1.24024,0 1.9482,0.806152 0.70797,0.806153 0.70797,2.232422 0,1.421102 -0.70797,2.232422 -0.70796,0.806152 -1.9482,0.806152 -1.2454,0 -1.95337,-0.806152 -0.7028,-0.81132 -0.7028,-2.232422 0,-1.426269 0.7028,-2.232422 0.70797,-0.806152 1.95337,-0.806152 z"
             style="stroke-width:0.01852198"
             id="path262"
             inkscape:connector-curvature="0" />
          <path
             d="m 207.84204,86.035243 v 0.790649 h -0.90951 q -0.5116,0 -0.71313,0.206706 -0.19637,0.206706 -0.19637,0.744141 v 0.511596 h 1.56579 v 0.738973 h -1.56579 v 5.048788 h -0.95602 v -5.048788 h -0.9095 v -0.738973 h 0.9095 v -0.403076 q 0,-0.966349 0.44959,-1.405599 0.44958,-0.444417 1.42627,-0.444417 z"
             style="stroke-width:0.01852198"
             id="path264"
             inkscape:connector-curvature="0" />
          <path
             d="m 214.63233,91.166713 q -1.15239,0 -1.59681,0.263549 -0.44441,0.26355 -0.44441,0.89917 0,0.506429 0.33073,0.806153 0.33589,0.294555 0.9095,0.294555 0.79065,0 1.26607,-0.558105 0.48059,-0.563273 0.48059,-1.493449 v -0.211873 z m 1.89652,-0.392741 v 3.302124 H 215.578 v -0.8785 q -0.32556,0.5271 -0.81132,0.780314 -0.48575,0.248047 -1.18855,0.248047 -0.88884,0 -1.41594,-0.496094 -0.52193,-0.501261 -0.52193,-1.338419 0,-0.976685 0.65112,-1.472778 0.65629,-0.496094 1.95337,-0.496094 h 1.33325 v -0.09302 q 0,-0.65629 -0.43408,-1.012858 -0.42891,-0.361735 -1.20923,-0.361735 -0.49609,0 -0.96635,0.118856 -0.47025,0.118856 -0.90433,0.356567 v -0.878499 q 0.52193,-0.201538 1.01285,-0.299723 0.49093,-0.103353 0.95602,-0.103353 1.25574,0 1.87585,0.651123 0.62012,0.651123 0.62012,1.97404 z"
             style="stroke-width:0.01852198"
             id="path266"
             inkscape:connector-curvature="0" />
          <path
             d="m 226.02698,88.510544 v 0.888835 q -0.40308,-0.222209 -0.81132,-0.33073 -0.40308,-0.113688 -0.81649,-0.113688 -0.92501,0 -1.4366,0.589112 -0.5116,0.583943 -0.5116,1.64331 0,1.059367 0.5116,1.648478 0.51159,0.583944 1.4366,0.583944 0.41341,0 0.81649,-0.108521 0.40824,-0.113688 0.81132,-0.335896 v 0.878499 q -0.39791,0.186035 -0.82682,0.279053 -0.42375,0.09302 -0.90434,0.09302 -1.30742,0 -2.07739,-0.821655 -0.76998,-0.821655 -0.76998,-2.216919 0,-1.415934 0.77514,-2.227254 0.78032,-0.81132 2.13424,-0.81132 0.43925,0 0.85783,0.09302 0.41858,0.08785 0.81132,0.268717 z"
             style="stroke-width:0.01852198"
             id="path268"
             inkscape:connector-curvature="0" />
          <path
             d="m 232.64156,90.944504 v 0.465088 h -4.37182 q 0.062,0.981852 0.58911,1.498616 0.53226,0.511597 1.47794,0.511597 0.54777,0 1.05937,-0.134359 0.51676,-0.134359 1.02319,-0.403076 v 0.89917 q -0.51159,0.217041 -1.04903,0.330729 -0.53743,0.113688 -1.09037,0.113688 -1.38493,0 -2.19625,-0.806152 -0.80615,-0.806152 -0.80615,-2.180745 0,-1.421102 0.76481,-2.253093 0.76998,-0.837158 2.07222,-0.837158 1.16789,0 1.84485,0.754476 0.68213,0.749308 0.68213,2.041219 z m -0.95084,-0.279053 q -0.0103,-0.780314 -0.43925,-1.245402 -0.42375,-0.465088 -1.12655,-0.465088 -0.79582,0 -1.27641,0.449585 -0.47542,0.449585 -0.54777,1.266073 z"
             style="stroke-width:0.01852198"
             id="path270"
             inkscape:connector-curvature="0" />
          <path
             d="m 237.55599,89.17717 q -0.1602,-0.09302 -0.3514,-0.134359 -0.18603,-0.04651 -0.41341,-0.04651 -0.80615,0 -1.24024,0.5271 -0.42891,0.521932 -0.42891,1.503784 v 3.04891 h -0.95601 v -5.787761 h 0.95601 v 0.89917 q 0.29972,-0.527099 0.78031,-0.780314 0.4806,-0.258382 1.16789,-0.258382 0.0982,0 0.21704,0.0155 0.11886,0.01033 0.26355,0.03617 z"
             style="stroke-width:0.01852198"
             id="path272"
             inkscape:connector-curvature="0" />
          <path
             d="m 239.5042,86.645025 v 1.64331 h 1.95853 v 0.738973 h -1.95853 v 3.141927 q 0,0.707967 0.1912,0.909505 0.19637,0.201539 0.79065,0.201539 h 0.97668 v 0.795817 h -0.97668 q -1.10071,0 -1.51929,-0.408244 -0.41858,-0.413412 -0.41858,-1.498617 v -3.141927 h -0.69763 v -0.738973 h 0.69763 v -1.64331 z"
             style="stroke-width:0.01852198"
             id="path274"
             inkscape:connector-curvature="0" />
          <path
             d="m 245.3488,91.166713 q -1.15238,0 -1.5968,0.263549 -0.44442,0.26355 -0.44442,0.89917 0,0.506429 0.33073,0.806153 0.3359,0.294555 0.90951,0.294555 0.79065,0 1.26607,-0.558105 0.48059,-0.563273 0.48059,-1.493449 v -0.211873 z m 1.89653,-0.392741 v 3.302124 h -0.95085 v -0.8785 q -0.32556,0.5271 -0.81132,0.780314 -0.48576,0.248047 -1.18856,0.248047 -0.88883,0 -1.41593,-0.496094 -0.52193,-0.501261 -0.52193,-1.338419 0,-0.976685 0.65112,-1.472778 0.65629,-0.496094 1.95337,-0.496094 h 1.33325 v -0.09302 q 0,-0.65629 -0.43408,-1.012858 -0.42892,-0.361735 -1.20923,-0.361735 -0.49609,0 -0.96635,0.118856 -0.47026,0.118856 -0.90434,0.356567 v -0.878499 q 0.52193,-0.201538 1.01286,-0.299723 0.49093,-0.103353 0.95601,-0.103353 1.25574,0 1.87586,0.651123 0.62012,0.651123 0.62012,1.97404 z"
             style="stroke-width:0.01852198"
             id="path276"
             inkscape:connector-curvature="0" />
          <path
             d="m 249.20903,88.288335 h 0.95084 v 5.787761 h -0.95084 z m 0,-2.253092 h 0.95084 v 1.204061 h -0.95084 z"
             style="stroke-width:0.01852198"
             id="path278"
             inkscape:connector-curvature="0" />
          <path
             d="m 256.95533,90.582769 v 3.493327 h -0.95085 v -3.462321 q 0,-0.821656 -0.32039,-1.229899 -0.3204,-0.408244 -0.96118,-0.408244 -0.76998,0 -1.2144,0.490926 -0.44442,0.490926 -0.44442,1.33842 v 3.271118 h -0.95601 v -5.787761 h 0.95601 v 0.89917 q 0.34107,-0.521932 0.80099,-0.780314 0.46509,-0.258382 1.0697,-0.258382 0.99735,0 1.50895,0.620117 0.5116,0.61495 0.5116,1.813843 z"
             style="stroke-width:0.01852198"
             id="path280"
             inkscape:connector-curvature="0" />
          <path
             d="m 262.23147,86.035243 h 0.95085 v 8.040853 h -0.95085 z"
             style="stroke-width:0.01852198"
             id="path282"
             inkscape:connector-curvature="0" />
          <path
             d="m 270.11732,90.944504 v 0.465088 h -4.37183 q 0.062,0.981852 0.58911,1.498616 0.53227,0.511597 1.47795,0.511597 0.54777,0 1.05936,-0.134359 0.51677,-0.134359 1.0232,-0.403076 v 0.89917 q -0.5116,0.217041 -1.04903,0.330729 -0.53744,0.113688 -1.09038,0.113688 -1.38493,0 -2.19625,-0.806152 -0.80615,-0.806152 -0.80615,-2.180745 0,-1.421102 0.76481,-2.253093 0.76998,-0.837158 2.07223,-0.837158 1.16789,0 1.84485,0.754476 0.68213,0.749308 0.68213,2.041219 z m -0.95085,-0.279053 q -0.0103,-0.780314 -0.43925,-1.245402 -0.42375,-0.465088 -1.12655,-0.465088 -0.79581,0 -1.2764,0.449585 -0.47543,0.449585 -0.54777,1.266073 z"
             style="stroke-width:0.01852198"
             id="path284"
             inkscape:connector-curvature="0" />
          <path
             d="m 272.61845,86.645025 v 1.64331 h 1.95854 v 0.738973 h -1.95854 v 3.141927 q 0,0.707967 0.19121,0.909505 0.19637,0.201539 0.79065,0.201539 h 0.97668 v 0.795817 h -0.97668 q -1.10071,0 -1.51929,-0.408244 -0.41858,-0.413412 -0.41858,-1.498617 v -3.141927 h -0.69763 v -0.738973 h 0.69763 v -1.64331 z"
             style="stroke-width:0.01852198"
             id="path286"
             inkscape:connector-curvature="0" />
          <path
             d="m 276.77324,86.645025 v 1.64331 h 1.95854 v 0.738973 h -1.95854 v 3.141927 q 0,0.707967 0.1912,0.909505 0.19637,0.201539 0.79065,0.201539 h 0.97669 v 0.795817 h -0.97669 q -1.10071,0 -1.51928,-0.408244 -0.41858,-0.413412 -0.41858,-1.498617 v -3.141927 h -0.69764 v -0.738973 h 0.69764 v -1.64331 z"
             style="stroke-width:0.01852198"
             id="path288"
             inkscape:connector-curvature="0" />
          <path
             d="m 284.93812,90.944504 v 0.465088 h -4.37183 q 0.062,0.981852 0.58911,1.498616 0.53227,0.511597 1.47795,0.511597 0.54777,0 1.05936,-0.134359 0.51677,-0.134359 1.0232,-0.403076 v 0.89917 q -0.5116,0.217041 -1.04903,0.330729 -0.53744,0.113688 -1.09038,0.113688 -1.38493,0 -2.19624,-0.806152 -0.80616,-0.806152 -0.80616,-2.180745 0,-1.421102 0.76481,-2.253093 0.76998,-0.837158 2.07223,-0.837158 1.16789,0 1.84485,0.754476 0.68213,0.749308 0.68213,2.041219 z m -0.95085,-0.279053 q -0.0103,-0.780314 -0.43925,-1.245402 -0.42375,-0.465088 -1.12655,-0.465088 -0.79581,0 -1.2764,0.449585 -0.47543,0.449585 -0.54777,1.266073 z"
             style="stroke-width:0.01852198"
             id="path290"
             inkscape:connector-curvature="0" />
          <path
             d="m 289.85254,89.17717 q -0.16019,-0.09302 -0.35139,-0.134359 -0.18604,-0.04651 -0.41342,-0.04651 -0.80615,0 -1.24023,0.5271 -0.42891,0.521932 -0.42891,1.503784 v 3.04891 h -0.95602 v -5.787761 h 0.95602 v 0.89917 q 0.29972,-0.527099 0.78031,-0.780314 0.48059,-0.258382 1.16789,-0.258382 0.0982,0 0.21704,0.0155 0.11885,0.01033 0.26355,0.03617 z"
             style="stroke-width:0.01852198"
             id="path292"
             inkscape:connector-curvature="0" />
          <path
             d="m 290.02306,92.763514 h 1.09037 v 1.312582 h -1.09037 z"
             style="stroke-width:0.01852198"
             id="path294"
             inkscape:connector-curvature="0" />
          <path
             d="m 6.7948872,100.4478 v 5.99963 h 1.2609049 q 1.5968017,0 2.3357749,-0.72347 0.74414,-0.72347 0.74414,-2.2841 0,-1.55029 -0.74414,-2.26859 Q 9.6525938,100.4478 8.0557921,100.4478 Z M 5.7510233,99.589971 h 2.1445718 q 2.2427569,0 3.2917889,0.935339 1.049031,0.93018 1.049031,2.91455 0,1.99472 -1.054199,2.93006 -1.054199,0.93534 -3.2866209,0.93534 H 5.7510233 Z"
             style="stroke-width:0.01852198"
             id="path296"
             inkscape:connector-curvature="0" />
          <path
             d="m 13.853887,101.5175 h 0.950847 v 5.78776 h -0.950847 z m 0,-2.253091 h 0.950847 v 1.204061 h -0.950847 z"
             style="stroke-width:0.01852198"
             id="path298"
             inkscape:connector-curvature="0" />
          <path
             d="m 23.284835,99.264409 v 0.790651 H 22.37533 q -0.511597,0 -0.713135,0.2067 -0.19637,0.20671 -0.19637,0.74414 v 0.5116 h 1.565796 v 0.73897 h -1.565796 v 5.04879 h -0.956014 v -5.04879 h -2.60966 v 5.04879 h -0.956014 v -5.04879 h -0.909505 v -0.73897 h 0.909505 v -0.40307 q 0,-0.96635 0.449585,-1.405603 0.449585,-0.444418 1.42627,-0.444418 h 0.89917 v 0.790651 h -0.909506 q -0.511596,0 -0.713134,0.2067 -0.196371,0.20671 -0.196371,0.74414 v 0.5116 h 2.60966 v -0.40307 q 0,-0.96635 0.449585,-1.405603 0.449585,-0.444418 1.426269,-0.444418 z"
             style="stroke-width:0.01852198"
             id="path300"
             inkscape:connector-curvature="0" />
          <path
             d="m 29.036423,104.17367 v 0.46509 h -4.371826 q 0.06201,0.98185 0.589111,1.49861 0.532267,0.5116 1.477946,0.5116 0.54777,0 1.059367,-0.13436 0.516764,-0.13436 1.023193,-0.40307 v 0.89917 q -0.511596,0.21704 -1.049031,0.33073 -0.537435,0.11368 -1.090373,0.11368 -1.384928,0 -2.196248,-0.80615 -0.806153,-0.80615 -0.806153,-2.18074 0,-1.42111 0.764812,-2.2531 0.769978,-0.83715 2.072224,-0.83715 1.167888,0 1.844849,0.75447 0.682129,0.74931 0.682129,2.04122 z m -0.950846,-0.27905 q -0.01034,-0.78032 -0.43925,-1.2454 -0.423747,-0.46509 -1.126546,-0.46509 -0.795817,0 -1.276408,0.44958 -0.475423,0.44959 -0.54777,1.26608 z"
             style="stroke-width:0.01852198"
             id="path302"
             inkscape:connector-curvature="0" />
          <path
             d="m 33.950852,102.40634 q -0.160197,-0.093 -0.3514,-0.13436 -0.186035,-0.0465 -0.413412,-0.0465 -0.806152,0 -1.240234,0.5271 -0.428914,0.52193 -0.428914,1.50378 v 3.04891 h -0.956014 v -5.78776 h 0.956014 v 0.89917 q 0.299723,-0.5271 0.780314,-0.78031 0.480591,-0.25838 1.167887,-0.25838 0.09818,0 0.217041,0.0155 0.118856,0.0103 0.26355,0.0362 z"
             style="stroke-width:0.01852198"
             id="path304"
             inkscape:connector-curvature="0" />
          <path
             d="m 39.681767,104.17367 v 0.46509 h -4.371826 q 0.06201,0.98185 0.589111,1.49861 0.532267,0.5116 1.477946,0.5116 0.54777,0 1.059367,-0.13436 0.516764,-0.13436 1.023193,-0.40307 v 0.89917 q -0.511597,0.21704 -1.049032,0.33073 -0.537434,0.11368 -1.090372,0.11368 -1.384929,0 -2.196249,-0.80615 -0.806152,-0.80615 -0.806152,-2.18074 0,-1.42111 0.764811,-2.2531 0.769979,-0.83715 2.072225,-0.83715 1.167888,0 1.844849,0.75447 0.682129,0.74931 0.682129,2.04122 z m -0.950847,-0.27905 q -0.01033,-0.78032 -0.439249,-1.2454 -0.423747,-0.46509 -1.126547,-0.46509 -0.795817,0 -1.276407,0.44958 -0.475424,0.44959 -0.547771,1.26608 z"
             style="stroke-width:0.01852198"
             id="path306"
             inkscape:connector-curvature="0" />
          <path
             d="m 46.053473,103.81194 v 3.49332 h -0.950847 v -3.46232 q 0,-0.82165 -0.320394,-1.2299 -0.320393,-0.40824 -0.961181,-0.40824 -0.769979,0 -1.214396,0.49092 -0.444418,0.49093 -0.444418,1.33842 v 3.27112 h -0.956014 v -5.78776 h 0.956014 v 0.89917 q 0.341065,-0.52193 0.800985,-0.78031 0.465088,-0.25838 1.069702,-0.25838 0.997355,0 1.508952,0.62011 0.511597,0.61495 0.511597,1.81385 z"
             style="stroke-width:0.01852198"
             id="path308"
             inkscape:connector-curvature="0" />
          <path
             d="m 48.900842,99.874191 v 1.643309 h 1.958536 v 0.73897 h -1.958536 v 3.14193 q 0,0.70797 0.191202,0.90951 0.196371,0.20153 0.79065,0.20153 h 0.976684 v 0.79582 h -0.976684 q -1.100708,0 -1.519287,-0.40824 -0.418579,-0.41341 -0.418579,-1.49862 v -3.14193 h -0.697632 v -0.73897 h 0.697632 v -1.643309 z"
             style="stroke-width:0.01852198"
             id="path310"
             inkscape:connector-curvature="0" />
          <path
             d="m 59.174118,101.68803 v 0.89917 q -0.403077,-0.2067 -0.837159,-0.31005 -0.434082,-0.10336 -0.899169,-0.10336 -0.707968,0 -1.064535,0.21704 -0.3514,0.21704 -0.3514,0.65113 0,0.33073 0.253215,0.52193 0.253214,0.18603 1.018026,0.35657 l 0.325561,0.0723 q 1.012858,0.21704 1.436605,0.61495 0.428914,0.39274 0.428914,1.10071 0,0.80615 -0.640788,1.27641 -0.63562,0.47025 -1.751831,0.47025 -0.465087,0 -0.971516,-0.093 -0.501262,-0.0879 -1.059367,-0.26872 v -0.98185 q 0.527099,0.27388 1.038696,0.41341 0.511597,0.13436 1.012858,0.13436 0.671794,0 1.033529,-0.22738 0.361735,-0.23254 0.361735,-0.65112 0,-0.38758 -0.26355,-0.59428 -0.258382,-0.20671 -1.142049,-0.39791 l -0.330729,-0.0775 q -0.883667,-0.18604 -1.276408,-0.56845 -0.392741,-0.38757 -0.392741,-1.05936 0,-0.81649 0.578776,-1.26091 0.578776,-0.44441 1.64331,-0.44441 0.5271,0 0.992188,0.0775 0.465088,0.0775 0.857829,0.23254 z"
             style="stroke-width:0.01852198"
             id="path312"
             inkscape:connector-curvature="0" />
          <path
             d="m 61.003463,101.5175 h 0.950847 v 5.78776 h -0.950847 z m 0,-2.253091 h 0.950847 v 1.204061 h -0.950847 z"
             style="stroke-width:0.01852198"
             id="path314"
             inkscape:connector-curvature="0" />
          <path
             d="m 67.747239,104.3442 q 0,-1.03353 -0.428914,-1.60197 -0.423747,-0.56844 -1.193726,-0.56844 -0.764811,0 -1.193726,0.56844 -0.423746,0.56844 -0.423746,1.60197 0,1.02836 0.423746,1.5968 0.428915,0.56844 1.193726,0.56844 0.769979,0 1.193726,-0.56844 0.428914,-0.56844 0.428914,-1.5968 z m 0.950846,2.24276 q 0,1.47795 -0.65629,2.19625 -0.656291,0.72347 -2.010214,0.72347 -0.501261,0 -0.945678,-0.0775 -0.444418,-0.0723 -0.862997,-0.22737 v -0.92501 q 0.418579,0.22738 0.826823,0.3359 0.408244,0.10852 0.831991,0.10852 0.935343,0 1.400431,-0.49093 0.465088,-0.48576 0.465088,-1.47278 v -0.47025 q -0.294556,0.51159 -0.754476,0.76481 -0.45992,0.25321 -1.100708,0.25321 -1.064534,0 -1.715657,-0.81132 -0.651123,-0.81132 -0.651123,-2.14974 0,-1.34358 0.651123,-2.1549 0.651123,-0.81132 1.715657,-0.81132 0.640788,0 1.100708,0.25321 0.45992,0.25321 0.754476,0.76481 v -0.8785 h 0.950846 z"
             style="stroke-width:0.01852198"
             id="path316"
             inkscape:connector-curvature="0" />
          <path
             d="m 70.65662,101.5175 h 0.950846 v 5.78776 H 70.65662 Z m 0,-2.253091 h 0.950846 v 1.204061 H 70.65662 Z"
             style="stroke-width:0.01852198"
             id="path318"
             inkscape:connector-curvature="0" />
          <path
             d="m 73.591838,99.264409 h 0.950847 v 8.040851 h -0.950847 z"
             style="stroke-width:0.01852198"
             id="path320"
             inkscape:connector-curvature="0" />
          <path
             d="m 80.216762,101.68803 v 0.89917 q -0.403076,-0.2067 -0.837158,-0.31005 -0.434082,-0.10336 -0.89917,-0.10336 -0.707967,0 -1.064534,0.21704 -0.3514,0.21704 -0.3514,0.65113 0,0.33073 0.253214,0.52193 0.253215,0.18603 1.018026,0.35657 l 0.325562,0.0723 q 1.012858,0.21704 1.436604,0.61495 0.428915,0.39274 0.428915,1.10071 0,0.80615 -0.640788,1.27641 -0.63562,0.47025 -1.751831,0.47025 -0.465088,0 -0.971517,-0.093 -0.501261,-0.0879 -1.059367,-0.26872 v -0.98185 q 0.5271,0.27388 1.038696,0.41341 0.511597,0.13436 1.012858,0.13436 0.671794,0 1.033529,-0.22738 0.361735,-0.23254 0.361735,-0.65112 0,-0.38758 -0.26355,-0.59428 -0.258382,-0.20671 -1.142049,-0.39791 l -0.330729,-0.0775 q -0.883667,-0.18604 -1.276408,-0.56845 -0.392741,-0.38757 -0.392741,-1.05936 0,-0.81649 0.578776,-1.26091 0.578776,-0.44441 1.643311,-0.44441 0.527099,0 0.992187,0.0775 0.465088,0.0775 0.857829,0.23254 z"
             style="stroke-width:0.01852198"
             id="path322"
             inkscape:connector-curvature="0" />
          <path
             d="m 88.769209,102.40634 q -0.160197,-0.093 -0.3514,-0.13436 -0.186035,-0.0465 -0.413411,-0.0465 -0.806152,0 -1.240234,0.5271 -0.428915,0.52193 -0.428915,1.50378 v 3.04891 h -0.956014 v -5.78776 h 0.956014 v 0.89917 q 0.299724,-0.5271 0.780314,-0.78031 0.480591,-0.25838 1.167888,-0.25838 0.09819,0 0.217041,0.0155 0.118855,0.0103 0.263549,0.0362 z"
             style="stroke-width:0.01852198"
             id="path324"
             inkscape:connector-curvature="0" />
          <path
             d="m 94.500128,104.17367 v 0.46509 h -4.371826 q 0.06201,0.98185 0.589111,1.49861 0.532267,0.5116 1.477946,0.5116 0.54777,0 1.059367,-0.13436 0.516764,-0.13436 1.023193,-0.40307 v 0.89917 q -0.511596,0.21704 -1.049031,0.33073 -0.537435,0.11368 -1.090373,0.11368 -1.384928,0 -2.196248,-0.80615 -0.806153,-0.80615 -0.806153,-2.18074 0,-1.42111 0.764812,-2.2531 0.769978,-0.83715 2.072224,-0.83715 1.167888,0 1.844849,0.75447 0.682129,0.74931 0.682129,2.04122 z m -0.950846,-0.27905 q -0.01034,-0.78032 -0.43925,-1.2454 -0.423747,-0.46509 -1.126546,-0.46509 -0.795817,0 -1.276408,0.44958 -0.475423,0.44959 -0.54777,1.26608 z"
             style="stroke-width:0.01852198"
             id="path326"
             inkscape:connector-curvature="0" />
          <path
             d="m 96.980597,106.4371 v 3.06958 h -0.956014 v -7.98918 h 0.956014 v 0.8785 q 0.299723,-0.51676 0.754476,-0.76481 0.45992,-0.25321 1.09554,-0.25321 1.054199,0 1.710487,0.83715 0.66146,0.83716 0.66146,2.20142 0,1.36426 -0.66146,2.20142 -0.656288,0.83715 -1.710487,0.83715 -0.63562,0 -1.09554,-0.24804 -0.454753,-0.25322 -0.754476,-0.76998 z m 3.234943,-2.02055 q 0,-1.04903 -0.434081,-1.64331 -0.428914,-0.59945 -1.18339,-0.59945 -0.754476,0 -1.188558,0.59945 -0.428914,0.59428 -0.428914,1.64331 0,1.04903 0.428914,1.64848 0.434082,0.59428 1.188558,0.59428 0.754476,0 1.18339,-0.59428 0.434081,-0.59945 0.434081,-1.64848 z"
             style="stroke-width:0.01852198"
             id="path328"
             inkscape:connector-curvature="0" />
          <path
             d="m 102.77869,99.264409 h 0.95085 v 8.040851 h -0.95085 z"
             style="stroke-width:0.01852198"
             id="path330"
             inkscape:connector-curvature="0" />
          <path
             d="m 108.34424,104.39588 q -1.15239,0 -1.5968,0.26355 -0.44442,0.26355 -0.44442,0.89917 0,0.50643 0.33073,0.80615 0.3359,0.29456 0.9095,0.29456 0.79065,0 1.26608,-0.55811 0.48059,-0.56327 0.48059,-1.49345 v -0.21187 z m 1.89652,-0.39274 v 3.30212 h -0.95084 v -0.8785 q -0.32556,0.5271 -0.81132,0.78032 -0.48576,0.24804 -1.18856,0.24804 -0.88883,0 -1.41593,-0.49609 -0.52194,-0.50126 -0.52194,-1.33842 0,-0.97668 0.65113,-1.47278 0.65629,-0.49609 1.95337,-0.49609 h 1.33325 v -0.093 q 0,-0.65629 -0.43408,-1.01286 -0.42892,-0.36173 -1.20923,-0.36173 -0.4961,0 -0.96635,0.11885 -0.47026,0.11886 -0.90434,0.35657 v -0.8785 q 0.52193,-0.20154 1.01286,-0.29972 0.49092,-0.10335 0.95601,-0.10335 1.25574,0 1.87586,0.65112 0.62011,0.65112 0.62011,1.97404 z"
             style="stroke-width:0.01852198"
             id="path332"
             inkscape:connector-curvature="0" />
          <path
             d="m 116.36959,101.73971 v 0.88883 q -0.40307,-0.2222 -0.81132,-0.33072 -0.40307,-0.11369 -0.81649,-0.11369 -0.925,0 -1.4366,0.58911 -0.5116,0.58394 -0.5116,1.64331 0,1.05937 0.5116,1.64848 0.5116,0.58394 1.4366,0.58394 0.41342,0 0.81649,-0.10852 0.40825,-0.11369 0.81132,-0.3359 v 0.8785 q -0.39791,0.18604 -0.82682,0.27906 -0.42375,0.093 -0.90434,0.093 -1.30741,0 -2.07739,-0.82165 -0.76998,-0.82166 -0.76998,-2.21692 0,-1.41593 0.77515,-2.22725 0.78031,-0.81132 2.13423,-0.81132 0.43925,0 0.85783,0.093 0.41858,0.0879 0.81132,0.26872 z"
             style="stroke-width:0.01852198"
             id="path334"
             inkscape:connector-curvature="0" />
          <path
             d="m 122.98417,104.17367 v 0.46509 h -4.37182 q 0.062,0.98185 0.58911,1.49861 0.53227,0.5116 1.47795,0.5116 0.54777,0 1.05936,-0.13436 0.51677,-0.13436 1.0232,-0.40307 v 0.89917 q -0.5116,0.21704 -1.04904,0.33073 -0.53743,0.11368 -1.09037,0.11368 -1.38493,0 -2.19625,-0.80615 -0.80615,-0.80615 -0.80615,-2.18074 0,-1.42111 0.76481,-2.2531 0.76998,-0.83715 2.07223,-0.83715 1.16788,0 1.84485,0.75447 0.68212,0.74931 0.68212,2.04122 z m -0.95084,-0.27905 q -0.0103,-0.78032 -0.43925,-1.2454 -0.42375,-0.46509 -1.12655,-0.46509 -0.79581,0 -1.27641,0.44958 -0.47542,0.44959 -0.54777,1.26608 z"
             style="stroke-width:0.01852198"
             id="path336"
             inkscape:connector-curvature="0" />
          <path
             d="m 131.72266,102.396 v -3.131591 h 0.95084 v 8.040851 h -0.95084 v -0.86816 q -0.29973,0.51676 -0.75965,0.76998 -0.45475,0.24804 -1.09554,0.24804 -1.04903,0 -1.71049,-0.83715 -0.65629,-0.83716 -0.65629,-2.20142 0,-1.36426 0.65629,-2.20142 0.66146,-0.83715 1.71049,-0.83715 0.64079,0 1.09554,0.25321 0.45992,0.24805 0.75965,0.76481 z m -3.24012,2.02055 q 0,1.04903 0.42892,1.64848 0.43408,0.59428 1.18856,0.59428 0.75447,0 1.18856,-0.59428 0.43408,-0.59945 0.43408,-1.64848 0,-1.04903 -0.43408,-1.64331 -0.43409,-0.59945 -1.18856,-0.59945 -0.75448,0 -1.18856,0.59945 -0.42892,0.59428 -0.42892,1.64331 z"
             style="stroke-width:0.01852198"
             id="path338"
             inkscape:connector-curvature="0" />
          <path
             d="m 134.63205,101.5175 h 0.95084 v 5.78776 h -0.95084 z m 0,-2.253091 h 0.95084 v 1.204061 h -0.95084 z"
             style="stroke-width:0.01852198"
             id="path340"
             inkscape:connector-curvature="0" />
          <path
             d="m 144.06298,99.264409 v 0.790651 h -0.9095 q -0.5116,0 -0.71314,0.2067 -0.19637,0.20671 -0.19637,0.74414 v 0.5116 h 1.5658 v 0.73897 h -1.5658 v 5.04879 h -0.95601 v -5.04879 h -2.60966 v 5.04879 h -0.95601 v -5.04879 h -0.90951 v -0.73897 h 0.90951 v -0.40307 q 0,-0.96635 0.44958,-1.405603 0.44959,-0.444418 1.42627,-0.444418 h 0.89917 v 0.790651 h -0.9095 q -0.5116,0 -0.71314,0.2067 -0.19637,0.20671 -0.19637,0.74414 v 0.5116 h 2.60966 v -0.40307 q 0,-0.96635 0.44958,-1.405603 0.44959,-0.444418 1.42627,-0.444418 z"
             style="stroke-width:0.01852198"
             id="path342"
             inkscape:connector-curvature="0" />
          <path
             d="m 149.81458,104.17367 v 0.46509 h -4.37182 q 0.062,0.98185 0.58911,1.49861 0.53226,0.5116 1.47794,0.5116 0.54777,0 1.05937,-0.13436 0.51676,-0.13436 1.02319,-0.40307 v 0.89917 q -0.51159,0.21704 -1.04903,0.33073 -0.53743,0.11368 -1.09037,0.11368 -1.38493,0 -2.19625,-0.80615 -0.80615,-0.80615 -0.80615,-2.18074 0,-1.42111 0.76481,-2.2531 0.76998,-0.83715 2.07222,-0.83715 1.16789,0 1.84485,0.75447 0.68213,0.74931 0.68213,2.04122 z m -0.95085,-0.27905 q -0.0103,-0.78032 -0.43924,-1.2454 -0.42375,-0.46509 -1.12655,-0.46509 -0.79582,0 -1.27641,0.44958 -0.47542,0.44959 -0.54777,1.26608 z"
             style="stroke-width:0.01852198"
             id="path344"
             inkscape:connector-curvature="0" />
          <path
             d="m 154.72901,102.40634 q -0.1602,-0.093 -0.3514,-0.13436 -0.18604,-0.0465 -0.41341,-0.0465 -0.80615,0 -1.24024,0.5271 -0.42891,0.52193 -0.42891,1.50378 v 3.04891 h -0.95601 v -5.78776 h 0.95601 v 0.89917 q 0.29972,-0.5271 0.78031,-0.78031 0.48059,-0.25838 1.16789,-0.25838 0.0982,0 0.21704,0.0155 0.11886,0.0103 0.26355,0.0362 z"
             style="stroke-width:0.01852198"
             id="path346"
             inkscape:connector-curvature="0" />
          <path
             d="m 160.45992,104.17367 v 0.46509 h -4.37183 q 0.062,0.98185 0.58912,1.49861 0.53226,0.5116 1.47794,0.5116 0.54777,0 1.05937,-0.13436 0.51676,-0.13436 1.02319,-0.40307 v 0.89917 q -0.51159,0.21704 -1.04903,0.33073 -0.53743,0.11368 -1.09037,0.11368 -1.38493,0 -2.19625,-0.80615 -0.80615,-0.80615 -0.80615,-2.18074 0,-1.42111 0.76481,-2.2531 0.76998,-0.83715 2.07222,-0.83715 1.16789,0 1.84485,0.75447 0.68213,0.74931 0.68213,2.04122 z m -0.95085,-0.27905 q -0.0103,-0.78032 -0.43924,-1.2454 -0.42375,-0.46509 -1.12655,-0.46509 -0.79582,0 -1.27641,0.44958 -0.47542,0.44959 -0.54777,1.26608 z"
             style="stroke-width:0.01852198"
             id="path348"
             inkscape:connector-curvature="0" />
          <path
             d="m 166.83163,103.81194 v 3.49332 h -0.95085 v -3.46232 q 0,-0.82165 -0.3204,-1.2299 -0.32039,-0.40824 -0.96118,-0.40824 -0.76998,0 -1.21439,0.49092 -0.44442,0.49093 -0.44442,1.33842 v 3.27112 h -0.95601 v -5.78776 h 0.95601 v 0.89917 q 0.34106,-0.52193 0.80098,-0.78031 0.46509,-0.25838 1.06971,-0.25838 0.99735,0 1.50895,0.62011 0.5116,0.61495 0.5116,1.81385 z"
             style="stroke-width:0.01852198"
             id="path350"
             inkscape:connector-curvature="0" />
          <path
             d="m 169.679,99.874191 v 1.643309 h 1.95854 v 0.73897 H 169.679 v 3.14193 q 0,0.70797 0.1912,0.90951 0.19637,0.20153 0.79065,0.20153 h 0.97669 v 0.79582 h -0.97669 q -1.1007,0 -1.51928,-0.40824 -0.41858,-0.41341 -0.41858,-1.49862 v -3.14193 h -0.69763 v -0.73897 h 0.69763 v -1.643309 z"
             style="stroke-width:0.01852198"
             id="path352"
             inkscape:connector-curvature="0" />
          <path
             d="m 176.26257,99.264409 h 0.95085 v 8.040851 h -0.95085 z"
             style="stroke-width:0.01852198"
             id="path354"
             inkscape:connector-curvature="0" />
          <path
             d="m 184.1484,104.17367 v 0.46509 h -4.37183 q 0.062,0.98185 0.58911,1.49861 0.53227,0.5116 1.47795,0.5116 0.54777,0 1.05937,-0.13436 0.51676,-0.13436 1.02319,-0.40307 v 0.89917 q -0.5116,0.21704 -1.04903,0.33073 -0.53744,0.11368 -1.09038,0.11368 -1.38492,0 -2.19624,-0.80615 -0.80616,-0.80615 -0.80616,-2.18074 0,-1.42111 0.76482,-2.2531 0.76997,-0.83715 2.07222,-0.83715 1.16789,0 1.84485,0.75447 0.68213,0.74931 0.68213,2.04122 z m -0.95085,-0.27905 q -0.0103,-0.78032 -0.43925,-1.2454 -0.42375,-0.46509 -1.12654,-0.46509 -0.79582,0 -1.27641,0.44958 -0.47543,0.44959 -0.54777,1.26608 z"
             style="stroke-width:0.01852198"
             id="path356"
             inkscape:connector-curvature="0" />
          <path
             d="m 186.64954,99.874191 v 1.643309 h 1.95853 v 0.73897 h -1.95853 v 3.14193 q 0,0.70797 0.1912,0.90951 0.19637,0.20153 0.79065,0.20153 h 0.97668 v 0.79582 h -0.97668 q -1.10071,0 -1.51929,-0.40824 -0.41858,-0.41341 -0.41858,-1.49862 v -3.14193 h -0.69763 v -0.73897 h 0.69763 v -1.643309 z"
             style="stroke-width:0.01852198"
             id="path358"
             inkscape:connector-curvature="0" />
          <path
             d="m 190.80432,99.874191 v 1.643309 h 1.95854 v 0.73897 h -1.95854 v 3.14193 q 0,0.70797 0.1912,0.90951 0.19638,0.20153 0.79065,0.20153 h 0.97669 v 0.79582 h -0.97669 q -1.1007,0 -1.51928,-0.40824 -0.41858,-0.41341 -0.41858,-1.49862 v -3.14193 h -0.69763 v -0.73897 h 0.69763 v -1.643309 z"
             style="stroke-width:0.01852198"
             id="path360"
             inkscape:connector-curvature="0" />
          <path
             d="m 198.9692,104.17367 v 0.46509 h -4.37183 q 0.062,0.98185 0.58911,1.49861 0.53227,0.5116 1.47795,0.5116 0.54777,0 1.05937,-0.13436 0.51676,-0.13436 1.02319,-0.40307 v 0.89917 q -0.5116,0.21704 -1.04903,0.33073 -0.53744,0.11368 -1.09037,0.11368 -1.38493,0 -2.19625,-0.80615 -0.80616,-0.80615 -0.80616,-2.18074 0,-1.42111 0.76482,-2.2531 0.76997,-0.83715 2.07222,-0.83715 1.16789,0 1.84485,0.75447 0.68213,0.74931 0.68213,2.04122 z m -0.95085,-0.27905 q -0.0103,-0.78032 -0.43925,-1.2454 -0.42374,-0.46509 -1.12654,-0.46509 -0.79582,0 -1.27641,0.44958 -0.47542,0.44959 -0.54777,1.26608 z"
             style="stroke-width:0.01852198"
             id="path362"
             inkscape:connector-curvature="0" />
          <path
             d="m 203.88363,102.40634 q -0.1602,-0.093 -0.3514,-0.13436 -0.18604,-0.0465 -0.41341,-0.0465 -0.80616,0 -1.24024,0.5271 -0.42891,0.52193 -0.42891,1.50378 v 3.04891 h -0.95602 v -5.78776 h 0.95602 v 0.89917 q 0.29972,-0.5271 0.78031,-0.78031 0.48059,-0.25838 1.16789,-0.25838 0.0982,0 0.21704,0.0155 0.11886,0.0103 0.26355,0.0362 z"
             style="stroke-width:0.01852198"
             id="path364"
             inkscape:connector-curvature="0" />
          <path
             d="m 208.58102,101.68803 v 0.89917 q -0.40308,-0.2067 -0.83716,-0.31005 -0.43408,-0.10336 -0.89917,-0.10336 -0.70797,0 -1.06453,0.21704 -0.3514,0.21704 -0.3514,0.65113 0,0.33073 0.25321,0.52193 0.25322,0.18603 1.01803,0.35657 l 0.32556,0.0723 q 1.01286,0.21704 1.4366,0.61495 0.42892,0.39274 0.42892,1.10071 0,0.80615 -0.64079,1.27641 -0.63562,0.47025 -1.75183,0.47025 -0.46509,0 -0.97152,-0.093 -0.50126,-0.0879 -1.05936,-0.26872 v -0.98185 q 0.5271,0.27388 1.03869,0.41341 0.5116,0.13436 1.01286,0.13436 0.67179,0 1.03353,-0.22738 0.36173,-0.23254 0.36173,-0.65112 0,-0.38758 -0.26355,-0.59428 -0.25838,-0.20671 -1.14204,-0.39791 l -0.33073,-0.0775 q -0.88367,-0.18604 -1.27641,-0.56845 -0.39274,-0.38757 -0.39274,-1.05936 0,-0.81649 0.57877,-1.26091 0.57878,-0.44441 1.64331,-0.44441 0.5271,0 0.99219,0.0775 0.46509,0.0775 0.85783,0.23254 z"
             style="stroke-width:0.01852198"
             id="path366"
             inkscape:connector-curvature="0" />
          <path
             d="m 210.54472,105.99268 h 1.09038 v 1.31258 h -1.09038 z"
             style="stroke-width:0.01852198"
             id="path368"
             inkscape:connector-curvature="0" />
        </g>
      </g>
    </g>
  </g>
</svg>
