<?xml version="1.0" encoding="UTF-8" standalone="no"?>
<!-- Created with Inkscape (http://www.inkscape.org/) -->

<svg
   xmlns:dc="http://purl.org/dc/elements/1.1/"
   xmlns:cc="http://creativecommons.org/ns#"
   xmlns:rdf="http://www.w3.org/1999/02/22-rdf-syntax-ns#"
   xmlns:svg="http://www.w3.org/2000/svg"
   xmlns="http://www.w3.org/2000/svg"
   xmlns:sodipodi="http://sodipodi.sourceforge.net/DTD/sodipodi-0.dtd"
   xmlns:inkscape="http://www.inkscape.org/namespaces/inkscape"
   width="192.84093mm"
   height="36.700603mm"
   viewBox="0 0 192.84093 36.700604"
   version="1.1"
   id="svg8"
   inkscape:version="0.92.4 (5da689c313, 2019-01-14)"
   sodipodi:docname="four.svg">
  <defs
     id="defs2" />
  <sodipodi:namedview
     id="base"
     pagecolor="#ffffff"
     bordercolor="#666666"
     borderopacity="1.0"
     inkscape:pageopacity="0.0"
     inkscape:pageshadow="2"
     inkscape:zoom="0.7"
     inkscape:cx="298.6386"
     inkscape:cy="-61.510663"
     inkscape:document-units="mm"
     inkscape:current-layer="text88"
     showgrid="false"
     fit-margin-top="0"
     fit-margin-left="0"
     fit-margin-right="0"
     fit-margin-bottom="0"
     inkscape:window-width="1920"
     inkscape:window-height="1043"
     inkscape:window-x="1600"
     inkscape:window-y="18"
     inkscape:window-maximized="0" />
  <metadata
     id="metadata5">
    <rdf:RDF>
      <cc:Work
         rdf:about="">
        <dc:format>image/svg+xml</dc:format>
        <dc:type
           rdf:resource="http://purl.org/dc/dcmitype/StillImage" />
        <dc:title></dc:title>
      </cc:Work>
    </rdf:RDF>
  </metadata>
  <g
     inkscape:label="Layer 1"
     inkscape:groupmode="layer"
     id="layer1"
     transform="translate(-9.3198653,-75.336146)">
    <g
       aria-label="Something seems fishy about these pictures... you'll have to use your brain to figure out what!"
       style="font-style:normal;font-weight:normal;font-size:10.58333302px;line-height:1.25;font-family:sans-serif;text-align:center;letter-spacing:0px;word-spacing:0px;text-anchor:middle;fill:#000000;fill-opacity:1;stroke:none;stroke-width:0.26458332"
       id="text817">
      <g
         aria-label="Something seems fishy about these
pictures... which poison does the
abbreviation they conceal stand for?"
         style="font-style:normal;font-variant:normal;font-weight:normal;font-stretch:normal;font-size:10.58333302px;line-height:1.25;font-family:'Noto Color Emoji';-inkscape-font-specification:'Noto Color Emoji';letter-spacing:0px;word-spacing:0px;fill:#000000;fill-opacity:1;stroke:none;stroke-width:0.07000434"
         id="text88">
        <path
           d="m 16.332357,75.914922 v 1.018026 q -0.594279,-0.28422 -1.121379,-0.423747 -0.527099,-0.139526 -1.018025,-0.139526 -0.852661,0 -1.317749,0.330729 -0.459921,0.330729 -0.459921,0.940511 0,0.511597 0.304891,0.775147 0.310059,0.258382 1.167888,0.418579 l 0.630452,0.129191 q 1.167888,0.222208 1.720825,0.785481 0.558106,0.558106 0.558106,1.498617 0,1.121379 -0.754476,1.700155 -0.749308,0.578776 -2.201416,0.578776 -0.54777,0 -1.167887,-0.124024 -0.61495,-0.124023 -1.276408,-0.366903 v -1.074869 q 0.63562,0.356567 1.245402,0.537435 0.609782,0.180867 1.198893,0.180867 0.894002,0 1.379761,-0.3514 0.485758,-0.351399 0.485758,-1.002522 0,-0.568441 -0.3514,-0.888835 -0.346232,-0.320394 -1.142049,-0.480591 l -0.63562,-0.124023 q -1.167887,-0.232544 -1.689819,-0.728638 -0.521932,-0.496094 -0.521932,-1.379761 0,-1.023193 0.718302,-1.612304 0.72347,-0.589112 1.989543,-0.589112 0.542602,0 1.105876,0.09819 0.563273,0.09819 1.152384,0.294555 z"
           style="stroke-width:0.07000434"
           id="path106"
           inkscape:connector-curvature="0" />
        <path
           d="m 20.626668,78.255865 q -0.764811,0 -1.209228,0.599446 -0.444417,0.594279 -0.444417,1.632975 0,1.038697 0.439249,1.638143 0.444418,0.594279 1.214396,0.594279 0.759644,0 1.204061,-0.599446 0.444417,-0.599447 0.444417,-1.632976 0,-1.028361 -0.444417,-1.627807 -0.444417,-0.604614 -1.204061,-0.604614 z m 0,-0.806153 q 1.240235,0 1.948202,0.806153 0.707967,0.806152 0.707967,2.232421 0,1.421102 -0.707967,2.232422 -0.707967,0.806153 -1.948202,0.806153 -1.245402,0 -1.953369,-0.806153 -0.702799,-0.81132 -0.702799,-2.232422 0,-1.426269 0.702799,-2.232421 0.707967,-0.806153 1.953369,-0.806153 z"
           style="stroke-width:0.07000434"
           id="path108"
           inkscape:connector-curvature="0" />
        <path
           d="m 29.359985,78.700282 q 0.356568,-0.640788 0.852661,-0.945679 0.496094,-0.304891 1.167888,-0.304891 0.904337,0 1.395263,0.63562 0.490926,0.630453 0.490926,1.79834 v 3.493327 h -0.956014 v -3.462321 q 0,-0.83199 -0.294555,-1.235067 -0.294556,-0.403076 -0.89917,-0.403076 -0.738973,0 -1.167888,0.490926 -0.428914,0.490926 -0.428914,1.33842 v 3.271118 h -0.956014 v -3.462321 q 0,-0.837158 -0.294556,-1.235067 -0.294555,-0.403076 -0.909505,-0.403076 -0.728637,0 -1.157552,0.496094 -0.428914,0.490926 -0.428914,1.333252 v 3.271118 h -0.956014 v -5.78776 h 0.956014 v 0.89917 q 0.325561,-0.532268 0.780314,-0.785482 0.454753,-0.253215 1.080037,-0.253215 0.630453,0 1.069703,0.320394 0.444417,0.320394 0.65629,0.930176 z"
           style="stroke-width:0.07000434"
           id="path110"
           inkscape:connector-curvature="0" />
        <path
           d="m 40.119019,80.245407 v 0.465088 h -4.371826 q 0.06201,0.981852 0.589111,1.498617 0.532267,0.511596 1.477946,0.511596 0.54777,0 1.059367,-0.134358 0.516764,-0.134359 1.023193,-0.403077 v 0.89917 q -0.511597,0.217041 -1.049032,0.330729 -0.537434,0.113689 -1.090372,0.113689 -1.384929,0 -2.196249,-0.806153 -0.806152,-0.806152 -0.806152,-2.180745 0,-1.421102 0.764811,-2.253093 0.769979,-0.837158 2.072225,-0.837158 1.167888,0 1.844849,0.754476 0.682129,0.749308 0.682129,2.041219 z m -0.950847,-0.279053 q -0.01033,-0.780314 -0.439249,-1.245402 -0.423747,-0.465087 -1.126546,-0.465087 -0.795818,0 -1.276408,0.449585 -0.475423,0.449585 -0.54777,1.266072 z"
           style="stroke-width:0.07000434"
           id="path112"
           inkscape:connector-curvature="0" />
        <path
           d="m 42.620158,75.945928 v 1.643311 h 1.958537 v 0.738973 h -1.958537 v 3.141927 q 0,0.707967 0.191203,0.909505 0.19637,0.201538 0.790649,0.201538 h 0.976685 v 0.795817 H 43.60201 q -1.100708,0 -1.519287,-0.408244 -0.418579,-0.413411 -0.418579,-1.498616 v -3.141927 h -0.697632 v -0.738973 h 0.697632 v -1.643311 z"
           style="stroke-width:0.07000434"
           id="path114"
           inkscape:connector-curvature="0" />
        <path
           d="m 50.645508,79.883672 v 3.493327 h -0.950846 v -3.462321 q 0,-0.821655 -0.320394,-1.229899 -0.320394,-0.408244 -0.961182,-0.408244 -0.769979,0 -1.214396,0.490926 -0.444417,0.490926 -0.444417,1.33842 v 3.271118 h -0.956014 v -8.040853 h 0.956014 v 3.152263 q 0.341064,-0.521932 0.800984,-0.780315 0.465088,-0.258382 1.069703,-0.258382 0.997355,0 1.508951,0.620117 0.511597,0.61495 0.511597,1.813843 z"
           style="stroke-width:0.07000434"
           id="path116"
           inkscape:connector-curvature="0" />
        <path
           d="m 52.552366,77.589239 h 0.950846 v 5.78776 h -0.950846 z m 0,-2.253093 h 0.950846 v 1.204061 h -0.950846 z"
           style="stroke-width:0.07000434"
           id="path118"
           inkscape:connector-curvature="0" />
        <path
           d="m 60.298664,79.883672 v 3.493327 h -0.950846 v -3.462321 q 0,-0.821655 -0.320394,-1.229899 -0.320394,-0.408244 -0.961182,-0.408244 -0.769978,0 -1.214396,0.490926 -0.444417,0.490926 -0.444417,1.33842 v 3.271118 h -0.956014 v -5.78776 h 0.956014 v 0.89917 q 0.341064,-0.521932 0.800985,-0.780315 0.465088,-0.258382 1.069702,-0.258382 0.997355,0 1.508952,0.620117 0.511596,0.61495 0.511596,1.813843 z"
           style="stroke-width:0.07000434"
           id="path120"
           inkscape:connector-curvature="0" />
        <path
           d="m 66.014079,80.415939 q 0,-1.033528 -0.428914,-1.601969 -0.423747,-0.568441 -1.193726,-0.568441 -0.764811,0 -1.193726,0.568441 -0.423746,0.568441 -0.423746,1.601969 0,1.028361 0.423746,1.596802 0.428915,0.568441 1.193726,0.568441 0.769979,0 1.193726,-0.568441 0.428914,-0.568441 0.428914,-1.596802 z m 0.950846,2.242758 q 0,1.477945 -0.65629,2.196248 -0.656291,0.72347 -2.010214,0.72347 -0.501261,0 -0.945678,-0.07752 -0.444418,-0.07235 -0.862997,-0.227376 v -0.925008 q 0.418579,0.227376 0.826823,0.335897 0.408244,0.10852 0.831991,0.10852 0.935343,0 1.400431,-0.490926 0.465088,-0.485758 0.465088,-1.472778 v -0.470256 q -0.294556,0.511597 -0.754476,0.764811 -0.45992,0.253215 -1.100708,0.253215 -1.064534,0 -1.715657,-0.81132 -0.651123,-0.81132 -0.651123,-2.14974 0,-1.343587 0.651123,-2.154907 0.651123,-0.81132 1.715657,-0.81132 0.640788,0 1.100708,0.253215 0.45992,0.253214 0.754476,0.764811 v -0.878499 h 0.950846 z"
           style="stroke-width:0.07000434"
           id="path122"
           inkscape:connector-curvature="0" />
        <path
           d="m 75.982461,77.759771 v 0.89917 q -0.403076,-0.206706 -0.837158,-0.310059 -0.434082,-0.103353 -0.89917,-0.103353 -0.707967,0 -1.064534,0.217041 -0.3514,0.217041 -0.3514,0.651123 0,0.33073 0.253215,0.521932 0.253214,0.186035 1.018025,0.356568 l 0.325562,0.07235 q 1.012858,0.217041 1.436605,0.614949 0.428914,0.392741 0.428914,1.100708 0,0.806153 -0.640788,1.276408 -0.63562,0.470256 -1.751831,0.470256 -0.465088,0 -0.971517,-0.09302 -0.501261,-0.08785 -1.059366,-0.268717 v -0.981853 q 0.527099,0.273885 1.038696,0.413412 0.511597,0.134359 1.012858,0.134359 0.671793,0 1.033528,-0.227377 0.361736,-0.232544 0.361736,-0.651123 0,-0.387573 -0.26355,-0.594279 -0.258382,-0.206705 -1.142049,-0.397908 l -0.33073,-0.07751 Q 72.69584,80.596807 72.3031,80.214401 q -0.392741,-0.387573 -0.392741,-1.059366 0,-0.816488 0.578776,-1.260905 0.578776,-0.444418 1.64331,-0.444418 0.5271,0 0.992188,0.07751 0.465088,0.07752 0.857828,0.232544 z"
           style="stroke-width:0.07000434"
           id="path124"
           inkscape:connector-curvature="0" />
        <path
           d="m 82.762406,80.245407 v 0.465088 h -4.371827 q 0.06201,0.981852 0.589112,1.498617 0.532267,0.511596 1.477946,0.511596 0.54777,0 1.059367,-0.134358 0.516764,-0.134359 1.023193,-0.403077 v 0.89917 q -0.511597,0.217041 -1.049032,0.330729 -0.537435,0.113689 -1.090372,0.113689 -1.384929,0 -2.196249,-0.806153 -0.806152,-0.806152 -0.806152,-2.180745 0,-1.421102 0.764811,-2.253093 0.769979,-0.837158 2.072225,-0.837158 1.167887,0 1.844849,0.754476 0.682129,0.749308 0.682129,2.041219 z m -0.950847,-0.279053 q -0.01033,-0.780314 -0.439249,-1.245402 -0.423747,-0.465087 -1.126547,-0.465087 -0.795817,0 -1.276407,0.449585 -0.475424,0.449585 -0.547771,1.266072 z"
           style="stroke-width:0.07000434"
           id="path126"
           inkscape:connector-curvature="0" />
        <path
           d="m 89.273636,80.245407 v 0.465088 H 84.90181 q 0.06201,0.981852 0.589111,1.498617 0.532268,0.511596 1.477946,0.511596 0.54777,0 1.059367,-0.134358 0.516764,-0.134359 1.023193,-0.403077 v 0.89917 q -0.511596,0.217041 -1.049031,0.330729 -0.537435,0.113689 -1.090373,0.113689 -1.384928,0 -2.196248,-0.806153 -0.806153,-0.806152 -0.806153,-2.180745 0,-1.421102 0.764812,-2.253093 0.769978,-0.837158 2.072225,-0.837158 1.167887,0 1.844848,0.754476 0.682129,0.749308 0.682129,2.041219 z M 88.32279,79.966354 q -0.01034,-0.780314 -0.43925,-1.245402 -0.423747,-0.465087 -1.126546,-0.465087 -0.795817,0 -1.276408,0.449585 -0.475423,0.449585 -0.54777,1.266072 z"
           style="stroke-width:0.07000434"
           id="path128"
           inkscape:connector-curvature="0" />
        <path
           d="m 95.340449,78.700282 q 0.356568,-0.640788 0.852661,-0.945679 0.496094,-0.304891 1.167888,-0.304891 0.904337,0 1.395263,0.63562 0.490926,0.630453 0.490926,1.79834 v 3.493327 h -0.956014 v -3.462321 q 0,-0.83199 -0.294555,-1.235067 -0.294556,-0.403076 -0.89917,-0.403076 -0.738973,0 -1.167888,0.490926 -0.428914,0.490926 -0.428914,1.33842 v 3.271118 h -0.956014 v -3.462321 q 0,-0.837158 -0.294556,-1.235067 -0.294555,-0.403076 -0.909505,-0.403076 -0.728637,0 -1.157552,0.496094 -0.428914,0.490926 -0.428914,1.333252 v 3.271118 h -0.956014 v -5.78776 h 0.956014 v 0.89917 q 0.325561,-0.532268 0.780314,-0.785482 0.454753,-0.253215 1.080037,-0.253215 0.630453,0 1.069702,0.320394 0.444418,0.320394 0.656291,0.930176 z"
           style="stroke-width:0.07000434"
           id="path130"
           inkscape:connector-curvature="0" />
        <path
           d="m 104.83858,77.759771 v 0.89917 q -0.40307,-0.206706 -0.83716,-0.310059 -0.43408,-0.103353 -0.89917,-0.103353 -0.70796,0 -1.06453,0.217041 -0.3514,0.217041 -0.3514,0.651123 0,0.33073 0.25321,0.521932 0.25322,0.186035 1.01803,0.356568 l 0.32556,0.07235 q 1.01286,0.217041 1.43661,0.614949 0.42891,0.392741 0.42891,1.100708 0,0.806153 -0.64079,1.276408 -0.63562,0.470256 -1.75183,0.470256 -0.46509,0 -0.97151,-0.09302 -0.50127,-0.08785 -1.05937,-0.268717 v -0.981853 q 0.5271,0.273885 1.03869,0.413412 0.5116,0.134359 1.01286,0.134359 0.6718,0 1.03353,-0.227377 0.36174,-0.232544 0.36174,-0.651123 0,-0.387573 -0.26355,-0.594279 -0.25839,-0.206705 -1.14205,-0.397908 l -0.33073,-0.07751 q -0.88367,-0.186035 -1.27641,-0.568441 -0.39274,-0.387573 -0.39274,-1.059366 0,-0.816488 0.57878,-1.260905 0.57877,-0.444418 1.64331,-0.444418 0.5271,0 0.99218,0.07751 0.46509,0.07752 0.85783,0.232544 z"
           style="stroke-width:0.07000434"
           id="path132"
           inkscape:connector-curvature="0" />
        <path
           d="m 114.71395,77.589239 v 5.78776 h -0.95602 v -5.048787 h -2.60966 v 5.048787 h -0.95601 v -5.048787 h -0.90951 v -0.738973 h 0.90951 v -0.403077 q 0,-0.945678 0.44442,-1.395263 0.44958,-0.454753 1.37459,-0.454753 h 0.95601 v 0.79065 h -0.9095 q -0.5116,0 -0.71314,0.206705 -0.19637,0.206706 -0.19637,0.744141 v 0.511597 z m -0.95602,-2.242757 h 0.95602 v 1.20406 h -0.95602 z"
           style="stroke-width:0.07000434"
           id="path134"
           inkscape:connector-curvature="0" />
        <path
           d="m 120.40352,77.759771 v 0.89917 q -0.40307,-0.206706 -0.83715,-0.310059 -0.43409,-0.103353 -0.89917,-0.103353 -0.70797,0 -1.06454,0.217041 -0.3514,0.217041 -0.3514,0.651123 0,0.33073 0.25322,0.521932 0.25321,0.186035 1.01802,0.356568 l 0.32556,0.07235 q 1.01286,0.217041 1.43661,0.614949 0.42891,0.392741 0.42891,1.100708 0,0.806153 -0.64079,1.276408 -0.63562,0.470256 -1.75183,0.470256 -0.46508,0 -0.97151,-0.09302 -0.50126,-0.08785 -1.05937,-0.268717 v -0.981853 q 0.5271,0.273885 1.0387,0.413412 0.51159,0.134359 1.01285,0.134359 0.6718,0 1.03353,-0.227377 0.36174,-0.232544 0.36174,-0.651123 0,-0.387573 -0.26355,-0.594279 -0.25838,-0.206705 -1.14205,-0.397908 l -0.33073,-0.07751 q -0.88367,-0.186035 -1.27641,-0.568441 -0.39274,-0.387573 -0.39274,-1.059366 0,-0.816488 0.57878,-1.260905 0.57877,-0.444418 1.64331,-0.444418 0.5271,0 0.99219,0.07751 0.46508,0.07752 0.85782,0.232544 z"
           style="stroke-width:0.07000434"
           id="path136"
           inkscape:connector-curvature="0" />
        <path
           d="m 127.04395,79.883672 v 3.493327 h -0.95085 v -3.462321 q 0,-0.821655 -0.32039,-1.229899 -0.3204,-0.408244 -0.96119,-0.408244 -0.76998,0 -1.21439,0.490926 -0.44442,0.490926 -0.44442,1.33842 v 3.271118 h -0.95601 v -8.040853 h 0.95601 v 3.152263 q 0.34106,-0.521932 0.80098,-0.780315 0.46509,-0.258382 1.06971,-0.258382 0.99735,0 1.50895,0.620117 0.5116,0.61495 0.5116,1.813843 z"
           style="stroke-width:0.07000434"
           id="path138"
           inkscape:connector-curvature="0" />
        <path
           d="m 131.35893,83.914434 q -0.40308,1.033528 -0.78549,1.348755 -0.3824,0.315226 -1.02319,0.315226 h -0.75964 v -0.795817 h 0.5581 q 0.39274,0 0.60978,-0.186035 0.21704,-0.186035 0.48059,-0.8785 l 0.17054,-0.434082 -2.34095,-5.694742 h 1.00769 l 1.80868,4.526855 1.80868,-4.526855 h 1.00769 z"
           style="stroke-width:0.07000434"
           id="path140"
           inkscape:connector-curvature="0" />
        <path
           d="m 141.21362,80.467616 q -1.15239,0 -1.5968,0.26355 -0.44442,0.263549 -0.44442,0.89917 0,0.506429 0.33073,0.806152 0.3359,0.294556 0.9095,0.294556 0.79065,0 1.26608,-0.558106 0.48059,-0.563273 0.48059,-1.493449 v -0.211873 z m 1.89652,-0.392741 v 3.302124 H 142.1593 V 82.4985 q -0.32556,0.527099 -0.81132,0.780314 -0.48576,0.248047 -1.18856,0.248047 -0.88884,0 -1.41594,-0.496094 -0.52193,-0.501262 -0.52193,-1.33842 0,-0.976684 0.65113,-1.472778 0.65629,-0.496094 1.95336,-0.496094 h 1.33326 v -0.09302 q 0,-0.656291 -0.43409,-1.012858 -0.42891,-0.361735 -1.20922,-0.361735 -0.4961,0 -0.96635,0.118855 -0.47026,0.118856 -0.90434,0.356568 v -0.8785 q 0.52193,-0.201538 1.01286,-0.299723 0.49092,-0.103353 0.95601,-0.103353 1.25574,0 1.87586,0.651123 0.62011,0.651123 0.62011,1.97404 z"
           style="stroke-width:0.07000434"
           id="path142"
           inkscape:connector-curvature="0" />
        <path
           d="m 149.22863,80.488286 q 0,-1.049031 -0.43408,-1.64331 -0.42892,-0.599447 -1.18339,-0.599447 -0.75448,0 -1.18856,0.599447 -0.42892,0.594279 -0.42892,1.64331 0,1.049032 0.42892,1.648479 0.43408,0.594279 1.18856,0.594279 0.75447,0 1.18339,-0.594279 0.43408,-0.599447 0.43408,-1.648479 z m -3.23495,-2.020548 q 0.29973,-0.516764 0.75448,-0.764811 0.45992,-0.253215 1.09554,-0.253215 1.0542,0 1.71049,0.837158 0.66146,0.837159 0.66146,2.201416 0,1.364258 -0.66146,2.201416 -0.65629,0.837159 -1.71049,0.837159 -0.63562,0 -1.09554,-0.248047 -0.45475,-0.253215 -0.75448,-0.769979 v 0.868164 h -0.95601 v -8.040853 h 0.95601 z"
           style="stroke-width:0.07000434"
           id="path144"
           inkscape:connector-curvature="0" />
        <path
           d="m 154.03454,78.255865 q -0.76481,0 -1.20923,0.599446 -0.44441,0.594279 -0.44441,1.632975 0,1.038697 0.43924,1.638143 0.44442,0.594279 1.2144,0.594279 0.75964,0 1.20406,-0.599446 0.44442,-0.599447 0.44442,-1.632976 0,-1.028361 -0.44442,-1.627807 -0.44442,-0.604614 -1.20406,-0.604614 z m 0,-0.806153 q 1.24024,0 1.9482,0.806153 0.70797,0.806152 0.70797,2.232421 0,1.421102 -0.70797,2.232422 -0.70796,0.806153 -1.9482,0.806153 -1.2454,0 -1.95337,-0.806153 -0.7028,-0.81132 -0.7028,-2.232422 0,-1.426269 0.7028,-2.232421 0.70797,-0.806153 1.95337,-0.806153 z"
           style="stroke-width:0.07000434"
           id="path146"
           inkscape:connector-curvature="0" />
        <path
           d="m 158.16349,81.092901 v -3.503662 h 0.95085 v 3.467488 q 0,0.821655 0.32039,1.235067 0.3204,0.408244 0.96118,0.408244 0.76998,0 1.2144,-0.490926 0.44959,-0.490927 0.44959,-1.33842 v -3.281453 h 0.95084 v 5.78776 h -0.95084 v -0.888835 q -0.34624,0.5271 -0.80616,0.785482 -0.45475,0.253215 -1.05936,0.253215 -0.99736,0 -1.51412,-0.620118 -0.51677,-0.620117 -0.51677,-1.813842 z m 2.39262,-3.643189 z"
           style="stroke-width:0.07000434"
           id="path148"
           inkscape:connector-curvature="0" />
        <path
           d="m 165.92012,75.945928 v 1.643311 h 1.95853 v 0.738973 h -1.95853 v 3.141927 q 0,0.707967 0.1912,0.909505 0.19637,0.201538 0.79065,0.201538 h 0.97668 v 0.795817 h -0.97668 q -1.10071,0 -1.51929,-0.408244 -0.41858,-0.413411 -0.41858,-1.498616 v -3.141927 h -0.69763 v -0.738973 h 0.69763 v -1.643311 z"
           style="stroke-width:0.07000434"
           id="path150"
           inkscape:connector-curvature="0" />
        <path
           d="m 173.44421,75.945928 v 1.643311 h 1.95854 v 0.738973 h -1.95854 v 3.141927 q 0,0.707967 0.1912,0.909505 0.19637,0.201538 0.79065,0.201538 h 0.97669 v 0.795817 h -0.97669 q -1.10071,0 -1.51929,-0.408244 -0.41857,-0.413411 -0.41857,-1.498616 v -3.141927 h -0.69764 v -0.738973 h 0.69764 v -1.643311 z"
           style="stroke-width:0.07000434"
           id="path152"
           inkscape:connector-curvature="0" />
        <path
           d="m 181.46956,79.883672 v 3.493327 h -0.95085 v -3.462321 q 0,-0.821655 -0.32039,-1.229899 -0.3204,-0.408244 -0.96118,-0.408244 -0.76998,0 -1.2144,0.490926 -0.44442,0.490926 -0.44442,1.33842 v 3.271118 h -0.95601 v -8.040853 h 0.95601 v 3.152263 q 0.34107,-0.521932 0.80099,-0.780315 0.46509,-0.258382 1.0697,-0.258382 0.99736,0 1.50895,0.620117 0.5116,0.61495 0.5116,1.813843 z"
           style="stroke-width:0.07000434"
           id="path154"
           inkscape:connector-curvature="0" />
        <path
           d="m 188.32703,80.245407 v 0.465088 h -4.37183 q 0.062,0.981852 0.58911,1.498617 0.53227,0.511596 1.47795,0.511596 0.54777,0 1.05936,-0.134358 0.51677,-0.134359 1.0232,-0.403077 v 0.89917 q -0.5116,0.217041 -1.04903,0.330729 -0.53744,0.113689 -1.09038,0.113689 -1.38492,0 -2.19624,-0.806153 -0.80616,-0.806152 -0.80616,-2.180745 0,-1.421102 0.76481,-2.253093 0.76998,-0.837158 2.07223,-0.837158 1.16789,0 1.84485,0.754476 0.68213,0.749308 0.68213,2.041219 z m -0.95085,-0.279053 q -0.0103,-0.780314 -0.43925,-1.245402 -0.42375,-0.465087 -1.12655,-0.465087 -0.79581,0 -1.2764,0.449585 -0.47543,0.449585 -0.54777,1.266072 z"
           style="stroke-width:0.07000434"
           id="path156"
           inkscape:connector-curvature="0" />
        <path
           d="m 193.57735,77.759771 v 0.89917 q -0.40307,-0.206706 -0.83716,-0.310059 -0.43408,-0.103353 -0.89917,-0.103353 -0.70796,0 -1.06453,0.217041 -0.3514,0.217041 -0.3514,0.651123 0,0.33073 0.25321,0.521932 0.25322,0.186035 1.01803,0.356568 l 0.32556,0.07235 q 1.01286,0.217041 1.43661,0.614949 0.42891,0.392741 0.42891,1.100708 0,0.806153 -0.64079,1.276408 -0.63562,0.470256 -1.75183,0.470256 -0.46509,0 -0.97151,-0.09302 -0.50127,-0.08785 -1.05937,-0.268717 v -0.981853 q 0.5271,0.273885 1.03869,0.413412 0.5116,0.134359 1.01286,0.134359 0.6718,0 1.03353,-0.227377 0.36174,-0.232544 0.36174,-0.651123 0,-0.387573 -0.26355,-0.594279 -0.25839,-0.206705 -1.14205,-0.397908 l -0.33073,-0.07751 q -0.88367,-0.186035 -1.27641,-0.568441 -0.39274,-0.387573 -0.39274,-1.059366 0,-0.816488 0.57878,-1.260905 0.57877,-0.444418 1.64331,-0.444418 0.5271,0 0.99218,0.07751 0.46509,0.07752 0.85783,0.232544 z"
           style="stroke-width:0.07000434"
           id="path158"
           inkscape:connector-curvature="0" />
        <path
           d="m 200.3573,80.245407 v 0.465088 h -4.37183 q 0.062,0.981852 0.58912,1.498617 0.53226,0.511596 1.47794,0.511596 0.54777,0 1.05937,-0.134358 0.51676,-0.134359 1.02319,-0.403077 v 0.89917 q -0.5116,0.217041 -1.04903,0.330729 -0.53744,0.113689 -1.09037,0.113689 -1.38493,0 -2.19625,-0.806153 -0.80615,-0.806152 -0.80615,-2.180745 0,-1.421102 0.76481,-2.253093 0.76998,-0.837158 2.07222,-0.837158 1.16789,0 1.84485,0.754476 0.68213,0.749308 0.68213,2.041219 z m -0.95085,-0.279053 q -0.0103,-0.780314 -0.43925,-1.245402 -0.42374,-0.465087 -1.12654,-0.465087 -0.79582,0 -1.27641,0.449585 -0.47542,0.449585 -0.54777,1.266072 z"
           style="stroke-width:0.07000434"
           id="path160"
           inkscape:connector-curvature="0" />
        <path
           d="m 20.51298,95.738001 v 3.06958 h -0.956014 v -7.989176 h 0.956014 v 0.878499 q 0.299723,-0.516764 0.754476,-0.764811 0.45992,-0.253214 1.09554,-0.253214 1.0542,0 1.71049,0.837158 0.661459,0.837158 0.661459,2.201416 0,1.364257 -0.661459,2.201416 -0.65629,0.837158 -1.71049,0.837158 -0.63562,0 -1.09554,-0.248047 -0.454753,-0.253215 -0.754476,-0.769979 z m 3.234945,-2.020548 q 0,-1.049032 -0.434082,-1.643311 -0.428915,-0.599446 -1.183391,-0.599446 -0.754475,0 -1.188557,0.599446 -0.428915,0.594279 -0.428915,1.643311 0,1.049031 0.428915,1.648478 0.434082,0.594279 1.188557,0.594279 0.754476,0 1.183391,-0.594279 0.434082,-0.599447 0.434082,-1.648478 z"
           style="stroke-width:0.07000434"
           id="path162"
           inkscape:connector-curvature="0" />
        <path
           d="m 26.311076,90.818405 h 0.950846 v 5.78776 h -0.950846 z m 0,-2.253092 h 0.950846 v 1.20406 h -0.950846 z"
           style="stroke-width:0.07000434"
           id="path164"
           inkscape:connector-curvature="0" />
        <path
           d="m 33.411417,91.040614 v 0.888834 q -0.403076,-0.222208 -0.81132,-0.330729 -0.403076,-0.113688 -0.816487,-0.113688 -0.925008,0 -1.436605,0.589111 -0.511597,0.583944 -0.511597,1.643311 0,1.059367 0.511597,1.648478 0.511597,0.583944 1.436605,0.583944 0.413411,0 0.816487,-0.108521 0.408244,-0.113688 0.81132,-0.335897 v 0.8785 q -0.397908,0.186035 -0.826823,0.279052 -0.423746,0.09302 -0.904337,0.09302 -1.307414,0 -2.077393,-0.821655 -0.769979,-0.821656 -0.769979,-2.216919 0,-1.415935 0.775147,-2.227254 0.780314,-0.81132 2.134237,-0.81132 0.439249,0 0.857828,0.09302 0.418579,0.08785 0.81132,0.268718 z"
           style="stroke-width:0.07000434"
           id="path166"
           inkscape:connector-curvature="0" />
        <path
           d="m 36.01591,89.175094 v 1.643311 h 1.958536 v 0.738973 H 36.01591 v 3.141927 q 0,0.707967 0.191202,0.909505 0.196371,0.201538 0.79065,0.201538 h 0.976684 v 0.795817 h -0.976684 q -1.100708,0 -1.519287,-0.408244 -0.418579,-0.413411 -0.418579,-1.498616 v -3.141927 h -0.697632 v -0.738973 h 0.697632 v -1.643311 z"
           style="stroke-width:0.07000434"
           id="path168"
           inkscape:connector-curvature="0" />
        <path
           d="m 39.131997,94.322067 v -3.503662 h 0.950847 v 3.467488 q 0,0.821656 0.320394,1.235067 0.320394,0.408244 0.961181,0.408244 0.769979,0 1.214396,-0.490926 0.449585,-0.490926 0.449585,-1.33842 v -3.281453 h 0.950847 v 5.78776 H 43.0284 v -0.888834 q -0.346232,0.527099 -0.806152,0.785481 -0.454753,0.253215 -1.059367,0.253215 -0.997355,0 -1.514119,-0.620117 -0.516765,-0.620118 -0.516765,-1.813843 z m 2.392619,-3.643188 z"
           style="stroke-width:0.07000434"
           id="path170"
           inkscape:connector-curvature="0" />
        <path
           d="m 49.301921,91.70724 q -0.160197,-0.09302 -0.3514,-0.134359 -0.186035,-0.04651 -0.413412,-0.04651 -0.806152,0 -1.240234,0.5271 -0.428914,0.521932 -0.428914,1.503784 v 3.048909 h -0.956014 v -5.78776 h 0.956014 v 0.89917 q 0.299723,-0.5271 0.780314,-0.780314 0.480591,-0.258382 1.167887,-0.258382 0.09819,0 0.217041,0.0155 0.118856,0.01034 0.26355,0.03617 z"
           style="stroke-width:0.07000434"
           id="path172"
           inkscape:connector-curvature="0" />
        <path
           d="m 55.032836,93.474573 v 0.465088 h -4.371827 q 0.06201,0.981853 0.589112,1.498617 0.532267,0.511597 1.477946,0.511597 0.54777,0 1.059367,-0.134359 0.516764,-0.134359 1.023193,-0.403076 v 0.89917 q -0.511597,0.217041 -1.049032,0.330729 -0.537435,0.113688 -1.090372,0.113688 -1.384929,0 -2.196249,-0.806152 -0.806152,-0.806153 -0.806152,-2.180746 0,-1.421102 0.764811,-2.253092 0.769979,-0.837158 2.072225,-0.837158 1.167887,0 1.844849,0.754475 0.682129,0.749309 0.682129,2.041219 z m -0.950847,-0.279052 q -0.01033,-0.780314 -0.439249,-1.245402 -0.423747,-0.465088 -1.126547,-0.465088 -0.795817,0 -1.276407,0.449585 -0.475424,0.449585 -0.547771,1.266072 z"
           style="stroke-width:0.07000434"
           id="path174"
           inkscape:connector-curvature="0" />
        <path
           d="m 60.283161,90.988937 v 0.89917 q -0.403076,-0.206706 -0.837158,-0.310059 -0.434082,-0.103352 -0.89917,-0.103352 -0.707967,0 -1.064534,0.217041 -0.3514,0.217041 -0.3514,0.651123 0,0.330729 0.253214,0.521932 0.253215,0.186035 1.018026,0.356567 l 0.325562,0.07235 q 1.012858,0.217041 1.436604,0.614949 0.428915,0.392741 0.428915,1.100708 0,0.806153 -0.640788,1.276408 -0.63562,0.470256 -1.751831,0.470256 -0.465088,0 -0.971517,-0.09302 -0.501261,-0.08785 -1.059367,-0.268717 V 95.41244 q 0.5271,0.273885 1.038696,0.413411 0.511597,0.134359 1.012859,0.134359 0.671793,0 1.033528,-0.227377 0.361735,-0.232543 0.361735,-0.651123 0,-0.387573 -0.26355,-0.594278 -0.258382,-0.206706 -1.142049,-0.397909 l -0.330729,-0.07752 q -0.883667,-0.186035 -1.276408,-0.56844 -0.392741,-0.387574 -0.392741,-1.059367 0,-0.816488 0.578776,-1.260905 0.578776,-0.444417 1.643311,-0.444417 0.527099,0 0.992187,0.07751 0.465088,0.07751 0.857829,0.232544 z"
           style="stroke-width:0.07000434"
           id="path176"
           inkscape:connector-curvature="0" />
        <path
           d="m 62.246866,95.293584 h 1.090372 v 1.312581 h -1.090372 z"
           style="stroke-width:0.07000434"
           id="path178"
           inkscape:connector-curvature="0" />
        <path
           d="m 65.61617,95.293584 h 1.090373 v 1.312581 H 65.61617 Z"
           style="stroke-width:0.07000434"
           id="path180"
           inkscape:connector-curvature="0" />
        <path
           d="m 68.985471,95.293584 h 1.090373 v 1.312581 h -1.090373 z"
           style="stroke-width:0.07000434"
           id="path182"
           inkscape:connector-curvature="0" />
        <path
           d="m 75.036784,90.818405 h 0.950846 l 1.188558,4.51652 1.18339,-4.51652 h 1.121379 l 1.188558,4.51652 1.18339,-4.51652 h 0.950846 l -1.514119,5.78776 h -1.121379 l -1.245401,-4.743896 -1.25057,4.743896 h -1.121379 z"
           style="stroke-width:0.07000434"
           id="path184"
           inkscape:connector-curvature="0" />
        <path
           d="m 89.061762,93.112838 v 3.493327 h -0.950846 v -3.462321 q 0,-0.821655 -0.320394,-1.229899 -0.320394,-0.408244 -0.961181,-0.408244 -0.769979,0 -1.214397,0.490927 -0.444417,0.490926 -0.444417,1.338419 v 3.271118 h -0.956014 v -8.040852 h 0.956014 v 3.152262 q 0.341065,-0.521932 0.800985,-0.780314 0.465088,-0.258382 1.069702,-0.258382 0.997355,0 1.508952,0.620117 0.511596,0.614949 0.511596,1.813842 z"
           style="stroke-width:0.07000434"
           id="path186"
           inkscape:connector-curvature="0" />
        <path
           d="m 90.968628,90.818405 h 0.950846 v 5.78776 h -0.950846 z m 0,-2.253092 h 0.950846 v 1.20406 h -0.950846 z"
           style="stroke-width:0.07000434"
           id="path188"
           inkscape:connector-curvature="0" />
        <path
           d="m 98.068967,91.040614 v 0.888834 q -0.403076,-0.222208 -0.81132,-0.330729 -0.403076,-0.113688 -0.816487,-0.113688 -0.925009,0 -1.436605,0.589111 -0.511597,0.583944 -0.511597,1.643311 0,1.059367 0.511597,1.648478 0.511596,0.583944 1.436605,0.583944 0.413411,0 0.816487,-0.108521 0.408244,-0.113688 0.81132,-0.335897 v 0.8785 q -0.397908,0.186035 -0.826823,0.279052 -0.423747,0.09302 -0.904337,0.09302 -1.307414,0 -2.077393,-0.821655 -0.769979,-0.821656 -0.769979,-2.216919 0,-1.415935 0.775147,-2.227254 0.780314,-0.81132 2.134236,-0.81132 0.43925,0 0.857829,0.09302 0.418579,0.08785 0.81132,0.268718 z"
           style="stroke-width:0.07000434"
           id="path190"
           inkscape:connector-curvature="0" />
        <path
           d="m 104.54402,93.112838 v 3.493327 h -0.95084 v -3.462321 q 0,-0.821655 -0.3204,-1.229899 -0.32039,-0.408244 -0.96118,-0.408244 -0.76998,0 -1.21439,0.490927 -0.44442,0.490926 -0.44442,1.338419 v 3.271118 h -0.956015 v -8.040852 h 0.956015 v 3.152262 q 0.34106,-0.521932 0.80098,-0.780314 0.46509,-0.258382 1.06971,-0.258382 0.99735,0 1.50895,0.620117 0.51159,0.614949 0.51159,1.813842 z"
           style="stroke-width:0.07000434"
           id="path192"
           inkscape:connector-curvature="0" />
        <path
           d="m 110.74003,95.738001 v 3.06958 h -0.95601 v -7.989176 h 0.95601 v 0.878499 q 0.29972,-0.516764 0.75448,-0.764811 0.45992,-0.253214 1.09554,-0.253214 1.0542,0 1.71049,0.837158 0.66146,0.837158 0.66146,2.201416 0,1.364257 -0.66146,2.201416 -0.65629,0.837158 -1.71049,0.837158 -0.63562,0 -1.09554,-0.248047 -0.45476,-0.253215 -0.75448,-0.769979 z m 3.23495,-2.020548 q 0,-1.049032 -0.43409,-1.643311 -0.42891,-0.599446 -1.18339,-0.599446 -0.75447,0 -1.18855,0.599446 -0.42892,0.594279 -0.42892,1.643311 0,1.049031 0.42892,1.648478 0.43408,0.594279 1.18855,0.594279 0.75448,0 1.18339,-0.594279 0.43409,-0.599447 0.43409,-1.648478 z"
           style="stroke-width:0.07000434"
           id="path194"
           inkscape:connector-curvature="0" />
        <path
           d="m 118.78088,91.485031 q -0.76481,0 -1.20923,0.599446 -0.44441,0.594279 -0.44441,1.632976 0,1.038696 0.43925,1.638143 0.44441,0.594279 1.21439,0.594279 0.75964,0 1.20406,-0.599447 0.44442,-0.599447 0.44442,-1.632975 0,-1.028361 -0.44442,-1.627808 -0.44442,-0.604614 -1.20406,-0.604614 z m 0,-0.806152 q 1.24024,0 1.9482,0.806152 0.70797,0.806152 0.70797,2.232422 0,1.421102 -0.70797,2.232422 -0.70796,0.806152 -1.9482,0.806152 -1.2454,0 -1.95337,-0.806152 -0.7028,-0.81132 -0.7028,-2.232422 0,-1.42627 0.7028,-2.232422 0.70797,-0.806152 1.95337,-0.806152 z"
           style="stroke-width:0.07000434"
           id="path196"
           inkscape:connector-curvature="0" />
        <path
           d="m 123.00801,90.818405 h 0.95085 v 5.78776 h -0.95085 z m 0,-2.253092 h 0.95085 v 1.20406 h -0.95085 z"
           style="stroke-width:0.07000434"
           id="path198"
           inkscape:connector-curvature="0" />
        <path
           d="m 129.63293,90.988937 v 0.89917 q -0.40307,-0.206706 -0.83715,-0.310059 -0.43409,-0.103352 -0.89917,-0.103352 -0.70797,0 -1.06454,0.217041 -0.3514,0.217041 -0.3514,0.651123 0,0.330729 0.25322,0.521932 0.25321,0.186035 1.01802,0.356567 l 0.32556,0.07235 q 1.01286,0.217041 1.43661,0.614949 0.42891,0.392741 0.42891,1.100708 0,0.806153 -0.64078,1.276408 -0.63562,0.470256 -1.75184,0.470256 -0.46508,0 -0.97151,-0.09302 -0.50126,-0.08785 -1.05937,-0.268717 V 95.41244 q 0.5271,0.273885 1.0387,0.413411 0.51159,0.134359 1.01285,0.134359 0.6718,0 1.03353,-0.227377 0.36174,-0.232543 0.36174,-0.651123 0,-0.387573 -0.26355,-0.594278 -0.25838,-0.206706 -1.14205,-0.397909 l -0.33073,-0.07752 q -0.88367,-0.186035 -1.27641,-0.56844 -0.39274,-0.387574 -0.39274,-1.059367 0,-0.816488 0.57878,-1.260905 0.57877,-0.444417 1.64331,-0.444417 0.5271,0 0.99219,0.07751 0.46508,0.07751 0.85782,0.232544 z"
           style="stroke-width:0.07000434"
           id="path200"
           inkscape:connector-curvature="0" />
        <path
           d="m 133.70504,91.485031 q -0.76481,0 -1.20923,0.599446 -0.44442,0.594279 -0.44442,1.632976 0,1.038696 0.43925,1.638143 0.44442,0.594279 1.2144,0.594279 0.75964,0 1.20406,-0.599447 0.44442,-0.599447 0.44442,-1.632975 0,-1.028361 -0.44442,-1.627808 -0.44442,-0.604614 -1.20406,-0.604614 z m 0,-0.806152 q 1.24023,0 1.9482,0.806152 0.70797,0.806152 0.70797,2.232422 0,1.421102 -0.70797,2.232422 -0.70797,0.806152 -1.9482,0.806152 -1.2454,0 -1.95337,-0.806152 -0.7028,-0.81132 -0.7028,-2.232422 0,-1.42627 0.7028,-2.232422 0.70797,-0.806152 1.95337,-0.806152 z"
           style="stroke-width:0.07000434"
           id="path202"
           inkscape:connector-curvature="0" />
        <path
           d="m 142.74324,93.112838 v 3.493327 h -0.95084 v -3.462321 q 0,-0.821655 -0.3204,-1.229899 -0.32039,-0.408244 -0.96118,-0.408244 -0.76998,0 -1.2144,0.490927 -0.44441,0.490926 -0.44441,1.338419 v 3.271118 h -0.95602 v -5.78776 h 0.95602 v 0.89917 q 0.34106,-0.521932 0.80098,-0.780314 0.46509,-0.258382 1.0697,-0.258382 0.99736,0 1.50896,0.620117 0.51159,0.614949 0.51159,1.813842 z"
           style="stroke-width:0.07000434"
           id="path204"
           inkscape:connector-curvature="0" />
        <path
           d="m 151.82796,91.696904 v -3.131591 h 0.95085 v 8.040852 h -0.95085 v -0.868164 q -0.29972,0.516764 -0.75964,0.769979 -0.45475,0.248047 -1.09554,0.248047 -1.04903,0 -1.71049,-0.837158 -0.65629,-0.837159 -0.65629,-2.201416 0,-1.364258 0.65629,-2.201416 0.66146,-0.837158 1.71049,-0.837158 0.64079,0 1.09554,0.253214 0.45992,0.248047 0.75964,0.764811 z m -3.24011,2.020549 q 0,1.049031 0.42891,1.648478 0.43409,0.594279 1.18856,0.594279 0.75448,0 1.18856,-0.594279 0.43408,-0.599447 0.43408,-1.648478 0,-1.049032 -0.43408,-1.643311 -0.43408,-0.599446 -1.18856,-0.599446 -0.75447,0 -1.18856,0.599446 -0.42891,0.594279 -0.42891,1.643311 z"
           style="stroke-width:0.07000434"
           id="path206"
           inkscape:connector-curvature="0" />
        <path
           d="m 156.98009,91.485031 q -0.76481,0 -1.20923,0.599446 -0.44441,0.594279 -0.44441,1.632976 0,1.038696 0.43925,1.638143 0.44441,0.594279 1.21439,0.594279 0.75965,0 1.20406,-0.599447 0.44442,-0.599447 0.44442,-1.632975 0,-1.028361 -0.44442,-1.627808 -0.44441,-0.604614 -1.20406,-0.604614 z m 0,-0.806152 q 1.24024,0 1.9482,0.806152 0.70797,0.806152 0.70797,2.232422 0,1.421102 -0.70797,2.232422 -0.70796,0.806152 -1.9482,0.806152 -1.2454,0 -1.95337,-0.806152 -0.7028,-0.81132 -0.7028,-2.232422 0,-1.42627 0.7028,-2.232422 0.70797,-0.806152 1.95337,-0.806152 z"
           style="stroke-width:0.07000434"
           id="path208"
           inkscape:connector-curvature="0" />
        <path
           d="m 166.15783,93.474573 v 0.465088 h -4.37182 q 0.062,0.981853 0.58911,1.498617 0.53226,0.511597 1.47794,0.511597 0.54777,0 1.05937,-0.134359 0.51676,-0.134359 1.02319,-0.403076 v 0.89917 q -0.51159,0.217041 -1.04903,0.330729 -0.53743,0.113688 -1.09037,0.113688 -1.38493,0 -2.19625,-0.806152 -0.80615,-0.806153 -0.80615,-2.180746 0,-1.421102 0.76481,-2.253092 0.76998,-0.837158 2.07222,-0.837158 1.16789,0 1.84485,0.754475 0.68213,0.749309 0.68213,2.041219 z m -0.95084,-0.279052 q -0.0103,-0.780314 -0.43925,-1.245402 -0.42375,-0.465088 -1.12655,-0.465088 -0.79582,0 -1.27641,0.449585 -0.47542,0.449585 -0.54777,1.266072 z"
           style="stroke-width:0.07000434"
           id="path210"
           inkscape:connector-curvature="0" />
        <path
           d="m 171.40816,90.988937 v 0.89917 q -0.40308,-0.206706 -0.83716,-0.310059 -0.43408,-0.103352 -0.89917,-0.103352 -0.70797,0 -1.06454,0.217041 -0.35139,0.217041 -0.35139,0.651123 0,0.330729 0.25321,0.521932 0.25321,0.186035 1.01803,0.356567 l 0.32556,0.07235 q 1.01285,0.217041 1.4366,0.614949 0.42892,0.392741 0.42892,1.100708 0,0.806153 -0.64079,1.276408 -0.63562,0.470256 -1.75183,0.470256 -0.46509,0 -0.97152,-0.09302 -0.50126,-0.08785 -1.05937,-0.268717 V 95.41244 q 0.5271,0.273885 1.0387,0.413411 0.5116,0.134359 1.01286,0.134359 0.67179,0 1.03353,-0.227377 0.36173,-0.232543 0.36173,-0.651123 0,-0.387573 -0.26355,-0.594278 -0.25838,-0.206706 -1.14205,-0.397909 l -0.33073,-0.07752 q -0.88366,-0.186035 -1.2764,-0.56844 -0.39275,-0.387574 -0.39275,-1.059367 0,-0.816488 0.57878,-1.260905 0.57878,-0.444417 1.64331,-0.444417 0.5271,0 0.99219,0.07751 0.46509,0.07751 0.85783,0.232544 z"
           style="stroke-width:0.07000434"
           id="path212"
           inkscape:connector-curvature="0" />
        <path
           d="m 177.54732,89.175094 v 1.643311 h 1.95854 v 0.738973 h -1.95854 v 3.141927 q 0,0.707967 0.19121,0.909505 0.19637,0.201538 0.79064,0.201538 h 0.97669 v 0.795817 h -0.97669 q -1.1007,0 -1.51928,-0.408244 -0.41858,-0.413411 -0.41858,-1.498616 v -3.141927 h -0.69763 v -0.738973 h 0.69763 v -1.643311 z"
           style="stroke-width:0.07000434"
           id="path214"
           inkscape:connector-curvature="0" />
        <path
           d="m 185.57267,93.112838 v 3.493327 h -0.95084 v -3.462321 q 0,-0.821655 -0.3204,-1.229899 -0.32039,-0.408244 -0.96118,-0.408244 -0.76998,0 -1.2144,0.490927 -0.44441,0.490926 -0.44441,1.338419 v 3.271118 h -0.95602 v -8.040852 h 0.95602 v 3.152262 q 0.34106,-0.521932 0.80098,-0.780314 0.46509,-0.258382 1.0697,-0.258382 0.99736,0 1.50896,0.620117 0.51159,0.614949 0.51159,1.813842 z"
           style="stroke-width:0.07000434"
           id="path216"
           inkscape:connector-curvature="0" />
        <path
           d="m 192.43012,93.474573 v 0.465088 h -4.37182 q 0.062,0.981853 0.58911,1.498617 0.53227,0.511597 1.47795,0.511597 0.54777,0 1.05936,-0.134359 0.51677,-0.134359 1.0232,-0.403076 v 0.89917 q -0.5116,0.217041 -1.04904,0.330729 -0.53743,0.113688 -1.09037,0.113688 -1.38493,0 -2.19625,-0.806152 -0.80615,-0.806153 -0.80615,-2.180746 0,-1.421102 0.76481,-2.253092 0.76998,-0.837158 2.07223,-0.837158 1.16788,0 1.84485,0.754475 0.68212,0.749309 0.68212,2.041219 z m -0.95084,-0.279052 q -0.0103,-0.780314 -0.43925,-1.245402 -0.42375,-0.465088 -1.12655,-0.465088 -0.79581,0 -1.27641,0.449585 -0.47542,0.449585 -0.54777,1.266072 z"
           style="stroke-width:0.07000434"
           id="path218"
           inkscape:connector-curvature="0" />
        <path
           d="m 12.311931,106.92595 q -1.152385,0 -1.596802,0.26355 -0.444417,0.26355 -0.444417,0.89917 0,0.50643 0.330729,0.80615 0.335897,0.29456 0.909505,0.29456 0.790649,0 1.266072,-0.55811 0.480591,-0.56327 0.480591,-1.49345 v -0.21187 z m 1.896525,-0.39274 v 3.30212 h -0.950847 v -0.8785 q -0.325561,0.5271 -0.81132,0.78032 -0.485758,0.24804 -1.188558,0.24804 -0.888834,0 -1.4159338,-0.49609 -0.5219319,-0.50126 -0.5219319,-1.33842 0,-0.97668 0.651123,-1.47278 0.6562907,-0.49609 1.9533687,-0.49609 h 1.333252 v -0.093 q 0,-0.65629 -0.434082,-1.01286 -0.428914,-0.36173 -1.209228,-0.36173 -0.496094,0 -0.966349,0.11885 -0.470256,0.11886 -0.904338,0.35657 v -0.8785 q 0.521932,-0.20154 1.012858,-0.29972 0.490926,-0.10336 0.956014,-0.10336 1.255737,0 1.875854,0.65113 0.620118,0.65112 0.620118,1.97404 z"
           style="stroke-width:0.07000434"
           id="path220"
           inkscape:connector-curvature="0" />
        <path
           d="m 20.326945,106.94662 q 0,-1.04903 -0.434082,-1.64331 -0.428915,-0.59945 -1.18339,-0.59945 -0.754476,0 -1.188558,0.59945 -0.428915,0.59428 -0.428915,1.64331 0,1.04903 0.428915,1.64848 0.434082,0.59428 1.188558,0.59428 0.754475,0 1.18339,-0.59428 0.434082,-0.59945 0.434082,-1.64848 z M 17.092,104.92607 q 0.299724,-0.51676 0.754476,-0.76481 0.45992,-0.25322 1.095541,-0.25322 1.054199,0 1.710489,0.83716 0.661459,0.83716 0.661459,2.20142 0,1.36426 -0.661459,2.20141 -0.65629,0.83716 -1.710489,0.83716 -0.635621,0 -1.095541,-0.24804 -0.454752,-0.25322 -0.754476,-0.76998 v 0.86816 h -0.956014 v -8.04085 H 17.092 Z"
           style="stroke-width:0.07000434"
           id="path222"
           inkscape:connector-curvature="0" />
        <path
           d="m 27.044881,106.94662 q 0,-1.04903 -0.434082,-1.64331 -0.428914,-0.59945 -1.18339,-0.59945 -0.754476,0 -1.188558,0.59945 -0.428914,0.59428 -0.428914,1.64331 0,1.04903 0.428914,1.64848 0.434082,0.59428 1.188558,0.59428 0.754476,0 1.18339,-0.59428 0.434082,-0.59945 0.434082,-1.64848 z m -3.234944,-2.02055 q 0.299723,-0.51676 0.754476,-0.76481 0.45992,-0.25322 1.09554,-0.25322 1.054199,0 1.71049,0.83716 0.661458,0.83716 0.661458,2.20142 0,1.36426 -0.661458,2.20141 -0.656291,0.83716 -1.71049,0.83716 -0.63562,0 -1.09554,-0.24804 -0.454753,-0.25322 -0.754476,-0.76998 v 0.86816 h -0.956014 v -8.04085 h 0.956014 z"
           style="stroke-width:0.07000434"
           id="path224"
           inkscape:connector-curvature="0" />
        <path
           d="m 32.961832,104.93641 q -0.160197,-0.093 -0.351399,-0.13436 -0.186036,-0.0465 -0.413412,-0.0465 -0.806152,0 -1.240234,0.5271 -0.428915,0.52193 -0.428915,1.50378 v 3.04891 h -0.956014 v -5.78776 h 0.956014 v 0.89917 q 0.299724,-0.5271 0.780315,-0.78031 0.48059,-0.25839 1.167887,-0.25839 0.09819,0 0.217041,0.0155 0.118856,0.0103 0.26355,0.0362 z"
           style="stroke-width:0.07000434"
           id="path226"
           inkscape:connector-curvature="0" />
        <path
           d="m 38.692749,106.70374 v 0.46509 h -4.371826 q 0.06201,0.98185 0.589111,1.49861 0.532268,0.5116 1.477946,0.5116 0.547771,0 1.059367,-0.13436 0.516765,-0.13436 1.023194,-0.40307 v 0.89917 q -0.511597,0.21704 -1.049032,0.33072 -0.537435,0.11369 -1.090373,0.11369 -1.384928,0 -2.196248,-0.80615 -0.806152,-0.80615 -0.806152,-2.18074 0,-1.42111 0.764811,-2.2531 0.769979,-0.83716 2.072225,-0.83716 1.167887,0 1.844848,0.75448 0.682129,0.74931 0.682129,2.04122 z m -0.950846,-0.27905 q -0.01033,-0.78032 -0.43925,-1.2454 -0.423747,-0.46509 -1.126546,-0.46509 -0.795817,0 -1.276408,0.44958 -0.475423,0.44959 -0.54777,1.26607 z"
           style="stroke-width:0.07000434"
           id="path228"
           inkscape:connector-curvature="0" />
        <path
           d="m 39.571249,104.04757 h 1.00769 l 1.808675,4.85759 1.808675,-4.85759 h 1.007691 l -2.17041,5.78776 h -1.291911 z"
           style="stroke-width:0.07000434"
           id="path230"
           inkscape:connector-curvature="0" />
        <path
           d="m 46.516561,104.04757 h 0.950847 v 5.78776 h -0.950847 z m 0,-2.25309 h 0.950847 v 1.20406 h -0.950847 z"
           style="stroke-width:0.07000434"
           id="path232"
           inkscape:connector-curvature="0" />
        <path
           d="m 52.08211,106.92595 q -1.152384,0 -1.596801,0.26355 -0.444418,0.26355 -0.444418,0.89917 0,0.50643 0.330729,0.80615 0.335897,0.29456 0.909506,0.29456 0.790649,0 1.266072,-0.55811 0.480591,-0.56327 0.480591,-1.49345 v -0.21187 z m 1.896525,-0.39274 v 3.30212 h -0.950846 v -0.8785 q -0.325561,0.5271 -0.81132,0.78032 -0.485758,0.24804 -1.188558,0.24804 -0.888834,0 -1.415934,-0.49609 -0.521932,-0.50126 -0.521932,-1.33842 0,-0.97668 0.651123,-1.47278 0.656291,-0.49609 1.953369,-0.49609 h 1.333252 v -0.093 q 0,-0.65629 -0.434082,-1.01286 -0.428914,-0.36173 -1.209228,-0.36173 -0.496094,0 -0.96635,0.11885 -0.470255,0.11886 -0.904337,0.35657 v -0.8785 q 0.521932,-0.20154 1.012858,-0.29972 0.490926,-0.10336 0.956014,-0.10336 1.255737,0 1.875854,0.65113 0.620117,0.65112 0.620117,1.97404 z"
           style="stroke-width:0.07000434"
           id="path234"
           inkscape:connector-curvature="0" />
        <path
           d="m 56.882854,102.40426 v 1.64331 h 1.958536 v 0.73897 h -1.958536 v 3.14193 q 0,0.70797 0.191202,0.90951 0.196371,0.20153 0.79065,0.20153 h 0.976684 v 0.79582 h -0.976684 q -1.100708,0 -1.519287,-0.40824 -0.418579,-0.41341 -0.418579,-1.49862 v -3.14193 h -0.697632 v -0.73897 h 0.697632 v -1.64331 z"
           style="stroke-width:0.07000434"
           id="path236"
           inkscape:connector-curvature="0" />
        <path
           d="m 60.097128,104.04757 h 0.950846 v 5.78776 h -0.950846 z m 0,-2.25309 h 0.950846 v 1.20406 h -0.950846 z"
           style="stroke-width:0.07000434"
           id="path238"
           inkscape:connector-curvature="0" />
        <path
           d="m 65.275104,104.7142 q -0.764812,0 -1.209229,0.59944 -0.444417,0.59428 -0.444417,1.63298 0,1.0387 0.439249,1.63814 0.444418,0.59428 1.214397,0.59428 0.759643,0 1.20406,-0.59945 0.444418,-0.59944 0.444418,-1.63297 0,-1.02836 -0.444418,-1.62781 -0.444417,-0.60461 -1.20406,-0.60461 z m 0,-0.80616 q 1.240234,0 1.948201,0.80616 0.707967,0.80615 0.707967,2.23242 0,1.4211 -0.707967,2.23242 -0.707967,0.80615 -1.948201,0.80615 -1.245402,0 -1.95337,-0.80615 -0.702799,-0.81132 -0.702799,-2.23242 0,-1.42627 0.702799,-2.23242 0.707968,-0.80616 1.95337,-0.80616 z"
           style="stroke-width:0.07000434"
           id="path240"
           inkscape:connector-curvature="0" />
        <path
           d="m 74.313313,106.342 v 3.49333 h -0.950847 v -3.46232 q 0,-0.82165 -0.320393,-1.2299 -0.320394,-0.40824 -0.961182,-0.40824 -0.769979,0 -1.214396,0.49092 -0.444418,0.49093 -0.444418,1.33842 v 3.27112 h -0.956013 v -5.78776 h 0.956013 v 0.89917 q 0.341065,-0.52193 0.800985,-0.78031 0.465088,-0.25839 1.069702,-0.25839 0.997355,0 1.508952,0.62012 0.511597,0.61495 0.511597,1.81384 z"
           style="stroke-width:0.07000434"
           id="path242"
           inkscape:connector-curvature="0" />
        <path
           d="m 80.529986,102.40426 v 1.64331 h 1.958537 v 0.73897 h -1.958537 v 3.14193 q 0,0.70797 0.191203,0.90951 0.196371,0.20153 0.79065,0.20153 h 0.976684 v 0.79582 h -0.976684 q -1.100708,0 -1.519288,-0.40824 -0.418579,-0.41341 -0.418579,-1.49862 v -3.14193 h -0.697631 v -0.73897 h 0.697631 v -1.64331 z"
           style="stroke-width:0.07000434"
           id="path244"
           inkscape:connector-curvature="0" />
        <path
           d="m 88.555336,106.342 v 3.49333 H 87.60449 v -3.46232 q 0,-0.82165 -0.320394,-1.2299 -0.320394,-0.40824 -0.961182,-0.40824 -0.769978,0 -1.214396,0.49092 -0.444417,0.49093 -0.444417,1.33842 v 3.27112 h -0.956014 v -8.04085 h 0.956014 v 3.15226 q 0.341064,-0.52193 0.800985,-0.78031 0.465088,-0.25839 1.069702,-0.25839 0.997355,0 1.508952,0.62012 0.511596,0.61495 0.511596,1.81384 z"
           style="stroke-width:0.07000434"
           id="path246"
           inkscape:connector-curvature="0" />
        <path
           d="m 95.412796,106.70374 v 0.46509 H 91.04097 q 0.06201,0.98185 0.589111,1.49861 0.532268,0.5116 1.477946,0.5116 0.547771,0 1.059367,-0.13436 0.516765,-0.13436 1.023194,-0.40307 v 0.89917 q -0.511597,0.21704 -1.049032,0.33072 -0.537435,0.11369 -1.090373,0.11369 -1.384928,0 -2.196248,-0.80615 -0.806152,-0.80615 -0.806152,-2.18074 0,-1.42111 0.764811,-2.2531 0.769979,-0.83716 2.072225,-0.83716 1.167887,0 1.844848,0.75448 0.682129,0.74931 0.682129,2.04122 z m -0.950846,-0.27905 q -0.01033,-0.78032 -0.43925,-1.2454 -0.423747,-0.46509 -1.126546,-0.46509 -0.795817,0 -1.276408,0.44958 -0.475423,0.44959 -0.54777,1.26607 z"
           style="stroke-width:0.07000434"
           id="path248"
           inkscape:connector-curvature="0" />
        <path
           d="m 99.381546,110.37277 q -0.403076,1.03352 -0.785481,1.34875 -0.382406,0.31523 -1.023194,0.31523 h -0.759643 v -0.79582 h 0.558105 q 0.392741,0 0.609782,-0.18603 0.217041,-0.18604 0.480591,-0.8785 l 0.170532,-0.43409 -2.340942,-5.69474 h 1.00769 l 1.808675,4.52686 1.808679,-4.52686 h 1.00769 z"
           style="stroke-width:0.07000434"
           id="path250"
           inkscape:connector-curvature="0" />
        <path
           d="m 110.77104,104.26978 v 0.88883 q -0.40308,-0.2222 -0.81132,-0.33072 -0.40308,-0.11369 -0.81649,-0.11369 -0.92501,0 -1.43661,0.58911 -0.51159,0.58394 -0.51159,1.64331 0,1.05937 0.51159,1.64848 0.5116,0.58394 1.43661,0.58394 0.41341,0 0.81649,-0.10852 0.40824,-0.11369 0.81132,-0.3359 v 0.8785 q -0.39791,0.18604 -0.82683,0.27906 -0.42374,0.093 -0.90433,0.093 -1.30742,0 -2.0774,-0.82165 -0.76997,-0.82166 -0.76997,-2.21692 0,-1.41594 0.77514,-2.22726 0.78032,-0.81132 2.13424,-0.81132 0.43925,0 0.85783,0.093 0.41858,0.0879 0.81132,0.26872 z"
           style="stroke-width:0.07000434"
           id="path252"
           inkscape:connector-curvature="0" />
        <path
           d="m 114.67778,104.7142 q -0.76482,0 -1.20923,0.59944 -0.44442,0.59428 -0.44442,1.63298 0,1.0387 0.43925,1.63814 0.44442,0.59428 1.2144,0.59428 0.75964,0 1.20406,-0.59945 0.44441,-0.59944 0.44441,-1.63297 0,-1.02836 -0.44441,-1.62781 -0.44442,-0.60461 -1.20406,-0.60461 z m 0,-0.80616 q 1.24023,0 1.9482,0.80616 0.70796,0.80615 0.70796,2.23242 0,1.4211 -0.70796,2.23242 -0.70797,0.80615 -1.9482,0.80615 -1.24541,0 -1.95337,-0.80615 -0.7028,-0.81132 -0.7028,-2.23242 0,-1.42627 0.7028,-2.23242 0.70796,-0.80616 1.95337,-0.80616 z"
           style="stroke-width:0.07000434"
           id="path254"
           inkscape:connector-curvature="0" />
        <path
           d="m 123.71598,106.342 v 3.49333 h -0.95085 v -3.46232 q 0,-0.82165 -0.32039,-1.2299 -0.32039,-0.40824 -0.96118,-0.40824 -0.76998,0 -1.2144,0.49092 -0.44441,0.49093 -0.44441,1.33842 v 3.27112 h -0.95602 v -5.78776 h 0.95602 v 0.89917 q 0.34106,-0.52193 0.80098,-0.78031 0.46509,-0.25839 1.0697,-0.25839 0.99736,0 1.50895,0.62012 0.5116,0.61495 0.5116,1.81384 z"
           style="stroke-width:0.07000434"
           id="path256"
           inkscape:connector-curvature="0" />
        <path
           d="m 129.78796,104.26978 v 0.88883 q -0.40308,-0.2222 -0.81132,-0.33072 -0.40308,-0.11369 -0.81649,-0.11369 -0.92501,0 -1.4366,0.58911 -0.5116,0.58394 -0.5116,1.64331 0,1.05937 0.5116,1.64848 0.51159,0.58394 1.4366,0.58394 0.41341,0 0.81649,-0.10852 0.40824,-0.11369 0.81132,-0.3359 v 0.8785 q -0.39791,0.18604 -0.82682,0.27906 -0.42375,0.093 -0.90434,0.093 -1.30742,0 -2.07739,-0.82165 -0.76998,-0.82166 -0.76998,-2.21692 0,-1.41594 0.77514,-2.22726 0.78032,-0.81132 2.13424,-0.81132 0.43925,0 0.85783,0.093 0.41858,0.0879 0.81132,0.26872 z"
           style="stroke-width:0.07000434"
           id="path258"
           inkscape:connector-curvature="0" />
        <path
           d="m 136.40254,106.70374 v 0.46509 h -4.37182 q 0.062,0.98185 0.58911,1.49861 0.53226,0.5116 1.47794,0.5116 0.54777,0 1.05937,-0.13436 0.51676,-0.13436 1.02319,-0.40307 v 0.89917 q -0.51159,0.21704 -1.04903,0.33072 -0.53743,0.11369 -1.09037,0.11369 -1.38493,0 -2.19625,-0.80615 -0.80615,-0.80615 -0.80615,-2.18074 0,-1.42111 0.76481,-2.2531 0.76998,-0.83716 2.07222,-0.83716 1.16789,0 1.84485,0.75448 0.68213,0.74931 0.68213,2.04122 z m -0.95084,-0.27905 q -0.0103,-0.78032 -0.43925,-1.2454 -0.42375,-0.46509 -1.12655,-0.46509 -0.79582,0 -1.27641,0.44958 -0.47542,0.44959 -0.54777,1.26607 z"
           style="stroke-width:0.07000434"
           id="path260"
           inkscape:connector-curvature="0" />
        <path
           d="m 140.5935,106.92595 q -1.15238,0 -1.5968,0.26355 -0.44442,0.26355 -0.44442,0.89917 0,0.50643 0.33073,0.80615 0.3359,0.29456 0.90951,0.29456 0.79065,0 1.26607,-0.55811 0.48059,-0.56327 0.48059,-1.49345 v -0.21187 z m 1.89653,-0.39274 v 3.30212 h -0.95085 v -0.8785 q -0.32556,0.5271 -0.81132,0.78032 -0.48576,0.24804 -1.18856,0.24804 -0.88883,0 -1.41593,-0.49609 -0.52193,-0.50126 -0.52193,-1.33842 0,-0.97668 0.65112,-1.47278 0.65629,-0.49609 1.95337,-0.49609 h 1.33325 v -0.093 q 0,-0.65629 -0.43408,-1.01286 -0.42892,-0.36173 -1.20923,-0.36173 -0.49609,0 -0.96635,0.11885 -0.47026,0.11886 -0.90434,0.35657 v -0.8785 q 0.52193,-0.20154 1.01286,-0.29972 0.49093,-0.10336 0.95601,-0.10336 1.25574,0 1.87586,0.65113 0.62012,0.65112 0.62012,1.97404 z"
           style="stroke-width:0.07000434"
           id="path262"
           inkscape:connector-curvature="0" />
        <path
           d="m 144.45373,101.79448 h 0.95084 v 8.04085 h -0.95084 z"
           style="stroke-width:0.07000434"
           id="path264"
           inkscape:connector-curvature="0" />
        <path
           d="m 154.44796,104.2181 v 0.89917 q -0.40308,-0.2067 -0.83716,-0.31006 -0.43408,-0.10335 -0.89917,-0.10335 -0.70797,0 -1.06453,0.21704 -0.3514,0.21704 -0.3514,0.65113 0,0.33073 0.25321,0.52193 0.25321,0.18603 1.01803,0.35657 l 0.32556,0.0723 q 1.01286,0.21704 1.4366,0.61495 0.42892,0.39274 0.42892,1.10071 0,0.80615 -0.64079,1.27641 -0.63562,0.47025 -1.75183,0.47025 -0.46509,0 -0.97152,-0.093 -0.50126,-0.0879 -1.05937,-0.26872 v -0.98185 q 0.5271,0.27388 1.0387,0.41341 0.5116,0.13436 1.01286,0.13436 0.67179,0 1.03353,-0.22738 0.36173,-0.23254 0.36173,-0.65112 0,-0.38758 -0.26355,-0.59428 -0.25838,-0.20671 -1.14205,-0.39791 l -0.33073,-0.0775 q -0.88366,-0.18603 -1.2764,-0.56844 -0.39275,-0.38757 -0.39275,-1.05936 0,-0.81649 0.57878,-1.26091 0.57878,-0.44442 1.64331,-0.44442 0.5271,0 0.99219,0.0775 0.46509,0.0775 0.85783,0.23254 z"
           style="stroke-width:0.07000434"
           id="path266"
           inkscape:connector-curvature="0" />
        <path
           d="m 157.21781,102.40426 v 1.64331 h 1.95854 v 0.73897 h -1.95854 v 3.14193 q 0,0.70797 0.19121,0.90951 0.19637,0.20153 0.79065,0.20153 h 0.97668 v 0.79582 h -0.97668 q -1.10071,0 -1.51929,-0.40824 -0.41858,-0.41341 -0.41858,-1.49862 v -3.14193 h -0.69763 v -0.73897 h 0.69763 v -1.64331 z"
           style="stroke-width:0.07000434"
           id="path268"
           inkscape:connector-curvature="0" />
        <path
           d="m 163.06242,106.92595 q -1.15239,0 -1.5968,0.26355 -0.44442,0.26355 -0.44442,0.89917 0,0.50643 0.33073,0.80615 0.3359,0.29456 0.9095,0.29456 0.79065,0 1.26608,-0.55811 0.48059,-0.56327 0.48059,-1.49345 v -0.21187 z m 1.89652,-0.39274 v 3.30212 h -0.95084 v -0.8785 q -0.32556,0.5271 -0.81132,0.78032 -0.48576,0.24804 -1.18856,0.24804 -0.88883,0 -1.41593,-0.49609 -0.52194,-0.50126 -0.52194,-1.33842 0,-0.97668 0.65113,-1.47278 0.65629,-0.49609 1.95337,-0.49609 h 1.33325 v -0.093 q 0,-0.65629 -0.43408,-1.01286 -0.42892,-0.36173 -1.20923,-0.36173 -0.4961,0 -0.96635,0.11885 -0.47026,0.11886 -0.90434,0.35657 v -0.8785 q 0.52193,-0.20154 1.01286,-0.29972 0.49092,-0.10336 0.95601,-0.10336 1.25574,0 1.87586,0.65113 0.62011,0.65112 0.62011,1.97404 z"
           style="stroke-width:0.07000434"
           id="path270"
           inkscape:connector-curvature="0" />
        <path
           d="m 171.73372,106.342 v 3.49333 h -0.95085 v -3.46232 q 0,-0.82165 -0.32039,-1.2299 -0.32039,-0.40824 -0.96118,-0.40824 -0.76998,0 -1.2144,0.49092 -0.44442,0.49093 -0.44442,1.33842 v 3.27112 h -0.95601 v -5.78776 h 0.95601 v 0.89917 q 0.34107,-0.52193 0.80099,-0.78031 0.46509,-0.25839 1.0697,-0.25839 0.99736,0 1.50895,0.62012 0.5116,0.61495 0.5116,1.81384 z"
           style="stroke-width:0.07000434"
           id="path272"
           inkscape:connector-curvature="0" />
        <path
           d="m 177.44914,104.92607 v -3.13159 h 0.95084 v 8.04085 h -0.95084 v -0.86816 q -0.29973,0.51676 -0.75965,0.76998 -0.45475,0.24804 -1.09554,0.24804 -1.04903,0 -1.71049,-0.83716 -0.65629,-0.83715 -0.65629,-2.20141 0,-1.36426 0.65629,-2.20142 0.66146,-0.83716 1.71049,-0.83716 0.64079,0 1.09554,0.25322 0.45992,0.24805 0.75965,0.76481 z m -3.24011,2.02055 q 0,1.04903 0.42891,1.64848 0.43408,0.59428 1.18856,0.59428 0.75447,0 1.18856,-0.59428 0.43408,-0.59945 0.43408,-1.64848 0,-1.04903 -0.43408,-1.64331 -0.43409,-0.59945 -1.18856,-0.59945 -0.75448,0 -1.18856,0.59945 -0.42891,0.59428 -0.42891,1.64331 z"
           style="stroke-width:0.07000434"
           id="path274"
           inkscape:connector-curvature="0" />
        <path
           d="m 186.65787,101.79448 v 0.79065 h -0.9095 q -0.5116,0 -0.71314,0.2067 -0.19637,0.20671 -0.19637,0.74414 v 0.5116 h 1.5658 v 0.73897 h -1.5658 v 5.04879 h -0.95601 v -5.04879 h -0.90951 v -0.73897 h 0.90951 v -0.40307 q 0,-0.96635 0.44958,-1.4056 0.44959,-0.44442 1.42627,-0.44442 z"
           style="stroke-width:0.07000434"
           id="path276"
           inkscape:connector-curvature="0" />
        <path
           d="m 189.69128,104.7142 q -0.76481,0 -1.20923,0.59944 -0.44442,0.59428 -0.44442,1.63298 0,1.0387 0.43925,1.63814 0.44442,0.59428 1.2144,0.59428 0.75964,0 1.20406,-0.59945 0.44442,-0.59944 0.44442,-1.63297 0,-1.02836 -0.44442,-1.62781 -0.44442,-0.60461 -1.20406,-0.60461 z m 0,-0.80616 q 1.24023,0 1.9482,0.80616 0.70797,0.80615 0.70797,2.23242 0,1.4211 -0.70797,2.23242 -0.70797,0.80615 -1.9482,0.80615 -1.2454,0 -1.95337,-0.80615 -0.7028,-0.81132 -0.7028,-2.23242 0,-1.42627 0.7028,-2.23242 0.70797,-0.80616 1.95337,-0.80616 z"
           style="stroke-width:0.07000434"
           id="path278"
           inkscape:connector-curvature="0" />
        <path
           d="m 197.27222,104.93641 q -0.1602,-0.093 -0.3514,-0.13436 -0.18604,-0.0465 -0.41341,-0.0465 -0.80616,0 -1.24024,0.5271 -0.42891,0.52193 -0.42891,1.50378 v 3.04891 h -0.95602 v -5.78776 h 0.95602 v 0.89917 q 0.29972,-0.5271 0.78031,-0.78031 0.48059,-0.25839 1.16789,-0.25839 0.0982,0 0.21704,0.0155 0.11886,0.0103 0.26355,0.0362 z"
           style="stroke-width:0.07000434"
           id="path280"
           inkscape:connector-curvature="0" />
        <path
           d="m 199.30309,108.52275 h 1.04903 v 1.31258 h -1.04903 z m 1.01803,-0.75964 h -0.98702 v -0.79582 q 0,-0.52193 0.14469,-0.85783 0.14469,-0.3359 0.60978,-0.78031 l 0.46509,-0.45992 q 0.29456,-0.27389 0.42375,-0.51677 0.13436,-0.24288 0.13436,-0.49609 0,-0.45992 -0.34107,-0.74414 -0.3359,-0.28422 -0.894,-0.28422 -0.40824,0 -0.87333,0.18086 -0.45992,0.18087 -0.96118,0.5271 v -0.97151 q 0.48575,-0.29456 0.98185,-0.43925 0.50126,-0.1447 1.03353,-0.1447 0.95084,0 1.52445,0.50127 0.57878,0.50126 0.57878,1.32291 0,0.39274 -0.18604,0.74931 -0.18603,0.3514 -0.65112,0.79582 l -0.45475,0.44441 q -0.24288,0.24288 -0.34624,0.38241 -0.0982,0.13436 -0.13952,0.26355 -0.031,0.10852 -0.0465,0.26355 -0.0155,0.15503 -0.0155,0.42375 z"
           style="stroke-width:0.07000434"
           id="path282"
           inkscape:connector-curvature="0" />
      </g>
    </g>
  </g>
</svg>
