<?xml version="1.0" encoding="UTF-8" standalone="no"?>
<!-- Created with Inkscape (http://www.inkscape.org/) -->

<svg
   xmlns:dc="http://purl.org/dc/elements/1.1/"
   xmlns:cc="http://creativecommons.org/ns#"
   xmlns:rdf="http://www.w3.org/1999/02/22-rdf-syntax-ns#"
   xmlns:svg="http://www.w3.org/2000/svg"
   xmlns="http://www.w3.org/2000/svg"
   xmlns:sodipodi="http://sodipodi.sourceforge.net/DTD/sodipodi-0.dtd"
   xmlns:inkscape="http://www.inkscape.org/namespaces/inkscape"
   width="176.4957mm"
   height="36.700596mm"
   viewBox="0 0 176.4957 36.700596"
   version="1.1"
   id="svg8"
   inkscape:version="0.92.4 (5da689c313, 2019-01-14)"
   sodipodi:docname="four.svg">
  <defs
     id="defs2" />
  <sodipodi:namedview
     id="base"
     pagecolor="#ffffff"
     bordercolor="#666666"
     borderopacity="1.0"
     inkscape:pageopacity="0.0"
     inkscape:pageshadow="2"
     inkscape:zoom="0.7"
     inkscape:cx="479.72403"
     inkscape:cy="-62.688104"
     inkscape:document-units="mm"
     inkscape:current-layer="text817"
     showgrid="false"
     fit-margin-top="0"
     fit-margin-left="0"
     fit-margin-right="0"
     fit-margin-bottom="0"
     inkscape:window-width="1920"
     inkscape:window-height="1043"
     inkscape:window-x="1600"
     inkscape:window-y="18"
     inkscape:window-maximized="0" />
  <metadata
     id="metadata5">
    <rdf:RDF>
      <cc:Work
         rdf:about="">
        <dc:format>image/svg+xml</dc:format>
        <dc:type
           rdf:resource="http://purl.org/dc/dcmitype/StillImage" />
        <dc:title></dc:title>
      </cc:Work>
    </rdf:RDF>
  </metadata>
  <g
     inkscape:label="Layer 1"
     inkscape:groupmode="layer"
     id="layer1"
     transform="translate(-18.860059,-75.024623)">
    <g
       aria-label="Something seems fishy about
these pictures... you'll have to
use your brain to figure out what!"
       style="font-style:normal;font-weight:normal;font-size:10.58333302px;line-height:1.25;font-family:sans-serif;text-align:center;letter-spacing:0px;word-spacing:0px;text-anchor:middle;fill:#000000;fill-opacity:1;stroke:none;stroke-width:0.26458332"
       id="text817">
      <path
         d="m 34.383659,75.603399 v 1.018026 q -0.594279,-0.284221 -1.121379,-0.423747 -0.527099,-0.139527 -1.018025,-0.139527 -0.852661,0 -1.317749,0.33073 -0.45992,0.330729 -0.45992,0.940511 0,0.511596 0.304891,0.775146 0.310058,0.258382 1.167887,0.418579 l 0.630452,0.129191 q 1.167888,0.222209 1.720825,0.785482 0.558106,0.558105 0.558106,1.498617 0,1.121378 -0.754476,1.700154 -0.749308,0.578776 -2.201416,0.578776 -0.54777,0 -1.167887,-0.124023 -0.61495,-0.124024 -1.276408,-0.366903 v -1.07487 q 0.63562,0.356568 1.245402,0.537435 0.609782,0.180868 1.198893,0.180868 0.894002,0 1.379761,-0.3514 0.485758,-0.3514 0.485758,-1.002523 0,-0.568441 -0.3514,-0.888834 -0.346232,-0.320394 -1.142049,-0.480591 l -0.63562,-0.124024 q -1.167887,-0.232544 -1.689819,-0.728637 -0.521932,-0.496094 -0.521932,-1.379761 0,-1.023193 0.718302,-1.612305 0.72347,-0.589111 1.989543,-0.589111 0.542603,0 1.105876,0.09819 0.563273,0.09819 1.152384,0.294556 z"
         style="text-align:center;text-anchor:middle;stroke-width:0.26458332"
         id="path823"
         inkscape:connector-curvature="0" />
      <path
         d="m 38.67797,77.944341 q -0.764811,0 -1.209228,0.599447 -0.444417,0.594279 -0.444417,1.632975 0,1.038696 0.439249,1.638143 0.444418,0.594279 1.214396,0.594279 0.759644,0 1.204061,-0.599447 0.444418,-0.599446 0.444418,-1.632975 0,-1.028361 -0.444418,-1.627808 -0.444417,-0.604614 -1.204061,-0.604614 z m 0,-0.806152 q 1.240235,0 1.948202,0.806152 0.707967,0.806152 0.707967,2.232422 0,1.421102 -0.707967,2.232422 -0.707967,0.806152 -1.948202,0.806152 -1.245402,0 -1.953369,-0.806152 -0.702799,-0.81132 -0.702799,-2.232422 0,-1.42627 0.702799,-2.232422 0.707967,-0.806152 1.953369,-0.806152 z"
         style="text-align:center;text-anchor:middle;stroke-width:0.26458332"
         id="path825"
         inkscape:connector-curvature="0" />
      <path
         d="m 47.411287,78.388758 q 0.356568,-0.640787 0.852661,-0.945678 0.496094,-0.304891 1.167888,-0.304891 0.904337,0 1.395263,0.63562 0.490926,0.630452 0.490926,1.79834 v 3.493326 h -0.956014 v -3.46232 q 0,-0.831991 -0.294555,-1.235067 -0.294556,-0.403076 -0.89917,-0.403076 -0.738973,0 -1.167887,0.490926 -0.428915,0.490926 -0.428915,1.338419 v 3.271118 H 46.61547 v -3.46232 q 0,-0.837159 -0.294555,-1.235067 -0.294556,-0.403076 -0.909506,-0.403076 -0.728637,0 -1.157552,0.496093 -0.428914,0.490927 -0.428914,1.333252 v 3.271118 h -0.956014 v -5.78776 h 0.956014 v 0.89917 q 0.325562,-0.532267 0.780314,-0.785482 0.454753,-0.253214 1.080037,-0.253214 0.630453,0 1.069703,0.320394 0.444417,0.320394 0.65629,0.930175 z"
         style="text-align:center;text-anchor:middle;stroke-width:0.26458332"
         id="path827"
         inkscape:connector-curvature="0" />
      <path
         d="m 58.170321,79.933884 v 0.465088 h -4.371826 q 0.06201,0.981852 0.589111,1.498616 0.532267,0.511597 1.477946,0.511597 0.54777,0 1.059367,-0.134359 0.516764,-0.134359 1.023193,-0.403076 v 0.89917 q -0.511597,0.217041 -1.049031,0.330729 -0.537435,0.113688 -1.090373,0.113688 -1.384928,0 -2.196248,-0.806152 -0.806153,-0.806153 -0.806153,-2.180746 0,-1.421101 0.764811,-2.253092 0.769979,-0.837158 2.072225,-0.837158 1.167888,0 1.844849,0.754476 0.682129,0.749308 0.682129,2.041219 z m -0.950847,-0.279053 q -0.01033,-0.780314 -0.439249,-1.245402 -0.423747,-0.465088 -1.126546,-0.465088 -0.795817,0 -1.276408,0.449585 -0.475423,0.449585 -0.54777,1.266073 z"
         style="text-align:center;text-anchor:middle;stroke-width:0.26458332"
         id="path829"
         inkscape:connector-curvature="0" />
      <path
         d="m 60.67146,75.634405 v 1.64331 h 1.958537 v 0.738973 H 60.67146 v 3.141927 q 0,0.707967 0.191203,0.909505 0.19637,0.201538 0.790649,0.201538 h 0.976685 v 0.795817 h -0.976685 q -1.100708,0 -1.519287,-0.408243 -0.418579,-0.413412 -0.418579,-1.498617 v -3.141927 h -0.697632 v -0.738973 h 0.697632 v -1.64331 z"
         style="text-align:center;text-anchor:middle;stroke-width:0.26458332"
         id="path831"
         inkscape:connector-curvature="0" />
      <path
         d="m 68.69681,79.572149 v 3.493326 h -0.950846 v -3.46232 q 0,-0.821656 -0.320394,-1.229899 -0.320394,-0.408244 -0.961182,-0.408244 -0.769979,0 -1.214396,0.490926 -0.444417,0.490926 -0.444417,1.338419 v 3.271118 h -0.956014 v -8.040852 h 0.956014 v 3.152262 q 0.341064,-0.521932 0.800984,-0.780314 0.465088,-0.258382 1.069703,-0.258382 0.997355,0 1.508951,0.620117 0.511597,0.61495 0.511597,1.813843 z"
         style="text-align:center;text-anchor:middle;stroke-width:0.26458332"
         id="path833"
         inkscape:connector-curvature="0" />
      <path
         d="m 70.603668,77.277715 h 0.950846 v 5.78776 h -0.950846 z m 0,-2.253092 h 0.950846 v 1.204061 h -0.950846 z"
         style="text-align:center;text-anchor:middle;stroke-width:0.26458332"
         id="path835"
         inkscape:connector-curvature="0" />
      <path
         d="m 78.349966,79.572149 v 3.493326 H 77.39912 v -3.46232 q 0,-0.821656 -0.320394,-1.229899 -0.320394,-0.408244 -0.961181,-0.408244 -0.769979,0 -1.214397,0.490926 -0.444417,0.490926 -0.444417,1.338419 v 3.271118 h -0.956014 v -5.78776 h 0.956014 v 0.89917 q 0.341065,-0.521932 0.800985,-0.780314 0.465088,-0.258382 1.069702,-0.258382 0.997355,0 1.508952,0.620117 0.511596,0.61495 0.511596,1.813843 z"
         style="text-align:center;text-anchor:middle;stroke-width:0.26458332"
         id="path837"
         inkscape:connector-curvature="0" />
      <path
         d="m 84.065381,80.104416 q 0,-1.033529 -0.428914,-1.601969 -0.423747,-0.568441 -1.193726,-0.568441 -0.764811,0 -1.193725,0.568441 -0.423747,0.56844 -0.423747,1.601969 0,1.028361 0.423747,1.596802 0.428914,0.56844 1.193725,0.56844 0.769979,0 1.193726,-0.56844 0.428914,-0.568441 0.428914,-1.596802 z m 0.950846,2.242757 q 0,1.477946 -0.65629,2.196248 -0.656291,0.72347 -2.010213,0.72347 -0.501262,0 -0.945679,-0.07751 Q 80.959628,85.11703 80.541048,84.962 v -0.925008 q 0.41858,0.227377 0.826823,0.335897 0.408244,0.108521 0.831991,0.108521 0.935343,0 1.400431,-0.490926 0.465088,-0.485759 0.465088,-1.472779 V 82.04745 q -0.294556,0.511596 -0.754476,0.764811 -0.45992,0.253214 -1.100708,0.253214 -1.064534,0 -1.715657,-0.811319 -0.651123,-0.81132 -0.651123,-2.14974 0,-1.343587 0.651123,-2.154907 0.651123,-0.81132 1.715657,-0.81132 0.640788,0 1.100708,0.253214 0.45992,0.253215 0.754476,0.764812 v -0.8785 h 0.950846 z"
         style="text-align:center;text-anchor:middle;stroke-width:0.26458332"
         id="path839"
         inkscape:connector-curvature="0" />
      <path
         d="m 94.033764,77.448247 v 0.89917 q -0.403077,-0.206705 -0.837159,-0.310058 -0.434082,-0.103353 -0.89917,-0.103353 -0.707967,0 -1.064534,0.217041 -0.3514,0.217041 -0.3514,0.651123 0,0.330729 0.253215,0.521932 0.253214,0.186035 1.018025,0.356567 l 0.325562,0.07235 q 1.012858,0.217041 1.436605,0.61495 0.428914,0.392741 0.428914,1.100708 0,0.806152 -0.640788,1.276408 -0.63562,0.470255 -1.751831,0.470255 -0.465087,0 -0.971516,-0.09302 -0.501262,-0.08785 -1.059367,-0.268718 V 81.87175 q 0.527099,0.273885 1.038696,0.413411 0.511597,0.134359 1.012858,0.134359 0.671794,0 1.033529,-0.227376 0.361735,-0.232544 0.361735,-0.651123 0,-0.387573 -0.26355,-0.594279 -0.258382,-0.206706 -1.142049,-0.397909 l -0.330729,-0.07751 q -0.883667,-0.186036 -1.276408,-0.568441 -0.392741,-0.387573 -0.392741,-1.059367 0,-0.816488 0.578776,-1.260905 0.578776,-0.444417 1.64331,-0.444417 0.5271,0 0.992188,0.07752 0.465088,0.07751 0.857829,0.232543 z"
         style="text-align:center;text-anchor:middle;stroke-width:0.26458332"
         id="path841"
         inkscape:connector-curvature="0" />
      <path
         d="m 100.81371,79.933884 v 0.465088 h -4.371828 q 0.06201,0.981852 0.589111,1.498616 0.532267,0.511597 1.477946,0.511597 0.54777,0 1.059367,-0.134359 0.516764,-0.134359 1.023194,-0.403076 v 0.89917 q -0.5116,0.217041 -1.049033,0.330729 -0.537434,0.113688 -1.090372,0.113688 -1.384929,0 -2.196249,-0.806152 -0.806152,-0.806153 -0.806152,-2.180746 0,-1.421101 0.764811,-2.253092 0.769979,-0.837158 2.072225,-0.837158 1.167888,0 1.84485,0.754476 0.68213,0.749308 0.68213,2.041219 z m -0.950849,-0.279053 q -0.01033,-0.780314 -0.439249,-1.245402 -0.423747,-0.465088 -1.126547,-0.465088 -0.795817,0 -1.276407,0.449585 -0.475424,0.449585 -0.547771,1.266073 z"
         style="text-align:center;text-anchor:middle;stroke-width:0.26458332"
         id="path843"
         inkscape:connector-curvature="0" />
      <path
         d="m 107.32494,79.933884 v 0.465088 h -4.37183 q 0.062,0.981852 0.58911,1.498616 0.53227,0.511597 1.47795,0.511597 0.54777,0 1.05937,-0.134359 0.51676,-0.134359 1.02319,-0.403076 v 0.89917 q -0.5116,0.217041 -1.04903,0.330729 -0.53744,0.113688 -1.09037,0.113688 -1.38493,0 -2.19625,-0.806152 -0.80616,-0.806153 -0.80616,-2.180746 0,-1.421101 0.76482,-2.253092 0.76997,-0.837158 2.07222,-0.837158 1.16789,0 1.84485,0.754476 0.68213,0.749308 0.68213,2.041219 z m -0.95085,-0.279053 q -0.0103,-0.780314 -0.43925,-1.245402 -0.42374,-0.465088 -1.12654,-0.465088 -0.79582,0 -1.27641,0.449585 -0.47543,0.449585 -0.54777,1.266073 z"
         style="text-align:center;text-anchor:middle;stroke-width:0.26458332"
         id="path845"
         inkscape:connector-curvature="0" />
      <path
         d="m 113.39175,78.388758 q 0.35657,-0.640787 0.85266,-0.945678 0.4961,-0.304891 1.16789,-0.304891 0.90434,0 1.39526,0.63562 0.49093,0.630452 0.49093,1.79834 v 3.493326 h -0.95601 v -3.46232 q 0,-0.831991 -0.29456,-1.235067 -0.29456,-0.403076 -0.89917,-0.403076 -0.73897,0 -1.16789,0.490926 -0.42891,0.490926 -0.42891,1.338419 v 3.271118 h -0.95602 v -3.46232 q 0,-0.837159 -0.29455,-1.235067 -0.29456,-0.403076 -0.90951,-0.403076 -0.72863,0 -1.15755,0.496093 -0.42891,0.490927 -0.42891,1.333252 v 3.271118 h -0.95602 v -5.78776 h 0.95602 v 0.89917 q 0.32556,-0.532267 0.78031,-0.785482 0.45475,-0.253214 1.08004,-0.253214 0.63045,0 1.0697,0.320394 0.44442,0.320394 0.65629,0.930175 z"
         style="text-align:center;text-anchor:middle;stroke-width:0.26458332"
         id="path847"
         inkscape:connector-curvature="0" />
      <path
         d="m 122.88988,77.448247 v 0.89917 q -0.40307,-0.206705 -0.83715,-0.310058 -0.43409,-0.103353 -0.89917,-0.103353 -0.70797,0 -1.06454,0.217041 -0.3514,0.217041 -0.3514,0.651123 0,0.330729 0.25322,0.521932 0.25321,0.186035 1.01802,0.356567 l 0.32556,0.07235 q 1.01286,0.217041 1.43661,0.61495 0.42891,0.392741 0.42891,1.100708 0,0.806152 -0.64078,1.276408 -0.63562,0.470255 -1.75184,0.470255 -0.46508,0 -0.97151,-0.09302 -0.50126,-0.08785 -1.05937,-0.268718 V 81.87175 q 0.5271,0.273885 1.0387,0.413411 0.51159,0.134359 1.01286,0.134359 0.67179,0 1.03352,-0.227376 0.36174,-0.232544 0.36174,-0.651123 0,-0.387573 -0.26355,-0.594279 -0.25838,-0.206706 -1.14205,-0.397909 l -0.33073,-0.07751 q -0.88367,-0.186036 -1.27641,-0.568441 -0.39274,-0.387573 -0.39274,-1.059367 0,-0.816488 0.57878,-1.260905 0.57877,-0.444417 1.64331,-0.444417 0.5271,0 0.99219,0.07752 0.46508,0.07751 0.85782,0.232543 z"
         style="text-align:center;text-anchor:middle;stroke-width:0.26458332"
         id="path849"
         inkscape:connector-curvature="0" />
      <path
         d="m 132.76525,77.277715 v 5.78776 h -0.95602 v -5.048787 h -2.60966 v 5.048787 h -0.95601 v -5.048787 h -0.9095 v -0.738973 h 0.9095 v -0.403076 q 0,-0.945679 0.44442,-1.395264 0.44958,-0.454752 1.37459,-0.454752 h 0.95601 v 0.790649 h -0.9095 q -0.5116,0 -0.71314,0.206706 -0.19637,0.206706 -0.19637,0.744141 v 0.511596 z m -0.95602,-2.242757 h 0.95602 v 1.204061 h -0.95602 z"
         style="text-align:center;text-anchor:middle;stroke-width:0.26458332"
         id="path851"
         inkscape:connector-curvature="0" />
      <path
         d="m 138.45483,77.448247 v 0.89917 q -0.40308,-0.206705 -0.83716,-0.310058 -0.43408,-0.103353 -0.89917,-0.103353 -0.70797,0 -1.06454,0.217041 -0.3514,0.217041 -0.3514,0.651123 0,0.330729 0.25322,0.521932 0.25321,0.186035 1.01802,0.356567 l 0.32557,0.07235 q 1.01285,0.217041 1.4366,0.61495 0.42891,0.392741 0.42891,1.100708 0,0.806152 -0.64078,1.276408 -0.63562,0.470255 -1.75183,0.470255 -0.46509,0 -0.97152,-0.09302 -0.50126,-0.08785 -1.05937,-0.268718 V 81.87175 q 0.5271,0.273885 1.0387,0.413411 0.5116,0.134359 1.01286,0.134359 0.67179,0 1.03353,-0.227376 0.36173,-0.232544 0.36173,-0.651123 0,-0.387573 -0.26355,-0.594279 -0.25838,-0.206706 -1.14205,-0.397909 l -0.33073,-0.07751 q -0.88366,-0.186036 -1.27641,-0.568441 -0.39274,-0.387573 -0.39274,-1.059367 0,-0.816488 0.57878,-1.260905 0.57878,-0.444417 1.64331,-0.444417 0.5271,0 0.99219,0.07752 0.46509,0.07751 0.85783,0.232543 z"
         style="text-align:center;text-anchor:middle;stroke-width:0.26458332"
         id="path853"
         inkscape:connector-curvature="0" />
      <path
         d="m 145.09525,79.572149 v 3.493326 h -0.95085 v -3.46232 q 0,-0.821656 -0.32039,-1.229899 -0.3204,-0.408244 -0.96118,-0.408244 -0.76998,0 -1.2144,0.490926 -0.44442,0.490926 -0.44442,1.338419 v 3.271118 H 140.248 v -8.040852 h 0.95601 v 3.152262 q 0.34107,-0.521932 0.80099,-0.780314 0.46508,-0.258382 1.0697,-0.258382 0.99735,0 1.50895,0.620117 0.5116,0.61495 0.5116,1.813843 z"
         style="text-align:center;text-anchor:middle;stroke-width:0.26458332"
         id="path855"
         inkscape:connector-curvature="0" />
      <path
         d="m 149.41023,83.60291 q -0.40308,1.033529 -0.78548,1.348755 -0.38241,0.315226 -1.0232,0.315226 h -0.75964 v -0.795817 h 0.5581 q 0.39274,0 0.60979,-0.186035 0.21704,-0.186035 0.48059,-0.878499 l 0.17053,-0.434082 -2.34094,-5.694743 h 1.00769 l 1.80867,4.526856 1.80868,-4.526856 h 1.00769 z"
         style="text-align:center;text-anchor:middle;stroke-width:0.26458332"
         id="path857"
         inkscape:connector-curvature="0" />
      <path
         d="m 159.26492,80.156092 q -1.15238,0 -1.5968,0.26355 -0.44442,0.26355 -0.44442,0.89917 0,0.506429 0.33073,0.806152 0.3359,0.294556 0.90951,0.294556 0.79064,0 1.26607,-0.558105 0.48059,-0.563273 0.48059,-1.493449 v -0.211874 z m 1.89653,-0.39274 v 3.302123 h -0.95085 v -0.878499 q -0.32556,0.5271 -0.81132,0.780314 -0.48576,0.248047 -1.18856,0.248047 -0.88883,0 -1.41593,-0.496094 -0.52194,-0.501261 -0.52194,-1.338419 0,-0.976685 0.65113,-1.472778 0.65629,-0.496094 1.95337,-0.496094 h 1.33325 v -0.09302 q 0,-0.65629 -0.43408,-1.012858 -0.42892,-0.361735 -1.20923,-0.361735 -0.4961,0 -0.96635,0.118856 -0.47026,0.118856 -0.90434,0.356567 v -0.878499 q 0.52193,-0.201538 1.01286,-0.299723 0.49093,-0.103353 0.95601,-0.103353 1.25574,0 1.87586,0.651123 0.62012,0.651123 0.62012,1.97404 z"
         style="text-align:center;text-anchor:middle;stroke-width:0.26458332"
         id="path859"
         inkscape:connector-curvature="0" />
      <path
         d="m 167.27993,80.176763 q 0,-1.049032 -0.43408,-1.643311 -0.42892,-0.599446 -1.18339,-0.599446 -0.75448,0 -1.18856,0.599446 -0.42891,0.594279 -0.42891,1.643311 0,1.049032 0.42891,1.648478 0.43408,0.594279 1.18856,0.594279 0.75447,0 1.18339,-0.594279 0.43408,-0.599446 0.43408,-1.648478 z m -3.23494,-2.020548 q 0.29972,-0.516765 0.75447,-0.764812 0.45992,-0.253214 1.09554,-0.253214 1.0542,0 1.71049,0.837158 0.66146,0.837158 0.66146,2.201416 0,1.364258 -0.66146,2.201416 -0.65629,0.837158 -1.71049,0.837158 -0.63562,0 -1.09554,-0.248047 -0.45475,-0.253214 -0.75447,-0.769979 v 0.868164 h -0.95602 v -8.040852 h 0.95602 z"
         style="text-align:center;text-anchor:middle;stroke-width:0.26458332"
         id="path861"
         inkscape:connector-curvature="0" />
      <path
         d="m 172.08584,77.944341 q -0.76481,0 -1.20923,0.599447 -0.44441,0.594279 -0.44441,1.632975 0,1.038696 0.43925,1.638143 0.44441,0.594279 1.21439,0.594279 0.75965,0 1.20406,-0.599447 0.44442,-0.599446 0.44442,-1.632975 0,-1.028361 -0.44442,-1.627808 -0.44441,-0.604614 -1.20406,-0.604614 z m 0,-0.806152 q 1.24024,0 1.9482,0.806152 0.70797,0.806152 0.70797,2.232422 0,1.421102 -0.70797,2.232422 -0.70796,0.806152 -1.9482,0.806152 -1.2454,0 -1.95337,-0.806152 -0.7028,-0.81132 -0.7028,-2.232422 0,-1.42627 0.7028,-2.232422 0.70797,-0.806152 1.95337,-0.806152 z"
         style="text-align:center;text-anchor:middle;stroke-width:0.26458332"
         id="path863"
         inkscape:connector-curvature="0" />
      <path
         d="m 176.2148,80.781377 v -3.503662 h 0.95084 v 3.467489 q 0,0.821655 0.3204,1.235066 0.32039,0.408244 0.96118,0.408244 0.76998,0 1.21439,-0.490926 0.44959,-0.490926 0.44959,-1.338419 v -3.281454 h 0.95084 v 5.78776 h -0.95084 v -0.888834 q -0.34623,0.527099 -0.80615,0.785482 -0.45476,0.253214 -1.05937,0.253214 -0.99736,0 -1.51412,-0.620117 -0.51676,-0.620117 -0.51676,-1.813843 z m 2.39261,-3.643188 z"
         style="text-align:center;text-anchor:middle;stroke-width:0.26458332"
         id="path865"
         inkscape:connector-curvature="0" />
      <path
         d="m 183.97142,75.634405 v 1.64331 h 1.95853 v 0.738973 h -1.95853 v 3.141927 q 0,0.707967 0.1912,0.909505 0.19637,0.201538 0.79065,0.201538 h 0.97668 v 0.795817 h -0.97668 q -1.10071,0 -1.51929,-0.408243 -0.41858,-0.413412 -0.41858,-1.498617 v -3.141927 h -0.69763 v -0.738973 h 0.69763 v -1.64331 z"
         style="text-align:center;text-anchor:middle;stroke-width:0.26458332"
         id="path867"
         inkscape:connector-curvature="0" />
      <path
         d="m 29.210848,88.863571 v 1.64331 h 1.958537 v 0.738973 h -1.958537 v 3.141927 q 0,0.707968 0.191203,0.909506 0.196371,0.201538 0.790649,0.201538 h 0.976685 v 0.795817 H 30.1927 q -1.100707,0 -1.519287,-0.408244 -0.418579,-0.413412 -0.418579,-1.498617 v -3.141927 h -0.697631 v -0.738973 h 0.697631 v -1.64331 z"
         style="text-align:center;text-anchor:middle;stroke-width:0.26458332"
         id="path869"
         inkscape:connector-curvature="0" />
      <path
         d="m 37.236198,92.801315 v 3.493327 h -0.950846 v -3.462321 q 0,-0.821655 -0.320394,-1.229899 -0.320394,-0.408244 -0.961182,-0.408244 -0.769979,0 -1.214396,0.490926 -0.444417,0.490926 -0.444417,1.33842 v 3.271118 h -0.956014 v -8.040853 h 0.956014 v 3.152262 q 0.341064,-0.521932 0.800985,-0.780314 0.465087,-0.258382 1.069702,-0.258382 0.997355,0 1.508951,0.620117 0.511597,0.61495 0.511597,1.813843 z"
         style="text-align:center;text-anchor:middle;stroke-width:0.26458332"
         id="path871"
         inkscape:connector-curvature="0" />
      <path
         d="m 44.09366,93.16305 v 0.465088 h -4.371826 q 0.06201,0.981852 0.589111,1.498616 0.532268,0.511597 1.477946,0.511597 0.54777,0 1.059367,-0.134359 0.516764,-0.134358 1.023193,-0.403076 v 0.89917 q -0.511596,0.217041 -1.049031,0.330729 -0.537435,0.113688 -1.090373,0.113688 -1.384928,0 -2.196248,-0.806152 -0.806152,-0.806152 -0.806152,-2.180745 0,-1.421102 0.764811,-2.253093 0.769979,-0.837158 2.072225,-0.837158 1.167887,0 1.844848,0.754476 0.682129,0.749308 0.682129,2.041219 z m -0.950846,-0.279053 q -0.01034,-0.780314 -0.43925,-1.245402 -0.423747,-0.465088 -1.126546,-0.465088 -0.795817,0 -1.276408,0.449585 -0.475423,0.449585 -0.54777,1.266073 z"
         style="text-align:center;text-anchor:middle;stroke-width:0.26458332"
         id="path873"
         inkscape:connector-curvature="0" />
      <path
         d="m 49.343986,90.677414 v 0.89917 q -0.403077,-0.206706 -0.837159,-0.310059 -0.434082,-0.103353 -0.899169,-0.103353 -0.707968,0 -1.064535,0.217041 -0.3514,0.217041 -0.3514,0.651123 0,0.330729 0.253215,0.521932 0.253214,0.186035 1.018026,0.356568 l 0.325561,0.07235 q 1.012858,0.217041 1.436605,0.614949 0.428914,0.392741 0.428914,1.100708 0,0.806152 -0.640788,1.276408 -0.63562,0.470255 -1.751831,0.470255 -0.465087,0 -0.971516,-0.09302 -0.501262,-0.08785 -1.059367,-0.268718 v -0.981852 q 0.527099,0.273885 1.038696,0.413412 0.511597,0.134358 1.012858,0.134358 0.671794,0 1.033529,-0.227376 0.361735,-0.232544 0.361735,-0.651123 0,-0.387573 -0.26355,-0.594279 Q 48.155428,93.969202 47.271761,93.778 l -0.330729,-0.07752 q -0.883667,-0.186035 -1.276408,-0.568441 -0.392741,-0.387573 -0.392741,-1.059367 0,-0.816487 0.578776,-1.260905 0.578776,-0.444417 1.64331,-0.444417 0.5271,0 0.992188,0.07751 0.465088,0.07751 0.857829,0.232544 z"
         style="text-align:center;text-anchor:middle;stroke-width:0.26458332"
         id="path875"
         inkscape:connector-curvature="0" />
      <path
         d="m 56.123933,93.16305 v 0.465088 h -4.371826 q 0.06201,0.981852 0.589112,1.498616 0.532267,0.511597 1.477946,0.511597 0.54777,0 1.059366,-0.134359 0.516765,-0.134358 1.023194,-0.403076 v 0.89917 q -0.511597,0.217041 -1.049032,0.330729 -0.537435,0.113688 -1.090372,0.113688 -1.384929,0 -2.196249,-0.806152 -0.806152,-0.806152 -0.806152,-2.180745 0,-1.421102 0.764811,-2.253093 0.769979,-0.837158 2.072225,-0.837158 1.167887,0 1.844849,0.754476 0.682128,0.749308 0.682128,2.041219 z m -0.950846,-0.279053 q -0.01034,-0.780314 -0.43925,-1.245402 -0.423746,-0.465088 -1.126546,-0.465088 -0.795817,0 -1.276408,0.449585 -0.475423,0.449585 -0.54777,1.266073 z"
         style="text-align:center;text-anchor:middle;stroke-width:0.26458332"
         id="path877"
         inkscape:connector-curvature="0" />
      <path
         d="m 61.973705,95.426478 v 3.06958 h -0.956014 v -7.989177 h 0.956014 v 0.8785 q 0.299723,-0.516764 0.754476,-0.764811 0.45992,-0.253215 1.09554,-0.253215 1.0542,0 1.71049,0.837158 0.661458,0.837158 0.661458,2.201416 0,1.364258 -0.661458,2.201416 -0.65629,0.837158 -1.71049,0.837158 -0.63562,0 -1.09554,-0.248046 -0.454753,-0.253215 -0.754476,-0.769979 z m 3.234945,-2.020549 q 0,-1.049031 -0.434082,-1.64331 -0.428915,-0.599447 -1.183391,-0.599447 -0.754476,0 -1.188558,0.599447 -0.428914,0.594279 -0.428914,1.64331 0,1.049032 0.428914,1.648478 0.434082,0.594279 1.188558,0.594279 0.754476,0 1.183391,-0.594279 0.434082,-0.599446 0.434082,-1.648478 z"
         style="text-align:center;text-anchor:middle;stroke-width:0.26458332"
         id="path879"
         inkscape:connector-curvature="0" />
      <path
         d="m 67.771802,90.506881 h 0.950846 v 5.787761 h -0.950846 z m 0,-2.253092 h 0.950846 v 1.204061 h -0.950846 z"
         style="text-align:center;text-anchor:middle;stroke-width:0.26458332"
         id="path881"
         inkscape:connector-curvature="0" />
      <path
         d="m 74.872141,90.72909 v 0.888835 q -0.403076,-0.222209 -0.81132,-0.330729 -0.403076,-0.113689 -0.816487,-0.113689 -0.925008,0 -1.436605,0.589112 -0.511597,0.583943 -0.511597,1.64331 0,1.059367 0.511597,1.648478 0.511597,0.583944 1.436605,0.583944 0.413411,0 0.816487,-0.10852 0.408244,-0.113689 0.81132,-0.335897 v 0.878499 q -0.397908,0.186035 -0.826823,0.279053 -0.423746,0.09302 -0.904337,0.09302 -1.307414,0 -2.077393,-0.821655 -0.769979,-0.821655 -0.769979,-2.216919 0,-1.415934 0.775147,-2.227254 0.780314,-0.81132 2.134237,-0.81132 0.439249,0 0.857828,0.09302 0.418579,0.08785 0.81132,0.268717 z"
         style="text-align:center;text-anchor:middle;stroke-width:0.26458332"
         id="path883"
         inkscape:connector-curvature="0" />
      <path
         d="m 77.476634,88.863571 v 1.64331 h 1.958536 v 0.738973 h -1.958536 v 3.141927 q 0,0.707968 0.191202,0.909506 0.196371,0.201538 0.79065,0.201538 h 0.976684 v 0.795817 h -0.976684 q -1.100708,0 -1.519287,-0.408244 -0.418579,-0.413412 -0.418579,-1.498617 v -3.141927 h -0.697632 v -0.738973 h 0.697632 v -1.64331 z"
         style="text-align:center;text-anchor:middle;stroke-width:0.26458332"
         id="path885"
         inkscape:connector-curvature="0" />
      <path
         d="m 80.592722,94.010543 v -3.503662 h 0.950847 v 3.467489 q 0,0.821655 0.320394,1.235067 0.320393,0.408243 0.961181,0.408243 0.769979,0 1.214396,-0.490926 0.449585,-0.490926 0.449585,-1.338419 v -3.281454 h 0.950847 v 5.787761 h -0.950847 v -0.888835 q -0.346232,0.5271 -0.806152,0.785482 -0.454753,0.253214 -1.059367,0.253214 -0.997355,0 -1.514119,-0.620117 -0.516765,-0.620117 -0.516765,-1.813843 z m 2.392619,-3.643188 z"
         style="text-align:center;text-anchor:middle;stroke-width:0.26458332"
         id="path887"
         inkscape:connector-curvature="0" />
      <path
         d="m 90.762645,91.395716 q -0.160196,-0.09302 -0.351399,-0.134359 -0.186035,-0.04651 -0.413412,-0.04651 -0.806152,0 -1.240234,0.527099 -0.428914,0.521932 -0.428914,1.503784 v 3.04891 h -0.956014 v -5.787761 h 0.956014 v 0.89917 q 0.299723,-0.527099 0.780314,-0.780314 0.48059,-0.258382 1.167887,-0.258382 0.09819,0 0.217041,0.0155 0.118856,0.01033 0.26355,0.03617 z"
         style="text-align:center;text-anchor:middle;stroke-width:0.26458332"
         id="path889"
         inkscape:connector-curvature="0" />
      <path
         d="m 96.49356,93.16305 v 0.465088 h -4.371826 q 0.06201,0.981852 0.589112,1.498616 0.532267,0.511597 1.477946,0.511597 0.54777,0 1.059366,-0.134359 0.516765,-0.134358 1.023194,-0.403076 v 0.89917 q -0.511597,0.217041 -1.049032,0.330729 -0.537435,0.113688 -1.090372,0.113688 -1.384929,0 -2.196249,-0.806152 -0.806152,-0.806152 -0.806152,-2.180745 0,-1.421102 0.764811,-2.253093 0.769979,-0.837158 2.072225,-0.837158 1.167887,0 1.844849,0.754476 0.682128,0.749308 0.682128,2.041219 z m -0.950846,-0.279053 q -0.01033,-0.780314 -0.43925,-1.245402 -0.423746,-0.465088 -1.126546,-0.465088 -0.795817,0 -1.276408,0.449585 -0.475423,0.449585 -0.54777,1.266073 z"
         style="text-align:center;text-anchor:middle;stroke-width:0.26458332"
         id="path891"
         inkscape:connector-curvature="0" />
      <path
         d="m 101.74389,90.677414 v 0.89917 q -0.40308,-0.206706 -0.83716,-0.310059 -0.43408,-0.103353 -0.89917,-0.103353 -0.707969,0 -1.064537,0.217041 -0.351399,0.217041 -0.351399,0.651123 0,0.330729 0.253214,0.521932 0.253215,0.186035 1.018026,0.356568 l 0.325566,0.07235 q 1.01285,0.217041 1.4366,0.614949 0.42891,0.392741 0.42891,1.100708 0,0.806152 -0.64078,1.276408 -0.63562,0.470255 -1.751834,0.470255 -0.465088,0 -0.971517,-0.09302 -0.501261,-0.08785 -1.059367,-0.268718 v -0.981852 q 0.5271,0.273885 1.038696,0.413412 0.511597,0.134358 1.012858,0.134358 0.671794,0 1.033534,-0.227376 0.36173,-0.232544 0.36173,-0.651123 0,-0.387573 -0.26355,-0.594279 -0.25838,-0.206706 -1.142049,-0.397908 l -0.330729,-0.07752 q -0.883667,-0.186035 -1.276408,-0.568441 -0.392741,-0.387573 -0.392741,-1.059367 0,-0.816487 0.578776,-1.260905 0.578776,-0.444417 1.643311,-0.444417 0.5271,0 0.99219,0.07751 0.46509,0.07751 0.85783,0.232544 z"
         style="text-align:center;text-anchor:middle;stroke-width:0.26458332"
         id="path893"
         inkscape:connector-curvature="0" />
      <path
         d="m 103.70759,94.98206 h 1.09037 v 1.312582 h -1.09037 z"
         style="text-align:center;text-anchor:middle;stroke-width:0.26458332"
         id="path895"
         inkscape:connector-curvature="0" />
      <path
         d="m 107.07689,94.98206 h 1.09037 v 1.312582 h -1.09037 z"
         style="text-align:center;text-anchor:middle;stroke-width:0.26458332"
         id="path897"
         inkscape:connector-curvature="0" />
      <path
         d="m 110.4462,94.98206 h 1.09037 v 1.312582 h -1.09037 z"
         style="text-align:center;text-anchor:middle;stroke-width:0.26458332"
         id="path899"
         inkscape:connector-curvature="0" />
      <path
         d="m 119.45856,96.832077 q -0.40307,1.033528 -0.78548,1.348754 -0.3824,0.315227 -1.02319,0.315227 h -0.75964 v -0.795817 h 0.5581 q 0.39274,0 0.60978,-0.186036 0.21704,-0.186035 0.48059,-0.878499 l 0.17054,-0.434082 -2.34095,-5.694743 h 1.00769 l 1.80868,4.526856 1.80867,-4.526856 h 1.00769 z"
         style="text-align:center;text-anchor:middle;stroke-width:0.26458332"
         id="path901"
         inkscape:connector-curvature="0" />
      <path
         d="m 125.55638,91.173507 q -0.76481,0 -1.20922,0.599447 -0.44442,0.594279 -0.44442,1.632975 0,1.038697 0.43925,1.638143 0.44441,0.594279 1.21439,0.594279 0.75965,0 1.20406,-0.599447 0.44442,-0.599446 0.44442,-1.632975 0,-1.028361 -0.44442,-1.627807 -0.44441,-0.604615 -1.20406,-0.604615 z m 0,-0.806152 q 1.24024,0 1.9482,0.806152 0.70797,0.806153 0.70797,2.232422 0,1.421102 -0.70797,2.232422 -0.70796,0.806152 -1.9482,0.806152 -1.2454,0 -1.95337,-0.806152 -0.7028,-0.81132 -0.7028,-2.232422 0,-1.426269 0.7028,-2.232422 0.70797,-0.806152 1.95337,-0.806152 z"
         style="text-align:center;text-anchor:middle;stroke-width:0.26458332"
         id="path903"
         inkscape:connector-curvature="0" />
      <path
         d="m 129.68534,94.010543 v -3.503662 h 0.95084 v 3.467489 q 0,0.821655 0.3204,1.235067 0.32039,0.408243 0.96118,0.408243 0.76998,0 1.21439,-0.490926 0.44959,-0.490926 0.44959,-1.338419 v -3.281454 h 0.95084 v 5.787761 h -0.95084 v -0.888835 q -0.34623,0.5271 -0.80615,0.785482 -0.45476,0.253214 -1.05937,0.253214 -0.99736,0 -1.51412,-0.620117 -0.51676,-0.620117 -0.51676,-1.813843 z m 2.39261,-3.643188 z"
         style="text-align:center;text-anchor:middle;stroke-width:0.26458332"
         id="path905"
         inkscape:connector-curvature="0" />
      <path
         d="m 137.40062,88.579351 v 2.868042 h -0.87849 v -2.868042 z"
         style="text-align:center;text-anchor:middle;stroke-width:0.26458332"
         id="path907"
         inkscape:connector-curvature="0" />
      <path
         d="m 139.41601,88.253789 h 0.95084 v 8.040853 h -0.95084 z"
         style="text-align:center;text-anchor:middle;stroke-width:0.26458332"
         id="path909"
         inkscape:connector-curvature="0" />
      <path
         d="m 142.35122,88.253789 h 0.95085 v 8.040853 h -0.95085 z"
         style="text-align:center;text-anchor:middle;stroke-width:0.26458332"
         id="path911"
         inkscape:connector-curvature="0" />
      <path
         d="m 153.46683,92.801315 v 3.493327 h -0.95085 v -3.462321 q 0,-0.821655 -0.32039,-1.229899 -0.3204,-0.408244 -0.96118,-0.408244 -0.76998,0 -1.2144,0.490926 -0.44442,0.490926 -0.44442,1.33842 v 3.271118 h -0.95601 v -8.040853 h 0.95601 v 3.152262 q 0.34107,-0.521932 0.80099,-0.780314 0.46508,-0.258382 1.0697,-0.258382 0.99735,0 1.50895,0.620117 0.5116,0.61495 0.5116,1.813843 z"
         style="text-align:center;text-anchor:middle;stroke-width:0.26458332"
         id="path913"
         inkscape:connector-curvature="0" />
      <path
         d="m 158.00402,93.385259 q -1.15239,0 -1.59681,0.263549 -0.44441,0.26355 -0.44441,0.89917 0,0.506429 0.33073,0.806153 0.33589,0.294555 0.9095,0.294555 0.79065,0 1.26607,-0.558105 0.48059,-0.563273 0.48059,-1.493449 v -0.211873 z m 1.89652,-0.392741 v 3.302124 h -0.95085 v -0.8785 q -0.32556,0.5271 -0.81132,0.780315 -0.48575,0.248046 -1.18855,0.248046 -0.88884,0 -1.41594,-0.496093 -0.52193,-0.501262 -0.52193,-1.33842 0,-0.976684 0.65112,-1.472778 0.65629,-0.496094 1.95337,-0.496094 h 1.33325 v -0.09302 q 0,-0.656291 -0.43408,-1.012859 -0.42891,-0.361735 -1.20923,-0.361735 -0.49609,0 -0.96635,0.118856 -0.47025,0.118856 -0.90433,0.356568 v -0.8785 q 0.52193,-0.201538 1.01285,-0.299723 0.49093,-0.103353 0.95602,-0.103353 1.25574,0 1.87585,0.651123 0.62012,0.651123 0.62012,1.97404 z"
         style="text-align:center;text-anchor:middle;stroke-width:0.26458332"
         id="path915"
         inkscape:connector-curvature="0" />
      <path
         d="m 161.18211,90.506881 h 1.00769 l 1.80868,4.857585 1.80867,-4.857585 h 1.00769 l -2.17041,5.787761 h -1.29191 z"
         style="text-align:center;text-anchor:middle;stroke-width:0.26458332"
         id="path917"
         inkscape:connector-curvature="0" />
      <path
         d="m 173.07803,93.16305 v 0.465088 h -4.37183 q 0.062,0.981852 0.58911,1.498616 0.53227,0.511597 1.47795,0.511597 0.54777,0 1.05936,-0.134359 0.51677,-0.134358 1.0232,-0.403076 v 0.89917 q -0.5116,0.217041 -1.04903,0.330729 -0.53744,0.113688 -1.09038,0.113688 -1.38493,0 -2.19625,-0.806152 -0.80615,-0.806152 -0.80615,-2.180745 0,-1.421102 0.76481,-2.253093 0.76998,-0.837158 2.07223,-0.837158 1.16789,0 1.84485,0.754476 0.68213,0.749308 0.68213,2.041219 z m -0.95085,-0.279053 q -0.0103,-0.780314 -0.43925,-1.245402 -0.42375,-0.465088 -1.12655,-0.465088 -0.79581,0 -1.2764,0.449585 -0.47543,0.449585 -0.54777,1.266073 z"
         style="text-align:center;text-anchor:middle;stroke-width:0.26458332"
         id="path919"
         inkscape:connector-curvature="0" />
      <path
         d="m 178.94847,88.863571 v 1.64331 h 1.95854 v 0.738973 h -1.95854 v 3.141927 q 0,0.707968 0.19121,0.909506 0.19637,0.201538 0.79065,0.201538 h 0.97668 v 0.795817 h -0.97668 q -1.10071,0 -1.51929,-0.408244 -0.41858,-0.413412 -0.41858,-1.498617 v -3.141927 h -0.69763 v -0.738973 h 0.69763 v -1.64331 z"
         style="text-align:center;text-anchor:middle;stroke-width:0.26458332"
         id="path921"
         inkscape:connector-curvature="0" />
      <path
         d="m 184.4055,91.173507 q -0.76481,0 -1.20922,0.599447 -0.44442,0.594279 -0.44442,1.632975 0,1.038697 0.43925,1.638143 0.44442,0.594279 1.21439,0.594279 0.75965,0 1.20407,-0.599447 0.44441,-0.599446 0.44441,-1.632975 0,-1.028361 -0.44441,-1.627807 -0.44442,-0.604615 -1.20407,-0.604615 z m 0,-0.806152 q 1.24024,0 1.94821,0.806152 0.70796,0.806153 0.70796,2.232422 0,1.421102 -0.70796,2.232422 -0.70797,0.806152 -1.94821,0.806152 -1.2454,0 -1.95336,-0.806152 -0.7028,-0.81132 -0.7028,-2.232422 0,-1.426269 0.7028,-2.232422 0.70796,-0.806152 1.95336,-0.806152 z"
         style="text-align:center;text-anchor:middle;stroke-width:0.26458332"
         id="path923"
         inkscape:connector-curvature="0" />
      <path
         d="m 18.860059,107.23971 v -3.50366 h 0.950847 v 3.46749 q 0,0.82165 0.320393,1.23506 0.320394,0.40825 0.961182,0.40825 0.769979,0 1.214396,-0.49093 0.449585,-0.49093 0.449585,-1.33842 v -3.28145 h 0.950846 v 5.78776 h -0.950846 v -0.88884 q -0.346232,0.5271 -0.806152,0.78549 -0.454753,0.25321 -1.059367,0.25321 -0.997355,0 -1.514119,-0.62012 -0.516765,-0.62011 -0.516765,-1.81384 z m 2.392619,-3.64319 z"
         style="text-align:center;text-anchor:middle;stroke-width:0.26458332"
         id="path925"
         inkscape:connector-curvature="0" />
      <path
         d="m 29.365878,103.90658 v 0.89917 q -0.403077,-0.20671 -0.837159,-0.31006 -0.434082,-0.10335 -0.899169,-0.10335 -0.707968,0 -1.064535,0.21704 -0.3514,0.21704 -0.3514,0.65112 0,0.33073 0.253215,0.52193 0.253214,0.18604 1.018026,0.35657 l 0.325561,0.0724 q 1.012858,0.21704 1.436605,0.61495 0.428914,0.39274 0.428914,1.10071 0,0.80615 -0.640788,1.2764 -0.63562,0.47026 -1.751831,0.47026 -0.465087,0 -0.971516,-0.093 -0.501262,-0.0879 -1.059367,-0.26872 v -0.98185 q 0.527099,0.27389 1.038696,0.41341 0.511597,0.13436 1.012858,0.13436 0.671794,0 1.033529,-0.22737 0.361735,-0.23255 0.361735,-0.65113 0,-0.38757 -0.26355,-0.59428 -0.258382,-0.2067 -1.142049,-0.3979 l -0.330729,-0.0775 q -0.883667,-0.18603 -1.276408,-0.56844 -0.392741,-0.38757 -0.392741,-1.05937 0,-0.81648 0.578776,-1.2609 0.578776,-0.44442 1.64331,-0.44442 0.5271,0 0.992188,0.0775 0.465088,0.0775 0.857829,0.23254 z"
         style="text-align:center;text-anchor:middle;stroke-width:0.26458332"
         id="path927"
         inkscape:connector-curvature="0" />
      <path
         d="m 36.145825,106.39222 v 0.46508 h -4.371826 q 0.06201,0.98186 0.589111,1.49862 0.532268,0.5116 1.477946,0.5116 0.54777,0 1.059367,-0.13436 0.516764,-0.13436 1.023193,-0.40308 v 0.89917 q -0.511596,0.21704 -1.049031,0.33073 -0.537435,0.11369 -1.090373,0.11369 -1.384928,0 -2.196248,-0.80615 -0.806152,-0.80615 -0.806152,-2.18075 0,-1.4211 0.764811,-2.25309 0.769979,-0.83716 2.072225,-0.83716 1.167887,0 1.844848,0.75448 0.682129,0.74931 0.682129,2.04122 z m -0.950846,-0.27906 q -0.01034,-0.78031 -0.43925,-1.2454 -0.423747,-0.46509 -1.126546,-0.46509 -0.795817,0 -1.276408,0.44959 -0.475423,0.44958 -0.54777,1.26607 z"
         style="text-align:center;text-anchor:middle;stroke-width:0.26458332"
         id="path929"
         inkscape:connector-curvature="0" />
      <path
         d="m 43.483878,110.06124 q -0.403076,1.03353 -0.785482,1.34876 -0.382405,0.31522 -1.023193,0.31522 h -0.759644 v -0.79581 h 0.558106 q 0.392741,0 0.609782,-0.18604 0.217041,-0.18603 0.48059,-0.8785 l 0.170533,-0.43408 -2.340943,-5.69474 h 1.007691 l 1.808675,4.52685 1.808675,-4.52685 h 1.00769 z"
         style="text-align:center;text-anchor:middle;stroke-width:0.26458332"
         id="path931"
         inkscape:connector-curvature="0" />
      <path
         d="m 49.581697,104.40267 q -0.764811,0 -1.209229,0.59945 -0.444417,0.59428 -0.444417,1.63298 0,1.03869 0.43925,1.63814 0.444417,0.59428 1.214396,0.59428 0.759643,0 1.204061,-0.59945 0.444417,-0.59945 0.444417,-1.63297 0,-1.02837 -0.444417,-1.62781 -0.444418,-0.60462 -1.204061,-0.60462 z m 0,-0.80615 q 1.240234,0 1.948201,0.80615 0.707967,0.80616 0.707967,2.23243 0,1.4211 -0.707967,2.23242 -0.707967,0.80615 -1.948201,0.80615 -1.245402,0 -1.953369,-0.80615 -0.7028,-0.81132 -0.7028,-2.23242 0,-1.42627 0.7028,-2.23243 0.707967,-0.80615 1.953369,-0.80615 z"
         style="text-align:center;text-anchor:middle;stroke-width:0.26458332"
         id="path933"
         inkscape:connector-curvature="0" />
      <path
         d="m 53.710645,107.23971 v -3.50366 h 0.950846 v 3.46749 q 0,0.82165 0.320394,1.23506 0.320394,0.40825 0.961182,0.40825 0.769979,0 1.214396,-0.49093 0.449585,-0.49093 0.449585,-1.33842 v -3.28145 h 0.950846 v 5.78776 h -0.950846 v -0.88884 q -0.346232,0.5271 -0.806152,0.78549 -0.454753,0.25321 -1.059367,0.25321 -0.997355,0 -1.51412,-0.62012 -0.516764,-0.62011 -0.516764,-1.81384 z m 2.392619,-3.64319 z"
         style="text-align:center;text-anchor:middle;stroke-width:0.26458332"
         id="path935"
         inkscape:connector-curvature="0" />
      <path
         d="m 63.880564,104.62488 q -0.160197,-0.093 -0.351399,-0.13436 -0.186035,-0.0465 -0.413412,-0.0465 -0.806152,0 -1.240234,0.5271 -0.428915,0.52194 -0.428915,1.50379 v 3.04891 h -0.956013 v -5.78776 h 0.956013 v 0.89917 q 0.299724,-0.5271 0.780315,-0.78032 0.48059,-0.25838 1.167887,-0.25838 0.09819,0 0.217041,0.0155 0.118856,0.0103 0.26355,0.0362 z"
         style="text-align:center;text-anchor:middle;stroke-width:0.26458332"
         id="path937"
         inkscape:connector-curvature="0" />
      <path
         d="m 72.412346,106.6351 q 0,-1.04904 -0.434082,-1.64331 -0.428915,-0.59945 -1.18339,-0.59945 -0.754476,0 -1.188558,0.59945 -0.428915,0.59427 -0.428915,1.64331 0,1.04903 0.428915,1.64847 0.434082,0.59428 1.188558,0.59428 0.754475,0 1.18339,-0.59428 0.434082,-0.59944 0.434082,-1.64847 z m -3.234945,-2.02055 q 0.299724,-0.51677 0.754476,-0.76481 0.45992,-0.25322 1.095541,-0.25322 1.054199,0 1.710489,0.83716 0.661459,0.83716 0.661459,2.20142 0,1.36425 -0.661459,2.20141 -0.65629,0.83716 -1.710489,0.83716 -0.635621,0 -1.095541,-0.24805 -0.454752,-0.25321 -0.754476,-0.76998 v 0.86817 h -0.956014 v -8.04085 h 0.956014 z"
         style="text-align:center;text-anchor:middle;stroke-width:0.26458332"
         id="path939"
         inkscape:connector-curvature="0" />
      <path
         d="m 78.329295,104.62488 q -0.160197,-0.093 -0.3514,-0.13436 -0.186035,-0.0465 -0.413411,-0.0465 -0.806153,0 -1.240235,0.5271 -0.428914,0.52194 -0.428914,1.50379 v 3.04891 h -0.956014 v -5.78776 h 0.956014 v 0.89917 q 0.299723,-0.5271 0.780314,-0.78032 0.480591,-0.25838 1.167887,-0.25838 0.09819,0 0.217041,0.0155 0.118856,0.0103 0.26355,0.0362 z"
         style="text-align:center;text-anchor:middle;stroke-width:0.26458332"
         id="path941"
         inkscape:connector-curvature="0" />
      <path
         d="m 81.967317,106.61442 q -1.152384,0 -1.596802,0.26355 -0.444417,0.26355 -0.444417,0.89917 0,0.50643 0.330729,0.80616 0.335897,0.29455 0.909505,0.29455 0.79065,0 1.266073,-0.5581 0.480591,-0.56328 0.480591,-1.49345 v -0.21188 z m 1.896525,-0.39274 v 3.30213 h -0.950846 v -0.8785 q -0.325562,0.5271 -0.81132,0.78031 -0.485759,0.24805 -1.188558,0.24805 -0.888835,0 -1.415934,-0.49609 -0.521932,-0.50127 -0.521932,-1.33842 0,-0.97669 0.651123,-1.47278 0.65629,-0.4961 1.953369,-0.4961 h 1.333252 v -0.093 q 0,-0.65629 -0.434082,-1.01286 -0.428915,-0.36174 -1.209229,-0.36174 -0.496094,0 -0.966349,0.11886 -0.470256,0.11886 -0.904338,0.35657 v -0.8785 q 0.521932,-0.20154 1.012858,-0.29973 0.490927,-0.10335 0.956014,-0.10335 1.255738,0 1.875855,0.65112 0.620117,0.65113 0.620117,1.97404 z"
         style="text-align:center;text-anchor:middle;stroke-width:0.26458332"
         id="path943"
         inkscape:connector-curvature="0" />
      <path
         d="m 85.827545,103.73605 h 0.950847 v 5.78776 h -0.950847 z m 0,-2.25309 h 0.950847 v 1.20406 h -0.950847 z"
         style="text-align:center;text-anchor:middle;stroke-width:0.26458332"
         id="path945"
         inkscape:connector-curvature="0" />
      <path
         d="m 93.57384,106.03048 v 3.49333 h -0.950847 v -3.46232 q 0,-0.82166 -0.320393,-1.2299 -0.320394,-0.40825 -0.961182,-0.40825 -0.769979,0 -1.214396,0.49093 -0.444417,0.49093 -0.444417,1.33842 v 3.27112 h -0.956014 v -5.78776 h 0.956014 v 0.89917 q 0.341064,-0.52193 0.800984,-0.78032 0.465088,-0.25838 1.069702,-0.25838 0.997355,0 1.508952,0.62012 0.511597,0.61495 0.511597,1.81384 z"
         style="text-align:center;text-anchor:middle;stroke-width:0.26458332"
         id="path947"
         inkscape:connector-curvature="0" />
      <path
         d="m 99.790517,102.09274 v 1.64331 h 1.958533 v 0.73897 h -1.958533 v 3.14193 q 0,0.70796 0.191203,0.9095 0.19637,0.20154 0.79065,0.20154 h 0.97668 v 0.79582 h -0.97668 q -1.100709,0 -1.519288,-0.40825 -0.418579,-0.41341 -0.418579,-1.49861 v -3.14193 h -0.697632 v -0.73897 h 0.697632 v -1.64331 z"
         style="text-align:center;text-anchor:middle;stroke-width:0.26458332"
         id="path949"
         inkscape:connector-curvature="0" />
      <path
         d="m 105.24755,104.40267 q -0.76481,0 -1.20923,0.59945 -0.44442,0.59428 -0.44442,1.63298 0,1.03869 0.43925,1.63814 0.44442,0.59428 1.2144,0.59428 0.75964,0 1.20406,-0.59945 0.44442,-0.59945 0.44442,-1.63297 0,-1.02837 -0.44442,-1.62781 -0.44442,-0.60462 -1.20406,-0.60462 z m 0,-0.80615 q 1.24023,0 1.9482,0.80615 0.70797,0.80616 0.70797,2.23243 0,1.4211 -0.70797,2.23242 -0.70797,0.80615 -1.9482,0.80615 -1.2454,0 -1.95337,-0.80615 -0.7028,-0.81132 -0.7028,-2.23242 0,-1.42627 0.7028,-2.23243 0.70797,-0.80615 1.95337,-0.80615 z"
         style="text-align:center;text-anchor:middle;stroke-width:0.26458332"
         id="path951"
         inkscape:connector-curvature="0" />
      <path
         d="m 117.5207,103.73605 v 5.78776 h -0.95601 v -5.04879 h -2.60966 v 5.04879 h -0.95601 v -5.04879 h -0.90951 v -0.73897 h 0.90951 v -0.40308 q 0,-0.94568 0.44441,-1.39526 0.44959,-0.45475 1.3746,-0.45475 h 0.95601 v 0.79064 h -0.9095 q -0.5116,0 -0.71314,0.20671 -0.19637,0.20671 -0.19637,0.74414 v 0.5116 z m -0.95601,-2.24276 h 0.95601 v 1.20406 h -0.95601 z"
         style="text-align:center;text-anchor:middle;stroke-width:0.26458332"
         id="path953"
         inkscape:connector-curvature="0" />
      <path
         d="m 123.32913,106.56275 q 0,-1.03353 -0.42891,-1.60197 -0.42375,-0.56844 -1.19373,-0.56844 -0.76481,0 -1.19373,0.56844 -0.42374,0.56844 -0.42374,1.60197 0,1.02836 0.42374,1.5968 0.42892,0.56844 1.19373,0.56844 0.76998,0 1.19373,-0.56844 0.42891,-0.56844 0.42891,-1.5968 z m 0.95085,2.24276 q 0,1.47794 -0.65629,2.19624 -0.6563,0.72347 -2.01022,0.72347 -0.50126,0 -0.94568,-0.0775 -0.44441,-0.0724 -0.86299,-0.22738 v -0.92501 q 0.41858,0.22738 0.82682,0.3359 0.40824,0.10852 0.83199,0.10852 0.93534,0 1.40043,-0.49092 0.46509,-0.48576 0.46509,-1.47278 v -0.47026 q -0.29456,0.5116 -0.75448,0.76481 -0.45992,0.25322 -1.1007,0.25322 -1.06454,0 -1.71566,-0.81132 -0.65112,-0.81132 -0.65112,-2.14974 0,-1.34359 0.65112,-2.15491 0.65112,-0.81132 1.71566,-0.81132 0.64078,0 1.1007,0.25322 0.45992,0.25321 0.75448,0.76481 v -0.8785 h 0.95085 z"
         style="text-align:center;text-anchor:middle;stroke-width:0.26458332"
         id="path955"
         inkscape:connector-curvature="0" />
      <path
         d="m 126.14033,107.23971 v -3.50366 h 0.95085 v 3.46749 q 0,0.82165 0.32039,1.23506 0.3204,0.40825 0.96118,0.40825 0.76998,0 1.2144,-0.49093 0.44959,-0.49093 0.44959,-1.33842 v -3.28145 h 0.95084 v 5.78776 h -0.95084 v -0.88884 q -0.34624,0.5271 -0.80616,0.78549 -0.45475,0.25321 -1.05936,0.25321 -0.99736,0 -1.51412,-0.62012 -0.51677,-0.62011 -0.51677,-1.81384 z m 2.39262,-3.64319 z"
         style="text-align:center;text-anchor:middle;stroke-width:0.26458332"
         id="path957"
         inkscape:connector-curvature="0" />
      <path
         d="m 136.31025,104.62488 q -0.1602,-0.093 -0.3514,-0.13436 -0.18603,-0.0465 -0.41341,-0.0465 -0.80615,0 -1.24023,0.5271 -0.42892,0.52194 -0.42892,1.50379 v 3.04891 h -0.95601 v -5.78776 h 0.95601 v 0.89917 q 0.29973,-0.5271 0.78032,-0.78032 0.48059,-0.25838 1.16788,-0.25838 0.0982,0 0.21704,0.0155 0.11886,0.0103 0.26355,0.0362 z"
         style="text-align:center;text-anchor:middle;stroke-width:0.26458332"
         id="path959"
         inkscape:connector-curvature="0" />
      <path
         d="m 142.04117,106.39222 v 0.46508 h -4.37183 q 0.062,0.98186 0.58912,1.49862 0.53226,0.5116 1.47794,0.5116 0.54777,0 1.05937,-0.13436 0.51676,-0.13436 1.02319,-0.40308 v 0.89917 q -0.51159,0.21704 -1.04903,0.33073 -0.53743,0.11369 -1.09037,0.11369 -1.38493,0 -2.19625,-0.80615 -0.80615,-0.80615 -0.80615,-2.18075 0,-1.4211 0.76481,-2.25309 0.76998,-0.83716 2.07222,-0.83716 1.16789,0 1.84485,0.75448 0.68213,0.74931 0.68213,2.04122 z m -0.95085,-0.27906 q -0.0103,-0.78031 -0.43925,-1.2454 -0.42374,-0.46509 -1.12654,-0.46509 -0.79582,0 -1.27641,0.44959 -0.47542,0.44958 -0.54777,1.26607 z"
         style="text-align:center;text-anchor:middle;stroke-width:0.26458332"
         id="path961"
         inkscape:connector-curvature="0" />
      <path
         d="m 149.21385,104.40267 q -0.76481,0 -1.20923,0.59945 -0.44442,0.59428 -0.44442,1.63298 0,1.03869 0.43925,1.63814 0.44442,0.59428 1.2144,0.59428 0.75964,0 1.20406,-0.59945 0.44442,-0.59945 0.44442,-1.63297 0,-1.02837 -0.44442,-1.62781 -0.44442,-0.60462 -1.20406,-0.60462 z m 0,-0.80615 q 1.24023,0 1.9482,0.80615 0.70797,0.80616 0.70797,2.23243 0,1.4211 -0.70797,2.23242 -0.70797,0.80615 -1.9482,0.80615 -1.2454,0 -1.95337,-0.80615 -0.7028,-0.81132 -0.7028,-2.23242 0,-1.42627 0.7028,-2.23243 0.70797,-0.80615 1.95337,-0.80615 z"
         style="text-align:center;text-anchor:middle;stroke-width:0.26458332"
         id="path963"
         inkscape:connector-curvature="0" />
      <path
         d="m 153.3428,107.23971 v -3.50366 h 0.95085 v 3.46749 q 0,0.82165 0.32039,1.23506 0.3204,0.40825 0.96118,0.40825 0.76998,0 1.2144,-0.49093 0.44958,-0.49093 0.44958,-1.33842 v -3.28145 h 0.95085 v 5.78776 h -0.95085 v -0.88884 q -0.34623,0.5271 -0.80615,0.78549 -0.45475,0.25321 -1.05936,0.25321 -0.99736,0 -1.51412,-0.62012 -0.51677,-0.62011 -0.51677,-1.81384 z m 2.39262,-3.64319 z"
         style="text-align:center;text-anchor:middle;stroke-width:0.26458332"
         id="path965"
         inkscape:connector-curvature="0" />
      <path
         d="m 161.09944,102.09274 v 1.64331 h 1.95854 v 0.73897 h -1.95854 v 3.14193 q 0,0.70796 0.1912,0.9095 0.19637,0.20154 0.79065,0.20154 h 0.97669 v 0.79582 h -0.97669 q -1.10071,0 -1.51929,-0.40825 -0.41857,-0.41341 -0.41857,-1.49861 v -3.14193 h -0.69764 v -0.73897 h 0.69764 v -1.64331 z"
         style="text-align:center;text-anchor:middle;stroke-width:0.26458332"
         id="path967"
         inkscape:connector-curvature="0" />
      <path
         d="m 167.13007,103.73605 h 0.95084 l 1.18856,4.51652 1.18339,-4.51652 h 1.12138 l 1.18856,4.51652 1.18339,-4.51652 h 0.95085 l -1.51412,5.78776 h -1.12138 l -1.2454,-4.7439 -1.25057,4.7439 h -1.12138 z"
         style="text-align:center;text-anchor:middle;stroke-width:0.26458332"
         id="path969"
         inkscape:connector-curvature="0" />
      <path
         d="m 181.15506,106.03048 v 3.49333 h -0.95084 v -3.46232 q 0,-0.82166 -0.3204,-1.2299 -0.32039,-0.40825 -0.96118,-0.40825 -0.76998,0 -1.2144,0.49093 -0.44441,0.49093 -0.44441,1.33842 v 3.27112 h -0.95602 v -8.04085 h 0.95602 v 3.15226 q 0.34106,-0.52193 0.80098,-0.78032 0.46509,-0.25838 1.0697,-0.25838 0.99736,0 1.50896,0.62012 0.51159,0.61495 0.51159,1.81384 z"
         style="text-align:center;text-anchor:middle;stroke-width:0.26458332"
         id="path971"
         inkscape:connector-curvature="0" />
      <path
         d="m 185.69224,106.61442 q -1.15238,0 -1.5968,0.26355 -0.44442,0.26355 -0.44442,0.89917 0,0.50643 0.33073,0.80616 0.3359,0.29455 0.90951,0.29455 0.79065,0 1.26607,-0.5581 0.48059,-0.56328 0.48059,-1.49345 v -0.21188 z m 1.89653,-0.39274 v 3.30213 h -0.95085 v -0.8785 q -0.32556,0.5271 -0.81132,0.78031 -0.48576,0.24805 -1.18856,0.24805 -0.88883,0 -1.41593,-0.49609 -0.52193,-0.50127 -0.52193,-1.33842 0,-0.97669 0.65112,-1.47278 0.65629,-0.4961 1.95337,-0.4961 h 1.33325 v -0.093 q 0,-0.65629 -0.43408,-1.01286 -0.42891,-0.36174 -1.20923,-0.36174 -0.49609,0 -0.96635,0.11886 -0.47025,0.11886 -0.90434,0.35657 v -0.8785 q 0.52194,-0.20154 1.01286,-0.29973 0.49093,-0.10335 0.95602,-0.10335 1.25573,0 1.87585,0.65112 0.62012,0.65113 0.62012,1.97404 z"
         style="text-align:center;text-anchor:middle;stroke-width:0.26458332"
         id="path973"
         inkscape:connector-curvature="0" />
      <path
         d="m 190.49299,102.09274 v 1.64331 h 1.95854 v 0.73897 h -1.95854 v 3.14193 q 0,0.70796 0.19121,0.9095 0.19637,0.20154 0.79065,0.20154 h 0.97668 v 0.79582 h -0.97668 q -1.10071,0 -1.51929,-0.40825 -0.41858,-0.41341 -0.41858,-1.49861 v -3.14193 h -0.69763 v -0.73897 h 0.69763 v -1.64331 z"
         style="text-align:center;text-anchor:middle;stroke-width:0.26458332"
         id="path975"
         inkscape:connector-curvature="0" />
      <path
         d="m 194.30671,108.21123 h 1.04904 v 1.31258 h -1.04904 z m 0,-6.40271 h 1.04904 v 3.3848 l -0.10336,1.84485 h -0.83716 l -0.10852,-1.84485 z"
         style="text-align:center;text-anchor:middle;stroke-width:0.26458332"
         id="path977"
         inkscape:connector-curvature="0" />
    </g>
  </g>
</svg>
