<?xml version="1.0" encoding="UTF-8" standalone="no"?>
<!-- Created with Inkscape (http://www.inkscape.org/) -->

<svg
   xmlns:dc="http://purl.org/dc/elements/1.1/"
   xmlns:cc="http://creativecommons.org/ns#"
   xmlns:rdf="http://www.w3.org/1999/02/22-rdf-syntax-ns#"
   xmlns:svg="http://www.w3.org/2000/svg"
   xmlns="http://www.w3.org/2000/svg"
   xmlns:sodipodi="http://sodipodi.sourceforge.net/DTD/sodipodi-0.dtd"
   xmlns:inkscape="http://www.inkscape.org/namespaces/inkscape"
   width="57.407352mm"
   height="29.51685mm"
   viewBox="0 0 57.407352 29.51685"
   version="1.1"
   id="svg21580"
   inkscape:version="0.92.4 (5da689c313, 2019-01-14)"
   sodipodi:docname="three.svg">
  <defs
     id="defs21574" />
  <sodipodi:namedview
     id="base"
     pagecolor="#ffffff"
     bordercolor="#666666"
     borderopacity="1.0"
     inkscape:pageopacity="0.0"
     inkscape:pageshadow="2"
     inkscape:zoom="0.7"
     inkscape:cx="21.277061"
     inkscape:cy="55.273336"
     inkscape:document-units="mm"
     inkscape:current-layer="text22127"
     showgrid="false"
     fit-margin-top="0"
     fit-margin-left="0"
     fit-margin-right="0"
     fit-margin-bottom="0"
     inkscape:window-width="1920"
     inkscape:window-height="1043"
     inkscape:window-x="1600"
     inkscape:window-y="18"
     inkscape:window-maximized="0" />
  <metadata
     id="metadata21577">
    <rdf:RDF>
      <cc:Work
         rdf:about="">
        <dc:format>image/svg+xml</dc:format>
        <dc:type
           rdf:resource="http://purl.org/dc/dcmitype/StillImage" />
        <dc:title></dc:title>
      </cc:Work>
    </rdf:RDF>
  </metadata>
  <g
     inkscape:label="Layer 1"
     inkscape:groupmode="layer"
     id="layer1"
     transform="translate(-52.238598,-90.740161)">
    <g
       aria-label="μονοκερως"
       style="font-style:normal;font-weight:normal;font-size:10.58333302px;line-height:1.25;font-family:sans-serif;letter-spacing:0px;word-spacing:0px;fill:#000000;fill-opacity:1;stroke:none;stroke-width:0.26458332"
       id="text22127">
      <path
         d="m 52.238598,98.874031 v -7.989176 h 0.950846 v 3.596679 q 0,0.749309 0.356568,1.131714 0.356567,0.382406 1.054199,0.382406 0.764811,0 1.147216,-0.434082 0.387574,-0.434082 0.387574,-1.302246 v -3.374471 h 0.950846 v 4.454508 q 0,0.310059 0.08785,0.45992 0.09302,0.144694 0.28422,0.144694 0.04651,0 0.129191,-0.02584 0.08268,-0.03101 0.227377,-0.09302 v 0.764811 q -0.211874,0.118856 -0.403076,0.1757 -0.186036,0.05684 -0.366903,0.05684 -0.356567,0 -0.568441,-0.201538 -0.211873,-0.201538 -0.289388,-0.61495 -0.258382,0.408244 -0.63562,0.61495 -0.37207,0.201538 -0.878499,0.201538 -0.5271,0 -0.89917,-0.201538 -0.366903,-0.201538 -0.583944,-0.604615 v 2.857707 z"
         style="stroke-width:0.26458332"
         id="path23266"
         inkscape:connector-curvature="0" />
      <path
         d="m 61.318147,91.551481 q -0.764812,0 -1.209229,0.599446 -0.444417,0.594279 -0.444417,1.632976 0,1.038696 0.439249,1.638142 0.444418,0.594279 1.214397,0.594279 0.759643,0 1.20406,-0.599446 0.444418,-0.599447 0.444418,-1.632975 0,-1.028361 -0.444418,-1.627808 -0.444417,-0.604614 -1.20406,-0.604614 z m 0,-0.806153 q 1.240234,0 1.948201,0.806153 0.707967,0.806152 0.707967,2.232422 0,1.421101 -0.707967,2.232421 -0.707967,0.806153 -1.948201,0.806153 -1.245402,0 -1.953369,-0.806153 -0.7028,-0.81132 -0.7028,-2.232421 0,-1.42627 0.7028,-2.232422 0.707967,-0.806153 1.953369,-0.806153 z"
         style="stroke-width:0.26458332"
         id="path23268"
         inkscape:connector-curvature="0" />
      <path
         d="m 66.697664,96.672615 -1.767334,-5.78776 h 1.023193 l 1.493449,4.857584 q 0.620117,-0.640787 1.136881,-1.529622 0.392741,-0.666626 0.413412,-1.245402 0.01033,-0.273885 -0.113688,-0.790649 -0.144694,-0.61495 -0.692465,-1.291911 h 0.961182 v 0 q 0.356567,0.45992 0.594279,1.100708 0.217041,0.589111 0.217041,0.992187 0,1.012858 -0.702799,1.917196 -0.914673,1.178222 -1.550293,1.777669 z"
         style="stroke-width:0.26458332"
         id="path23270"
         inkscape:connector-curvature="0" />
      <path
         d="m 73.699819,91.551481 q -0.764811,0 -1.209228,0.599446 -0.444417,0.594279 -0.444417,1.632976 0,1.038696 0.439249,1.638142 0.444418,0.594279 1.214396,0.594279 0.759644,0 1.204061,-0.599446 0.444418,-0.599447 0.444418,-1.632975 0,-1.028361 -0.444418,-1.627808 -0.444417,-0.604614 -1.204061,-0.604614 z m 0,-0.806153 q 1.240235,0 1.948202,0.806153 0.707967,0.806152 0.707967,2.232422 0,1.421101 -0.707967,2.232421 -0.707967,0.806153 -1.948202,0.806153 -1.245402,0 -1.953369,-0.806153 -0.702799,-0.81132 -0.702799,-2.232421 0,-1.42627 0.702799,-2.232422 0.707967,-0.806153 1.953369,-0.806153 z"
         style="stroke-width:0.26458332"
         id="path23272"
         inkscape:connector-curvature="0" />
      <path
         d="m 77.916616,90.884855 h 0.981852 v 2.402954 l 2.495972,-2.402954 h 1.157552 l -2.278931,2.180745 2.635498,3.607015 h -1.16272 l -2.139404,-2.986898 -0.707967,0.666626 v 2.320272 h -0.981852 z"
         style="stroke-width:0.26458332"
         id="path23274"
         inkscape:connector-curvature="0" />
      <path
         d="m 85.213329,93.551359 q -0.578776,-0.124024 -0.888835,-0.459921 -0.310059,-0.330729 -0.310059,-0.81132 0,-0.728637 0.589112,-1.136881 0.583943,-0.403076 1.596801,-0.403076 0.392741,0 0.831991,0.06201 0.43925,0.06201 0.945679,0.186035 v 0.862996 q -0.501262,-0.149862 -0.914673,-0.217041 -0.418579,-0.06718 -0.785482,-0.06718 -0.614949,0 -0.971517,0.237711 -0.361735,0.237712 -0.361735,0.568441 0,0.361735 0.3514,0.594279 0.346232,0.227376 0.945679,0.227376 h 0.800984 v 0.785482 h -0.764811 q -0.707967,0 -1.080037,0.26355 -0.403076,0.289388 -0.403076,0.74414 0,0.465088 0.434082,0.754476 0.439249,0.289388 1.219563,0.289388 0.480591,0 0.919841,-0.09302 0.439249,-0.09819 0.806152,-0.289388 v 0.883667 q -0.465088,0.144694 -0.89917,0.217041 -0.439249,0.07235 -0.852661,0.07235 -1.229899,0 -1.896525,-0.470256 -0.666626,-0.470255 -0.666626,-1.364258 0,-0.558105 0.356568,-0.935343 0.356567,-0.377238 0.997355,-0.501261 z"
         style="stroke-width:0.26458332"
         id="path23276"
         inkscape:connector-curvature="0" />
      <path
         d="m 90.324127,91.918383 q 0.315226,-0.527099 1.09554,-0.992187 0.304891,-0.180868 1.245402,-0.180868 1.0542,0 1.71049,0.837159 0.661459,0.837158 0.661459,2.201416 0,1.364257 -0.661459,2.201416 -0.65629,0.837158 -1.71049,0.837158 -0.63562,0 -1.09554,-0.248047 -0.454752,-0.253215 -0.754476,-0.769979 v 3.06958 h -0.956014 v -5.038452 q 0,-1.193726 0.465088,-1.917196 z m 3.725871,1.86552 q 0,-1.049032 -0.434082,-1.643311 -0.428915,-0.599447 -1.18339,-0.599447 -0.754476,0 -1.188558,0.599447 -0.428915,0.594279 -0.428915,1.643311 0,1.049031 0.428915,1.648478 0.434082,0.594279 1.188558,0.594279 0.754475,0 1.18339,-0.594279 0.434082,-0.599447 0.434082,-1.648478 z"
         style="stroke-width:0.26458332"
         id="path23278"
         inkscape:connector-curvature="0" />
      <path
         d="m 98.457999,96.822477 q -2.144572,0 -2.144572,-3.06958 0,-1.214396 0.800985,-2.868042 h 1.023193 q -0.738973,1.653646 -0.738973,2.89388 0,2.237589 1.147217,2.237589 1.049031,0 1.049031,-2.780192 h 0.8785 q 0,2.780192 1.04903,2.780192 1.14722,0 1.14722,-2.237589 0,-1.240234 -0.73898,-2.89388 h 1.0232 q 0.80098,1.653646 0.80098,2.868042 0,3.06958 -2.14457,3.06958 -1.4056,0 -1.57613,-1.545126 -0.211873,1.545126 -1.576131,1.545126 z"
         style="stroke-width:0.26458332"
         id="path23280"
         inkscape:connector-curvature="0" />
      <path
         d="m 107.99747,96.822477 q -1.3901,0 -2.16008,-0.821656 -0.76998,-0.821655 -0.76998,-2.216918 0,-1.415935 0.77515,-2.227255 0.78032,-0.81132 2.13424,-0.81132 0.43925,0 0.85783,0.09302 0.41858,0.08785 0.81132,0.268717 V 91.9959 q -0.40308,-0.222209 -0.81132,-0.330729 -0.40308,-0.113688 -0.81649,-0.113688 -0.92501,0 -1.43661,0.589111 -0.51159,0.583944 -0.51159,1.643311 0,1.059366 0.51159,1.648478 0.5116,0.583943 1.41594,0.583943 0.67696,0 1.09037,0.392741 0.43408,0.408244 0.43408,1.028361 0,0.594279 -0.3824,1.007691 -0.41341,0.449585 -1.25574,0.449585 0,-0.387574 0,-0.780315 0.35657,0.02584 0.57361,-0.201538 0.16536,-0.180867 0.16536,-0.37207 0,-0.273885 -0.16536,-0.501261 -0.1602,-0.217041 -0.45992,-0.217041 z"
         style="stroke-width:0.26458332"
         id="path23282"
         inkscape:connector-curvature="0" />
    </g>
    <g
       aria-label="merewif"
       style="font-style:normal;font-weight:normal;font-size:10.58333302px;line-height:1.25;font-family:sans-serif;letter-spacing:0px;word-spacing:0px;fill:#000000;fill-opacity:1;stroke:none;stroke-width:0.26458332"
       id="text22131">
      <path
         d="m 64.467827,115.43043 q 0.356567,-0.64079 0.852661,-0.94568 0.496094,-0.30489 1.167887,-0.30489 0.904338,0 1.395264,0.63562 0.490926,0.63045 0.490926,1.79834 v 3.49333 h -0.956014 v -3.46232 q 0,-0.83199 -0.294556,-1.23507 -0.294555,-0.40308 -0.89917,-0.40308 -0.738973,0 -1.167887,0.49093 -0.428914,0.49093 -0.428914,1.33842 v 3.27112 H 63.67201 v -3.46232 q 0,-0.83716 -0.294556,-1.23507 -0.294556,-0.40308 -0.909505,-0.40308 -0.728638,0 -1.157552,0.4961 -0.428915,0.49092 -0.428915,1.33325 v 3.27112 h -0.956014 v -5.78776 h 0.956014 v 0.89917 q 0.325562,-0.53227 0.780314,-0.78548 0.454753,-0.25322 1.080038,-0.25322 0.630452,0 1.069702,0.32039 0.444417,0.3204 0.656291,0.93018 z"
         style="stroke-width:0.26458332"
         id="path23251"
         inkscape:connector-curvature="0" />
      <path
         d="m 75.226859,116.97556 v 0.46508 h -4.371826 q 0.06201,0.98186 0.589112,1.49862 0.532267,0.5116 1.477945,0.5116 0.547771,0 1.059367,-0.13436 0.516765,-0.13436 1.023194,-0.40308 v 0.89917 q -0.511597,0.21704 -1.049032,0.33073 -0.537435,0.11369 -1.090373,0.11369 -1.384928,0 -2.196248,-0.80615 -0.806152,-0.80616 -0.806152,-2.18075 0,-1.4211 0.764811,-2.25309 0.769979,-0.83716 2.072225,-0.83716 1.167887,0 1.844848,0.75448 0.682129,0.7493 0.682129,2.04122 z m -0.950846,-0.27906 q -0.01034,-0.78031 -0.43925,-1.2454 -0.423746,-0.46509 -1.126546,-0.46509 -0.795817,0 -1.276408,0.44959 -0.475423,0.44958 -0.54777,1.26607 z"
         style="stroke-width:0.26458332"
         id="path23253"
         inkscape:connector-curvature="0" />
      <path
         d="m 80.141288,115.20822 q -0.160197,-0.093 -0.3514,-0.13436 -0.186035,-0.0465 -0.413411,-0.0465 -0.806153,0 -1.240235,0.5271 -0.428914,0.52194 -0.428914,1.50379 v 3.04891 h -0.956014 v -5.78776 h 0.956014 v 0.89917 q 0.299723,-0.5271 0.780314,-0.78032 0.480591,-0.25838 1.167888,-0.25838 0.09819,0 0.217041,0.0155 0.118855,0.0103 0.263549,0.0362 z"
         style="stroke-width:0.26458332"
         id="path23255"
         inkscape:connector-curvature="0" />
      <path
         d="m 85.872205,116.97556 v 0.46508 h -4.371826 q 0.06201,0.98186 0.589111,1.49862 0.532267,0.5116 1.477946,0.5116 0.54777,0 1.059367,-0.13436 0.516764,-0.13436 1.023193,-0.40308 v 0.89917 q -0.511596,0.21704 -1.049031,0.33073 -0.537435,0.11369 -1.090373,0.11369 -1.384928,0 -2.196248,-0.80615 -0.806153,-0.80616 -0.806153,-2.18075 0,-1.4211 0.764812,-2.25309 0.769978,-0.83716 2.072224,-0.83716 1.167888,0 1.844849,0.75448 0.682129,0.7493 0.682129,2.04122 z m -0.950846,-0.27906 q -0.01034,-0.78031 -0.43925,-1.2454 -0.423747,-0.46509 -1.126546,-0.46509 -0.795817,0 -1.276408,0.44959 -0.475423,0.44958 -0.54777,1.26607 z"
         style="stroke-width:0.26458332"
         id="path23257"
         inkscape:connector-curvature="0" />
      <path
         d="m 86.879896,114.31939 h 0.950846 l 1.188558,4.51652 1.18339,-4.51652 h 1.121379 l 1.188557,4.51652 1.183391,-4.51652 h 0.950846 l -1.514119,5.78776 h -1.121379 l -1.245402,-4.7439 -1.25057,4.7439 h -1.121378 z"
         style="stroke-width:0.26458332"
         id="path23259"
         inkscape:connector-curvature="0" />
      <path
         d="m 96.093802,114.31939 h 0.950846 v 5.78776 h -0.950846 z m 0,-2.2531 h 0.950846 v 1.20407 h -0.950846 z"
         style="stroke-width:0.26458332"
         id="path23261"
         inkscape:connector-curvature="0" />
      <path
         d="m 101.95908,112.06629 v 0.79065 h -0.90951 q -0.51159,0 -0.71313,0.20671 -0.19637,0.20671 -0.19637,0.74414 v 0.5116 h 1.56579 v 0.73897 h -1.56579 v 5.04879 h -0.956016 v -5.04879 h -0.909505 v -0.73897 h 0.909505 v -0.40308 q 0,-0.96635 0.449585,-1.4056 0.449581,-0.44442 1.426271,-0.44442 z"
         style="stroke-width:0.26458332"
         id="path23263"
         inkscape:connector-curvature="0" />
    </g>
  </g>
</svg>
