<?xml version="1.0" encoding="UTF-8" standalone="no"?>
<!-- Created with Inkscape (http://www.inkscape.org/) -->

<svg
   xmlns:dc="http://purl.org/dc/elements/1.1/"
   xmlns:cc="http://creativecommons.org/ns#"
   xmlns:rdf="http://www.w3.org/1999/02/22-rdf-syntax-ns#"
   xmlns:svg="http://www.w3.org/2000/svg"
   xmlns="http://www.w3.org/2000/svg"
   xmlns:sodipodi="http://sodipodi.sourceforge.net/DTD/sodipodi-0.dtd"
   xmlns:inkscape="http://www.inkscape.org/namespaces/inkscape"
   width="115.91023mm"
   height="10.324951mm"
   viewBox="0 0 115.91023 10.324951"
   version="1.1"
   id="svg8"
   sodipodi:docname="one.svg"
   inkscape:version="0.92.4 (5da689c313, 2019-01-14)">
  <defs
     id="defs2" />
  <sodipodi:namedview
     id="base"
     pagecolor="#ffffff"
     bordercolor="#666666"
     borderopacity="1.0"
     inkscape:pageopacity="0.0"
     inkscape:pageshadow="2"
     inkscape:zoom="0.49497475"
     inkscape:cx="683.08231"
     inkscape:cy="410.84462"
     inkscape:document-units="mm"
     inkscape:current-layer="text7998"
     showgrid="false"
     fit-margin-top="0"
     fit-margin-left="0"
     fit-margin-right="0"
     fit-margin-bottom="0"
     inkscape:window-width="1920"
     inkscape:window-height="1043"
     inkscape:window-x="1600"
     inkscape:window-y="18"
     inkscape:window-maximized="0" />
  <metadata
     id="metadata5">
    <rdf:RDF>
      <cc:Work
         rdf:about="">
        <dc:format>image/svg+xml</dc:format>
        <dc:type
           rdf:resource="http://purl.org/dc/dcmitype/StillImage" />
        <dc:title></dc:title>
      </cc:Work>
    </rdf:RDF>
  </metadata>
  <g
     inkscape:label="Layer 1"
     inkscape:groupmode="layer"
     id="layer1"
     transform="translate(10.237586,-177.7733)">
    <g
       aria-label="Fruits &amp; Vegetables
"
       style="font-style:normal;font-variant:normal;font-weight:normal;font-stretch:normal;font-size:10.58333302px;line-height:1.25;font-family:'Noto Color Emoji';-inkscape-font-specification:'Noto Color Emoji';letter-spacing:0px;word-spacing:0px;fill:#000000;fill-opacity:1;stroke:none;stroke-width:0.26458332"
       id="text7998">
      <path
         d="m -10.237586,178.09886 h 5.3691814 v 1.50378 h -3.3796385 v 1.43661 h 3.1781004 v 1.50378 h -3.1781004 v 3.27112 h -1.9895429 z"
         style="font-weight:bold;stroke-width:0.26458332"
         id="path8021" />
      <path
         d="m 0.53178231,181.60252 q -0.24287922,-0.11369 -0.48575845,-0.16537 -0.23771158,-0.0568 -0.4805908,-0.0568 -0.71313476,0 -1.10070796,0.45992 -0.3824056,0.45475 -0.3824056,1.30741 v 2.66651 h -1.8500162 v -5.78776 h 1.8500162 v 0.95084 q 0.3565674,-0.56844 0.8164876,-0.82682 0.46508788,-0.26355 1.11104326,-0.26355 0.09301758,0 0.20153808,0.0103 0.10852051,0.005 0.31522623,0.031 z"
         style="font-weight:bold;stroke-width:0.26458332"
         id="path8023" />
      <path
         d="m 1.3999468,183.56106 v -3.53467 h 1.8603515 v 0.57877 q 0,0.47026 -0.00517,1.18339 -0.00517,0.70797 -0.00517,0.94568 0,0.69763 0.036173,1.00769 0.036173,0.30489 0.1240235,0.44442 0.1136881,0.18087 0.2945556,0.27905 0.1860352,0.0982 0.4237468,0.0982 0.578776,0 0.9095051,-0.44442 0.3307292,-0.44442 0.3307292,-1.23507 v -2.8577 h 1.8500162 v 5.78776 H 5.3686967 v -0.83716 q -0.4185791,0.50643 -0.8888346,0.74931 -0.4650879,0.23771 -1.028361,0.23771 -1.0025227,0 -1.5296223,-0.61495 -0.521932,-0.61495 -0.521932,-1.788 z"
         style="font-weight:bold;stroke-width:0.26458332"
         id="path8025" />
      <path
         d="m 9.0067164,180.02639 h 1.8500166 v 5.78776 H 9.0067164 Z m 0,-2.25309 h 1.8500166 v 1.50895 H 9.0067164 Z"
         style="font-weight:bold;stroke-width:0.26458332"
         id="path8027" />
      <path
         d="m 14.665286,178.38308 v 1.64331 h 1.906861 v 1.32291 h -1.906861 v 2.45463 q 0,0.40308 0.160197,0.54777 0.160197,0.13953 0.63562,0.13953 h 0.950847 v 1.32292 h -1.586467 q -1.09554,0 -1.55546,-0.45475 -0.454753,-0.45992 -0.454753,-1.55547 v -2.45463 h -0.91984 v -1.32291 h 0.91984 v -1.64331 z"
         style="font-weight:bold;stroke-width:0.26458332"
         id="path8029" />
      <path
         d="m 22.230715,180.20726 v 1.40559 q -0.594279,-0.24804 -1.147217,-0.37207 -0.552938,-0.12402 -1.043864,-0.12402 -0.5271,0 -0.785482,0.13436 -0.253214,0.12919 -0.253214,0.40308 0,0.2222 0.191203,0.34106 0.19637,0.11886 0.697631,0.1757 l 0.325562,0.0465 q 1.421102,0.18087 1.912028,0.59428 0.490926,0.41341 0.490926,1.29708 0,0.925 -0.682129,1.39009 -0.682129,0.46509 -2.036051,0.46509 -0.573609,0 -1.188558,-0.093 -0.609782,-0.0879 -1.255738,-0.26872 v -1.40559 q 0.552938,0.26871 1.131714,0.40307 0.583944,0.13436 1.183391,0.13436 0.542602,0 0.816487,-0.14986 0.273885,-0.14986 0.273885,-0.44442 0,-0.24805 -0.191203,-0.3669 -0.186035,-0.12402 -0.749308,-0.1912 l -0.325561,-0.0413 q -1.235067,-0.15502 -1.731161,-0.5736 -0.496093,-0.41858 -0.496093,-1.27124 0,-0.91984 0.630452,-1.36426 0.630452,-0.44442 1.932698,-0.44442 0.511597,0 1.07487,0.0775 0.563273,0.0775 1.224732,0.24288 z"
         style="font-weight:bold;stroke-width:0.26458332"
         id="path8031" />
      <path
         d="m 30.933028,180.69301 2.113566,2.32544 q 0.273885,-0.36173 0.413411,-0.81132 0.144694,-0.44958 0.170532,-1.01802 h 1.607137 q -0.07751,0.94051 -0.366902,1.67431 -0.284221,0.73381 -0.795817,1.28675 l 1.514119,1.66398 h -2.19108 l -0.506429,-0.56328 q -0.542603,0.36174 -1.14205,0.53744 -0.599446,0.1757 -1.27124,0.1757 -1.35909,0 -2.201416,-0.71314 -0.837158,-0.7183 -0.837158,-1.85001 0,-0.75448 0.366903,-1.33325 0.37207,-0.58395 1.209228,-1.13172 -0.217041,-0.27388 -0.320394,-0.54777 -0.103353,-0.27388 -0.103353,-0.57361 0,-0.84232 0.656291,-1.34875 0.656291,-0.50643 1.746663,-0.50643 0.470256,0 0.976685,0.0775 0.511597,0.0723 1.064535,0.2222 v 1.43661 q -0.485759,-0.24805 -0.919841,-0.3669 -0.434082,-0.11886 -0.847493,-0.11886 -0.397909,0 -0.620118,0.15503 -0.217041,0.14986 -0.217041,0.42891 0,0.1757 0.124024,0.40308 0.129191,0.22221 0.377238,0.49609 z m -1.028361,1.28158 q -0.335897,0.24288 -0.506429,0.55294 -0.170532,0.30489 -0.170532,0.67179 0,0.59428 0.439249,1.01286 0.43925,0.41858 1.054199,0.41858 0.346232,0 0.645956,-0.10336 0.299723,-0.10852 0.558105,-0.32039 z"
         style="font-weight:bold;stroke-width:0.26458332"
         id="path8033" />
      <path
         d="m 39.774863,178.09886 h 1.999878 l 2.046386,5.69474 2.041219,-5.69474 h 1.999878 l -2.857706,7.71529 H 42.63257 Z"
         style="font-weight:bold;stroke-width:0.26458332"
         id="path8035" />
      <path
         d="m 53.996216,182.90476 v 0.5271 h -4.325318 q 0.06718,0.65113 0.470256,0.97669 0.403076,0.32556 1.126546,0.32556 0.583944,0 1.193726,-0.17053 0.614949,-0.1757 1.260905,-0.5271 v 1.42627 q -0.656291,0.24805 -1.312582,0.37207 -0.65629,0.12919 -1.312581,0.12919 -1.570964,0 -2.444295,-0.79582 -0.868164,-0.80098 -0.868164,-2.24275 0,-1.41594 0.852661,-2.22726 0.857829,-0.81132 2.356445,-0.81132 1.364258,0 2.180745,0.82166 0.821656,0.82165 0.821656,2.19624 z m -1.901693,-0.61494 q 0,-0.5271 -0.310059,-0.8475 -0.304891,-0.32556 -0.800984,-0.32556 -0.537435,0 -0.873332,0.30489 -0.335897,0.29972 -0.418579,0.86817 z"
         style="font-weight:bold;stroke-width:0.26458332"
         id="path8037" />
      <path
         d="m 59.329222,184.8323 q -0.382405,0.50642 -0.842326,0.74414 -0.45992,0.23771 -1.064534,0.23771 -1.059367,0 -1.751831,-0.83199 -0.692464,-0.83716 -0.692464,-2.12907 0,-1.29708 0.692464,-2.1239 0.692464,-0.83199 1.751831,-0.83199 0.604614,0 1.064534,0.23771 0.459921,0.23771 0.842326,0.74931 v -0.85783 h 1.860352 v 5.20381 q 0,1.39527 -0.883667,2.12907 -0.8785,0.73898 -2.552816,0.73898 -0.542602,0 -1.049031,-0.0827 -0.506429,-0.0827 -1.018026,-0.25321 v -1.44177 q 0.485758,0.27905 0.950846,0.41341 0.465088,0.13952 0.935344,0.13952 0.909505,0 1.333251,-0.3979 0.423747,-0.39791 0.423747,-1.24541 z m -1.219564,-3.60185 q -0.573608,0 -0.894002,0.42375 -0.320394,0.42374 -0.320394,1.19889 0,0.79582 0.310059,1.20923 0.310058,0.40824 0.904337,0.40824 0.578776,0 0.89917,-0.42375 0.320394,-0.42374 0.320394,-1.19372 0,-0.77515 -0.320394,-1.19889 -0.320394,-0.42375 -0.89917,-0.42375 z"
         style="font-weight:bold;stroke-width:0.26458332"
         id="path8039" />
      <path
         d="m 68.755008,182.90476 v 0.5271 h -4.325317 q 0.06718,0.65113 0.470256,0.97669 0.403076,0.32556 1.126546,0.32556 0.583944,0 1.193726,-0.17053 0.614949,-0.1757 1.260904,-0.5271 v 1.42627 q -0.65629,0.24805 -1.312581,0.37207 -0.656291,0.12919 -1.312581,0.12919 -1.570964,0 -2.444295,-0.79582 -0.868164,-0.80098 -0.868164,-2.24275 0,-1.41594 0.852661,-2.22726 0.857828,-0.81132 2.356445,-0.81132 1.364258,0 2.180745,0.82166 0.821655,0.82165 0.821655,2.19624 z m -1.901692,-0.61494 q 0,-0.5271 -0.310059,-0.8475 -0.304891,-0.32556 -0.800984,-0.32556 -0.537435,0 -0.873332,0.30489 -0.335897,0.29972 -0.418579,0.86817 z"
         style="font-weight:bold;stroke-width:0.26458332"
         id="path8041" />
      <path
         d="m 72.170816,178.38308 v 1.64331 h 1.90686 v 1.32291 h -1.90686 v 2.45463 q 0,0.40308 0.160197,0.54777 0.160197,0.13953 0.63562,0.13953 h 0.950846 v 1.32292 h -1.586466 q -1.095541,0 -1.555461,-0.45475 -0.454753,-0.45992 -0.454753,-1.55547 v -2.45463 h -0.91984 v -1.32291 h 0.91984 v -1.64331 z"
         style="font-weight:bold;stroke-width:0.26458332"
         id="path8043" />
      <path
         d="m 77.808717,183.20966 q -0.578776,0 -0.873332,0.19637 -0.289388,0.19637 -0.289388,0.57877 0,0.3514 0.232544,0.55294 0.237712,0.19637 0.656291,0.19637 0.521932,0 0.878499,-0.37207 0.356568,-0.37724 0.356568,-0.94051 v -0.21187 z m 2.826701,-0.69764 v 3.30213 h -1.865519 v -0.85783 q -0.372071,0.5271 -0.837159,0.76998 -0.465087,0.23771 -1.131713,0.23771 -0.89917,0 -1.462443,-0.52193 -0.558106,-0.5271 -0.558106,-1.36426 0,-1.01803 0.697632,-1.49345 0.702799,-0.47542 2.201416,-0.47542 h 1.090373 v -0.1447 q 0,-0.43925 -0.346232,-0.64078 -0.346233,-0.20671 -1.080038,-0.20671 -0.594279,0 -1.105876,0.11886 -0.511596,0.11885 -0.950846,0.35656 v -1.41076 q 0.594279,-0.1447 1.193726,-0.21704 0.599446,-0.0775 1.198893,-0.0775 1.565796,0 2.25826,0.62012 0.697632,0.61495 0.697632,2.00504 z"
         style="font-weight:bold;stroke-width:0.26458332"
         id="path8045" />
      <path
         d="m 85.446491,184.62042 q 0.594279,0 0.904338,-0.43408 0.315226,-0.43408 0.315226,-1.2609 0,-0.82683 -0.315226,-1.26091 -0.310059,-0.43408 -0.904338,-0.43408 -0.594279,0 -0.914673,0.43925 -0.315226,0.43408 -0.315226,1.25574 0,0.82165 0.315226,1.2609 0.320394,0.43408 0.914673,0.43408 z m -1.229899,-3.74654 q 0.382406,-0.50643 0.847494,-0.74414 0.465087,-0.24288 1.069702,-0.24288 1.069702,0 1.756998,0.85266 0.687297,0.8475 0.687297,2.18592 0,1.33842 -0.687297,2.19108 -0.687296,0.84749 -1.756998,0.84749 -0.604615,0 -1.069702,-0.23771 -0.465088,-0.24288 -0.847494,-0.74931 v 0.83716 h -1.850016 v -8.04085 h 1.850016 z"
         style="font-weight:bold;stroke-width:0.26458332"
         id="path8047" />
      <path
         d="m 89.952681,177.7733 h 1.850016 v 8.04085 h -1.850016 z"
         style="font-weight:bold;stroke-width:0.26458332"
         id="path8049" />
      <path
         d="m 99.368122,182.90476 v 0.5271 h -4.325317 q 0.06718,0.65113 0.470255,0.97669 0.403076,0.32556 1.126546,0.32556 0.583944,0 1.193726,-0.17053 0.614949,-0.1757 1.260905,-0.5271 v 1.42627 q -0.656291,0.24805 -1.312582,0.37207 -0.65629,0.12919 -1.312581,0.12919 -1.570963,0 -2.444295,-0.79582 -0.868164,-0.80098 -0.868164,-2.24275 0,-1.41594 0.852661,-2.22726 0.857829,-0.81132 2.356445,-0.81132 1.364258,0 2.180746,0.82166 0.821655,0.82165 0.821655,2.19624 z m -1.901693,-0.61494 q 0,-0.5271 -0.310058,-0.8475 -0.304891,-0.32556 -0.800985,-0.32556 -0.537435,0 -0.873332,0.30489 -0.335896,0.29972 -0.418579,0.86817 z"
         style="font-weight:bold;stroke-width:0.26458332"
         id="path8051" />
      <path
         d="m 105.28508,180.20726 v 1.40559 q -0.59428,-0.24804 -1.14722,-0.37207 -0.55294,-0.12402 -1.04386,-0.12402 -0.5271,0 -0.78549,0.13436 -0.25321,0.12919 -0.25321,0.40308 0,0.2222 0.1912,0.34106 0.19637,0.11886 0.69763,0.1757 l 0.32557,0.0465 q 1.4211,0.18087 1.91202,0.59428 0.49093,0.41341 0.49093,1.29708 0,0.925 -0.68213,1.39009 -0.68213,0.46509 -2.03605,0.46509 -0.57361,0 -1.18856,-0.093 -0.60978,-0.0879 -1.25574,-0.26872 v -1.40559 q 0.55294,0.26871 1.13172,0.40307 0.58394,0.13436 1.18339,0.13436 0.5426,0 0.81649,-0.14986 0.27388,-0.14986 0.27388,-0.44442 0,-0.24805 -0.1912,-0.3669 -0.18604,-0.12402 -0.74931,-0.1912 l -0.32556,-0.0413 q -1.23507,-0.15502 -1.73116,-0.5736 -0.4961,-0.41858 -0.4961,-1.27124 0,-0.91984 0.63046,-1.36426 0.63045,-0.44442 1.93269,-0.44442 0.5116,0 1.07487,0.0775 0.56328,0.0775 1.22474,0.24288 z"
         style="font-weight:bold;stroke-width:0.26458332"
         id="path8053" />
    </g>
  </g>
</svg>
