<?xml version="1.0" encoding="UTF-8" standalone="no"?>
<!-- Created with Inkscape (http://www.inkscape.org/) -->

<svg
   xmlns:dc="http://purl.org/dc/elements/1.1/"
   xmlns:cc="http://creativecommons.org/ns#"
   xmlns:rdf="http://www.w3.org/1999/02/22-rdf-syntax-ns#"
   xmlns:svg="http://www.w3.org/2000/svg"
   xmlns="http://www.w3.org/2000/svg"
   xmlns:sodipodi="http://sodipodi.sourceforge.net/DTD/sodipodi-0.dtd"
   xmlns:inkscape="http://www.inkscape.org/namespaces/inkscape"
   width="56.091667mm"
   height="56.091667mm"
   viewBox="0 0 56.091667 56.091667"
   version="1.1"
   id="svg40927"
   inkscape:version="0.92.4 (5da689c313, 2019-01-14)"
   sodipodi:docname="clock.svg">
  <defs
     id="defs40921" />
  <sodipodi:namedview
     id="base"
     pagecolor="#ffffff"
     bordercolor="#666666"
     borderopacity="1.0"
     inkscape:pageopacity="0.0"
     inkscape:pageshadow="2"
     inkscape:zoom="2.8"
     inkscape:cx="10.075087"
     inkscape:cy="113.07693"
     inkscape:document-units="mm"
     inkscape:current-layer="Layer_1"
     showgrid="false"
     fit-margin-top="0"
     fit-margin-left="0"
     fit-margin-right="0"
     fit-margin-bottom="0"
     inkscape:window-width="1920"
     inkscape:window-height="1043"
     inkscape:window-x="1600"
     inkscape:window-y="18"
     inkscape:window-maximized="0" />
  <metadata
     id="metadata40924">
    <rdf:RDF>
      <cc:Work
         rdf:about="">
        <dc:format>image/svg+xml</dc:format>
        <dc:type
           rdf:resource="http://purl.org/dc/dcmitype/StillImage" />
        <dc:title />
      </cc:Work>
    </rdf:RDF>
  </metadata>
  <g
     inkscape:label="Layer 1"
     inkscape:groupmode="layer"
     id="layer1"
     transform="translate(-85.347025,-101.88869)">
    <g
       id="g41561"
       transform="matrix(0.26458333,0,0,0.26458333,82.833483,101.51827)">
      <g
         id="Layer_1">
        <radialGradient
           gradientUnits="userSpaceOnUse"
           r="105.5036"
           cy="107.4124"
           cx="115.4672"
           id="SVGID_1_">
          <stop
             id="stop41207"
             style="stop-color:#42210B"
             offset="0.8865" />
          <stop
             id="stop41209"
             style="stop-color:#754C24"
             offset="1" />
        </radialGradient>
        <circle
           style="fill:#ffffff;fill-opacity:1;stroke:none;stroke-width:1.33333337;stroke-linecap:round;stroke-miterlimit:4;stroke-dasharray:none;stroke-opacity:1"
           id="path42498"
           cx="115.5"
           cy="107.40002"
           r="98.571426" />
        <path
           id="path41212"
           d="M 221,107.4 C 221,165.7 173.8,212.9 115.5,212.9 57.2,212.9 10,165.7 10,107.4 10,49.1 57.2,1.9 115.5,1.9 173.8,1.9 221,49.1 221,107.4 Z m -12,0 c 0,-51.6 -41.9,-93.5 -93.5,-93.5 -51.6,0 -93.5,42 -93.5,93.5 0,51.5 41.9,93.5 93.5,93.5 51.5,0 93.5,-41.9 93.5,-93.5 z"
           class="st0"
           inkscape:connector-curvature="0"
           style="fill:url(#SVGID_1_);stroke:#000000;stroke-miterlimit:10" />
        <radialGradient
           gradientUnits="userSpaceOnUse"
           r="102.5037"
           cy="107.4124"
           cx="115.467"
           id="SVGID_2_">
          <stop
             id="stop41214"
             style="stop-color:#42210B"
             offset="0.9413" />
          <stop
             id="stop41216"
             style="stop-color:#754C24"
             offset="0.9708" />
          <stop
             id="stop41218"
             style="stop-color:#42210B"
             offset="1" />
        </radialGradient>
        <path
           id="path41221"
           d="M 115.5,209.9 C 59,209.9 13,163.9 13,107.4 13,50.9 58.9,4.9 115.5,4.9 c 56.6,0 102.5,46 102.5,102.5 0,56.5 -46,102.5 -102.5,102.5 z M 212,107.4 C 212,54.2 168.7,10.9 115.5,10.9 62.3,10.9 19,54.2 19,107.4 c 0,53.2 43.3,96.5 96.5,96.5 53.2,0 96.5,-43.3 96.5,-96.5 z"
           class="st1"
           inkscape:connector-curvature="0"
           style="fill:url(#SVGID_2_);stroke:#000000;stroke-width:0.25;stroke-miterlimit:10" />
        <g
           id="_x35__min">
          <line
             id="line41223"
             y2="18.9"
             x2="115.5"
             y1="13.9"
             x1="115.5"
             class="st2"
             style="fill:none;stroke:#000000;stroke-linecap:round;stroke-miterlimit:10" />
          <line
             id="line41225"
             y2="30.799999"
             x2="71.199997"
             y1="26.4"
             x1="68.699997"
             class="st2"
             style="fill:none;stroke:#000000;stroke-linecap:round;stroke-miterlimit:10" />
          <line
             id="line41227"
             y2="63.200001"
             x2="38.799999"
             y1="60.700001"
             x1="34.5"
             class="st2"
             style="fill:none;stroke:#000000;stroke-linecap:round;stroke-miterlimit:10" />
          <line
             id="line41229"
             y2="107.4"
             x2="27"
             y1="107.4"
             x1="22"
             class="st2"
             style="fill:none;stroke:#000000;stroke-linecap:round;stroke-miterlimit:10" />
          <line
             id="line41231"
             y2="151.7"
             x2="38.799999"
             y1="154.2"
             x1="34.5"
             class="st2"
             style="fill:none;stroke:#000000;stroke-linecap:round;stroke-miterlimit:10" />
          <line
             id="line41233"
             y2="184.10001"
             x2="71.199997"
             y1="188.39999"
             x1="68.699997"
             class="st2"
             style="fill:none;stroke:#000000;stroke-linecap:round;stroke-miterlimit:10" />
          <line
             id="line41235"
             y2="195.89999"
             x2="115.5"
             y1="200.89999"
             x1="115.5"
             class="st2"
             style="fill:none;stroke:#000000;stroke-linecap:round;stroke-miterlimit:10" />
          <line
             id="line41237"
             y2="184.10001"
             x2="159.7"
             y1="188.39999"
             x1="162.2"
             class="st2"
             style="fill:none;stroke:#000000;stroke-linecap:round;stroke-miterlimit:10" />
          <line
             id="line41239"
             y2="151.7"
             x2="192.10001"
             y1="154.2"
             x1="196.39999"
             class="st2"
             style="fill:none;stroke:#000000;stroke-linecap:round;stroke-miterlimit:10" />
          <line
             id="line41241"
             y2="107.4"
             x2="204"
             y1="107.4"
             x1="209"
             class="st2"
             style="fill:none;stroke:#000000;stroke-linecap:round;stroke-miterlimit:10" />
          <line
             id="line41243"
             y2="63.200001"
             x2="192.10001"
             y1="60.700001"
             x1="196.39999"
             class="st2"
             style="fill:none;stroke:#000000;stroke-linecap:round;stroke-miterlimit:10" />
          <line
             id="line41245"
             y2="30.799999"
             x2="159.7"
             y1="26.4"
             x1="162.2"
             class="st2"
             style="fill:none;stroke:#000000;stroke-linecap:round;stroke-miterlimit:10" />
        </g>
        <g
           id="_x31__min">
          <line
             id="line41248"
             y2="16.9"
             x2="106"
             y1="14.4"
             x1="105.7"
             class="st2"
             style="fill:none;stroke:#000000;stroke-linecap:round;stroke-miterlimit:10" />
          <line
             id="line41250"
             y2="18.4"
             x2="96.5"
             y1="16"
             x1="96"
             class="st2"
             style="fill:none;stroke:#000000;stroke-linecap:round;stroke-miterlimit:10" />
          <line
             id="line41252"
             y2="20.9"
             x2="87.300003"
             y1="18.5"
             x1="86.599998"
             class="st2"
             style="fill:none;stroke:#000000;stroke-linecap:round;stroke-miterlimit:10" />
          <line
             id="line41254"
             y2="24.299999"
             x2="78.5"
             y1="22"
             x1="77.400002"
             class="st2"
             style="fill:none;stroke:#000000;stroke-linecap:round;stroke-miterlimit:10" />
          <line
             id="line41256"
             y2="33.799999"
             x2="62"
             y1="31.799999"
             x1="60.5"
             class="st2"
             style="fill:none;stroke:#000000;stroke-linecap:round;stroke-miterlimit:10" />
          <line
             id="line41258"
             y2="39.799999"
             x2="54.599998"
             y1="37.900002"
             x1="52.900002"
             class="st2"
             style="fill:none;stroke:#000000;stroke-linecap:round;stroke-miterlimit:10" />
          <line
             id="line41260"
             y2="46.5"
             x2="47.799999"
             y1="44.799999"
             x1="46"
             class="st2"
             style="fill:none;stroke:#000000;stroke-linecap:round;stroke-miterlimit:10" />
          <line
             id="line41262"
             y2="53.900002"
             x2="41.799999"
             y1="52.5"
             x1="39.799999"
             class="st2"
             style="fill:none;stroke:#000000;stroke-linecap:round;stroke-miterlimit:10" />
          <line
             id="line41264"
             y2="70.400002"
             x2="32.299999"
             y1="69.400002"
             x1="30"
             class="st2"
             style="fill:none;stroke:#000000;stroke-linecap:round;stroke-miterlimit:10" />
          <line
             id="line41266"
             y2="79.300003"
             x2="28.9"
             y1="78.5"
             x1="26.5"
             class="st2"
             style="fill:none;stroke:#000000;stroke-linecap:round;stroke-miterlimit:10" />
          <line
             id="line41268"
             y2="88.5"
             x2="26.5"
             y1="88"
             x1="24"
             class="st2"
             style="fill:none;stroke:#000000;stroke-linecap:round;stroke-miterlimit:10" />
          <line
             id="line41270"
             y2="97.900002"
             x2="25"
             y1="97.599998"
             x1="22.5"
             class="st2"
             style="fill:none;stroke:#000000;stroke-linecap:round;stroke-miterlimit:10" />
          <line
             id="line41272"
             y2="116.9"
             x2="25"
             y1="117.2"
             x1="22.5"
             class="st2"
             style="fill:none;stroke:#000000;stroke-linecap:round;stroke-miterlimit:10" />
          <line
             id="line41274"
             y2="126.3"
             x2="26.5"
             y1="126.9"
             x1="24"
             class="st2"
             style="fill:none;stroke:#000000;stroke-linecap:round;stroke-miterlimit:10" />
          <line
             id="line41276"
             y2="135.5"
             x2="28.9"
             y1="136.3"
             x1="26.5"
             class="st2"
             style="fill:none;stroke:#000000;stroke-linecap:round;stroke-miterlimit:10" />
          <line
             id="line41278"
             y2="144.39999"
             x2="32.299999"
             y1="145.39999"
             x1="30"
             class="st2"
             style="fill:none;stroke:#000000;stroke-linecap:round;stroke-miterlimit:10" />
          <line
             id="line41280"
             y2="160.89999"
             x2="41.799999"
             y1="162.39999"
             x1="39.799999"
             class="st2"
             style="fill:none;stroke:#000000;stroke-linecap:round;stroke-miterlimit:10" />
          <line
             id="line41282"
             y2="168.3"
             x2="47.799999"
             y1="170"
             x1="46"
             class="st2"
             style="fill:none;stroke:#000000;stroke-linecap:round;stroke-miterlimit:10" />
          <line
             id="line41284"
             y2="175"
             x2="54.599998"
             y1="176.89999"
             x1="52.900002"
             class="st2"
             style="fill:none;stroke:#000000;stroke-linecap:round;stroke-miterlimit:10" />
          <line
             id="line41286"
             y2="181"
             x2="62"
             y1="183.10001"
             x1="60.5"
             class="st2"
             style="fill:none;stroke:#000000;stroke-linecap:round;stroke-miterlimit:10" />
          <line
             id="line41288"
             y2="190.5"
             x2="78.5"
             y1="192.8"
             x1="77.400002"
             class="st2"
             style="fill:none;stroke:#000000;stroke-linecap:round;stroke-miterlimit:10" />
          <line
             id="line41290"
             y2="194"
             x2="87.300003"
             y1="196.3"
             x1="86.599998"
             class="st2"
             style="fill:none;stroke:#000000;stroke-linecap:round;stroke-miterlimit:10" />
          <line
             id="line41292"
             y2="196.39999"
             x2="96.5"
             y1="198.89999"
             x1="96"
             class="st2"
             style="fill:none;stroke:#000000;stroke-linecap:round;stroke-miterlimit:10" />
          <line
             id="line41294"
             y2="197.89999"
             x2="106"
             y1="200.39999"
             x1="105.7"
             class="st2"
             style="fill:none;stroke:#000000;stroke-linecap:round;stroke-miterlimit:10" />
          <line
             id="line41296"
             y2="197.89999"
             x2="125"
             y1="200.39999"
             x1="125.2"
             class="st2"
             style="fill:none;stroke:#000000;stroke-linecap:round;stroke-miterlimit:10" />
          <line
             id="line41298"
             y2="196.39999"
             x2="134.39999"
             y1="198.89999"
             x1="134.89999"
             class="st2"
             style="fill:none;stroke:#000000;stroke-linecap:round;stroke-miterlimit:10" />
          <line
             id="line41300"
             y2="194"
             x2="143.60001"
             y1="196.3"
             x1="144.39999"
             class="st2"
             style="fill:none;stroke:#000000;stroke-linecap:round;stroke-miterlimit:10" />
          <line
             id="line41302"
             y2="190.5"
             x2="152.5"
             y1="192.8"
             x1="153.5"
             class="st2"
             style="fill:none;stroke:#000000;stroke-linecap:round;stroke-miterlimit:10" />
          <line
             id="line41304"
             y2="181"
             x2="169"
             y1="183.10001"
             x1="170.39999"
             class="st2"
             style="fill:none;stroke:#000000;stroke-linecap:round;stroke-miterlimit:10" />
          <line
             id="line41306"
             y2="175"
             x2="176.39999"
             y1="176.89999"
             x1="178"
             class="st2"
             style="fill:none;stroke:#000000;stroke-linecap:round;stroke-miterlimit:10" />
          <line
             id="line41308"
             y2="168.3"
             x2="183.10001"
             y1="170"
             x1="185"
             class="st2"
             style="fill:none;stroke:#000000;stroke-linecap:round;stroke-miterlimit:10" />
          <line
             id="line41310"
             y2="160.89999"
             x2="189.10001"
             y1="162.39999"
             x1="191.10001"
             class="st2"
             style="fill:none;stroke:#000000;stroke-linecap:round;stroke-miterlimit:10" />
          <line
             id="line41312"
             y2="144.39999"
             x2="198.60001"
             y1="145.39999"
             x1="200.89999"
             class="st2"
             style="fill:none;stroke:#000000;stroke-linecap:round;stroke-miterlimit:10" />
          <line
             id="line41314"
             y2="135.5"
             x2="202"
             y1="136.3"
             x1="204.39999"
             class="st2"
             style="fill:none;stroke:#000000;stroke-linecap:round;stroke-miterlimit:10" />
          <line
             id="line41316"
             y2="126.3"
             x2="204.5"
             y1="126.9"
             x1="206.89999"
             class="st2"
             style="fill:none;stroke:#000000;stroke-linecap:round;stroke-miterlimit:10" />
          <line
             id="line41318"
             y2="116.9"
             x2="206"
             y1="117.2"
             x1="208.5"
             class="st2"
             style="fill:none;stroke:#000000;stroke-linecap:round;stroke-miterlimit:10" />
          <line
             id="line41320"
             y2="97.900002"
             x2="206"
             y1="97.599998"
             x1="208.5"
             class="st2"
             style="fill:none;stroke:#000000;stroke-linecap:round;stroke-miterlimit:10" />
          <line
             id="line41322"
             y2="88.5"
             x2="204.5"
             y1="88"
             x1="206.89999"
             class="st2"
             style="fill:none;stroke:#000000;stroke-linecap:round;stroke-miterlimit:10" />
          <line
             id="line41324"
             y2="79.300003"
             x2="202"
             y1="78.5"
             x1="204.39999"
             class="st2"
             style="fill:none;stroke:#000000;stroke-linecap:round;stroke-miterlimit:10" />
          <line
             id="line41326"
             y2="70.400002"
             x2="198.60001"
             y1="69.400002"
             x1="200.89999"
             class="st2"
             style="fill:none;stroke:#000000;stroke-linecap:round;stroke-miterlimit:10" />
          <line
             id="line41328"
             y2="53.900002"
             x2="189.10001"
             y1="52.5"
             x1="191.10001"
             class="st2"
             style="fill:none;stroke:#000000;stroke-linecap:round;stroke-miterlimit:10" />
          <line
             id="line41330"
             y2="46.5"
             x2="183.10001"
             y1="44.799999"
             x1="185"
             class="st2"
             style="fill:none;stroke:#000000;stroke-linecap:round;stroke-miterlimit:10" />
          <line
             id="line41332"
             y2="39.799999"
             x2="176.39999"
             y1="37.900002"
             x1="178"
             class="st2"
             style="fill:none;stroke:#000000;stroke-linecap:round;stroke-miterlimit:10" />
          <line
             id="line41334"
             y2="33.799999"
             x2="169"
             y1="31.799999"
             x1="170.39999"
             class="st2"
             style="fill:none;stroke:#000000;stroke-linecap:round;stroke-miterlimit:10" />
          <line
             id="line41336"
             y2="24.299999"
             x2="152.5"
             y1="22"
             x1="153.5"
             class="st2"
             style="fill:none;stroke:#000000;stroke-linecap:round;stroke-miterlimit:10" />
          <line
             id="line41338"
             y2="20.9"
             x2="143.60001"
             y1="18.5"
             x1="144.39999"
             class="st2"
             style="fill:none;stroke:#000000;stroke-linecap:round;stroke-miterlimit:10" />
          <line
             id="line41340"
             y2="18.4"
             x2="134.39999"
             y1="16"
             x1="134.89999"
             class="st2"
             style="fill:none;stroke:#000000;stroke-linecap:round;stroke-miterlimit:10" />
          <line
             id="line41342"
             y2="16.9"
             x2="125"
             y1="14.4"
             x1="125.2"
             class="st2"
             style="fill:none;stroke:#000000;stroke-linecap:round;stroke-miterlimit:10" />
        </g>
        <g
           id="g41351">
          <path
             id="path41345"
             d="m 107.5,35.6 c 0,0.1 0,0.1 -0.1,0.1 -0.2,0 -0.8,0 -2.1,0 -0.9,0 -1.6,0 -1.7,0 -0.1,0 -0.1,-0.1 -0.1,-0.1 v -0.4 c 0,-0.1 0,-0.1 0.1,-0.1 h 0.6 c 0.3,0 0.6,-0.2 0.9,-0.5 1,-0.9 2.8,-3.7 3.6,-4.7 -0.6,-0.8 -3,-4.4 -3.3,-4.8 -0.1,-0.1 -0.4,-0.2 -0.7,-0.2 H 104 c -0.1,0 -0.1,-0.1 -0.1,-0.1 v -0.4 c 0,-0.1 0,-0.1 0.1,-0.1 0.2,0 0.9,0 2.3,0 1.6,0 2.3,0 2.4,0 0.1,0 0.1,0.1 0.1,0.1 v 0.4 c 0,0.1 0,0.1 -0.1,0.1 h -0.6 c -0.7,0 -0.7,0.4 -0.5,0.8 0.1,0.2 1.6,2.7 2,3.2 0.4,-0.6 2.3,-3 2.4,-3.3 0.2,-0.3 0.1,-0.7 -0.3,-0.7 h -0.3 c -0.1,0 -0.1,-0.1 -0.1,-0.1 v -0.4 c 0,-0.1 0,-0.1 0.1,-0.1 0.2,0 0.8,0 1.7,0 0.9,0 1.5,0 1.6,0 0.1,0 0.1,0.1 0.1,0.1 v 0.4 c 0,0.1 0,0.1 -0.1,0.1 H 114 c -0.4,0 -0.5,0.1 -0.7,0.2 -0.3,0.2 -2.8,3.5 -3.5,4.3 0.2,0.3 3.3,5.1 3.5,5.3 0.4,0.3 0.8,0.4 1.1,0.4 h 0.5 c 0.1,0 0.1,0 0.1,0.1 v 0.4 c 0,0.1 0,0.1 -0.1,0.1 -0.1,0 -0.7,0 -2,0 -1.3,0 -2.1,0 -2.3,0 -0.1,0 -0.1,0 -0.1,-0.1 v -0.4 c 0,-0.1 0,-0.1 0.1,-0.1 h 0.6 c 0.3,0 0.5,-0.1 0.4,-0.3 -0.1,-0.2 -2.3,-3.8 -2.6,-4.3 -0.6,0.9 -2.5,3.6 -2.6,3.9 -0.2,0.4 -0.1,0.7 0.3,0.7 h 0.6 c 0.1,0 0.1,0 0.1,0.1 v 0.4 z"
             inkscape:connector-curvature="0" />
          <path
             id="path41347"
             d="m 117.3,29 c 0,-0.4 0,-3.3 -0.1,-3.5 0,-0.4 -0.2,-0.5 -0.8,-0.5 h -0.9 c -0.1,0 -0.1,0 -0.1,-0.1 v -0.4 c 0,-0.1 0,-0.1 0.1,-0.1 0.2,0 1,0 2.5,0 1.4,0 1.9,0 2.2,0 0.1,0 0.1,0 0.1,0.1 v 0.4 c 0,0.1 0,0.1 -0.1,0.1 h -0.8 c -0.3,0 -0.6,0.1 -0.6,0.4 0,0.2 0,3.7 0,3.9 v 1.2 c 0,0.2 0,3.9 0,4 0,0.5 0.2,0.6 0.8,0.6 h 0.7 c 0.1,0 0.1,0 0.1,0.1 v 0.4 c 0,0.1 0,0.1 -0.1,0.1 -0.2,0 -0.8,0 -2.2,0 -1.5,0 -2.2,0 -2.4,0 -0.1,0 -0.1,0 -0.1,-0.1 v -0.4 c 0,-0.1 0,-0.1 0.1,-0.1 h 0.9 c 0.3,0 0.7,0 0.7,-0.5 0,-0.2 0.1,-3.7 0.1,-4.5 V 29 Z"
             inkscape:connector-curvature="0" />
          <path
             id="path41349"
             d="m 123.4,29 c 0,-0.4 0,-3.3 -0.1,-3.5 0,-0.4 -0.2,-0.5 -0.8,-0.5 h -0.9 c -0.1,0 -0.1,0 -0.1,-0.1 v -0.4 c 0,-0.1 0,-0.1 0.1,-0.1 0.2,0 1,0 2.5,0 1.4,0 1.9,0 2.2,0 0.1,0 0.1,0 0.1,0.1 v 0.4 c 0,0.1 0,0.1 -0.1,0.1 h -0.8 c -0.3,0 -0.6,0.1 -0.6,0.4 0,0.2 0,3.7 0,3.9 v 1.2 c 0,0.2 0,3.9 0,4 0,0.5 0.2,0.6 0.8,0.6 h 0.7 c 0.1,0 0.1,0 0.1,0.1 v 0.4 c 0,0.1 0,0.1 -0.1,0.1 -0.2,0 -0.8,0 -2.2,0 -1.5,0 -2.2,0 -2.4,0 -0.1,0 -0.1,0 -0.1,-0.1 v -0.4 c 0,-0.1 0,-0.1 0.1,-0.1 h 0.9 c 0.3,0 0.7,0 0.7,-0.5 0,-0.2 0.1,-3.7 0.1,-4.5 V 29 Z"
             inkscape:connector-curvature="0" />
        </g>
        <g
           id="g41359">
          <path
             id="path41353"
             d="m 72.7,49.2 c 0,0.1 0.1,0.1 0,0.2 -0.1,0.1 -0.7,0.4 -1.8,1 -0.8,0.5 -1.3,0.8 -1.5,0.9 -0.1,0 -0.1,0 -0.2,-0.1 L 69,50.9 c 0,-0.1 0,-0.1 0,-0.1 l 0.5,-0.3 c 0.2,-0.1 0.4,-0.5 0.6,-0.9 0.4,-1.2 0.6,-4.6 0.8,-5.9 -0.9,-0.4 -4.8,-2.4 -5.3,-2.5 -0.2,-0.1 -0.5,0 -0.7,0.2 l -0.6,0.4 c -0.1,0 -0.1,0 -0.1,-0.1 L 64,41.3 c 0,-0.1 0,-0.1 0,-0.2 0.1,-0.1 0.8,-0.4 2,-1.1 1.4,-0.8 1.9,-1.2 2.1,-1.3 0.1,-0.1 0.1,0 0.2,0 l 0.2,0.3 c 0,0.1 0.1,0.1 -0.1,0.2 l -0.5,0.3 c -0.6,0.4 -0.4,0.7 0,0.9 0.2,0.1 2.8,1.5 3.4,1.8 0.1,-0.7 0.4,-3.8 0.4,-4.1 0,-0.4 -0.2,-0.6 -0.6,-0.4 L 70.7,38 c -0.1,0 -0.1,0 -0.2,-0.1 l -0.2,-0.3 c 0,-0.1 0,-0.1 0,-0.2 0.2,-0.1 0.7,-0.4 1.5,-0.8 0.8,-0.4 1.2,-0.8 1.4,-0.8 0.1,-0.1 0.1,0 0.2,0 l 0.2,0.3 c 0.1,0.1 0.1,0.1 0,0.2 L 73,36.6 c -0.3,0.2 -0.4,0.4 -0.5,0.5 -0.2,0.3 -0.7,4.4 -0.8,5.4 0.3,0.2 5.4,2.8 5.6,2.8 0.5,0.1 0.9,0 1.1,-0.2 L 79,45 c 0.1,-0.1 0.1,0 0.2,0 l 0.2,0.3 c 0,0.1 0.1,0.1 0,0.2 -0.1,0.1 -0.6,0.3 -1.8,1 -1.1,0.6 -1.8,1.1 -1.9,1.2 -0.1,0.1 -0.1,0 -0.2,0 l -0.2,-0.3 c 0,-0.1 0,-0.1 0,-0.1 L 75.8,47 c 0.3,-0.2 0.4,-0.3 0.2,-0.5 -0.2,-0.2 -3.9,-2.2 -4.4,-2.4 -0.1,1.1 -0.4,4.4 -0.3,4.7 0.1,0.5 0.3,0.7 0.6,0.5 L 72.4,49 c 0.1,-0.1 0.1,0 0.2,0 z"
             inkscape:connector-curvature="0" />
          <path
             id="path41355"
             d="M 77.8,38.6 C 77.6,38.3 76.1,35.8 76,35.6 75.8,35.3 75.6,35.2 75,35.5 L 74.2,36 c -0.1,0 -0.1,0 -0.2,0 l -0.2,-0.4 c 0,-0.1 0,-0.1 0,-0.1 0.2,-0.1 0.9,-0.5 2.2,-1.2 1.2,-0.7 1.7,-1 1.8,-1.1 0.1,0 0.1,0 0.2,0 l 0.2,0.3 c 0,0.1 0,0.1 -0.1,0.2 L 77.6,34 c -0.3,0.2 -0.4,0.4 -0.3,0.7 0.1,0.1 1.8,3.2 1.9,3.4 l 0.6,1.1 c 0.1,0.1 2,3.3 2.1,3.5 0.2,0.4 0.5,0.4 0.9,0.1 l 0.6,-0.3 c 0.1,0 0.1,0 0.2,0 l 0.2,0.4 c 0,0.1 0,0.1 -0.1,0.2 -0.2,0.1 -0.7,0.4 -2,1.1 -1.3,0.8 -1.9,1.1 -2,1.2 -0.1,0 -0.1,0 -0.2,0 L 79.3,45 c 0,-0.1 0,-0.1 0.1,-0.1 l 0.8,-0.4 c 0.3,-0.2 0.5,-0.4 0.4,-0.8 -0.1,-0.2 -1.8,-3.2 -2.2,-4 z"
             inkscape:connector-curvature="0" />
          <path
             id="path41357"
             d="m 83.1,35.5 c -0.2,-0.3 -1.7,-2.8 -1.8,-3 -0.2,-0.3 -0.4,-0.4 -1,-0.1 l -0.8,0.5 c -0.1,0 -0.1,0 -0.2,0 l -0.2,-0.4 c 0,-0.1 0,-0.1 0,-0.1 0.2,-0.1 0.9,-0.5 2.2,-1.2 1.2,-0.7 1.7,-1 1.8,-1.1 0.1,0 0.1,0 0.2,0 l 0.2,0.3 c 0,0.1 0,0.1 -0.1,0.2 L 82.9,31 c -0.3,0.2 -0.4,0.4 -0.3,0.7 0.1,0.1 1.8,3.2 1.9,3.4 l 0.6,1.1 c 0.1,0.1 2,3.3 2.1,3.5 0.2,0.4 0.5,0.4 0.9,0.1 l 0.6,-0.3 c 0.1,0 0.1,0 0.2,0 l 0.2,0.4 c 0,0.1 0,0.1 -0.1,0.2 -0.2,0.1 -0.7,0.4 -2,1.1 -1.3,0.8 -1.9,1.1 -2,1.2 -0.1,0 -0.1,0 -0.2,0 L 84.6,42 c 0,-0.1 0,-0.1 0.1,-0.1 l 0.8,-0.4 c 0.3,-0.2 0.5,-0.4 0.4,-0.8 -0.1,-0.2 -1.8,-3.2 -2.2,-4 z"
             inkscape:connector-curvature="0" />
        </g>
        <g
           id="g41367">
          <path
             id="path41361"
             d="m 49.3,78.4 c 0.1,0 0.1,0.1 0.1,0.2 -0.1,0.1 -0.4,0.7 -1.1,1.8 -0.5,0.8 -0.8,1.4 -0.8,1.5 0,0.1 -0.1,0.1 -0.2,0 L 47,81.7 c -0.1,0 -0.1,-0.1 0,-0.1 l 0.3,-0.5 c 0.1,-0.2 0.1,-0.6 0.1,-1 -0.3,-1.3 -1.8,-4.3 -2.2,-5.5 -1,0.1 -5.3,0.4 -5.8,0.5 -0.2,0.1 -0.4,0.2 -0.6,0.5 l -0.4,0.6 c 0,0.1 -0.1,0 -0.2,0 L 37.9,76 c -0.1,0 -0.1,-0.1 -0.1,-0.1 0.1,-0.1 0.5,-0.8 1.2,-1.9 0.8,-1.4 1.1,-2 1.2,-2.1 0.1,-0.1 0.1,-0.1 0.2,-0.1 l 0.3,0.2 c 0.1,0 0.1,0.1 0.1,0.2 l -0.3,0.5 c -0.4,0.6 0,0.8 0.4,0.8 0.3,0 3.2,0 3.8,-0.1 -0.3,-0.7 -1.5,-3.5 -1.7,-3.8 -0.2,-0.3 -0.5,-0.4 -0.7,0 L 42,69.7 c 0,0.1 -0.1,0.1 -0.2,0 l -0.3,-0.2 c -0.1,0 -0.1,-0.1 0,-0.2 0.1,-0.2 0.5,-0.7 0.9,-1.5 0.4,-0.8 0.7,-1.3 0.8,-1.4 0.1,-0.1 0.1,-0.1 0.2,-0.1 l 0.3,0.2 c 0.1,0.1 0.1,0.1 0.1,0.2 l -0.3,0.6 c -0.2,0.3 -0.2,0.5 -0.2,0.7 0,0.4 1.6,4.2 2,5.1 0.4,0 6.1,-0.3 6.3,-0.4 0.5,-0.2 0.8,-0.4 0.9,-0.7 l 0.3,-0.5 c 0.1,-0.1 0.1,-0.1 0.2,-0.1 l 0.3,0.2 c 0.1,0 0.1,0.1 0,0.2 -0.1,0.1 -0.4,0.6 -1.1,1.7 -0.6,1.1 -1,1.9 -1.1,2 -0.1,0.1 -0.1,0.1 -0.2,0.1 l -0.3,-0.2 c -0.1,0 -0.1,-0.1 0,-0.1 l 0.3,-0.5 c 0.2,-0.3 0.2,-0.5 -0.1,-0.5 -0.3,0 -4.5,0.1 -5,0.1 0.5,1 1.9,4 2.1,4.2 0.3,0.4 0.6,0.4 0.8,0.1 L 49,78.2 c 0.1,-0.1 0.1,-0.1 0.1,-0.1 z"
             inkscape:connector-curvature="0" />
          <path
             id="path41363"
             d="M 48.4,66.6 C 48.1,66.4 45.5,65 45.3,64.9 45,64.7 44.7,64.8 44.4,65.3 L 44,66.2 c 0,0.1 -0.1,0.1 -0.1,0.1 L 43.5,66 c -0.1,0 -0.1,-0.1 0,-0.1 0.1,-0.2 0.5,-0.8 1.3,-2.1 0.7,-1.2 0.9,-1.7 1,-1.9 0,-0.1 0.1,-0.1 0.2,0 l 0.3,0.2 c 0.1,0 0.1,0.1 0,0.2 L 46,62.8 c -0.2,0.3 -0.2,0.5 0.1,0.7 0.1,0.1 3.2,1.9 3.3,2 l 1.1,0.6 c 0.1,0.1 3.4,1.9 3.5,2 0.4,0.2 0.6,0.1 0.9,-0.4 l 0.3,-0.6 C 55.2,67 55.3,67 55.4,67 l 0.4,0.2 c 0.1,0 0.1,0.1 0,0.2 -0.1,0.2 -0.5,0.7 -1.2,1.9 -0.8,1.3 -1.1,1.9 -1.2,2.1 0,0.1 -0.1,0.1 -0.1,0.1 l -0.4,-0.2 c -0.1,0 -0.1,-0.1 0,-0.2 l 0.4,-0.8 c 0.2,-0.3 0.3,-0.6 0,-0.9 -0.2,-0.1 -3.2,-1.9 -3.9,-2.3 z"
             inkscape:connector-curvature="0" />
          <path
             id="path41365"
             d="m 51.5,61.4 c -0.3,-0.2 -2.9,-1.6 -3.1,-1.7 -0.3,-0.2 -0.6,-0.1 -0.9,0.4 L 47,60.9 C 47,61 46.9,61 46.9,61 l -0.4,-0.2 c -0.1,0 -0.1,-0.1 0,-0.1 0.1,-0.2 0.5,-0.8 1.3,-2.1 0.7,-1.2 0.9,-1.7 1,-1.9 0,-0.1 0.1,-0.1 0.2,0 l 0.3,0.2 c 0.1,0 0.1,0.1 0,0.2 L 49,57.5 c -0.2,0.3 -0.2,0.5 0.1,0.7 0.1,0.1 3.2,1.9 3.3,2 l 1.1,0.6 c 0.1,0.1 3.4,1.9 3.5,2 0.4,0.2 0.6,0.1 0.9,-0.4 l 0.3,-0.6 c 0,-0.1 0.1,-0.1 0.2,-0.1 l 0.4,0.2 c 0.1,0 0.1,0.1 0,0.2 -0.1,0.2 -0.5,0.7 -1.2,1.9 -0.8,1.3 -1.1,1.9 -1.2,2.1 0,0.1 -0.1,0.1 -0.1,0.1 L 56,66 c -0.1,0 -0.1,-0.1 0,-0.2 L 56.4,65 c 0.2,-0.3 0.3,-0.6 0,-0.9 -0.2,-0.1 -3.2,-1.9 -3.9,-2.3 z"
             inkscape:connector-curvature="0" />
        </g>
        <g
           id="g41373">
          <path
             id="path41369"
             d="m 37,113.7 c -0.4,0 -3.3,0 -3.5,0.1 -0.4,0 -0.5,0.2 -0.5,0.8 v 0.9 c 0,0.1 0,0.1 -0.1,0.1 h -0.4 c -0.1,0 -0.1,0 -0.1,-0.1 0,-0.2 0,-1 0,-2.5 0,-1.4 0,-1.9 0,-2.2 0,-0.1 0,-0.1 0.1,-0.1 h 0.4 c 0.1,0 0.1,0 0.1,0.1 v 0.8 c 0,0.3 0.1,0.6 0.4,0.6 0.2,0 3.7,0 3.9,0 h 1.2 c 0.2,0 3.9,0 4,0 0.5,0 0.6,-0.2 0.6,-0.8 v -0.7 c 0,-0.1 0,-0.1 0.1,-0.1 h 0.4 c 0.1,0 0.1,0 0.1,0.1 0,0.2 0,0.8 0,2.2 0,1.5 0,2.2 0,2.4 0,0.1 0,0.1 -0.1,0.1 h -0.4 c -0.1,0 -0.1,0 -0.1,-0.1 v -0.9 c 0,-0.3 0,-0.7 -0.5,-0.7 -0.2,0 -3.7,-0.1 -4.5,-0.1 H 37 Z"
             inkscape:connector-curvature="0" />
          <path
             id="path41371"
             d="m 43.6,106.4 c 0.1,0 0.1,0 0.1,0.1 0,0.2 0,0.8 0,2.1 0,0.9 0,1.6 0,1.7 0,0.1 -0.1,0.1 -0.1,0.1 h -0.4 c -0.1,0 -0.1,0 -0.1,-0.1 v -0.6 c 0,-0.3 -0.2,-0.6 -0.5,-0.9 -0.9,-1 -3.7,-2.8 -4.7,-3.6 -0.8,0.6 -4.4,3 -4.8,3.3 -0.1,0.1 -0.2,0.4 -0.2,0.7 v 0.7 c 0,0.1 -0.1,0.1 -0.1,0.1 h -0.4 c -0.1,0 -0.1,0 -0.1,-0.1 0,-0.2 0,-0.9 0,-2.3 0,-1.6 0,-2.3 0,-2.4 0,-0.1 0.1,-0.1 0.1,-0.1 h 0.4 c 0.1,0 0.1,0 0.1,0.1 v 0.6 c 0,0.7 0.4,0.7 0.8,0.5 0.2,-0.1 2.7,-1.6 3.2,-2 -0.6,-0.4 -3,-2.3 -3.3,-2.4 -0.3,-0.2 -0.7,-0.1 -0.7,0.3 v 0.3 c 0,0.1 -0.1,0.1 -0.1,0.1 h -0.4 c -0.1,0 -0.1,0 -0.1,-0.1 0,-0.2 0,-0.8 0,-1.7 0,-0.9 0,-1.5 0,-1.6 0,-0.1 0.1,-0.1 0.1,-0.1 h 0.4 c 0.1,0 0.1,0 0.1,0.1 v 0.7 c 0,0.4 0.1,0.5 0.2,0.7 0.2,0.3 3.5,2.8 4.3,3.5 0.3,-0.2 5.1,-3.3 5.3,-3.5 0.3,-0.4 0.4,-0.8 0.4,-1.1 V 99 c 0,-0.1 0,-0.1 0.1,-0.1 h 0.4 c 0.1,0 0.1,0 0.1,0.1 0,0.1 0,0.7 0,2 0,1.3 0,2.1 0,2.3 0,0.1 0,0.1 -0.1,0.1 h -0.4 c -0.1,0 -0.1,0 -0.1,-0.1 v -0.6 c 0,-0.3 -0.1,-0.5 -0.3,-0.4 -0.2,0.1 -3.8,2.3 -4.3,2.6 0.9,0.6 3.6,2.5 3.9,2.6 0.4,0.2 0.7,0.1 0.7,-0.3 v -0.6 c 0,-0.1 0,-0.1 0.1,-0.1 h 0.4 z"
             inkscape:connector-curvature="0" />
        </g>
        <g
           id="g41383">
          <path
             id="path41375"
             d="m 44.1,131.1 c 0.1,0 0.1,0 0.2,0 0.1,0.1 0.3,0.6 0.9,1.7 0.7,1.2 1.1,1.8 1.1,1.9 0.1,0.1 0,0.2 0,0.2 l -0.3,0.2 c -0.1,0 -0.1,0.1 -0.2,0 l -0.4,-0.7 c -0.2,-0.4 -0.5,-0.5 -0.7,-0.4 -0.1,0.1 -0.3,0.2 -0.4,0.3 -0.5,0.4 -1.8,1.8 -2.4,2.5 -0.4,0.5 -2.4,2.7 -3,3.5 v 0 c 0.8,-0.1 4.3,-0.7 4.7,-0.7 0.5,-0.1 2.4,-0.5 3.1,-0.6 0.4,-0.1 0.7,-0.2 0.9,-0.3 0.2,-0.1 0.3,-0.3 0.1,-0.6 l -0.2,-0.4 c 0,-0.1 0,-0.1 0.1,-0.1 l 0.3,-0.2 c 0.1,0 0.1,0 0.1,0 0.1,0.1 0.4,0.8 0.9,1.7 0.6,1 0.8,1.3 0.9,1.5 0,0.1 0,0.1 0,0.2 l -0.3,0.2 c -0.1,0 -0.1,0 -0.2,0 l -0.2,-0.4 c -0.3,-0.5 -0.6,-0.6 -1.1,-0.7 -0.7,-0.1 -4.1,0.4 -4.9,0.5 -0.6,0.1 -6,0.9 -6.2,0.9 -0.1,0 -0.3,0 -0.3,-0.1 -0.1,-0.1 0,-0.2 0.2,-0.4 1,-1.2 3.5,-4.1 3.9,-4.6 l 0.4,-0.4 c 0.8,-0.9 2.4,-2.7 2.7,-3.1 0.2,-0.3 0.3,-0.5 0.1,-0.8 l -0.2,-0.4 c 0,-0.1 0,-0.1 0.1,-0.1 z"
             inkscape:connector-curvature="0" />
          <path
             id="path41377"
             d="m 46.7,144.7 c 0.3,-0.2 2.8,-1.7 3,-1.8 0.3,-0.2 0.4,-0.4 0.1,-1 l -0.5,-0.8 c 0,-0.1 0,-0.1 0,-0.2 l 0.4,-0.2 c 0.1,0 0.1,0 0.1,0 0.1,0.2 0.5,0.9 1.2,2.2 0.7,1.2 1,1.7 1.1,1.8 0,0.1 0,0.1 0,0.2 l -0.3,0.2 c -0.1,0 -0.1,0 -0.2,-0.1 l -0.4,-0.7 C 51,144 50.8,143.9 50.5,144 c -0.1,0.1 -3.2,1.8 -3.4,1.9 l -1.1,0.6 c -0.1,0.1 -3.3,2 -3.5,2.1 -0.4,0.2 -0.4,0.5 -0.1,0.9 l 0.3,0.6 c 0,0.1 0,0.1 0,0.2 l -0.4,0.2 c -0.1,0 -0.1,0 -0.2,-0.1 -0.1,-0.2 -0.4,-0.7 -1.1,-2 -0.8,-1.3 -1.1,-1.9 -1.2,-2 0,-0.1 0,-0.1 0,-0.2 l 0.4,-0.2 c 0.1,0 0.1,0 0.1,0.1 l 0.4,0.8 c 0.2,0.3 0.4,0.5 0.8,0.4 0.2,-0.1 3.2,-1.8 4,-2.2 z"
             inkscape:connector-curvature="0" />
          <path
             id="path41379"
             d="m 49.8,150 c 0.3,-0.2 2.8,-1.7 3,-1.8 0.3,-0.2 0.4,-0.4 0.1,-1 l -0.5,-0.8 c 0,-0.1 0,-0.1 0,-0.2 l 0.4,-0.2 c 0.1,0 0.1,0 0.1,0 0.1,0.2 0.5,0.9 1.2,2.2 0.7,1.2 1,1.7 1.1,1.8 0,0.1 0,0.1 0,0.2 l -0.3,0.2 c -0.1,0 -0.1,0 -0.2,-0.1 l -0.4,-0.7 c -0.2,-0.3 -0.4,-0.4 -0.7,-0.3 -0.1,0.1 -3.2,1.8 -3.4,1.9 l -1.1,0.6 c -0.1,0.1 -3.3,2 -3.5,2.1 -0.4,0.2 -0.4,0.5 -0.1,0.9 l 0.3,0.6 c 0,0.1 0,0.1 0,0.2 l -0.4,0.2 c -0.1,0 -0.1,0 -0.2,-0.1 -0.1,-0.2 -0.4,-0.7 -1.1,-2 -0.8,-1.3 -1.1,-1.9 -1.2,-2 0,-0.1 0,-0.1 0,-0.2 l 0.4,-0.2 c 0.1,0 0.1,0 0.1,0.1 l 0.4,0.8 c 0.2,0.3 0.4,0.5 0.8,0.4 0.2,-0.1 3.2,-1.8 4,-2.2 z"
             inkscape:connector-curvature="0" />
          <path
             id="path41381"
             d="m 52.8,155.3 c 0.3,-0.2 2.8,-1.7 3,-1.8 0.3,-0.2 0.4,-0.4 0.1,-1 l -0.5,-0.8 c 0,-0.1 0,-0.1 0,-0.2 l 0.4,-0.2 c 0.1,0 0.1,0 0.1,0 0.1,0.2 0.5,0.9 1.2,2.2 0.7,1.2 1,1.7 1.1,1.8 0,0.1 0,0.1 0,0.2 l -0.3,0.2 c -0.1,0 -0.1,0 -0.2,-0.1 l -0.4,-0.7 c -0.2,-0.3 -0.4,-0.4 -0.7,-0.3 -0.1,0.1 -3.2,1.8 -3.4,1.9 l -1.1,0.6 c -0.1,0.1 -3.3,2 -3.5,2.1 -0.4,0.2 -0.4,0.5 -0.1,0.9 l 0.3,0.6 c 0,0.1 0,0.1 0,0.2 l -0.4,0.2 c -0.1,0 -0.1,0 -0.2,-0.1 -0.1,-0.2 -0.4,-0.7 -1.1,-2 -0.8,-1.3 -1.1,-1.9 -1.2,-2 0,-0.1 0,-0.1 0,-0.2 l 0.4,-0.2 c 0.1,0 0.1,0 0.1,0.1 l 0.4,0.8 c 0.2,0.3 0.4,0.5 0.8,0.4 0.2,-0.1 3.2,-1.8 4,-2.2 z"
             inkscape:connector-curvature="0" />
        </g>
        <g
           id="g41391">
          <path
             id="path41385"
             d="m 66.1,164.1 c 0,-0.1 0.1,-0.1 0.2,0 0.1,0.1 0.6,0.4 1.7,1 1.2,0.7 1.8,1 1.9,1.1 0.1,0.1 0.1,0.1 0.1,0.2 l -0.2,0.3 c 0,0.1 -0.1,0.1 -0.2,0.1 l -0.7,-0.4 c -0.4,-0.2 -0.7,-0.2 -0.8,0 -0.1,0.1 -0.1,0.3 -0.2,0.5 -0.2,0.5 -0.6,2.5 -0.8,3.4 -0.1,0.6 -0.7,3.5 -0.9,4.5 v 0 c 0.7,-0.5 3.4,-2.7 3.7,-3 0.4,-0.3 1.8,-1.6 2.4,-2.1 0.3,-0.3 0.5,-0.5 0.6,-0.7 0.1,-0.2 0.1,-0.4 -0.3,-0.6 l -0.4,-0.2 c -0.1,0 0,-0.1 0,-0.2 l 0.2,-0.3 c 0,-0.1 0.1,-0.1 0.1,0 0.1,0.1 0.7,0.5 1.6,1 1,0.6 1.4,0.7 1.5,0.8 0.1,0 0.1,0.1 0,0.2 l -0.2,0.3 c 0,0.1 -0.1,0.1 -0.2,0 l -0.4,-0.2 c -0.5,-0.3 -0.8,-0.2 -1.3,0 -0.6,0.2 -3.4,2.4 -3.9,2.9 -0.4,0.4 -4.8,3.7 -4.9,3.8 -0.1,0.1 -0.2,0.1 -0.3,0.1 -0.1,-0.1 -0.1,-0.2 -0.1,-0.5 0.3,-1.5 1,-5.3 1.1,-5.9 l 0.1,-0.6 c 0.2,-1.2 0.7,-3.6 0.8,-4.1 0,-0.4 0,-0.6 -0.3,-0.8 l -0.4,-0.2 c -0.1,0 0,-0.1 0,-0.1 z"
             inkscape:connector-curvature="0" />
          <path
             id="path41387"
             d="m 75.1,174.6 c 0.2,-0.3 1.6,-2.9 1.7,-3.1 0.2,-0.3 0.1,-0.6 -0.4,-0.9 l -0.8,-0.5 c -0.1,0 -0.1,-0.1 -0.1,-0.1 l 0.2,-0.4 c 0,-0.1 0.1,-0.1 0.1,0 0.2,0.1 0.8,0.5 2.1,1.3 1.2,0.7 1.7,0.9 1.9,1 0.1,0 0.1,0.1 0,0.2 l -0.2,0.3 c 0,0.1 -0.1,0.1 -0.2,0 L 78.7,172 c -0.3,-0.2 -0.5,-0.2 -0.7,0.1 -0.1,0.1 -1.9,3.2 -2,3.3 l -0.6,1.1 c -0.1,0.1 -1.9,3.4 -2,3.5 -0.2,0.4 -0.1,0.6 0.4,0.9 l 0.6,0.3 c 0.1,0 0.1,0.1 0.1,0.2 l -0.2,0.4 c 0,0.1 -0.1,0.1 -0.2,0 -0.2,-0.1 -0.7,-0.5 -1.9,-1.2 -1.3,-0.8 -1.9,-1.1 -2.1,-1.2 -0.1,0 -0.1,-0.1 -0.1,-0.1 l 0.2,-0.4 c 0,-0.1 0.1,-0.1 0.2,0 l 0.8,0.4 c 0.3,0.2 0.6,0.3 0.9,0 0.1,-0.2 1.9,-3.2 2.3,-3.9 z"
             inkscape:connector-curvature="0" />
          <path
             id="path41389"
             d="m 80.4,177.6 c 0.2,-0.3 1.6,-2.9 1.7,-3.1 0.2,-0.3 0.1,-0.6 -0.4,-0.9 l -0.8,-0.5 c -0.1,0 -0.1,-0.1 -0.1,-0.1 l 0.2,-0.4 c 0,-0.1 0.1,-0.1 0.1,0 0.2,0.1 0.8,0.5 2.1,1.3 1.2,0.7 1.7,0.9 1.9,1 0.1,0 0.1,0.1 0,0.2 l -0.2,0.3 c 0,0.1 -0.1,0.1 -0.2,0 L 84,175 c -0.3,-0.2 -0.5,-0.2 -0.7,0.1 -0.1,0.1 -1.9,3.2 -2,3.3 l -0.6,1.1 c -0.1,0.1 -1.9,3.4 -2,3.5 -0.2,0.4 -0.1,0.6 0.4,0.9 l 0.6,0.3 c 0.1,0 0.1,0.1 0.1,0.2 l -0.2,0.4 c 0,0.1 -0.1,0.1 -0.2,0 -0.2,-0.1 -0.7,-0.5 -1.9,-1.2 -1.3,-0.8 -1.9,-1.1 -2.1,-1.2 -0.1,0 -0.1,-0.1 -0.1,-0.1 l 0.2,-0.4 c 0,-0.1 0.1,-0.1 0.2,0 l 0.8,0.4 c 0.3,0.2 0.6,0.3 0.9,0 0.1,-0.2 1.9,-3.2 2.3,-3.9 z"
             inkscape:connector-curvature="0" />
        </g>
        <g
           id="g41397">
          <path
             id="path41393"
             d="m 107.5,178.9 c 0,-0.1 0,-0.1 0.1,-0.1 0.2,0 0.7,0 1.9,0 1.3,0 2.1,0 2.2,0 0.1,0 0.2,0 0.2,0.1 v 0.4 c 0,0.1 0,0.1 -0.1,0.1 H 111 c -0.4,0 -0.7,0.1 -0.7,0.4 0,0.1 0,0.3 0.1,0.5 0.1,0.6 0.7,2.5 1,3.4 0.2,0.6 1.1,3.4 1.5,4.3 v 0 c 0.3,-0.8 1.6,-4 1.7,-4.4 0.2,-0.4 0.8,-2.3 1,-3 0.1,-0.4 0.2,-0.7 0.2,-0.9 0,-0.2 -0.1,-0.4 -0.5,-0.4 h -0.4 c -0.1,0 -0.1,0 -0.1,-0.1 v -0.4 c 0,-0.1 0,-0.1 0.1,-0.1 0.1,0 0.9,0 1.9,0 1.2,0 1.6,0 1.7,0 0.1,0 0.1,0 0.1,0.1 v 0.4 c 0,0.1 0,0.1 -0.1,0.1 h -0.4 c -0.5,0 -0.8,0.3 -1.1,0.6 -0.4,0.5 -1.7,3.8 -2,4.5 -0.2,0.5 -2.3,5.6 -2.3,5.8 -0.1,0.1 -0.1,0.2 -0.2,0.2 -0.1,0 -0.2,-0.2 -0.3,-0.4 -0.5,-1.5 -1.8,-5.1 -2,-5.7 l -0.2,-0.5 c -0.4,-1.1 -1.1,-3.5 -1.3,-3.9 -0.2,-0.4 -0.3,-0.5 -0.7,-0.5 h -0.4 c -0.1,0 -0.1,0 -0.1,-0.1 z"
             inkscape:connector-curvature="0" />
          <path
             id="path41395"
             d="m 120.6,183.5 c 0,-0.4 0,-3.3 -0.1,-3.5 0,-0.4 -0.2,-0.5 -0.8,-0.5 h -0.9 c -0.1,0 -0.1,0 -0.1,-0.1 V 179 c 0,-0.1 0,-0.1 0.1,-0.1 0.2,0 1,0 2.5,0 1.4,0 1.9,0 2.2,0 0.1,0 0.1,0 0.1,0.1 v 0.4 c 0,0.1 0,0.1 -0.1,0.1 h -0.8 c -0.3,0 -0.6,0.1 -0.6,0.4 0,0.2 0,3.7 0,3.9 v 1.2 c 0,0.2 0,3.9 0,4 0,0.5 0.2,0.6 0.8,0.6 h 0.7 c 0.1,0 0.1,0 0.1,0.1 v 0.4 c 0,0.1 0,0.1 -0.1,0.1 -0.2,0 -0.8,0 -2.2,0 -1.5,0 -2.2,0 -2.4,0 -0.1,0 -0.1,0 -0.1,-0.1 v -0.4 c 0,-0.1 0,-0.1 0.1,-0.1 h 0.9 c 0.3,0 0.7,0 0.7,-0.5 0,-0.2 0.1,-3.7 0.1,-4.5 v -1.1 z"
             inkscape:connector-curvature="0" />
        </g>
        <g
           id="g41401">
          <path
             id="path41399"
             d="m 148.3,173.8 c 0,-0.1 0,-0.1 0,-0.2 0.1,-0.1 0.6,-0.3 1.7,-0.9 1.2,-0.7 1.8,-1.1 1.9,-1.1 0.1,-0.1 0.2,0 0.2,0 l 0.2,0.3 c 0,0.1 0.1,0.1 0,0.2 l -0.7,0.4 c -0.4,0.2 -0.5,0.5 -0.4,0.7 0.1,0.1 0.2,0.3 0.3,0.4 0.4,0.5 1.8,1.8 2.5,2.4 0.5,0.4 2.7,2.4 3.5,3 v 0 c -0.1,-0.8 -0.7,-4.3 -0.7,-4.7 -0.1,-0.5 -0.5,-2.4 -0.6,-3.1 -0.1,-0.4 -0.1,-0.7 -0.3,-0.9 -0.1,-0.2 -0.3,-0.3 -0.6,-0.1 l -0.4,0.2 c -0.1,0 -0.1,0 -0.1,-0.1 l -0.2,-0.3 c 0,-0.1 0,-0.1 0,-0.1 0.1,-0.1 0.8,-0.4 1.7,-0.9 1,-0.6 1.3,-0.8 1.5,-0.9 0.1,0 0.1,0 0.2,0 l 0.2,0.3 c 0,0.1 0,0.1 0,0.2 l -0.4,0.2 c -0.5,0.3 -0.6,0.6 -0.7,1.1 -0.1,0.7 0.4,4.1 0.5,4.9 0.1,0.6 0.9,6 0.9,6.2 0,0.1 0,0.3 -0.1,0.3 -0.1,0.1 -0.2,0 -0.4,-0.2 -1.2,-1 -4.1,-3.5 -4.6,-3.9 l -0.4,-0.4 c -0.9,-0.8 -2.7,-2.4 -3.1,-2.7 -0.3,-0.2 -0.5,-0.3 -0.8,-0.1 l -0.4,0.2 c -0.1,0 -0.1,0 -0.1,-0.1 z"
             inkscape:connector-curvature="0" />
        </g>
        <g
           id="g41407">
          <path
             id="path41403"
             d="m 180.9,151.7 c -0.3,-0.2 -2.9,-1.6 -3.1,-1.7 -0.3,-0.2 -0.6,-0.1 -0.9,0.4 l -0.5,0.8 c 0,0.1 -0.1,0.1 -0.1,0.1 l -0.4,-0.2 c -0.1,0 -0.1,-0.1 0,-0.1 0.1,-0.2 0.5,-0.8 1.3,-2.1 0.7,-1.2 0.9,-1.7 1,-1.9 0,-0.1 0.1,-0.1 0.2,0 l 0.3,0.2 c 0.1,0 0.1,0.1 0,0.2 l -0.4,0.7 c -0.2,0.3 -0.2,0.5 0.1,0.7 0.1,0.1 3.2,1.9 3.3,2 l 1.1,0.6 c 0.1,0.1 3.4,1.9 3.5,2 0.4,0.2 0.6,0.1 0.9,-0.4 l 0.3,-0.6 c 0,-0.1 0.1,-0.1 0.2,-0.1 l 0.4,0.2 c 0.1,0 0.1,0.1 0,0.2 -0.1,0.2 -0.5,0.7 -1.2,1.9 -0.8,1.3 -1.1,1.9 -1.2,2.1 0,0.1 -0.1,0.1 -0.1,0.1 l -0.4,-0.2 c -0.1,0 -0.1,-0.1 0,-0.2 l 0.4,-0.8 c 0.2,-0.3 0.3,-0.6 0,-0.9 -0.2,-0.1 -3.2,-1.9 -3.9,-2.3 z"
             inkscape:connector-curvature="0" />
          <path
             id="path41405"
             d="m 179,145.9 c -0.1,0 -0.1,-0.1 0,-0.2 0.1,-0.1 0.4,-0.6 1,-1.7 0.7,-1.2 1,-1.8 1.1,-1.9 0.1,-0.1 0.1,-0.1 0.2,-0.1 l 0.3,0.2 c 0.1,0 0.1,0.1 0.1,0.2 l -0.4,0.7 c -0.2,0.4 -0.2,0.7 0,0.8 0.1,0.1 0.3,0.1 0.5,0.2 0.5,0.2 2.5,0.6 3.4,0.8 0.6,0.1 3.5,0.7 4.5,0.9 v 0 c -0.5,-0.7 -2.7,-3.4 -3,-3.7 -0.3,-0.4 -1.6,-1.8 -2.1,-2.4 -0.3,-0.3 -0.5,-0.5 -0.7,-0.7 -0.2,-0.1 -0.4,-0.1 -0.6,0.3 l -0.2,0.4 c 0,0.1 -0.1,0 -0.2,0 l -0.3,-0.2 c -0.1,0 -0.1,-0.1 0,-0.1 0.1,-0.1 0.5,-0.7 1,-1.6 0.6,-1 0.7,-1.4 0.8,-1.5 0,-0.1 0.1,-0.1 0.2,0 l 0.3,0.2 c 0.1,0 0.1,0.1 0,0.2 l -0.2,0.4 c -0.3,0.5 -0.2,0.8 0,1.3 0.2,0.6 2.4,3.4 2.9,3.9 0.4,0.4 3.7,4.8 3.8,4.9 0.1,0.1 0.1,0.2 0.1,0.3 -0.1,0.1 -0.2,0.1 -0.5,0.1 -1.5,-0.3 -5.3,-1 -5.9,-1.1 l -0.6,-0.1 c -1.2,-0.2 -3.6,-0.7 -4.1,-0.8 -0.4,0 -0.6,0 -0.8,0.3 l -0.2,0.4 c 0,0.1 -0.1,0 -0.1,0 z"
             inkscape:connector-curvature="0" />
        </g>
        <g
           id="g41415">
          <path
             id="path41409"
             d="m 193.9,100.6 c 0.4,0 3.3,0 3.5,-0.1 0.4,0 0.5,-0.2 0.5,-0.8 v -0.9 c 0,-0.1 0,-0.1 0.1,-0.1 h 0.4 c 0.1,0 0.1,0 0.1,0.1 0,0.2 0,1 0,2.5 0,1.4 0,1.9 0,2.2 0,0.1 0,0.1 -0.1,0.1 H 198 c -0.1,0 -0.1,0 -0.1,-0.1 v -0.8 c 0,-0.3 -0.1,-0.6 -0.4,-0.6 -0.2,0 -3.7,0 -3.9,0 h -1.2 c -0.2,0 -3.9,0 -4,0 -0.5,0 -0.6,0.2 -0.6,0.8 v 0.7 c 0,0.1 0,0.1 -0.1,0.1 h -0.4 c -0.1,0 -0.1,0 -0.1,-0.1 0,-0.2 0,-0.8 0,-2.2 0,-1.5 0,-2.2 0,-2.4 0,-0.1 0,-0.1 0.1,-0.1 h 0.4 c 0.1,0 0.1,0 0.1,0.1 v 0.9 c 0,0.3 0,0.7 0.5,0.7 0.2,0 3.7,0.1 4.5,0.1 h 1.1 z"
             inkscape:connector-curvature="0" />
          <path
             id="path41411"
             d="m 193.9,106.7 c 0.4,0 3.3,0 3.5,-0.1 0.4,0 0.5,-0.2 0.5,-0.8 v -0.9 c 0,-0.1 0,-0.1 0.1,-0.1 h 0.4 c 0.1,0 0.1,0 0.1,0.1 0,0.2 0,1 0,2.5 0,1.4 0,1.9 0,2.2 0,0.1 0,0.1 -0.1,0.1 H 198 c -0.1,0 -0.1,0 -0.1,-0.1 v -0.8 c 0,-0.3 -0.1,-0.6 -0.4,-0.6 -0.2,0 -3.7,0 -3.9,0 h -1.2 c -0.2,0 -3.9,0 -4,0 -0.5,0 -0.6,0.2 -0.6,0.8 v 0.7 c 0,0.1 0,0.1 -0.1,0.1 h -0.4 c -0.1,0 -0.1,0 -0.1,-0.1 0,-0.2 0,-0.8 0,-2.2 0,-1.5 0,-2.2 0,-2.4 0,-0.1 0,-0.1 0.1,-0.1 h 0.4 c 0.1,0 0.1,0 0.1,0.1 v 0.9 c 0,0.3 0,0.7 0.5,0.7 0.2,0 3.7,0.1 4.5,0.1 h 1.1 z"
             inkscape:connector-curvature="0" />
          <path
             id="path41413"
             d="m 193.9,112.8 c 0.4,0 3.3,0 3.5,-0.1 0.4,0 0.5,-0.2 0.5,-0.8 V 111 c 0,-0.1 0,-0.1 0.1,-0.1 h 0.4 c 0.1,0 0.1,0 0.1,0.1 0,0.2 0,1 0,2.5 0,1.4 0,1.9 0,2.2 0,0.1 0,0.1 -0.1,0.1 H 198 c -0.1,0 -0.1,0 -0.1,-0.1 v -0.8 c 0,-0.3 -0.1,-0.6 -0.4,-0.6 -0.2,0 -3.7,0 -3.9,0 h -1.2 c -0.2,0 -3.9,0 -4,0 -0.5,0 -0.6,0.2 -0.6,0.8 v 0.7 c 0,0.1 0,0.1 -0.1,0.1 h -0.4 c -0.1,0 -0.1,0 -0.1,-0.1 0,-0.2 0,-0.8 0,-2.2 0,-1.5 0,-2.2 0,-2.4 0,-0.1 0,-0.1 0.1,-0.1 h 0.4 c 0.1,0 0.1,0 0.1,0.1 v 0.9 c 0,0.3 0,0.7 0.5,0.7 0.2,0 3.7,0.1 4.5,0.1 h 1.1 z"
             inkscape:connector-curvature="0" />
        </g>
        <g
           id="g41421">
          <path
             id="path41417"
             d="m 181.5,64.9 c 0.3,-0.2 2.8,-1.7 3,-1.8 0.3,-0.2 0.4,-0.4 0.1,-1 l -0.5,-0.8 c 0,-0.1 0,-0.1 0,-0.2 l 0.4,-0.2 c 0.1,0 0.1,0 0.1,0 0.1,0.2 0.5,0.9 1.2,2.2 0.7,1.2 1,1.7 1.1,1.8 0,0.1 0,0.1 0,0.2 l -0.3,0.2 c -0.1,0 -0.1,0 -0.2,-0.1 L 186,64.5 c -0.2,-0.3 -0.4,-0.4 -0.7,-0.3 -0.1,0.1 -3.2,1.8 -3.4,1.9 l -1.1,0.6 c -0.1,0.1 -3.3,2 -3.5,2.1 -0.4,0.2 -0.4,0.5 -0.1,0.9 l 0.3,0.6 c 0,0.1 0,0.1 0,0.2 l -0.4,0.2 c -0.1,0 -0.1,0 -0.2,-0.1 -0.1,-0.2 -0.4,-0.7 -1.1,-2 -0.8,-1.3 -1.1,-1.9 -1.2,-2 0,-0.1 0,-0.1 0,-0.2 l 0.4,-0.2 c 0.1,0 0.1,0 0.1,0.1 l 0.4,0.8 c 0.2,0.3 0.4,0.5 0.8,0.4 0.2,-0.1 3.2,-1.8 4,-2.2 z"
             inkscape:connector-curvature="0" />
          <path
             id="path41419"
             d="m 184.6,70.2 c 0.3,-0.2 2.8,-1.7 3,-1.8 0.3,-0.2 0.4,-0.4 0.1,-1 l -0.5,-0.8 c 0,-0.1 0,-0.1 0,-0.2 l 0.4,-0.2 c 0.1,0 0.1,0 0.1,0 0.1,0.2 0.5,0.9 1.2,2.2 0.7,1.2 1,1.7 1.1,1.8 0,0.1 0,0.1 0,0.2 l -0.3,0.2 c -0.1,0 -0.1,0 -0.2,-0.1 l -0.4,-0.7 c -0.2,-0.3 -0.4,-0.4 -0.7,-0.3 -0.1,0.1 -3.2,1.8 -3.4,1.9 l -1.1,0.6 c -0.1,0.1 -3.3,2 -3.5,2.1 -0.4,0.2 -0.4,0.5 -0.1,0.9 l 0.3,0.6 c 0,0.1 0,0.1 0,0.2 l -0.4,0.2 c -0.1,0 -0.1,0 -0.2,-0.1 -0.1,-0.2 -0.4,-0.7 -1.1,-2 -0.8,-1.3 -1.1,-1.9 -1.2,-2 0,-0.1 0,-0.1 0,-0.2 l 0.4,-0.2 c 0.1,0 0.1,0 0.1,0.1 l 0.4,0.8 c 0.2,0.3 0.4,0.5 0.8,0.4 0.2,-0.1 3.2,-1.8 4,-2.2 z"
             inkscape:connector-curvature="0" />
        </g>
        <g
           id="g41425">
          <path
             id="path41423"
             d="m 154.1,39.1 c 0.2,-0.3 1.6,-2.9 1.7,-3.1 0.2,-0.3 0.1,-0.6 -0.4,-0.9 l -0.8,-0.5 c -0.1,0 -0.1,-0.1 -0.1,-0.1 l 0.2,-0.4 c 0,-0.1 0.1,-0.1 0.1,0 0.2,0.1 0.8,0.5 2.1,1.3 1.2,0.7 1.7,0.9 1.9,1 0.1,0 0.1,0.1 0,0.2 l -0.2,0.3 c 0,0.1 -0.1,0.1 -0.2,0 l -0.7,-0.4 c -0.3,-0.2 -0.5,-0.2 -0.7,0.1 -0.1,0.1 -1.9,3.2 -2,3.3 l -0.6,1.1 c -0.1,0.1 -1.9,3.4 -2,3.5 -0.2,0.4 -0.1,0.6 0.4,0.9 l 0.6,0.3 c 0.1,0 0.1,0.1 0.1,0.2 l -0.2,0.4 c 0,0.1 -0.1,0.1 -0.2,0 -0.2,-0.1 -0.7,-0.5 -1.9,-1.2 -1.3,-0.8 -1.9,-1.1 -2.1,-1.2 -0.1,0 -0.1,-0.1 -0.1,-0.1 l 0.2,-0.4 c 0,-0.1 0.1,-0.1 0.2,0 l 0.8,0.4 c 0.3,0.2 0.6,0.3 0.9,0 0.1,-0.2 1.9,-3.2 2.3,-3.9 z"
             inkscape:connector-curvature="0" />
        </g>
        <path
           id="path41427"
           d="m 115.5,111.4 c -2.2,0 -4,-1.8 -4,-4 0,-2.2 1.8,-4 4,-4 2.2,0 4,1.8 4,4 0,2.2 -1.8,4 -4,4 z m 0,-2 c 1.1,0 2,-0.9 2,-2 0,-1.1 -0.9,-2 -2,-2 -1.1,0 -2,0.9 -2,2 0,1.1 0.9,2 2,2 z"
           class="st3"
           inkscape:connector-curvature="0"
           style="fill:#1a1a1a" />
      </g>
      <g
         id="Layer_2" />
    </g>
  </g>
  <style
     id="style41205"
     type="text/css">
	.st0{fill:url(#SVGID_1_);stroke:#000000;stroke-miterlimit:10;}
	.st1{fill:url(#SVGID_2_);stroke:#000000;stroke-width:0.25;stroke-miterlimit:10;}
	.st2{fill:none;stroke:#000000;stroke-linecap:round;stroke-miterlimit:10;}
	.st3{fill:#1A1A1A;}
</style>
</svg>
