<?xml version="1.0" encoding="UTF-8" standalone="no"?>
<svg
   xmlns:dc="http://purl.org/dc/elements/1.1/"
   xmlns:cc="http://creativecommons.org/ns#"
   xmlns:rdf="http://www.w3.org/1999/02/22-rdf-syntax-ns#"
   xmlns:svg="http://www.w3.org/2000/svg"
   xmlns="http://www.w3.org/2000/svg"
   xmlns:sodipodi="http://sodipodi.sourceforge.net/DTD/sodipodi-0.dtd"
   xmlns:inkscape="http://www.inkscape.org/namespaces/inkscape"
   enable-background="new 0 0 841.89 595.28"
   version="1.1"
   viewBox="0 0 408.6947 473.69544"
   xml:space="preserve"
   id="svg136"
   sodipodi:docname="dog.svg"
   width="408.6947"
   height="473.69547"
   inkscape:version="0.92.4 (5da689c313, 2019-01-14)"><metadata
   id="metadata142"><rdf:RDF><cc:Work
       rdf:about=""><dc:format>image/svg+xml</dc:format><dc:type
         rdf:resource="http://purl.org/dc/dcmitype/StillImage" /><dc:title></dc:title></cc:Work></rdf:RDF></metadata><defs
   id="defs140" /><sodipodi:namedview
   pagecolor="#ffffff"
   bordercolor="#666666"
   borderopacity="1"
   objecttolerance="10"
   gridtolerance="10"
   guidetolerance="10"
   inkscape:pageopacity="0"
   inkscape:pageshadow="2"
   inkscape:window-width="1920"
   inkscape:window-height="1043"
   id="namedview138"
   showgrid="false"
   fit-margin-top="0"
   fit-margin-left="0"
   fit-margin-right="0"
   fit-margin-bottom="0"
   inkscape:zoom="0.38841178"
   inkscape:cx="-356.58508"
   inkscape:cy="240.13922"
   inkscape:window-x="1600"
   inkscape:window-y="18"
   inkscape:window-maximized="0"
   inkscape:current-layer="svg136" />
<path
   d="m 234.58616,51.316243 c 0,0 58.191,-9.028 77.969,1.064 30.096,15.36 47.475,62.439997 44.428,90.339997 -1.291,11.828 -10.1,29.054 -40.066,25.686 -23.91,-2.688 -31.523,-21.259 -32.68,-32.772 -1.381,-13.763 13.297,-44.358997 4.625,-55.134997 -7.361,-9.144 -46.836,-3.345 -46.836,-3.345 z"
   id="path2"
   inkscape:connector-curvature="0"
   style="fill:#b88e2e" />
<path
   d="m 235.00616,51.316243 c 0,0 58.191,-9.028 77.969,1.064 30.096,15.36 47.475,62.439997 44.428,90.339997 -1.291,11.828 -10.1,29.054 -40.064,25.686 -23.912,-2.688 -31.525,-21.259 -32.682,-32.772 -1.381,-13.763 13.297,-44.358997 4.625,-55.134997 -7.359,-9.144 -46.836,-3.345 -46.836,-3.345 z"
   id="path4"
   inkscape:connector-curvature="0"
   style="fill:#b88e2e" />
<path
   d="m 352.18616,155.77624 c -5.301,8.18 -15.84,14.847 -35.512,12.63 -23.918,-2.693 -31.521,-21.255 -32.688,-32.774 -1.381,-13.767 13.307,-44.352997 4.623,-55.137997 -7.359,-9.145 -46.83,-3.341 -46.83,-3.341 l -7.443,-25.834 13.844,15.264 c 0,0 46.332,-5.802 53.691,3.342 8.668,10.771 -6.004,41.370997 -4.621,55.136997 1.15,11.506 8.77,30.082 32.688,32.775 9.33,1.051 16.601,0.099 22.248,-2.061 z"
   id="path6"
   inkscape:connector-curvature="0"
   style="fill:#b38a2c" />
<path
   d="m 229.88616,335.19624 c 0,0 -64.08,-35.281 -67.678,40.686 -0.498,10.543 23.758,34.914 23.758,34.914 0,0 -40.557,4.621 -23.76,44.639 2.959,7.051 21.911,8.518 29.537,7.93 9.674,-0.746 30.877,-0.773 38.143,-7.209 7.586,-6.719 15.781,-28.246 13.68,-38.16 -1.957,-9.23 -21.6,-30.961 -21.6,-30.961 z"
   id="path8"
   inkscape:connector-curvature="0"
   style="fill:#b88e2e" />
<path
   d="m 142.63616,292.38624 c -10.665,0 -22.059,1.082 -32.637,-0.215 -12.358999,-1.514 -23.145999,-8.264 -35.546999,-3.861 -13.962,4.959 -13.09,13.684 -17.182,25.943 -2.916,8.74 -8.739,14.215 -14.688,21.068 -15.093,17.393 -8.525,40.078 14.66,43.248 19.311,2.641 42.366,-5.145 49.712999,-24.51 0.927,-2.443 1.096,-6.111 1.243,-8.748 8.746,3.109 20.087,4.264 29.705,4.67 10.837,0.461 15.687,0.891 16.998,-10.793 1.011,-9 1.588,-47.65 -12.267,-47.762"
   id="path10"
   inkscape:connector-curvature="0"
   style="fill:#b88e2e" />
<path
   d="m 155.53616,339.19624 c -1.31,11.68 -6.164,11.248 -16.992,10.785 -9.618,-0.402 -20.966,-1.555 -29.707,-4.664 -0.144,2.635 -0.316,6.307 -1.238,8.74 -7.358,19.367 -30.412999,27.158 -49.723999,24.508 -10.973,-1.498 -18.23,-7.373 -21.211,-14.99 3.83,3.76 9.26,6.438 16.172,7.389 19.31,2.635 42.364,-5.141 49.722999,-24.51 0.922,-2.449 1.094,-6.119 1.238,-8.756 8.741,3.111 20.088,4.262 29.707,4.682 10.829,0.459 15.682,0.893 16.992,-10.801 0.705,-6.25 1.195,-26.828 -3.211,-38.838 9.705,6.826 9.145,38.434 8.251,46.455 z"
   id="path12"
   inkscape:connector-curvature="0"
   style="fill:#b38a2c" />
<path
   d="m 402.79616,310.62624 c 0,0 -4.129,54.83 -13.68,69.84 -20.16,31.68 -53.279,21.244 -53.279,21.244 l -10.555,35.23 c 0,0 59.514,0 73.914,-35.23 19.018,-46.529 3.6,-91.084 3.6,-91.084 z"
   id="path14"
   inkscape:connector-curvature="0"
   style="fill:#b88e2e" />
<path
   d="m 399.18616,400.50624 c -14.4,35.223 -73.902,35.223 -73.902,35.223 l 4.422,-14.76 c 15.193,-1.023 56.563,-6.424 68.242,-35.006 8.164,-19.988 9.979,-39.602 9.402,-55.484 2.332,17.351 2.736,43.359 -8.164,70.027 z"
   id="path16"
   inkscape:connector-curvature="0"
   style="fill:#b38a2c" />
<path
   d="m 126.18616,318.54624 c 12.131,75.602 74.832,87.84 74.832,87.84 0,0 55.02,73.938 122.58,31.68 94.32,-58.996 -62.641,-205.2 -62.641,-205.2 l -127.44,2.161 c 0,-0.001 -10.512,63.696 -7.331,83.518 z"
   id="path18"
   inkscape:connector-curvature="0"
   style="fill:#b88e2e" />
<path
   d="m 201.24616,405.50624 c 0,0 -62.711,-12.238 -74.837,-87.838 -3.182,-19.828 7.331,-83.521 7.331,-83.521 l 15.565,-0.26 c -2.605,17.05 -8.769,60.769 -6.249,76.58 12.138,75.6 74.836,87.84 74.836,87.84 z"
   id="path20"
   inkscape:connector-curvature="0"
   style="fill:#b38a2c" />
<path
   d="m 216.05616,356.54624 c 0,16.516 -10.537,49.838 -10.537,49.838 0,0 -70.837,-6.984 -78.829,-93.385 -0.446,-4.881 -0.246,-12.383 0.331,-20.908 9.188,-9.043 20.404,-14.355 32.516,-14.355 31.218,-0.001 56.519,35.294 56.519,78.81 z"
   id="path22"
   inkscape:connector-curvature="0"
   style="fill:#feeea2" />
	<path
   d="m 162.87616,271.11624 c 0,-3.105 -3.224,-5.623 -7.199,-5.623 -3.977,0 -7.2,2.518 -7.2,5.623 v 22.773 c 0,3.107 3.224,5.623 7.2,5.623 3.976,0 7.199,-2.516 7.199,-5.623 z"
   id="path24"
   inkscape:connector-curvature="0"
   style="fill:#feda12" />
	<path
   d="m 162.87616,271.11624 v 22.781 c 0,1.557 -0.806,2.951 -2.102,3.975 -1.312,1.008 -3.111,1.641 -5.098,1.641 -1.312,0 -2.549,-0.273 -3.601,-0.762 0.548,-0.23 1.052,-0.533 1.498,-0.879 1.296,-1.023 2.103,-2.418 2.103,-3.975 v -22.781 c 0,-2.072 -1.44,-3.889 -3.601,-4.854 1.052,-0.488 2.289,-0.762 3.601,-0.762 3.974,10e-4 7.2,2.521 7.2,5.616 z"
   id="path26"
   inkscape:connector-curvature="0"
   style="opacity:0.3;fill:#cf6e28" />
	<ellipse
   cx="155.99615"
   cy="311.57623"
   rx="25.92"
   ry="26.641001"
   id="ellipse28"
   style="fill:#feda12" />
	<path
   d="m 181.91616,311.57624 c 0,14.717 -11.606,26.641 -25.92,26.641 -1.729,0 -3.414,-0.174 -5.04,-0.52 11.895,-2.389 20.88,-13.176 20.88,-26.121 0,-12.945 -8.985,-23.732 -20.88,-26.121 1.626,-0.346 3.312,-0.52 5.04,-0.52 14.314,10e-4 25.92,11.924 25.92,26.641 z"
   id="path30"
   inkscape:connector-curvature="0"
   style="opacity:0.3;fill:#cf6e28" />
	<path
   d="m 276.97616,245.63624 v 5.816 c 0,14.516 -34.014,26.281 -75.961,26.281 -41.946,0 -75.96,-11.766 -75.96,-26.281 0,-0.979 0.362,-2.412 0.362,-3.369 4.177,13.148 36.487,23.834 75.598,23.834 39.111,0 71.324,-10.225 75.5,-23.371 0.302,-0.951 0.461,-1.932 0.461,-2.91 z"
   id="path32"
   inkscape:connector-curvature="0"
   style="fill:#feda12" />
	<path
   d="m 276.97616,246.53624 c 0,0.979 -0.158,1.957 -0.461,2.908 -4.176,13.146 -36.389,23.371 -75.5,23.371 -39.11,0 -71.322,-10.225 -75.499,-23.371 -0.303,-0.951 -0.461,-1.93 -0.461,-2.908 0,-3.629 2.132,-7.1 5.991,-10.224 1.224,1.008 2.62,1.972 4.19,2.907 13.132,7.848 37.67,13.133 65.778,13.133 28.109,0 52.648,-5.285 65.779,-13.133 1.568,-0.936 2.967,-1.899 4.191,-2.907 3.859,-3.139 5.992,10.224 5.992,10.224 z"
   id="path34"
   inkscape:connector-curvature="0"
   style="fill:#cf6e28" />
	<path
   d="m 276.97616,245.63624 v 5.816 c 0,14.516 -34.014,26.281 -75.961,26.281 -41.946,0 -75.96,-11.766 -75.96,-26.281 0,-0.979 0.362,-2.412 0.362,-3.369 4.177,13.148 36.487,23.834 75.598,23.834 39.111,0 71.324,-10.225 75.5,-23.371 0.302,-0.951 0.461,-1.932 0.461,-2.91 z"
   id="path36"
   inkscape:connector-curvature="0"
   style="opacity:0.3;fill:#cf6e28" />
<path
   d="m 157.58616,49.006243 c 0,0 -48.686,-45.0859998 -70.632999,-48.45999976 -27.741,-4.26600004 -66.432,17.13299976 -81.9200003,40.53899976 -6.566,9.922 -10.801,28.8 14.3990003,45.359 20.109,13.216 37.834,3.797 46.079,-4.319 9.858,-9.703 27.805,-34.706 41.431999,-35.608 8.338,-0.552 28.409,17.608 28.409,17.608 z"
   id="path38"
   inkscape:connector-curvature="0"
   style="fill:#b88e2e" />
<path
   d="m 184.99616,37.026243 c -109.799999,0 -81,135.359997 -81,135.359997 h 169.2 c 0,0.001 32.401,-135.359997 -88.199,-135.359997 z"
   id="path40"
   inkscape:connector-curvature="0"
   style="fill:#b88e2e" />
<path
   d="m 150.79616,254.46624 c 0,0 10.8,15.84 34.2,15.84 29.404,0 37.719,-15.84 37.719,-15.84 0,0 66.924,-9.553 67.762,-48.959 1.16,-54.72 -56.16,-43.2 -56.16,-43.2 0,0 -18,-18 -49.32,-18 -34.2,0 -51.841,14.04 -51.841,14.04 0,0 -54.358999,-17.641 -54.358999,43.764 -0.001,38.675 71.998999,52.355 71.998999,52.355 z"
   id="path42"
   inkscape:connector-curvature="0"
   style="fill:#feeea2" />
<ellipse
   cx="228.82617"
   cy="114.15625"
   rx="27.809"
   ry="31.774"
   id="ellipse44"
   style="fill:#ffffff" />
<ellipse
   cx="141.43616"
   cy="114.15625"
   rx="27.809"
   ry="31.774"
   id="ellipse46"
   style="fill:#ffffff" />
<ellipse
   cx="141.36615"
   cy="113.34624"
   rx="15.185"
   ry="16.559999"
   id="ellipse48" />
<ellipse
   cx="139.27615"
   cy="107.98625"
   rx="5.7600002"
   ry="6.1659999"
   id="ellipse50"
   style="fill:#ffffff" />
<ellipse
   cx="180.67618"
   cy="172.38625"
   rx="35.639999"
   ry="17.280001"
   id="ellipse52" />
<path
   d="m 109.03616,181.02624 c 0,0 0,34.56 19.44,39.642 30.902,8.079 55.44,-5.803 55.44,-5.803 0,0 38.798,12.961 55.438,4.32 19.686,-10.221 21.6,-38.159 21.6,-38.159"
   stroke-miterlimit="10"
   id="path54"
   inkscape:connector-curvature="0"
   style="fill:none;stroke:#000000;stroke-width:1.83449996;stroke-miterlimit:10" />
<path
   d="m 158.00616,49.006243 c 0,0 -48.686,-45.0859998 -70.632999,-48.45999976 -27.741,-4.26600004 -66.432,17.13299976 -81.9200003,40.53899976 -6.566,9.922 -10.801,28.8 14.3990003,45.359 20.109,13.216 37.834,3.797 46.081,-4.319 9.857,-9.703 27.803,-34.706 41.431999,-35.608 8.336,-0.552 28.407,17.608 28.407,17.608 z"
   id="path56"
   inkscape:connector-curvature="0"
   style="fill:#b88e2e" />
<path
   d="m 185.41616,37.026243 c -109.799999,0 -81,135.359997 -81,135.359997 h 169.2 c 0,0.001 32.401,-135.359997 -88.199,-135.359997 z"
   id="path58"
   inkscape:connector-curvature="0"
   style="fill:#b88e2e" />
<path
   d="m 151.21616,254.46624 c 0,0 10.8,15.84 34.2,15.84 29.404,0 37.721,-15.84 37.721,-15.84 0,0 66.922,-9.553 67.76,-48.959 1.16,-54.72 -56.16,-43.2 -56.16,-43.2 0,0 -18,-18 -49.32,-18 -34.2,0 -51.839,14.04 -51.839,14.04 0,0 -54.360999,-17.641 -54.360999,43.764 -0.001,38.675 71.998999,52.355 71.998999,52.355 z"
   id="path60"
   inkscape:connector-curvature="0"
   style="fill:#feeea2" />
<ellipse
   cx="223.06616"
   cy="114.15625"
   rx="5.7600002"
   ry="6.1680002"
   id="ellipse62"
   style="fill:#ffffff" />
<ellipse
   cx="185.41617"
   cy="172.38625"
   rx="35.639"
   ry="17.280001"
   id="ellipse64" />
<path
   d="m 157.59616,50.816243 -22.233,15.12 c 0,0 -20.074,-18.158 -28.412,-17.611 -13.635999,0.907 -31.577999,25.905 -41.427999,35.611 -8.251,8.122 -25.977,17.538997 -46.079,4.319 -18.66200026,-12.269 -21.1830003,-25.791 -18.57700026,-36.028 1.91499996,7.314 7.31499996,15.192 18.57700026,22.594 20.103,13.205 37.828,3.786 46.079,-4.32 9.85,-9.706 27.792,-34.719 41.427999,-35.611 8.338,-0.562 28.412,17.611 28.412,17.611 l 13.695,-9.303 c 5.256,4.58 8.538,7.618 8.538,7.618 z"
   id="path66"
   inkscape:connector-curvature="0"
   style="fill:#b38a2c" />
<path
   d="m 277.20616,146.97624 c -2.607,-38.736 -20.363,-86.213997 -91.8,-86.213997 -65.563,0 -81.705,48.269997 -84.082,87.148997 -2.217999,-39.239 4.825,-109.759997 84.082,-109.759997 86.357,0 94.263,69.392997 91.8,108.819997 z"
   id="path68"
   inkscape:connector-curvature="0"
   style="fill:#b38a2c" />
<path
   d="m 291.24616,205.50624 c -0.016,0.576 -0.045,1.151 -0.088,1.729 -2.463,-48.788 -56.072,-38.018 -56.072,-38.018 0,0 -18,-18 -49.32,-18 -34.2,0 -51.839,14.041 -51.839,14.041 0,0 -51.625999,-16.748 -54.259999,39.24 -0.073,-0.793 -0.102,-1.584 -0.102,-2.39 0,-61.403 54.360999,-43.763 54.360999,-43.763 0,0 17.639,-14.04 51.839,-14.04 31.32,0 49.32,18 49.32,18 0,0 57.312,-11.519 56.161,43.201 z"
   id="path70"
   inkscape:connector-curvature="0"
   style="opacity:0.1;fill:#b38a2c" />
<path
   d="m 290.47616,208.10624 c -0.836,39.412 -67.768,48.959 -67.768,48.959 0,0 -8.309,15.84 -37.713,15.84 -23.4,0 -34.2,-15.84 -34.2,-15.84 0,0 -71.999999,-13.68 -71.999999,-52.357 0,-4.768 0.332,-9.058 0.937,-12.918 8.409,32.991 71.062999,44.901 71.062999,44.901 0,0 10.8,15.839 34.2,15.839 29.404,0 37.713,-15.839 37.713,-15.839 0,0 58.422,-8.353 66.789,-41.574 0.719,3.844 1.078,8.165 0.979,12.989 z"
   id="path72"
   inkscape:connector-curvature="0"
   style="opacity:0.1;fill:#b38a2c" />
<path
   d="m 232.90616,391.06624 c 1.77,15.314 23.756,34.914 23.756,34.914 0,0 -83.32,-14.559 -56.174,42.715 3.273,6.908 39.896,4.646 60.885,4.646 61.502,0 101.67,-13.752 90.627,-103.68 -7.523,-61.311 -131.59,-86.802 -119.09,21.407 z"
   id="path74"
   inkscape:connector-curvature="0"
   style="fill:#b88e2e" />
<path
   d="m 262.49616,472.82624 c -9.346,0 -21.785,0.445 -33.004,0.332 8.352,-0.086 16.732,-0.332 23.486,-0.332 56.65,0 95.199,-11.664 92.305,-83.793 -0.244,-6.178 -0.807,-12.801 -1.67,-19.887 -0.029,-0.273 -0.072,-0.531 -0.117,-0.793 -0.719,-3.512 -1.641,-7.055 -2.736,-10.611 -11.365,-36.838 -41.42,-75.143 -63.291,-99.57 -0.389,-0.434 -1.764,-1.895 -1.764,-1.895 0,0 0.725,-1.725 1.023,-2.67 0.309,-0.98 0.398,-4.426 0.398,-4.426 0,0 59.912,62.396 73.152,108.56 1.027,3.576 2.018,7.1 2.736,10.611 0.043,0.262 0.086,0.52 0.117,0.793 0.861,7.086 1.424,13.709 1.668,19.887 2.898,72.129 -35.652,83.793 -92.303,83.793 z"
   id="path76"
   inkscape:connector-curvature="0"
   style="fill:#b38a2c" />
<path
   d="m 353.83616,389.02624 c -0.244,-6.178 -0.805,-12.801 -1.668,-19.887 -0.029,-0.273 -0.074,-0.531 -0.115,-0.793 1.467,7.044 2.115,13.969 1.783,20.68 z"
   id="path78"
   inkscape:connector-curvature="0"
   style="fill:#b38a2c" />
<path
   d="m 352.05616,368.34624 c -0.721,-3.512 -1.643,-7.055 -2.738,-10.611 1.296,3.384 2.232,6.925 2.738,10.611 z"
   id="path80"
   inkscape:connector-curvature="0"
   style="fill:#b38a2c" />
<path
   d="m 344.31616,389.02624 c -0.244,-6.178 -0.807,-12.801 -1.67,-19.887 -0.029,-0.273 -0.072,-0.531 -0.115,-0.793 1.469,7.044 2.117,13.969 1.785,20.68 z"
   id="path82"
   inkscape:connector-curvature="0"
   style="fill:#b38a2c" />
<path
   d="m 342.53616,368.34624 c -0.721,-3.512 -1.643,-7.055 -2.736,-10.611 1.297,3.384 2.232,6.925 2.736,10.611 z"
   id="path84"
   inkscape:connector-curvature="0"
   style="fill:#b38a2c" />
<path
   d="m 270.72616,431.18624 c 0,0 -81.948,-14.314 -56.82,41.314 -7.129,-0.664 -12.283,-1.959 -13.422,-4.363 -27.144,-57.27 56.176,-42.711 56.176,-42.711 z"
   id="path86"
   inkscape:connector-curvature="0"
   style="fill:#b38a2c" />
<path
   d="m 179.22616,340.90624 c -10.153,23.791 -16.97,54.209 -36.028,72.266 -11.692,11.078 -44.721999,2.568 -40.151,38.365 1.452,11.377 17.926,15.531 28.577,16.709 41.732,4.613 53.128,-27.691 57.246,-39.064 4.318,-11.926 67.294,-55.852 56.731,-96.605 -4.496,-17.352 -29.199,-29.814 -45.006,-21.686 -14.909,7.666 -15.563,19.896 -22.559,32.396"
   id="path88"
   inkscape:connector-curvature="0"
   style="fill:#b88e2e" />
<path
   d="m 188.86616,429.18624 c -4.118,11.377 -15.509,43.689 -57.239,39.066 -6.149,-0.676 -14.242,-2.346 -20.261,-5.832 4.349,1.369 8.898,2.174 12.699,2.594 41.732,4.621 53.123,-27.691 57.24,-39.068 4.321,-11.924 67.292,-55.844 56.735,-96.596 -2.102,-8.063 -8.539,-15.063 -16.43,-19.439 11.102,3.428 21.256,12.154 23.99,22.68 10.556,40.751 -52.413,84.671 -56.734,96.595 z"
   id="path90"
   inkscape:connector-curvature="0"
   style="fill:#b38a2c" />
	<path
   d="m 324.04616,240.90624 c -7.547,4.592 -19.6,-1.441 -26.941,-13.481 -1.672,-2.736 -2.953,-5.558 -3.832,-8.321 h -49.363 c 0,0 6.916,-8.938 8.725,-12.227 1.313,-2.384 4.104,-10.08 4.104,-10.08 h 37.457 c 0.359,-1.771 0.865,-3.571 1.514,-5.371 4.736,-13.277 15.32,-21.629 23.629,-18.662 8.324,2.966 11.217,16.143 6.465,29.419 -0.805,2.261 -1.785,4.392 -2.893,6.336 0.52,0.733 1.021,1.482 1.498,2.276 7.327,12.023 7.168,25.515 -0.363,30.111 z"
   id="path92"
   inkscape:connector-curvature="0"
   style="fill:#fffde9" />
	<path
   d="m 315.67616,242.19624 c -0.963,0.293 -11.232,-3.018 -18.578,-15.057 -1.67,-2.736 -2.951,-5.559 -3.83,-8.324 h -49.363 c 0,0 3.27,-4.232 5.891,-7.935 h 43.473 c 0.879,2.766 2.16,5.589 3.83,8.324 7.346,12.039 20.697,19.726 26.943,13.478 0.902,-0.901 -1.132,7.317 -8.366,9.514 z"
   id="path94"
   inkscape:connector-curvature="0"
   style="opacity:0.1;fill:#b38a2c" />
	<path
   d="m 324.03616,240.91624 c -2.418,1.471 -5.313,1.844 -8.365,1.283 1.182,-0.232 2.289,-0.662 3.326,-1.283 7.531,-4.606 7.689,-18.1 0.359,-30.123 -0.475,-0.793 -0.979,-1.541 -1.496,-2.276 1.109,-1.942 2.088,-4.074 2.895,-6.335 4.752,-13.277 1.857,-26.454 -6.467,-29.419 -0.346,-0.13 -0.705,-0.23 -1.066,-0.302 2.09,-0.462 4.162,-0.39 6.107,0.302 8.324,2.965 11.217,16.142 6.465,29.419 -0.807,2.261 -1.785,4.393 -2.895,6.335 0.518,0.735 1.021,1.483 1.498,2.276 7.331,12.023 7.172,25.517 -0.361,30.123 z"
   id="path96"
   inkscape:connector-curvature="0"
   style="opacity:0.1;fill:#b38a2c" />
	<path
   d="m 41.606161,240.90624 c 7.545,4.592 19.6,-1.441 26.942,-13.48 1.671,-2.736 2.952,-5.557 3.831,-8.322 h 49.361999 c 0,0 -6.914,-8.936 -8.724,-12.226 -1.313,-2.384 -4.103,-10.08 -4.103,-10.08 H 71.457161 c -0.359,-1.771 -0.864,-3.571 -1.513,-5.371 -4.737,-13.277 -15.321,-21.629 -23.63,-18.663 -8.323,2.967 -11.217,16.143 -6.466,29.419 0.806,2.262 1.786,4.394 2.895,6.337 -0.52,0.734 -1.022,1.482 -1.498,2.275 -7.329,12.024 -7.171,25.517 0.361,30.111 z"
   id="path98"
   inkscape:connector-curvature="0"
   style="fill:#fffde9" />
	<path
   d="m 49.786161,242.15624 c 1.376,0.289 12.168,-4.159 18.766,-15.018 1.612,-2.653 2.871,-5.381 3.747,-8.061 l 0.084,-0.261 h 49.362999 c 0,0 -3.269,-4.234 -5.891,-7.936 H 72.382161 c -0.879,2.766 -2.16,5.588 -3.831,8.324 -7.344,12.04 -22.251,20.965 -26.941,13.479 -0.412,-0.657 0.719,7.907 8.176,9.473 z"
   id="path100"
   inkscape:connector-curvature="0"
   style="opacity:0.1;fill:#b38a2c" />
	<path
   d="m 41.606161,240.91624 c 2.419,1.471 5.313,1.846 8.366,1.283 -1.182,-0.23 -2.289,-0.662 -3.326,-1.283 -7.531,-4.604 -7.691,-18.099 -0.359,-30.123 0.476,-0.791 0.979,-1.54 1.497,-2.275 -1.109,-1.943 -2.088,-4.074 -2.896,-6.336 -4.752,-13.276 -1.857,-26.453 6.467,-29.419 0.346,-0.13 0.705,-0.23 1.064,-0.302 -2.088,-0.461 -4.16,-0.39 -6.105,0.302 -8.323,2.966 -11.217,16.143 -6.466,29.419 0.808,2.262 1.786,4.393 2.896,6.336 -0.52,0.735 -1.021,1.484 -1.498,2.275 -7.331,12.024 -7.173,25.519 0.36,30.123 z"
   id="path102"
   inkscape:connector-curvature="0"
   style="opacity:0.1;fill:#b38a2c" />
<ellipse
   cx="228.82617"
   cy="113.34624"
   rx="33.648998"
   ry="38.445999"
   id="ellipse104"
   style="fill:#b38a2c" />
<ellipse
   cx="139.69617"
   cy="113.34624"
   rx="33.648998"
   ry="38.445999"
   id="ellipse106"
   style="fill:#b38a2c" />
<ellipse
   cx="229.24615"
   cy="114.15625"
   rx="27.809"
   ry="31.774"
   id="ellipse108"
   style="fill:#ffffff" />
<ellipse
   cx="228.82617"
   cy="114.15625"
   rx="18.375"
   ry="20.037001"
   id="ellipse110" />
<ellipse
   cx="228.82617"
   cy="113.34624"
   rx="15.186"
   ry="16.559999"
   id="ellipse112" />
<ellipse
   cx="223.06616"
   cy="114.15625"
   rx="5.7600002"
   ry="6.1680002"
   id="ellipse114"
   style="fill:#ffffff" />
<ellipse
   cx="141.85617"
   cy="114.15625"
   rx="27.809"
   ry="31.774"
   id="ellipse116"
   style="fill:#ffffff" />
<ellipse
   cx="141.85617"
   cy="113.34624"
   rx="18.375"
   ry="20.037001"
   id="ellipse118" />
<ellipse
   cx="141.78616"
   cy="113.34624"
   rx="15.186"
   ry="16.559999"
   id="ellipse120" />
<ellipse
   cx="145.45618"
   cy="114.15625"
   rx="5.7600002"
   ry="6.1680002"
   id="ellipse122"
   style="fill:#ffffff" />
<path
   d="m 184.64616,232.34624 c 15.715,0 21.006,-12.034 21.006,-12.034 l -21.317,-5.445 -16.932,6.124 c 0,0 4.815,11.355 17.243,11.355 z"
   stroke-miterlimit="10"
   id="path124"
   inkscape:connector-curvature="0"
   style="fill:#ffd796;stroke:#ccb075;stroke-width:2.88000011;stroke-miterlimit:10" />
<path
   d="m 109.45616,181.02624 c 0,0 0,34.56 19.44,39.642 30.902,8.079 55.44,-5.803 55.44,-5.803 0,0 38.8,12.961 55.438,4.32 19.686,-10.221 21.602,-38.159 21.602,-38.159"
   stroke-miterlimit="10"
   id="path126"
   inkscape:connector-curvature="0"
   style="fill:none;stroke:#ccb075;stroke-width:2.88000011;stroke-linecap:round;stroke-linejoin:round;stroke-miterlimit:10" />
<path
   d="m 97.916161,187.16624 c 0,0 0.75,-11.28 10.559999,-12.24 8.011,-0.783 12.511,7.92 12.511,7.92"
   stroke-miterlimit="10"
   id="path128"
   inkscape:connector-curvature="0"
   style="fill:none;stroke:#ccb075;stroke-width:2.88000011;stroke-linecap:round;stroke-linejoin:round;stroke-miterlimit:10" />
<path
   d="m 272.49616,187.16624 c 0,0 -0.752,-11.28 -10.561,-12.24 -8.012,-0.783 -12.512,7.921 -12.512,7.921"
   stroke-miterlimit="10"
   id="path130"
   inkscape:connector-curvature="0"
   style="fill:none;stroke:#ccb075;stroke-width:2.88000011;stroke-linecap:round;stroke-linejoin:round;stroke-miterlimit:10" />
<polygon
   points="447.37,488.58 430.41,473.71 428.8,475.07 443.13,489.24 "
   id="polygon132"
   style="fill:#b38a2c"
   transform="translate(-223.99384,-64.083757)" />
<path
   d="m 235.60616,391.53624 -2.775,-1.174 c 0,0 5.146,13.645 8.945,19.26 2.928,4.33 13.994,15.537 13.994,15.537 0,0 -10.934,-13.994 -13.053,-17.398 -3.586,-5.762 -7.111,-16.225 -7.111,-16.225 z"
   id="path134"
   inkscape:connector-curvature="0"
   style="fill:#b38a2c" />
</svg>