<?xml version="1.0" encoding="UTF-8" standalone="no"?>
<!-- Created with Inkscape (http://www.inkscape.org/) -->

<svg
   xmlns:dc="http://purl.org/dc/elements/1.1/"
   xmlns:cc="http://creativecommons.org/ns#"
   xmlns:rdf="http://www.w3.org/1999/02/22-rdf-syntax-ns#"
   xmlns:svg="http://www.w3.org/2000/svg"
   xmlns="http://www.w3.org/2000/svg"
   xmlns:sodipodi="http://sodipodi.sourceforge.net/DTD/sodipodi-0.dtd"
   xmlns:inkscape="http://www.inkscape.org/namespaces/inkscape"
   width="96.195679mm"
   height="9.4361162mm"
   viewBox="0 0 96.195678 9.4361163"
   version="1.1"
   id="svg8"
   inkscape:version="0.92.4 (5da689c313, 2019-01-14)"
   sodipodi:docname="two.svg">
  <defs
     id="defs2" />
  <sodipodi:namedview
     id="base"
     pagecolor="#ffffff"
     bordercolor="#666666"
     borderopacity="1.0"
     inkscape:pageopacity="0.0"
     inkscape:pageshadow="2"
     inkscape:zoom="0.35"
     inkscape:cx="-303.63281"
     inkscape:cy="-358.44577"
     inkscape:document-units="mm"
     inkscape:current-layer="text817"
     showgrid="false"
     fit-margin-top="0"
     fit-margin-left="0"
     fit-margin-right="0"
     fit-margin-bottom="0"
     inkscape:window-width="1920"
     inkscape:window-height="1043"
     inkscape:window-x="1600"
     inkscape:window-y="18"
     inkscape:window-maximized="0" />
  <metadata
     id="metadata5">
    <rdf:RDF>
      <cc:Work
         rdf:about="">
        <dc:format>image/svg+xml</dc:format>
        <dc:type
           rdf:resource="http://purl.org/dc/dcmitype/StillImage" />
        <dc:title></dc:title>
      </cc:Work>
    </rdf:RDF>
  </metadata>
  <g
     inkscape:label="Layer 1"
     inkscape:groupmode="layer"
     id="layer1"
     transform="translate(-22.8838,-44.180465)">
    <g
       aria-label="An Incorrect Solution To Comic #1663"
       style="font-style:normal;font-weight:normal;font-size:10.58333302px;line-height:1.25;font-family:sans-serif;letter-spacing:0px;word-spacing:0px;fill:#000000;fill-opacity:1;stroke:none;stroke-width:0.26458332"
       id="text817">
      <g
         aria-label="(the dinosaur one)"
         style="font-style:normal;font-weight:normal;font-size:10.58333302px;line-height:1.25;font-family:sans-serif;letter-spacing:0px;word-spacing:0px;fill:#000000;fill-opacity:1;stroke:none;stroke-width:0.07000434"
         id="text907">
        <path
           d="m 25.255748,44.1908 q -0.692464,1.188558 -1.028361,2.351278 -0.335897,1.162719 -0.335897,2.356445 0,1.193725 0.335897,2.36678 0.341064,1.167888 1.028361,2.351278 H 24.428925 Q 23.653779,52.402185 23.266205,51.22913 22.8838,50.056075 22.8838,48.898523 q 0,-1.152385 0.382405,-2.320272 0.382406,-1.167887 1.16272,-2.387451 z"
           style="stroke-width:0.07000434"
           id="path913"
           inkscape:connector-curvature="0" />
        <path
           d="m 28.046275,44.790247 v 1.64331 h 1.958537 v 0.738973 h -1.958537 v 3.141927 q 0,0.707967 0.191203,0.909505 0.19637,0.201538 0.790649,0.201538 h 0.976685 v 0.795817 h -0.976685 q -1.100708,0 -1.519287,-0.408244 -0.418579,-0.413411 -0.418579,-1.498616 V 47.17253 h -0.697632 v -0.738973 h 0.697632 v -1.64331 z"
           style="stroke-width:0.07000434"
           id="path915"
           inkscape:connector-curvature="0" />
        <path
           d="m 36.071625,48.727991 v 3.493326 h -0.950846 v -3.462321 q 0,-0.821655 -0.320394,-1.229899 -0.320394,-0.408243 -0.961182,-0.408243 -0.769979,0 -1.214396,0.490926 -0.444417,0.490926 -0.444417,1.338419 v 3.271118 h -0.956014 v -8.040852 h 0.956014 v 3.152262 q 0.341064,-0.521932 0.800984,-0.780314 0.465088,-0.258382 1.069702,-0.258382 0.997356,0 1.508952,0.620117 0.511597,0.614949 0.511597,1.813843 z"
           style="stroke-width:0.07000434"
           id="path917"
           inkscape:connector-curvature="0" />
        <path
           d="m 42.929088,49.089726 v 0.465087 h -4.371826 q 0.06201,0.981853 0.589111,1.498617 0.532267,0.511597 1.477946,0.511597 0.54777,0 1.059367,-0.134359 0.516764,-0.134359 1.023193,-0.403076 v 0.89917 q -0.511597,0.217041 -1.049031,0.330729 -0.537435,0.113688 -1.090373,0.113688 -1.384928,0 -2.196248,-0.806152 -0.806153,-0.806153 -0.806153,-2.180746 0,-1.421102 0.764811,-2.253092 0.769979,-0.837158 2.072225,-0.837158 1.167888,0 1.844849,0.754476 0.682129,0.749308 0.682129,2.041219 z m -0.950847,-0.279053 q -0.01033,-0.780314 -0.439249,-1.245402 -0.423747,-0.465088 -1.126546,-0.465088 -0.795817,0 -1.276408,0.449585 -0.475423,0.449585 -0.54777,1.266073 z"
           style="stroke-width:0.07000434"
           id="path919"
           inkscape:connector-curvature="0" />
        <path
           d="m 51.667572,47.312056 v -3.131591 h 0.950846 v 8.040852 h -0.950846 v -0.868164 q -0.299723,0.516765 -0.759644,0.769979 -0.454752,0.248047 -1.09554,0.248047 -1.049032,0 -1.71049,-0.837158 -0.656291,-0.837158 -0.656291,-2.201416 0,-1.364258 0.656291,-2.201416 0.661458,-0.837158 1.71049,-0.837158 0.640788,0 1.09554,0.253214 0.459921,0.248047 0.759644,0.764811 z m -3.240112,2.020549 q 0,1.049031 0.428914,1.648478 0.434082,0.594279 1.188558,0.594279 0.754476,0 1.188558,-0.594279 0.434082,-0.599447 0.434082,-1.648478 0,-1.049032 -0.434082,-1.643311 -0.434082,-0.599446 -1.188558,-0.599446 -0.754476,0 -1.188558,0.599446 -0.428914,0.594279 -0.428914,1.643311 z"
           style="stroke-width:0.07000434"
           id="path921"
           inkscape:connector-curvature="0" />
        <path
           d="m 54.576954,46.433557 h 0.950847 v 5.78776 h -0.950847 z m 0,-2.253092 h 0.950847 v 1.204061 h -0.950847 z"
           style="stroke-width:0.07000434"
           id="path923"
           inkscape:connector-curvature="0" />
        <path
           d="m 62.323253,48.727991 v 3.493326 h -0.950847 v -3.462321 q 0,-0.821655 -0.320393,-1.229899 -0.320394,-0.408243 -0.961182,-0.408243 -0.769979,0 -1.214396,0.490926 -0.444417,0.490926 -0.444417,1.338419 v 3.271118 h -0.956014 v -5.78776 h 0.956014 v 0.89917 q 0.341064,-0.521932 0.800984,-0.780314 0.465088,-0.258382 1.069702,-0.258382 0.997355,0 1.508952,0.620117 0.511597,0.614949 0.511597,1.813843 z"
           style="stroke-width:0.07000434"
           id="path925"
           inkscape:connector-curvature="0" />
        <path
           d="m 66.472868,47.100183 q -0.764811,0 -1.209229,0.599447 -0.444417,0.594279 -0.444417,1.632975 0,1.038696 0.43925,1.638143 0.444417,0.594279 1.214396,0.594279 0.759643,0 1.204061,-0.599447 0.444417,-0.599447 0.444417,-1.632975 0,-1.028361 -0.444417,-1.627808 -0.444418,-0.604614 -1.204061,-0.604614 z m 0,-0.806152 q 1.240234,0 1.948201,0.806152 0.707967,0.806152 0.707967,2.232422 0,1.421102 -0.707967,2.232422 -0.707967,0.806152 -1.948201,0.806152 -1.245402,0 -1.953369,-0.806152 -0.7028,-0.81132 -0.7028,-2.232422 0,-1.42627 0.7028,-2.232422 0.707967,-0.806152 1.953369,-0.806152 z"
           style="stroke-width:0.07000434"
           id="path927"
           inkscape:connector-curvature="0" />
        <path
           d="m 74.389699,46.604089 v 0.89917 q -0.403077,-0.206706 -0.837159,-0.310058 -0.434082,-0.103353 -0.89917,-0.103353 -0.707967,0 -1.064534,0.217041 -0.3514,0.217041 -0.3514,0.651123 0,0.330729 0.253215,0.521932 0.253214,0.186035 1.018025,0.356567 l 0.325562,0.07235 q 1.012858,0.217041 1.436605,0.61495 0.428914,0.39274 0.428914,1.100708 0,0.806152 -0.640788,1.276407 -0.63562,0.470256 -1.751831,0.470256 -0.465088,0 -0.971517,-0.09302 -0.501261,-0.08785 -1.059366,-0.268717 v -0.981852 q 0.527099,0.273885 1.038696,0.413411 0.511597,0.134359 1.012858,0.134359 0.671794,0 1.033529,-0.227376 0.361735,-0.232544 0.361735,-0.651123 0,-0.387574 -0.26355,-0.594279 -0.258382,-0.206706 -1.142049,-0.397909 l -0.33073,-0.07751 q -0.883666,-0.186035 -1.276407,-0.56844 -0.392741,-0.387574 -0.392741,-1.059367 0,-0.816488 0.578776,-1.260905 0.578776,-0.444417 1.64331,-0.444417 0.5271,0 0.992188,0.07751 0.465088,0.07752 0.857829,0.232544 z"
           style="stroke-width:0.07000434"
           id="path929"
           inkscape:connector-curvature="0" />
        <path
           d="m 78.849375,49.311934 q -1.152385,0 -1.596802,0.26355 -0.444417,0.26355 -0.444417,0.89917 0,0.506429 0.330729,0.806152 0.335897,0.294556 0.909505,0.294556 0.790649,0 1.266073,-0.558106 0.48059,-0.563273 0.48059,-1.493448 V 49.311934 Z M 80.7459,48.919193 v 3.302124 h -0.950847 v -0.878499 q -0.325561,0.5271 -0.81132,0.780314 -0.485758,0.248047 -1.188558,0.248047 -0.888834,0 -1.415934,-0.496094 -0.521932,-0.501261 -0.521932,-1.338419 0,-0.976685 0.651123,-1.472779 0.656291,-0.496093 1.953369,-0.496093 h 1.333252 v -0.09302 q 0,-0.656291 -0.434082,-1.012858 -0.428914,-0.361735 -1.209228,-0.361735 -0.496094,0 -0.966349,0.118856 -0.470256,0.118856 -0.904338,0.356567 v -0.878499 q 0.521932,-0.201538 1.012858,-0.299723 0.490926,-0.103353 0.956014,-0.103353 1.255737,0 1.875855,0.651123 0.620117,0.651123 0.620117,1.974039 z"
           style="stroke-width:0.07000434"
           id="path931"
           inkscape:connector-curvature="0" />
        <path
           d="m 82.611418,49.937219 v -3.503662 h 0.950846 v 3.467489 q 0,0.821655 0.320394,1.235066 0.320394,0.408244 0.961182,0.408244 0.769978,0 1.214396,-0.490926 0.449585,-0.490926 0.449585,-1.33842 v -3.281453 h 0.950846 v 5.78776 h -0.950846 v -0.888834 q -0.346232,0.527099 -0.806153,0.785481 -0.454752,0.253215 -1.059367,0.253215 -0.997355,0 -1.514119,-0.620117 -0.516764,-0.620117 -0.516764,-1.813843 z m 2.392618,-3.643188 z"
           style="stroke-width:0.07000434"
           id="path933"
           inkscape:connector-curvature="0" />
        <path
           d="m 92.781337,47.322392 q -0.160197,-0.09302 -0.3514,-0.134359 -0.186035,-0.04651 -0.413411,-0.04651 -0.806153,0 -1.240235,0.5271 -0.428914,0.521932 -0.428914,1.503784 v 3.048909 h -0.956014 v -5.78776 h 0.956014 v 0.89917 q 0.299723,-0.5271 0.780314,-0.780314 0.480591,-0.258382 1.167888,-0.258382 0.09819,0 0.217041,0.0155 0.118855,0.01033 0.263549,0.03617 z"
           style="stroke-width:0.07000434"
           id="path935"
           inkscape:connector-curvature="0" />
        <path
           d="m 99.401091,47.100183 q -0.764812,0 -1.209229,0.599447 -0.444417,0.594279 -0.444417,1.632975 0,1.038696 0.439249,1.638143 0.444418,0.594279 1.214397,0.594279 0.759639,0 1.204059,-0.599447 0.44442,-0.599447 0.44442,-1.632975 0,-1.028361 -0.44442,-1.627808 -0.44442,-0.604614 -1.204059,-0.604614 z m 0,-0.806152 q 1.240229,0 1.948199,0.806152 0.70797,0.806152 0.70797,2.232422 0,1.421102 -0.70797,2.232422 -0.70797,0.806152 -1.948199,0.806152 -1.245402,0 -1.95337,-0.806152 -0.702799,-0.81132 -0.702799,-2.232422 0,-1.42627 0.702799,-2.232422 0.707968,-0.806152 1.95337,-0.806152 z"
           style="stroke-width:0.07000434"
           id="path937"
           inkscape:connector-curvature="0" />
        <path
           d="m 108.4393,48.727991 v 3.493326 h -0.95085 v -3.462321 q 0,-0.821655 -0.32039,-1.229899 -0.3204,-0.408243 -0.96119,-0.408243 -0.76997,0 -1.21439,0.490926 -0.44442,0.490926 -0.44442,1.338419 v 3.271118 h -0.95601 v -5.78776 h 0.95601 v 0.89917 q 0.34107,-0.521932 0.80099,-0.780314 0.46508,-0.258382 1.0697,-0.258382 0.99735,0 1.50895,0.620117 0.5116,0.614949 0.5116,1.813843 z"
           style="stroke-width:0.07000434"
           id="path939"
           inkscape:connector-curvature="0" />
        <path
           d="m 115.29676,49.089726 v 0.465087 h -4.37182 q 0.062,0.981853 0.58911,1.498617 0.53227,0.511597 1.47794,0.511597 0.54777,0 1.05937,-0.134359 0.51677,-0.134359 1.02319,-0.403076 v 0.89917 q -0.51159,0.217041 -1.04903,0.330729 -0.53743,0.113688 -1.09037,0.113688 -1.38493,0 -2.19625,-0.806152 -0.80615,-0.806153 -0.80615,-2.180746 0,-1.421102 0.76481,-2.253092 0.76998,-0.837158 2.07223,-0.837158 1.16788,0 1.84484,0.754476 0.68213,0.749308 0.68213,2.041219 z m -0.95084,-0.279053 q -0.0103,-0.780314 -0.43925,-1.245402 -0.42375,-0.465088 -1.12655,-0.465088 -0.79582,0 -1.27641,0.449585 -0.47542,0.449585 -0.54777,1.266073 z"
           style="stroke-width:0.07000434"
           id="path941"
           inkscape:connector-curvature="0" />
        <path
           d="m 116.70753,44.1908 h 0.82682 q 0.77515,1.219564 1.15756,2.387451 0.38757,1.167887 0.38757,2.320272 0,1.157552 -0.38757,2.330607 -0.38241,1.173055 -1.15756,2.387451 h -0.82682 q 0.6873,-1.18339 1.02319,-2.351278 0.34107,-1.173055 0.34107,-2.36678 0,-1.193726 -0.34107,-2.356445 -0.33589,-1.16272 -1.02319,-2.351278 z"
           style="stroke-width:0.07000434"
           id="path943"
           inkscape:connector-curvature="0" />
      </g>
    </g>
  </g>
</svg>
