<?xml version="1.0" encoding="UTF-8" standalone="no"?>
<!-- Created with Inkscape (http://www.inkscape.org/) -->

<svg
   xmlns:dc="http://purl.org/dc/elements/1.1/"
   xmlns:cc="http://creativecommons.org/ns#"
   xmlns:rdf="http://www.w3.org/1999/02/22-rdf-syntax-ns#"
   xmlns:svg="http://www.w3.org/2000/svg"
   xmlns="http://www.w3.org/2000/svg"
   xmlns:sodipodi="http://sodipodi.sourceforge.net/DTD/sodipodi-0.dtd"
   xmlns:inkscape="http://www.inkscape.org/namespaces/inkscape"
   width="27.058937mm"
   height="9.0487499mm"
   viewBox="0 0 27.058937 9.0487499"
   version="1.1"
   id="svg22139"
   inkscape:version="0.92.4 (5da689c313, 2019-01-14)"
   sodipodi:docname="four.svg">
  <defs
     id="defs22133" />
  <sodipodi:namedview
     id="base"
     pagecolor="#ffffff"
     bordercolor="#666666"
     borderopacity="1.0"
     inkscape:pageopacity="0.0"
     inkscape:pageshadow="2"
     inkscape:zoom="1.979899"
     inkscape:cx="17.618327"
     inkscape:cy="-10.364589"
     inkscape:document-units="mm"
     inkscape:current-layer="text22686"
     showgrid="false"
     inkscape:window-width="1600"
     inkscape:window-height="863"
     inkscape:window-x="0"
     inkscape:window-y="18"
     inkscape:window-maximized="0"
     fit-margin-top="0"
     fit-margin-left="0"
     fit-margin-right="0"
     fit-margin-bottom="0" />
  <metadata
     id="metadata22136">
    <rdf:RDF>
      <cc:Work
         rdf:about="">
        <dc:format>image/svg+xml</dc:format>
        <dc:type
           rdf:resource="http://purl.org/dc/dcmitype/StillImage" />
        <dc:title></dc:title>
      </cc:Work>
    </rdf:RDF>
  </metadata>
  <g
     inkscape:label="Layer 1"
     inkscape:groupmode="layer"
     id="layer1"
     transform="translate(-47.281576,-79.875353)">
    <g
       aria-label="गजमीन"
       style="font-style:normal;font-weight:normal;font-size:10.58333302px;line-height:1.25;font-family:sans-serif;letter-spacing:0px;word-spacing:0px;fill:#a62b74;fill-opacity:1;stroke:none;stroke-width:0.26458332"
       id="text22686">
      <path
         d="m 49.641659,86.11952 q 0,0.1905 -0.02117,0.296333 -0.01058,0.105833 -0.08467,0.1905 -0.07408,0.07408 -0.211667,0.07408 -0.41275,0 -0.9525,-0.60325 -0.53975,-0.613833 -0.53975,-0.92075 0,-0.243416 0.423334,-0.275166 h 0.624416 V 83.209103 H 47.281576 V 82.43652 h 5.736166 v 0.772583 h -0.85725 v 5.715 h -0.762 v -5.715 h -1.756833 z"
         style="fill:#a62b74;fill-opacity:1;stroke-width:0.26458332"
         id="path23304"
         inkscape:connector-curvature="0" />
      <path
         d="m 56.864619,86.257103 q 0,-0.22225 -0.127,-0.497417 -0.116417,-0.275166 -0.232834,-0.433916 -0.105833,-0.169334 -0.3175,-0.4445 -0.211666,-0.275167 -0.232833,-0.306917 v -0.127 h 2.8575 v -1.23825 H 52.800619 V 82.43652 h 7.65175 v 0.772583 h -0.85725 v 5.715 h -0.783167 v -3.71475 h -1.545167 q 0.370417,0.433917 0.370417,1.037167 0,0.846666 -0.4445,1.206499 -0.4445,0.34925 -1.04775,0.370417 -0.47625,0 -0.910167,-0.264583 -0.433916,-0.264584 -0.740833,-0.645583 -0.296333,-0.381 -0.550333,-0.85725 -0.254,-0.47625 -0.391584,-0.8255 -0.127,-0.359834 -0.201083,-0.656167 l 0.624417,-0.4445 q 0.0635,0.47625 0.391583,1.153583 0.328083,0.66675 0.846667,1.217084 0.518583,0.53975 0.994833,0.53975 0.656167,0 0.656167,-0.783167 z"
         style="fill:#a62b74;fill-opacity:1;stroke-width:0.26458332"
         id="path23306"
         inkscape:connector-curvature="0" />
      <path
         d="m 60.496025,85.89727 q 0,-0.137584 0.137583,-0.3175 0.148167,-0.179917 0.275167,-0.179917 h 0.433917 v -2.19075 H 60.242025 V 82.43652 h 5.693833 v 0.772583 h -0.867833 v 5.715 H 64.295442 V 86.18302 h -2.19075 v 0.8255 q 0,0.201083 -0.05292,0.275166 -0.05292,0.07408 -0.275167,0.07408 -0.254,0 -0.772583,-0.592666 -0.508,-0.592667 -0.508,-0.867833 z m 3.799417,-0.497417 v -2.19075 h -2.19075 v 2.19075 z"
         style="fill:#a62b74;fill-opacity:1;stroke-width:0.26458332"
         id="path23308"
         inkscape:connector-curvature="0" />
      <path
         d="m 65.15881,79.875353 q 0.98425,0 1.61925,0.613833 0.635,0.60325 0.635,1.608667 0,0.264583 -0.01058,0.338667 h 0.92075 v 0.772583 h -0.92075 v 5.704416 h -0.762 V 83.209103 H 65.71973 V 82.43652 h 0.941917 q 0.03175,-0.22225 0.03175,-0.328084 0,-0.656166 -0.433917,-1.068916 -0.433916,-0.41275 -1.0795,-0.41275 -0.137583,0 -0.306916,0.03175 -0.169334,0.03175 -0.370417,0.105833 -0.201083,0.0635 -0.338667,0.22225 -0.137583,0.15875 -0.148166,0.370417 0,0.455083 0.497416,1.0795 h -0.8255 q -0.433916,-0.550334 -0.433916,-1.132417 0,-0.508 0.53975,-0.963083 0.529166,-0.465667 1.36525,-0.465667 z"
         style="fill:#a62b74;fill-opacity:1;stroke-width:0.26458332"
         id="path23310"
         inkscape:connector-curvature="0" />
      <path
         d="m 69.239347,86.15127 q -0.5715,-0.635 -0.5715,-0.846667 0,-0.211667 0.148166,-0.402167 0.15875,-0.201083 0.391584,-0.201083 h 3.4925 v -1.49225 H 68.117513 V 82.43652 h 6.223 v 0.772583 h -0.85725 v 5.715 h -0.783166 v -3.46075 H 70.32943 v 0.931333 q 0,0.254 -0.05292,0.3175 -0.05292,0.0635 -0.296333,0.0635 -0.169333,0 -0.740833,-0.624416 z"
         style="fill:#a62b74;fill-opacity:1;stroke-width:0.26458332"
         id="path23312"
         inkscape:connector-curvature="0" />
    </g>
  </g>
</svg>
