<?xml version="1.0" encoding="UTF-8" standalone="no"?>
<!-- Created with Inkscape (http://www.inkscape.org/) -->

<svg
   xmlns:dc="http://purl.org/dc/elements/1.1/"
   xmlns:cc="http://creativecommons.org/ns#"
   xmlns:rdf="http://www.w3.org/1999/02/22-rdf-syntax-ns#"
   xmlns:svg="http://www.w3.org/2000/svg"
   xmlns="http://www.w3.org/2000/svg"
   xmlns:sodipodi="http://sodipodi.sourceforge.net/DTD/sodipodi-0.dtd"
   xmlns:inkscape="http://www.inkscape.org/namespaces/inkscape"
   width="285.3624mm"
   height="23.471437mm"
   viewBox="0 0 285.36239 23.471438"
   version="1.1"
   id="svg8"
   inkscape:version="0.92.4 (5da689c313, 2019-01-14)"
   sodipodi:docname="two.svg">
  <defs
     id="defs2" />
  <sodipodi:namedview
     id="base"
     pagecolor="#ffffff"
     bordercolor="#666666"
     borderopacity="1.0"
     inkscape:pageopacity="0.0"
     inkscape:pageshadow="2"
     inkscape:zoom="0.49497475"
     inkscape:cx="15.50567"
     inkscape:cy="-190.61851"
     inkscape:document-units="mm"
     inkscape:current-layer="text967"
     showgrid="false"
     fit-margin-top="0"
     fit-margin-left="0"
     fit-margin-right="0"
     fit-margin-bottom="0"
     inkscape:window-width="1920"
     inkscape:window-height="1043"
     inkscape:window-x="1600"
     inkscape:window-y="18"
     inkscape:window-maximized="0" />
  <metadata
     id="metadata5">
    <rdf:RDF>
      <cc:Work
         rdf:about="">
        <dc:format>image/svg+xml</dc:format>
        <dc:type
           rdf:resource="http://purl.org/dc/dcmitype/StillImage" />
        <dc:title></dc:title>
      </cc:Work>
    </rdf:RDF>
  </metadata>
  <g
     inkscape:label="Layer 1"
     inkscape:groupmode="layer"
     id="layer1"
     transform="translate(-5.7510233,-86.035243)">
    <g
       aria-label="An Incorrect Solution To Comic #1663"
       style="font-style:normal;font-weight:normal;font-size:10.58333302px;line-height:1.25;font-family:sans-serif;letter-spacing:0px;word-spacing:0px;fill:#000000;fill-opacity:1;stroke:none;stroke-width:0.26458332"
       id="text817">
      <g
         aria-label="Each sigil replaces every occurence of a certain letter. Different sigils replace different letters. The sigils used are arbitrary. But this isn’t enough information to reconstruct the message…"
         style="font-style:normal;font-weight:normal;font-size:10.58333302px;line-height:1.25;font-family:sans-serif;letter-spacing:0px;word-spacing:0px;fill:#000000;fill-opacity:1;stroke:none;stroke-width:0.07000434"
         id="text967">
        <g
           aria-label="The sigils used are arbitrary. But this isn’t enough
information to reconstruct the message…
"
           style="font-style:normal;font-variant:normal;font-weight:normal;font-stretch:normal;font-size:10.58333302px;line-height:1.25;font-family:'Noto Color Emoji';-inkscape-font-specification:'Noto Color Emoji';letter-spacing:0px;word-spacing:0px;fill:#000000;fill-opacity:1;stroke:none;stroke-width:0.01852198"
           id="text373"
           transform="translate(-7.4525427,0.071045)">
          <path
             d="m 13.203566,86.28976 h 6.526733 v 0.878499 h -2.738851 v 6.836792 h -1.049032 v -6.836792 h -2.73885 z"
             style="stroke-width:0.01852198"
             id="path379"
             inkscape:connector-curvature="0" />
          <path
             d="m 25.512891,90.511724 v 3.493327 H 24.562045 V 90.54273 q 0,-0.821655 -0.320394,-1.229899 -0.320394,-0.408244 -0.961181,-0.408244 -0.769979,0 -1.214396,0.490926 -0.444418,0.490926 -0.444418,1.33842 v 3.271118 h -0.956014 v -8.040853 h 0.956014 v 3.152262 q 0.341065,-0.521932 0.800985,-0.780314 0.465088,-0.258382 1.069702,-0.258382 0.997355,0 1.508952,0.620117 0.511596,0.61495 0.511596,1.813843 z"
             style="stroke-width:0.01852198"
             id="path381"
             inkscape:connector-curvature="0" />
          <path
             d="m 32.370354,90.873459 v 0.465088 h -4.371826 q 0.06201,0.981852 0.589111,1.498616 0.532267,0.511597 1.477946,0.511597 0.54777,0 1.059367,-0.134359 0.516764,-0.134358 1.023193,-0.403076 v 0.89917 q -0.511596,0.217041 -1.049031,0.330729 -0.537435,0.113688 -1.090373,0.113688 -1.384928,0 -2.196248,-0.806152 -0.806153,-0.806152 -0.806153,-2.180745 0,-1.421102 0.764812,-2.253093 0.769978,-0.837158 2.072224,-0.837158 1.167888,0 1.844849,0.754476 0.682129,0.749308 0.682129,2.041219 z m -0.950846,-0.279053 q -0.01034,-0.780314 -0.43925,-1.245402 -0.423747,-0.465088 -1.126546,-0.465088 -0.795817,0 -1.276408,0.449585 -0.475423,0.449585 -0.54777,1.266073 z"
             style="stroke-width:0.01852198"
             id="path383"
             inkscape:connector-curvature="0" />
          <path
             d="m 40.989983,88.387823 v 0.89917 q -0.403076,-0.206706 -0.837158,-0.310059 -0.434082,-0.103353 -0.89917,-0.103353 -0.707967,0 -1.064534,0.217041 -0.3514,0.217041 -0.3514,0.651123 0,0.330729 0.253214,0.521932 0.253215,0.186035 1.018026,0.356567 l 0.325562,0.07235 q 1.012858,0.217041 1.436604,0.61495 0.428915,0.392741 0.428915,1.100708 0,0.806152 -0.640788,1.276408 -0.63562,0.470255 -1.751831,0.470255 -0.465088,0 -0.971517,-0.09302 -0.501261,-0.08785 -1.059367,-0.268718 v -0.981852 q 0.5271,0.273885 1.038696,0.413412 0.511597,0.134358 1.012859,0.134358 0.671793,0 1.033528,-0.227376 0.361735,-0.232544 0.361735,-0.651123 0,-0.387573 -0.26355,-0.594279 -0.258382,-0.206706 -1.142049,-0.397909 l -0.330729,-0.07751 Q 37.703362,91.224859 37.310621,90.842453 36.91788,90.45488 36.91788,89.783086 q 0,-0.816487 0.578776,-1.260905 0.578776,-0.444417 1.643311,-0.444417 0.527099,0 0.992187,0.07751 0.465088,0.07751 0.857829,0.232544 z"
             style="stroke-width:0.01852198"
             id="path385"
             inkscape:connector-curvature="0" />
          <path
             d="m 42.819329,88.21729 h 0.950846 v 5.787761 h -0.950846 z m 0,-2.253092 h 0.950846 v 1.204061 h -0.950846 z"
             style="stroke-width:0.01852198"
             id="path387"
             inkscape:connector-curvature="0" />
          <path
             d="m 49.563103,91.043991 q 0,-1.033528 -0.428915,-1.601969 -0.423747,-0.568441 -1.193725,-0.568441 -0.764812,0 -1.193726,0.568441 -0.423747,0.568441 -0.423747,1.601969 0,1.028361 0.423747,1.596802 0.428914,0.568441 1.193726,0.568441 0.769978,0 1.193725,-0.568441 0.428915,-0.568441 0.428915,-1.596802 z m 0.950846,2.242757 q 0,1.477946 -0.656291,2.196249 -0.65629,0.72347 -2.010213,0.72347 -0.501261,0 -0.945679,-0.07752 -0.444417,-0.07235 -0.862996,-0.227376 v -0.925008 q 0.418579,0.227376 0.826823,0.335896 0.408244,0.108521 0.83199,0.108521 0.935344,0 1.400432,-0.490926 0.465088,-0.485759 0.465088,-1.472779 V 92.98702 q -0.294556,0.511597 -0.754476,0.764811 -0.459921,0.253215 -1.100708,0.253215 -1.064535,0 -1.715658,-0.81132 -0.651123,-0.81132 -0.651123,-2.14974 0,-1.343587 0.651123,-2.154907 0.651123,-0.81132 1.715658,-0.81132 0.640787,0 1.100708,0.253215 0.45992,0.253214 0.754476,0.764811 v -0.8785 h 0.950846 z"
             style="stroke-width:0.01852198"
             id="path389"
             inkscape:connector-curvature="0" />
          <path
             d="m 52.472485,88.21729 h 0.950847 v 5.787761 h -0.950847 z m 0,-2.253092 h 0.950847 v 1.204061 h -0.950847 z"
             style="stroke-width:0.01852198"
             id="path391"
             inkscape:connector-curvature="0" />
          <path
             d="m 55.407708,85.964198 h 0.950846 v 8.040853 h -0.950846 z"
             style="stroke-width:0.01852198"
             id="path393"
             inkscape:connector-curvature="0" />
          <path
             d="m 62.032624,88.387823 v 0.89917 q -0.403076,-0.206706 -0.837158,-0.310059 -0.434082,-0.103353 -0.89917,-0.103353 -0.707967,0 -1.064535,0.217041 -0.351399,0.217041 -0.351399,0.651123 0,0.330729 0.253214,0.521932 0.253215,0.186035 1.018026,0.356567 l 0.325561,0.07235 q 1.012858,0.217041 1.436605,0.61495 0.428914,0.392741 0.428914,1.100708 0,0.806152 -0.640787,1.276408 -0.63562,0.470255 -1.751831,0.470255 -0.465088,0 -0.971517,-0.09302 -0.501262,-0.08785 -1.059367,-0.268718 v -0.981852 q 0.527099,0.273885 1.038696,0.413412 0.511597,0.134358 1.012858,0.134358 0.671794,0 1.033529,-0.227376 0.361735,-0.232544 0.361735,-0.651123 0,-0.387573 -0.26355,-0.594279 -0.258382,-0.206706 -1.142049,-0.397909 l -0.330729,-0.07751 q -0.883667,-0.186035 -1.276408,-0.568441 -0.392741,-0.387573 -0.392741,-1.059367 0,-0.816487 0.578776,-1.260905 0.578776,-0.444417 1.643311,-0.444417 0.527099,0 0.992187,0.07751 0.465088,0.07751 0.857829,0.232544 z"
             style="stroke-width:0.01852198"
             id="path395"
             inkscape:connector-curvature="0" />
          <path
             d="M 67.133089,91.720952 V 88.21729 h 0.950846 v 3.467489 q 0,0.821655 0.320394,1.235067 0.320394,0.408243 0.961182,0.408243 0.769979,0 1.214396,-0.490926 0.449585,-0.490926 0.449585,-1.338419 V 88.21729 h 0.950846 v 5.787761 h -0.950846 v -0.888835 q -0.346232,0.5271 -0.806152,0.785482 -0.454753,0.253214 -1.059367,0.253214 -0.997355,0 -1.51412,-0.620117 -0.516764,-0.620117 -0.516764,-1.813843 z m 2.392619,-3.643188 z"
             style="stroke-width:0.01852198"
             id="path397"
             inkscape:connector-curvature="0" />
          <path
             d="m 77.638909,88.387823 v 0.89917 q -0.403076,-0.206706 -0.837158,-0.310059 -0.434082,-0.103353 -0.89917,-0.103353 -0.707967,0 -1.064535,0.217041 -0.351399,0.217041 -0.351399,0.651123 0,0.330729 0.253214,0.521932 0.253215,0.186035 1.018026,0.356567 l 0.325561,0.07235 q 1.012858,0.217041 1.436605,0.61495 0.428914,0.392741 0.428914,1.100708 0,0.806152 -0.640787,1.276408 -0.63562,0.470255 -1.751831,0.470255 -0.465088,0 -0.971517,-0.09302 -0.501262,-0.08785 -1.059367,-0.268718 v -0.981852 q 0.5271,0.273885 1.038696,0.413412 0.511597,0.134358 1.012858,0.134358 0.671794,0 1.033529,-0.227376 0.361735,-0.232544 0.361735,-0.651123 0,-0.387573 -0.26355,-0.594279 -0.258382,-0.206706 -1.142049,-0.397909 l -0.330729,-0.07751 q -0.883667,-0.186035 -1.276408,-0.568441 -0.392741,-0.387573 -0.392741,-1.059367 0,-0.816487 0.578776,-1.260905 0.578776,-0.444417 1.643311,-0.444417 0.527099,0 0.992187,0.07751 0.465088,0.07751 0.857829,0.232544 z"
             style="stroke-width:0.01852198"
             id="path399"
             inkscape:connector-curvature="0" />
          <path
             d="m 84.418857,90.873459 v 0.465088 h -4.371826 q 0.06201,0.981852 0.589111,1.498616 0.532267,0.511597 1.477946,0.511597 0.54777,0 1.059367,-0.134359 0.516764,-0.134358 1.023193,-0.403076 v 0.89917 q -0.511597,0.217041 -1.049031,0.330729 -0.537435,0.113688 -1.090373,0.113688 -1.384928,0 -2.196248,-0.806152 -0.806153,-0.806152 -0.806153,-2.180745 0,-1.421102 0.764811,-2.253093 0.769979,-0.837158 2.072225,-0.837158 1.167888,0 1.844849,0.754476 0.682129,0.749308 0.682129,2.041219 z M 83.46801,90.594406 q -0.01034,-0.780314 -0.439249,-1.245402 -0.423747,-0.465088 -1.126546,-0.465088 -0.795817,0 -1.276408,0.449585 -0.475423,0.449585 -0.54777,1.266073 z"
             style="stroke-width:0.01852198"
             id="path401"
             inkscape:connector-curvature="0" />
          <path
             d="m 89.788038,89.09579 v -3.131592 h 0.950846 v 8.040853 h -0.950846 v -0.868164 q -0.299723,0.516764 -0.759643,0.769978 -0.454753,0.248047 -1.095541,0.248047 -1.049031,0 -1.71049,-0.837158 -0.65629,-0.837158 -0.65629,-2.201416 0,-1.364258 0.65629,-2.201416 0.661459,-0.837158 1.71049,-0.837158 0.640788,0 1.095541,0.253215 0.45992,0.248046 0.759643,0.764811 z m -3.240112,2.020548 q 0,1.049032 0.428914,1.648478 0.434082,0.594279 1.188558,0.594279 0.754476,0 1.188558,-0.594279 0.434082,-0.599446 0.434082,-1.648478 0,-1.049031 -0.434082,-1.64331 -0.434082,-0.599447 -1.188558,-0.599447 -0.754476,0 -1.188558,0.599447 -0.428914,0.594279 -0.428914,1.64331 z"
             style="stroke-width:0.01852198"
             id="path403"
             inkscape:connector-curvature="0" />
          <path
             d="m 98.69705,91.095668 q -1.152384,0 -1.596802,0.263549 -0.444417,0.26355 -0.444417,0.89917 0,0.506429 0.330729,0.806153 0.335897,0.294555 0.909505,0.294555 0.79065,0 1.266073,-0.558105 0.480591,-0.563273 0.480591,-1.493449 v -0.211873 z m 1.89652,-0.392741 v 3.302124 h -0.950841 v -0.8785 q -0.325562,0.5271 -0.81132,0.780314 -0.485759,0.248047 -1.188558,0.248047 -0.888835,0 -1.415934,-0.496093 -0.521932,-0.501262 -0.521932,-1.33842 0,-0.976685 0.651123,-1.472778 0.65629,-0.496094 1.953369,-0.496094 h 1.333252 v -0.09302 q 0,-0.65629 -0.434082,-1.012858 -0.428915,-0.361735 -1.209229,-0.361735 -0.496094,0 -0.966349,0.118856 -0.470256,0.118856 -0.904338,0.356568 v -0.8785 q 0.521932,-0.201538 1.012858,-0.299723 0.490927,-0.103353 0.956014,-0.103353 1.255738,0 1.875855,0.651123 0.620112,0.651123 0.620112,1.97404 z"
             style="stroke-width:0.01852198"
             id="path405"
             inkscape:connector-curvature="0" />
          <path
             d="m 105.91108,89.106125 q -0.16019,-0.09302 -0.3514,-0.134359 -0.18603,-0.04651 -0.41341,-0.04651 -0.80615,0 -1.24023,0.527099 -0.42892,0.521932 -0.42892,1.503784 v 3.04891 h -0.95601 V 88.21729 h 0.95601 v 0.89917 q 0.29973,-0.527099 0.78032,-0.780314 0.48059,-0.258382 1.16788,-0.258382 0.0982,0 0.21705,0.0155 0.11885,0.01033 0.26354,0.03617 z"
             style="stroke-width:0.01852198"
             id="path407"
             inkscape:connector-curvature="0" />
          <path
             d="m 111.642,90.873459 v 0.465088 h -4.37182 q 0.062,0.981852 0.58911,1.498616 0.53226,0.511597 1.47794,0.511597 0.54777,0 1.05937,-0.134359 0.51676,-0.134358 1.02319,-0.403076 v 0.89917 q -0.51159,0.217041 -1.04903,0.330729 -0.53743,0.113688 -1.09037,0.113688 -1.38493,0 -2.19625,-0.806152 -0.80615,-0.806152 -0.80615,-2.180745 0,-1.421102 0.76481,-2.253093 0.76998,-0.837158 2.07222,-0.837158 1.16789,0 1.84485,0.754476 0.68213,0.749308 0.68213,2.041219 z m -0.95085,-0.279053 q -0.0103,-0.780314 -0.43924,-1.245402 -0.42375,-0.465088 -1.12655,-0.465088 -0.79582,0 -1.27641,0.449585 -0.47542,0.449585 -0.54777,1.266073 z"
             style="stroke-width:0.01852198"
             id="path409"
             inkscape:connector-curvature="0" />
          <path
             d="m 119.20226,91.095668 q -1.15238,0 -1.5968,0.263549 -0.44442,0.26355 -0.44442,0.89917 0,0.506429 0.33073,0.806153 0.3359,0.294555 0.90951,0.294555 0.79065,0 1.26607,-0.558105 0.48059,-0.563273 0.48059,-1.493449 v -0.211873 z m 1.89653,-0.392741 v 3.302124 h -0.95085 v -0.8785 q -0.32556,0.5271 -0.81132,0.780314 -0.48576,0.248047 -1.18856,0.248047 -0.88883,0 -1.41593,-0.496093 -0.52193,-0.501262 -0.52193,-1.33842 0,-0.976685 0.65112,-1.472778 0.65629,-0.496094 1.95337,-0.496094 h 1.33325 v -0.09302 q 0,-0.65629 -0.43408,-1.012858 -0.42892,-0.361735 -1.20923,-0.361735 -0.49609,0 -0.96635,0.118856 -0.47026,0.118856 -0.90434,0.356568 v -0.8785 q 0.52193,-0.201538 1.01286,-0.299723 0.49093,-0.103353 0.95601,-0.103353 1.25574,0 1.87586,0.651123 0.62012,0.651123 0.62012,1.97404 z"
             style="stroke-width:0.01852198"
             id="path411"
             inkscape:connector-curvature="0" />
          <path
             d="m 126.41629,89.106125 q -0.16019,-0.09302 -0.3514,-0.134359 -0.18603,-0.04651 -0.41341,-0.04651 -0.80615,0 -1.24023,0.527099 -0.42892,0.521932 -0.42892,1.503784 v 3.04891 h -0.95601 V 88.21729 h 0.95601 v 0.89917 q 0.29973,-0.527099 0.78032,-0.780314 0.48059,-0.258382 1.16788,-0.258382 0.0982,0 0.21705,0.0155 0.11885,0.01033 0.26355,0.03617 z"
             style="stroke-width:0.01852198"
             id="path413"
             inkscape:connector-curvature="0" />
          <path
             d="m 131.57877,91.116338 q 0,-1.049031 -0.43409,-1.64331 -0.42891,-0.599447 -1.18339,-0.599447 -0.75447,0 -1.18855,0.599447 -0.42892,0.594279 -0.42892,1.64331 0,1.049032 0.42892,1.648478 0.43408,0.594279 1.18855,0.594279 0.75448,0 1.18339,-0.594279 0.43409,-0.599446 0.43409,-1.648478 z m -3.23495,-2.020548 q 0.29973,-0.516765 0.75448,-0.764811 0.45992,-0.253215 1.09554,-0.253215 1.0542,0 1.71049,0.837158 0.66146,0.837158 0.66146,2.201416 0,1.364258 -0.66146,2.201416 -0.65629,0.837158 -1.71049,0.837158 -0.63562,0 -1.09554,-0.248047 -0.45475,-0.253214 -0.75448,-0.769978 v 0.868164 h -0.95601 v -8.040853 h 0.95601 z"
             style="stroke-width:0.01852198"
             id="path415"
             inkscape:connector-curvature="0" />
          <path
             d="m 134.14191,88.21729 h 0.95085 v 5.787761 h -0.95085 z m 0,-2.253092 h 0.95085 v 1.204061 h -0.95085 z"
             style="stroke-width:0.01852198"
             id="path417"
             inkscape:connector-curvature="0" />
          <path
             d="m 138.01765,86.57398 v 1.64331 h 1.95854 v 0.738973 h -1.95854 v 3.141927 q 0,0.707967 0.19121,0.909506 0.19637,0.201538 0.79064,0.201538 h 0.97669 v 0.795817 h -0.97669 q -1.1007,0 -1.51928,-0.408244 -0.41858,-0.413412 -0.41858,-1.498617 v -3.141927 h -0.69763 V 88.21729 h 0.69763 v -1.64331 z"
             style="stroke-width:0.01852198"
             id="path419"
             inkscape:connector-curvature="0" />
          <path
             d="m 144.58573,89.106125 q -0.1602,-0.09302 -0.3514,-0.134359 -0.18604,-0.04651 -0.41341,-0.04651 -0.80616,0 -1.24024,0.527099 -0.42891,0.521932 -0.42891,1.503784 v 3.04891 h -0.95602 V 88.21729 h 0.95602 v 0.89917 q 0.29972,-0.527099 0.78031,-0.780314 0.48059,-0.258382 1.16789,-0.258382 0.0982,0 0.21704,0.0155 0.11886,0.01033 0.26355,0.03617 z"
             style="stroke-width:0.01852198"
             id="path421"
             inkscape:connector-curvature="0" />
          <path
             d="m 148.22374,91.095668 q -1.15239,0 -1.5968,0.263549 -0.44442,0.26355 -0.44442,0.89917 0,0.506429 0.33073,0.806153 0.33589,0.294555 0.9095,0.294555 0.79065,0 1.26608,-0.558105 0.48059,-0.563273 0.48059,-1.493449 v -0.211873 z m 1.89652,-0.392741 v 3.302124 h -0.95084 v -0.8785 q -0.32557,0.5271 -0.81132,0.780314 -0.48576,0.248047 -1.18856,0.248047 -0.88884,0 -1.41594,-0.496093 -0.52193,-0.501262 -0.52193,-1.33842 0,-0.976685 0.65113,-1.472778 0.65629,-0.496094 1.95336,-0.496094 h 1.33326 v -0.09302 q 0,-0.65629 -0.43409,-1.012858 -0.42891,-0.361735 -1.20922,-0.361735 -0.4961,0 -0.96635,0.118856 -0.47026,0.118856 -0.90434,0.356568 v -0.8785 q 0.52193,-0.201538 1.01286,-0.299723 0.49092,-0.103353 0.95601,-0.103353 1.25574,0 1.87586,0.651123 0.62011,0.651123 0.62011,1.97404 z"
             style="stroke-width:0.01852198"
             id="path423"
             inkscape:connector-curvature="0" />
          <path
             d="m 155.43778,89.106125 q -0.1602,-0.09302 -0.3514,-0.134359 -0.18604,-0.04651 -0.41341,-0.04651 -0.80616,0 -1.24024,0.527099 -0.42891,0.521932 -0.42891,1.503784 v 3.04891 H 152.0478 V 88.21729 h 0.95602 v 0.89917 q 0.29972,-0.527099 0.78031,-0.780314 0.48059,-0.258382 1.16789,-0.258382 0.0982,0 0.21704,0.0155 0.11886,0.01033 0.26355,0.03617 z"
             style="stroke-width:0.01852198"
             id="path425"
             inkscape:connector-curvature="0" />
          <path
             d="m 158.85358,94.542486 q -0.40308,1.033528 -0.78548,1.348754 -0.38241,0.315227 -1.0232,0.315227 h -0.75964 V 95.41065 h 0.55811 q 0.39274,0 0.60978,-0.186036 0.21704,-0.186035 0.48059,-0.878499 l 0.17053,-0.434082 -2.34094,-5.694743 h 1.00769 l 1.80867,4.526856 1.80868,-4.526856 h 1.00769 z"
             style="stroke-width:0.01852198"
             id="path427"
             inkscape:connector-curvature="0" />
          <path
             d="m 161.33406,92.692469 h 1.09037 v 1.312582 h -1.09037 z"
             style="stroke-width:0.01852198"
             id="path429"
             inkscape:connector-curvature="0" />
          <path
             d="m 169.02351,90.320521 v 2.826701 h 1.67431 q 0.84233,0 1.24541,-0.346232 0.40824,-0.3514 0.40824,-1.069702 0,-0.72347 -0.40824,-1.064535 -0.40308,-0.346232 -1.24541,-0.346232 z m 0,-3.172933 v 2.32544 h 1.54512 q 0.76481,0 1.13688,-0.284221 0.37724,-0.289388 0.37724,-0.878499 0,-0.583944 -0.37724,-0.873332 -0.37207,-0.289388 -1.13688,-0.289388 z m -1.04387,-0.857828 h 2.66651 q 1.19372,0 1.83968,0.496093 0.64595,0.496094 0.64595,1.410767 0,0.707967 -0.33073,1.126546 -0.33073,0.418579 -0.97151,0.521932 0.76998,0.165365 1.19372,0.692464 0.42892,0.521932 0.42892,1.307414 0,1.033528 -0.7028,1.596802 -0.7028,0.563273 -1.99988,0.563273 h -2.76986 z"
             style="stroke-width:0.01852198"
             id="path431"
             inkscape:connector-curvature="0" />
          <path
             d="M 175.09549,91.720952 V 88.21729 h 0.95084 v 3.467489 q 0,0.821655 0.3204,1.235067 0.32039,0.408243 0.96118,0.408243 0.76998,0 1.2144,-0.490926 0.44958,-0.490926 0.44958,-1.338419 V 88.21729 h 0.95085 v 5.787761 h -0.95085 v -0.888835 q -0.34623,0.5271 -0.80615,0.785482 -0.45475,0.253214 -1.05937,0.253214 -0.99735,0 -1.51412,-0.620117 -0.51676,-0.620117 -0.51676,-1.813843 z m 2.39262,-3.643188 z"
             style="stroke-width:0.01852198"
             id="path433"
             inkscape:connector-curvature="0" />
          <path
             d="m 182.85213,86.57398 v 1.64331 h 1.95853 v 0.738973 h -1.95853 v 3.141927 q 0,0.707967 0.1912,0.909506 0.19637,0.201538 0.79065,0.201538 h 0.97668 v 0.795817 h -0.97668 q -1.10071,0 -1.51929,-0.408244 -0.41858,-0.413412 -0.41858,-1.498617 v -3.141927 h -0.69763 V 88.21729 h 0.69763 v -1.64331 z"
             style="stroke-width:0.01852198"
             id="path435"
             inkscape:connector-curvature="0" />
          <path
             d="m 190.3762,86.57398 v 1.64331 h 1.95854 v 0.738973 h -1.95854 v 3.141927 q 0,0.707967 0.19121,0.909506 0.19637,0.201538 0.79065,0.201538 h 0.97668 v 0.795817 h -0.97668 q -1.10071,0 -1.51929,-0.408244 -0.41858,-0.413412 -0.41858,-1.498617 v -3.141927 h -0.69763 V 88.21729 h 0.69763 v -1.64331 z"
             style="stroke-width:0.01852198"
             id="path437"
             inkscape:connector-curvature="0" />
          <path
             d="m 198.40155,90.511724 v 3.493327 h -0.95084 V 90.54273 q 0,-0.821655 -0.3204,-1.229899 -0.32039,-0.408244 -0.96118,-0.408244 -0.76998,0 -1.21439,0.490926 -0.44442,0.490926 -0.44442,1.33842 v 3.271118 h -0.95602 v -8.040853 h 0.95602 v 3.152262 q 0.34106,-0.521932 0.80098,-0.780314 0.46509,-0.258382 1.0697,-0.258382 0.99736,0 1.50896,0.620117 0.51159,0.61495 0.51159,1.813843 z"
             style="stroke-width:0.01852198"
             id="path439"
             inkscape:connector-curvature="0" />
          <path
             d="m 200.30842,88.21729 h 0.95085 v 5.787761 h -0.95085 z m 0,-2.253092 h 0.95085 v 1.204061 h -0.95085 z"
             style="stroke-width:0.01852198"
             id="path441"
             inkscape:connector-curvature="0" />
          <path
             d="m 206.93334,88.387823 v 0.89917 q -0.40307,-0.206706 -0.83716,-0.310059 -0.43408,-0.103353 -0.89917,-0.103353 -0.70796,0 -1.06453,0.217041 -0.3514,0.217041 -0.3514,0.651123 0,0.330729 0.25321,0.521932 0.25322,0.186035 1.01803,0.356567 l 0.32556,0.07235 q 1.01286,0.217041 1.43661,0.61495 0.42891,0.392741 0.42891,1.100708 0,0.806152 -0.64079,1.276408 -0.63562,0.470255 -1.75183,0.470255 -0.46509,0 -0.97151,-0.09302 -0.50127,-0.08785 -1.05937,-0.268718 v -0.981852 q 0.5271,0.273885 1.03869,0.413412 0.5116,0.134358 1.01286,0.134358 0.6718,0 1.03353,-0.227376 0.36174,-0.232544 0.36174,-0.651123 0,-0.387573 -0.26355,-0.594279 -0.25839,-0.206706 -1.14205,-0.397909 l -0.33073,-0.07751 q -0.88367,-0.186035 -1.27641,-0.568441 -0.39274,-0.387573 -0.39274,-1.059367 0,-0.816487 0.57878,-1.260905 0.57877,-0.444417 1.64331,-0.444417 0.5271,0 0.99218,0.07751 0.46509,0.07751 0.85783,0.232544 z"
             style="stroke-width:0.01852198"
             id="path443"
             inkscape:connector-curvature="0" />
          <path
             d="m 212.13198,88.21729 h 0.95085 v 5.787761 h -0.95085 z m 0,-2.253092 h 0.95085 v 1.204061 h -0.95085 z"
             style="stroke-width:0.01852198"
             id="path445"
             inkscape:connector-curvature="0" />
          <path
             d="m 218.75691,88.387823 v 0.89917 q -0.40308,-0.206706 -0.83716,-0.310059 -0.43409,-0.103353 -0.89917,-0.103353 -0.70797,0 -1.06454,0.217041 -0.3514,0.217041 -0.3514,0.651123 0,0.330729 0.25322,0.521932 0.25321,0.186035 1.01802,0.356567 l 0.32556,0.07235 q 1.01286,0.217041 1.43661,0.61495 0.42891,0.392741 0.42891,1.100708 0,0.806152 -0.64078,1.276408 -0.63562,0.470255 -1.75184,0.470255 -0.46508,0 -0.97151,-0.09302 -0.50126,-0.08785 -1.05937,-0.268718 v -0.981852 q 0.5271,0.273885 1.0387,0.413412 0.51159,0.134358 1.01286,0.134358 0.67179,0 1.03352,-0.227376 0.36174,-0.232544 0.36174,-0.651123 0,-0.387573 -0.26355,-0.594279 -0.25838,-0.206706 -1.14205,-0.397909 l -0.33073,-0.07751 q -0.88367,-0.186035 -1.27641,-0.568441 -0.39274,-0.387573 -0.39274,-1.059367 0,-0.816487 0.57878,-1.260905 0.57877,-0.444417 1.64331,-0.444417 0.5271,0 0.99219,0.07751 0.46508,0.07751 0.85783,0.232544 z"
             style="stroke-width:0.01852198"
             id="path447"
             inkscape:connector-curvature="0" />
          <path
             d="m 225.39733,90.511724 v 3.493327 h -0.95085 V 90.54273 q 0,-0.821655 -0.32039,-1.229899 -0.3204,-0.408244 -0.96119,-0.408244 -0.76997,0 -1.21439,0.490926 -0.44442,0.490926 -0.44442,1.33842 v 3.271118 h -0.95601 V 88.21729 h 0.95601 v 0.89917 q 0.34107,-0.521932 0.80099,-0.780314 0.46508,-0.258382 1.0697,-0.258382 0.99735,0 1.50895,0.620117 0.5116,0.61495 0.5116,1.813843 z"
             style="stroke-width:0.01852198"
             id="path449"
             inkscape:connector-curvature="0" />
          <path
             d="m 227.65042,86.28976 h 1.09038 v 0.785481 l -0.8475,1.648478 h -0.66662 l 0.42374,-1.648478 z"
             style="stroke-width:0.01852198"
             id="path451"
             inkscape:connector-curvature="0" />
          <path
             d="m 231.614,86.57398 v 1.64331 h 1.95853 v 0.738973 H 231.614 v 3.141927 q 0,0.707967 0.1912,0.909506 0.19637,0.201538 0.79065,0.201538 h 0.97668 v 0.795817 h -0.97668 q -1.10071,0 -1.51929,-0.408244 -0.41858,-0.413412 -0.41858,-1.498617 v -3.141927 h -0.69763 V 88.21729 h 0.69763 v -1.64331 z"
             style="stroke-width:0.01852198"
             id="path453"
             inkscape:connector-curvature="0" />
          <path
             d="m 243.14818,90.873459 v 0.465088 h -4.37182 q 0.062,0.981852 0.58911,1.498616 0.53226,0.511597 1.47794,0.511597 0.54777,0 1.05937,-0.134359 0.51676,-0.134358 1.02319,-0.403076 v 0.89917 q -0.51159,0.217041 -1.04903,0.330729 -0.53743,0.113688 -1.09037,0.113688 -1.38493,0 -2.19625,-0.806152 -0.80615,-0.806152 -0.80615,-2.180745 0,-1.421102 0.76481,-2.253093 0.76998,-0.837158 2.07222,-0.837158 1.16789,0 1.84485,0.754476 0.68213,0.749308 0.68213,2.041219 z m -0.95085,-0.279053 q -0.0103,-0.780314 -0.43924,-1.245402 -0.42375,-0.465088 -1.12655,-0.465088 -0.79582,0 -1.27641,0.449585 -0.47542,0.449585 -0.54777,1.266073 z"
             style="stroke-width:0.01852198"
             id="path455"
             inkscape:connector-curvature="0" />
          <path
             d="m 249.51989,90.511724 v 3.493327 h -0.95085 V 90.54273 q 0,-0.821655 -0.32039,-1.229899 -0.3204,-0.408244 -0.96119,-0.408244 -0.76998,0 -1.21439,0.490926 -0.44442,0.490926 -0.44442,1.33842 v 3.271118 h -0.95601 V 88.21729 h 0.95601 v 0.89917 q 0.34106,-0.521932 0.80098,-0.780314 0.46509,-0.258382 1.06971,-0.258382 0.99735,0 1.50895,0.620117 0.5116,0.61495 0.5116,1.813843 z"
             style="stroke-width:0.01852198"
             id="path457"
             inkscape:connector-curvature="0" />
          <path
             d="m 253.66951,88.883916 q -0.76481,0 -1.20923,0.599447 -0.44442,0.594279 -0.44442,1.632975 0,1.038696 0.43925,1.638143 0.44442,0.594279 1.2144,0.594279 0.75964,0 1.20406,-0.599447 0.44442,-0.599446 0.44442,-1.632975 0,-1.028361 -0.44442,-1.627807 -0.44442,-0.604615 -1.20406,-0.604615 z m 0,-0.806152 q 1.24023,0 1.9482,0.806152 0.70797,0.806153 0.70797,2.232422 0,1.421102 -0.70797,2.232422 -0.70797,0.806152 -1.9482,0.806152 -1.2454,0 -1.95337,-0.806152 -0.7028,-0.81132 -0.7028,-2.232422 0,-1.426269 0.7028,-2.232422 0.70797,-0.806152 1.95337,-0.806152 z"
             style="stroke-width:0.01852198"
             id="path459"
             inkscape:connector-curvature="0" />
          <path
             d="M 257.79844,91.720952 V 88.21729 h 0.95085 v 3.467489 q 0,0.821655 0.32039,1.235067 0.3204,0.408243 0.96119,0.408243 0.76998,0 1.21439,-0.490926 0.44959,-0.490926 0.44959,-1.338419 V 88.21729 h 0.95084 v 5.787761 h -0.95084 v -0.888835 q -0.34623,0.5271 -0.80615,0.785482 -0.45476,0.253214 -1.05937,0.253214 -0.99736,0 -1.51412,-0.620117 -0.51677,-0.620117 -0.51677,-1.813843 z m 2.39262,-3.643188 z"
             style="stroke-width:0.01852198"
             id="path461"
             inkscape:connector-curvature="0" />
          <path
             d="m 268.42312,91.043991 q 0,-1.033528 -0.42891,-1.601969 -0.42375,-0.568441 -1.19373,-0.568441 -0.76481,0 -1.19372,0.568441 -0.42375,0.568441 -0.42375,1.601969 0,1.028361 0.42375,1.596802 0.42891,0.568441 1.19372,0.568441 0.76998,0 1.19373,-0.568441 0.42891,-0.568441 0.42891,-1.596802 z m 0.95085,2.242757 q 0,1.477946 -0.65629,2.196249 -0.65629,0.72347 -2.01021,0.72347 -0.50126,0 -0.94568,-0.07752 -0.44442,-0.07235 -0.863,-0.227376 v -0.925008 q 0.41858,0.227376 0.82682,0.335896 0.40825,0.108521 0.832,0.108521 0.93534,0 1.40043,-0.490926 0.46508,-0.485759 0.46508,-1.472779 V 92.98702 q -0.29455,0.511597 -0.75447,0.764811 -0.45992,0.253215 -1.10071,0.253215 -1.06453,0 -1.71566,-0.81132 -0.65112,-0.81132 -0.65112,-2.14974 0,-1.343587 0.65112,-2.154907 0.65113,-0.81132 1.71566,-0.81132 0.64079,0 1.10071,0.253215 0.45992,0.253214 0.75447,0.764811 v -0.8785 h 0.95085 z"
             style="stroke-width:0.01852198"
             id="path463"
             inkscape:connector-curvature="0" />
          <path
             d="m 276.14359,90.511724 v 3.493327 h -0.95085 V 90.54273 q 0,-0.821655 -0.32039,-1.229899 -0.3204,-0.408244 -0.96118,-0.408244 -0.76998,0 -1.2144,0.490926 -0.44442,0.490926 -0.44442,1.33842 v 3.271118 h -0.95601 v -8.040853 h 0.95601 v 3.152262 q 0.34107,-0.521932 0.80099,-0.780314 0.46509,-0.258382 1.0697,-0.258382 0.99735,0 1.50895,0.620117 0.5116,0.61495 0.5116,1.813843 z"
             style="stroke-width:0.01852198"
             id="path465"
             inkscape:connector-curvature="0" />
          <path
             d="m 14.231927,101.44646 h 0.950846 v 5.78776 h -0.950846 z m 0,-2.253096 h 0.950846 v 1.204066 h -0.950846 z"
             style="stroke-width:0.01852198"
             id="path467"
             inkscape:connector-curvature="0" />
          <path
             d="m 21.978223,103.74089 v 3.49333 h -0.950846 v -3.46232 q 0,-0.82166 -0.320394,-1.2299 -0.320394,-0.40825 -0.961181,-0.40825 -0.769979,0 -1.214396,0.49093 -0.444418,0.49093 -0.444418,1.33842 v 3.27112 h -0.956014 v -5.78776 h 0.956014 v 0.89917 q 0.341065,-0.52194 0.800985,-0.78032 0.465088,-0.25838 1.069702,-0.25838 0.997355,0 1.508952,0.62012 0.511596,0.61495 0.511596,1.81384 z"
             style="stroke-width:0.01852198"
             id="path469"
             inkscape:connector-curvature="0" />
          <path
             d="m 26.815137,99.193364 v 0.79065 h -0.909505 q -0.511596,0 -0.713134,0.206706 -0.196371,0.20671 -0.196371,0.74414 v 0.5116 h 1.565796 v 0.73897 h -1.565796 v 5.04879 h -0.956014 v -5.04879 h -0.909505 v -0.73897 h 0.909505 v -0.40308 q 0,-0.96635 0.449585,-1.405598 0.449585,-0.444418 1.42627,-0.444418 z"
             style="stroke-width:0.01852198"
             id="path471"
             inkscape:connector-curvature="0" />
          <path
             d="m 29.848544,102.11308 q -0.764811,0 -1.209228,0.59945 -0.444418,0.59428 -0.444418,1.63297 0,1.0387 0.43925,1.63815 0.444417,0.59428 1.214396,0.59428 0.759644,0 1.204061,-0.59945 0.444417,-0.59945 0.444417,-1.63298 0,-1.02836 -0.444417,-1.6278 -0.444417,-0.60462 -1.204061,-0.60462 z m 0,-0.80615 q 1.240234,0 1.948201,0.80615 0.707968,0.80615 0.707968,2.23242 0,1.42111 -0.707968,2.23243 -0.707967,0.80615 -1.948201,0.80615 -1.245402,0 -1.953369,-0.80615 -0.7028,-0.81132 -0.7028,-2.23243 0,-1.42627 0.7028,-2.23242 0.707967,-0.80615 1.953369,-0.80615 z"
             style="stroke-width:0.01852198"
             id="path473"
             inkscape:connector-curvature="0" />
          <path
             d="m 37.429477,102.33529 q -0.160197,-0.093 -0.3514,-0.13436 -0.186035,-0.0465 -0.413411,-0.0465 -0.806153,0 -1.240235,0.5271 -0.428914,0.52194 -0.428914,1.50379 v 3.04891 h -0.956014 v -5.78776 h 0.956014 v 0.89917 q 0.299723,-0.5271 0.780314,-0.78032 0.480591,-0.25838 1.167887,-0.25838 0.09819,0 0.217041,0.0155 0.118856,0.0103 0.26355,0.0362 z"
             style="stroke-width:0.01852198"
             id="path475"
             inkscape:connector-curvature="0" />
          <path
             d="m 42.757316,102.5575 q 0.356568,-0.64079 0.852662,-0.94568 0.496093,-0.30489 1.167887,-0.30489 0.904337,0 1.395263,0.63562 0.490927,0.63045 0.490927,1.79834 v 3.49333 h -0.956014 v -3.46232 q 0,-0.83199 -0.294556,-1.23507 -0.294556,-0.40308 -0.89917,-0.40308 -0.738973,0 -1.167887,0.49093 -0.428915,0.49093 -0.428915,1.33842 v 3.27112 h -0.956014 v -3.46232 q 0,-0.83716 -0.294555,-1.23507 -0.294556,-0.40308 -0.909505,-0.40308 -0.728638,0 -1.157552,0.4961 -0.428915,0.49092 -0.428915,1.33325 v 3.27112 h -0.956014 v -5.78776 h 0.956014 v 0.89917 q 0.325562,-0.53227 0.780314,-0.78549 0.454753,-0.25321 1.080038,-0.25321 0.630452,0 1.069702,0.32039 0.444417,0.3204 0.65629,0.93018 z"
             style="stroke-width:0.01852198"
             id="path477"
             inkscape:connector-curvature="0" />
          <path
             d="m 51.196077,104.32483 q -1.152384,0 -1.596801,0.26355 -0.444418,0.26355 -0.444418,0.89917 0,0.50643 0.330729,0.80616 0.335897,0.29455 0.909506,0.29455 0.790649,0 1.266072,-0.5581 0.480591,-0.56328 0.480591,-1.49345 v -0.21188 z m 1.896525,-0.39274 v 3.30213 h -0.950846 v -0.8785 q -0.325562,0.5271 -0.81132,0.78031 -0.485758,0.24805 -1.188558,0.24805 -0.888835,0 -1.415934,-0.4961 -0.521932,-0.50126 -0.521932,-1.33841 0,-0.97669 0.651123,-1.47278 0.656291,-0.4961 1.953369,-0.4961 h 1.333252 v -0.093 q 0,-0.65629 -0.434082,-1.01286 -0.428914,-0.36174 -1.209229,-0.36174 -0.496093,0 -0.966349,0.11886 -0.470255,0.11885 -0.904337,0.35657 v -0.8785 q 0.521932,-0.20154 1.012858,-0.29973 0.490926,-0.10335 0.956014,-0.10335 1.255737,0 1.875854,0.65112 0.620117,0.65113 0.620117,1.97404 z"
             style="stroke-width:0.01852198"
             id="path479"
             inkscape:connector-curvature="0" />
          <path
             d="m 55.996817,99.803146 v 1.643314 h 1.958536 v 0.73897 h -1.958536 v 3.14193 q 0,0.70796 0.191202,0.9095 0.196371,0.20154 0.79065,0.20154 h 0.976684 v 0.79582 h -0.976684 q -1.100708,0 -1.519287,-0.40825 -0.418579,-0.41341 -0.418579,-1.49861 v -3.14193 h -0.697632 v -0.73897 h 0.697632 v -1.643314 z"
             style="stroke-width:0.01852198"
             id="path481"
             inkscape:connector-curvature="0" />
          <path
             d="m 59.211091,101.44646 h 0.950846 v 5.78776 h -0.950846 z m 0,-2.253096 h 0.950846 v 1.204066 h -0.950846 z"
             style="stroke-width:0.01852198"
             id="path483"
             inkscape:connector-curvature="0" />
          <path
             d="m 64.38907,102.11308 q -0.764811,0 -1.209228,0.59945 -0.444417,0.59428 -0.444417,1.63297 0,1.0387 0.439249,1.63815 0.444418,0.59428 1.214396,0.59428 0.759644,0 1.204061,-0.59945 0.444418,-0.59945 0.444418,-1.63298 0,-1.02836 -0.444418,-1.6278 -0.444417,-0.60462 -1.204061,-0.60462 z m 0,-0.80615 q 1.240235,0 1.948202,0.80615 0.707967,0.80615 0.707967,2.23242 0,1.42111 -0.707967,2.23243 -0.707967,0.80615 -1.948202,0.80615 -1.245402,0 -1.953369,-0.80615 -0.702799,-0.81132 -0.702799,-2.23243 0,-1.42627 0.702799,-2.23242 0.707967,-0.80615 1.953369,-0.80615 z"
             style="stroke-width:0.01852198"
             id="path485"
             inkscape:connector-curvature="0" />
          <path
             d="m 73.42728,103.74089 v 3.49333 h -0.950847 v -3.46232 q 0,-0.82166 -0.320394,-1.2299 -0.320393,-0.40825 -0.961181,-0.40825 -0.769979,0 -1.214396,0.49093 -0.444418,0.49093 -0.444418,1.33842 v 3.27112 H 68.58003 v -5.78776 h 0.956014 v 0.89917 q 0.341065,-0.52194 0.800985,-0.78032 0.465088,-0.25838 1.069702,-0.25838 0.997355,0 1.508952,0.62012 0.511597,0.61495 0.511597,1.81384 z"
             style="stroke-width:0.01852198"
             id="path487"
             inkscape:connector-curvature="0" />
          <path
             d="m 79.643949,99.803146 v 1.643314 h 1.958537 v 0.73897 h -1.958537 v 3.14193 q 0,0.70796 0.191203,0.9095 0.196371,0.20154 0.79065,0.20154 h 0.976684 v 0.79582 h -0.976684 q -1.100708,0 -1.519287,-0.40825 -0.41858,-0.41341 -0.41858,-1.49861 v -3.14193 h -0.697631 v -0.73897 h 0.697631 v -1.643314 z"
             style="stroke-width:0.01852198"
             id="path489"
             inkscape:connector-curvature="0" />
          <path
             d="m 85.100981,102.11308 q -0.764812,0 -1.209229,0.59945 -0.444417,0.59428 -0.444417,1.63297 0,1.0387 0.43925,1.63815 0.444417,0.59428 1.214396,0.59428 0.759643,0 1.20406,-0.59945 0.444418,-0.59945 0.444418,-1.63298 0,-1.02836 -0.444418,-1.6278 -0.444417,-0.60462 -1.20406,-0.60462 z m 0,-0.80615 q 1.240234,0 1.948201,0.80615 0.707967,0.80615 0.707967,2.23242 0,1.42111 -0.707967,2.23243 -0.707967,0.80615 -1.948201,0.80615 -1.245402,0 -1.953369,-0.80615 -0.7028,-0.81132 -0.7028,-2.23243 0,-1.42627 0.7028,-2.23242 0.707967,-0.80615 1.953369,-0.80615 z"
             style="stroke-width:0.01852198"
             id="path491"
             inkscape:connector-curvature="0" />
          <path
             d="m 96.051219,102.33529 q -0.160197,-0.093 -0.3514,-0.13436 -0.186035,-0.0465 -0.413411,-0.0465 -0.806152,0 -1.240234,0.5271 -0.428915,0.52194 -0.428915,1.50379 v 3.04891 h -0.956014 v -5.78776 h 0.956014 v 0.89917 q 0.299724,-0.5271 0.780314,-0.78032 0.480591,-0.25838 1.167888,-0.25838 0.09819,0 0.217041,0.0155 0.118856,0.0103 0.26355,0.0362 z"
             style="stroke-width:0.01852198"
             id="path493"
             inkscape:connector-curvature="0" />
          <path
             d="m 101.78214,104.10263 v 0.46508 h -4.371828 q 0.06201,0.98186 0.589111,1.49862 0.532268,0.5116 1.477946,0.5116 0.547771,0 1.059371,-0.13436 0.51676,-0.13436 1.02319,-0.40308 v 0.89917 q -0.5116,0.21704 -1.04903,0.33073 -0.537437,0.11369 -1.090375,0.11369 -1.384928,0 -2.196248,-0.80615 -0.806153,-0.80616 -0.806153,-2.18075 0,-1.4211 0.764812,-2.25309 0.769978,-0.83716 2.072225,-0.83716 1.167889,0 1.844849,0.75448 0.68213,0.7493 0.68213,2.04122 z m -0.95085,-0.27906 q -0.0103,-0.78031 -0.43925,-1.2454 -0.423745,-0.46509 -1.126544,-0.46509 -0.795817,0 -1.276408,0.44959 -0.475423,0.44958 -0.54777,1.26607 z"
             style="stroke-width:0.01852198"
             id="path495"
             inkscape:connector-curvature="0" />
          <path
             d="m 107.50789,101.66867 v 0.88883 q -0.40308,-0.22221 -0.81132,-0.33073 -0.40308,-0.11369 -0.81649,-0.11369 -0.92501,0 -1.43661,0.58911 -0.51159,0.58395 -0.51159,1.64331 0,1.05937 0.51159,1.64848 0.5116,0.58395 1.43661,0.58395 0.41341,0 0.81649,-0.10852 0.40824,-0.11369 0.81132,-0.3359 v 0.8785 q -0.39791,0.18603 -0.82683,0.27905 -0.42374,0.093 -0.90433,0.093 -1.30742,0 -2.0774,-0.82166 -0.76998,-0.82165 -0.76998,-2.21692 0,-1.41593 0.77515,-2.22725 0.78032,-0.81132 2.13424,-0.81132 0.43925,0 0.85783,0.093 0.41858,0.0878 0.81132,0.26872 z"
             style="stroke-width:0.01852198"
             id="path497"
             inkscape:connector-curvature="0" />
          <path
             d="m 111.41463,102.11308 q -0.76482,0 -1.20923,0.59945 -0.44442,0.59428 -0.44442,1.63297 0,1.0387 0.43925,1.63815 0.44442,0.59428 1.2144,0.59428 0.75964,0 1.20406,-0.59945 0.44441,-0.59945 0.44441,-1.63298 0,-1.02836 -0.44441,-1.6278 -0.44442,-0.60462 -1.20406,-0.60462 z m 0,-0.80615 q 1.24023,0 1.9482,0.80615 0.70796,0.80615 0.70796,2.23242 0,1.42111 -0.70796,2.23243 -0.70797,0.80615 -1.9482,0.80615 -1.24541,0 -1.95337,-0.80615 -0.7028,-0.81132 -0.7028,-2.23243 0,-1.42627 0.7028,-2.23242 0.70796,-0.80615 1.95337,-0.80615 z"
             style="stroke-width:0.01852198"
             id="path499"
             inkscape:connector-curvature="0" />
          <path
             d="m 120.45283,103.74089 v 3.49333 h -0.95085 v -3.46232 q 0,-0.82166 -0.32039,-1.2299 -0.32039,-0.40825 -0.96118,-0.40825 -0.76998,0 -1.2144,0.49093 -0.44441,0.49093 -0.44441,1.33842 v 3.27112 h -0.95602 v -5.78776 h 0.95602 v 0.89917 q 0.34106,-0.52194 0.80098,-0.78032 0.46509,-0.25838 1.0697,-0.25838 0.99736,0 1.50895,0.62012 0.5116,0.61495 0.5116,1.81384 z"
             style="stroke-width:0.01852198"
             id="path501"
             inkscape:connector-curvature="0" />
          <path
             d="m 126.04939,101.61699 v 0.89917 q -0.40308,-0.20671 -0.83716,-0.31006 -0.43408,-0.10335 -0.89917,-0.10335 -0.70797,0 -1.06454,0.21704 -0.3514,0.21704 -0.3514,0.65112 0,0.33073 0.25322,0.52193 0.25321,0.18604 1.01802,0.35657 l 0.32557,0.0724 q 1.01285,0.21704 1.4366,0.61495 0.42891,0.39274 0.42891,1.10071 0,0.80615 -0.64078,1.2764 -0.63562,0.47026 -1.75183,0.47026 -0.46509,0 -0.97152,-0.093 -0.50126,-0.0879 -1.05937,-0.26872 v -0.98185 q 0.5271,0.27389 1.0387,0.41341 0.51159,0.13436 1.01286,0.13436 0.67179,0 1.03352,-0.22737 0.36174,-0.23255 0.36174,-0.65113 0,-0.38757 -0.26355,-0.59428 -0.25838,-0.2067 -1.14205,-0.39791 l -0.33073,-0.0775 q -0.88367,-0.18604 -1.27641,-0.56844 -0.39274,-0.38757 -0.39274,-1.05937 0,-0.81649 0.57878,-1.2609 0.57877,-0.44442 1.64331,-0.44442 0.5271,0 0.99219,0.0775 0.46508,0.0775 0.85783,0.23255 z"
             style="stroke-width:0.01852198"
             id="path503"
             inkscape:connector-curvature="0" />
          <path
             d="m 128.81924,99.803146 v 1.643314 h 1.95854 v 0.73897 h -1.95854 v 3.14193 q 0,0.70796 0.19121,0.9095 0.19637,0.20154 0.79064,0.20154 h 0.97669 v 0.79582 h -0.97669 q -1.1007,0 -1.51928,-0.40825 -0.41858,-0.41341 -0.41858,-1.49861 v -3.14193 h -0.69763 v -0.73897 h 0.69763 v -1.643314 z"
             style="stroke-width:0.01852198"
             id="path505"
             inkscape:connector-curvature="0" />
          <path
             d="m 135.38732,102.33529 q -0.1602,-0.093 -0.3514,-0.13436 -0.18604,-0.0465 -0.41341,-0.0465 -0.80616,0 -1.24024,0.5271 -0.42891,0.52194 -0.42891,1.50379 v 3.04891 h -0.95602 v -5.78776 h 0.95602 v 0.89917 q 0.29972,-0.5271 0.78031,-0.78032 0.48059,-0.25838 1.16789,-0.25838 0.0982,0 0.21704,0.0155 0.11886,0.0103 0.26355,0.0362 z"
             style="stroke-width:0.01852198"
             id="path507"
             inkscape:connector-curvature="0" />
          <path
             d="m 136.29683,104.95012 v -3.50366 h 0.95084 v 3.46749 q 0,0.82165 0.3204,1.23506 0.32039,0.40825 0.96118,0.40825 0.76998,0 1.2144,-0.49093 0.44958,-0.49093 0.44958,-1.33842 v -3.28145 h 0.95085 v 5.78776 h -0.95085 v -0.88884 q -0.34623,0.5271 -0.80615,0.78548 -0.45475,0.25322 -1.05937,0.25322 -0.99735,0 -1.51412,-0.62012 -0.51676,-0.62012 -0.51676,-1.81384 z m 2.39262,-3.64319 z"
             style="stroke-width:0.01852198"
             id="path509"
             inkscape:connector-curvature="0" />
          <path
             d="m 147.27806,101.66867 v 0.88883 q -0.40308,-0.22221 -0.81132,-0.33073 -0.40308,-0.11369 -0.81649,-0.11369 -0.92501,0 -1.4366,0.58911 -0.5116,0.58395 -0.5116,1.64331 0,1.05937 0.5116,1.64848 0.51159,0.58395 1.4366,0.58395 0.41341,0 0.81649,-0.10852 0.40824,-0.11369 0.81132,-0.3359 v 0.8785 q -0.39791,0.18603 -0.82682,0.27905 -0.42375,0.093 -0.90434,0.093 -1.30742,0 -2.07739,-0.82166 -0.76998,-0.82165 -0.76998,-2.21692 0,-1.41593 0.77514,-2.22725 0.78032,-0.81132 2.13424,-0.81132 0.43925,0 0.85783,0.093 0.41858,0.0878 0.81132,0.26872 z"
             style="stroke-width:0.01852198"
             id="path511"
             inkscape:connector-curvature="0" />
          <path
             d="m 149.88255,99.803146 v 1.643314 h 1.95854 v 0.73897 h -1.95854 v 3.14193 q 0,0.70796 0.1912,0.9095 0.19637,0.20154 0.79065,0.20154 h 0.97669 v 0.79582 h -0.97669 q -1.1007,0 -1.51928,-0.40825 -0.41858,-0.41341 -0.41858,-1.49861 v -3.14193 h -0.69763 v -0.73897 h 0.69763 v -1.643314 z"
             style="stroke-width:0.01852198"
             id="path513"
             inkscape:connector-curvature="0" />
          <path
             d="m 157.40664,99.803146 v 1.643314 h 1.95854 v 0.73897 h -1.95854 v 3.14193 q 0,0.70796 0.19121,0.9095 0.19637,0.20154 0.79065,0.20154 h 0.97668 v 0.79582 h -0.97668 q -1.10071,0 -1.51929,-0.40825 -0.41858,-0.41341 -0.41858,-1.49861 v -3.14193 H 155.753 v -0.73897 h 0.69763 v -1.643314 z"
             style="stroke-width:0.01852198"
             id="path515"
             inkscape:connector-curvature="0" />
          <path
             d="m 165.43199,103.74089 v 3.49333 h -0.95084 v -3.46232 q 0,-0.82166 -0.3204,-1.2299 -0.32039,-0.40825 -0.96118,-0.40825 -0.76998,0 -1.21439,0.49093 -0.44442,0.49093 -0.44442,1.33842 v 3.27112 h -0.95601 v -8.040856 h 0.95601 v 3.152266 q 0.34106,-0.52194 0.80098,-0.78032 0.46509,-0.25838 1.06971,-0.25838 0.99735,0 1.50895,0.62012 0.51159,0.61495 0.51159,1.81384 z"
             style="stroke-width:0.01852198"
             id="path517"
             inkscape:connector-curvature="0" />
          <path
             d="m 172.28946,104.10263 v 0.46508 h -4.37182 q 0.062,0.98186 0.58911,1.49862 0.53226,0.5116 1.47794,0.5116 0.54777,0 1.05937,-0.13436 0.51676,-0.13436 1.02319,-0.40308 v 0.89917 q -0.51159,0.21704 -1.04903,0.33073 -0.53743,0.11369 -1.09037,0.11369 -1.38493,0 -2.19625,-0.80615 -0.80615,-0.80616 -0.80615,-2.18075 0,-1.4211 0.76481,-2.25309 0.76998,-0.83716 2.07222,-0.83716 1.16789,0 1.84485,0.75448 0.68213,0.7493 0.68213,2.04122 z m -0.95084,-0.27906 q -0.0103,-0.78031 -0.43925,-1.2454 -0.42375,-0.46509 -1.12655,-0.46509 -0.79582,0 -1.27641,0.44959 -0.47542,0.44958 -0.54777,1.26607 z"
             style="stroke-width:0.01852198"
             id="path519"
             inkscape:connector-curvature="0" />
          <path
             d="m 181.72557,102.5575 q 0.35657,-0.64079 0.85266,-0.94568 0.49609,-0.30489 1.16789,-0.30489 0.90433,0 1.39526,0.63562 0.49093,0.63045 0.49093,1.79834 v 3.49333 h -0.95602 v -3.46232 q 0,-0.83199 -0.29455,-1.23507 -0.29456,-0.40308 -0.89917,-0.40308 -0.73898,0 -1.16789,0.49093 -0.42891,0.49093 -0.42891,1.33842 v 3.27112 h -0.95602 v -3.46232 q 0,-0.83716 -0.29455,-1.23507 -0.29456,-0.40308 -0.90951,-0.40308 -0.72864,0 -1.15755,0.4961 -0.42892,0.49092 -0.42892,1.33325 v 3.27112 h -0.95601 v -5.78776 h 0.95601 v 0.89917 q 0.32557,-0.53227 0.78032,-0.78549 0.45475,-0.25321 1.08004,-0.25321 0.63045,0 1.0697,0.32039 0.44442,0.3204 0.65629,0.93018 z"
             style="stroke-width:0.01852198"
             id="path521"
             inkscape:connector-curvature="0" />
          <path
             d="m 192.48461,104.10263 v 0.46508 h -4.37183 q 0.062,0.98186 0.58911,1.49862 0.53227,0.5116 1.47795,0.5116 0.54777,0 1.05936,-0.13436 0.51677,-0.13436 1.0232,-0.40308 v 0.89917 q -0.5116,0.21704 -1.04903,0.33073 -0.53744,0.11369 -1.09038,0.11369 -1.38492,0 -2.19624,-0.80615 -0.80616,-0.80616 -0.80616,-2.18075 0,-1.4211 0.76481,-2.25309 0.76998,-0.83716 2.07223,-0.83716 1.16789,0 1.84485,0.75448 0.68213,0.7493 0.68213,2.04122 z m -0.95085,-0.27906 q -0.0103,-0.78031 -0.43925,-1.2454 -0.42375,-0.46509 -1.12655,-0.46509 -0.79581,0 -1.2764,0.44959 -0.47543,0.44958 -0.54777,1.26607 z"
             style="stroke-width:0.01852198"
             id="path523"
             inkscape:connector-curvature="0" />
          <path
             d="m 197.73493,101.61699 v 0.89917 q -0.40307,-0.20671 -0.83716,-0.31006 -0.43408,-0.10335 -0.89917,-0.10335 -0.70796,0 -1.06453,0.21704 -0.3514,0.21704 -0.3514,0.65112 0,0.33073 0.25321,0.52193 0.25322,0.18604 1.01803,0.35657 l 0.32556,0.0724 q 1.01286,0.21704 1.43661,0.61495 0.42891,0.39274 0.42891,1.10071 0,0.80615 -0.64079,1.2764 -0.63562,0.47026 -1.75183,0.47026 -0.46509,0 -0.97151,-0.093 -0.50127,-0.0879 -1.05937,-0.26872 v -0.98185 q 0.5271,0.27389 1.03869,0.41341 0.5116,0.13436 1.01286,0.13436 0.6718,0 1.03353,-0.22737 0.36174,-0.23255 0.36174,-0.65113 0,-0.38757 -0.26355,-0.59428 -0.25839,-0.2067 -1.14205,-0.39791 l -0.33073,-0.0775 q -0.88367,-0.18604 -1.27641,-0.56844 -0.39274,-0.38757 -0.39274,-1.05937 0,-0.81649 0.57878,-1.2609 0.57877,-0.44442 1.64331,-0.44442 0.5271,0 0.99218,0.0775 0.46509,0.0775 0.85783,0.23255 z"
             style="stroke-width:0.01852198"
             id="path525"
             inkscape:connector-curvature="0" />
          <path
             d="m 203.25398,101.61699 v 0.89917 q -0.40308,-0.20671 -0.83716,-0.31006 -0.43408,-0.10335 -0.89917,-0.10335 -0.70797,0 -1.06454,0.21704 -0.3514,0.21704 -0.3514,0.65112 0,0.33073 0.25322,0.52193 0.25321,0.18604 1.01802,0.35657 l 0.32556,0.0724 q 1.01286,0.21704 1.43661,0.61495 0.42891,0.39274 0.42891,1.10071 0,0.80615 -0.64078,1.2764 -0.63562,0.47026 -1.75183,0.47026 -0.46509,0 -0.97152,-0.093 -0.50126,-0.0879 -1.05937,-0.26872 v -0.98185 q 0.5271,0.27389 1.0387,0.41341 0.51159,0.13436 1.01286,0.13436 0.67179,0 1.03352,-0.22737 0.36174,-0.23255 0.36174,-0.65113 0,-0.38757 -0.26355,-0.59428 -0.25838,-0.2067 -1.14205,-0.39791 l -0.33073,-0.0775 q -0.88367,-0.18604 -1.27641,-0.56844 -0.39274,-0.38757 -0.39274,-1.05937 0,-0.81649 0.57878,-1.2609 0.57877,-0.44442 1.64331,-0.44442 0.5271,0 0.99219,0.0775 0.46508,0.0775 0.85783,0.23255 z"
             style="stroke-width:0.01852198"
             id="path527"
             inkscape:connector-curvature="0" />
          <path
             d="m 207.71365,104.32483 q -1.15238,0 -1.5968,0.26355 -0.44442,0.26355 -0.44442,0.89917 0,0.50643 0.33073,0.80616 0.3359,0.29455 0.90951,0.29455 0.79065,0 1.26607,-0.5581 0.48059,-0.56328 0.48059,-1.49345 v -0.21188 z m 1.89653,-0.39274 v 3.30213 h -0.95085 v -0.8785 q -0.32556,0.5271 -0.81132,0.78031 -0.48576,0.24805 -1.18856,0.24805 -0.88883,0 -1.41593,-0.4961 -0.52193,-0.50126 -0.52193,-1.33841 0,-0.97669 0.65112,-1.47278 0.65629,-0.4961 1.95337,-0.4961 h 1.33325 v -0.093 q 0,-0.65629 -0.43408,-1.01286 -0.42892,-0.36174 -1.20923,-0.36174 -0.49609,0 -0.96635,0.11886 -0.47026,0.11885 -0.90434,0.35657 v -0.8785 q 0.52193,-0.20154 1.01286,-0.29973 0.49093,-0.10335 0.95601,-0.10335 1.25574,0 1.87586,0.65112 0.62012,0.65113 0.62012,1.97404 z"
             style="stroke-width:0.01852198"
             id="path529"
             inkscape:connector-curvature="0" />
          <path
             d="m 215.38243,104.27316 q 0,-1.03353 -0.42892,-1.60197 -0.42374,-0.56844 -1.19372,-0.56844 -0.76481,0 -1.19373,0.56844 -0.42374,0.56844 -0.42374,1.60197 0,1.02836 0.42374,1.5968 0.42892,0.56844 1.19373,0.56844 0.76998,0 1.19372,-0.56844 0.42892,-0.56844 0.42892,-1.5968 z m 0.95085,2.24275 q 0,1.47795 -0.6563,2.19625 -0.65629,0.72347 -2.01021,0.72347 -0.50126,0 -0.94568,-0.0775 -0.44441,-0.0724 -0.86299,-0.22738 v -0.92501 q 0.41858,0.22738 0.82682,0.3359 0.40824,0.10852 0.83199,0.10852 0.93534,0 1.40043,-0.49092 0.46509,-0.48576 0.46509,-1.47278 v -0.47026 q -0.29456,0.5116 -0.75448,0.76481 -0.45992,0.25322 -1.1007,0.25322 -1.06454,0 -1.71566,-0.81132 -0.65113,-0.81132 -0.65113,-2.14974 0,-1.34359 0.65113,-2.15491 0.65112,-0.81132 1.71566,-0.81132 0.64078,0 1.1007,0.25321 0.45992,0.25322 0.75448,0.76482 v -0.8785 h 0.95085 z"
             style="stroke-width:0.01852198"
             id="path531"
             inkscape:connector-curvature="0" />
          <path
             d="m 223.24242,104.10263 v 0.46508 h -4.37183 q 0.062,0.98186 0.58911,1.49862 0.53227,0.5116 1.47795,0.5116 0.54777,0 1.05937,-0.13436 0.51676,-0.13436 1.02319,-0.40308 v 0.89917 q -0.5116,0.21704 -1.04903,0.33073 -0.53744,0.11369 -1.09037,0.11369 -1.38493,0 -2.19625,-0.80615 -0.80615,-0.80616 -0.80615,-2.18075 0,-1.4211 0.76481,-2.25309 0.76998,-0.83716 2.07222,-0.83716 1.16789,0 1.84485,0.75448 0.68213,0.7493 0.68213,2.04122 z m -0.95085,-0.27906 q -0.0103,-0.78031 -0.43925,-1.2454 -0.42374,-0.46509 -1.12654,-0.46509 -0.79582,0 -1.27641,0.44959 -0.47542,0.44958 -0.54777,1.26607 z"
             style="stroke-width:0.01852198"
             id="path533"
             inkscape:connector-curvature="0" />
          <path
             d="m 228.54959,105.92164 h 1.09554 v 1.31258 h -1.09554 z m 3.51916,0 h 1.10071 v 1.31258 h -1.10071 z m -7.04349,0 h 1.1007 v 1.31258 h -1.1007 z"
             style="stroke-width:0.01852198"
             id="path535"
             inkscape:connector-curvature="0" />
        </g>
      </g>
    </g>
  </g>
</svg>
