<?xml version="1.0" encoding="UTF-8" standalone="no"?>
<svg
   xmlns:dc="http://purl.org/dc/elements/1.1/"
   xmlns:cc="http://creativecommons.org/ns#"
   xmlns:rdf="http://www.w3.org/1999/02/22-rdf-syntax-ns#"
   xmlns:svg="http://www.w3.org/2000/svg"
   xmlns="http://www.w3.org/2000/svg"
   xmlns:sodipodi="http://sodipodi.sourceforge.net/DTD/sodipodi-0.dtd"
   xmlns:inkscape="http://www.inkscape.org/namespaces/inkscape"
   width="654.79883pt"
   height="1285.8601pt"
   version="1.1"
   viewBox="0 0 654.80174 1285.8715"
   id="svg84"
   sodipodi:docname="hiding.svg"
   inkscape:version="0.92.4 (5da689c313, 2019-01-14)">
  <metadata
     id="metadata90">
    <rdf:RDF>
      <cc:Work
         rdf:about="">
        <dc:format>image/svg+xml</dc:format>
        <dc:type
           rdf:resource="http://purl.org/dc/dcmitype/StillImage" />
        <dc:title />
      </cc:Work>
    </rdf:RDF>
  </metadata>
  <defs
     id="defs88" />
  <sodipodi:namedview
     pagecolor="#ffffff"
     bordercolor="#666666"
     borderopacity="1"
     objecttolerance="10"
     gridtolerance="10"
     guidetolerance="10"
     inkscape:pageopacity="0"
     inkscape:pageshadow="2"
     inkscape:window-width="1920"
     inkscape:window-height="1043"
     id="namedview86"
     showgrid="false"
     fit-margin-top="0"
     fit-margin-left="0"
     fit-margin-right="0"
     fit-margin-bottom="0"
     inkscape:zoom="0.27529356"
     inkscape:cx="541.37225"
     inkscape:cy="537.37953"
     inkscape:window-x="1600"
     inkscape:window-y="18"
     inkscape:window-maximized="0"
     inkscape:current-layer="svg84" />
  <g
     id="g893"
     transform="rotate(-25.547585,412.56439,573.80173)">
    <path
       style="fill:#fac99e"
       inkscape:connector-curvature="0"
       id="path2"
       d="m 474.58624,244.28997 c -8.44,-2.06 -17.21,-0.96 -25.79,-1.81 -9.95,-0.15 -19.93,-0.39 -29.88,0.29 -6.91,0.38 -13.94,-0.24 -20.71,1.53 -15.9,1.48 -31.66,4.64 -46.92,9.42 -6.4,1.88 -12.35,4.94 -18.51,7.44 -19.92,9.23 -37.71,23.86 -49.02,42.83 -7.55,11.93 -12.33,25.44 -14.96,39.27 -1.74,9.23 -4.15,18.46 -3.76,27.93 0.13,14.31 -0.34,28.65 0.52,42.94 1.68,9.56 0.68,19.32 1.86,28.92 1.44,7.79 1.49,15.78 1.08,23.67 -2.36,-3.84 -3.24,-8.33 -4.88,-12.49 -2.59,-7 -4.75,-14.15 -7.13,-21.23 -0.15,0.76 -0.45,2.27 -0.6,3.02 -3.57,-3.15 -7.17,-6.81 -12.01,-7.85 -3.54,-0.77 -7.5,-1.86 -10.87,0.1 -4.56,2.45 -5.97,8.06 -6.41,12.84 -1.47,17.43 4.9,34.32 12.8,49.55 6.34,10.96 13.87,21.23 22.61,30.39 3.29,3.08 7.39,6.01 8.08,10.82 5.87,31.99 20.75,61.89 40.74,87.39 17.05,21.65 36.12,42.2 59.26,57.44 0.52,0.33 1.55,0.97 2.06,1.3 8.7,5.04 17.92,9.11 26.71,13.99 5.26,1.13 10.49,2.43 15.73,3.68 8.92,2.36 18.22,0.89 27.32,1.33 9.01,0.51 17.3,-3.6 26.04,-5.03 5.26,-2.59 10.33,-5.56 15.49,-8.34 3.53,-2.18 7.47,-3.63 10.87,-6.01 7.14,-5.24 14.37,-10.36 21.57,-15.5 8.2,-5.62 14.98,-12.98 21.5,-20.41 19.32,-20.48 36.53,-43.45 47.51,-69.55 6.05,-12.75 9.48,-26.52 12.69,-40.2 1,-5.18 7.54,-5.08 10.67,-8.45 15.9,-15.76 28.63,-35.09 35.05,-56.65 0.97,-4.56 2.64,-9 2.66,-13.72 0.6,-7.37 1.33,-15.62 -2.97,-22.1 -2.69,-4 -8.04,-4.54 -12.34,-3.26 -5.57,0.69 -9.79,4.62 -13.74,8.25 -0.15,-0.76 -0.45,-2.27 -0.6,-3.03 -3.91,11.27 -7.03,22.92 -12.02,33.75 -0.41,-6.43 -0.22,-12.91 0.38,-19.32 1.81,-8.95 1.16,-18.13 1.78,-27.19 1.85,-11.93 1.09,-24.04 1.32,-36.06 -0.09,-7.56 0.22,-15.13 -0.29,-22.67 -0.78,-5.48 -1.98,-10.9 -3.13,-16.31 -2.53,-14.51 -7.41,-28.72 -15.31,-41.21 -12.69,-21.23 -33.36,-37.03 -56.27,-45.9 -4.36,-2.12 -8.94,-3.73 -13.59,-5.08 -14.52,-4.4 -29.5,-7.3 -44.59,-8.72 m 58.92,147.43 c 7.47,1.24 14.01,5.37 19.96,9.83 6.19,4.9 10,12.09 13,19.24 7.34,19.13 -0.89,43.02 -18.76,53.21 -15.72,10.43 -37.95,8.56 -52.35,-3.36 -7.98,-6.28 -13.39,-15.58 -15.49,-25.47 -0.87,-8.87 -1.32,-18.3 2.43,-26.62 1.74,-3.77 3.74,-7.46 6.23,-10.79 4.46,-5.63 10.5,-9.84 16.89,-13.02 8.65,-4.32 18.72,-4.52 28.09,-3.02 m -174.99,0 c 8.06,1.66 15.31,6.1 21.46,11.44 4.75,4.15 7.88,9.75 10.52,15.39 3.53,7.68 3.21,16.37 2.68,24.61 -2.6,20.39 -21.45,36.96 -41.91,37.48 -12.9,1.34 -25.43,-4.51 -34.76,-13.09 -7.96,-8.44 -12.56,-19.78 -13.03,-31.35 0.24,-11.21 4.57,-22.1 11.7,-30.69 3.65,-4.17 8.4,-7.17 13.19,-9.84 9.12,-5.04 20.05,-5.65 30.15,-3.95 m 83.77,65.85 c 2.67,14.58 7.39,28.77 8.88,43.56 1.34,4.92 1.99,9.95 1.71,15.05 0.55,7.25 0.61,14.55 -0.38,21.77 -2.37,6.77 -6.27,13.56 -13.05,16.69 -4.87,1.25 -10.32,0.41 -14.29,-2.79 -3.94,-2.66 -8.09,-7.64 -5.48,-12.57 2.43,1.43 5,3.3 7.99,2.68 4.17,-0.7 9.79,-0.83 11.68,-5.39 2.09,-5.54 3.93,-11.39 3.64,-17.39 -0.05,-9 -0.01,-17.99 0.02,-26.99 0.06,-6.37 -1.64,-12.57 -1.9,-18.91 -0.32,-6.73 -1.68,-13.43 -1,-20.18 0.86,1.41 1.84,2.82 2.18,4.47 m 6.5645,165.13 c 4.69,2.07 9.6909,-9.1246 12.521,-4.4946 2.6,0.45 11.975,-8.9164 13.525,-6.9964 3.9,4.95 4.22,11.81 2.65,17.69 -2.03,4.87 -5.73,8.9 -9.93,12.02 -1.55,1.38 -3.72,0.38 -5.54,0.3 0.55,0.82 1.09,1.64 1.62,2.47 -5.86,2.52 -11.74,5.32 -18.17,5.99 -7.79,0.73 -15.66,0.76 -23.46,0.09 -6.76,-0.64 -12.92,-3.67 -19.11,-6.22 0.94,-0.8 1.86,-1.65 2.94,-2.27 -1.8,0.2 -3.68,0.77 -5.48,0.31 -6.57,-4.58 -12.45,-11.75 -12.08,-20.16 1.09,-5.78 4.2591,2.65 9.7391,0.01 1.44,-1.74 4.5173,-0.48545 6.5173,-1.5454 9.4,-5.34 10.679,2.4291 21.489,3.0491 7.58,-0.4 15.589,-2.5627 22.769,-0.24274 z" />
    <g
       style="fill:#ffffff"
       id="g16"
       transform="matrix(-1,0,0,1,709.89924,-33.822033)">
      <path
         inkscape:connector-curvature="0"
         id="path4"
         d="m 176.39,425.54 c 9.37,-1.5 19.44,-1.3 28.09,3.02 6.39,3.18 12.43,7.39 16.89,13.02 2.49,3.33 4.49,7.02 6.23,10.79 3.75,8.32 3.3,17.75 2.43,26.62 -2.1,9.89 -7.51,19.19 -15.49,25.47 -14.4,11.92 -36.63,13.79 -52.35,3.36 -17.87,-10.19 -26.1,-34.08 -18.76,-53.21 3,-7.15 6.81,-14.34 13,-19.24 5.95,-4.46 12.49,-8.59 19.96,-9.83 m 2.98,21.81 c -5.18,1.83 -10.77,4.51 -13.11,9.82 -4.4,7.42 -4.85,17.41 -0.16,24.8 6.89,12.45 26.47,14.7 36.02,4.13 9.04,-8.11 9.33,-23.49 0.88,-32.11 -5.74,-6.53 -15.36,-9.02 -23.63,-6.64 z" />
      <path
         inkscape:connector-curvature="0"
         id="path6"
         d="m 351.38,425.54 c 10.1,-1.7 21.03,-1.09 30.15,3.95 4.79,2.67 9.54,5.67 13.19,9.84 7.13,8.59 11.46,19.48 11.7,30.69 -0.47,11.57 -5.07,22.91 -13.03,31.35 -9.33,8.58 -21.86,14.43 -34.76,13.09 -20.46,-0.52 -39.31,-17.09 -41.91,-37.48 -0.53,-8.24 -0.85,-16.93 2.68,-24.61 2.64,-5.64 5.77,-11.24 10.52,-15.39 6.15,-5.34 13.4,-9.78 21.46,-11.44 m 3.95,21.65 c -11.18,2.59 -19.19,14.46 -17.24,25.74 1.44,10.95 11.72,20.35 22.92,19.85 8.06,0.18 16.55,-4.09 20.25,-11.44 3.24,-5.45 3.56,-12.23 2.08,-18.27 -1.84,-4.78 -3.96,-10.15 -8.86,-12.53 -5.58,-3.69 -12.67,-5.03 -19.15,-3.35 z" />
      <path
         inkscape:connector-curvature="0"
         id="path8"
         d="m 189.88,457.9 c 1.6,-1.96 4.38,-1.27 6.57,-1.17 3.26,1.27 3.4,5.28 2.87,8.23 -0.09,2.38 -2.89,2.52 -4.55,3.4 -2.1,0.88 -3.87,-1.04 -5.71,-1.73 -0.85,-2.84 -1.54,-6.39 0.82,-8.73 z" />
      <path
         inkscape:connector-curvature="0"
         id="path10"
         d="m 350.54,456.73 c 1.63,-0.22 3.29,-0.22 4.93,-0.03 1.94,1.4 4.18,3.42 4.19,5.99 -1.02,3.06 -3.8,6.75 -7.43,5.67 -1.66,-0.87 -4.47,-1.02 -4.55,-3.4 -0.54,-2.96 -0.39,-6.93 2.86,-8.23 z" />
      <path
         inkscape:connector-curvature="0"
         id="path12"
         d="m 247.82,675.04 c 6.04,-0.78 12.07,-1.78 18.17,-1.84 12.69,-0.09 25.49,-0.6 38.01,1.9 1.08,0.62 2,1.47 2.94,2.27 -6.19,2.55 -12.35,5.58 -19.11,6.22 -7.8,0.67 -15.67,0.64 -23.46,-0.09 -6.43,-0.67 -12.31,-3.47 -18.17,-5.99 0.53,-0.83 1.07,-1.65 1.62,-2.47 z" />
      <path
         inkscape:connector-curvature="0"
         id="path14"
         d="m 181.8,965.01 c 0.97,-1.1 1.88,-0.97 2.73,0.41 -0.18,0.43 -0.53,1.3 -0.7,1.74 -1.48,-0.02 -2.15,-0.73 -2.03,-2.15 z" />
    </g>
    <path
       style="fill:#41240b"
       inkscape:connector-curvature="0"
       id="path18"
       d="m 432.97624,3.0377667 c -8.1,-2.51 -16.59,-3.38 -25.06,-2.92 -4.16,0.4 -8.53,-0.34 -12.44,1.47 -8.27,0.88 -15.65,5 -23.3,7.94 -1.52,0.3 -1.89,1.9600003 -2.65,3.0800003 7.1,-0.93 14.56,-1.73 21.5,0.48 3.79,0.48 7.76,-0.16 11.36,1.44 11.24,1.96 21.99,7 30.28,14.9 5.63,4.37 8.33,11.19 11.67,17.26 1.02,3.46 2.56,6.73 2.66,10.41 2.07,4.42 1.44,9.34 1.51,14.08 -0.05,4.11 0.5,8.39 -1.42,12.2 -0.37,4.47 -2.52,8.45 -4.65,12.31 -5.13,8.420003 -14.73,13.640003 -24.54,13.830003 -17.21,0.78 -35.4,-10.210003 -39.95,-27.350003 -0.06,-5.11 -1.07,-10.64 1.3,-15.39 1.15,-4.55 4.16,-8.27 5.77,-12.63 -3.64,0.88 -5.64,4.5 -8.28,6.88 -7.27,8.73 -13.18,18.56 -18.12,28.78 -2.03,4.1 -2.97,8.6 -4.63,12.840003 -0.11,-6.840003 -0.9,-14.030003 1.4,-20.590003 0.19,-3.76 0.69,-7.67 -0.57,-11.3 -5.16,9.46 -10.16,19.09 -16.52,27.83 -6.42,8.190003 -13.91,15.450003 -21.99,21.980003 -18.01,13.65 -39.21,22.2 -57.27,35.77 -4.72,4.62 -10.47,8.14 -14.39,13.57 -11.51,12.76 -19.49,28.55 -23.98,45.07 -1.75,4.25 -0.63,9.07 -2.39,13.38 -0.53,9.58 -0.12,19.22 -0.25,28.82 0.24,5.71 -0.5,11.57 1.08,17.14 1.43,5.41 -0.44,11.29 1.95,16.49 1.14,3.84 -0.26,8.11 1.51,11.83 1.51,2.9 0.1,6.4 1.62,9.29 1.86,3.32 0.27,7.42 2.32,10.7 4.55,20.12 8.65,40.44 14.71,60.21 4.59,16.85 9.26,33.74 15.27,50.16 2.38,7.08 4.54,14.23 7.13,21.23 1.64,4.16 2.52,8.65 4.88,12.49 0.41,-7.89 0.36,-15.88 -1.08,-23.67 -1.18,-9.6 -0.18,-19.36 -1.86,-28.92 -0.86,-14.29 -0.39,-28.63 -0.52,-42.94 -0.39,-9.47 2.02,-18.7 3.76,-27.93 2.63,-13.83 7.41,-27.34 14.96,-39.27 11.31,-18.97 29.1,-33.6 49.02,-42.83 6.16,-2.5 12.11,-5.56 18.51,-7.44 15.26,-4.78 31.02,-7.94 46.92,-9.42 6.77,-1.77 13.8,-1.15 20.71,-1.53 9.95,-0.68 19.93,-0.44 29.88,-0.29 8.58,0.85 17.35,-0.25 25.79,1.81 15.09,1.42 30.07,4.32 44.59,8.72 4.65,1.35 9.23,2.96 13.59,5.08 22.91,8.87 43.58,24.67 56.27,45.9 7.9,12.49 12.78,26.7 15.31,41.21 1.15,5.41 2.35,10.83 3.13,16.31 0.51,7.54 0.2,15.11 0.29,22.67 -0.23,12.02 0.53,24.13 -1.32,36.06 -0.62,9.06 0.03,18.24 -1.78,27.19 -0.6,6.41 -0.79,12.89 -0.38,19.32 4.99,-10.83 8.11,-22.48 12.02,-33.75 6.39,-17.44 11.23,-35.4 16.15,-53.29 2.64,-7.08 3.66,-14.59 5.87,-21.79 0.69,-2.46 1.03,-4.99 1.15,-7.52 0.29,0.54 0.59,1.09 0.89,1.65 0.15,-7.01 2.88,-13.63 3.81,-20.54 1.11,-3.37 1.05,-7.05 2.67,-10.24 1.37,-2.95 -0.01,-6.49 1.76,-9.34 1.52,-2.89 0.11,-6.4 1.62,-9.29 1.41,-2.98 0.82,-6.35 1.09,-9.51 -0.01,-2.42 1.62,-4.47 1.62,-6.88 0.16,-5.08 -0.09,-10.22 1.46,-15.12 0.67,-12.31 0.32,-24.66 0.28,-36.99 0.18,-4.13 -2.23,-7.84 -1.79,-11.99 0.25,-3.45 -1.93,-6.41 -1.93,-9.85 -3.1,-13.83 -10.84,-25.99 -18.71,-37.55 -5.06,-5.88 -10.66,-11.29 -16.34,-16.58 -7.91,-6.3 -16.76,-11.25 -25.29,-16.64 -16.85,-8.77 -33.46,-18.58 -47.11,-31.95 -7.74,-9.17 -15.55,-18.490003 -20.56,-29.510003 -1.65,-2.99 -2.37,-6.58 -4.76,-9.1 -1.77,5.2 1.51,9.99 1.36,15.14 0.15,5.96 1.39,11.91 0.63,17.880003 -0.38,0.32 -1.15,0.96 -1.53,1.28 -1.89,-6.610003 -5.23,-12.690003 -7.86,-19.010003 -7.42,-15.84 -16.35,-31.02 -27.15,-44.8 -3.58,-4.11 -6.49,-8.81 -10.73,-12.32 -11.24,-11.38 -24.71,-20.8900003 -39.93,-26.1000003 z" />
    <path
       style="fill:#41240b"
       inkscape:connector-curvature="0"
       id="path20"
       d="m 554.35624,332.24997 c -11.416,-5.938 -23.172,-12.457 -36.259,-13.409 -4.5214,0.13973 -9.5807,-0.28074 -13.412,2.6048 -2.1583,3.782 -1.8747,8.8436 1.2245,12.035 3.2941,3.7322 8.6214,3.9425 13.059,5.3986 6.616,2.4772 13.508,4.1128 20.024,6.8758 12.517,5.7975 24.527,13.063 34.351,22.859 8.4849,7.4267 13.519,18.267 23.056,24.553 1.1107,-1.425 2.8537,-2.6482 2.697,-4.6614 -0.30835,-7.8133 -4.4406,-14.71 -8.3535,-21.235 -9.5479,-14.007 -21.998,-26.07 -36.387,-35.021 z" />
    <path
       style="fill:#41240b"
       inkscape:connector-curvature="0"
       id="path22"
       d="m 363.48624,317.99997 c -3.9484,-2.4233 -8.8836,-2.3525 -13.359,-1.9893 -10.99,1.5022 -20.915,6.8496 -30.374,12.354 -10.914,5.9084 -19.872,14.724 -28.035,23.93 -4.3466,4.1454 -6.8586,9.6789 -10.548,14.354 -4.1476,7.1748 -8.3238,14.947 -8.3015,23.463 -0.0443,2.0283 1.7892,3.1375 2.9662,4.5025 4.7783,-3.0182 7.7075,-7.9895 11.171,-12.305 12.435,-19.278 31.622,-33.739 52.82,-42.142 3.5267,-1.1369 6.9708,-2.4692 10.35,-3.9704 4.7295,-1.9091 11.058,-2.2646 13.646,-7.3528 2.0795,-3.3304 1.6803,-7.5894 -0.33599,-10.843 z" />
    <path
       style="fill:#41240b"
       inkscape:connector-curvature="0"
       id="path24"
       d="m 530.52624,413.52997 c -8.27,-2.38 -17.89,0.11 -23.63,6.64 -8.45,8.62 -8.16,24 0.88,32.11 9.55,10.57 29.13,8.32 36.02,-4.13 4.69,-7.39 4.24,-17.38 -0.16,-24.8 -2.34,-5.31 -7.93,-7.99 -13.11,-9.82 m -10.51,10.55 c 2.36,2.34 1.67,5.89 0.82,8.73 -1.84,0.69 -3.61,2.61 -5.71,1.73 -1.66,-0.88 -4.46,-1.02 -4.55,-3.4 -0.53,-2.95 -0.39,-6.96 2.87,-8.23 2.19,-0.1 4.97,-0.79 6.57,1.17 z" />
    <path
       style="fill:#41240b"
       inkscape:connector-curvature="0"
       id="path26"
       d="m 354.56624,413.36997 c -6.48,-1.68 -13.57,-0.34 -19.15,3.35 -4.9,2.38 -7.02,7.75 -8.86,12.53 -1.48,6.04 -1.16,12.82 2.08,18.27 3.7,7.35 12.19,11.62 20.25,11.44 11.2,0.5 21.48,-8.9 22.92,-19.85 1.95,-11.28 -6.06,-23.15 -17.24,-25.74 m 4.79,9.54 c 3.25,1.3 3.4,5.27 2.86,8.23 -0.08,2.38 -2.89,2.53 -4.55,3.4 -3.63,1.08 -6.41,-2.61 -7.43,-5.67 0.01,-2.57 2.25,-4.59 4.19,-5.99 1.64,-0.19 3.3,-0.19 4.93,0.03 z" />
    <path
       style="fill:#41240b"
       inkscape:connector-curvature="0"
       id="path28"
       d="m 454.74624,947.65997 c -2.65,2.57 -5.94,4.86 -9.8,4.8 -7.69,0.09 -15.39,0.15 -23.08,-0.03 -3.95,0.01 -7.44,-2.14 -10,-4.99 -0.05,0.38 -0.14,1.16 -0.18,1.54 -2.92,0.32 -5.86,0.42 -8.79,0.41 -20.09,-0.17 -40.18,0.09 -60.26,-0.14 0.66,7.03 2.02,14.02 1.82,21.11 -0.17,7.62 1.08,15.19 0.88,22.82 -0.26,4.04 1.11,7.96003 0.91,12.01003 -0.05,7.99 -0.02,15.99 -0.03,23.98 -0.07,6.02 0.4,12.08 -0.77,18.02 0.2,6.69 -1.1,13.29 -0.91,19.99 -0.08,4.29 -0.15,8.6 -0.35,12.9 -2,10.93 -2.37,22.07 -4.12,33.03 -0.18,5.45 -2.06,10.62 -2.27,16.07 -0.89,3.29 -1.74,6.57 -1.77,10.02 -5.16,26.85 -10.96,53.7 -20.3,79.47 -1.06,3.35 -2.55,6.68 -2.39,10.28 -0.25,-0.56 -0.51,-1.1 -0.78,-1.63 -0.49,4.91 -3.72,9.08 -4.09,13.96 13.6,-3.12 27.61,-2.26 41.45,-2.08 10.72,0.81 21.32,3.13 31.6,6.27 9.16,2.84 18.47,7.47 23.65,15.93 0.42,-3.55 -1.25,-6.84 -1.55,-10.31 -0.24,-6.4 -2.25,-12.58 -2.19,-19.01 -1.31,-7.62 -1.45,-15.37 -2.61,-23.02 -0.68,-5.97 0.02,-12.07 -1.54,-17.92 -1.41,-29.98 -1.2,-60.03 0.22,-90 0.31,1.58 0.5,3.2 0.94,4.78 -0.09,-6.01 -0.31,-12.09 0.93,-18.01 0.94,-4.76 1.22,-9.62 0.98,-14.46 0.35,1.26 0.59,2.55 0.89,3.86 0.13,-4.22 0.54,-8.43 1.85,-12.44 1.44,-9.86 4.36,-19.43 6.88,-29.05 4.75,-16.66 12.08,-32.56 21.68,-46.98003 0.72,-0.94 1.49,-1.84 2.25,-2.72 3.17,5.56 7.19,10.64 9.73,16.56003 1.99,4.45 4.83,8.49 6.51,13.1 8.04,20.25 13.53,41.5 16.45,63.1 1.25,4.59 0.59,9.43 1.75,14.06 1.93,8.35 -0.09,17.11 2.19,25.38 0.42,5.95 0.14,11.92 0.3,17.89 0.94,12.99 -0.36,25.99 -0.15,39.01 0.44,3.74 -1.47,7.18 -1.2,10.91 0.25,6.05 -1.28,11.98 -1.04,18.04 0.2,4.36 -0.94,8.62 -1.12,12.97 -0.45,4.99 -0.77,10.01 -1.78,14.94 -0.36,10.28 -2.68,20.33 -3.85,30.51 5.88,-8.94 15.76,-14.07 25.81,-16.87 12.18,-3.34 24.71,-6.03 37.4,-5.73 11.39,-0.17 22.84,-0.3 34,2.29 -0.85,-4.76 -3.52,-8.93 -4.7,-13.6 -10.43,-29.52 -17.98,-60.09 -23.22,-90.87 -1.42,-3.87 -0.93,-8.13 -2.36,-11.99 -0.65,-4.48 -0.69,-9.05 -1.9,-13.43 -1.05,-9.72 -2.14,-19.45 -3.29,-29.14 0.03,-7.24 -0.72,-14.42 -1.15,-21.63 -1.38,-8.41 -0.52,-16.97 -0.89,-25.45 0.09,-10 -0.29,-20.01 0.2,-29.99 -3.96,-0.93 -8.88,-2.52 -9.2,-7.34003 -1.13,-5.35 4.9,-7.41 8.42,-9.76 -9.16,2.65 -16.54,9.48 -25.94,11.42003 -2.36,0.23 -5.27,0.71 -7.13,-1.16003 -2.82,-2.71 -2.8,-7.07 -2.25,-10.65 2.37,-3.42 6.75,-4.17 10.31,-5.78 4.45,-2 9.18,-3.54 13.13,-6.46 -6.36,1.46 -12.13,4.7 -18.44,6.35 -5.21,1.34 -10.71,2.99 -16.1,1.74 -4.41,-1.28 -4.26,-6.71 -3.73,-10.38 0.38,-3.28 3.98,-4.41 6.66,-5.27 8.14,-1.79 16.04,-4.5 23.83,-7.42 -2.39,-0.16 -4.8,-0.26 -7.19,0.12 -6.23,1.13 -12.61,1.51 -18.93,1.61 -5.76,-1.67 -6.77,-9.3 -4.12,-13.99 -4.34,0.28 -8.72,0.35 -13.06,0 -1.22,-0.04 -2.45,-0.45 -3.1,-1.55 z" />
    <path
       style="fill:#41240b"
       inkscape:connector-curvature="0"
       id="path30"
       d="m 576.16924,1280.4 c -5.09,0.87 -10.03,2.56 -15.19,3 -21.09,0.39 -42.21,-0.41 -63.29,0.39 l 0.83,0.04 c 7.14,0.14 14.23,1.3 21.39,1.01 10.99,-0.25 22.03,0.55 32.98,-0.7 2.05,-0.19 4.1,-0.25 6.16,-0.26 3.83,-0.29 7.91,0.51 11.52,-1.08 1.84,-0.9 4.33,-0.59 5.6,-2.4 z" />
    <path
       style="fill:#fac99e"
       inkscape:connector-curvature="0"
       id="path32"
       d="m 55.306242,487.07997 c -5.9563,-2.7058 -12.661,0.16219 -17.689,3.5351 -3.9537,4.0963 -9.1544,11.058 -4.0344,16.337 4.3975,5.4916 7.3066,11.975 10.935,17.967 5.9918,11.972 13.082,23.323 19.614,35.004 2.4284,4.3606 5.3899,8.4656 7.2683,13.121 -0.39945,0.21316 -1.1946,0.64877 -1.5941,0.86193 -2.5364,-2.1213 -3.8202,-5.2589 -5.4442,-8.0348 -7.3928,-13.028 -14.951,-25.958 -22.57,-38.853 -3.5332,-6.267 -7.7223,-12.208 -10.432,-18.921 l -0.38354,-0.88057 c -3.4864,-0.96717 -7.2922,-1.9254 -10.84,-0.72551 -3.4276,1.5825 -6.1897,4.2668 -8.9757,6.7561 -2.4809999,2.0124 -3.3791999,5.2667 -3.6421999,8.3323 0.67253,7.3003 5.7977999,12.889 9.4036999,18.933 1.744,1.5652 3.4415,3.2029 4.8584,5.0816 10.682,14.311 21.24,28.714 31.807,43.114 4.5536,-4.1848 8.3394,-9.2692 13.863,-12.291 6.7363,-4.9478 14.459,-8.1788 22.276,-10.984 -3.8673,-10.236 -9.5794,-19.671 -12.806,-30.162 -4.5905,-11.293 -8.5922,-22.81 -12.696,-34.286 0.50878,0.0339 1.5486,0.10364 2.0574,0.13757 5.0588,9.0929 7.7916,19.264 11.208,29.044 5.3389,11.253 10.085,22.774 14.521,34.409 4.4158,-1.9121 8.857598,-3.7591 13.480998,-5.0972 0.82915,2.8345 -2.4027,3.5853 -4.3607,4.3986 -12.036998,4.1014 -23.781998,9.3136 -34.367998,16.432 -5.6357,3.6583 -9.3126,9.4744 -14.574,13.586 -2.2356,-5.8479 -6.5541,-10.467 -10.105,-15.51 -5.5763,-7.7991 -11.32,-15.478 -16.896,-23.277 -3.2823,-4.6122 -6.9585,-8.9703 -9.5849,-14.016 -6.3291999,2.5676 -13.6119999,6.3338 -15.2759999,13.608 -1.5417,6.0949 2.6609,11.503 5.9078,16.215 8.2007999,10.897 17.2639999,21.095 25.5279999,31.935 6.0808,8.3084 13.579,15.718 17.806,25.261 6.0348,9.8663 13.976,18.682 23.598,25.179 4.4374,2.6765 9.3507,4.7109 14.482,5.5924 6.4964,1.0908 12.665998,-1.9838 18.356998,-4.695 4.3585,-2.1368 7.005,-6.2715 10.314,-9.583 7.0626,-0.5669 14.382,-2.27 20.026,-6.8252 9.675,-9.7804 10.549,-24.62 9.3326,-37.55 -1.7148,-12.451 1.588,-25.062 7.2588,-36.109 4.7457,-8.8048 5.497,-19.472 2.5593,-28.97 -1.941,-5.2441 -6.3442,-10.507 -12.316,-10.795 -4.6681,-0.25897 -9.0582,1.8797 -13.203,3.7697 -3.7209,1.4949 -4.5607,5.7595 -5.2642,9.2592 -1.0684,6.3367 -2.3949,12.755 -1.7643,19.221 0.30183,6.5869 0.79626,13.711 -2.4092,19.737 -4.1656,-7.1236 -5.1232,-15.408 -7.3792,-23.197 -0.78641,-2.8623 -1.5227,-5.7339 -2.2274,-8.6073 -1.6205,-6.3839 -2.8118,-12.907 -5.1957,-19.072 -1.8636,-4.5644 -2.1777,-9.5637 -3.8765,-14.172 -2.614498,-7.6885 -2.822598,-17.037 -9.543098,-22.603 -5.7056,-4.6684 -13.902,-2.4648 -19.735,0.75508 -3.673,1.8849 -5.517,5.7103 -7.0006,9.3596 -3.4464,-3.89 -5.0823,-9.7187 -10.276,-11.727 z" />
    <path
       style="fill:#fac99e"
       inkscape:connector-curvature="0"
       id="path34"
       d="m 555.55924,912.50997 c -9.66,-0.26 -19.18,2.13 -28.85,1.51 -0.93,5.01 -1.71,10.08 -1.74,15.2 0.1,0.59 0.3,1.78 0.4,2.38 0.85,-1.38 1.76,-1.51 2.73,-0.41 0.12,1.42 -0.55,2.13 -2.03,2.15 -0.33,0.51 -1,1.54 -1.34,2.05 -5.51,3.49 -11.61,6.41 -18.17,7.13 -7.21,0.99 -14.26,3.13 -21.57,3.18 0.55,0.32 1.1,0.65 1.66,1 -5.38,-0.24 -10.75,0.41 -15.74,2.51 -2.65,4.69 -1.64,12.32 4.12,13.99 6.32,-0.1 12.7,-0.48 18.93,-1.61 2.39,-0.38 4.8,-0.28 7.19,-0.12 -7.79,2.92 -15.69,5.63 -23.83,7.42 -2.68,0.86 -6.28,1.99 -6.66,5.27 -0.53,3.67 -0.68,9.1 3.73,10.38 5.39,1.25 10.89,-0.4 16.1,-1.74 6.31,-1.65 12.08,-4.89 18.44,-6.35 -3.95,2.92 -8.68,4.46 -13.13,6.46 -3.56,1.61 -7.94,2.36 -10.31,5.78 -0.55,3.58 -0.57,7.94 2.25,10.65 1.86,1.87003 4.77,1.39003 7.13,1.16003 9.4,-1.94003 16.78,-8.77003 25.94,-11.42003 -3.52,2.35 -9.55,4.41 -8.42,9.76 0.32,4.82003 5.24,6.41003 9.2,7.34003 3.97,0.64 7.47,-1.8 10.73,-3.67 6.23,-4.23003 12.96,-7.63003 19.45,-11.43003 4.73,-2.81 8.28,-7.11 12.52,-10.53 7.96,-6.87 16.25,-14.69 18.68,-25.34 -0.96,-3.1 -3.06,-5.65 -4.68,-8.41 -4.13,-6.77 -8.67,-13.27 -13.13,-19.83 -3.3,-4.76 -5.83,-10.04 -9.6,-14.46 z" />
    <path
       style="fill:#f7af7c"
       inkscape:connector-curvature="0"
       id="path36"
       d="m 442.28624,457.56997 c -0.34,-1.65 -1.32,-3.06 -2.18,-4.47 -0.68,6.75 0.68,13.45 1,20.18 0.26,6.34 1.96,12.54 1.9,18.91 -0.03,9 -0.07,17.99 -0.02,26.99 0.29,6 -1.55,11.85 -3.64,17.39 -1.89,4.56 -7.51,4.69 -11.68,5.39 -2.99,0.62 -5.56,-1.25 -7.99,-2.68 -2.61,4.93 1.54,9.91 5.48,12.57 3.97,3.2 9.42,4.04 14.29,2.79 6.78,-3.13 10.68,-9.92 13.05,-16.69 0.99,-7.22 0.93,-14.52 0.38,-21.77 0.28,-5.1 -0.37,-10.13 -1.71,-15.05 -1.49,-14.79 -6.21,-28.98 -8.88,-43.56 z" />
    <path
       style="fill:#f7af7c"
       inkscape:connector-curvature="0"
       id="path38"
       d="m 44.516242,524.91997 c -3.6282,-5.9922 -6.5373,-12.476 -10.935,-17.967 -0.55366,0.28542 -1.6702,0.85999 -2.2239,1.1454 2.7102,6.7137 6.8992,12.654 10.432,18.921 7.6195,12.895 15.178,25.825 22.57,38.853 1.624,2.7759 2.9078,5.9135 5.4442,8.0348 0.39946,-0.21316 1.1947,-0.64877 1.5941,-0.86193 -1.8784,-4.6554 -4.84,-8.7603 -7.2683,-13.121 -6.5325,-11.681 -13.622,-23.032 -19.614,-35.004 z" />
    <path
       style="fill:#f7af7c"
       inkscape:connector-curvature="0"
       id="path40"
       d="m 66.276242,501.12997 c -0.50877,-0.0339 -1.5486,-0.10364 -2.0574,-0.13757 4.1038,11.476 8.1054,22.993 12.696,34.286 3.2264,10.491 8.9385,19.926 12.806,30.162 -7.8168,2.8056 -15.539,6.0366 -22.276,10.984 -5.5237,3.0214 -9.3094,8.1058 -13.863,12.291 -10.567,-14.4 -21.124,-28.803 -31.807,-43.114 -1.4169,-1.8788 -3.1144,-3.5164 -4.8584,-5.0816 l -1.319,0.57994 c 2.6264,5.046 6.3026,9.4042 9.5849,14.016 5.5763,7.7991 11.32,15.478 16.896,23.277 3.5511,5.0432 7.8696,9.662 10.105,15.51 5.261,-4.1117 8.9379,-9.9278 14.574,-13.586 10.586,-7.1185 22.331,-12.331 34.367998,-16.432 1.958,-0.81329 5.1898,-1.5641 4.3607,-4.3986 -4.6233,1.3381 -9.064998,3.1851 -13.480998,5.0972 -4.436,-11.634 -9.1823,-23.156 -14.521,-34.409 -3.4165,-9.7802 -6.1493,-19.952 -11.208,-29.044 z" />
    <path
       style="fill:#f7af7c"
       inkscape:connector-curvature="0"
       id="path42"
       d="m 467.94624,691.96997 c -8.74,1.43 -17.03,5.54 -26.04,5.03 -9.1,-0.44 -18.4,1.03 -27.32,-1.33 -5.24,-1.25 -10.47,-2.55 -15.73,-3.68 5.94,3.93 12.07,7.55 18.05,11.43 -0.23,0.46 -0.69,1.4 -0.91,1.86 6.21,-5.57 15,-5.19 22.78,-4.73 4.21,0.21 8.32,1.64 11.74,4.12 4.71,-5.54 11.64,-8.46 17.43,-12.7 z" />
    <g
       id="g46"
       transform="matrix(-1,0,0,1,709.89924,-33.822033)">
      <path
         style="fill:#f46755"
         inkscape:connector-curvature="0"
         id="path44"
         d="m 211.59,624.83 c 48.532,26.336 85.836,32.824 135.75,0.20878 -7.2158,17.928 -27.948,53.603 -41.71,52.658 -7.3855,-5.8282 -41.199,-9.0113 -58.452,0.10232 -1.82,0.08 -4.6393,-1.6793 -6.1893,-3.0593 -8.574,-9.9454 -33.429,-42.014 -29.395,-49.91 z" />
    </g>
    <g
       id="g50"
       transform="matrix(-1,0,0,1,709.89924,-33.822033)">
      <path
         style="fill:#b4d0f7"
         inkscape:connector-curvature="0"
         id="path48"
         d="m 337.75,711.82 c 0.51,-0.33 1.54,-0.97 2.06,-1.3 0.48,3.35 0.63,6.74 0.63,10.13 5.13,0.72 10.51,-0.6 15.43,1.38 3.26,1.12 6.77,0.33 10.12,0.94 8.44,1.84 17.1,2.21 25.6,3.68 3.23,0.98 5.29,3.94 8.06,5.72 10.85,7.69 21.91,15.19 33.68,21.41 4.01,2.63 8.61,4.35 12.23,7.58 2.21,1.9 4.73,3.37 7.28,4.77 4.66,2.52 8.42,6.36 12.97,9.06 0.41,2.93 99.672,-102.59 100,-99.644 18.846,11.455 31.987,14.312 46.214,25.254 11.928,9.0115 -106.02,150.03 -142.52,141.99 l -15.338,-3.0003 c -3.55,-0.47 -5.92,-3.36 -8.67,-5.32 -4.33,-3.29 -7.92,-7.44 -12.33,-10.65 -3.88,-2.76 -6.76,-6.64 -10.61,-9.42 -7.22,-5.71 -13.71,-12.25 -20.34,-18.62 -3.38,-2.58 -6.03,-6.13 -9.9,-8.03 -0.56,5.42 -0.24,10.86 -0.31,16.3 -0.05,4.06 -1.99,7.83 -1.93,11.91 -0.2,3.84 0.6,7.82 -0.66,11.56 -2.13,5.21 -0.05,11.08 -2.55,16.25 -2.14,17.77 -7.23,35.08 -9.36,52.86 -1.53,4.35 -0.7,9.13 -2.46,13.43 -1.37,3.7 -0.05,7.78 -1.41,11.5 -1.13,3.05 -1.05,6.3 -0.97,9.5 0.23,3.1 -1.69,5.82 -1.81,8.88 -0.21,4.02 0.51,8.16 -0.85,12.06 -1.29,3.79 -1.02,7.84 -1.16,11.79 -7.59,-0.86 -15.23,-0.29 -22.85,-0.43 -17.05,0.11 -34.11,-0.26 -51.14,0.24 -3.29,-0.39 -6.49,-1.43 -9.83,-1.37 -8.28,-0.1 -16.72,-0.95 -24.85,1.04 -3.01,0.75 -6.1,0.07 -9.14,0.03 -22.04,-0.27 -44.08,0.27 -66.11,-0.26 -0.03,-5.12 -0.81,-10.19 -1.74,-15.2 -0.86,-4.25 -2.32,-8.44 -2.02,-12.84 0.26,-4.47 -2.38,-8.49 -1.86,-12.99 -3.41,-23.96 -8.02,-47.82 -12.85,-71.54 -0.78,-2.04 -0.94,-4.21 -0.9,-6.36 0.17,-3.5 -2.02,-6.59 -1.89,-10.07 -0.01,-3.32 0.13,-6.68 -0.83,-9.89 -1.65,-5.44 -0.51,-11.18 -1.41,-16.72 -0.98,-6.55 -0.72,-13.2 -1.83,-19.73 -6.47,5.3 -11.6,12.04 -15.56,19.38 -7.12,10.65 -11.3,22.95 -13.56,35.49 -2.41,7.94 -1.37,16.27 -1.59,24.43 -0.34,9.04 1.33,18.02 3.17,26.84 2.63,12.27 6.36,24.43 12.48,35.44 1.51,2.72 2.61,6.18 0.64,8.99 -4.87,8.33 -10.7,16.07 -15.3,24.58 -5.08,6.57 -8.06,14.43 -12.84,21.19 -1.22,1.94 -3.24,0.43 -4.1,-0.95 -15.11,-20.9 -27.53,-44.11 -33.9,-69.22 -4.35,-18.81 -6.74,-38.43 -3.67,-57.64 1.14,-10.55 3.91,-20.85 7.12,-30.94 3.04,-7.7 6.5,-15.24 9.96,-22.76 2.55,-5.84 6.88,-10.62 9.85,-16.21 3.82,-6.94 9.33,-12.68 13.97,-19.04 5.83,-8.05 13.14,-14.84 20.19,-21.81 4.44,-4.62 9.81,-8.18 14.56,-12.46 3.83,-3.01 7.51,-6.82 12.56,-7.56 5.79,-1.01 11.55,-2.43 17.45,-2.64 7.96,-0.3 15.79,-2.62 23.79,-1.75 0.11,0.65 0.33,1.93 0.43,2.58 2.86,0.07 5.72,0.18 8.57,0.3 0.25,3.26 -0.36,6.9 1.53,9.79 5.24,7.95 11.82,14.89 17.2,22.75 3.92,5.69 8.47,10.93 12.16,16.8 1.69,2.71 3.64,5.26 5.75,7.67 1.06,-3.03 2.36,-6 4.35,-8.55 1.37,2.92 2.9,5.77 4.44,8.62 -0.74,5.31 -1.59,10.62 -1.65,16 0.01,7.04 -1.39,13.98 -1.68,21 -0.24,6.7 -1.45,13.32 -1.44,20.03 0.02,6.03 -1.59,11.92 -1.66,17.95 0.06,8.97 -2.09,17.74 -2.15,26.71 -2.08,8.82 -0.69,17.99 -2.78,26.8 -0.92,5.46 -0.21,11.03 -0.93,16.52 -0.06,2.62 -1.36,5.89 1.03,7.89 5.29,5.07 10.27,10.48 15.93,15.14 4.2,3.63 7.9,7.81 12.22,11.3 1.39,0.14 2.19,-1.32 3.19,-2.02 5.75,-5.94 11.88,-11.49 17.73,-17.32 3,-3.05 6.85,-5.4 9.04,-9.15 0.73,-7 -1.65,-13.83 -1.69,-20.81 0.03,-5.82 -0.83,-11.59 -1.42,-17.37 -0.65,-5.85 -0.08,-11.8 -1.33,-17.58 -1.4,-6.97 -0.75,-14.13 -1.87,-21.13 -0.49,-7.66 -1.08,-15.31 -1.89,-22.93 -0.19,-6.22 -0.7,-12.4 -1.51,-18.56 -0.48,-10.95 -2.33,-21.78 -2.59,-32.75 0.72,-2.79 2.24,-5.24 3.82,-7.6 2.93,2 3.35,5.5 3.69,8.75 5.7,-7.51 11.53,-14.94 16.83,-22.74 5.2,-6.84 9.69,-14.21 15.23,-20.8 1.92,-2.5 4.22,-5.08 4.45,-8.38 0.46,-6.04 0.04,-12.11 -0.07,-18.15 z" />
    </g>
    <g
       style="fill:#8bb7d6"
       id="g58"
       transform="matrix(-1,0,0,1,709.89924,-33.822033)">
      <path
         inkscape:connector-curvature="0"
         id="path52"
         d="m 311.04,725.81 c 8.79,-4.88 18.01,-8.95 26.71,-13.99 0.11,6.04 0.53,12.11 0.07,18.15 -0.23,3.3 -2.53,5.88 -4.45,8.38 -5.54,6.59 -10.03,13.96 -15.23,20.8 -5.3,7.8 -11.13,15.23 -16.83,22.74 -0.34,-3.25 -0.76,-6.75 -3.69,-8.75 0.6,-5.54 2.11,-11.1 1.23,-16.68 -0.74,-6 -1.41,-12.26 -4.95,-17.36 -0.22,-0.46 -0.68,-1.4 -0.91,-1.86 5.98,-3.88 12.11,-7.5 18.05,-11.43 z" />
      <path
         inkscape:connector-curvature="0"
         id="path54"
         d="m 204.82,721.06 c 7.23,-1.11 14.48,-2.12 21.64,-3.61 5.16,2.78 10.23,5.75 15.49,8.34 5.79,4.24 12.72,7.16 17.43,12.7 -3.52,3.94 -5.12,9.28 -5.04,14.51 0.05,6.46 -0.13,12.95 0.47,19.4 -1.99,2.55 -3.29,5.52 -4.35,8.55 -2.11,-2.41 -4.06,-4.96 -5.75,-7.67 -3.69,-5.87 -8.24,-11.11 -12.16,-16.8 -5.38,-7.86 -11.96,-14.8 -17.2,-22.75 -1.89,-2.89 -1.28,-6.53 -1.53,-9.79 -2.85,-0.12 -5.71,-0.23 -8.57,-0.3 -0.1,-0.65 -0.32,-1.93 -0.43,-2.58 z" />
      <path
         inkscape:connector-curvature="0"
         id="path56"
         d="m 150.85,1317.7 c 2.06,0.01 4.11,0.07 6.16,0.26 10.95,1.25 21.99,0.45 32.98,0.7 7.16,0.29 14.25,-0.87 21.39,-1.01 0.16,0.49 0.49,1.47 0.66,1.96 -19.33,0.02 -38.67,0.2 -58,-0.04 -1.43,0.14 -2.67,-0.51 -3.19,-1.87 z" />
    </g>
    <g
       id="g62"
       transform="matrix(-1,0,0,1,709.89924,-33.822033)">
      <path
         style="fill:#c4321b"
         inkscape:connector-curvature="0"
         id="path60"
         d="m 259.38,738.49 c 3.42,-2.48 7.53,-3.91 11.74,-4.12 7.78,-0.46 16.57,-0.84 22.78,4.73 3.54,5.1 4.21,11.36 4.95,17.36 0.88,5.58 -0.63,11.14 -1.23,16.68 -1.58,2.36 -3.1,4.81 -3.82,7.6 -8.03,3.67 -17.04,4.05 -25.7,3.14 -3.09,-0.47 -5.97,-1.72 -8.85,-2.86 -1.54,-2.85 -3.07,-5.7 -4.44,-8.62 -0.6,-6.45 -0.42,-12.94 -0.47,-19.4 -0.08,-5.23 1.52,-10.57 5.04,-14.51 z" />
    </g>
    <g
       id="g66"
       transform="matrix(-1,0,0,1,709.89924,-33.822033)">
      <path
         style="fill:#e43d1b"
         inkscape:connector-curvature="0"
         id="path64"
         d="m 259.25,781.02 c 2.88,1.14 5.76,2.39 8.85,2.86 8.66,0.91 17.67,0.53 25.7,-3.14 0.26,10.97 2.11,21.8 2.59,32.75 0.81,6.16 1.32,12.34 1.51,18.56 0.81,7.62 1.4,15.27 1.89,22.93 1.12,7 0.47,14.16 1.87,21.13 1.25,5.78 0.68,11.73 1.33,17.58 0.59,5.78 1.45,11.55 1.42,17.37 0.04,6.98 2.42,13.81 1.69,20.81 -2.19,3.75 -6.04,6.1 -9.04,9.15 -5.85,5.83 -11.98,11.38 -17.73,17.32 -1,0.7 -1.8,2.16 -3.19,2.02 -4.32,-3.49 -8.02,-7.67 -12.22,-11.3 -5.66,-4.66 -10.64,-10.07 -15.93,-15.14 -2.39,-2 -1.09,-5.27 -1.03,-7.89 0.72,-5.49 0.01,-11.06 0.93,-16.52 2.09,-8.81 0.7,-17.98 2.78,-26.8 0.06,-8.97 2.21,-17.74 2.15,-26.71 0.07,-6.03 1.68,-11.92 1.66,-17.95 -0.01,-6.71 1.2,-13.33 1.44,-20.03 0.29,-7.02 1.69,-13.96 1.68,-21 0.06,-5.38 0.91,-10.69 1.65,-16 z" />
    </g>
    <g
       id="g70"
       transform="matrix(-1,0,0,1,709.89924,-33.822033)">
      <path
         style="fill:#7f6a58"
         inkscape:connector-curvature="0"
         id="path68"
         d="m 260.18,963.27 c 8.13,-1.99 16.57,-1.14 24.85,-1.04 3.34,-0.06 6.54,0.98 9.83,1.37 17.03,-0.5 34.09,-0.13 51.14,-0.24 7.62,0.14 15.26,-0.43 22.85,0.43 -0.38,7.73 0.79,15.61 -1.1,23.22 -1.16,5.6 0.57,12.06 -2.31,17.17 -0.2,-7.09 1.16,-14.08 1.82,-21.11 0.61,-6.12 0.38,-12.28 0.13,-18.41 -23.21,-0.3 -46.44,-0.28 -69.65,-0.01 1.1,2.77 2.56,5.47 3,8.47 0.44,2.99 -1.42,5.6 -2.71,8.14 -2.56,2.85 -6.05,5 -10,4.99 -7.69,0.18 -15.39,0.12 -23.08,0.03 -3.86,0.06 -7.15,-2.23 -9.8,-4.8 -4.83,-4.41 -2.62,-11.5 -0.78,-16.81 -22.83,-0.29 -45.69,-0.34 -68.51,0.03 -0.24,1.48 -0.46,3 -0.69,4.51 -0.34,-0.51 -1.01,-1.54 -1.34,-2.05 0.17,-0.44 0.52,-1.31 0.7,-1.74 0.1,-0.6 0.3,-1.79 0.4,-2.38 22.03,0.53 44.07,-0.01 66.11,0.26 3.04,0.04 6.13,0.72 9.14,-0.03 m 3.49,4.5 c -2.28,1.12 -4.91,2.66 -5.28,5.44 -0.51,2.51 1.93,4.41 3.84,5.55 4.5,1.08 9.19,0.42 13.77,0.58 4.93,-0.18 10,0.58 14.82,-0.71 2.93,-0.95 3.77,-4.56 2.73,-7.19 -1.41,-1.95 -3.64,-3.18 -5.88,-3.91 -5.2,-0.53 -10.45,-0.01 -15.67,-0.2 -2.76,0.09 -5.65,-0.39 -8.33,0.44 z" />
    </g>
    <g
       id="g82"
       transform="matrix(-1,0,0,1,709.89924,-33.822033)">
      <path
         inkscape:connector-curvature="0"
         id="path72"
         d="m 185.86,964.7 c 22.82,-0.37 45.68,-0.32 68.51,-0.03 -1.84,5.31 -4.05,12.4 0.78,16.81 -0.65,1.1 -1.88,1.51 -3.1,1.55 -4.34,0.35 -8.72,0.28 -13.06,0 -4.99,-2.1 -10.36,-2.75 -15.74,-2.51 0.56,-0.35 1.11,-0.68 1.66,-1 -7.31,-0.05 -14.36,-2.19 -21.57,-3.18 -6.56,-0.72 -12.66,-3.64 -18.17,-7.13 0.23,-1.51 0.45,-3.03 0.69,-4.51 z" />
      <path
         inkscape:connector-curvature="0"
         id="path74"
         d="m 297.74,964.65 c 23.21,-0.27 46.44,-0.29 69.65,0.01 0.25,6.13 0.48,12.29 -0.13,18.41 -20.08,0.23 -40.17,-0.03 -60.26,0.14 -2.93,0.01 -5.87,-0.09 -8.79,-0.41 -0.04,-0.38 -0.13,-1.16 -0.18,-1.54 1.29,-2.54 3.15,-5.15 2.71,-8.14 -0.44,-3 -1.9,-5.7 -3,-8.47 z" />
      <path
         inkscape:connector-curvature="0"
         id="path76"
         d="m 263.67,967.77 c 2.68,-0.83 5.57,-0.35 8.33,-0.44 5.22,0.19 10.47,-0.33 15.67,0.2 2.24,0.73 4.47,1.96 5.88,3.91 1.04,2.63 0.2,6.24 -2.73,7.19 -4.82,1.29 -9.89,0.53 -14.82,0.71 -4.58,-0.16 -9.27,0.5 -13.77,-0.58 -1.91,-1.14 -4.35,-3.04 -3.84,-5.55 0.37,-2.78 3,-4.32 5.28,-5.44 z" />
      <path
         inkscape:connector-curvature="0"
         id="path78"
         d="m 328.38,1279.3 c 10.28,-3.14 20.88,-5.46 31.6,-6.27 13.84,-0.18 27.85,-1.04 41.45,2.08 1.15,0.15 2.31,0.3 3.47,0.45 -0.57,0.28 -1.14,0.58 -1.71,0.9 4.74,-0.31 8.96,2.24 12.88,4.58 6.91,3.97 11.07,12.03 10.68,19.96 0.24,3.9 -0.98,8.06 -4.15,10.55 -3.31,2.89 -7.77,3.38 -11.74,4.85 -7.63,0.44 -15.21,1.22 -22.86,1.26 -15.33,-0.04 -30.67,0.24 -45.98,-0.42 -6.02,-1.39 -12.49,0.48 -18.29,-1.92 -6.25,-1.12 -13.13,-2.6 -17.71,-7.36 -3.29,-3.37 -3.55,-8.73 -1.29,-12.73 5.18,-8.46 14.49,-13.09 23.65,-15.93 z" />
      <path
         inkscape:connector-curvature="0"
         id="path80"
         d="m 151,1276.1 c 11.16,-2.59 22.61,-2.46 34,-2.29 12.69,-0.3 25.22,2.39 37.4,5.73 10.05,2.8 19.93,7.93 25.81,16.87 0.7,3.4 0.96,7.07 -0.04,10.44 -4.47,6.45 -12.76,8.54 -20.11,9.45 -5.13,1.6 -10.54,1.33 -15.85,1.35 -21.08,-0.8 -42.2,0 -63.29,-0.39 -5.16,-0.44 -10.1,-2.13 -15.19,-3 -3.97,-0.84 -6.59,-4.68 -7.39,-8.46 -1.66,-4.07 0.02,-8.3 1.02,-12.29 3.27,-8.74 11.97,-14.95 21.08,-16.08 0.01,-0.26 0.04,-0.76 0.05,-1.01 0.63,-0.08 1.88,-0.24 2.51,-0.32 z" />
    </g>
  </g>
</svg>
