<?xml version="1.0" encoding="UTF-8"?>
<svg xmlns="http://www.w3.org/2000/svg" xmlns:xlink="http://www.w3.org/1999/xlink" font-size="10px" font-family="sans-serif" width="494" height="494" viewBox="-55.5 -55.5 494 494"><g shape-rendering="crispEdges"><path fill="white" stroke="none" d="M -48.5 -48.5 L 432.5 -48.5 432.5 432.5 -48.5 432.5 z"></path></g><g shape-rendering="crispEdges"></g><g shape-rendering="auto"></g><g shape-rendering="crispEdges"><path fill="none" stroke="black" d="M 48 0 L 48 432" stroke-width="1"></path><path fill="none" stroke="black" d="M 96 0 L 96 432" stroke-width="1"></path><path fill="none" stroke="black" d="M 144 0 L 144 432" stroke-width="1"></path><path fill="none" stroke="black" d="M 192 0 L 192 432" stroke-width="1"></path><path fill="none" stroke="black" d="M 240 0 L 240 432" stroke-width="1"></path><path fill="none" stroke="black" d="M 288 0 L 288 432" stroke-width="1"></path><path fill="none" stroke="black" d="M 336 0 L 336 432" stroke-width="1"></path><path fill="none" stroke="black" d="M 384 0 L 384 432" stroke-width="1"></path><path fill="none" stroke="black" d="M 0 48 L 432 48" stroke-width="1"></path><path fill="none" stroke="black" d="M 0 96 L 432 96" stroke-width="1"></path><path fill="none" stroke="black" d="M 0 144 L 432 144" stroke-width="1"></path><path fill="none" stroke="black" d="M 0 192 L 432 192" stroke-width="1"></path><path fill="none" stroke="black" d="M 0 240 L 432 240" stroke-width="1"></path><path fill="none" stroke="black" d="M 0 288 L 432 288" stroke-width="1"></path><path fill="none" stroke="black" d="M 0 336 L 432 336" stroke-width="1"></path><path fill="none" stroke="black" d="M 0 384 L 432 384" stroke-width="1"></path></g><g shape-rendering="crispEdges"></g><g shape-rendering="auto"></g><g shape-rendering="auto"></g><g shape-rendering="auto"><path fill="black" stroke="none" d="M 116.16 72 L 123.84 72 123.84 88.8 116.16 88.8 z"></path><path fill="rgb(212,251,121)" stroke="black" d="M 133.2 68.525 A 13.200000000000001 13.200000000000001 0 1 1 133.2 68.4 z" stroke-width="2"></path><path fill="black" stroke="none" d="M 308.16 72 L 315.84000000000003 72 315.84000000000003 88.8 308.16 88.8 z"></path><path fill="rgb(212,251,121)" stroke="black" d="M 325.2 68.525 A 13.200000000000001 13.200000000000001 0 1 1 325.2 68.4 z" stroke-width="2"></path><path fill="black" stroke="none" d="M 68.16 168 L 75.84 168 75.84 184.8 68.16 184.8 z"></path><path fill="rgb(212,251,121)" stroke="black" d="M 85.2 164.525 A 13.200000000000001 13.200000000000001 0 1 1 85.2 164.4 z" stroke-width="2"></path><path fill="black" stroke="none" d="M 212.16 168 L 219.84 168 219.84 184.8 212.16 184.8 z"></path><path fill="rgb(212,251,121)" stroke="black" d="M 229.2 164.525 A 13.200000000000001 13.200000000000001 0 1 1 229.2 164.4 z" stroke-width="2"></path><path fill="black" stroke="none" d="M 356.16 168 L 363.84000000000003 168 363.84000000000003 184.8 356.16 184.8 z"></path><path fill="rgb(212,251,121)" stroke="black" d="M 373.2 164.525 A 13.200000000000001 13.200000000000001 0 1 1 373.2 164.4 z" stroke-width="2"></path><path fill="black" stroke="none" d="M 116.16 360 L 123.84 360 123.84 376.8 116.16 376.8 z"></path><path fill="rgb(212,251,121)" stroke="black" d="M 133.2 356.525 A 13.200000000000001 13.200000000000001 0 1 1 133.2 356.4 z" stroke-width="2"></path><path fill="black" stroke="none" d="M 308.16 360 L 315.84000000000003 360 315.84000000000003 376.8 308.16 376.8 z"></path><path fill="rgb(212,251,121)" stroke="black" d="M 325.2 356.525 A 13.200000000000001 13.200000000000001 0 1 1 325.2 356.4 z" stroke-width="2"></path></g><g shape-rendering="auto"><text fill="black" x="24" y="-9.56" text-anchor="middle" font-size="38">1</text><text fill="black" x="120" y="-9.56" text-anchor="middle" font-size="38">5</text><text fill="black" x="168" y="-9.56" text-anchor="middle" font-size="38">6</text><text fill="black" x="216" y="-9.56" text-anchor="middle" font-size="38">4</text><text fill="black" x="264" y="-9.56" text-anchor="middle" font-size="38">4</text><text fill="black" x="408" y="-9.56" text-anchor="middle" font-size="38">2</text><text fill="black" x="-24" y="86.44" text-anchor="middle" font-size="38">5</text><text fill="black" x="-24" y="134.44" text-anchor="middle" font-size="38">7</text><text fill="black" x="-24" y="278.44" text-anchor="middle" font-size="38">3</text><text fill="black" x="-24" y="422.44" text-anchor="middle" font-size="38">3</text></g><g shape-rendering="crispEdges"><path fill="black" stroke="none" d="M -2.5 -2.5 L 2.5 -2.5 2.5 434.5 -2.5 434.5 z"></path><path fill="black" stroke="none" d="M 429.5 -2.5 L 434.5 -2.5 434.5 434.5 429.5 434.5 z"></path><path fill="black" stroke="none" d="M -2.5 -2.5 L 434.5 -2.5 434.5 2.5 -2.5 2.5 z"></path><path fill="black" stroke="none" d="M -2.5 429.5 L 434.5 429.5 434.5 434.5 -2.5 434.5 z"></path></g><g shape-rendering="crispEdges"></g><g shape-rendering="crispEdges"></g></svg>