<?xml version="1.0" encoding="UTF-8"?>
<svg xmlns="http://www.w3.org/2000/svg" xmlns:xlink="http://www.w3.org/1999/xlink" font-size="10px" font-family="sans-serif" width="350" height="350" viewBox="-55.5 -55.5 350 350"><g shape-rendering="crispEdges"><path fill="white" stroke="none" d="M -48.5 -48.5 L 288.5 -48.5 288.5 288.5 -48.5 288.5 z"></path></g><g shape-rendering="crispEdges"></g><g shape-rendering="auto"></g><g shape-rendering="crispEdges"><path fill="none" stroke="black" d="M 48 0 L 48 288" stroke-width="1"></path><path fill="none" stroke="black" d="M 96 0 L 96 288" stroke-width="1"></path><path fill="none" stroke="black" d="M 144 0 L 144 288" stroke-width="1"></path><path fill="none" stroke="black" d="M 192 0 L 192 288" stroke-width="1"></path><path fill="none" stroke="black" d="M 240 0 L 240 288" stroke-width="1"></path><path fill="none" stroke="black" d="M 0 48 L 288 48" stroke-width="1"></path><path fill="none" stroke="black" d="M 0 96 L 288 96" stroke-width="1"></path><path fill="none" stroke="black" d="M 0 144 L 288 144" stroke-width="1"></path><path fill="none" stroke="black" d="M 0 192 L 288 192" stroke-width="1"></path><path fill="none" stroke="black" d="M 0 240 L 288 240" stroke-width="1"></path></g><g shape-rendering="crispEdges"></g><g shape-rendering="auto"></g><g shape-rendering="auto"></g><g shape-rendering="auto"><path fill="black" stroke="none" d="M 68.16 24 L 75.84 24 75.84 40.8 68.16 40.8 z"></path><path fill="rgb(212,251,121)" stroke="black" d="M 85.2 20.525 A 13.200000000000001 13.200000000000001 0 1 1 85.2 20.4 z" stroke-width="2"></path><path fill="black" stroke="none" d="M 68.16 120 L 75.84 120 75.84 136.8 68.16 136.8 z"></path><path fill="rgb(212,251,121)" stroke="black" d="M 85.2 116.525 A 13.200000000000001 13.200000000000001 0 1 1 85.2 116.4 z" stroke-width="2"></path><path fill="black" stroke="none" d="M 164.16 216 L 171.84 216 171.84 232.8 164.16 232.8 z"></path><path fill="rgb(212,251,121)" stroke="black" d="M 181.2 212.525 A 13.200000000000001 13.200000000000001 0 1 1 181.2 212.4 z" stroke-width="2"></path></g><g shape-rendering="auto"><text fill="black" x="168" y="-9.56" text-anchor="middle" font-size="38">3</text><text fill="black" x="264" y="-9.56" text-anchor="middle" font-size="38">1</text><text fill="black" x="-24" y="182.44" text-anchor="middle" font-size="38">3</text></g><g shape-rendering="crispEdges"><path fill="black" stroke="none" d="M -2.5 -2.5 L 2.5 -2.5 2.5 290.5 -2.5 290.5 z"></path><path fill="black" stroke="none" d="M 285.5 -2.5 L 290.5 -2.5 290.5 290.5 285.5 290.5 z"></path><path fill="black" stroke="none" d="M -2.5 -2.5 L 290.5 -2.5 290.5 2.5 -2.5 2.5 z"></path><path fill="black" stroke="none" d="M -2.5 285.5 L 290.5 285.5 290.5 290.5 -2.5 290.5 z"></path></g><g shape-rendering="crispEdges"><path fill="#7c4615" stroke="none" d="M 21.5 21.5 L 74.5 21.5 74.5 26.5 21.5 26.5 z"></path><path fill="#7c4615" stroke="none" d="M 69.5 21.5 L 122.5 21.5 122.5 26.5 69.5 26.5 z"></path><path fill="#7c4615" stroke="none" d="M 117.5 21.5 L 170.5 21.5 170.5 26.5 117.5 26.5 z"></path><path fill="#7c4615" stroke="none" d="M 21.5 21.5 L 26.5 21.5 26.5 74.5 21.5 74.5 z"></path><path fill="#7c4615" stroke="none" d="M 69.5 21.5 L 74.5 21.5 74.5 74.5 69.5 74.5 z"></path><path fill="#7c4615" stroke="none" d="M 69.5 69.5 L 122.5 69.5 122.5 74.5 69.5 74.5 z"></path><path fill="#7c4615" stroke="none" d="M 21.5 117.5 L 74.5 117.5 74.5 122.5 21.5 122.5 z"></path><path fill="#7c4615" stroke="none" d="M 69.5 117.5 L 122.5 117.5 122.5 122.5 69.5 122.5 z"></path><path fill="#7c4615" stroke="none" d="M 21.5 117.5 L 26.5 117.5 26.5 170.5 21.5 170.5 z"></path><path fill="#7c4615" stroke="none" d="M 69.5 117.5 L 74.5 117.5 74.5 170.5 69.5 170.5 z"></path><path fill="#7c4615" stroke="none" d="M 117.5 117.5 L 122.5 117.5 122.5 170.5 117.5 170.5 z"></path><path fill="#7c4615" stroke="none" d="M 69.5 165.5 L 74.5 165.5 74.5 218.5 69.5 218.5 z"></path><path fill="#7c4615" stroke="none" d="M 117.5 213.5 L 170.5 213.5 170.5 218.5 117.5 218.5 z"></path><path fill="#7c4615" stroke="none" d="M 165.5 213.5 L 218.5 213.5 218.5 218.5 165.5 218.5 z"></path><path fill="#7c4615" stroke="none" d="M 213.5 213.5 L 266.5 213.5 266.5 218.5 213.5 218.5 z"></path><path fill="#7c4615" stroke="none" d="M 117.5 213.5 L 122.5 213.5 122.5 266.5 117.5 266.5 z"></path><path fill="#7c4615" stroke="none" d="M 165.5 213.5 L 170.5 213.5 170.5 266.5 165.5 266.5 z"></path><path fill="#7c4615" stroke="none" d="M 165.5 261.5 L 218.5 261.5 218.5 266.5 165.5 266.5 z"></path></g><g shape-rendering="crispEdges"></g></svg>