<?xml version="1.0" encoding="UTF-8" standalone="no"?>
<svg xmlns="http://www.w3.org/2000/svg" height="273.31647pt" width="273.31647pt">
  <path
     d="m 357.85945,358.17195 c 0,0 -0.125,-96.93751 -0.125,-96.9375 0,0 -1.07917,-22.68603 -20.59375,-18.90625 -15.8556,3.07108 -10.23276,24.87804 -22.6875,25.84375 -2.87417,0.22286 -6.7148,-0.67576 -12,-3.15625 -10.9092,-9.09512 -16.00296,-26.14431 -16.5625,-41.34375 -0.20656,-5.61095 0.2833,-10.88794 1.25,-15.5 0.0248,-0.20469 0.0673,-0.42017 0.0937,-0.625 1.69391,-13.11441 6.7618,-26.4178 15.96875,-34.09375 28.18774,-13.22927 15.17291,18.90772 34.6875,22.6875 14.2182,2.75393 18.61045,-8.47834 19.96875,-14.8125 V 78.421952 H 256.2657 c -6.20122,-1.21826 -18.24109,-5.48907 -15.40625,-20.125 3.77979,-19.5146 35.88552,-6.49976 22.65625,-34.6875 -7.67594,-9.20696 -20.97934,-14.2748403 -34.09375,-15.9687503 -0.20482,-0.0265 -0.42031,-0.0689 -0.625,-0.0937 -4.61204,-0.96671 -9.88905,-1.45656 -15.5,-1.25 -15.19944,0.55953 -32.24863,5.6533003 -41.34375,16.5625003 -13.22926,28.18772 18.90771,15.17291 22.6875,34.6875 3.7798,19.51457 -18.90625,20.59375 -18.90625,20.59375 l -97.187499,0.28125 V 180.5157 c -1.38641,6.35211 -5.80273,17.45652 -19.9375,14.71875 -19.51458,-3.77979 -6.49976,-35.91677 -34.6875,-22.6875 -9.20694,7.67594 -14.2748395,21.01059 -15.9687495,34.125 -0.0264,0.20482 -0.0689,0.38906 -0.0937,0.59375 -0.96669,4.61205 -1.45656,9.88905 -1.25,15.5 0.55955,15.19944 5.6532995,32.24863 16.5624995,41.34375 28.18774,13.22926 15.17291,-18.90771 34.6875,-22.6875 19.51459,-3.7798 20.59375,18.90625 20.59375,18.90625 l 0.0937,97.84375 c 0,0 97.343749,-0.71875 97.343749,-0.71875 0,0 22.68605,-1.07917 18.90625,-20.59375 -3.77979,-19.51459 -35.91676,-6.49977 -22.6875,-34.6875 9.09512,-10.9092 26.14431,-16.00296 41.34375,-16.5625 5.61095,-0.20656 10.88796,0.2833 15.5,1.25 0.20469,0.0248 0.42018,0.0673 0.625,0.0937 13.11441,1.69391 26.41781,6.7618 34.09375,15.96875 13.22927,28.18774 -18.87646,15.17291 -22.65625,34.6875 -3.72014,19.2066 17.96449,20.52472 18.65625,20.5625 z"
     style="fill:none;stroke:#d8d8d8;stroke-width:12.5;stroke-linejoin:round" />
</svg>
