<?xml version="1.0" encoding="UTF-8" standalone="no"?>
<svg xmlns="http://www.w3.org/2000/svg" width="7.1065202mm" height="7.1065202mm" viewBox="0 0 4.0440026 4.0440024">
  <path style="fill:#d8d8d8" d="M 2.2601013,0.04000113 V 1.0400012 h -0.064 V 0.04000113 Z m 0,0 c 0,0.7880001 0.828,1.34400007 0.828,2.13200007 0,0.284 -0.06,0.564 -0.164,0.828 -0.02,0.032 -0.052,0.048 -0.08,0.048 -0.052,0 -0.104,-0.044 -0.092,-0.108 0.104,-0.244 0.168,-0.504 0.168,-0.768 0,-0.412 -0.376,-0.832 -0.66,-1.132 z" />
  <rect rx="0.04" ry="0.04" style="fill:#d8d8d8" height="3.3139" width="0.13" y="0" x="2.1301014" />
  <path style="fill:#d8d8d8" d="m 1.8279012,2.9560012 c 0.22,0 0.432,0.112 0.432,0.356 0,0.284 -0.22,0.484 -0.408,0.596 -0.14,0.084 -0.3,0.136 -0.464,0.136 -0.22,0 -0.43200002,-0.112 -0.43200002,-0.356 0,-0.284 0.22000002,-0.484 0.40800002,-0.596 0.14,-0.084 0.3,-0.136 0.464,-0.136 z" />
</svg>
