<?xml version="1.0" encoding="UTF-8" standalone="no"?>
<svg xmlns="http://www.w3.org/2000/svg" width="57.185539" height="57.185539">
  <path d="m 31.498047,20.561478 c 0.3125,3.96875 -2.15625,8.71875 -10.75,11.375 -6.46875,3.03125 -8.28125,11.375 -11.6249997,11.75 -0.44869,-0.633441 -3.75742,-0.296769 0.15008,-5.039553 -3.8586,4.685916 -9.13798005,0.545761 -8.15008,-3.585447 0.5,-5.5 6.875,-10.40625 7.375,-14.5 -2,-5.34375 4.4999997,-9.875 4.4999997,-9.875 l 0.125,-8.7499997 8,4.5 4.25,-5 3.25,6.875 c 25,-4.75 26.46875,35.6874997 27.5625,47.3749997 l -39.6875,0.0625 c -2.1875,-9.0625 13.1875,-14.3125 11.75,-27.5625 m -7.125,-21.7499997 -7.625,3.9999997" style="fill:none;stroke:#d8d8d8;stroke-width:2;stroke-linecap:round;stroke-linejoin:round" />
  <path d="m 13.052352,15.848453 c 0.76058,-0.697915 1.41174,-0.438444 1.464471,0.583559 0.05273,1.021998 -0.512368,2.430412 -1.270923,3.167555 -0.758557,0.737143 -1.431408,0.531735 -1.513257,-0.461969 -0.08185,-0.993703 0.457424,-2.410002 1.212839,-3.185288" style="fill:#d8d8d8" />
  <path d="m 5.0523493,34.598453 c 0.7605805,-0.697915 1.4117399,-0.438444 1.464471,0.583559 0.052732,1.021998 -0.5123681,2.430412 -1.2709231,3.167555 -0.7585564,0.737143 -1.4314076,0.531735 -1.5132568,-0.461969 -0.08185,-0.993703 0.4574242,-2.410002 1.2128389,-3.185288" style="fill:#d8d8d8" />
</svg>
