<?xml version="1.0" encoding="UTF-8" standalone="no"?>
<!-- Created with Inkscape (http://www.inkscape.org/) -->

<svg
   xmlns:dc="http://purl.org/dc/elements/1.1/"
   xmlns:cc="http://creativecommons.org/ns#"
   xmlns:rdf="http://www.w3.org/1999/02/22-rdf-syntax-ns#"
   xmlns:svg="http://www.w3.org/2000/svg"
   xmlns="http://www.w3.org/2000/svg"
   xmlns:xlink="http://www.w3.org/1999/xlink"
   xmlns:sodipodi="http://sodipodi.sourceforge.net/DTD/sodipodi-0.dtd"
   xmlns:inkscape="http://www.inkscape.org/namespaces/inkscape"
   height="273.31647pt"
   id="svg1"
   inkscape:version="0.92.4 (5da689c313, 2019-01-14)"
   sodipodi:docname="home_puzzle.svg"
   sodipodi:version="0.32"
   width="273.31647pt"
   version="1.1">
  <metadata
     id="metadata2">
    <rdf:RDF>
      <cc:Work
         rdf:about="">
        <dc:title></dc:title>
        <dc:description />
        <dc:subject>
          <rdf:Bag>
            <rdf:li />
            <rdf:li>jigsaw</rdf:li>
            <rdf:li>shape</rdf:li>
          </rdf:Bag>
        </dc:subject>
        <dc:publisher>
          <cc:Agent
             rdf:about="http://www.openclipart.org">
            <dc:title>Nicu Buculei</dc:title>
          </cc:Agent>
        </dc:publisher>
        <dc:creator>
          <cc:Agent>
            <dc:title>Nicu Buculei</dc:title>
          </cc:Agent>
        </dc:creator>
        <dc:rights>
          <cc:Agent>
            <dc:title>Nicu Buculei</dc:title>
          </cc:Agent>
        </dc:rights>
        <dc:date />
        <dc:format>image/svg+xml</dc:format>
        <dc:type
           rdf:resource="http://purl.org/dc/dcmitype/StillImage" />
        <cc:license
           rdf:resource="http://web.resource.org/cc/PublicDomain" />
        <dc:language>en</dc:language>
      </cc:Work>
      <cc:License
         rdf:about="http://web.resource.org/cc/PublicDomain">
        <cc:permits
           rdf:resource="http://web.resource.org/cc/Reproduction" />
        <cc:permits
           rdf:resource="http://web.resource.org/cc/Distribution" />
        <cc:permits
           rdf:resource="http://web.resource.org/cc/DerivativeWorks" />
      </cc:License>
    </rdf:RDF>
  </metadata>
  <defs
     id="defs3">
    <linearGradient
       id="linearGradient1085">
      <stop
         id="stop1086"
         offset="0.0000000"
         style="stop-color:#7f0000;stop-opacity:1.0000000;" />
      <stop
         id="stop1087"
         offset="1.0000000"
         style="stop-color:#ff0000;stop-opacity:1.0000000;" />
    </linearGradient>
    <radialGradient
       cx="1.7995006"
       cy="-0.033503532"
       fx="1.7995006"
       fy="-0.033503532"
       id="radialGradient1088"
       r="2.1367373"
       xlink:href="#linearGradient1085" />
    <radialGradient
       cx="-1.8538072"
       cy="-0.028270273"
       fx="-1.8538072"
       fy="-0.028270273"
       id="radialGradient1089"
       r="2.1367373"
       xlink:href="#linearGradient1085" />
    <radialGradient
       cx="-0.34090281"
       cy="-1.884181"
       fx="-0.34090281"
       fy="-1.884181"
       gradientTransform="scale(0.751916,1.329935)"
       id="radialGradient1090"
       r="2.1367373"
       xlink:href="#linearGradient1085" />
    <radialGradient
       cx="-0.33888963"
       cy="0.86286521"
       fx="-0.33888963"
       fy="0.86286521"
       gradientTransform="scale(0.751916,1.329935)"
       id="radialGradient1091"
       r="2.1367373"
       xlink:href="#linearGradient1085" />
    <radialGradient
       cx="0.86051458"
       cy="-0.022911092"
       fx="0.86051458"
       fy="-0.022911092"
       id="radialGradient1092"
       r="2.1367371"
       xlink:href="#linearGradient1085" />
    <radialGradient
       cx="-2.7927938"
       cy="-0.031800985"
       fx="-2.7927938"
       fy="-0.031800985"
       id="radialGradient1093"
       r="2.1367373"
       xlink:href="#linearGradient1085" />
    <radialGradient
       cx="-0.34090281"
       cy="-1.1746118"
       fx="-0.34090281"
       fy="-1.1746118"
       gradientTransform="scale(0.751916,1.329935)"
       id="radialGradient1094"
       r="2.1367373"
       xlink:href="#linearGradient1085" />
    <radialGradient
       cx="-0.33623907"
       cy="1.5691054"
       fx="-0.33623907"
       fy="1.5691054"
       gradientTransform="scale(0.751916,1.329935)"
       id="radialGradient1095"
       r="2.1367371"
       xlink:href="#linearGradient1085" />
    <radialGradient
       cx="0.26481381"
       cy="0.26821491"
       fx="0.26481381"
       fy="0.26821491"
       gradientTransform="scale(0.867801,1.152339)"
       id="radialGradient1096"
       r="0.66534734"
       xlink:href="#linearGradient1085" />
  </defs>
  <sodipodi:namedview
     bordercolor="#666666"
     borderopacity="1.0"
     id="base"
     inkscape:cx="87.408291"
     inkscape:cy="129.04206"
     inkscape:pageopacity="0.0"
     inkscape:pageshadow="2"
     inkscape:window-height="863"
     inkscape:window-width="1600"
     inkscape:window-x="0"
     inkscape:window-y="18"
     inkscape:zoom="1"
     pagecolor="#ffffff"
     showgrid="true"
     fit-margin-top="0"
     fit-margin-left="0"
     fit-margin-right="0"
     fit-margin-bottom="0"
     inkscape:window-maximized="0"
     inkscape:current-layer="svg1" />
  <g
     id="g842"
     transform="translate(-102.06255,-106.21879)">
    <path
       d="m 459.922,464.39075 c 0,0 -0.125,-96.93751 -0.125,-96.9375 0,0 -1.07917,-22.68603 -20.59375,-18.90625 -15.8556,3.07108 -10.23276,24.87804 -22.6875,25.84375 -2.87417,0.22286 -6.7148,-0.67576 -12,-3.15625 -10.9092,-9.09512 -16.00296,-26.14431 -16.5625,-41.34375 -0.20656,-5.61095 0.2833,-10.88794 1.25,-15.5 0.0248,-0.20469 0.0673,-0.42017 0.0937,-0.625 1.69391,-13.11441 6.7618,-26.4178 15.96875,-34.09375 28.18774,-13.22927 15.17291,18.90772 34.6875,22.6875 14.2182,2.75393 18.61045,-8.47834 19.96875,-14.8125 V 184.64075 h -101.5937 c -6.20122,-1.21826 -18.24109,-5.48907 -15.40625,-20.125 3.77979,-19.5146 35.88552,-6.49976 22.65625,-34.6875 -7.67594,-9.20696 -20.97934,-14.27484 -34.09375,-15.96875 -0.20482,-0.0265 -0.42031,-0.0689 -0.625,-0.0937 -4.61204,-0.96671 -9.88905,-1.45656 -15.5,-1.25 -15.19944,0.55953 -32.24863,5.6533 -41.34375,16.5625 -13.22926,28.18772 18.90771,15.17291 22.6875,34.6875 3.7798,19.51457 -18.90625,20.59375 -18.90625,20.59375 l -97.1875,0.28125 v 102.0937 c -1.38641,6.35211 -5.80273,17.45652 -19.9375,14.71875 -19.51458,-3.77979 -6.49976,-35.91677 -34.6875,-22.6875 -9.20694,7.67594 -14.27484,21.01059 -15.96875,34.125 -0.0264,0.20482 -0.0689,0.38906 -0.0937,0.59375 -0.96669,4.61205 -1.45656,9.88905 -1.25,15.5 0.55955,15.19944 5.6533,32.24863 16.5625,41.34375 28.18774,13.22926 15.17291,-18.90771 34.6875,-22.6875 19.51459,-3.7798 20.59375,18.90625 20.59375,18.90625 l 0.0937,97.84375 c 0,0 97.34375,-0.71875 97.34375,-0.71875 0,0 22.68605,-1.07917 18.90625,-20.59375 -3.77979,-19.51459 -35.91676,-6.49977 -22.6875,-34.6875 9.09512,-10.9092 26.14431,-16.00296 41.34375,-16.5625 5.61095,-0.20656 10.88796,0.2833 15.5,1.25 0.20469,0.0248 0.42018,0.0673 0.625,0.0937 13.11441,1.69391 26.41781,6.7618 34.09375,15.96875 13.22927,28.18774 -18.87646,15.17291 -22.65625,34.6875 -3.72014,19.2066 17.96449,20.52472 18.65625,20.5625 z"
       id="path1202"
       sodipodi:nodetypes="cccccccccccccccccccccccccccccccccccccccccc"
       style="fill:none;fill-opacity:1;fill-rule:evenodd;stroke:#dc9656;stroke-width:12.5;stroke-linejoin:round;stroke-dasharray:none;stroke-opacity:1"
       inkscape:connector-curvature="0" />
  </g>
</svg>
