<?xml version="1.0" encoding="UTF-8" standalone="no"?>
<svg
   xmlns:dc="http://purl.org/dc/elements/1.1/"
   xmlns:cc="http://creativecommons.org/ns#"
   xmlns:rdf="http://www.w3.org/1999/02/22-rdf-syntax-ns#"
   xmlns:svg="http://www.w3.org/2000/svg"
   xmlns="http://www.w3.org/2000/svg"
   xmlns:xlink="http://www.w3.org/1999/xlink"
   xmlns:sodipodi="http://sodipodi.sourceforge.net/DTD/sodipodi-0.dtd"
   xmlns:inkscape="http://www.inkscape.org/namespaces/inkscape"
   version="1.2"
   width="7.1065202mm"
   height="7.1065202mm"
   viewBox="0 0 4.0440026 4.0440024"
   id="svg28"
   sodipodi:docname="home_music.svg"
   inkscape:version="0.92.4 (5da689c313, 2019-01-14)">
  <metadata
     id="metadata34">
    <rdf:RDF>
      <cc:Work
         rdf:about="">
        <dc:format>image/svg+xml</dc:format>
        <dc:type
           rdf:resource="http://purl.org/dc/dcmitype/StillImage" />
        <dc:title></dc:title>
      </cc:Work>
    </rdf:RDF>
  </metadata>
  <defs
     id="defs32" />
  <sodipodi:namedview
     pagecolor="#ffffff"
     bordercolor="#666666"
     borderopacity="1"
     objecttolerance="10"
     gridtolerance="10"
     guidetolerance="10"
     inkscape:pageopacity="0"
     inkscape:pageshadow="2"
     inkscape:window-width="1600"
     inkscape:window-height="863"
     id="namedview30"
     showgrid="false"
     fit-margin-top="0"
     fit-margin-left="0"
     fit-margin-right="0"
     fit-margin-bottom="0"
     inkscape:zoom="9.5144352"
     inkscape:cx="18.3942"
     inkscape:cy="7.6079938"
     inkscape:window-x="0"
     inkscape:window-y="18"
     inkscape:window-maximized="0"
     inkscape:current-layer="svg28" />
  <!-- Page: 1/1 -->
  <text
     font-size="2.2001"
     id="text4"
     style="font-size:2.20009995px;font-family:serif;text-anchor:start;fill:#86c1b9;fill-opacity:1"
     x="-18.722853"
     y="-1.1028608">
    <tspan
       id="tspan2"
       style="fill:#86c1b9;fill-opacity:1" />
  </text>
  <g
     id="g4552"
     transform="translate(-1.5482748,-1.4833842)"
     style="fill:#dc9656;fill-opacity:1">
    <path
       style="fill:#dc9656;fill-opacity:1;stroke-width:0.004"
       inkscape:connector-curvature="0"
       id="path8"
       d="m 3.8083761,1.5233863 v 1.0000001 h -0.064 V 1.5233863 Z m 0,0 c 0,0.7880001 0.828,1.3440001 0.828,2.1320001 0,0.284 -0.06,0.564 -0.164,0.828 -0.02,0.032 -0.052,0.048 -0.08,0.048 -0.052,0 -0.104,-0.044 -0.092,-0.108 0.104,-0.244 0.168,-0.504 0.168,-0.768 0,-0.412 -0.376,-0.832 -0.66,-1.132 z" />
    <rect
       rx="0.039999999"
       style="fill:#dc9656;fill-opacity:1"
       id="rect10"
       ry="0.039999999"
       height="3.3139"
       width="0.13"
       y="1.4833864"
       x="3.6783762" />
    <a
       transform="translate(-21.172224,-3.1259136)"
       id="a18"
       xlink:href="textedit:///home/llama/letitin.ly:4:55:56"
       style="color:inherit;fill:#dc9656;fill-opacity:1">
      <path
         style="fill:#dc9656;fill-opacity:1"
         inkscape:connector-curvature="0"
         id="path16"
         d="m 218,136 c 55,0 108,-28 108,-89 0,-71 -55,-121 -102,-149 -35,-21 -75,-34 -116,-34 -55,0 -108,28 -108,89 0,71 55,121 102,149 35,21 75,34 116,34 z"
         transform="matrix(0.004,0,0,-0.004,23.6764,8.1093)" />
    </a>
  </g>
</svg>
