<?xml version="1.0" encoding="UTF-8" standalone="no"?>
<svg xmlns="http://www.w3.org/2000/svg" width="10.9244mm" height="10.9244mm" viewBox="0 0 10.9244 10.9244">
  <path
     d="m 4.5320242,9.3586027 v 0.9870203 h -0.775146 q -1.286744,0 -1.725993,-0.3824053 -0.434082,-0.382406 -0.434082,-1.524455 v -1.111043 q 0,-0.780315 -0.279053,-1.07487 -0.273885,-0.299723 -0.99735504,-0.299723 H 1.1647949e-6 v -0.98702 H 0.32039516 q 0.72347004,0 0.99735504,-0.294556 0.279053,-0.294556 0.279053,-1.080037 v -1.111044 q 0,-1.142049 0.434082,-1.51928704 0.439249,-0.382405 1.725993,-0.382405 h 0.775146 V 1.5606297 h -0.63562 q -0.537435,0 -0.718302,0.217041 -0.180868,0.217041 -0.180868,0.956014 v 1.080037 q 0,0.852661 -0.253214,1.198893 -0.253215,0.346233 -0.904338,0.444418 0.651123,0.10852 0.904338,0.45992 0.253214,0.3514 0.253214,1.198893 v 1.059367 q 0,0.744141 0.180868,0.961182 0.180867,0.222208 0.718302,0.222208 z"
     style="fill:#d8d8d8"
     />
  <path
     d="m 6.3923762,9.3586027 h 0.625285 q 0.537434,0 0.72347,-0.222208 0.186035,-0.222209 0.186035,-0.961182 v -1.059367 q 0,-0.847493 0.253214,-1.198893 0.253215,-0.3514 0.89917,-0.45992 -0.651123,-0.09819 -0.904337,-0.444418 -0.248047,-0.346232 -0.248047,-1.198893 v -1.080037 q 0,-0.728638 -0.186035,-0.950846 -0.180868,-0.222209 -0.72347,-0.222209 H 6.3923762 V 0.57877766 h 0.775146 q 1.281576,0 1.71049,0.382405 0.434082,0.37723804 0.434082,1.51928704 v 1.111044 q 0,0.780314 0.279053,1.080037 0.28422,0.294556 1.0128578,0.294556 h 0.320394 v 0.98702 h -0.320394 q -0.7286378,0 -1.0128578,0.299723 -0.279053,0.299723 -0.279053,1.07487 v 1.111043 q 0,1.142049 -0.434082,1.524455 -0.428914,0.3824053 -1.71049,0.3824053 h -0.775146 z"
     style="fill:#d8d8d8"
     />
</svg>
