<?xml version="1.0" encoding="UTF-8" standalone="no"?>
<!-- Created with Inkscape (http://www.inkscape.org/) -->

<svg
   xmlns:dc="http://purl.org/dc/elements/1.1/"
   xmlns:cc="http://creativecommons.org/ns#"
   xmlns:rdf="http://www.w3.org/1999/02/22-rdf-syntax-ns#"
   xmlns:svg="http://www.w3.org/2000/svg"
   xmlns="http://www.w3.org/2000/svg"
   xmlns:sodipodi="http://sodipodi.sourceforge.net/DTD/sodipodi-0.dtd"
   xmlns:inkscape="http://www.inkscape.org/namespaces/inkscape"
   width="8.0110397cm"
   height="8.0110397cm"
   viewBox="0 0 80.110397 80.110395"
   version="1.1"
   id="svg8"
   sodipodi:docname="home_conlang.svg"
   inkscape:version="0.92.4 (5da689c313, 2019-01-14)">
  <defs
     id="defs2" />
  <sodipodi:namedview
     id="base"
     pagecolor="#ffffff"
     bordercolor="#666666"
     borderopacity="1.0"
     inkscape:pageopacity="0.0"
     inkscape:pageshadow="2"
     inkscape:zoom="1"
     inkscape:cx="163.03462"
     inkscape:cy="20.716651"
     inkscape:document-units="cm"
     inkscape:current-layer="layer1"
     showgrid="true"
     units="cm"
     inkscape:window-width="1600"
     inkscape:window-height="863"
     inkscape:window-x="0"
     inkscape:window-y="18"
     inkscape:window-maximized="0"
     inkscape:snap-nodes="false"
     fit-margin-top="0"
     fit-margin-left="0"
     fit-margin-right="0"
     fit-margin-bottom="0">
    <inkscape:grid
       type="xygrid"
       id="grid815"
       units="cm"
       spacingx="9.9999998"
       spacingy="9.9999998"
       originx="-13.337471"
       originy="-7.6834409" />
  </sodipodi:namedview>
  <metadata
     id="metadata5">
    <rdf:RDF>
      <cc:Work
         rdf:about="">
        <dc:format>image/svg+xml</dc:format>
        <dc:type
           rdf:resource="http://purl.org/dc/dcmitype/StillImage" />
        <dc:title></dc:title>
      </cc:Work>
    </rdf:RDF>
  </metadata>
  <g
     inkscape:label="Layer 1"
     inkscape:groupmode="layer"
     id="layer1"
     transform="translate(-13.337471,-209.20618)">
    <path
       style="opacity:1;fill:#dc9656;fill-opacity:1;stroke:none;stroke-width:1;stroke-linecap:butt;stroke-linejoin:round;stroke-miterlimit:4;stroke-dasharray:none;stroke-opacity:1"
       id="path1577"
       d="m 45.392491,239.16863 c -0.254132,0.0358 -0.08809,0.0115 -0.02132,0.002 -0.134181,0.0526 -0.2685,0.10792 -0.401037,0.16561 -0.260006,0.11915 -0.511366,0.25555 -0.754097,0.40659 -0.323855,0.20674 -0.61018,0.46408 -0.892892,0.72247 -0.443442,0.40627 -0.827881,0.86894 -1.201018,1.33882 -0.504825,0.64081 -0.952341,1.32307 -1.381038,2.01622 -0.496377,0.80693 -0.926438,1.65113 -1.335701,2.50469 -0.444582,0.93642 -0.832096,1.89805 -1.2012,2.86621 -0.368155,0.96414 -0.686472,1.94585 -0.986719,2.93288 -0.28906,0.92386 -0.501668,1.86763 -0.67306,2.81951 -0.172067,0.95898 -0.237699,1.93083 -0.265655,2.90322 -0.02885,1.07309 0.04697,2.14377 0.163195,3.20965 0.124013,1.1223 0.362852,2.22578 0.644572,3.31765 0.279583,1.07982 0.679064,2.12053 1.132896,3.13751 0.439589,0.98016 1.004644,1.89325 1.609169,2.77833 0.628296,0.90697 1.343465,1.74743 2.085454,2.56218 0.753544,0.81805 1.56926,1.57451 2.404271,2.30793 0.851612,0.74377 1.754529,1.42482 2.667463,2.09067 0.906952,0.66178 1.852184,1.2677 2.808574,1.85478 0.905142,0.55613 1.838475,1.06334 2.786835,1.54126 0.866007,0.44197 1.769261,0.79922 2.692193,1.10158 0.915834,0.29357 1.862151,0.46287 2.814056,0.58416 1.004406,0.12314 2.016336,0.12372 3.025616,0.0841 1.038151,-0.0426 2.064123,-0.20194 3.079768,-0.41298 1.063067,-0.23291 2.098831,-0.569 3.12215,-0.93564 0.983456,-0.35365 1.932088,-0.79196 2.85795,-1.27468 0.842123,-0.44048 1.628711,-0.97331 2.386494,-1.54433 0.727903,-0.54775 1.373732,-1.18855 1.97971,-1.86586 0.648234,-0.73946 1.195149,-1.55727 1.709528,-2.39297 0.545251,-0.88372 0.979639,-1.82538 1.358829,-2.78999 0.393631,-1.02009 0.645938,-2.08381 0.853329,-3.15479 0.213841,-1.15133 0.300019,-2.31965 0.350316,-3.48784 0.04992,-1.29553 -0.01601,-2.5906 -0.124944,-3.88122 -0.109768,-1.27934 -0.352478,-2.53966 -0.647377,-3.78751 -0.280258,-1.16429 -0.662453,-2.2988 -1.093285,-3.41489 -0.398129,-1.01902 -0.880954,-2.00083 -1.404779,-2.96024 -0.47199,-0.86672 -1.030626,-1.67984 -1.624909,-2.46608 -0.552889,-0.72914 -1.183161,-1.39216 -1.83805,-2.02919 -0.658365,-0.63034 -1.367782,-1.20303 -2.093465,-1.75323 -0.74335,-0.55662 -1.523574,-1.061 -2.309977,-1.55395 -0.764754,-0.48115 -1.556406,-0.91647 -2.357787,-1.33291 -0.76604,-0.3963 -1.550077,-0.75572 -2.340475,-1.10027 -0.732303,-0.31701 -1.474901,-0.60952 -2.225505,-0.88016 -0.679985,-0.23801 -1.370711,-0.44368 -2.063914,-0.63922 -0.575538,-0.16741 -1.163664,-0.28105 -1.754622,-0.37694 -0.59835,-0.0922 -1.201049,-0.15105 -1.803503,-0.20854 -0.589097,-0.0534 -1.178877,-0.0988 -1.768835,-0.14144 -0.490778,-0.0361 -0.981871,-0.0673 -1.473578,-0.0873 -0.414382,-0.0153 -0.828958,-0.0213 -1.243565,-0.0156 -0.334743,0.005 -0.669036,0.0227 -1.001827,0.059 -0.297407,0.0347 -0.591029,0.0946 -0.88224,0.1632 -0.375025,0.0918 -0.745463,0.20116 -1.116356,0.30817 -0.392919,0.11359 -0.785977,0.2267 -1.178899,0.34028 -0.177308,0.0525 -0.355068,0.10377 -0.530084,0.16358 -4.615876,1.53465 -6.7862,-4.99319 -2.170325,-6.52784 v 0 c 0.26193,-0.0862 0.525058,-0.16843 0.790165,-0.24437 0.394047,-0.1139 0.788226,-0.22733 1.18227,-0.34124 0.490754,-0.14158 0.981371,-0.28465 1.478616,-0.40209 0.567203,-0.1292 1.138817,-0.24127 1.717915,-0.30223 0.53993,-0.0545 1.081506,-0.0895 1.624344,-0.0951 0.537948,-0.006 1.075891,-7e-5 1.613511,0.0209 0.562832,0.0235 1.125082,0.0576 1.686859,0.0994 0.642543,0.0466 1.284899,0.0961 1.926471,0.15467 0.755909,0.0723 1.511839,0.14901 2.262124,0.26799 0.846203,0.13978 1.687922,0.30725 2.512634,0.54564 0.851154,0.24097 1.69912,0.4948 2.533208,0.79023 0.88896,0.32247 1.7698,0.66714 2.63715,1.04426 0.93369,0.40801 1.859801,0.83371 2.764607,1.30293 0.964525,0.50272 1.917282,1.02825 2.838101,1.60803 0.960244,0.60311 1.911426,1.22235 2.817561,1.90515 0.949584,0.72379 1.877264,1.47763 2.736564,2.30817 0.901652,0.8836 1.767462,1.80464 2.528221,2.81446 0.793348,1.05827 1.540161,2.15154 2.171324,3.31584 0.664051,1.22543 1.278763,2.47783 1.782556,3.77878 0.539396,1.40909 1.019403,2.84078 1.368925,4.31012 0.368427,1.57814 0.670113,3.17214 0.80572,4.78923 0.130027,1.58209 0.207349,3.16949 0.141827,4.75716 -0.06886,1.50978 -0.188349,3.01911 -0.47208,4.50589 -0.293899,1.485 -0.656085,2.95809 -1.210564,4.3703 -0.534995,1.33744 -1.141621,2.64535 -1.902918,3.87137 -0.73602,1.1842 -1.522708,2.33934 -2.452666,3.38216 -0.909534,1.00149 -1.875613,1.95111 -2.962217,2.76229 -1.062894,0.79255 -2.164524,1.5335 -3.343336,2.14501 -1.204227,0.62195 -2.435635,1.19099 -3.713408,1.64702 -1.327978,0.47209 -2.672734,0.90197 -4.052959,1.19562 -1.387679,0.28133 -2.788957,0.49489 -4.206163,0.54822 -1.392439,0.0491 -2.788198,0.0393 -4.172757,-0.13762 -1.382731,-0.18438 -2.756741,-0.43978 -4.085238,-0.87525 -1.24224,-0.41499 -2.46198,-0.89359 -3.629316,-1.49103 -1.118026,-0.5657 -2.219566,-1.16361 -3.287041,-1.82061 -1.111345,-0.68351 -2.209178,-1.3897 -3.263169,-2.1597 -1.080985,-0.78977 -2.148393,-1.59966 -3.1559,-2.48252 -1.026184,-0.90445 -2.027835,-1.83798 -2.952379,-2.84754 -0.9564,-1.05554 -1.876235,-2.14574 -2.68332,-3.32153 -0.831575,-1.22921 -1.605243,-2.49878 -2.208603,-3.8581 -0.602433,-1.3679 -1.135949,-2.76593 -1.507017,-4.21633 -0.359659,-1.41243 -0.663806,-2.83968 -0.820419,-4.29067 -0.146196,-1.38037 -0.240322,-2.76684 -0.19915,-4.15598 0.04275,-1.314 0.137445,-2.627 0.373531,-3.92231 0.222368,-1.2122 0.492697,-2.41511 0.860465,-3.59248 0.347189,-1.13827 0.715595,-2.27026 1.140733,-3.38218 0.438276,-1.14623 0.899214,-2.28435 1.427701,-3.3925 0.517517,-1.07446 1.062852,-2.13623 1.69046,-3.15144 0.573963,-0.9227 1.174347,-1.82988 1.850707,-2.68168 0.605962,-0.75601 1.237999,-1.49296 1.957861,-2.14435 0.608902,-0.54882 1.238803,-1.0774 1.941232,-1.5045 0.517821,-0.31126 1.047615,-0.6029 1.602248,-0.84415 0.414221,-0.17755 0.83284,-0.34718 1.266539,-0.47186 0.264377,-0.0717 0.67259,-0.16786 0.871313,-0.18323 4.811927,-0.71193 5.818748,6.09316 1.006821,6.80509 z"
       inkscape:connector-curvature="0" />
    <path
       style="opacity:1;fill:#dc9656;fill-opacity:1;stroke:none;stroke-width:1;stroke-linecap:butt;stroke-linejoin:round;stroke-miterlimit:4;stroke-dasharray:none;stroke-opacity:1"
       id="path1579"
       d="m 51.947347,226.357 c -0.241681,-0.44678 -0.405913,-0.92751 -0.554971,-1.41128 -0.219496,-0.78354 -0.349303,-1.58825 -0.487746,-2.389 -0.135888,-0.79428 -0.278715,-1.58735 -0.420323,-2.38063 -0.121877,-0.68105 -0.242609,-1.36229 -0.360002,-2.04412 -0.102013,-0.5967 -0.198234,-1.19437 -0.293217,-1.79222 -0.08263,-0.51949 -0.164063,-1.03917 -0.24515,-1.5589 -0.06002,-0.38448 -0.117414,-0.76942 -0.188481,-1.15206 -0.01,-0.0557 -0.02,-0.1114 -0.03001,-0.1671 -0.859004,-4.78786 5.912048,-6.00267 6.771052,-1.21482 v 0 c 0.0082,0.0459 0.01643,0.0918 0.02466,0.13764 0.08115,0.44399 0.151572,0.88976 0.219726,1.33592 0.08011,0.51348 0.160555,1.02691 0.242197,1.54015 0.09029,0.56852 0.181756,1.13688 0.27867,1.70432 0.114959,0.66789 0.233315,1.33518 0.352671,2.0023 0.143822,0.80568 0.288835,1.61115 0.42686,2.41785 0.09168,0.53057 0.177557,1.0629 0.299239,1.58763 0.01286,0.0496 0.03249,0.11098 0.04095,0.15886 2.280748,4.29647 -3.795376,7.52193 -6.076125,3.22546 z"
       inkscape:connector-curvature="0" />
    <path
       style="opacity:1;fill:#dc9656;fill-opacity:1;stroke:none;stroke-width:1;stroke-linecap:butt;stroke-linejoin:round;stroke-miterlimit:4;stroke-dasharray:none;stroke-opacity:1"
       id="path1581"
       d="m 75.409121,231.07419 c 0.194942,-0.38899 0.454326,-0.73972 0.701294,-1.09627 0.419486,-0.61168 0.813059,-1.2406 1.207587,-1.86851 0.560215,-0.89435 1.113779,-1.79285 1.666123,-2.69208 0.470988,-0.76797 0.942571,-1.53558 1.41241,-2.30425 0.185616,-0.29857 0.35502,-0.60631 0.50039,-0.92631 2.076792,-4.39868 8.297469,-1.46165 6.220675,2.93703 v 0 c -0.258461,0.53919 -0.533263,1.07004 -0.851546,1.57699 -0.472456,0.77293 -0.946629,1.54481 -1.420244,2.31703 -0.564623,0.91922 -1.130527,1.83765 -1.703252,2.75185 -0.449323,0.71491 -0.898544,1.43034 -1.377521,2.12593 -0.06627,0.0956 -0.444252,0.67137 -0.187799,0.22445 -2.153748,4.36152 -8.321865,1.31566 -6.168117,-3.04586 z"
       inkscape:connector-curvature="0" />
    <path
       style="opacity:1;fill:#dc9656;fill-opacity:1;stroke:none;stroke-width:1;stroke-linecap:butt;stroke-linejoin:round;stroke-miterlimit:4;stroke-dasharray:none;stroke-opacity:1"
       id="path1583"
       d="m 28.605514,230.59681 c 0.0065,0.0116 0.02733,0.0454 0.0194,0.0348 -0.156943,-0.21075 -0.283648,-0.45316 -0.420674,-0.67675 -0.281383,-0.47423 -0.585666,-0.93367 -0.906655,-1.38184 -0.373229,-0.516 -0.78894,-0.99886 -1.209091,-1.4767 -0.423842,-0.47911 -0.869814,-0.93786 -1.315603,-1.39639 -0.402943,-0.41341 -0.808473,-0.8243 -1.214853,-1.23433 -0.328232,-0.33116 -0.657601,-0.6612 -0.990003,-0.98819 -0.278422,-0.27203 -0.555733,-0.5452 -0.834312,-0.81708 -0.185879,-0.17606 -0.362872,-0.36241 -0.558794,-0.52758 0.120329,0.12101 0.285677,0.19595 0.438824,0.2699 -4.514496,-1.8113 -1.952936,-8.19576 2.56156,-6.38446 v 0 c 0.548732,0.23967 1.072471,0.52511 1.520134,0.92921 0.289311,0.25451 0.569133,0.51917 0.84324,0.79 0.285266,0.27846 0.569336,0.55814 0.854418,0.83679 0.352734,0.34722 0.702639,0.6973 1.050971,1.04894 0.421973,0.42578 0.843054,0.85245 1.261428,1.28177 0.526665,0.54183 1.052178,1.08521 1.551964,1.65219 0.572941,0.6531 1.13555,1.31646 1.642018,2.02324 0.411642,0.57948 0.807276,1.16991 1.170747,1.78106 0.171961,0.28084 0.349843,0.55801 0.518549,0.84081 2.400361,4.23081 -3.582906,7.62544 -5.983267,3.39463 z"
       inkscape:connector-curvature="0" />
  </g>
</svg>
