<?xml version="1.0" encoding="UTF-8" standalone="no"?>
<svg xmlns="http://www.w3.org/2000/svg" viewBox="0 0 74.9 74.9" width="74.9" height="74.9">
<path
   d="m 47.737501,37.4 21.1,-21.1 c 1.5,-1.5 1.5,-3.8 0,-5.3 C 61.737501,3.9 52.337501,0 42.437501,0 21.737501,0 4.9375008,16.8 4.9375008,37.5 c 0,20.7 16.8,37.4 37.5,37.4 9.9,0 19.3,-3.9 26.4,-11 1.5,-1.5 1.5,-3.8 0,-5.3 z m -11,-11.2 c -3.1,0 -5.6,-2.5 -5.6,-5.6 0,-3.1 2.5,-5.6 5.6,-5.6 3.1,0 5.6,2.5 5.6,5.6 0,3.1 -2.5,5.6 -5.6,5.6 z"
   style="fill:#d8d8d8">
</path>
</svg>
